<svg xmlns="http://www.w3.org/2000/svg" xmlns:xlink="http://www.w3.org/1999/xlink" xmlns:ifc="http://www.ifcopenshell.org/ns" width="200mm" height="200mm" viewBox="0 0 200 200">
    <defs>
        <marker id="arrowend" markerWidth="10" markerHeight="7" refX="10" refY="3.5" orient="auto">
          <polygon points="0 0, 10 3.5, 0 7"/>
        </marker>
        <marker id="arrowstart" markerWidth="10" markerHeight="7" refX="0" refY="3.5" orient="auto">
          <polygon points="10 0, 0 3.5, 10 7"/>
        </marker>
    </defs>
    <g ifc:name="Elevation MY STOREY PLAN" class="section" ifc:plane="[[1.000000,0.000000,0.000000,0.000000],[0.000000,1.000000,0.000000,0.000000],[0.000000,0.000000,1.000000,0.000000],[0.000000,0.000000,0.000000,1.000000]]" ifc:matrix3="[[20.000000,0.000000,100.000009],[0.000000,20.000000,100.000009],[0.000000,0.000000,1.000000]]">
        <g id="product-fb00c870-3a9f-43d4-ba8c-b6a337ca5870" class="IfcPile material-gewapendbetonprefab projection" ifc:name="PF 300x300" ifc:guid="3x0CXmEfz3rBgCjgCtobXm">
            <path d="M131.919,99.2821 L132.006,100"/>
            <path d="M131.663,98.6058 L131.919,99.2821"/>
            <path d="M131.252,98.0106 L131.663,98.6058"/>
            <path d="M130.711,97.5311 L131.252,98.0106"/>
            <path d="M130.07,97.195 L130.711,97.5311"/>
            <path d="M129.368,97.0219 L130.07,97.195"/>
            <path d="M128.645,97.0219 L129.368,97.0219"/>
            <path d="M127.943,97.195 L128.645,97.0219"/>
            <path d="M127.302,97.5311 L127.943,97.195"/>
            <path d="M126.761,98.0106 L127.302,97.5311"/>
            <path d="M126.35,98.6058 L126.761,98.0106"/>
            <path d="M126.094,99.2821 L126.35,98.6058"/>
            <path d="M126.006,100 L126.094,99.2821"/>
            <path d="M126.094,100.718 L126.006,100"/>
            <path d="M126.35,101.394 L126.094,100.718"/>
            <path d="M126.761,101.989 L126.35,101.394"/>
            <path d="M127.302,102.469 L126.761,101.989"/>
            <path d="M127.943,102.805 L127.302,102.469"/>
            <path d="M128.645,102.978 L127.943,102.805"/>
            <path d="M129.368,102.978 L128.645,102.978"/>
            <path d="M130.07,102.805 L129.368,102.978"/>
            <path d="M130.711,102.469 L130.07,102.805"/>
            <path d="M131.252,101.989 L130.711,102.469"/>
            <path d="M131.663,101.394 L131.252,101.989"/>
            <path d="M131.919,100.718 L131.663,101.394"/>
            <path d="M132.006,100 L131.919,100.718"/>
        </g>
        <g id="product-cf56969b-0084-4ca5-aa87-c0d189da1be6" class="IfcPile material-null projection" ifc:name="Test custom mesh" ifc:guid="3FLfQR08HCfQg7mD69sXlc">
            <path d="M90.6746,57.5747 L90.6747,57.5747"/>
            <path d="M90.9538,56.6786 L90.9538,56.6786"/>
            <path d="M93.1378,55.0507 L93.1378,55.0507"/>
            <path d="M92.2487,55.3516 L92.2488,55.3516"/>
            <path d="M91.4962,55.9125 L91.4962,55.9125"/>
            <path d="M91.5479,60.1549 L91.5479,60.1549"/>
            <path d="M90.6861,58.5132 L90.6861,58.5132"/>
            <path d="M90.987,59.4023 L90.987,59.4023"/>
            <path d="M93.1378,55.0507 L93.1378,55.0507"/>
            <path d="M93.1378,55.0507 L92.2487,55.3516"/>
            <path d="M92.2487,55.3516 L91.4962,55.9125"/>
            <path d="M91.4962,55.9125 L90.9538,56.6786"/>
            <path d="M90.9538,56.6786 L90.6746,57.5747"/>
            <path d="M90.6746,57.5747 L90.6861,58.5132"/>
            <path d="M90.6861,58.5132 L90.987,59.4023"/>
            <path d="M91.5479,60.1549 L90.987,59.4023"/>
            <path d="M90.6861,58.5132 L90.6747,57.5747"/>
            <path d="M90.6747,57.5747 L90.9538,56.6786"/>
            <path d="M90.9538,56.6786 L91.4962,55.9125"/>
            <path d="M91.4962,55.9125 L92.2488,55.3516"/>
            <path d="M92.2488,55.3516 L93.1378,55.0507"/>
            <path d="M93.1378,55.0507 L94.0764,55.0393"/>
            <path d="M94.0764,55.0393 L94.9725,55.3184"/>
            <path d="M94.9725,55.3184 L95.7385,55.8608"/>
            <path d="M95.7385,55.8608 L96.2994,56.6134"/>
            <path d="M96.2994,56.6134 L96.6004,57.5024"/>
            <path d="M96.6004,57.5024 L96.6118,58.441"/>
            <path d="M96.6118,58.441 L96.3327,59.3371"/>
            <path d="M96.3327,59.3371 L95.7903,60.1031"/>
            <path d="M95.7903,60.1031 L95.0377,60.664"/>
            <path d="M95.0377,60.664 L94.1486,60.965"/>
            <path d="M94.1486,60.965 L94.1486,60.965"/>
            <path d="M93.2101,60.9764 L93.2101,60.9764"/>
            <path d="M92.314,60.6973 L91.5479,60.1549"/>
            <path d="M91.5479,60.1549 L90.987,59.4023"/>
            <path d="M90.6861,58.5132 L90.987,59.4023"/>
        </g>
        <g id="product-0338804f-97ee-4f1c-af8e-402c423326a1" class="IfcPile material-gewapendbetonprefab projection" ifc:name="PF 300x300" ifc:guid="03E81Fb_vF7A_EG2n2CoQX">
            <path d="M63.1512,99.2821 L63.2384,100"/>
            <path d="M62.8948,98.6058 L63.1512,99.2821"/>
            <path d="M62.4839,98.0106 L62.8948,98.6058"/>
            <path d="M61.9426,97.5311 L62.4839,98.0106"/>
            <path d="M61.3022,97.195 L61.9426,97.5311"/>
            <path d="M60.6,97.0219 L61.3022,97.195"/>
            <path d="M59.8768,97.0219 L60.6,97.0219"/>
            <path d="M59.1746,97.195 L59.8768,97.0219"/>
            <path d="M58.5342,97.5311 L59.1746,97.195"/>
            <path d="M57.9929,98.0106 L58.5342,97.5311"/>
            <path d="M57.582,98.6058 L57.9929,98.0106"/>
            <path d="M57.3256,99.2821 L57.582,98.6058"/>
            <path d="M57.2384,100 L57.3256,99.2821"/>
            <path d="M57.3256,100.718 L57.2384,100"/>
            <path d="M57.582,101.394 L57.3256,100.718"/>
            <path d="M57.9929,101.989 L57.582,101.394"/>
            <path d="M58.5342,102.469 L57.9929,101.989"/>
            <path d="M59.1746,102.805 L58.5342,102.469"/>
            <path d="M59.8768,102.978 L59.1746,102.805"/>
            <path d="M60.6,102.978 L59.8768,102.978"/>
            <path d="M61.3022,102.805 L60.6,102.978"/>
            <path d="M61.9426,102.469 L61.3022,102.805"/>
            <path d="M62.4839,101.989 L61.9426,102.469"/>
            <path d="M62.8948,101.394 L62.4839,101.989"/>
            <path d="M63.1512,100.718 L62.8948,101.394"/>
            <path d="M63.2384,100 L63.1512,100.718"/>
        </g>
        <g id="product-fb00c870-3a9f-43d4-ba8c-b6a337ca5870" class="IfcPile material-gewapendbetonprefab projection" ifc:name="PF 300x300" ifc:guid="3x0CXmEfz3rBgCjgCtobXm">
            <path d="M139.006,110 L139.006,90"/>
            <path d="M119.006,110 L139.006,110"/>
            <path d="M119.006,90 L119.006,110"/>
            <path d="M139.006,90 L119.006,90"/>
            <path d="M119.006,110 L119.006,90"/>
            <path d="M139.006,110 L119.006,110"/>
            <path d="M139.006,90 L139.006,110"/>
            <path d="M119.006,90 L139.006,90"/>
        </g>
        <g id="product-0338804f-97ee-4f1c-af8e-402c423326a1" class="IfcPile material-gewapendbetonprefab projection" ifc:name="PF 300x300" ifc:guid="03E81Fb_vF7A_EG2n2CoQX">
            <path d="M58.7384,97.4019 L59.1746,97.195"/>
            <path d="M58.3411,97.6762 L58.4738,97.5846"/>
            <path d="M58.6057,97.4936 L58.7384,97.4019"/>
            <path d="M57.9929,98.0106 L58.3411,97.6762"/>
            <path d="M57.7028,98.3966 L57.9929,98.0106"/>
            <path d="M57.4785,98.8241 L57.5534,98.6813"/>
            <path d="M57.6279,98.5394 L57.7028,98.3966"/>
            <path d="M57.3256,99.2821 L57.4785,98.8241"/>
            <path d="M57.2481,99.7586 L57.3256,99.2821"/>
            <path d="M57.2481,100.241 L57.2481,100.08"/>
            <path d="M57.2481,99.9199 L57.2481,99.7586"/>
            <path d="M57.3256,100.718 L57.2481,100.241"/>
            <path d="M57.4785,101.176 L57.3256,100.718"/>
            <path d="M57.7028,101.603 L57.6279,101.461"/>
            <path d="M57.5534,101.319 L57.4785,101.176"/>
            <path d="M57.9929,101.989 L57.7028,101.603"/>
            <path d="M58.3411,102.324 L57.9929,101.989"/>
            <path d="M58.7384,102.598 L58.6057,102.506"/>
            <path d="M58.4738,102.415 L58.3411,102.324"/>
            <path d="M59.1746,102.805 L58.7384,102.598"/>
            <path d="M59.6383,102.939 L59.1746,102.805"/>
            <path d="M60.1176,102.998 L59.9575,102.978"/>
            <path d="M59.7984,102.959 L59.6383,102.939"/>
            <path d="M60.6,102.978 L60.1176,102.998"/>
            <path d="M61.0731,102.882 L60.6,102.978"/>
            <path d="M61.5245,102.71 L61.3737,102.768"/>
            <path d="M61.2239,102.824 L61.0731,102.882"/>
            <path d="M61.9426,102.469 L61.5245,102.71"/>
            <path d="M62.3166,102.164 L61.9426,102.469"/>
            <path d="M62.6367,101.802 L62.5298,101.923"/>
            <path d="M62.4235,102.043 L62.3166,102.164"/>
            <path d="M62.8948,101.394 L62.6367,101.802"/>
            <path d="M63.084,100.95 L62.8948,101.394"/>
            <path d="M63.1996,100.481 L63.161,100.638"/>
            <path d="M63.1226,100.793 L63.084,100.95"/>
            <path d="M63.2384,100 L63.1996,100.481"/>
            <path d="M63.1996,99.5188 L63.2384,100"/>
            <path d="M63.084,99.05 L63.1226,99.2066"/>
            <path d="M63.161,99.3622 L63.1996,99.5188"/>
            <path d="M62.8948,98.6058 L63.084,99.05"/>
            <path d="M62.6367,98.1978 L62.8948,98.6058"/>
            <path d="M62.3166,97.8364 L62.4235,97.9571"/>
            <path d="M62.5298,98.0771 L62.6367,98.1978"/>
            <path d="M61.9426,97.5311 L62.3166,97.8364"/>
            <path d="M61.5245,97.2897 L61.9426,97.5311"/>
            <path d="M61.0731,97.1185 L61.2239,97.1756"/>
            <path d="M61.3737,97.2325 L61.5245,97.2897"/>
            <path d="M60.6,97.0219 L61.0731,97.1185"/>
            <path d="M60.1176,97.0024 L60.6,97.0219"/>
            <path d="M59.6383,97.0606 L59.7984,97.0412"/>
            <path d="M59.9575,97.0219 L60.1176,97.0024"/>
            <path d="M59.1746,97.195 L59.6383,97.0606"/>
        </g>
        <g id="product-cf56969b-0084-4ca5-aa87-c0d189da1be6" class="IfcPile material-null projection" ifc:name="Test custom mesh" ifc:guid="3FLfQR08HCfQg7mD69sXlc">
            <path d="M92.3139,66.8348 L93.2101,64.2037"/>
            <path d="M92.314,60.6973 L92.3139,66.8348"/>
            <path d="M93.2101,64.2037 L92.314,60.6973"/>
            <path d="M92.3139,66.8348 L92.314,60.6973"/>
            <path d="M71.2746,66.773 L92.3139,66.8348"/>
            <path d="M92.314,60.6973 L71.2746,66.773"/>
            <path d="M93.2101,64.2037 L93.2101,60.9764"/>
            <path d="M92.314,60.6973 L93.2101,64.2037"/>
            <path d="M93.2101,60.9764 L92.314,60.6973"/>
            <path d="M86.8818,74.4271 L86.1158,67.7472"/>
            <path d="M65.8425,74.3653 L86.8818,74.4271"/>
            <path d="M86.1158,67.7472 L65.8425,74.3653"/>
            <path d="M93.2101,60.9764 L93.2101,64.2037"/>
            <path d="M94.1486,60.965 L93.2101,60.9764"/>
            <path d="M93.2101,64.2037 L94.1486,60.965"/>
            <path d="M91.5479,60.1549 L92.314,60.6973"/>
            <path d="M92.3139,66.8348 L91.5479,60.1549"/>
            <path d="M93.2101,64.2037 L92.3139,66.8348"/>
            <path d="M94.1486,60.965 L93.2101,64.2037"/>
            <path d="M93.2101,60.9764 L94.1486,60.965"/>
            <path d="M92.314,60.6973 L93.2101,60.9764"/>
        </g>
    </g>
</svg>