<svg xmlns="http://www.w3.org/2000/svg" xmlns:xlink="http://www.w3.org/1999/xlink" xmlns:ifc="http://www.ifcopenshell.org/ns" width="250mm" height="199.865mm" viewBox="0 0 250 199.865">
    <defs>
        <marker id="arrowend" markerWidth="10" markerHeight="7" refX="10" refY="3.5" orient="auto">
          <polygon points="0 0, 10 3.5, 0 7"/>
        </marker>
        <marker id="arrowstart" markerWidth="10" markerHeight="7" refX="0" refY="3.5" orient="auto">
          <polygon points="10 0, 0 3.5, 10 7"/>
        </marker>
    </defs>
    <g ifc:name="Elevation PP Renvooi" class="section" ifc:plane="[[1.000000,0.000000,0.000000,0.000000],[0.000000,1.000000,0.000000,0.000000],[0.000000,0.000000,1.000000,0.000000],[0.000000,0.000000,0.000000,1.000000]]" ifc:matrix3="[[10.000000,0.000000,225.000006],[0.000000,10.000000,-20.067742],[0.000000,0.000000,1.000000]]">
        <g id="product-2bc6b691-b1e0-4448-a34b-2278e92f94d1" class="IfcBuildingElementProxy material-null projection" ifc:name="Type 1" ifc:guid="0hnhQHiU14IADB8dZfBvJH">
            <path d="M36.066,141.039 L34.966,141.039"/>
            <path d="M36.066,141.039 L34.966,141.039"/>
            <path d="M34.966,140.672 L34.966,140.306"/>
            <path d="M34.966,140.672 L34.966,140.306"/>
            <path d="M34.2327,139.939 L33.866,139.939"/>
            <path d="M34.2327,139.939 L33.866,139.939"/>
            <path d="M34.2327,139.939 L33.866,140.306"/>
            <path d="M34.2327,139.939 L33.866,140.306"/>
            <path d="M33.1327,139.939 L33.4993,139.939"/>
            <path d="M33.1327,139.939 L33.4993,139.939"/>
            <path d="M33.1327,141.039 L33.4993,141.039"/>
            <path d="M33.1327,141.039 L33.4993,141.039"/>
            <path d="M34.966,141.039 L34.966,140.672"/>
            <path d="M34.966,141.039 L34.966,140.672"/>
            <path d="M33.866,139.939 L32.766,141.039"/>
            <path d="M33.866,139.939 L32.766,141.039"/>
            <path d="M33.866,138.839 L33.866,139.939"/>
            <path d="M33.866,138.839 L33.866,139.939"/>
            <path d="M33.1327,141.039 L32.766,141.039"/>
            <path d="M33.1327,141.039 L32.766,141.039"/>
            <path d="M34.966,139.939 L33.866,141.039"/>
            <path d="M34.966,139.939 L33.866,141.039"/>
            <path d="M34.2327,139.939 L34.5993,139.939"/>
            <path d="M34.2327,139.939 L34.5993,139.939"/>
            <path d="M33.866,141.039 L34.2327,141.039"/>
            <path d="M33.866,141.039 L34.2327,141.039"/>
            <path d="M33.866,140.306 L33.866,140.672"/>
            <path d="M33.866,140.306 L33.866,140.672"/>
            <path d="M32.766,139.939 L33.1327,139.939"/>
            <path d="M32.766,139.939 L33.1327,139.939"/>
            <path d="M32.766,139.939 L32.766,140.306"/>
            <path d="M32.766,139.939 L32.766,140.306"/>
            <path d="M34.966,139.939 L34.5993,139.939"/>
            <path d="M34.966,139.939 L34.5993,139.939"/>
            <path d="M33.4993,139.939 L33.866,139.939"/>
            <path d="M33.4993,139.939 L33.866,139.939"/>
            <path d="M33.4993,141.039 L33.866,140.672"/>
            <path d="M33.4993,141.039 L33.866,140.672"/>
            <path d="M32.766,140.306 L32.766,140.672"/>
            <path d="M32.766,140.306 L32.766,140.672"/>
            <path d="M33.866,141.039 L33.866,140.672"/>
            <path d="M33.866,141.039 L33.866,140.672"/>
            <path d="M34.966,141.039 L34.5993,141.039"/>
            <path d="M34.966,141.039 L34.5993,141.039"/>
            <path d="M34.966,139.939 L34.966,140.306"/>
            <path d="M34.966,139.939 L34.966,140.306"/>
            <path d="M33.1327,141.039 L33.866,140.306"/>
            <path d="M33.1327,141.039 L33.866,140.306"/>
            <path d="M32.766,140.306 L33.1327,139.939"/>
            <path d="M33.1327,139.939 L32.766,140.306"/>
            <path d="M31.666,141.039 L32.766,141.039"/>
            <path d="M31.666,141.039 L32.766,141.039"/>
            <path d="M32.766,140.672 L32.766,141.039"/>
            <path d="M32.766,140.672 L32.766,141.039"/>
            <path d="M34.966,142.139 L34.966,141.039"/>
            <path d="M34.966,141.039 L34.966,142.139"/>
            <path d="M32.766,140.672 L33.4993,139.939"/>
            <path d="M33.4993,139.939 L32.766,140.672"/>
            <path d="M33.866,142.139 L34.966,142.139"/>
            <path d="M34.966,142.139 L33.866,142.139"/>
            <path d="M33.4993,141.039 L33.866,141.039"/>
            <path d="M33.4993,141.039 L33.866,141.039"/>
            <path d="M33.866,142.139 L33.866,141.039"/>
            <path d="M33.866,141.039 L33.866,142.139"/>
            <path d="M33.866,139.939 L33.866,140.306"/>
            <path d="M33.866,140.306 L33.866,139.939"/>
            <path d="M33.866,142.139 L33.866,143.239"/>
            <path d="M33.866,143.239 L33.866,142.139"/>
            <path d="M34.5993,141.039 L34.2327,141.039"/>
            <path d="M34.5993,141.039 L34.2327,141.039"/>
            <path d="M34.5993,139.939 L33.866,140.672"/>
            <path d="M33.866,140.672 L34.5993,139.939"/>
            <path d="M34.966,140.672 L34.5993,141.039"/>
            <path d="M34.5993,141.039 L34.966,140.672"/>
            <path d="M32.766,142.139 L32.766,141.039"/>
            <path d="M32.766,141.039 L32.766,142.139"/>
            <path d="M34.966,140.306 L34.2327,141.039"/>
            <path d="M34.2327,141.039 L34.966,140.306"/>
            <path d="M32.766,142.139 L33.866,142.139"/>
            <path d="M33.866,142.139 L32.766,142.139"/>
        </g>
        <g id="product-8ec6657c-25fa-476a-855c-9d6edaa1af7e" class="IfcBuildingElementProxy material-null projection" ifc:name="Type 2" ifc:guid="2EncLy9Vf7QeLSdMxQeQz_">
            <path d="M33.866,154.272 L33.866,154.639"/>
            <path d="M33.866,154.272 L33.866,154.639"/>
            <path d="M31.666,153.539 L32.766,153.539"/>
            <path d="M31.666,153.539 L32.766,153.539"/>
            <path d="M34.2327,154.639 L34.5993,154.639"/>
            <path d="M34.2327,154.639 L34.5993,154.639"/>
            <path d="M36.066,153.539 L34.966,153.539"/>
            <path d="M36.066,153.539 L34.966,153.539"/>
            <path d="M33.866,152.439 L34.966,152.439"/>
            <path d="M34.966,152.439 L33.866,152.439"/>
            <path d="M34.5993,154.639 L34.966,154.272"/>
            <path d="M34.5993,154.639 L34.966,154.272"/>
            <path d="M34.2327,154.639 L33.866,154.639"/>
            <path d="M34.2327,154.639 L33.866,154.639"/>
            <path d="M34.2327,153.539 L34.5993,153.539"/>
            <path d="M34.2327,153.539 L34.5993,153.539"/>
            <path d="M34.2327,154.639 L34.966,153.906"/>
            <path d="M34.2327,154.639 L34.966,153.906"/>
            <path d="M34.2327,153.539 L33.866,153.539"/>
            <path d="M34.2327,153.539 L33.866,153.539"/>
            <path d="M33.866,154.639 L34.966,153.539"/>
            <path d="M33.866,154.639 L34.966,153.539"/>
            <path d="M33.4993,153.539 L33.866,153.539"/>
            <path d="M33.4993,153.539 L33.866,153.539"/>
            <path d="M32.766,153.539 L32.766,153.172"/>
            <path d="M32.766,153.539 L32.766,153.172"/>
            <path d="M33.866,154.272 L34.5993,153.539"/>
            <path d="M33.866,154.272 L34.5993,153.539"/>
            <path d="M33.866,154.639 L32.766,154.639"/>
            <path d="M32.766,154.639 L33.866,154.639"/>
            <path d="M33.4993,153.539 L33.1327,153.539"/>
            <path d="M33.4993,153.539 L33.1327,153.539"/>
            <path d="M32.766,153.172 L32.766,152.806"/>
            <path d="M32.766,153.172 L32.766,152.806"/>
            <path d="M34.2327,153.539 L33.866,153.906"/>
            <path d="M34.2327,153.539 L33.866,153.906"/>
            <path d="M33.1327,153.539 L32.766,153.539"/>
            <path d="M33.1327,153.539 L32.766,153.539"/>
            <path d="M32.766,152.439 L32.766,152.806"/>
            <path d="M32.766,152.439 L32.766,152.806"/>
            <path d="M33.4993,153.539 L33.866,153.172"/>
            <path d="M33.4993,153.539 L33.866,153.172"/>
            <path d="M33.866,154.272 L33.866,153.906"/>
            <path d="M33.866,154.272 L33.866,153.906"/>
            <path d="M34.5993,154.639 L34.966,154.639"/>
            <path d="M34.5993,154.639 L34.966,154.639"/>
            <path d="M33.1327,153.539 L33.866,152.806"/>
            <path d="M33.1327,153.539 L33.866,152.806"/>
            <path d="M34.966,153.906 L34.966,153.539"/>
            <path d="M34.966,153.906 L34.966,153.539"/>
            <path d="M33.866,153.906 L33.866,153.539"/>
            <path d="M33.866,153.906 L33.866,153.539"/>
            <path d="M34.966,153.539 L34.966,152.439"/>
            <path d="M34.966,152.439 L34.966,153.539"/>
            <path d="M32.766,153.539 L33.866,152.439"/>
            <path d="M32.766,153.539 L33.866,152.439"/>
            <path d="M34.966,153.906 L34.966,154.272"/>
            <path d="M34.966,153.906 L34.966,154.272"/>
            <path d="M33.866,153.539 L33.866,153.172"/>
            <path d="M33.866,153.539 L33.866,153.172"/>
            <path d="M32.766,152.439 L33.1327,152.439"/>
            <path d="M32.766,152.439 L33.1327,152.439"/>
            <path d="M32.766,153.172 L33.4993,152.439"/>
            <path d="M32.766,153.172 L33.4993,152.439"/>
            <path d="M34.966,154.639 L34.966,154.272"/>
            <path d="M34.966,154.272 L34.966,154.639"/>
            <path d="M33.866,153.172 L33.866,152.806"/>
            <path d="M33.866,153.172 L33.866,152.806"/>
            <path d="M32.766,153.539 L32.766,154.639"/>
            <path d="M32.766,154.639 L32.766,153.539"/>
            <path d="M32.766,152.806 L33.1327,152.439"/>
            <path d="M32.766,152.806 L33.1327,152.439"/>
            <path d="M33.1327,152.439 L33.4993,152.439"/>
            <path d="M33.1327,152.439 L33.4993,152.439"/>
            <path d="M33.866,152.806 L33.866,152.439"/>
            <path d="M33.866,152.806 L33.866,152.439"/>
            <path d="M33.866,154.639 L33.866,155.739"/>
            <path d="M33.866,155.739 L33.866,154.639"/>
            <path d="M33.4993,152.439 L33.866,152.439"/>
            <path d="M33.4993,152.439 L33.866,152.439"/>
            <path d="M34.5993,153.539 L34.966,153.539"/>
            <path d="M34.966,153.539 L34.5993,153.539"/>
            <path d="M33.866,152.439 L33.866,151.339"/>
            <path d="M33.866,151.339 L33.866,152.439"/>
        </g>
    </g>
</svg>