<svg xmlns="http://www.w3.org/2000/svg" xmlns:xlink="http://www.w3.org/1999/xlink" xmlns:ifc="http://www.ifcopenshell.org/ns" width="250mm" height="199.865mm" viewBox="0 0 250 199.865">
    <defs>
        <marker id="arrowend" markerWidth="10" markerHeight="7" refX="10" refY="3.5" orient="auto">
          <polygon points="0 0, 10 3.5, 0 7"/>
        </marker>
        <marker id="arrowstart" markerWidth="10" markerHeight="7" refX="0" refY="3.5" orient="auto">
          <polygon points="10 0, 0 3.5, 10 7"/>
        </marker>
    </defs>
    <g ifc:name="Elevation PP Renvooi" class="section" ifc:plane="[[1.000000,0.000000,0.000000,0.000000],[0.000000,1.000000,0.000000,0.000000],[0.000000,0.000000,1.000000,0.000000],[0.000000,0.000000,0.000000,1.000000]]" ifc:matrix3="[[10.000000,0.000000,213.877951],[0.000000,10.000000,-26.340687],[0.000000,0.000000,1.000000]]">
        <g id="product-8ec6657c-25fa-476a-855c-9d6edaa1af7e" class="IfcBuildingElementProxy material-null projection" ifc:name="Type 2" ifc:guid="2EncLy9Vf7QeLSdMxQeQz_">
            <path d="M22.744,147.999 L22.744,148.366"/>
            <path d="M22.744,147.999 L22.744,148.366"/>
            <path d="M20.544,147.266 L21.644,147.266"/>
            <path d="M20.544,147.266 L21.644,147.266"/>
            <path d="M23.1106,148.366 L23.4773,148.366"/>
            <path d="M23.1106,148.366 L23.4773,148.366"/>
            <path d="M24.944,147.266 L23.844,147.266"/>
            <path d="M24.944,147.266 L23.844,147.266"/>
            <path d="M22.744,146.166 L23.844,146.166"/>
            <path d="M23.844,146.166 L22.744,146.166"/>
            <path d="M23.4773,148.366 L23.844,147.999"/>
            <path d="M23.4773,148.366 L23.844,147.999"/>
            <path d="M23.1106,148.366 L22.744,148.366"/>
            <path d="M23.1106,148.366 L22.744,148.366"/>
            <path d="M23.1106,147.266 L23.4773,147.266"/>
            <path d="M23.1106,147.266 L23.4773,147.266"/>
            <path d="M23.1106,148.366 L23.844,147.633"/>
            <path d="M23.1106,148.366 L23.844,147.633"/>
            <path d="M23.1106,147.266 L22.744,147.266"/>
            <path d="M23.1106,147.266 L22.744,147.266"/>
            <path d="M22.744,148.366 L23.844,147.266"/>
            <path d="M22.744,148.366 L23.844,147.266"/>
            <path d="M22.3773,147.266 L22.744,147.266"/>
            <path d="M22.3773,147.266 L22.744,147.266"/>
            <path d="M21.644,147.266 L21.644,146.899"/>
            <path d="M21.644,147.266 L21.644,146.899"/>
            <path d="M22.744,147.999 L23.4773,147.266"/>
            <path d="M22.744,147.999 L23.4773,147.266"/>
            <path d="M22.744,148.366 L21.644,148.366"/>
            <path d="M21.644,148.366 L22.744,148.366"/>
            <path d="M22.3773,147.266 L22.0106,147.266"/>
            <path d="M22.3773,147.266 L22.0106,147.266"/>
            <path d="M21.644,146.899 L21.644,146.533"/>
            <path d="M21.644,146.899 L21.644,146.533"/>
            <path d="M23.1106,147.266 L22.744,147.633"/>
            <path d="M23.1106,147.266 L22.744,147.633"/>
            <path d="M22.0106,147.266 L21.644,147.266"/>
            <path d="M22.0106,147.266 L21.644,147.266"/>
            <path d="M21.644,146.166 L21.644,146.533"/>
            <path d="M21.644,146.166 L21.644,146.533"/>
            <path d="M22.3773,147.266 L22.744,146.899"/>
            <path d="M22.3773,147.266 L22.744,146.899"/>
            <path d="M22.744,147.999 L22.744,147.633"/>
            <path d="M22.744,147.999 L22.744,147.633"/>
            <path d="M23.4773,148.366 L23.844,148.366"/>
            <path d="M23.4773,148.366 L23.844,148.366"/>
            <path d="M22.0106,147.266 L22.744,146.533"/>
            <path d="M22.0106,147.266 L22.744,146.533"/>
            <path d="M23.844,147.633 L23.844,147.266"/>
            <path d="M23.844,147.633 L23.844,147.266"/>
            <path d="M22.744,147.633 L22.744,147.266"/>
            <path d="M22.744,147.633 L22.744,147.266"/>
            <path d="M23.844,147.266 L23.844,146.166"/>
            <path d="M23.844,146.166 L23.844,147.266"/>
            <path d="M21.644,147.266 L22.744,146.166"/>
            <path d="M21.644,147.266 L22.744,146.166"/>
            <path d="M23.844,147.633 L23.844,147.999"/>
            <path d="M23.844,147.633 L23.844,147.999"/>
            <path d="M22.744,147.266 L22.744,146.899"/>
            <path d="M22.744,147.266 L22.744,146.899"/>
            <path d="M21.644,146.166 L22.0106,146.166"/>
            <path d="M21.644,146.166 L22.0106,146.166"/>
            <path d="M21.644,146.899 L22.3773,146.166"/>
            <path d="M21.644,146.899 L22.3773,146.166"/>
            <path d="M23.844,148.366 L23.844,147.999"/>
            <path d="M23.844,147.999 L23.844,148.366"/>
            <path d="M22.744,146.899 L22.744,146.533"/>
            <path d="M22.744,146.899 L22.744,146.533"/>
            <path d="M21.644,147.266 L21.644,148.366"/>
            <path d="M21.644,148.366 L21.644,147.266"/>
            <path d="M21.644,146.533 L22.0106,146.166"/>
            <path d="M21.644,146.533 L22.0106,146.166"/>
            <path d="M22.0106,146.166 L22.3773,146.166"/>
            <path d="M22.0106,146.166 L22.3773,146.166"/>
            <path d="M22.744,146.533 L22.744,146.166"/>
            <path d="M22.744,146.533 L22.744,146.166"/>
            <path d="M22.744,148.366 L22.744,149.466"/>
            <path d="M22.744,149.466 L22.744,148.366"/>
            <path d="M22.3773,146.166 L22.744,146.166"/>
            <path d="M22.3773,146.166 L22.744,146.166"/>
            <path d="M23.4773,147.266 L23.844,147.266"/>
            <path d="M23.844,147.266 L23.4773,147.266"/>
            <path d="M22.744,146.166 L22.744,145.066"/>
            <path d="M22.744,145.066 L22.744,146.166"/>
        </g>
        <g id="product-2bc6b691-b1e0-4448-a34b-2278e92f94d1" class="IfcBuildingElementProxy material-null projection" ifc:name="Type 1" ifc:guid="0hnhQHiU14IADB8dZfBvJH">
            <path d="M24.944,134.766 L23.844,134.766"/>
            <path d="M24.944,134.766 L23.844,134.766"/>
            <path d="M23.844,134.399 L23.844,134.033"/>
            <path d="M23.844,134.399 L23.844,134.033"/>
            <path d="M23.1106,133.666 L22.744,133.666"/>
            <path d="M23.1106,133.666 L22.744,133.666"/>
            <path d="M23.1106,133.666 L22.744,134.033"/>
            <path d="M23.1106,133.666 L22.744,134.033"/>
            <path d="M22.0106,133.666 L22.3773,133.666"/>
            <path d="M22.0106,133.666 L22.3773,133.666"/>
            <path d="M22.0106,134.766 L22.3773,134.766"/>
            <path d="M22.0106,134.766 L22.3773,134.766"/>
            <path d="M23.844,134.766 L23.844,134.399"/>
            <path d="M23.844,134.766 L23.844,134.399"/>
            <path d="M22.744,133.666 L21.644,134.766"/>
            <path d="M22.744,133.666 L21.644,134.766"/>
            <path d="M22.744,132.566 L22.744,133.666"/>
            <path d="M22.744,132.566 L22.744,133.666"/>
            <path d="M22.0106,134.766 L21.644,134.766"/>
            <path d="M22.0106,134.766 L21.644,134.766"/>
            <path d="M23.844,133.666 L22.744,134.766"/>
            <path d="M23.844,133.666 L22.744,134.766"/>
            <path d="M23.1106,133.666 L23.4773,133.666"/>
            <path d="M23.1106,133.666 L23.4773,133.666"/>
            <path d="M22.744,134.766 L23.1106,134.766"/>
            <path d="M22.744,134.766 L23.1106,134.766"/>
            <path d="M22.744,134.033 L22.744,134.399"/>
            <path d="M22.744,134.033 L22.744,134.399"/>
            <path d="M21.644,133.666 L22.0106,133.666"/>
            <path d="M21.644,133.666 L22.0106,133.666"/>
            <path d="M21.644,133.666 L21.644,134.033"/>
            <path d="M21.644,133.666 L21.644,134.033"/>
            <path d="M23.844,133.666 L23.4773,133.666"/>
            <path d="M23.844,133.666 L23.4773,133.666"/>
            <path d="M22.3773,133.666 L22.744,133.666"/>
            <path d="M22.3773,133.666 L22.744,133.666"/>
            <path d="M22.3773,134.766 L22.744,134.399"/>
            <path d="M22.3773,134.766 L22.744,134.399"/>
            <path d="M21.644,134.033 L21.644,134.399"/>
            <path d="M21.644,134.033 L21.644,134.399"/>
            <path d="M22.744,134.766 L22.744,134.399"/>
            <path d="M22.744,134.766 L22.744,134.399"/>
            <path d="M23.844,134.766 L23.4773,134.766"/>
            <path d="M23.844,134.766 L23.4773,134.766"/>
            <path d="M23.844,133.666 L23.844,134.033"/>
            <path d="M23.844,133.666 L23.844,134.033"/>
            <path d="M22.0106,134.766 L22.744,134.033"/>
            <path d="M22.0106,134.766 L22.744,134.033"/>
            <path d="M21.644,134.033 L22.0106,133.666"/>
            <path d="M22.0106,133.666 L21.644,134.033"/>
            <path d="M20.544,134.766 L21.644,134.766"/>
            <path d="M20.544,134.766 L21.644,134.766"/>
            <path d="M21.644,134.399 L21.644,134.766"/>
            <path d="M21.644,134.399 L21.644,134.766"/>
            <path d="M23.844,135.866 L23.844,134.766"/>
            <path d="M23.844,134.766 L23.844,135.866"/>
            <path d="M21.644,134.399 L22.3773,133.666"/>
            <path d="M22.3773,133.666 L21.644,134.399"/>
            <path d="M22.744,135.866 L23.844,135.866"/>
            <path d="M23.844,135.866 L22.744,135.866"/>
            <path d="M22.3773,134.766 L22.744,134.766"/>
            <path d="M22.3773,134.766 L22.744,134.766"/>
            <path d="M22.744,135.866 L22.744,134.766"/>
            <path d="M22.744,134.766 L22.744,135.866"/>
            <path d="M22.744,133.666 L22.744,134.033"/>
            <path d="M22.744,134.033 L22.744,133.666"/>
            <path d="M22.744,135.866 L22.744,136.966"/>
            <path d="M22.744,136.966 L22.744,135.866"/>
            <path d="M23.4773,134.766 L23.1106,134.766"/>
            <path d="M23.4773,134.766 L23.1106,134.766"/>
            <path d="M23.4773,133.666 L22.744,134.399"/>
            <path d="M22.744,134.399 L23.4773,133.666"/>
            <path d="M23.844,134.399 L23.4773,134.766"/>
            <path d="M23.4773,134.766 L23.844,134.399"/>
            <path d="M21.644,135.866 L21.644,134.766"/>
            <path d="M21.644,134.766 L21.644,135.866"/>
            <path d="M23.844,134.033 L23.1106,134.766"/>
            <path d="M23.1106,134.766 L23.844,134.033"/>
            <path d="M21.644,135.866 L22.744,135.866"/>
            <path d="M22.744,135.866 L21.644,135.866"/>
        </g>
    </g>
</svg>