<svg xmlns="http://www.w3.org/2000/svg" xmlns:xlink="http://www.w3.org/1999/xlink" xmlns:ifc="http://www.ifcopenshell.org/ns" width="300mm" height="300mm" viewBox="0 0 300 300">
    <defs>
        <marker id="arrowend" markerWidth="10" markerHeight="7" refX="10" refY="3.5" orient="auto">
          <polygon points="0 0, 10 3.5, 0 7"/>
        </marker>
        <marker id="arrowstart" markerWidth="10" markerHeight="7" refX="0" refY="3.5" orient="auto">
          <polygon points="10 0, 0 3.5, 10 7"/>
        </marker>
    </defs>
    <g ifc:name="Elevation Renvooi" class="section" ifc:plane="[[1.000000,0.000000,0.000000,0.000000],[0.000000,1.000000,0.000000,0.000000],[0.000000,0.000000,1.000000,0.000000],[0.000000,0.000000,0.000000,1.000000]]" ifc:matrix3="[[10.000000,0.000000,30.000010],[0.000000,10.000000,280.000004],[0.000000,0.000000,1.000000]]">
        <g id="product-8676433d-345b-4d59-939c-8f18b10b78e5" class="IfcPile material-gewapendbetonprefab projection" ifc:name="fp_c_d300_lb" ifc:guid="26TaCzD5jDMPESZnYn2tZb">
            <path d="M51.3,141.771 L51.3,141.771"/>
            <path d="M54.2489,142.159 L54.2489,142.159"/>
            <path d="M54.3,141.771 L54.3,141.771"/>
            <path d="M53.1883,143.22 L52.8,143.271"/>
            <path d="M52.8,143.271 L52.4118,143.22"/>
            <path d="M52.4118,143.22 L52.05,143.07"/>
            <path d="M51.501,142.521 L51.7394,142.832"/>
            <path d="M51.501,142.521 L51.3511,142.159"/>
            <path d="M51.3511,142.159 L51.3,141.771"/>
            <path d="M51.3,141.771 L51.3511,141.383"/>
            <path d="M51.3511,141.383 L51.501,141.021"/>
            <path d="M51.501,141.021 L51.7394,140.71"/>
            <path d="M51.7394,140.71 L52.05,140.472"/>
            <path d="M52.05,140.472 L52.4118,140.322"/>
            <path d="M52.4118,140.322 L52.8,140.271"/>
            <path d="M52.8,140.271 L53.1883,140.322"/>
            <path d="M53.1883,140.322 L53.55,140.472"/>
            <path d="M54.0991,141.021 L53.8607,140.71"/>
            <path d="M54.0991,141.021 L54.2489,141.383"/>
            <path d="M54.2489,141.383 L54.3,141.771"/>
            <path d="M54.3,141.771 L54.2489,142.159"/>
            <path d="M54.2489,142.159 L54.0991,142.521"/>
            <path d="M53.55,143.07 L53.8607,142.832"/>
            <path d="M53.1883,143.22 L53.55,143.07"/>
            <path d="M54.2489,142.159 L54.2489,142.159"/>
            <path d="M54.3,141.771 L54.3,141.771"/>
            <path d="M51.3511,141.383 L51.3511,141.383"/>
            <path d="M51.3,141.771 L51.3,141.771"/>
            <path d="M51.7394,142.832 L52.05,143.07"/>
            <path d="M53.8607,142.832 L54.0991,142.521"/>
            <path d="M53.8607,140.71 L53.55,140.472"/>
        </g>
        <g id="product-f2ff6747-dbb4-4044-ad6d-a6c893a03a3d" class="IfcPile material-gewapendbetonprefab projection" ifc:name="fp_c_d300_rb" ifc:guid="3o$sT7sxH0HArjfiYJe3ez">
            <path d="M65.9484,141.771 L65.9484,141.771"/>
            <path d="M68.8973,142.159 L68.8973,142.159"/>
            <path d="M68.9484,141.771 L68.9484,141.771"/>
            <path d="M67.8367,143.22 L67.4484,143.271"/>
            <path d="M67.4484,143.271 L67.0602,143.22"/>
            <path d="M67.0602,143.22 L66.6984,143.07"/>
            <path d="M66.1494,142.521 L66.3878,142.832"/>
            <path d="M66.1494,142.521 L65.9996,142.159"/>
            <path d="M65.9996,142.159 L65.9484,141.771"/>
            <path d="M65.9484,141.771 L65.9996,141.383"/>
            <path d="M65.9996,141.383 L66.1494,141.021"/>
            <path d="M66.1494,141.021 L66.3878,140.71"/>
            <path d="M66.3878,140.71 L66.6984,140.472"/>
            <path d="M66.6984,140.472 L67.0602,140.322"/>
            <path d="M67.0602,140.322 L67.4484,140.271"/>
            <path d="M67.4484,140.271 L67.8367,140.322"/>
            <path d="M67.8367,140.322 L68.1984,140.472"/>
            <path d="M68.7475,141.021 L68.5091,140.71"/>
            <path d="M68.7475,141.021 L68.8973,141.383"/>
            <path d="M68.8973,141.383 L68.9484,141.771"/>
            <path d="M68.9484,141.771 L68.8973,142.159"/>
            <path d="M68.8973,142.159 L68.7475,142.521"/>
            <path d="M68.1984,143.07 L68.5091,142.832"/>
            <path d="M67.8367,143.22 L68.1984,143.07"/>
            <path d="M68.8973,142.159 L68.8973,142.159"/>
            <path d="M68.9484,141.771 L68.9484,141.771"/>
            <path d="M65.9996,141.383 L65.9996,141.383"/>
            <path d="M65.9484,141.771 L65.9484,141.771"/>
            <path d="M66.3878,142.832 L66.6984,143.07"/>
            <path d="M68.5091,142.832 L68.7475,142.521"/>
            <path d="M68.5091,140.71 L68.1984,140.472"/>
        </g>
        <g id="product-b3077a52-b4d7-4b96-b74c-19dec1d67a61" class="IfcPile material-gewapendbetonprefab projection" ifc:name="fp_c_d300_lo" ifc:guid="2p1tfIjDTBbhTC6Tx1rdfX">
            <path d="M51.3,156.007 L51.3,156.007"/>
            <path d="M54.2489,156.395 L54.2489,156.395"/>
            <path d="M54.3,156.007 L54.3,156.007"/>
            <path d="M53.1883,157.455 L52.8,157.507"/>
            <path d="M52.8,157.507 L52.4118,157.455"/>
            <path d="M52.4118,157.455 L52.05,157.306"/>
            <path d="M51.501,156.757 L51.7394,157.067"/>
            <path d="M51.501,156.757 L51.3511,156.395"/>
            <path d="M51.3511,156.395 L51.3,156.007"/>
            <path d="M51.3,156.007 L51.3511,155.618"/>
            <path d="M51.3511,155.618 L51.501,155.257"/>
            <path d="M51.501,155.257 L51.7394,154.946"/>
            <path d="M51.7394,154.946 L52.05,154.707"/>
            <path d="M52.05,154.707 L52.4118,154.558"/>
            <path d="M52.4118,154.558 L52.8,154.507"/>
            <path d="M52.8,154.507 L53.1883,154.558"/>
            <path d="M53.1883,154.558 L53.55,154.707"/>
            <path d="M54.0991,155.257 L53.8607,154.946"/>
            <path d="M54.0991,155.257 L54.2489,155.618"/>
            <path d="M54.2489,155.618 L54.3,156.007"/>
            <path d="M54.3,156.007 L54.2489,156.395"/>
            <path d="M54.2489,156.395 L54.0991,156.757"/>
            <path d="M53.55,157.306 L53.8607,157.067"/>
            <path d="M53.1883,157.455 L53.55,157.306"/>
            <path d="M54.2489,156.395 L54.2489,156.395"/>
            <path d="M54.3,156.007 L54.3,156.007"/>
            <path d="M51.3511,155.618 L51.3511,155.618"/>
            <path d="M51.3,156.007 L51.3,156.007"/>
            <path d="M51.7394,157.067 L52.05,157.306"/>
            <path d="M53.8607,157.067 L54.0991,156.757"/>
            <path d="M53.8607,154.946 L53.55,154.707"/>
        </g>
        <g id="product-64d8d399-09f6-4794-bb4c-2537b325743a" class="IfcPile material-gewapendbetonprefab projection" ifc:name="fp_c_d300_ro" ifc:guid="1asDEP2VP7bBjC9JUp9NGw">
            <path d="M65.9484,156.007 L65.9484,156.007"/>
            <path d="M68.9484,156.007 L68.9484,156.007"/>
            <path d="M65.9996,156.395 L66.1494,156.757"/>
            <path d="M65.9996,156.395 L65.9484,156.007"/>
            <path d="M65.9484,156.007 L65.9996,155.618"/>
            <path d="M65.9996,155.618 L66.1494,155.257"/>
            <path d="M66.6984,154.707 L66.3878,154.946"/>
            <path d="M67.0602,154.558 L66.6984,154.707"/>
            <path d="M67.0602,154.558 L67.4484,154.507"/>
            <path d="M67.4484,154.507 L67.8367,154.558"/>
            <path d="M67.8367,154.558 L68.1984,154.707"/>
            <path d="M68.7475,155.257 L68.5091,154.946"/>
            <path d="M68.7475,155.257 L68.8973,155.618"/>
            <path d="M68.9484,156.007 L68.8973,155.618"/>
            <path d="M68.9484,156.007 L68.8973,156.395"/>
            <path d="M68.8973,156.395 L68.7475,156.757"/>
            <path d="M68.1984,157.306 L68.5091,157.067"/>
            <path d="M68.1984,157.306 L67.8367,157.455"/>
            <path d="M67.4484,157.507 L67.8367,157.455"/>
            <path d="M67.4484,157.507 L67.0602,157.455"/>
            <path d="M67.0602,157.455 L66.6984,157.306"/>
            <path d="M66.1494,156.757 L66.3878,157.067"/>
            <path d="M65.9484,156.007 L65.9484,156.007"/>
            <path d="M65.9996,155.618 L65.9996,155.618"/>
            <path d="M68.9484,156.007 L68.9484,156.007"/>
            <path d="M68.8973,156.395 L68.8973,156.395"/>
            <path d="M66.3878,157.067 L66.6984,157.306"/>
            <path d="M68.5091,157.067 L68.7475,156.757"/>
            <path d="M68.5091,154.946 L68.1984,154.707"/>
            <path d="M66.3878,154.946 L66.1494,155.257"/>
        </g>
        <g id="product-8676433d-345b-4d59-939c-8f18b10b78e5" class="IfcPile material-gewapendbetonprefab projection" ifc:name="fp_c_d300_lb" ifc:guid="26TaCzD5jDMPESZnYn2tZb">
            <path d="M52.3302,140.216 L52.7184,140.165"/>
            <path d="M52.7184,140.165 L52.3302,140.216"/>
            <path d="M53.7791,142.725 L54.0175,142.415"/>
            <path d="M54.0175,142.415 L53.7791,142.725"/>
            <path d="M52.7184,140.165 L52.7184,139.79"/>
            <path d="M52.7184,139.79 L52.7184,140.165"/>
            <path d="M51.9684,140.366 L52.3302,140.216"/>
            <path d="M52.3302,140.216 L51.9684,140.366"/>
            <path d="M53.1067,140.216 L53.4684,140.366"/>
            <path d="M53.4684,140.366 L53.1067,140.216"/>
            <path d="M51.2695,142.053 L51.2184,141.665"/>
            <path d="M51.2184,141.665 L51.2695,142.053"/>
            <path d="M52.7184,143.54 L52.7184,143.165"/>
            <path d="M52.7184,143.165 L52.7184,143.54"/>
            <path d="M51.4194,140.915 L51.6578,140.604"/>
            <path d="M51.6578,140.604 L51.4194,140.915"/>
            <path d="M52.3302,143.114 L51.9684,142.964"/>
            <path d="M51.9684,142.964 L52.3302,143.114"/>
            <path d="M51.2184,141.665 L50.8434,141.665"/>
            <path d="M50.8434,141.665 L51.2184,141.665"/>
            <path d="M51.6578,140.604 L51.9684,140.366"/>
            <path d="M51.9684,140.366 L51.6578,140.604"/>
            <path d="M53.4684,142.964 L53.1067,143.114"/>
            <path d="M53.1067,143.114 L53.4684,142.964"/>
            <path d="M54.5934,141.665 L54.2184,141.665"/>
            <path d="M54.2184,141.665 L54.5934,141.665"/>
            <path d="M53.7791,142.725 L53.4684,142.964"/>
            <path d="M53.4684,142.964 L53.7791,142.725"/>
            <path d="M51.6578,142.725 L51.9684,142.964"/>
            <path d="M51.9684,142.964 L51.6578,142.725"/>
            <path d="M52.7184,143.165 L52.7184,140.165"/>
            <path d="M52.7184,140.165 L52.7184,143.165"/>
            <path d="M51.4194,142.415 L51.6578,142.725"/>
            <path d="M51.6578,142.725 L51.4194,142.415"/>
            <path d="M51.4194,142.415 L51.2695,142.053"/>
            <path d="M51.2695,142.053 L51.4194,142.415"/>
            <path d="M54.0175,140.915 L53.7791,140.604"/>
            <path d="M53.7791,140.604 L54.0175,140.915"/>
            <path d="M51.2184,141.665 L54.2184,141.665"/>
            <path d="M54.2184,141.665 L51.2184,141.665"/>
            <path d="M54.1673,142.053 L54.0175,142.415"/>
            <path d="M54.0175,142.415 L54.1673,142.053"/>
            <path d="M52.7184,143.165 L52.3302,143.114"/>
            <path d="M52.3302,143.114 L52.7184,143.165"/>
            <path d="M51.2695,141.277 L51.954,141.665"/>
            <path d="M51.954,141.665 L51.2695,141.277"/>
            <path d="M53.1067,143.114 L52.7184,143.165"/>
            <path d="M52.7184,143.165 L53.1067,143.114"/>
            <path d="M51.4194,140.915 L52.7184,141.665"/>
            <path d="M52.7184,141.665 L51.4194,140.915"/>
            <path d="M51.6578,140.604 L52.7184,141.213"/>
            <path d="M52.7184,141.213 L51.6578,140.604"/>
            <path d="M53.7791,140.604 L53.4684,140.366"/>
            <path d="M53.4684,140.366 L53.7791,140.604"/>
            <path d="M51.9684,140.366 L52.7184,140.825"/>
            <path d="M52.7184,140.825 L51.9684,140.366"/>
            <path d="M52.7184,140.165 L53.1067,140.216"/>
            <path d="M53.1067,140.216 L52.7184,140.165"/>
            <path d="M54.1673,141.277 L54.2184,141.665"/>
            <path d="M54.2184,141.665 L54.1673,141.277"/>
            <path d="M51.2695,141.277 L51.4194,140.915"/>
            <path d="M51.4194,140.915 L51.2695,141.277"/>
            <path d="M52.3302,140.216 L52.7184,140.473"/>
            <path d="M52.7184,140.473 L52.3302,140.216"/>
            <path d="M54.0175,140.915 L54.1673,141.277"/>
            <path d="M54.1673,141.277 L54.0175,140.915"/>
            <path d="M51.2184,141.665 L51.2695,141.277"/>
            <path d="M51.2695,141.277 L51.2184,141.665"/>
            <path d="M54.2184,141.665 L54.1673,142.053"/>
            <path d="M54.1673,142.053 L54.2184,141.665"/>
        </g>
        <g id="product-f2ff6747-dbb4-4044-ad6d-a6c893a03a3d" class="IfcPile material-gewapendbetonprefab projection" ifc:name="fp_c_d300_rb" ifc:guid="3o$sT7sxH0HArjfiYJe3ez">
            <path d="M68.9787,142.053 L69.0298,141.664"/>
            <path d="M69.0298,141.664 L68.9787,142.053"/>
            <path d="M67.5298,140.164 L67.1416,140.216"/>
            <path d="M67.1416,140.216 L67.5298,140.164"/>
            <path d="M68.8288,142.414 L68.5905,142.725"/>
            <path d="M68.5905,142.725 L68.8288,142.414"/>
            <path d="M68.2782,141.664 L68.9787,141.276"/>
            <path d="M68.9787,141.276 L68.2782,141.664"/>
            <path d="M67.5298,141.664 L68.8288,140.914"/>
            <path d="M68.8288,140.914 L67.5298,141.664"/>
            <path d="M68.5905,140.604 L67.5298,141.242"/>
            <path d="M67.5298,141.242 L68.5905,140.604"/>
            <path d="M68.2798,140.365 L67.5298,140.811"/>
            <path d="M67.5298,140.811 L68.2798,140.365"/>
            <path d="M67.5298,140.431 L67.918,140.216"/>
            <path d="M67.918,140.216 L67.5298,140.431"/>
            <path d="M67.5298,139.789 L67.5298,140.164"/>
            <path d="M67.5298,140.164 L67.5298,139.789"/>
            <path d="M67.1416,140.216 L66.7798,140.365"/>
            <path d="M66.7798,140.365 L67.1416,140.216"/>
            <path d="M68.2798,140.365 L67.918,140.216"/>
            <path d="M67.918,140.216 L68.2798,140.365"/>
            <path d="M66.0298,141.664 L66.0809,142.053"/>
            <path d="M66.0809,142.053 L66.0298,141.664"/>
            <path d="M67.5298,143.164 L67.5298,143.539"/>
            <path d="M67.5298,143.539 L67.5298,143.164"/>
            <path d="M66.4691,140.604 L66.2308,140.914"/>
            <path d="M66.2308,140.914 L66.4691,140.604"/>
            <path d="M66.7798,142.963 L67.1416,143.113"/>
            <path d="M67.1416,143.113 L66.7798,142.963"/>
            <path d="M65.6548,141.664 L66.0298,141.664"/>
            <path d="M66.0298,141.664 L65.6548,141.664"/>
            <path d="M66.7798,140.365 L66.4691,140.604"/>
            <path d="M66.4691,140.604 L66.7798,140.365"/>
            <path d="M67.918,143.113 L68.2798,142.963"/>
            <path d="M68.2798,142.963 L67.918,143.113"/>
            <path d="M69.0298,141.664 L69.4048,141.664"/>
            <path d="M69.4048,141.664 L69.0298,141.664"/>
            <path d="M68.2798,142.963 L68.5905,142.725"/>
            <path d="M68.5905,142.725 L68.2798,142.963"/>
            <path d="M66.7798,142.963 L66.4691,142.725"/>
            <path d="M66.4691,142.725 L66.7798,142.963"/>
            <path d="M67.5298,140.164 L67.5298,143.164"/>
            <path d="M67.5298,143.164 L67.5298,140.164"/>
            <path d="M66.4691,142.725 L66.2308,142.414"/>
            <path d="M66.2308,142.414 L66.4691,142.725"/>
            <path d="M66.0809,142.053 L66.2308,142.414"/>
            <path d="M66.2308,142.414 L66.0809,142.053"/>
            <path d="M68.5905,140.604 L68.8288,140.914"/>
            <path d="M68.8288,140.914 L68.5905,140.604"/>
            <path d="M69.0298,141.664 L66.0298,141.664"/>
            <path d="M66.0298,141.664 L69.0298,141.664"/>
            <path d="M68.8288,142.414 L68.9787,142.053"/>
            <path d="M68.9787,142.053 L68.8288,142.414"/>
            <path d="M67.1416,143.113 L67.5298,143.164"/>
            <path d="M67.5298,143.164 L67.1416,143.113"/>
            <path d="M67.5298,143.164 L67.918,143.113"/>
            <path d="M67.918,143.113 L67.5298,143.164"/>
            <path d="M68.2798,140.365 L68.5905,140.604"/>
            <path d="M68.5905,140.604 L68.2798,140.365"/>
            <path d="M67.918,140.216 L67.5298,140.164"/>
            <path d="M67.5298,140.164 L67.918,140.216"/>
            <path d="M69.0298,141.664 L68.9787,141.276"/>
            <path d="M68.9787,141.276 L69.0298,141.664"/>
            <path d="M66.2308,140.914 L66.0809,141.276"/>
            <path d="M66.0809,141.276 L66.2308,140.914"/>
            <path d="M68.9787,141.276 L68.8288,140.914"/>
            <path d="M68.8288,140.914 L68.9787,141.276"/>
            <path d="M66.0809,141.276 L66.0298,141.664"/>
            <path d="M66.0298,141.664 L66.0809,141.276"/>
        </g>
        <g id="product-b3077a52-b4d7-4b96-b74c-19dec1d67a61" class="IfcPile material-gewapendbetonprefab projection" ifc:name="fp_c_d300_lo" ifc:guid="2p1tfIjDTBbhTC6Tx1rdfX">
            <path d="M54.1673,156.503 L54.2184,156.114"/>
            <path d="M54.2184,156.114 L54.1673,156.503"/>
            <path d="M52.7184,154.614 L52.3302,154.665"/>
            <path d="M52.3302,154.665 L52.7184,154.614"/>
            <path d="M54.0175,156.864 L53.7791,157.175"/>
            <path d="M53.7791,157.175 L54.0175,156.864"/>
            <path d="M51.954,156.114 L51.2695,156.503"/>
            <path d="M51.2695,156.503 L51.954,156.114"/>
            <path d="M52.7184,157.373 L52.3302,157.563"/>
            <path d="M52.3302,157.563 L52.7184,157.373"/>
            <path d="M51.9684,157.413 L52.7184,157.005"/>
            <path d="M52.7184,157.005 L51.9684,157.413"/>
            <path d="M52.7184,156.563 L51.6578,157.175"/>
            <path d="M51.6578,157.175 L52.7184,156.563"/>
            <path d="M52.7184,156.114 L51.4194,156.864"/>
            <path d="M51.4194,156.864 L52.7184,156.114"/>
            <path d="M52.7184,154.239 L52.7184,154.614"/>
            <path d="M52.7184,154.614 L52.7184,154.239"/>
            <path d="M52.3302,154.665 L51.9684,154.815"/>
            <path d="M51.9684,154.815 L52.3302,154.665"/>
            <path d="M53.4684,154.815 L53.1067,154.665"/>
            <path d="M53.1067,154.665 L53.4684,154.815"/>
            <path d="M51.2184,156.114 L51.2695,156.503"/>
            <path d="M51.2695,156.503 L51.2184,156.114"/>
            <path d="M52.7184,157.614 L52.7184,157.989"/>
            <path d="M52.7184,157.989 L52.7184,157.614"/>
            <path d="M51.6578,155.054 L51.4194,155.364"/>
            <path d="M51.4194,155.364 L51.6578,155.054"/>
            <path d="M51.9684,157.413 L52.3302,157.563"/>
            <path d="M52.3302,157.563 L51.9684,157.413"/>
            <path d="M50.8434,156.114 L51.2184,156.114"/>
            <path d="M51.2184,156.114 L50.8434,156.114"/>
            <path d="M51.9684,154.815 L51.6578,155.054"/>
            <path d="M51.6578,155.054 L51.9684,154.815"/>
            <path d="M53.1067,157.563 L53.4684,157.413"/>
            <path d="M53.4684,157.413 L53.1067,157.563"/>
            <path d="M54.2184,156.114 L54.5934,156.114"/>
            <path d="M54.5934,156.114 L54.2184,156.114"/>
            <path d="M53.4684,157.413 L53.7791,157.175"/>
            <path d="M53.7791,157.175 L53.4684,157.413"/>
            <path d="M51.9684,157.413 L51.6578,157.175"/>
            <path d="M51.6578,157.175 L51.9684,157.413"/>
            <path d="M52.7184,154.614 L52.7184,157.614"/>
            <path d="M52.7184,157.614 L52.7184,154.614"/>
            <path d="M51.6578,157.175 L51.4194,156.864"/>
            <path d="M51.4194,156.864 L51.6578,157.175"/>
            <path d="M51.2695,156.503 L51.4194,156.864"/>
            <path d="M51.4194,156.864 L51.2695,156.503"/>
            <path d="M53.7791,155.054 L54.0175,155.364"/>
            <path d="M54.0175,155.364 L53.7791,155.054"/>
            <path d="M54.2184,156.114 L51.2184,156.114"/>
            <path d="M51.2184,156.114 L54.2184,156.114"/>
            <path d="M54.0175,156.864 L54.1673,156.503"/>
            <path d="M54.1673,156.503 L54.0175,156.864"/>
            <path d="M52.3302,157.563 L52.7184,157.614"/>
            <path d="M52.7184,157.614 L52.3302,157.563"/>
            <path d="M52.7184,157.614 L53.1067,157.563"/>
            <path d="M53.1067,157.563 L52.7184,157.614"/>
            <path d="M53.4684,154.815 L53.7791,155.054"/>
            <path d="M53.7791,155.054 L53.4684,154.815"/>
            <path d="M53.1067,154.665 L52.7184,154.614"/>
            <path d="M52.7184,154.614 L53.1067,154.665"/>
            <path d="M54.2184,156.114 L54.1673,155.726"/>
            <path d="M54.1673,155.726 L54.2184,156.114"/>
            <path d="M51.4194,155.364 L51.2695,155.726"/>
            <path d="M51.2695,155.726 L51.4194,155.364"/>
            <path d="M54.1673,155.726 L54.0175,155.364"/>
            <path d="M54.0175,155.364 L54.1673,155.726"/>
            <path d="M51.2695,155.726 L51.2184,156.114"/>
            <path d="M51.2184,156.114 L51.2695,155.726"/>
        </g>
        <g id="product-64d8d399-09f6-4794-bb4c-2537b325743a" class="IfcPile material-gewapendbetonprefab projection" ifc:name="fp_c_d300_ro" ifc:guid="1asDEP2VP7bBjC9JUp9NGw">
            <path d="M67.5299,154.613 L67.1417,154.664"/>
            <path d="M67.1417,154.664 L67.5299,154.613"/>
            <path d="M67.5299,154.613 L67.1417,154.664"/>
            <path d="M67.1417,154.664 L67.5299,154.613"/>
            <path d="M68.5906,157.173 L68.8289,156.863"/>
            <path d="M68.8289,156.863 L68.5906,157.173"/>
            <path d="M68.5906,157.173 L68.8289,156.863"/>
            <path d="M68.8289,156.863 L68.5906,157.173"/>
            <path d="M67.5299,156.113 L68.8289,156.863"/>
            <path d="M68.8289,156.863 L67.5299,156.113"/>
            <path d="M67.5299,156.113 L68.8289,156.863"/>
            <path d="M68.8289,156.863 L67.5299,156.113"/>
            <path d="M68.5906,157.173 L67.5299,156.504"/>
            <path d="M67.5299,156.504 L68.5906,157.173"/>
            <path d="M68.5906,157.173 L67.5299,156.504"/>
            <path d="M67.5299,156.504 L68.5906,157.173"/>
            <path d="M68.2799,157.412 L67.5299,156.979"/>
            <path d="M67.5299,156.979 L68.2799,157.412"/>
            <path d="M68.2799,157.412 L67.5299,156.979"/>
            <path d="M67.5299,156.979 L68.2799,157.412"/>
            <path d="M67.5299,157.343 L67.9181,157.562"/>
            <path d="M67.9181,157.562 L67.5299,157.343"/>
            <path d="M67.5299,157.343 L67.9181,157.562"/>
            <path d="M67.9181,157.562 L67.5299,157.343"/>
            <path d="M68.9788,156.501 L68.2861,156.113"/>
            <path d="M68.2861,156.113 L68.9788,156.501"/>
            <path d="M68.9788,156.501 L68.2861,156.113"/>
            <path d="M68.2861,156.113 L68.9788,156.501"/>
            <path d="M67.5299,154.238 L67.5299,154.613"/>
            <path d="M67.5299,154.613 L67.5299,154.238"/>
            <path d="M67.5299,154.238 L67.5299,154.613"/>
            <path d="M67.5299,154.613 L67.5299,154.238"/>
            <path d="M67.1417,154.664 L66.7799,154.814"/>
            <path d="M66.7799,154.814 L67.1417,154.664"/>
            <path d="M67.1417,154.664 L66.7799,154.814"/>
            <path d="M66.7799,154.814 L67.1417,154.664"/>
            <path d="M68.2799,154.814 L67.9181,154.664"/>
            <path d="M67.9181,154.664 L68.2799,154.814"/>
            <path d="M68.2799,154.814 L67.9181,154.664"/>
            <path d="M67.9181,154.664 L68.2799,154.814"/>
            <path d="M66.081,156.501 L66.0299,156.113"/>
            <path d="M66.0299,156.113 L66.081,156.501"/>
            <path d="M66.081,156.501 L66.0299,156.113"/>
            <path d="M66.0299,156.113 L66.081,156.501"/>
            <path d="M67.5299,157.613 L67.5299,157.988"/>
            <path d="M67.5299,157.988 L67.5299,157.613"/>
            <path d="M67.5299,157.613 L67.5299,157.988"/>
            <path d="M67.5299,157.988 L67.5299,157.613"/>
            <path d="M66.2309,155.363 L66.4693,155.052"/>
            <path d="M66.4693,155.052 L66.2309,155.363"/>
            <path d="M66.2309,155.363 L66.4693,155.052"/>
            <path d="M66.4693,155.052 L66.2309,155.363"/>
            <path d="M66.7799,157.412 L67.1417,157.562"/>
            <path d="M67.1417,157.562 L66.7799,157.412"/>
            <path d="M66.7799,157.412 L67.1417,157.562"/>
            <path d="M67.1417,157.562 L66.7799,157.412"/>
            <path d="M65.6549,156.113 L66.0299,156.113"/>
            <path d="M66.0299,156.113 L65.6549,156.113"/>
            <path d="M65.6549,156.113 L66.0299,156.113"/>
            <path d="M66.0299,156.113 L65.6549,156.113"/>
            <path d="M66.7799,154.814 L66.4693,155.052"/>
            <path d="M66.4693,155.052 L66.7799,154.814"/>
            <path d="M66.7799,154.814 L66.4693,155.052"/>
            <path d="M66.4693,155.052 L66.7799,154.814"/>
            <path d="M67.9181,157.562 L68.2799,157.412"/>
            <path d="M68.2799,157.412 L67.9181,157.562"/>
            <path d="M67.9181,157.562 L68.2799,157.412"/>
            <path d="M68.2799,157.412 L67.9181,157.562"/>
            <path d="M69.0299,156.113 L69.4049,156.113"/>
            <path d="M69.4049,156.113 L69.0299,156.113"/>
            <path d="M69.0299,156.113 L69.4049,156.113"/>
            <path d="M69.4049,156.113 L69.0299,156.113"/>
            <path d="M68.2799,157.412 L68.5906,157.173"/>
            <path d="M68.5906,157.173 L68.2799,157.412"/>
            <path d="M68.2799,157.412 L68.5906,157.173"/>
            <path d="M68.5906,157.173 L68.2799,157.412"/>
            <path d="M66.7799,157.412 L66.4693,157.173"/>
            <path d="M66.4693,157.173 L66.7799,157.412"/>
            <path d="M66.7799,157.412 L66.4693,157.173"/>
            <path d="M66.4693,157.173 L66.7799,157.412"/>
            <path d="M67.5299,157.613 L67.5299,154.613"/>
            <path d="M67.5299,154.613 L67.5299,157.613"/>
            <path d="M67.5299,157.613 L67.5299,154.613"/>
            <path d="M67.5299,154.613 L67.5299,157.613"/>
            <path d="M66.2309,156.863 L66.4693,157.173"/>
            <path d="M66.4693,157.173 L66.2309,156.863"/>
            <path d="M66.2309,156.863 L66.4693,157.173"/>
            <path d="M66.4693,157.173 L66.2309,156.863"/>
            <path d="M66.2309,156.863 L66.081,156.501"/>
            <path d="M66.081,156.501 L66.2309,156.863"/>
            <path d="M66.2309,156.863 L66.081,156.501"/>
            <path d="M66.081,156.501 L66.2309,156.863"/>
            <path d="M68.8289,155.363 L68.5906,155.052"/>
            <path d="M68.5906,155.052 L68.8289,155.363"/>
            <path d="M68.8289,155.363 L68.5906,155.052"/>
            <path d="M68.5906,155.052 L68.8289,155.363"/>
            <path d="M69.0299,156.113 L66.0299,156.113"/>
            <path d="M66.0299,156.113 L69.0299,156.113"/>
            <path d="M69.0299,156.113 L66.0299,156.113"/>
            <path d="M66.0299,156.113 L69.0299,156.113"/>
            <path d="M68.9788,156.501 L68.8289,156.863"/>
            <path d="M68.8289,156.863 L68.9788,156.501"/>
            <path d="M68.9788,156.501 L68.8289,156.863"/>
            <path d="M68.8289,156.863 L68.9788,156.501"/>
            <path d="M67.1417,157.562 L67.5299,157.613"/>
            <path d="M67.5299,157.613 L67.1417,157.562"/>
            <path d="M67.1417,157.562 L67.5299,157.613"/>
            <path d="M67.5299,157.613 L67.1417,157.562"/>
            <path d="M67.5299,157.613 L67.9181,157.562"/>
            <path d="M67.9181,157.562 L67.5299,157.613"/>
            <path d="M67.5299,157.613 L67.9181,157.562"/>
            <path d="M67.9181,157.562 L67.5299,157.613"/>
            <path d="M68.2799,154.814 L68.5906,155.052"/>
            <path d="M68.5906,155.052 L68.2799,154.814"/>
            <path d="M68.2799,154.814 L68.5906,155.052"/>
            <path d="M68.5906,155.052 L68.2799,154.814"/>
            <path d="M67.9181,154.664 L67.5299,154.613"/>
            <path d="M67.5299,154.613 L67.9181,154.664"/>
            <path d="M67.9181,154.664 L67.5299,154.613"/>
            <path d="M67.5299,154.613 L67.9181,154.664"/>
            <path d="M68.9788,155.725 L69.0299,156.113"/>
            <path d="M69.0299,156.113 L68.9788,155.725"/>
            <path d="M68.9788,155.725 L69.0299,156.113"/>
            <path d="M69.0299,156.113 L68.9788,155.725"/>
            <path d="M66.081,155.725 L66.2309,155.363"/>
            <path d="M66.2309,155.363 L66.081,155.725"/>
            <path d="M66.081,155.725 L66.2309,155.363"/>
            <path d="M66.2309,155.363 L66.081,155.725"/>
            <path d="M68.8289,155.363 L68.9788,155.725"/>
            <path d="M68.9788,155.725 L68.8289,155.363"/>
            <path d="M68.8289,155.363 L68.9788,155.725"/>
            <path d="M68.9788,155.725 L68.8289,155.363"/>
            <path d="M66.0299,156.113 L66.081,155.725"/>
            <path d="M66.081,155.725 L66.0299,156.113"/>
            <path d="M66.0299,156.113 L66.081,155.725"/>
            <path d="M66.081,155.725 L66.0299,156.113"/>
            <path d="M69.0299,156.113 L68.9788,156.501"/>
            <path d="M68.9788,156.501 L69.0299,156.113"/>
            <path d="M69.0299,156.113 L68.9788,156.501"/>
            <path d="M68.9788,156.501 L69.0299,156.113"/>
        </g>
    </g>
</svg>