<svg xmlns="http://www.w3.org/2000/svg" xmlns:xlink="http://www.w3.org/1999/xlink" xmlns:ifc="http://www.ifcopenshell.org/ns" width="500mm" height="500mm" viewBox="0 0 500 500">
    <defs>
        <marker id="arrowend" markerWidth="10" markerHeight="7" refX="10" refY="3.5" orient="auto">
          <polygon points="0 0, 10 3.5, 0 7"/>
        </marker>
        <marker id="arrowstart" markerWidth="10" markerHeight="7" refX="0" refY="3.5" orient="auto">
          <polygon points="10 0, 0 3.5, 10 7"/>
        </marker>
    </defs>
    <g ifc:name="Elevation Palenplan" class="section" ifc:plane="[[1.000000,0.000000,0.000000,0.000000],[0.000000,1.000000,0.000000,0.000000],[0.000000,0.000000,1.000000,0.000000],[0.000000,0.000000,0.000000,1.000000]]" ifc:matrix3="[[10.000000,0.000000,249.999995],[0.000000,10.000000,249.999995],[0.000000,0.000000,1.000000]]">
        <g id="product-18ccde65-32dd-43f3-8faf-92ad0aebf82c" class="IfcPile material-null projection" ifc:name="fp_c_d300_lb" ifc:guid="0OpDvbCjr3yu_lagqAw$Wi">
            <path d="M269.902,110.994 L270.202,110.271"/>
            <path d="M269.8,111.771 L269.902,110.994"/>
            <path d="M269.902,110.994 L269.902,110.994"/>
            <path d="M269.902,112.547 L269.8,111.771"/>
            <path d="M269.8,111.771 L269.8,111.771"/>
            <path d="M270.202,113.271 L269.902,112.547"/>
            <path d="M270.679,113.892 L270.202,113.271"/>
            <path d="M273.576,108.873 L274.3,109.173"/>
            <path d="M272.8,108.771 L273.576,108.873"/>
            <path d="M272.024,108.873 L272.8,108.771"/>
            <path d="M271.3,109.173 L272.024,108.873"/>
            <path d="M270.679,109.65 L271.3,109.173"/>
            <path d="M275.698,112.547 L275.398,113.271"/>
            <path d="M275.8,111.771 L275.698,112.547"/>
            <path d="M275.698,112.547 L275.698,112.547"/>
            <path d="M275.698,110.994 L275.8,111.771"/>
            <path d="M275.8,111.771 L275.8,111.771"/>
            <path d="M275.398,110.271 L275.698,110.994"/>
            <path d="M274.921,109.65 L275.398,110.271"/>
            <path d="M272.024,114.669 L271.3,114.369"/>
            <path d="M272.8,114.771 L272.024,114.669"/>
            <path d="M273.576,114.669 L272.8,114.771"/>
            <path d="M274.3,114.369 L273.576,114.669"/>
            <path d="M274.921,113.892 L274.3,114.369"/>
            <path d="M272.024,114.669 L271.3,114.369"/>
            <path d="M272.024,114.669 L272.8,114.771"/>
            <path d="M272.8,114.771 L273.576,114.669"/>
            <path d="M273.576,114.669 L274.3,114.369"/>
            <path d="M274.3,114.369 L274.921,113.892"/>
            <path d="M275.698,112.547 L275.398,113.271"/>
            <path d="M275.698,112.547 L275.8,111.771"/>
            <path d="M275.8,111.771 L275.698,110.994"/>
            <path d="M275.698,110.994 L275.398,110.271"/>
            <path d="M275.398,110.271 L274.921,109.65"/>
            <path d="M273.576,108.873 L274.3,109.173"/>
            <path d="M273.576,108.873 L272.8,108.771"/>
            <path d="M272.8,108.771 L272.024,108.873"/>
            <path d="M272.024,108.873 L271.3,109.173"/>
            <path d="M271.3,109.173 L270.679,109.65"/>
            <path d="M269.902,110.994 L270.202,110.271"/>
            <path d="M269.902,110.994 L269.8,111.771"/>
            <path d="M269.8,111.771 L269.902,112.547"/>
            <path d="M269.902,112.547 L270.202,113.271"/>
            <path d="M270.202,113.271 L270.679,113.892"/>
            <path d="M270.679,113.892 L271.3,114.369"/>
            <path d="M271.3,114.369 L270.679,113.892"/>
            <path d="M274.921,113.892 L275.398,113.271"/>
            <path d="M275.398,113.271 L274.921,113.892"/>
            <path d="M274.921,109.65 L274.3,109.173"/>
            <path d="M274.3,109.173 L274.921,109.65"/>
            <path d="M270.679,109.65 L270.202,110.271"/>
            <path d="M270.202,110.271 L270.679,109.65"/>
        </g>
        <g id="product-64d8d399-09f6-4794-bb4c-2537b325743a" class="IfcPile material-null projection" ifc:name="fp_c_d300_ro" ifc:guid="1asDEP2VP7bBjC9JUp9NGw">
            <path d="M284.551,125.23 L284.85,124.507"/>
            <path d="M284.448,126.007 L284.551,125.23"/>
            <path d="M284.551,125.23 L284.551,125.23"/>
            <path d="M284.551,126.783 L284.448,126.007"/>
            <path d="M284.448,126.007 L284.448,126.007"/>
            <path d="M284.85,127.507 L284.551,126.783"/>
            <path d="M285.327,128.128 L284.85,127.507"/>
            <path d="M288.225,123.109 L288.948,123.408"/>
            <path d="M287.448,123.007 L288.225,123.109"/>
            <path d="M286.672,123.109 L287.448,123.007"/>
            <path d="M285.948,123.408 L286.672,123.109"/>
            <path d="M285.327,123.885 L285.948,123.408"/>
            <path d="M290.346,126.783 L290.047,127.507"/>
            <path d="M290.448,126.007 L290.346,126.783"/>
            <path d="M290.346,126.783 L290.346,126.783"/>
            <path d="M290.346,125.23 L290.448,126.007"/>
            <path d="M290.448,126.007 L290.448,126.007"/>
            <path d="M290.047,124.507 L290.346,125.23"/>
            <path d="M289.57,123.885 L290.047,124.507"/>
            <path d="M286.672,128.904 L285.948,128.605"/>
            <path d="M287.448,129.007 L286.672,128.904"/>
            <path d="M288.225,128.904 L287.448,129.007"/>
            <path d="M288.948,128.605 L288.225,128.904"/>
            <path d="M289.57,128.128 L288.948,128.605"/>
            <path d="M286.672,128.904 L285.948,128.605"/>
            <path d="M286.672,128.904 L287.448,129.007"/>
            <path d="M287.448,129.007 L288.225,128.904"/>
            <path d="M288.225,128.904 L288.948,128.605"/>
            <path d="M288.948,128.605 L289.57,128.128"/>
            <path d="M290.346,126.783 L290.047,127.507"/>
            <path d="M290.346,126.783 L290.448,126.007"/>
            <path d="M290.448,126.007 L290.346,125.23"/>
            <path d="M290.346,125.23 L290.047,124.507"/>
            <path d="M290.047,124.507 L289.57,123.885"/>
            <path d="M288.225,123.109 L288.948,123.408"/>
            <path d="M288.225,123.109 L287.448,123.007"/>
            <path d="M287.448,123.007 L286.672,123.109"/>
            <path d="M286.672,123.109 L285.948,123.408"/>
            <path d="M285.948,123.408 L285.327,123.885"/>
            <path d="M284.551,125.23 L284.85,124.507"/>
            <path d="M284.551,125.23 L284.448,126.007"/>
            <path d="M284.448,126.007 L284.551,126.783"/>
            <path d="M284.551,126.783 L284.85,127.507"/>
            <path d="M284.85,127.507 L285.327,128.128"/>
            <path d="M285.327,128.128 L285.948,128.605"/>
            <path d="M285.948,128.605 L285.327,128.128"/>
            <path d="M289.57,128.128 L290.047,127.507"/>
            <path d="M290.047,127.507 L289.57,128.128"/>
            <path d="M289.57,123.885 L288.948,123.408"/>
            <path d="M288.948,123.408 L289.57,123.885"/>
            <path d="M285.327,123.885 L284.85,124.507"/>
            <path d="M284.85,124.507 L285.327,123.885"/>
        </g>
        <g id="product-f2ff6747-dbb4-4044-ad6d-a6c893a03a3d" class="IfcPile material-null projection" ifc:name="fp_c_d300_rb" ifc:guid="3o$sT7sxH0HArjfiYJe3ez">
            <path d="M284.551,110.994 L284.85,110.271"/>
            <path d="M284.448,111.771 L284.551,110.994"/>
            <path d="M284.551,110.994 L284.551,110.994"/>
            <path d="M284.551,112.547 L284.448,111.771"/>
            <path d="M284.448,111.771 L284.448,111.771"/>
            <path d="M284.85,113.271 L284.551,112.547"/>
            <path d="M285.327,113.892 L284.85,113.271"/>
            <path d="M288.225,108.873 L288.948,109.173"/>
            <path d="M287.448,108.771 L288.225,108.873"/>
            <path d="M286.672,108.873 L287.448,108.771"/>
            <path d="M285.948,109.173 L286.672,108.873"/>
            <path d="M285.327,109.65 L285.948,109.173"/>
            <path d="M290.346,112.547 L290.047,113.271"/>
            <path d="M290.448,111.771 L290.346,112.547"/>
            <path d="M290.346,112.547 L290.346,112.547"/>
            <path d="M290.346,110.994 L290.448,111.771"/>
            <path d="M290.448,111.771 L290.448,111.771"/>
            <path d="M290.047,110.271 L290.346,110.994"/>
            <path d="M289.57,109.65 L290.047,110.271"/>
            <path d="M286.672,114.669 L285.948,114.369"/>
            <path d="M287.448,114.771 L286.672,114.669"/>
            <path d="M288.225,114.669 L287.448,114.771"/>
            <path d="M288.948,114.369 L288.225,114.669"/>
            <path d="M289.57,113.892 L288.948,114.369"/>
            <path d="M286.672,114.669 L285.948,114.369"/>
            <path d="M286.672,114.669 L287.448,114.771"/>
            <path d="M287.448,114.771 L288.225,114.669"/>
            <path d="M288.225,114.669 L288.948,114.369"/>
            <path d="M288.948,114.369 L289.57,113.892"/>
            <path d="M290.346,112.547 L290.047,113.271"/>
            <path d="M290.346,112.547 L290.448,111.771"/>
            <path d="M290.448,111.771 L290.346,110.994"/>
            <path d="M290.346,110.994 L290.047,110.271"/>
            <path d="M290.047,110.271 L289.57,109.65"/>
            <path d="M288.225,108.873 L288.948,109.173"/>
            <path d="M288.225,108.873 L287.448,108.771"/>
            <path d="M287.448,108.771 L286.672,108.873"/>
            <path d="M286.672,108.873 L285.948,109.173"/>
            <path d="M285.948,109.173 L285.327,109.65"/>
            <path d="M284.551,110.994 L284.85,110.271"/>
            <path d="M284.551,110.994 L284.448,111.771"/>
            <path d="M284.448,111.771 L284.551,112.547"/>
            <path d="M284.551,112.547 L284.85,113.271"/>
            <path d="M284.85,113.271 L285.327,113.892"/>
            <path d="M285.327,113.892 L285.948,114.369"/>
            <path d="M285.948,114.369 L285.327,113.892"/>
            <path d="M289.57,113.892 L290.047,113.271"/>
            <path d="M290.047,113.271 L289.57,113.892"/>
            <path d="M289.57,109.65 L288.948,109.173"/>
            <path d="M288.948,109.173 L289.57,109.65"/>
            <path d="M285.327,109.65 L284.85,110.271"/>
            <path d="M284.85,110.271 L285.327,109.65"/>
        </g>
        <g id="product-b3077a52-b4d7-4b96-b74c-19dec1d67a61" class="IfcPile material-null projection" ifc:name="fp_c_d300_lo" ifc:guid="2p1tfIjDTBbhTC6Tx1rdfX">
            <path d="M269.902,125.23 L270.202,124.507"/>
            <path d="M269.8,126.007 L269.902,125.23"/>
            <path d="M269.902,125.23 L269.902,125.23"/>
            <path d="M269.902,126.783 L269.8,126.007"/>
            <path d="M269.8,126.007 L269.8,126.007"/>
            <path d="M270.202,127.507 L269.902,126.783"/>
            <path d="M270.679,128.128 L270.202,127.507"/>
            <path d="M273.576,123.109 L274.3,123.408"/>
            <path d="M272.8,123.007 L273.576,123.109"/>
            <path d="M272.024,123.109 L272.8,123.007"/>
            <path d="M271.3,123.408 L272.024,123.109"/>
            <path d="M270.679,123.885 L271.3,123.408"/>
            <path d="M275.698,126.783 L275.398,127.507"/>
            <path d="M275.8,126.007 L275.698,126.783"/>
            <path d="M275.698,126.783 L275.698,126.783"/>
            <path d="M275.698,125.23 L275.8,126.007"/>
            <path d="M275.8,126.007 L275.8,126.007"/>
            <path d="M275.398,124.507 L275.698,125.23"/>
            <path d="M274.921,123.885 L275.398,124.507"/>
            <path d="M272.024,128.904 L271.3,128.605"/>
            <path d="M272.8,129.007 L272.024,128.904"/>
            <path d="M273.576,128.904 L272.8,129.007"/>
            <path d="M274.3,128.605 L273.576,128.904"/>
            <path d="M274.921,128.128 L274.3,128.605"/>
            <path d="M272.024,128.904 L271.3,128.605"/>
            <path d="M272.024,128.904 L272.8,129.007"/>
            <path d="M272.8,129.007 L273.576,128.904"/>
            <path d="M273.576,128.904 L274.3,128.605"/>
            <path d="M274.3,128.605 L274.921,128.128"/>
            <path d="M275.698,126.783 L275.398,127.507"/>
            <path d="M275.698,126.783 L275.8,126.007"/>
            <path d="M275.8,126.007 L275.698,125.23"/>
            <path d="M275.698,125.23 L275.398,124.507"/>
            <path d="M275.398,124.507 L274.921,123.885"/>
            <path d="M273.576,123.109 L274.3,123.408"/>
            <path d="M273.576,123.109 L272.8,123.007"/>
            <path d="M272.8,123.007 L272.024,123.109"/>
            <path d="M272.024,123.109 L271.3,123.408"/>
            <path d="M271.3,123.408 L270.679,123.885"/>
            <path d="M269.902,125.23 L270.202,124.507"/>
            <path d="M269.902,125.23 L269.8,126.007"/>
            <path d="M269.8,126.007 L269.902,126.783"/>
            <path d="M269.902,126.783 L270.202,127.507"/>
            <path d="M270.202,127.507 L270.679,128.128"/>
            <path d="M270.679,128.128 L271.3,128.605"/>
            <path d="M271.3,128.605 L270.679,128.128"/>
            <path d="M274.921,128.128 L275.398,127.507"/>
            <path d="M275.398,127.507 L274.921,128.128"/>
            <path d="M274.921,123.885 L274.3,123.408"/>
            <path d="M274.3,123.408 L274.921,123.885"/>
            <path d="M270.679,123.885 L270.202,124.507"/>
            <path d="M270.202,124.507 L270.679,123.885"/>
        </g>
    <g ifc:guid="0OpDvbCjr3yu_lagqAw$Wi" ifc:name="fp_c_d300_lb" class="IfcPile material-null cut"><path d="M269.9257135391235,110.9377670288086 L269.90223646163935,110.99445343017578 L269.8080217838287,111.71008110046387 L269.80001449584955,111.77090644836426 L269.8942291736602,112.48654365539551 L269.90223646163935,112.54735946655273 L270.17846107482904,113.21422576904297 L270.2019381523132,113.27090263366699 L270.64134597778315,113.84355545043945 L270.6786942481994,113.89223098754883 L271.2513422966003,114.33163642883301 L271.3000130653381,114.36898231506348 L271.9668769836425,114.64520454406738 L272.02355623245234,114.6686840057373 L272.7391910552978,114.76289749145508 L272.8000140190124,114.77090835571289 L273.51564645767206,114.67669486999512 L273.57647180557245,114.6686840057373 L274.2433357238769,114.3924617767334 L274.3000125885009,114.36898231506348 L274.8726630210876,113.9295768737793 L274.9213337898254,113.89223098754883 L275.36074399948114,113.31957817077637 L275.3980898857116,113.27090263366699 L275.42156696319574,113.21422576904297 L275.69779157638544,112.54735946655273 L275.70580005645746,112.48654365539551 L275.80001354217524,111.77090644836426 L275.792007446289,111.71008110046387 L275.69779157638544,110.99445343017578 L275.42156696319574,110.32758712768555 L275.3980898857116,110.27091026306152 L274.95868206024164,109.69825744628906 L274.9213337898254,109.64958190917969 L274.3486857414245,109.21017646789551 L274.3000149726867,109.17283058166504 L273.63315105438227,108.89660835266113 L273.57647180557245,108.87312889099121 L272.860836982727,108.77891540527344 L272.8000140190124,108.77090454101562 L272.0843815803527,108.8651180267334 L272.02355623245234,108.87312889099121 L271.3566923141479,109.14935111999512 L271.30001544952387,109.17283058166504 L270.7273650169372,109.61223602294922 L270.6786942481994,109.64958190917969 L270.23928403854364,110.22223472595215 L270.2019381523132,110.27091026306152 Z"/></g><g ifc:guid="1asDEP2VP7bBjC9JUp9NGw" ifc:name="fp_c_d300_ro" class="IfcPile material-null cut"><path d="M284.57412958145136,125.17338752746582 L284.5506525039672,125.23007392883301 L284.45643663406366,125.9457015991211 L284.44843053817743,126.00652694702148 L284.542646408081,126.72216415405273 L284.5506525039672,126.78297996520996 L284.8268771171569,127.4498462677002 L284.85035419464106,127.50652313232422 L285.289762020111,128.07917594909668 L285.3271102905273,128.12785148620605 L285.89975833892817,128.56725692749023 L285.94842910766596,128.6046028137207 L286.6152930259704,128.8808250427246 L286.6719722747802,128.90430450439453 L287.3876070976257,128.9985179901123 L287.4484300613403,129.00652885437012 L288.16406249999994,128.91231536865234 L288.22488784790033,128.90430450439453 L288.8917517662048,128.62808227539062 L288.9484310150146,128.6046028137207 L289.52107906341547,128.16519737243652 L289.56974983215326,128.12785148620605 L290.009160041809,127.5551986694336 L290.0465059280395,127.50652313232422 L290.06998062133783,127.4498462677002 L290.3462076187133,126.78297996520996 L290.35421371459955,126.72216415405273 L290.4484319686889,126.00652694702148 L290.4404211044311,125.9457015991211 L290.3462076187133,125.23007392883301 L290.0699853897094,124.56320762634277 L290.0465059280395,124.50653076171875 L289.6070981025695,123.93387794494629 L289.56974983215326,123.88520240783691 L288.9971017837524,123.44579696655273 L288.9484310150146,123.40845108032227 L288.28156709671015,123.13222885131836 L288.22488784790033,123.10874938964844 L287.5092530250549,123.01453590393066 L287.4484300613403,123.00652503967285 L286.7327976226806,123.10073852539062 L286.6719722747802,123.10874938964844 L286.0051083564758,123.38497161865234 L285.94842910766596,123.40845108032227 L285.3757810592651,123.84785652160645 L285.3271102905273,123.88520240783691 L284.8877000808715,124.45785522460938 L284.85035419464106,124.50653076171875 Z"/></g><g ifc:guid="3o$sT7sxH0HArjfiYJe3ez" ifc:name="fp_c_d300_rb" class="IfcPile material-null cut"><path d="M284.57412958145136,110.9377670288086 L284.5506525039672,110.99445343017578 L284.45643663406366,111.71008110046387 L284.44843053817743,111.77090644836426 L284.542646408081,112.48654365539551 L284.5506525039672,112.54735946655273 L284.8268771171569,113.21422576904297 L284.85035419464106,113.27090263366699 L285.289762020111,113.84355545043945 L285.3271102905273,113.89223098754883 L285.89975833892817,114.33163642883301 L285.94842910766596,114.36898231506348 L286.6152930259704,114.64520454406738 L286.6719722747802,114.6686840057373 L287.3876070976257,114.76289749145508 L287.4484300613403,114.77090835571289 L288.16406249999994,114.67669486999512 L288.22488784790033,114.6686840057373 L288.8917517662048,114.3924617767334 L288.9484310150146,114.36898231506348 L289.52107906341547,113.9295768737793 L289.56974983215326,113.89223098754883 L290.009160041809,113.31957817077637 L290.0465059280395,113.27090263366699 L290.06998062133783,113.21422576904297 L290.3462076187133,112.54735946655273 L290.35421371459955,112.48654365539551 L290.4484319686889,111.77090644836426 L290.4404211044311,111.71008110046387 L290.3462076187133,110.99445343017578 L290.0699853897094,110.32758712768555 L290.0465059280395,110.27091026306152 L289.6070981025695,109.69825744628906 L289.56974983215326,109.64958190917969 L288.9971017837524,109.21017646789551 L288.9484310150146,109.17283058166504 L288.28156709671015,108.89660835266113 L288.22488784790033,108.87312889099121 L287.5092530250549,108.77891540527344 L287.4484300613403,108.77090454101562 L286.7327976226806,108.8651180267334 L286.6719722747802,108.87312889099121 L286.0051083564758,109.14935111999512 L285.94842910766596,109.17283058166504 L285.3757810592651,109.61223602294922 L285.3271102905273,109.64958190917969 L284.8877000808715,110.22223472595215 L284.85035419464106,110.27091026306152 Z"/></g><g ifc:guid="2p1tfIjDTBbhTC6Tx1rdfX" ifc:name="fp_c_d300_lo" class="IfcPile material-null cut"><path d="M269.9257135391235,125.17338752746582 L269.90223646163935,125.23007392883301 L269.8080217838287,125.9457015991211 L269.80001449584955,126.00652694702148 L269.8942291736602,126.72216415405273 L269.90223646163935,126.78297996520996 L270.17846107482904,127.4498462677002 L270.2019381523132,127.50652313232422 L270.64134597778315,128.07917594909668 L270.6786942481994,128.12785148620605 L271.2513422966003,128.56725692749023 L271.3000130653381,128.6046028137207 L271.9668769836425,128.8808250427246 L272.02355623245234,128.90430450439453 L272.7391910552978,128.9985179901123 L272.8000140190124,129.00652885437012 L273.51564645767206,128.91231536865234 L273.57647180557245,128.90430450439453 L274.2433357238769,128.62808227539062 L274.3000125885009,128.6046028137207 L274.8726630210876,128.16519737243652 L274.9213337898254,128.12785148620605 L275.36074399948114,127.5551986694336 L275.3980898857116,127.50652313232422 L275.42156696319574,127.4498462677002 L275.69779157638544,126.78297996520996 L275.70580005645746,126.72216415405273 L275.80001354217524,126.00652694702148 L275.792007446289,125.9457015991211 L275.69779157638544,125.23007392883301 L275.42156696319574,124.56320762634277 L275.3980898857116,124.50653076171875 L274.95868206024164,123.93387794494629 L274.9213337898254,123.88520240783691 L274.3486857414245,123.44579696655273 L274.3000149726867,123.40845108032227 L273.63315105438227,123.13222885131836 L273.57647180557245,123.10874938964844 L272.860836982727,123.01453590393066 L272.8000140190124,123.00652503967285 L272.0843815803527,123.10073852539062 L272.02355623245234,123.10874938964844 L271.3566923141479,123.38497161865234 L271.30001544952387,123.40845108032227 L270.7273650169372,123.84785652160645 L270.6786942481994,123.88520240783691 L270.23928403854364,124.45785522460938 L270.2019381523132,124.50653076171875 Z"/></g></g>
</svg>