<svg xmlns="http://www.w3.org/2000/svg" xmlns:xlink="http://www.w3.org/1999/xlink" xmlns:ifc="http://www.ifcopenshell.org/ns" width="300mm" height="300mm" viewBox="0 0 300 300">
    <defs>
        <marker id="arrowend" markerWidth="10" markerHeight="7" refX="10" refY="3.5" orient="auto">
          <polygon points="0 0, 10 3.5, 0 7"/>
        </marker>
        <marker id="arrowstart" markerWidth="10" markerHeight="7" refX="0" refY="3.5" orient="auto">
          <polygon points="10 0, 0 3.5, 10 7"/>
        </marker>
    </defs>
    <g ifc:name="Elevation Renvooi" class="section" ifc:plane="[[1.000000,0.000000,0.000000,0.000000],[0.000000,1.000000,0.000000,0.000000],[0.000000,0.000000,1.000000,0.000000],[0.000000,0.000000,0.000000,1.000000]]" ifc:matrix3="[[10.000000,0.000000,30.000010],[0.000000,10.000000,280.000004],[0.000000,0.000000,1.000000]]">
        <g id="product-18ccde65-32dd-43f3-8faf-92ad0aebf82c" class="IfcPile material-null projection" ifc:name="fp_c_d300_lb" ifc:guid="0OpDvbCjr3yu_lagqAw$Wi">
            <path d="M49.9022,140.994 L49.9022,140.994"/>
            <path d="M49.8,141.771 L49.8,141.771"/>
            <path d="M55.6978,142.547 L55.6978,142.547"/>
            <path d="M55.8,141.771 L55.8,141.771"/>
            <path d="M51.3,139.173 L50.6787,139.65"/>
            <path d="M51.3,139.173 L52.0236,138.873"/>
            <path d="M52.0236,138.873 L52.8,138.771"/>
            <path d="M52.8,138.771 L53.5765,138.873"/>
            <path d="M53.5765,138.873 L54.3,139.173"/>
            <path d="M55.3981,140.271 L54.9213,139.65"/>
            <path d="M55.3981,140.271 L55.6978,140.994"/>
            <path d="M55.6978,140.994 L55.8,141.771"/>
            <path d="M55.8,141.771 L55.6978,142.547"/>
            <path d="M55.6978,142.547 L55.3981,143.271"/>
            <path d="M54.3,144.369 L54.9213,143.892"/>
            <path d="M54.3,144.369 L53.5765,144.669"/>
            <path d="M53.5765,144.669 L52.8,144.771"/>
            <path d="M52.8,144.771 L52.0236,144.669"/>
            <path d="M52.0236,144.669 L51.3,144.369"/>
            <path d="M50.2019,143.271 L50.6787,143.892"/>
            <path d="M50.2019,143.271 L49.9022,142.547"/>
            <path d="M49.9022,142.547 L49.8,141.771"/>
            <path d="M49.8,141.771 L49.9022,140.994"/>
            <path d="M49.9022,140.994 L50.2019,140.271"/>
            <path d="M55.6978,142.547 L55.6978,142.547"/>
            <path d="M55.8,141.771 L55.8,141.771"/>
            <path d="M49.9022,140.994 L49.9022,140.994"/>
            <path d="M49.8,141.771 L49.8,141.771"/>
            <path d="M50.6787,143.892 L51.3,144.369"/>
            <path d="M54.9213,143.892 L55.3981,143.271"/>
            <path d="M54.9213,139.65 L54.3,139.173"/>
            <path d="M50.6787,139.65 L50.2019,140.271"/>
        </g>
        <g id="product-64d8d399-09f6-4794-bb4c-2537b325743a" class="IfcPile material-null projection" ifc:name="fp_c_d300_ro" ifc:guid="1asDEP2VP7bBjC9JUp9NGw">
            <path d="M64.5507,155.23 L64.5507,155.23"/>
            <path d="M64.4484,156.007 L64.4484,156.007"/>
            <path d="M70.3462,156.783 L70.3462,156.783"/>
            <path d="M70.4484,156.007 L70.4484,156.007"/>
            <path d="M65.9484,153.408 L65.3271,153.885"/>
            <path d="M65.9484,153.408 L66.672,153.109"/>
            <path d="M66.672,153.109 L67.4484,153.007"/>
            <path d="M67.4484,153.007 L68.2249,153.109"/>
            <path d="M68.2249,153.109 L68.9484,153.408"/>
            <path d="M70.0465,154.507 L69.5698,153.885"/>
            <path d="M70.0465,154.507 L70.3462,155.23"/>
            <path d="M70.3462,155.23 L70.4484,156.007"/>
            <path d="M70.4484,156.007 L70.3462,156.783"/>
            <path d="M70.3462,156.783 L70.0465,157.507"/>
            <path d="M68.9484,158.605 L69.5698,158.128"/>
            <path d="M68.9484,158.605 L68.2249,158.904"/>
            <path d="M68.2249,158.904 L67.4484,159.007"/>
            <path d="M67.4484,159.007 L66.672,158.904"/>
            <path d="M66.672,158.904 L65.9484,158.605"/>
            <path d="M64.8504,157.507 L65.3271,158.128"/>
            <path d="M64.8504,157.507 L64.5507,156.783"/>
            <path d="M64.5507,156.783 L64.4484,156.007"/>
            <path d="M64.4484,156.007 L64.5507,155.23"/>
            <path d="M64.5507,155.23 L64.8504,154.507"/>
            <path d="M70.3462,156.783 L70.3462,156.783"/>
            <path d="M70.4484,156.007 L70.4484,156.007"/>
            <path d="M64.5507,155.23 L64.5507,155.23"/>
            <path d="M64.4484,156.007 L64.4484,156.007"/>
            <path d="M65.3271,158.128 L65.9484,158.605"/>
            <path d="M69.5698,158.128 L70.0465,157.507"/>
            <path d="M69.5698,153.885 L68.9484,153.408"/>
            <path d="M65.3271,153.885 L64.8504,154.507"/>
        </g>
        <g id="product-f2ff6747-dbb4-4044-ad6d-a6c893a03a3d" class="IfcPile material-null projection" ifc:name="fp_c_d300_rb" ifc:guid="3o$sT7sxH0HArjfiYJe3ez">
            <path d="M64.5507,140.994 L64.5507,140.994"/>
            <path d="M64.4484,141.771 L64.4484,141.771"/>
            <path d="M70.3462,142.547 L70.3462,142.547"/>
            <path d="M70.4484,141.771 L70.4484,141.771"/>
            <path d="M65.9484,139.173 L65.3271,139.65"/>
            <path d="M65.9484,139.173 L66.672,138.873"/>
            <path d="M66.672,138.873 L67.4484,138.771"/>
            <path d="M67.4484,138.771 L68.2249,138.873"/>
            <path d="M68.2249,138.873 L68.9484,139.173"/>
            <path d="M70.0465,140.271 L69.5698,139.65"/>
            <path d="M70.0465,140.271 L70.3462,140.994"/>
            <path d="M70.3462,140.994 L70.4484,141.771"/>
            <path d="M70.4484,141.771 L70.3462,142.547"/>
            <path d="M70.3462,142.547 L70.0465,143.271"/>
            <path d="M68.9484,144.369 L69.5698,143.892"/>
            <path d="M68.9484,144.369 L68.2249,144.669"/>
            <path d="M68.2249,144.669 L67.4484,144.771"/>
            <path d="M67.4484,144.771 L66.672,144.669"/>
            <path d="M66.672,144.669 L65.9484,144.369"/>
            <path d="M64.8504,143.271 L65.3271,143.892"/>
            <path d="M64.8504,143.271 L64.5507,142.547"/>
            <path d="M64.5507,142.547 L64.4484,141.771"/>
            <path d="M64.4484,141.771 L64.5507,140.994"/>
            <path d="M64.5507,140.994 L64.8504,140.271"/>
            <path d="M70.3462,142.547 L70.3462,142.547"/>
            <path d="M70.4484,141.771 L70.4484,141.771"/>
            <path d="M64.5507,140.994 L64.5507,140.994"/>
            <path d="M64.4484,141.771 L64.4484,141.771"/>
            <path d="M65.3271,143.892 L65.9484,144.369"/>
            <path d="M69.5698,143.892 L70.0465,143.271"/>
            <path d="M69.5698,139.65 L68.9484,139.173"/>
            <path d="M65.3271,139.65 L64.8504,140.271"/>
        </g>
        <g id="product-b3077a52-b4d7-4b96-b74c-19dec1d67a61" class="IfcPile material-null projection" ifc:name="fp_c_d300_lo" ifc:guid="2p1tfIjDTBbhTC6Tx1rdfX">
            <path d="M49.9022,155.23 L49.9022,155.23"/>
            <path d="M49.8,156.007 L49.8,156.007"/>
            <path d="M55.6978,156.783 L55.6978,156.783"/>
            <path d="M55.8,156.007 L55.8,156.007"/>
            <path d="M51.3,153.408 L50.6787,153.885"/>
            <path d="M51.3,153.408 L52.0236,153.109"/>
            <path d="M52.0236,153.109 L52.8,153.007"/>
            <path d="M52.8,153.007 L53.5765,153.109"/>
            <path d="M53.5765,153.109 L54.3,153.408"/>
            <path d="M55.3981,154.507 L54.9213,153.885"/>
            <path d="M55.3981,154.507 L55.6978,155.23"/>
            <path d="M55.6978,155.23 L55.8,156.007"/>
            <path d="M55.8,156.007 L55.6978,156.783"/>
            <path d="M55.6978,156.783 L55.3981,157.507"/>
            <path d="M54.3,158.605 L54.9213,158.128"/>
            <path d="M54.3,158.605 L53.5765,158.904"/>
            <path d="M53.5765,158.904 L52.8,159.007"/>
            <path d="M52.8,159.007 L52.0236,158.904"/>
            <path d="M52.0236,158.904 L51.3,158.605"/>
            <path d="M50.2019,157.507 L50.6787,158.128"/>
            <path d="M50.2019,157.507 L49.9022,156.783"/>
            <path d="M49.9022,156.783 L49.8,156.007"/>
            <path d="M49.8,156.007 L49.9022,155.23"/>
            <path d="M49.9022,155.23 L50.2019,154.507"/>
            <path d="M55.6978,156.783 L55.6978,156.783"/>
            <path d="M55.8,156.007 L55.8,156.007"/>
            <path d="M49.9022,155.23 L49.9022,155.23"/>
            <path d="M49.8,156.007 L49.8,156.007"/>
            <path d="M50.6787,158.128 L51.3,158.605"/>
            <path d="M54.9213,158.128 L55.3981,157.507"/>
            <path d="M54.9213,153.885 L54.3,153.408"/>
            <path d="M50.6787,153.885 L50.2019,154.507"/>
        </g>
        <g id="product-18ccde65-32dd-43f3-8faf-92ad0aebf82c" class="IfcPile material-null projection" ifc:name="fp_c_d300_lb" ifc:guid="0OpDvbCjr3yu_lagqAw$Wi">
            <path d="M52.0236,138.873 L51.3,139.173"/>
            <path d="M51.3,139.173 L52.0236,138.873"/>
            <path d="M54.3,139.173 L53.5765,138.873"/>
            <path d="M53.5765,138.873 L54.3,139.173"/>
            <path d="M49.8,141.771 L49.9022,142.547"/>
            <path d="M49.9022,142.547 L49.8,141.771"/>
            <path d="M52.8,145.521 L52.8,144.771"/>
            <path d="M52.8,144.771 L52.8,145.521"/>
            <path d="M50.6787,139.65 L50.2019,140.271"/>
            <path d="M50.2019,140.271 L50.6787,139.65"/>
            <path d="M51.3,144.369 L52.0236,144.669"/>
            <path d="M52.0236,144.669 L51.3,144.369"/>
            <path d="M49.05,141.771 L49.8,141.771"/>
            <path d="M49.8,141.771 L49.05,141.771"/>
            <path d="M51.3,139.173 L50.6787,139.65"/>
            <path d="M50.6787,139.65 L51.3,139.173"/>
            <path d="M53.5765,144.669 L54.3,144.369"/>
            <path d="M54.3,144.369 L53.5765,144.669"/>
            <path d="M56.55,141.771 L55.8,141.771"/>
            <path d="M55.8,141.771 L56.55,141.771"/>
            <path d="M54.3,144.369 L54.9213,143.892"/>
            <path d="M54.9213,143.892 L54.3,144.369"/>
            <path d="M51.3,144.369 L50.6787,143.892"/>
            <path d="M50.6787,143.892 L51.3,144.369"/>
            <path d="M52.8,138.771 L52.8,144.771"/>
            <path d="M52.8,144.771 L52.8,138.771"/>
            <path d="M50.6787,143.892 L50.2019,143.271"/>
            <path d="M50.2019,143.271 L50.6787,143.892"/>
            <path d="M49.9022,142.547 L50.2019,143.271"/>
            <path d="M50.2019,143.271 L49.9022,142.547"/>
            <path d="M54.9213,139.65 L55.3981,140.271"/>
            <path d="M55.3981,140.271 L54.9213,139.65"/>
            <path d="M55.8,141.771 L49.8,141.771"/>
            <path d="M49.8,141.771 L55.8,141.771"/>
            <path d="M55.3981,143.271 L55.6978,142.547"/>
            <path d="M55.6978,142.547 L55.3981,143.271"/>
            <path d="M52.0236,144.669 L52.8,144.771"/>
            <path d="M52.8,144.771 L52.0236,144.669"/>
            <path d="M51.2711,141.771 L49.9022,140.994"/>
            <path d="M49.9022,140.994 L51.2711,141.771"/>
            <path d="M52.8,144.771 L53.5765,144.669"/>
            <path d="M53.5765,144.669 L52.8,144.771"/>
            <path d="M52.8,141.771 L50.2019,140.271"/>
            <path d="M50.2019,140.271 L52.8,141.771"/>
            <path d="M52.8,140.868 L50.6787,139.65"/>
            <path d="M50.6787,139.65 L52.8,140.868"/>
            <path d="M54.3,139.173 L54.9213,139.65"/>
            <path d="M54.9213,139.65 L54.3,139.173"/>
            <path d="M52.8,140.092 L51.3,139.173"/>
            <path d="M51.3,139.173 L52.8,140.092"/>
            <path d="M53.5765,138.873 L52.8,138.771"/>
            <path d="M52.8,138.771 L53.5765,138.873"/>
            <path d="M55.8,141.771 L55.6978,140.994"/>
            <path d="M55.6978,140.994 L55.8,141.771"/>
            <path d="M50.2019,140.271 L49.9022,140.994"/>
            <path d="M49.9022,140.994 L50.2019,140.271"/>
            <path d="M52.8,139.388 L52.0236,138.873"/>
            <path d="M52.0236,138.873 L52.8,139.388"/>
            <path d="M55.6978,140.994 L55.3981,140.271"/>
            <path d="M55.3981,140.271 L55.6978,140.994"/>
            <path d="M49.9022,140.994 L49.8,141.771"/>
            <path d="M49.8,141.771 L49.9022,140.994"/>
            <path d="M55.6978,142.547 L55.8,141.771"/>
            <path d="M55.8,141.771 L55.6978,142.547"/>
            <path d="M52.8,138.771 L52.0236,138.873"/>
            <path d="M52.0236,138.873 L52.8,138.771"/>
            <path d="M55.3981,143.271 L54.9213,143.892"/>
            <path d="M54.9213,143.892 L55.3981,143.271"/>
            <path d="M52.8,138.021 L52.8,138.771"/>
            <path d="M52.8,138.771 L52.8,138.021"/>
        </g>
        <g id="product-f2ff6747-dbb4-4044-ad6d-a6c893a03a3d" class="IfcPile material-null projection" ifc:name="fp_c_d300_rb" ifc:guid="3o$sT7sxH0HArjfiYJe3ez">
            <path d="M68.9453,141.771 L70.3462,140.994"/>
            <path d="M70.3462,140.994 L68.9453,141.771"/>
            <path d="M67.4484,141.771 L70.0465,140.271"/>
            <path d="M70.0465,140.271 L67.4484,141.771"/>
            <path d="M67.4484,140.927 L69.5698,139.65"/>
            <path d="M69.5698,139.65 L67.4484,140.927"/>
            <path d="M67.4484,140.064 L68.9484,139.173"/>
            <path d="M68.9484,139.173 L67.4484,140.064"/>
            <path d="M67.4484,139.304 L68.2249,138.873"/>
            <path d="M68.2249,138.873 L67.4484,139.304"/>
            <path d="M67.4484,138.771 L67.4484,138.021"/>
            <path d="M67.4484,138.021 L67.4484,138.771"/>
            <path d="M65.9484,139.173 L66.672,138.873"/>
            <path d="M66.672,138.873 L65.9484,139.173"/>
            <path d="M68.2249,138.873 L68.9484,139.173"/>
            <path d="M68.9484,139.173 L68.2249,138.873"/>
            <path d="M64.5507,142.547 L64.4484,141.771"/>
            <path d="M64.4484,141.771 L64.5507,142.547"/>
            <path d="M67.4484,145.521 L67.4484,144.771"/>
            <path d="M67.4484,144.771 L67.4484,145.521"/>
            <path d="M64.8504,140.271 L65.3271,139.65"/>
            <path d="M65.3271,139.65 L64.8504,140.271"/>
            <path d="M66.672,144.669 L65.9484,144.369"/>
            <path d="M65.9484,144.369 L66.672,144.669"/>
            <path d="M64.4484,141.771 L63.6984,141.771"/>
            <path d="M63.6984,141.771 L64.4484,141.771"/>
            <path d="M65.3271,139.65 L65.9484,139.173"/>
            <path d="M65.9484,139.173 L65.3271,139.65"/>
            <path d="M68.9484,144.369 L68.2249,144.669"/>
            <path d="M68.2249,144.669 L68.9484,144.369"/>
            <path d="M71.1984,141.771 L70.4484,141.771"/>
            <path d="M70.4484,141.771 L71.1984,141.771"/>
            <path d="M69.5698,143.892 L68.9484,144.369"/>
            <path d="M68.9484,144.369 L69.5698,143.892"/>
            <path d="M65.3271,143.892 L65.9484,144.369"/>
            <path d="M65.9484,144.369 L65.3271,143.892"/>
            <path d="M67.4484,144.771 L67.4484,138.771"/>
            <path d="M67.4484,138.771 L67.4484,144.771"/>
            <path d="M64.8504,143.271 L65.3271,143.892"/>
            <path d="M65.3271,143.892 L64.8504,143.271"/>
            <path d="M64.8504,143.271 L64.5507,142.547"/>
            <path d="M64.5507,142.547 L64.8504,143.271"/>
            <path d="M70.0465,140.271 L69.5698,139.65"/>
            <path d="M69.5698,139.65 L70.0465,140.271"/>
            <path d="M64.4484,141.771 L70.4484,141.771"/>
            <path d="M70.4484,141.771 L64.4484,141.771"/>
            <path d="M70.3462,142.547 L70.0465,143.271"/>
            <path d="M70.0465,143.271 L70.3462,142.547"/>
            <path d="M67.4484,144.771 L66.672,144.669"/>
            <path d="M66.672,144.669 L67.4484,144.771"/>
            <path d="M68.2249,144.669 L67.4484,144.771"/>
            <path d="M67.4484,144.771 L68.2249,144.669"/>
            <path d="M69.5698,139.65 L68.9484,139.173"/>
            <path d="M68.9484,139.173 L69.5698,139.65"/>
            <path d="M67.4484,138.771 L68.2249,138.873"/>
            <path d="M68.2249,138.873 L67.4484,138.771"/>
            <path d="M70.3462,140.994 L70.4484,141.771"/>
            <path d="M70.4484,141.771 L70.3462,140.994"/>
            <path d="M64.5507,140.994 L64.8504,140.271"/>
            <path d="M64.8504,140.271 L64.5507,140.994"/>
            <path d="M70.0465,140.271 L70.3462,140.994"/>
            <path d="M70.3462,140.994 L70.0465,140.271"/>
            <path d="M64.4484,141.771 L64.5507,140.994"/>
            <path d="M64.5507,140.994 L64.4484,141.771"/>
            <path d="M70.4484,141.771 L70.3462,142.547"/>
            <path d="M70.3462,142.547 L70.4484,141.771"/>
            <path d="M66.672,138.873 L67.4484,138.771"/>
            <path d="M67.4484,138.771 L66.672,138.873"/>
            <path d="M69.5698,143.892 L70.0465,143.271"/>
            <path d="M70.0465,143.271 L69.5698,143.892"/>
        </g>
        <g id="product-64d8d399-09f6-4794-bb4c-2537b325743a" class="IfcPile material-null projection" ifc:name="fp_c_d300_ro" ifc:guid="1asDEP2VP7bBjC9JUp9NGw">
            <path d="M67.4484,156.007 L70.0465,157.507"/>
            <path d="M70.0465,157.507 L67.4484,156.007"/>
            <path d="M67.4484,156.789 L69.5698,158.128"/>
            <path d="M69.5698,158.128 L67.4484,156.789"/>
            <path d="M67.4484,157.74 L68.9484,158.605"/>
            <path d="M68.9484,158.605 L67.4484,157.74"/>
            <path d="M67.4484,158.468 L68.2249,158.904"/>
            <path d="M68.2249,158.904 L67.4484,158.468"/>
            <path d="M68.9607,156.007 L70.3462,156.783"/>
            <path d="M70.3462,156.783 L68.9607,156.007"/>
            <path d="M67.4484,153.007 L67.4484,152.257"/>
            <path d="M67.4484,152.257 L67.4484,153.007"/>
            <path d="M65.9484,153.408 L66.672,153.109"/>
            <path d="M66.672,153.109 L65.9484,153.408"/>
            <path d="M68.2249,153.109 L68.9484,153.408"/>
            <path d="M68.9484,153.408 L68.2249,153.109"/>
            <path d="M64.5507,156.783 L64.4484,156.007"/>
            <path d="M64.4484,156.007 L64.5507,156.783"/>
            <path d="M67.4484,159.757 L67.4484,159.007"/>
            <path d="M67.4484,159.007 L67.4484,159.757"/>
            <path d="M64.8504,154.507 L65.3271,153.885"/>
            <path d="M65.3271,153.885 L64.8504,154.507"/>
            <path d="M66.672,158.904 L65.9484,158.605"/>
            <path d="M65.9484,158.605 L66.672,158.904"/>
            <path d="M64.4484,156.007 L63.6984,156.007"/>
            <path d="M63.6984,156.007 L64.4484,156.007"/>
            <path d="M65.3271,153.885 L65.9484,153.408"/>
            <path d="M65.9484,153.408 L65.3271,153.885"/>
            <path d="M68.9484,158.605 L68.2249,158.904"/>
            <path d="M68.2249,158.904 L68.9484,158.605"/>
            <path d="M71.1984,156.007 L70.4484,156.007"/>
            <path d="M70.4484,156.007 L71.1984,156.007"/>
            <path d="M69.5698,158.128 L68.9484,158.605"/>
            <path d="M68.9484,158.605 L69.5698,158.128"/>
            <path d="M65.3271,158.128 L65.9484,158.605"/>
            <path d="M65.9484,158.605 L65.3271,158.128"/>
            <path d="M67.4484,159.007 L67.4484,153.007"/>
            <path d="M67.4484,153.007 L67.4484,159.007"/>
            <path d="M64.8504,157.507 L65.3271,158.128"/>
            <path d="M65.3271,158.128 L64.8504,157.507"/>
            <path d="M64.8504,157.507 L64.5507,156.783"/>
            <path d="M64.5507,156.783 L64.8504,157.507"/>
            <path d="M70.0465,154.507 L69.5698,153.885"/>
            <path d="M69.5698,153.885 L70.0465,154.507"/>
            <path d="M64.4484,156.007 L70.4484,156.007"/>
            <path d="M70.4484,156.007 L64.4484,156.007"/>
            <path d="M70.3462,156.783 L70.0465,157.507"/>
            <path d="M70.0465,157.507 L70.3462,156.783"/>
            <path d="M67.4484,159.007 L66.672,158.904"/>
            <path d="M66.672,158.904 L67.4484,159.007"/>
            <path d="M68.2249,158.904 L67.4484,159.007"/>
            <path d="M67.4484,159.007 L68.2249,158.904"/>
            <path d="M69.5698,153.885 L68.9484,153.408"/>
            <path d="M68.9484,153.408 L69.5698,153.885"/>
            <path d="M67.4484,153.007 L68.2249,153.109"/>
            <path d="M68.2249,153.109 L67.4484,153.007"/>
            <path d="M70.3462,155.23 L70.4484,156.007"/>
            <path d="M70.4484,156.007 L70.3462,155.23"/>
            <path d="M64.5507,155.23 L64.8504,154.507"/>
            <path d="M64.8504,154.507 L64.5507,155.23"/>
            <path d="M70.0465,154.507 L70.3462,155.23"/>
            <path d="M70.3462,155.23 L70.0465,154.507"/>
            <path d="M64.4484,156.007 L64.5507,155.23"/>
            <path d="M64.5507,155.23 L64.4484,156.007"/>
            <path d="M70.4484,156.007 L70.3462,156.783"/>
            <path d="M70.3462,156.783 L70.4484,156.007"/>
            <path d="M66.672,153.109 L67.4484,153.007"/>
            <path d="M67.4484,153.007 L66.672,153.109"/>
            <path d="M69.5698,158.128 L70.0465,157.507"/>
            <path d="M70.0465,157.507 L69.5698,158.128"/>
        </g>
        <g id="product-b3077a52-b4d7-4b96-b74c-19dec1d67a61" class="IfcPile material-null projection" ifc:name="fp_c_d300_lo" ifc:guid="2p1tfIjDTBbhTC6Tx1rdfX">
            <path d="M51.2711,156.007 L49.9022,156.783"/>
            <path d="M49.9022,156.783 L51.2711,156.007"/>
            <path d="M52.8,158.524 L52.0236,158.904"/>
            <path d="M52.0236,158.904 L52.8,158.524"/>
            <path d="M52.8,157.788 L51.3,158.605"/>
            <path d="M51.3,158.605 L52.8,157.788"/>
            <path d="M52.8,156.903 L50.6787,158.128"/>
            <path d="M50.6787,158.128 L52.8,156.903"/>
            <path d="M52.8,156.007 L50.2019,157.507"/>
            <path d="M50.2019,157.507 L52.8,156.007"/>
            <path d="M52.8,153.007 L52.8,152.257"/>
            <path d="M52.8,152.257 L52.8,153.007"/>
            <path d="M51.3,153.408 L52.0236,153.109"/>
            <path d="M52.0236,153.109 L51.3,153.408"/>
            <path d="M53.5765,153.109 L54.3,153.408"/>
            <path d="M54.3,153.408 L53.5765,153.109"/>
            <path d="M49.9022,156.783 L49.8,156.007"/>
            <path d="M49.8,156.007 L49.9022,156.783"/>
            <path d="M52.8,159.757 L52.8,159.007"/>
            <path d="M52.8,159.007 L52.8,159.757"/>
            <path d="M50.2019,154.507 L50.6787,153.885"/>
            <path d="M50.6787,153.885 L50.2019,154.507"/>
            <path d="M52.0236,158.904 L51.3,158.605"/>
            <path d="M51.3,158.605 L52.0236,158.904"/>
            <path d="M49.8,156.007 L49.05,156.007"/>
            <path d="M49.05,156.007 L49.8,156.007"/>
            <path d="M50.6787,153.885 L51.3,153.408"/>
            <path d="M51.3,153.408 L50.6787,153.885"/>
            <path d="M54.3,158.605 L53.5765,158.904"/>
            <path d="M53.5765,158.904 L54.3,158.605"/>
            <path d="M56.55,156.007 L55.8,156.007"/>
            <path d="M55.8,156.007 L56.55,156.007"/>
            <path d="M54.9213,158.128 L54.3,158.605"/>
            <path d="M54.3,158.605 L54.9213,158.128"/>
            <path d="M50.6787,158.128 L51.3,158.605"/>
            <path d="M51.3,158.605 L50.6787,158.128"/>
            <path d="M52.8,159.007 L52.8,153.007"/>
            <path d="M52.8,153.007 L52.8,159.007"/>
            <path d="M50.2019,157.507 L50.6787,158.128"/>
            <path d="M50.6787,158.128 L50.2019,157.507"/>
            <path d="M50.2019,157.507 L49.9022,156.783"/>
            <path d="M49.9022,156.783 L50.2019,157.507"/>
            <path d="M55.3981,154.507 L54.9213,153.885"/>
            <path d="M54.9213,153.885 L55.3981,154.507"/>
            <path d="M49.8,156.007 L55.8,156.007"/>
            <path d="M55.8,156.007 L49.8,156.007"/>
            <path d="M55.6978,156.783 L55.3981,157.507"/>
            <path d="M55.3981,157.507 L55.6978,156.783"/>
            <path d="M52.8,159.007 L52.0236,158.904"/>
            <path d="M52.0236,158.904 L52.8,159.007"/>
            <path d="M53.5765,158.904 L52.8,159.007"/>
            <path d="M52.8,159.007 L53.5765,158.904"/>
            <path d="M54.9213,153.885 L54.3,153.408"/>
            <path d="M54.3,153.408 L54.9213,153.885"/>
            <path d="M52.8,153.007 L53.5765,153.109"/>
            <path d="M53.5765,153.109 L52.8,153.007"/>
            <path d="M55.6978,155.23 L55.8,156.007"/>
            <path d="M55.8,156.007 L55.6978,155.23"/>
            <path d="M49.9022,155.23 L50.2019,154.507"/>
            <path d="M50.2019,154.507 L49.9022,155.23"/>
            <path d="M55.3981,154.507 L55.6978,155.23"/>
            <path d="M55.6978,155.23 L55.3981,154.507"/>
            <path d="M49.8,156.007 L49.9022,155.23"/>
            <path d="M49.9022,155.23 L49.8,156.007"/>
            <path d="M55.8,156.007 L55.6978,156.783"/>
            <path d="M55.6978,156.783 L55.8,156.007"/>
            <path d="M52.0236,153.109 L52.8,153.007"/>
            <path d="M52.8,153.007 L52.0236,153.109"/>
            <path d="M54.9213,158.128 L55.3981,157.507"/>
            <path d="M55.3981,157.507 L54.9213,158.128"/>
        </g>
    </g>
</svg>