<?xml version="1.0" encoding="utf-8" ?>
<svg baseProfile="full" version="1.1" xmlns="http://www.w3.org/2000/svg" xmlns:ev="http://www.w3.org/2001/xml-events" xmlns:xlink="http://www.w3.org/1999/xlink">

<!-- Type_Specificatie_Optie_Status

t_o_s

t: Type (bijv. "son" voor "sondering").
o: Optie (alleen gebruiken als het afwijkt, bijv. "kl" voor "kleef").
s: Status (bijv. "uit" voor "uitgevoerd", "nuit" voor "niet uitgevoerd").

Voorbeeld:
son_uit (standaardoptie, niet kleef)
son_nuit (standaardoptie, niet kleef)
son_kl_uit (afwijkende optie kleef, uitgevoerd)
son_kl_nuit (afwijkende optie kleef, niet uitgevoerd)

type_optie_status

type: Het hoofdobject of -type (bijv. "sondering").
optie: Alleen gebruiken als het afwijkt van de standaard (bijv. "kleef", "diepte", "wrijving").
status: De uitvoeringsstatus (bijv. "uitgevoerd", "nietuitgevoerd").

Voorbeeld:
sondering_uitgevoerd (standaardoptie, niet kleef)
sondering_nietuitgevoerd (standaardoptie, niet kleef)
sondering_kleef_uitgevoerd (afwijkende optie kleef)
sondering_kleef_nietuitgevoerd (afwijkende optie kleef)

-->
    <g id="rectangle-tag">
        <rect x="-6" y="-2.5" width="12" height="5" fill="white" stroke="black" style="stroke-width: 0.25;" />
    </g>
    <g id="triangle-tag">
        <path style="fill: white; stroke: black; stroke-width: 0.25;" d="M 3.1409425e-7,-7.1069207 5.7650623,2.8784603 l -11.5301246,-6e-7 z" />
    </g>
    <g id="hexagon-tag">
        <path style="fill: white; stroke: black; stroke-width: 0.25;" d="m 0.0161133,-6.0583333 5.2339915,3.8366023 -2.031433,6.1633977 c 0,0 -6.4894866,-0.027414 -6.4894866,-0.027414 l -1.97929,-6.1803395 5.2662181,-3.7922467" />
    </g>
    <g id="capsule-tag">
        <rect x="-6" y="-2.5" width="12" height="5" rx="2.5" ry="2.5" fill="white" stroke="black" style="stroke-width: 0.25;" />
    </g>
    <g id="circle-tag">
        <circle r="5" fill="white" stroke="black" style="stroke-width: 0.25;" />
    </g>
    <g id="door-tag">
        <circle r="5" fill="white" stroke="black" style="stroke-width: 0.25;" />
        <text y="-1.75" class="regular" text-anchor="middle" dominant-baseline="middle" data-type="text-template"></text>
        <line x1="-5" x2="5" style="stroke: black; stroke-width: 0.25;" />
        <text y="2.5" class="regular" text-anchor="middle" dominant-baseline="middle" data-type="text-template"></text>
    </g>
    <g id="window-tag">
        <path style="fill: white; stroke: black; stroke-width: 0.25;" d="m 0.0161133,-6.0583333 5.2339915,3.8366023 -2.031433,6.1633977 c 0,0 -6.4894866,-0.027414 -6.4894866,-0.027414 l -1.97929,-6.1803395 5.2662181,-3.7922467" />
   <!-- </g>
	 <g id="space-tag">
		<rect x="0" y="-6" width="18" height="15" fill="white" stroke="none"/>
        <text y="-3" font-size="small" text-anchor="left" dominant-baseline="left" data-type="text-template" font-style="italic" ></text>
        <text  font-size="large" text-anchor="left" dominant-baseline="middle" data-type="text-template" font-weight="bold"></text>
        <text  y="3.5" class="2.97" text-anchor="left" dominant-baseline="middle" data-type="text-template"></text>
		<text  y="7" class="2.97" text-anchor="left" dominant-baseline="middle" data-type="text-template"></text>
	</g> -->
	</g>
	 <g id="space-tag">
        <text  font-size="5.78px" text-anchor="left" dominant-baseline="middle" data-type="text-template" ></text>
        <text  y="3.5" class="small" text-anchor="left" dominant-baseline="middle" data-type="text-template"></text>
		<text  y="7" class="small" text-anchor="left" dominant-baseline="middle" data-type="text-template"></text>
	</g> 
	<g id="spot-elevation">
        <path style="fill: white; stroke: black; stroke-width: 0.5;" d="M 0,-2 0,2 M -2,0 2,0" />
	</g>
    <g id="elevation-arrow">
        <path style="fill: black;" d="M -7.07106 0 0 -7.07106 7.07106 0" />
    </g>
    <g id="elevation-tag">
        <circle r="5" fill="white" stroke="black" style="stroke-width: 0.25;" />
        <line x1="-5" y1="0" x2="5" y2="0" style="stroke: black; stroke-width: 0.25;" />
    </g>
	<g id="section-arrow">
        <path style="fill: black;" d="M -3 0 L 0 -4 L 3 0" />
    </g>
    <g id="setout-tag">
        <circle fill="white" stroke="black" r="2.5" style="stroke-width: 0.5"/>
        <path d="M 0 0 L -2.5 0 A 2.5 2.5 0 0 1 0 -2.5 Z" fill="black"/>
        <path d="M 0 0 L 2.5 0 A 2.5 2.5 0 0 1 0 2.5 Z" fill="black"/>
        <text x="3" y="-8" class="small" text-anchor="start" dominant-baseline="auto" data-type="text-template"></text>
        <text x="3" y="-4" class="regular" text-anchor="start" dominant-baseline="auto" data-type="text-template"></text>
    </g>
    <g id="setout-point">
        <circle fill="white" stroke="black" r="2.5" style="stroke-width: 0.5"/>
        <path d="M 0 0 L -2.5 0 A 2.5 2.5 0 0 1 0 -2.5 Z" fill="black"/>
        <path d="M 0 0 L 2.5 0 A 2.5 2.5 0 0 1 0 2.5 Z" fill="black"/>
    </g>
    <g id="control-point">
        <path style="fill: white; stroke: black; stroke-width: 0.5;" d="M 2.286165,1.4798666 H -1.0000316e-7 -2.2861651 L -1.1430826,-0.5000101 -1.0000316e-7,-2.479888 1.1430827,-0.5000101 Z" />
        <circle r="0.5" fill="black" stroke="black" style="stroke-width: 0.25;" />
    </g>
    <g id="traverse-point">
        <path style="fill: white; stroke: black; stroke-width: 0.5;" d="M -2,-2 2,2 M -2,2 2,-2" />
    </g>
	<g id="dot">
        <circle r="2" fill="none" stroke="black" style="stroke-width: 0.25;" />
    </g>
	<g id="g10" transform="translate(-5.5, 2.6) scale(-0.01, 0.01) rotate(180)">
      <path
         d="M 0,0 V 526.43 H 1133.86 V 0 H 0"
         style="fill:#00a650;fill-opacity:1;fill-rule:nonzero;stroke:none"
         id="path12" />
      <path
         d="M 650.906,77.9805 786.453,211.008 H 677.859 V 430.012 H 623.953 V 211.008 H 513.805 L 650.906,77.9805"
         style="fill:#ffffff;fill-opacity:1;fill-rule:nonzero;stroke:none"
         id="path14" />
      <path
         d="M 1076.02,78.8398 V 433.82 H 872.656 V 78.8398 h 203.364"
         style="fill:#ffffff;fill-opacity:1;fill-rule:nonzero;stroke:none"
         id="path16" />
      <path
         d="m 355.508,117.063 v 72.617 l -75.203,75.199 21.879,21.875 46.015,-46.012 c 5.016,-5.019 13.141,-5.019 18.156,0 l 12.102,12.102 c 5.012,5.008 5.012,13.133 0,18.148 l -46.019,46.02 32.406,32.406 v 11.613 c 5.609,-2.222 11.715,-3.457 18.117,-3.457 27.176,0 49.203,22.031 49.203,49.203 0,27.18 -22.027,49.203 -49.203,49.203 -27.18,0 -49.211,-22.023 -49.211,-49.203 0,-4.711 0.68,-9.265 1.918,-13.578 H 197.297 l -59.332,-59.336 c -5.012,-5.011 -5.012,-13.14 0,-18.156 l 12.101,-12.098 c 5.016,-5.011 13.141,-5.011 18.157,0 l 46.797,46.797 h 34.582 L 144.488,245.293 H 70.6797 c -7.0899,0 -12.8359,-5.75 -12.8359,-12.84 v -25.668 c 0,-7.097 5.746,-12.84 12.8359,-12.84 H 209.371 L 244,228.574 304.16,168.41 V 83.2813 c 0,-7.0899 5.746,-12.8321 12.844,-12.8321 h 25.668 c 7.09,0 12.836,5.7422 12.836,12.8321 v 33.7817"
         style="fill:#ffffff;fill-opacity:1;fill-rule:nonzero;stroke:none"
         id="path18" />
	</g>
	<g 	id="c1" transform="translate(-7.15,-9.1) scale(0.06)">
	<path
         style="fill:#000000;stroke:#000000;stroke-width:4;stroke-dasharray:none;stroke-opacity:1"
         d="M 78.469755,152.87286 H 161.03347 Z"
         id="path1" />
		 <path
         style="fill:#000000;stroke:#000000;stroke-width:4;stroke-dasharray:none;stroke-opacity:1"
         d="m 90.316816,182.03439 58.508274,-58.2542 z"
         id="path1-8" />
		 <path
         style="fill:#000000;stroke:#000000;stroke-width:4;stroke-dasharray:none;stroke-opacity:1"
         d="m 120.33277,194.67023 -0.82226,-82.55962 z"
         id="path1-0" />
		 <path
         style="fill:#000000;stroke:#000000;stroke-width:4;stroke-dasharray:none;stroke-opacity:1"
         d="M 149.37487,182.53334 90.540869,124.60812 Z"
         id="path1-8-0" />
		 <circle
         style="fill:none;stroke:#000000;stroke-width:4;stroke-dasharray:none;stroke-opacity:1"
         id="path2"
         cx="119.9063"
         cy="153.38069"
         r="41.450706" />
	</g>
    <g id="hwa" transform=" translate(-7.15,-9.1) scale(0.06)">
	<path
         style="fill:#000000;stroke:#000000;stroke-width:4;stroke-dasharray:none;stroke-opacity:1"
         d="M 78.469755,152.87286 H 161.03347 Z"
         id="path1" />
		 <path
         style="fill:#000000;stroke:#000000;stroke-width:4;stroke-dasharray:none;stroke-opacity:1"
         d="m 120.33277,194.67023 -0.82226,-82.55962 z"
         id="path1-0" />
		 <circle
         style="fill:none;stroke:#000000;stroke-width:4;stroke-dasharray:none;stroke-opacity:1"
         id="path2"
         cx="119.9063"
         cy="153.38069"
         r="20.450706" />
	</g>
	<g id="son_uit" transform="translate(2, -4) scale(1.5)">
      <path
         d="M0 0H4ZL2 4 4 0H0"
         style="fill:#000000;fill-rule:nonzero;stroke:#000000; stroke-width:0.25;"
         id="path1" />
		 <path
         d="M0 0H2ZL2 4V0"
         style="fill:#ffffff;fill-rule:nonzero;stroke:#000000; stroke-width:0.25;"
         id="path2" />
	</g>
	<g id="son_nuit" transform="translate(2, -4) scale(1.5)">
		<path
         d="M0 0H4ZL2 4 4 0H0"
         style="fill:#ffffff;fill-rule:nonzero;stroke:#000000; stroke-width:0.25;"
         id="path1" />
	</g>
	<g id="son_kl_uit" transform="translate(2, -4) scale(1.5)">
      <path
         d="M0 0H4ZL2 4 4 0M4 4H0"
         style="fill:#000000;fill-rule:nonzero;stroke:#000000; stroke-width:0.25;"
         id="path1" />
		 <path
         d="M0 0H2ZL2 4V0"
         style="fill:#ffffff;fill-rule:nonzero;stroke:#000000; stroke-width:0.25;"
         id="path2" />
	</g>
	<g id="son_kl_nuit" transform="translate(2, -4) scale(1.5)">
		<path
         d="M0 0H4ZL2 4 4 0M4 4H0"
         style="fill:#ffffff;fill-rule:nonzero;stroke:#000000; stroke-width:0.25;"
         id="path1" />
	</g>
	<g id="kol_bov" transform="translate(0, 1.25) scale(1.5)">
		<path
         d="M8 0H0L-3 6"
         style="fill:none;stroke:#000000; stroke-width:0.15;"
         id="path1" />
	 </g>
	 <g id="kol_bov_ond" transform="translate(0, 1.25) scale(1.5)">
		<path
         d="M8 0H0L-3-6"
         style="fill:none;stroke:#000000; stroke-width:0.15;"
         id="path1" />
	 </g>
	 <g id="kol_ond" transform="translate(0, -1.25) scale(1.5)">
		<path
         d="M8 0H0L-3 6"
         style="fill:none;stroke:#000000; stroke-width:0.15;"
         id="path1" />
	 </g>
	  <g id="kol_ond_ond" transform="translate(0, -3.25) scale(1.5)">
		<path
         d="M8 0H0L-3-6"
         style="fill:none;stroke:#000000; stroke-width:0.15;"
         id="path1" />
	 </g>
	 <g id="pn_1_8">
        <rect x="-23.75" y="-3.75" width="47.5" height="7.5" fill="white" stroke="black" style="stroke-width: 0.5;" />
    </g>
	<g id="pn_2_5">
        <rect x="-33" y="-5.2" width="66" height="10.4" fill="white" stroke="black" style="stroke-width: 0.5;" />
    </g>
	<g id="ds_p_l" transform=" translate(0,0) scale(1)">
		<path
          d="M17 0H-32V8"
         style="fill:none;fill-rule:nonzero;stroke:#000000; stroke-width:0.25;"
         id="path1" />
		<path
          d="M-32 8h3l-3 6-3-6h3"
         style="fill:black;fill-rule:nonzero;stroke:#000000; stroke-width:0.25;"
         id="path2" />
	</g>
	<g id="ds_p_r" transform=" translate(0,0) scale(-1, 1)">
		<path
          d="M17 0H-32V8"
         style="fill:none;fill-rule:nonzero;stroke:#000000; stroke-width:0.25;"
         id="path1" />
		<path
          d="M-32 8h3l-3 6-3-6h3"
         style="fill:black;fill-rule:nonzero;stroke:#000000; stroke-width:0.25;"
         id="path2" />
	</g>
	<g id="wapsym" transform=" translate(0,0) scale(0.37)">
		<path
          d="M4-5H0M4-9-3 7m1-5A1 1 0 012-2 1 1 0 01-2 2M1-7 5-7"
         style="fill:none;fill-rule:nonzero;stroke:#000000; stroke-width:0.75;"
         id="path1" />
	</g>
	<g id="wapsym_ng_1" transform=" translate(0,0) scale(0.37)">
		<path
          d="M4-5H0M4-9-3 7m1-5A1 1 0 012-2 1 1 0 01-2 2"
         style="fill:none;fill-rule:nonzero;stroke:#000000; stroke-width:0.75;"
         id="path1" />
	</g>
	<g id="wapsym_ng_2" transform=" translate(0,0) scale(0.37)">
		<path
          d="M2-2M4-9-3 7m1-5A1 1 0 012-2 1 1 0 01-2 2"
         style="fill:none;fill-rule:nonzero;stroke:#000000; stroke-width:0.75;"
         id="path1" />
	</g>
	<!-- <g id="schaalstok1_1" transform=" translate(0,0) scale(1)">
		<rect x="0mm" y="0" width="10mm" height="5mm" fill="white" stroke="black" style="stroke-width: 0.25;" />
		<rect x="10mm" y="0" width="10mm" height="5mm" fill="black" stroke="black" style="stroke-width: 0.25;" />
		<rect x="20mm" y="0" width="10mm" height="5mm" fill="white" stroke="black" style="stroke-width: 0.25;" />
		<rect x="30mm" y="0" width="10mm" height="5mm" fill="black" stroke="black" style="stroke-width: 0.25;" />
		<rect x="40mm" y="0" width="10mm" height="5mm" fill="white" stroke="black" style="stroke-width: 0.25;" />
	</g>
	-->
	<g id="schaalstok1_1" transform=" translate(0,0) scale(1)">
		<rect x="0" y="0" width="100mm" height="10mm" fill="white" stroke="black" style="stroke-width: 0.25mm;" />
	</g>
	<g id="schaalstok1_10" transform=" translate(0,0) scale(1)">
		<rect x="0" y="0" width="20mm" height="10mm" fill="white" stroke="black" style="stroke-width: 0.25mm;" />
	</g>
	<g id="schaalstok1_10pt" transform=" translate(0,0) scale(1)">
		<rect x="0" y="0" width="20pt" height="10pt" fill="white" stroke="black" style="stroke-width: 0.25pt;" />
	</g>
	<g id="schaalstok1_10px" transform=" translate(0,0) scale(1)">
		<rect x="0" y="0" width="50" height="10" fill="white" stroke="black" style="stroke-width: 0.25;" />
	</g>
	<g id="wapsym_complex" transform="translate(0, 0) scale(1.2)">
      <path
         d="M-5 0A1 1 0 005 0 1 1 0 00-5 0Z"
         style="fill:white; stroke:black; stroke-width:0.25;"
         id="path1" />
		 <path
         d="M25 3H4Zm0-6H4ZM3-25V-4Zm-6 0V-4Z"
         style="fill:none; stroke:black; stroke-width:0.25;"
         id="path2" />
		 <path
         d="M10 3h4L12 1Zm0-6h4L12-1ZM-3-13v4l2-2ZM3-9v-4L1-11Zm0-4v-4L1-15Zm-6-4v4l2-2Z"
         style="fill:black; stroke:black; stroke-width:0.25;"
         id="path3" />
	</g>
</svg>
