<svg xmlns="http://www.w3.org/2000/svg" xmlns:xlink="http://www.w3.org/1999/xlink" xmlns:ifc="http://www.ifcopenshell.org/ns" width="500mm" height="500mm" viewBox="0 0 500 500">
    <defs>
        <marker id="arrowend" markerWidth="10" markerHeight="7" refX="10" refY="3.5" orient="auto">
          <polygon points="0 0, 10 3.5, 0 7"/>
        </marker>
        <marker id="arrowstart" markerWidth="10" markerHeight="7" refX="0" refY="3.5" orient="auto">
          <polygon points="10 0, 0 3.5, 10 7"/>
        </marker>
    </defs>
    <g ifc:name="Elevation FUNDERING RCP" class="section" ifc:plane="[[1.000000,0.000000,0.000000,0.000000],[0.000000,1.000000,0.000000,0.000000],[0.000000,0.000000,1.000000,0.000000],[0.000000,0.000000,0.000000,1.000000]]" ifc:matrix3="[[10.000000,0.000000,249.999995],[0.000000,10.000000,249.999995],[0.000000,0.000000,1.000000]]">
        <g id="product-18ccde65-32dd-43f3-8faf-92ad0aebf82c" class="IfcPile material-gewapendbetonprefab projection" ifc:name="fp_c_d300_lb" ifc:guid="0OpDvbCjr3yu_lagqAw$Wi">
            <path d="M270.202,110.271 L269.902,110.994"/>
            <path d="M269.902,110.994 L269.8,111.771"/>
            <path d="M269.902,110.994 L269.902,110.994"/>
            <path d="M269.8,111.771 L269.902,112.547"/>
            <path d="M269.8,111.771 L269.8,111.771"/>
            <path d="M269.902,112.547 L270.202,113.271"/>
            <path d="M270.202,113.271 L270.679,113.892"/>
            <path d="M274.3,109.173 L273.576,108.873"/>
            <path d="M273.576,108.873 L272.8,108.771"/>
            <path d="M272.8,108.771 L272.024,108.873"/>
            <path d="M272.024,108.873 L271.3,109.173"/>
            <path d="M271.3,109.173 L270.679,109.65"/>
            <path d="M275.398,113.271 L275.698,112.547"/>
            <path d="M275.698,112.547 L275.8,111.771"/>
            <path d="M275.698,112.547 L275.698,112.547"/>
            <path d="M275.8,111.771 L275.698,110.994"/>
            <path d="M275.8,111.771 L275.8,111.771"/>
            <path d="M275.698,110.994 L275.398,110.271"/>
            <path d="M275.398,110.271 L274.921,109.65"/>
            <path d="M271.3,114.369 L272.024,114.669"/>
            <path d="M272.024,114.669 L272.8,114.771"/>
            <path d="M272.8,114.771 L273.576,114.669"/>
            <path d="M273.576,114.669 L274.3,114.369"/>
            <path d="M274.3,114.369 L274.921,113.892"/>
            <path d="M271.3,109.173 L270.679,109.65"/>
            <path d="M271.3,109.173 L272.024,108.873"/>
            <path d="M272.024,108.873 L272.8,108.771"/>
            <path d="M272.8,108.771 L273.576,108.873"/>
            <path d="M273.576,108.873 L274.3,109.173"/>
            <path d="M275.398,110.271 L274.921,109.65"/>
            <path d="M275.398,110.271 L275.698,110.994"/>
            <path d="M275.698,110.994 L275.8,111.771"/>
            <path d="M275.8,111.771 L275.698,112.547"/>
            <path d="M275.698,112.547 L275.398,113.271"/>
            <path d="M274.3,114.369 L274.921,113.892"/>
            <path d="M274.3,114.369 L273.576,114.669"/>
            <path d="M273.576,114.669 L272.8,114.771"/>
            <path d="M272.8,114.771 L272.024,114.669"/>
            <path d="M272.024,114.669 L271.3,114.369"/>
            <path d="M270.202,113.271 L270.679,113.892"/>
            <path d="M270.202,113.271 L269.902,112.547"/>
            <path d="M269.902,112.547 L269.8,111.771"/>
            <path d="M269.8,111.771 L269.902,110.994"/>
            <path d="M269.902,110.994 L270.202,110.271"/>
            <path d="M270.679,113.892 L271.3,114.369"/>
            <path d="M270.679,113.892 L271.3,114.369"/>
            <path d="M274.921,113.892 L275.398,113.271"/>
            <path d="M274.921,113.892 L275.398,113.271"/>
            <path d="M274.921,109.65 L274.3,109.173"/>
            <path d="M274.921,109.65 L274.3,109.173"/>
            <path d="M270.679,109.65 L270.202,110.271"/>
            <path d="M270.679,109.65 L270.202,110.271"/>
        </g>
        <g id="product-64d8d399-09f6-4794-bb4c-2537b325743a" class="IfcPile material-gewapendbetonprefab projection" ifc:name="fp_c_d300_ro" ifc:guid="1asDEP2VP7bBjC9JUp9NGw">
            <path d="M284.85,124.507 L284.551,125.23"/>
            <path d="M284.551,125.23 L284.448,126.007"/>
            <path d="M284.551,125.23 L284.551,125.23"/>
            <path d="M284.448,126.007 L284.551,126.783"/>
            <path d="M284.448,126.007 L284.448,126.007"/>
            <path d="M284.551,126.783 L284.85,127.507"/>
            <path d="M284.85,127.507 L285.327,128.128"/>
            <path d="M288.948,123.408 L288.225,123.109"/>
            <path d="M288.225,123.109 L287.448,123.007"/>
            <path d="M287.448,123.007 L286.672,123.109"/>
            <path d="M286.672,123.109 L285.948,123.408"/>
            <path d="M285.948,123.408 L285.327,123.885"/>
            <path d="M290.047,127.507 L290.346,126.783"/>
            <path d="M290.346,126.783 L290.448,126.007"/>
            <path d="M290.346,126.783 L290.346,126.783"/>
            <path d="M290.448,126.007 L290.346,125.23"/>
            <path d="M290.448,126.007 L290.448,126.007"/>
            <path d="M290.346,125.23 L290.047,124.507"/>
            <path d="M290.047,124.507 L289.57,123.885"/>
            <path d="M285.948,128.605 L286.672,128.904"/>
            <path d="M286.672,128.904 L287.448,129.007"/>
            <path d="M287.448,129.007 L288.225,128.904"/>
            <path d="M288.225,128.904 L288.948,128.605"/>
            <path d="M288.948,128.605 L289.57,128.128"/>
            <path d="M285.948,123.408 L285.327,123.885"/>
            <path d="M285.948,123.408 L286.672,123.109"/>
            <path d="M286.672,123.109 L287.448,123.007"/>
            <path d="M287.448,123.007 L288.225,123.109"/>
            <path d="M288.225,123.109 L288.948,123.408"/>
            <path d="M290.047,124.507 L289.57,123.885"/>
            <path d="M290.047,124.507 L290.346,125.23"/>
            <path d="M290.346,125.23 L290.448,126.007"/>
            <path d="M290.448,126.007 L290.346,126.783"/>
            <path d="M290.346,126.783 L290.047,127.507"/>
            <path d="M288.948,128.605 L289.57,128.128"/>
            <path d="M288.948,128.605 L288.225,128.904"/>
            <path d="M288.225,128.904 L287.448,129.007"/>
            <path d="M287.448,129.007 L286.672,128.904"/>
            <path d="M286.672,128.904 L285.948,128.605"/>
            <path d="M284.85,127.507 L285.327,128.128"/>
            <path d="M284.85,127.507 L284.551,126.783"/>
            <path d="M284.551,126.783 L284.448,126.007"/>
            <path d="M284.448,126.007 L284.551,125.23"/>
            <path d="M284.551,125.23 L284.85,124.507"/>
            <path d="M285.327,128.128 L285.948,128.605"/>
            <path d="M285.327,128.128 L285.948,128.605"/>
            <path d="M289.57,128.128 L290.047,127.507"/>
            <path d="M289.57,128.128 L290.047,127.507"/>
            <path d="M289.57,123.885 L288.948,123.408"/>
            <path d="M289.57,123.885 L288.948,123.408"/>
            <path d="M285.327,123.885 L284.85,124.507"/>
            <path d="M285.327,123.885 L284.85,124.507"/>
        </g>
        <g id="product-f2ff6747-dbb4-4044-ad6d-a6c893a03a3d" class="IfcPile material-gewapendbetonprefab projection" ifc:name="fp_c_d300_rb" ifc:guid="3o$sT7sxH0HArjfiYJe3ez">
            <path d="M284.85,110.271 L284.551,110.994"/>
            <path d="M284.551,110.994 L284.448,111.771"/>
            <path d="M284.551,110.994 L284.551,110.994"/>
            <path d="M284.448,111.771 L284.551,112.547"/>
            <path d="M284.448,111.771 L284.448,111.771"/>
            <path d="M284.551,112.547 L284.85,113.271"/>
            <path d="M284.85,113.271 L285.327,113.892"/>
            <path d="M288.948,109.173 L288.225,108.873"/>
            <path d="M288.225,108.873 L287.448,108.771"/>
            <path d="M287.448,108.771 L286.672,108.873"/>
            <path d="M286.672,108.873 L285.948,109.173"/>
            <path d="M285.948,109.173 L285.327,109.65"/>
            <path d="M290.047,113.271 L290.346,112.547"/>
            <path d="M290.346,112.547 L290.448,111.771"/>
            <path d="M290.346,112.547 L290.346,112.547"/>
            <path d="M290.448,111.771 L290.346,110.994"/>
            <path d="M290.448,111.771 L290.448,111.771"/>
            <path d="M290.346,110.994 L290.047,110.271"/>
            <path d="M290.047,110.271 L289.57,109.65"/>
            <path d="M285.948,114.369 L286.672,114.669"/>
            <path d="M286.672,114.669 L287.448,114.771"/>
            <path d="M287.448,114.771 L288.225,114.669"/>
            <path d="M288.225,114.669 L288.948,114.369"/>
            <path d="M288.948,114.369 L289.57,113.892"/>
            <path d="M285.948,109.173 L285.327,109.65"/>
            <path d="M285.948,109.173 L286.672,108.873"/>
            <path d="M286.672,108.873 L287.448,108.771"/>
            <path d="M287.448,108.771 L288.225,108.873"/>
            <path d="M288.225,108.873 L288.948,109.173"/>
            <path d="M290.047,110.271 L289.57,109.65"/>
            <path d="M290.047,110.271 L290.346,110.994"/>
            <path d="M290.346,110.994 L290.448,111.771"/>
            <path d="M290.448,111.771 L290.346,112.547"/>
            <path d="M290.346,112.547 L290.047,113.271"/>
            <path d="M288.948,114.369 L289.57,113.892"/>
            <path d="M288.948,114.369 L288.225,114.669"/>
            <path d="M288.225,114.669 L287.448,114.771"/>
            <path d="M287.448,114.771 L286.672,114.669"/>
            <path d="M286.672,114.669 L285.948,114.369"/>
            <path d="M284.85,113.271 L285.327,113.892"/>
            <path d="M284.85,113.271 L284.551,112.547"/>
            <path d="M284.551,112.547 L284.448,111.771"/>
            <path d="M284.448,111.771 L284.551,110.994"/>
            <path d="M284.551,110.994 L284.85,110.271"/>
            <path d="M285.327,113.892 L285.948,114.369"/>
            <path d="M285.327,113.892 L285.948,114.369"/>
            <path d="M289.57,113.892 L290.047,113.271"/>
            <path d="M289.57,113.892 L290.047,113.271"/>
            <path d="M289.57,109.65 L288.948,109.173"/>
            <path d="M289.57,109.65 L288.948,109.173"/>
            <path d="M285.327,109.65 L284.85,110.271"/>
            <path d="M285.327,109.65 L284.85,110.271"/>
        </g>
        <g id="product-b3077a52-b4d7-4b96-b74c-19dec1d67a61" class="IfcPile material-gewapendbetonprefab projection" ifc:name="fp_c_d300_lo" ifc:guid="2p1tfIjDTBbhTC6Tx1rdfX">
            <path d="M270.202,124.507 L269.902,125.23"/>
            <path d="M269.902,125.23 L269.8,126.007"/>
            <path d="M269.902,125.23 L269.902,125.23"/>
            <path d="M269.8,126.007 L269.902,126.783"/>
            <path d="M269.8,126.007 L269.8,126.007"/>
            <path d="M269.902,126.783 L270.202,127.507"/>
            <path d="M270.202,127.507 L270.679,128.128"/>
            <path d="M274.3,123.408 L273.576,123.109"/>
            <path d="M273.576,123.109 L272.8,123.007"/>
            <path d="M272.8,123.007 L272.024,123.109"/>
            <path d="M272.024,123.109 L271.3,123.408"/>
            <path d="M271.3,123.408 L270.679,123.885"/>
            <path d="M275.398,127.507 L275.698,126.783"/>
            <path d="M275.698,126.783 L275.8,126.007"/>
            <path d="M275.698,126.783 L275.698,126.783"/>
            <path d="M275.8,126.007 L275.698,125.23"/>
            <path d="M275.8,126.007 L275.8,126.007"/>
            <path d="M275.698,125.23 L275.398,124.507"/>
            <path d="M275.398,124.507 L274.921,123.885"/>
            <path d="M271.3,128.605 L272.024,128.904"/>
            <path d="M272.024,128.904 L272.8,129.007"/>
            <path d="M272.8,129.007 L273.576,128.904"/>
            <path d="M273.576,128.904 L274.3,128.605"/>
            <path d="M274.3,128.605 L274.921,128.128"/>
            <path d="M271.3,123.408 L270.679,123.885"/>
            <path d="M271.3,123.408 L272.024,123.109"/>
            <path d="M272.024,123.109 L272.8,123.007"/>
            <path d="M272.8,123.007 L273.576,123.109"/>
            <path d="M273.576,123.109 L274.3,123.408"/>
            <path d="M275.398,124.507 L274.921,123.885"/>
            <path d="M275.398,124.507 L275.698,125.23"/>
            <path d="M275.698,125.23 L275.8,126.007"/>
            <path d="M275.8,126.007 L275.698,126.783"/>
            <path d="M275.698,126.783 L275.398,127.507"/>
            <path d="M274.3,128.605 L274.921,128.128"/>
            <path d="M274.3,128.605 L273.576,128.904"/>
            <path d="M273.576,128.904 L272.8,129.007"/>
            <path d="M272.8,129.007 L272.024,128.904"/>
            <path d="M272.024,128.904 L271.3,128.605"/>
            <path d="M270.202,127.507 L270.679,128.128"/>
            <path d="M270.202,127.507 L269.902,126.783"/>
            <path d="M269.902,126.783 L269.8,126.007"/>
            <path d="M269.8,126.007 L269.902,125.23"/>
            <path d="M269.902,125.23 L270.202,124.507"/>
            <path d="M270.679,128.128 L271.3,128.605"/>
            <path d="M270.679,128.128 L271.3,128.605"/>
            <path d="M274.921,128.128 L275.398,127.507"/>
            <path d="M274.921,128.128 L275.398,127.507"/>
            <path d="M274.921,123.885 L274.3,123.408"/>
            <path d="M274.921,123.885 L274.3,123.408"/>
            <path d="M270.679,123.885 L270.202,124.507"/>
            <path d="M270.679,123.885 L270.202,124.507"/>
        </g>
    <g ifc:guid="0OpDvbCjr3yu_lagqAw$Wi" ifc:name="fp_c_d300_lb" class="IfcPile material-gewapendbetonprefab cut"><path d="M270.0520992279052,110.63267707824707 L269.9022483825683,110.99445343017578 L269.8511373996734,111.38267517089844 L269.8000264167785,111.77090644836426 L269.8511373996734,112.15913772583008 L269.9022483825683,112.54735946655273 L270.0520992279052,112.90913581848145 L270.20195007324213,113.27090263366699 L270.44032812118525,113.58156204223633 L270.67870616912836,113.89223098754883 L270.9893655776977,114.13060188293457 L271.30002498626703,114.36898231506348 L271.66179656982416,114.51883316040039 L272.0235681533813,114.6686840057373 L272.4117970466613,114.71979141235352 L272.80002593994135,114.77090835571289 L273.1882548332214,114.71979141235352 L273.5764837265014,114.6686840057373 L273.93825531005854,114.51883316040039 L274.3000245094299,114.36898231506348 L274.610686302185,114.13060188293457 L274.92134571075434,113.89223098754883 L275.15972375869745,113.58156204223633 L275.39810180664057,113.27090263366699 L275.5479526519775,112.90913581848145 L275.6978034973144,112.54735946655273 L275.7489132881164,112.15913772583008 L275.8000254631042,111.77090644836426 L275.7489132881164,111.38267517089844 L275.6978034973144,110.99445343017578 L275.5479526519775,110.63267707824707 L275.39810180664057,110.27091026306152 L275.15972375869745,109.96025085449219 L274.92134571075434,109.64958190917969 L274.610686302185,109.41121101379395 L274.30002689361567,109.17283058166504 L273.93825531005854,109.02297973632812 L273.5764837265014,108.87312889099121 L273.1882548332214,108.822021484375 L272.80002593994135,108.77090454101562 L272.4117970466613,108.822021484375 L272.0235681533813,108.87312889099121 L271.66179656982416,109.02297973632812 L271.3000273704528,109.17283058166504 L270.9893655776977,109.41121101379395 L270.67870616912836,109.64958190917969 L270.44032812118525,109.96025085449219 L270.20195007324213,110.27091026306152 Z"/></g><g ifc:guid="1asDEP2VP7bBjC9JUp9NGw" ifc:name="fp_c_d300_ro" class="IfcPile material-gewapendbetonprefab cut"><path d="M284.7005152702331,124.8682975769043 L284.5506644248962,125.23007392883301 L284.4995522499084,125.61829566955566 L284.4484424591064,126.00652694702148 L284.4995522499084,126.3947582244873 L284.5506644248962,126.78297996520996 L284.7005152702331,127.14475631713867 L284.8503637313842,127.50652313232422 L285.08874177932734,127.81718254089355 L285.32711982727045,128.12785148620605 L285.6377792358398,128.3662223815918 L285.9484386444091,128.6046028137207 L286.31021022796625,128.75445365905762 L286.6719818115234,128.90430450439453 L287.0602107048034,128.95541191101074 L287.44843959808344,129.00652885437012 L287.83666849136347,128.95541191101074 L288.2248973846435,128.90430450439453 L288.5866689682006,128.75445365905762 L288.94844055175776,128.6046028137207 L289.2590999603271,128.3662223815918 L289.5697593688964,128.12785148620605 L289.80813741683954,127.81719207763672 L290.04651546478266,127.50652313232422 L290.1963663101196,127.14475631713867 L290.3462171554565,126.78297996520996 L290.3973293304443,126.3947582244873 L290.4484415054321,126.00652694702148 L290.3973293304443,125.61829566955566 L290.3462171554565,125.23007392883301 L290.1963663101196,124.8682975769043 L290.04651546478266,124.50653076171875 L289.80813980102533,124.19587135314941 L289.5697617530822,123.88520240783691 L289.2591023445129,123.64683151245117 L288.94844293594355,123.40845108032227 L288.5866713523864,123.25860023498535 L288.2248997688293,123.10874938964844 L287.83667087554926,123.05764198303223 L287.44844198226923,123.00652503967285 L287.0602130889892,123.05764198303223 L286.6719841957092,123.10874938964844 L286.31021261215204,123.25860023498535 L285.9484410285949,123.40845108032227 L285.6377816200256,123.64683151245117 L285.32712221145624,123.88520240783691 L285.0887441635131,124.19586181640625 L284.85036611557,124.50653076171875 Z"/></g><g ifc:guid="3o$sT7sxH0HArjfiYJe3ez" ifc:name="fp_c_d300_rb" class="IfcPile material-gewapendbetonprefab cut"><path d="M284.7005152702331,110.63267707824707 L284.5506644248962,110.99445343017578 L284.4995522499084,111.38267517089844 L284.4484424591064,111.77090644836426 L284.4995522499084,112.15913772583008 L284.5506644248962,112.54735946655273 L284.7005152702331,112.90913581848145 L284.85036611557,113.27090263366699 L285.0887441635131,113.58156204223633 L285.32712221145624,113.89223098754883 L285.6377816200256,114.13060188293457 L285.9484410285949,114.36898231506348 L286.31021261215204,114.51883316040039 L286.6719841957092,114.6686840057373 L287.0602130889892,114.71979141235352 L287.44844198226923,114.77090835571289 L287.83667087554926,114.71979141235352 L288.2248997688293,114.6686840057373 L288.5866713523864,114.51883316040039 L288.94844293594355,114.36898231506348 L289.2591023445129,114.13060188293457 L289.5697617530822,113.89223098754883 L289.80813980102533,113.58156204223633 L290.04652023315424,113.27090263366699 L290.19637107849115,112.90913581848145 L290.34622192382807,112.54735946655273 L290.39733409881586,112.15913772583008 L290.44844627380365,111.77090644836426 L290.39733409881586,111.38267517089844 L290.34622192382807,110.99445343017578 L290.19637107849115,110.63267707824707 L290.04652023315424,110.27091026306152 L289.80813980102533,109.96025085449219 L289.5697617530822,109.64958190917969 L289.2591023445129,109.41121101379395 L288.94844293594355,109.17283058166504 L288.5866713523864,109.02297973632812 L288.2248997688293,108.87312889099121 L287.83667087554926,108.822021484375 L287.44844198226923,108.77090454101562 L287.0602130889892,108.822021484375 L286.6719841957092,108.87312889099121 L286.31021261215204,109.02297973632812 L285.9484410285949,109.17283058166504 L285.6377816200256,109.41121101379395 L285.32712221145624,109.64958190917969 L285.0887441635131,109.96025085449219 L284.85036611557,110.27091026306152 Z"/></g><g ifc:guid="2p1tfIjDTBbhTC6Tx1rdfX" ifc:name="fp_c_d300_lo" class="IfcPile material-gewapendbetonprefab cut"><path d="M270.0520992279052,124.8682975769043 L269.9022471904754,125.23007392883301 L269.8511362075805,125.61829566955566 L269.8000252246856,126.00652694702148 L269.8511362075805,126.3947582244873 L269.9022471904754,126.78297996520996 L270.0520992279052,127.14475631713867 L270.20194768905634,127.50652313232422 L270.44032573699945,127.81718254089355 L270.67870378494257,128.12785148620605 L270.9893631935119,128.3662223815918 L271.30002260208124,128.6046028137207 L271.66179418563837,128.75445365905762 L272.0235657691955,128.90430450439453 L272.41179466247553,128.95541191101074 L272.80002355575556,129.00652885437012 L273.1882524490356,128.95541191101074 L273.5764813423156,128.90430450439453 L273.93825292587275,128.75445365905762 L274.3000221252441,128.6046028137207 L274.6106839179992,128.3662223815918 L274.92134332656855,128.12785148620605 L275.15972137451166,127.81719207763672 L275.3980994224548,127.50652313232422 L275.5479526519775,127.14475631713867 L275.6978034973144,126.78297996520996 L275.7489132881164,126.3947582244873 L275.8000254631042,126.00652694702148 L275.7489132881164,125.61829566955566 L275.6978034973144,125.23007392883301 L275.5479526519775,124.8682975769043 L275.39810180664057,124.50653076171875 L275.15972375869745,124.19587135314941 L274.92134571075434,123.88520240783691 L274.610686302185,123.64683151245117 L274.30002689361567,123.40845108032227 L273.93825531005854,123.25860023498535 L273.5764837265014,123.10874938964844 L273.1882548332214,123.05764198303223 L272.80002593994135,123.00652503967285 L272.4117970466613,123.05764198303223 L272.0235681533813,123.10874938964844 L271.66179656982416,123.25860023498535 L271.3000273704528,123.40845108032227 L270.9893655776977,123.64683151245117 L270.67870616912836,123.88520240783691 L270.44032812118525,124.19586181640625 L270.20195007324213,124.50653076171875 Z"/></g></g>
</svg>