<svg xmlns="http://www.w3.org/2000/svg" xmlns:xlink="http://www.w3.org/1999/xlink" xmlns:ifc="http://www.ifcopenshell.org/ns" width="300mm" height="300mm" viewBox="0 0 300 300">
    <defs>
        <marker id="arrowend" markerWidth="10" markerHeight="7" refX="10" refY="3.5" orient="auto">
          <polygon points="0 0, 10 3.5, 0 7"/>
        </marker>
        <marker id="arrowstart" markerWidth="10" markerHeight="7" refX="0" refY="3.5" orient="auto">
          <polygon points="10 0, 0 3.5, 10 7"/>
        </marker>
    </defs>
    <g ifc:name="Elevation MY STOREY PLAN" class="section" ifc:plane="[[1.000000,0.000000,0.000000,0.000000],[0.000000,1.000000,0.000000,0.000000],[0.000000,0.000000,1.000000,0.000000],[0.000000,0.000000,0.000000,1.000000]]" ifc:matrix3="[[10.000000,0.000000,60.000009],[0.000000,10.000000,240.000005],[0.000000,0.000000,1.000000]]">
        <g id="product-3c744250-ce71-476c-ad22-c6cd3d5d9421" class="IfcBeam material-NLRS28SRbalkbetonBB350x600 projection" ifc:name="NLRS_28_SR_balk_beton BB 350x600" ifc:guid="0yT49Gpd57RAqYniqzNPGX">
            <path d="M216,154.85 L216,154.85"/>
            <path d="M168,154.85 L168,154.85"/>
        </g>
        <g id="product-f57310ce-cb6b-40ac-87b3-a12ee9a6429c" class="IfcBeam material-NLRS28SRbalkbetonBB400x600 projection" ifc:name="NLRS_28_SR_balk_beton BB 400x600" ifc:guid="3rSn3Eosj0h8UpeIxffaAS">
            <path d="M213.95,77.1 L213.95,56.6"/>
            <path d="M209.95,113.1 L209.95,113.1"/>
            <path d="M209.95,89.1 L209.95,89.1"/>
            <path d="M209.95,65.1 L209.95,65.1"/>
        </g>
        <g id="product-2b07debf-a1ca-4ad0-a545-2c02271223ba" class="IfcBeam material-NLRS28SRbalkbetonBB400x600 projection" ifc:name="NLRS_28_SR_balk_beton BB 400x600" ifc:guid="0h1zw$eSfAqAL5B08d4YEw">
            <path d="M255.95,78.1 L255.95,78.1"/>
            <path d="M253.95,211 L255.95,211"/>
            <path d="M255.95,211 L255.95,78.1"/>
            <path d="M251.95,192.5 L251.95,192.5"/>
            <path d="M251.95,168.5 L251.95,168.5"/>
            <path d="M251.95,125.1 L251.95,125.1"/>
        </g>
        <g id="product-cba427ec-d9de-49ef-8476-25ef3cc75f68" class="IfcBeam material-NLRS28SRbalkbetonBB350x600 projection" ifc:name="NLRS_28_SR_balk_beton BB 350x600" ifc:guid="3Bf2VisTv9xuHs9Uyynrze">
            <path d="M58.25,56.6 L60,56.6"/>
            <path d="M58.25,225 L60,225"/>
            <path d="M61.75,125.1 L61.75,125.1"/>
            <path d="M61.75,113.1 L61.75,113.1"/>
            <path d="M61.75,89.1 L61.75,89.1"/>
            <path d="M61.75,65.1 L61.75,65.1"/>
            <path d="M58.25,225 L58.25,56.6"/>
        </g>
        <g id="product-5140bb03-13a2-4137-9f28-b868fcae8c6e" class="IfcBeam material-NLRS28SRbalkbetonBB350x600 projection" ifc:name="NLRS_28_SR_balk_beton BB 350x600.004" ifc:guid="1HGBi34w91Dvyek6Zyhenk">
            <path d="M219.95,53.1 L219.95,56.6"/>
            <path d="M58.25,53.1 L58.25,56.6"/>
            <path d="M211.7,56.6 L219.95,56.6"/>
            <path d="M58.25,53.1 L180.704,53.1"/>
            <path d="M211.7,53.1 L219.95,53.1"/>
        </g>
        <g id="product-92f5e771-30ea-4a44-89b7-fb62421b99e0" class="IfcBeam material-NLRS28SRbalkbetonBB350x600 projection" ifc:name="NLRS_28_SR_balk_beton BB 350x600" ifc:guid="2IzUTnCEfAH8ct_s926vdW">
            <path d="M58.25,228.5 L58.25,225"/>
            <path d="M106.7,228.5 L106.7,228.5"/>
            <path d="M60,225 L58.25,225"/>
            <path d="M106.7,228.5 L80.0904,228.5"/>
            <path d="M60,228.5 L58.25,228.5"/>
        </g>
        <g id="product-80582c59-68ca-48a7-b677-dfd664d7ffea" class="IfcBeam material-NLRS28SRbalkbetonBB400x600 projection" ifc:name="NLRS_28_SR_balk_beton BB 400x600" ifc:guid="20M2nPQCf8fxPttzPar$$g">
            <path d="M250.287,224.304 L246.908,222.904"/>
            <path d="M249.19,216.5 L246.908,222.009"/>
            <path d="M255.798,211 L253.95,215.461"/>
            <path d="M253.52,216.5 L250.287,224.304"/>
        </g>
        <g id="product-82a92080-daf8-4e69-a670-fcc25f4586ea" class="IfcBeam material-NLRS28SRbalkbetonBB400x600 projection" ifc:name="NLRS_28_SR_balk_beton BB 400x600" ifc:guid="22gI20slXEQQPm$C9VHORg">
            <path d="M246.908,222.252 L249.971,224.825"/>
            <path d="M237.707,233.203 L240.77,235.776"/>
            <path d="M240.77,235.776 L246.883,228.5"/>
            <path d="M246.908,228.47 L249.971,224.825"/>
            <path d="M237.707,233.203 L241.658,228.5"/>
        </g>
        <g id="product-751b7abc-52c4-4c10-9131-fd81a7822f04" class="IfcBeam material-NLRS28SRbalkbetonBB400x600 projection" ifc:name="NLRS_28_SR_balk_beton BB 400x600" ifc:guid="1r6tgyKiHC494n$O6dWYy4">
            <path d="M184.45,216.5 L184.45,216.5"/>
            <path d="M184.45,192.5 L184.45,192.5"/>
            <path d="M184.45,168.5 L184.45,168.5"/>
            <path d="M180.45,204.5 L180.45,204.5"/>
            <path d="M180.45,168.5 L180.45,168.5"/>
        </g>
        <g id="product-aac47ea4-6dab-48c9-923a-fb100f9e8333" class="IfcBeam material-NLRS28SRbalkbetonBB400x600 projection" ifc:name="NLRS_28_SR_balk_beton BB 400x600" ifc:guid="2gn7waRQj8oP8w_n0FdeCp">
            <path d="M238.473,232.642 L240.004,236.337"/>
            <path d="M226.7,241.848 L226.7,241.848"/>
            <path d="M226.7,241.848 L229.954,240.5"/>
            <path d="M232.587,239.409 L240.004,236.337"/>
            <path d="M232.587,235.08 L238.473,232.642"/>
        </g>
        <g id="product-3043ad9b-4168-47f5-914c-e908d4ff7526" class="IfcBeam material-NLRS28SRbalkbetonBB350x600 projection" ifc:name="NLRS_28_SR_balk_beton BB 350x600" ifc:guid="0mGwsRGMX7zP5CwGZK$tKc">
            <path d="M137.6,113.1 L137.6,113.1"/>
            <path d="M137.6,89.1 L137.6,89.1"/>
            <path d="M137.6,65.1 L137.6,65.1"/>
        </g>
        <g id="product-566c41c1-df3d-43d8-9992-cb24a6fe95a2" class="IfcBeam material-NLRS28SRbalkbetonBB400x600 projection" ifc:name="NLRS_28_SR_balk_beton BB 400x600" ifc:guid="1MR471tpr3s9cIooIc$fMY">
            <path d="M226.7,240.5 L226.7,242"/>
            <path d="M106.7,238 L106.7,242"/>
            <path d="M106.7,242 L226.7,242"/>
        </g>
        <g id="product-df7f9f97-d008-4758-9807-e98761dc362d" class="IfcBeam material-NLRS28SRbalkbetonBB400x600 projection" ifc:name="NLRS_28_SR_balk_beton BB 400x600" ifc:guid="3VVv_Nq0X7M9W7wOTXt3Oj">
            <path d="M108.7,158.35 L108.7,158.35"/>
            <path d="M106.7,238 L108.7,238"/>
            <path d="M110.7,204.5 L110.7,204.5"/>
            <path d="M110.7,168.5 L110.7,168.5"/>
            <path d="M106.7,238 L106.7,228.5"/>
            <path d="M106.7,216.5 L106.7,216.5"/>
            <path d="M106.7,192.5 L106.7,192.5"/>
            <path d="M106.7,168.5 L106.7,168.5"/>
        </g>
        <g id="product-93e6bb33-9e91-4ed5-9c93-893812734bd4" class="IfcSlab material-null projection" ifc:name="TYPEX" ifc:guid="2Jvhipdf5ErPoJYJWISqlK">
            <path d="M60,76.95 L60,77.1"/>
            <path d="M60,76.7745 L60,76.95"/>
            <path d="M135.85,65.4255 L135.85,65.4255"/>
            <path d="M60,65.4255 L60,76.7745"/>
            <path d="M135.85,65.25 L135.85,65.4255"/>
            <path d="M60,65.25 L60,65.4255"/>
            <path d="M60,65.4255 L135.85,65.4255"/>
            <path d="M135.85,65.1 L135.85,65.1"/>
            <path d="M60,65.1 L60,65.25"/>
            <path d="M60,65.1 L135.85,65.1"/>
        </g>
        <g id="product-96a5157e-501b-4f7b-8eab-31ff12f85c40" class="IfcSlab material-null projection" ifc:name="TYPEX" ifc:guid="2MfHL_K1jFUuwhCVyI_5n0">
            <path d="M60,100.95 L60,101.1"/>
            <path d="M60,100.775 L60,100.95"/>
            <path d="M135.85,89.4255 L135.85,89.4255"/>
            <path d="M60,89.4255 L60,100.775"/>
            <path d="M135.85,89.25 L135.85,89.4255"/>
            <path d="M60,89.25 L60,89.4255"/>
            <path d="M60,89.4255 L135.85,89.4255"/>
            <path d="M135.85,89.1 L135.85,89.1"/>
            <path d="M60,89.1 L60,89.25"/>
            <path d="M60,89.1 L135.85,89.1"/>
        </g>
        <g id="product-3beb4beb-61fa-4030-89d2-df5ee9164282" class="IfcSlab material-null projection" ifc:name="TYPEX" ifc:guid="0xwqlhOVf0C8dItrxf5aA2">
            <path d="M191.85,125.1 L192,125.1"/>
            <path d="M192,156.5 L192,125.1"/>
            <path d="M191.675,125.1 L191.85,125.1"/>
            <path d="M191.675,156.5 L191.85,156.5"/>
            <path d="M191.85,156.5 L191.85,125.1"/>
            <path d="M180.326,125.1 L191.675,125.1"/>
            <path d="M180.326,156.5 L191.675,156.5"/>
            <path d="M191.675,156.5 L191.675,125.1"/>
            <path d="M180.15,125.1 L180.326,125.1"/>
            <path d="M180.15,156.5 L180.326,156.5"/>
            <path d="M180.326,156.5 L180.326,125.1"/>
            <path d="M180,125.1 L180.15,125.1"/>
            <path d="M180.15,156.5 L180.15,125.1"/>
            <path d="M180,156.5 L180,125.1"/>
        </g>
        <g id="product-c1887a0e-227c-4b9e-b66c-11a39c56869c" class="IfcSlab material-null projection" ifc:name="TYPEX" ifc:guid="31Y7eE8dnBdhPi4QESLeQS">
            <path d="M255.95,100.95 L255.95,101.1"/>
            <path d="M211.7,100.95 L211.7,101.1"/>
            <path d="M211.7,101.1 L255.95,101.1"/>
            <path d="M255.95,100.775 L255.95,100.95"/>
            <path d="M211.7,100.775 L211.7,100.95"/>
            <path d="M211.7,100.95 L255.95,100.95"/>
            <path d="M255.95,89.4255 L255.95,100.775"/>
            <path d="M211.7,89.4255 L211.7,100.775"/>
            <path d="M211.7,100.775 L255.95,100.775"/>
            <path d="M255.95,89.25 L255.95,89.4255"/>
            <path d="M211.7,89.4255 L211.7,89.4255"/>
            <path d="M211.7,89.4255 L211.7,89.4255"/>
            <path d="M211.7,89.4255 L255.95,89.4255"/>
            <path d="M255.95,89.1 L255.95,89.25"/>
            <path d="M211.7,89.1 L211.7,89.25"/>
            <path d="M211.7,89.25 L255.95,89.25"/>
            <path d="M211.7,89.1 L255.95,89.1"/>
        </g>
        <g id="product-048cf164-6504-45e2-a269-c9010a115574" class="IfcSlab material-null projection" ifc:name="TYPEX" ifc:guid="04ZF5aPGH5ug9foG4A4LLq">
            <path d="M239.85,125.1 L240,125.1"/>
            <path d="M240,156.5 L240,125.1"/>
            <path d="M239.675,125.1 L239.85,125.1"/>
            <path d="M239.675,156.5 L239.85,156.5"/>
            <path d="M239.85,156.5 L239.85,125.1"/>
            <path d="M228.326,125.1 L239.675,125.1"/>
            <path d="M228.326,156.5 L239.675,156.5"/>
            <path d="M239.675,156.5 L239.675,125.1"/>
            <path d="M228.15,125.1 L228.326,125.1"/>
            <path d="M228.15,156.5 L228.326,156.5"/>
            <path d="M228.326,156.5 L228.326,125.1"/>
            <path d="M228,125.1 L228.15,125.1"/>
            <path d="M228.15,156.5 L228.15,125.1"/>
            <path d="M228,156.5 L228,125.1"/>
        </g>
        <g id="product-d49bbd45-8f94-4684-ab1c-56736433cdce" class="IfcSlab material-null projection" ifc:name="TYPEX" ifc:guid="3Kcxr5ZvH6XAiSLdDaCytE">
            <path d="M135.85,89.1 L211.7,89.1"/>
            <path d="M135.85,88.95 L211.7,88.95"/>
            <path d="M211.7,77.4255 L211.7,77.4255"/>
            <path d="M135.85,77.4255 L135.85,77.4255"/>
            <path d="M135.85,88.7745 L211.7,88.7745"/>
            <path d="M211.7,77.25 L211.7,77.4255"/>
            <path d="M135.85,77.4255 L135.85,77.4255"/>
            <path d="M135.85,77.4255 L211.7,77.4255"/>
            <path d="M211.7,77.1 L211.7,77.1"/>
            <path d="M135.85,77.25 L211.7,77.25"/>
            <path d="M135.85,77.1 L211.7,77.1"/>
        </g>
        <g id="product-46da8560-0257-47f7-9ed5-dfb9412b85a7" class="IfcSlab material-null projection" ifc:name="TYPEX" ifc:guid="16seLW0bT7zvxLtxb1AuMd">
            <path d="M60,64.95 L60,65.1"/>
            <path d="M60,64.7745 L60,64.95"/>
            <path d="M135.85,53.4255 L135.85,53.4255"/>
            <path d="M60,53.4255 L60,64.7745"/>
            <path d="M135.85,53.25 L135.85,53.4255"/>
            <path d="M60,53.25 L60,53.4255"/>
            <path d="M60,53.4255 L135.85,53.4255"/>
            <path d="M135.85,53.1 L135.85,53.1"/>
            <path d="M60,53.1 L60,53.25"/>
            <path d="M60,53.1 L135.85,53.1"/>
        </g>
        <g id="product-024414fd-ba05-4af1-b709-2b015793faaa" class="IfcSlab material-null projection" ifc:name="TYPEX" ifc:guid="02H1JzkWLAyRS9Am5Na$gg">
            <path d="M179.85,125.1 L180,125.1"/>
            <path d="M180,156.5 L180,125.1"/>
            <path d="M179.675,125.1 L179.85,125.1"/>
            <path d="M179.675,156.5 L179.85,156.5"/>
            <path d="M179.85,156.5 L179.85,125.1"/>
            <path d="M168.326,125.1 L179.675,125.1"/>
            <path d="M168.326,156.5 L179.675,156.5"/>
            <path d="M179.675,156.5 L179.675,125.1"/>
            <path d="M168.15,125.1 L168.326,125.1"/>
            <path d="M168.15,156.5 L168.326,156.5"/>
            <path d="M168.326,156.5 L168.326,125.1"/>
            <path d="M168,125.1 L168.15,125.1"/>
            <path d="M168.15,156.5 L168.15,125.1"/>
            <path d="M168,156.5 L168,125.1"/>
        </g>
        <g id="product-88b90442-58a5-4be4-9f4a-219378cc4d4c" class="IfcSlab material-null projection" ifc:name="TYPEX" ifc:guid="28kGH2MALBv9zA8PDup4rC">
            <path d="M96,156.5 L96,125.1"/>
            <path d="M95.6745,125.1 L95.85,125.1"/>
            <path d="M95.6745,156.5 L95.85,156.5"/>
            <path d="M95.85,156.5 L95.85,125.1"/>
            <path d="M84.3255,125.1 L95.6745,125.1"/>
            <path d="M84.3255,156.5 L95.6745,156.5"/>
            <path d="M95.6745,156.5 L95.6745,125.1"/>
            <path d="M84.15,125.1 L84.3255,125.1"/>
            <path d="M84.15,156.5 L84.3255,156.5"/>
            <path d="M84.3255,156.5 L84.3255,125.1"/>
            <path d="M84,125.1 L84.15,125.1"/>
            <path d="M84.15,156.5 L84.15,125.1"/>
            <path d="M84,156.5 L84,125.1"/>
        </g>
        <g id="product-9e79dcc2-c1e6-4f23-ae6e-6dc680ea9451" class="IfcSlab material-null projection" ifc:name="TYPEX" ifc:guid="2UUTp2mUPF8wvkRSQ0wfHH">
            <path d="M60,124.95 L60,125.1"/>
            <path d="M60,124.775 L60,124.95"/>
            <path d="M135.85,113.426 L135.85,113.426"/>
            <path d="M60,113.426 L60,124.775"/>
            <path d="M135.85,113.25 L135.85,113.426"/>
            <path d="M60,113.25 L60,113.426"/>
            <path d="M60,113.426 L135.85,113.426"/>
            <path d="M135.85,113.1 L135.85,113.1"/>
            <path d="M60,113.1 L60,113.25"/>
            <path d="M60,113.1 L135.85,113.1"/>
        </g>
        <g id="product-c3a605d5-bb5d-4db1-be63-40edfba308b0" class="IfcSlab material-null projection" ifc:name="TYPEX" ifc:guid="33fWNLkrrDiRvZGEtxemYm">
            <path d="M120,156.5 L120,125.1"/>
            <path d="M119.675,125.1 L119.85,125.1"/>
            <path d="M119.675,156.5 L119.85,156.5"/>
            <path d="M119.85,156.5 L119.85,125.1"/>
            <path d="M108.326,125.1 L119.675,125.1"/>
            <path d="M108.326,156.5 L119.675,156.5"/>
            <path d="M119.675,156.5 L119.675,125.1"/>
            <path d="M108.15,125.1 L108.326,125.1"/>
            <path d="M108.15,156.5 L108.326,156.5"/>
            <path d="M108.326,156.5 L108.326,125.1"/>
            <path d="M108,125.1 L108.15,125.1"/>
            <path d="M108.15,156.5 L108.15,125.1"/>
            <path d="M108,156.5 L108,125.1"/>
        </g>
        <g id="product-299df820-1a47-449d-b531-162d477ecb86" class="IfcSlab material-null projection" ifc:name="TYPEX" ifc:guid="0fdVWW6aT4dRKn5Yr7Vik6">
            <path d="M108,156.5 L108,125.1"/>
            <path d="M107.675,125.1 L107.85,125.1"/>
            <path d="M107.675,156.5 L107.85,156.5"/>
            <path d="M107.85,156.5 L107.85,125.1"/>
            <path d="M96.3255,125.1 L107.675,125.1"/>
            <path d="M96.3255,156.5 L107.675,156.5"/>
            <path d="M107.675,156.5 L107.675,125.1"/>
            <path d="M96.15,125.1 L96.3255,125.1"/>
            <path d="M96.15,156.5 L96.3255,156.5"/>
            <path d="M96.3255,156.5 L96.3255,125.1"/>
            <path d="M96,125.1 L96.15,125.1"/>
            <path d="M96.15,156.5 L96.15,125.1"/>
            <path d="M96,156.5 L96,125.1"/>
        </g>
        <g id="product-836f8315-871e-43f9-a58d-60fb0f4cdeb8" class="IfcSlab material-null projection" ifc:name="TYPEX" ifc:guid="23RuCLXnv3_QMDOFiFJDwu">
            <path d="M132,156.5 L132,125.1"/>
            <path d="M131.675,125.1 L131.85,125.1"/>
            <path d="M131.675,156.5 L131.85,156.5"/>
            <path d="M131.85,156.5 L131.85,125.1"/>
            <path d="M120.326,125.1 L131.675,125.1"/>
            <path d="M120.326,156.5 L131.675,156.5"/>
            <path d="M131.675,156.5 L131.675,125.1"/>
            <path d="M120.15,125.1 L120.326,125.1"/>
            <path d="M120.15,156.5 L120.326,156.5"/>
            <path d="M120.326,156.5 L120.326,125.1"/>
            <path d="M120.15,156.5 L120.15,125.1"/>
            <path d="M120,156.5 L120,125.1"/>
        </g>
        <g id="product-ef924f23-0cc1-4b59-a82f-5092652dda71" class="IfcSlab material-null projection" ifc:name="TYPEX" ifc:guid="3laayZ3C5BMQWlK99bBTfn">
            <path d="M135.85,125.1 L211.7,125.1"/>
            <path d="M135.85,124.95 L211.7,124.95"/>
            <path d="M211.7,113.426 L211.7,113.426"/>
            <path d="M135.85,113.426 L135.85,113.426"/>
            <path d="M135.85,124.775 L211.7,124.775"/>
            <path d="M211.7,113.25 L211.7,113.426"/>
            <path d="M135.85,113.426 L135.85,113.426"/>
            <path d="M135.85,113.426 L211.7,113.426"/>
            <path d="M135.85,113.1 L135.85,113.1"/>
            <path d="M135.85,113.25 L211.7,113.25"/>
            <path d="M135.85,113.1 L211.7,113.1"/>
        </g>
        <g id="product-0a26cc50-0428-47d6-bb53-527b0d00fada" class="IfcSlab material-null projection" ifc:name="TYPEX" ifc:guid="0A9inG12X7rhjJKdiD0FhQ">
            <path d="M251.85,125.1 L252,125.1"/>
            <path d="M252,156.5 L252,125.1"/>
            <path d="M251.674,125.1 L251.85,125.1"/>
            <path d="M251.675,156.5 L251.85,156.5"/>
            <path d="M251.85,156.5 L251.85,125.1"/>
            <path d="M240.325,125.1 L251.674,125.1"/>
            <path d="M240.326,156.5 L251.675,156.5"/>
            <path d="M251.675,156.5 L251.674,125.1"/>
            <path d="M240.15,125.1 L240.325,125.1"/>
            <path d="M240.15,156.5 L240.326,156.5"/>
            <path d="M240.326,156.5 L240.325,125.1"/>
            <path d="M240,125.1 L240.15,125.1"/>
            <path d="M240.15,156.5 L240.15,125.1"/>
            <path d="M240,156.5 L240,125.1"/>
        </g>
        <g id="product-2e36ba58-57f7-405a-aad1-1a1099acb691" class="IfcSlab material-null projection" ifc:name="TYPEX" ifc:guid="0kDhfOL$T0MghH6X2PhBQH">
            <path d="M135.85,113.1 L211.7,113.1"/>
            <path d="M135.85,112.95 L211.7,112.95"/>
            <path d="M211.7,101.425 L211.7,101.426"/>
            <path d="M135.85,101.425 L135.85,101.426"/>
            <path d="M135.85,112.774 L211.7,112.774"/>
            <path d="M211.7,101.25 L211.7,101.425"/>
            <path d="M135.85,101.425 L135.85,101.425"/>
            <path d="M135.85,101.425 L211.7,101.425"/>
            <path d="M135.85,101.25 L211.7,101.25"/>
            <path d="M135.85,101.1 L211.7,101.1"/>
        </g>
        <g id="product-b2b582f6-837f-41f9-880c-724f0d125458" class="IfcSlab material-null projection" ifc:name="TYPEX" ifc:guid="2ojOBsWtz1_OWCSayD4bHO">
            <path d="M84,156.5 L84,125.1"/>
            <path d="M83.6745,125.1 L83.85,125.1"/>
            <path d="M83.6745,156.5 L83.85,156.5"/>
            <path d="M83.85,156.5 L83.85,125.1"/>
            <path d="M72.3255,125.1 L83.6745,125.1"/>
            <path d="M72.3255,156.5 L83.6745,156.5"/>
            <path d="M83.6745,156.5 L83.6745,125.1"/>
            <path d="M72.15,125.1 L72.3255,125.1"/>
            <path d="M72.15,156.5 L72.3255,156.5"/>
            <path d="M72.3255,156.5 L72.3255,125.1"/>
            <path d="M72,125.1 L72.15,125.1"/>
            <path d="M72.15,156.5 L72.15,125.1"/>
            <path d="M72,156.5 L72,125.1"/>
        </g>
        <g id="product-df7c681d-ddc8-4610-a72d-758be69d1ba1" class="IfcSlab material-null projection" ifc:name="TYPEX" ifc:guid="3VV6WTtSX64ASjTOlcdHkX">
            <path d="M227.85,125.1 L228,125.1"/>
            <path d="M228,156.5 L228,125.1"/>
            <path d="M227.675,125.1 L227.85,125.1"/>
            <path d="M227.675,156.5 L227.85,156.5"/>
            <path d="M227.85,156.5 L227.85,125.1"/>
            <path d="M216.326,125.1 L227.675,125.1"/>
            <path d="M216.326,156.5 L227.675,156.5"/>
            <path d="M227.675,156.5 L227.675,125.1"/>
            <path d="M216.15,125.1 L216.326,125.1"/>
            <path d="M216.15,156.5 L216.326,156.5"/>
            <path d="M216.326,156.5 L216.326,125.1"/>
            <path d="M216,125.1 L216.15,125.1"/>
            <path d="M216.15,156.5 L216.15,125.1"/>
            <path d="M216,156.5 L216,125.1"/>
        </g>
        <g id="product-9c6f4c52-cbd1-44c5-a3af-43b00fbf5cc9" class="IfcSlab material-null projection" ifc:name="TYPEX" ifc:guid="2SRqnIoz54nQElGx0Flrp9">
            <path d="M255.95,124.95 L255.95,125.1"/>
            <path d="M211.7,124.95 L211.7,125.1"/>
            <path d="M211.7,125.1 L255.95,125.1"/>
            <path d="M255.95,124.775 L255.95,124.95"/>
            <path d="M211.7,124.775 L211.7,124.95"/>
            <path d="M211.7,124.95 L255.95,124.95"/>
            <path d="M255.95,113.426 L255.95,124.775"/>
            <path d="M211.7,113.426 L211.7,124.775"/>
            <path d="M211.7,124.775 L255.95,124.775"/>
            <path d="M255.95,113.25 L255.95,113.426"/>
            <path d="M211.7,113.426 L211.7,113.426"/>
            <path d="M211.7,113.426 L211.7,113.426"/>
            <path d="M211.7,113.426 L255.95,113.426"/>
            <path d="M255.95,113.1 L255.95,113.25"/>
            <path d="M211.7,113.1 L211.7,113.25"/>
            <path d="M211.7,113.25 L255.95,113.25"/>
            <path d="M211.7,113.1 L255.95,113.1"/>
        </g>
        <g id="product-e0a8cf9d-fc5a-400f-b616-8e88f48a1611" class="IfcSlab material-null projection" ifc:name="TYPEX" ifc:guid="3WgC_T$5f03xOMZeZqYXOH">
            <path d="M60,112.95 L60,113.1"/>
            <path d="M60,112.774 L60,112.95"/>
            <path d="M135.85,101.425 L135.85,101.425"/>
            <path d="M60,101.425 L60,112.774"/>
            <path d="M135.85,101.25 L135.85,101.425"/>
            <path d="M60,101.25 L60,101.425"/>
            <path d="M60,101.425 L135.85,101.425"/>
            <path d="M60,101.1 L60,101.25"/>
        </g>
        <g id="product-974d578e-2dab-4a41-913b-3e65cfd8ef36" class="IfcSlab material-null projection" ifc:name="TYPEX" ifc:guid="2NJLUEBQjAGP4xFcNFsEys">
            <path d="M155.85,125.1 L156,125.1"/>
            <path d="M156,156.5 L156,125.1"/>
            <path d="M155.675,125.1 L155.85,125.1"/>
            <path d="M155.675,156.5 L155.85,156.5"/>
            <path d="M155.85,156.5 L155.85,125.1"/>
            <path d="M144.326,125.1 L155.675,125.1"/>
            <path d="M144.326,156.5 L155.675,156.5"/>
            <path d="M155.675,156.5 L155.675,125.1"/>
            <path d="M144.15,125.1 L144.326,125.1"/>
            <path d="M144.15,156.5 L144.326,156.5"/>
            <path d="M144.326,156.5 L144.326,125.1"/>
            <path d="M144,125.1 L144.15,125.1"/>
            <path d="M144.15,156.5 L144.15,125.1"/>
            <path d="M144,156.5 L144,125.1"/>
        </g>
        <g id="product-292ef3c4-d64d-44a9-a853-53cebdefe524" class="IfcSlab material-null projection" ifc:name="TYPEX" ifc:guid="0fBlF4rar4gQXJKywzx_Ka">
            <path d="M216,156.5 L216,125.1"/>
            <path d="M215.675,125.1 L215.85,125.1"/>
            <path d="M215.675,156.5 L215.85,156.5"/>
            <path d="M215.85,156.5 L215.85,125.1"/>
            <path d="M204.326,125.1 L215.675,125.1"/>
            <path d="M204.326,156.5 L215.675,156.5"/>
            <path d="M215.675,156.5 L215.675,125.1"/>
            <path d="M204.15,125.1 L204.326,125.1"/>
            <path d="M204.15,156.5 L204.326,156.5"/>
            <path d="M204.326,156.5 L204.326,125.1"/>
            <path d="M204,125.1 L204.15,125.1"/>
            <path d="M204.15,156.5 L204.15,125.1"/>
            <path d="M204,156.5 L204,125.1"/>
        </g>
        <g id="product-e494a4ab-4e35-41bb-a5bd-22fb778a747f" class="IfcSlab material-null projection" ifc:name="TYPEX" ifc:guid="3abAIhJZL1kwMz8ljtYdH$">
            <path d="M255.95,88.95 L255.95,89.1"/>
            <path d="M211.7,88.95 L211.7,89.1"/>
            <path d="M211.7,89.1 L255.95,89.1"/>
            <path d="M255.95,88.7745 L255.95,88.95"/>
            <path d="M211.7,88.7745 L211.7,88.95"/>
            <path d="M211.7,88.95 L255.95,88.95"/>
            <path d="M255.95,77.4255 L255.95,88.7745"/>
            <path d="M211.7,77.4255 L211.7,88.7745"/>
            <path d="M211.7,88.7745 L255.95,88.7745"/>
            <path d="M255.95,77.25 L255.95,77.4255"/>
            <path d="M211.7,77.4255 L211.7,77.4255"/>
            <path d="M211.7,77.4255 L211.7,77.4255"/>
            <path d="M211.7,77.4255 L255.95,77.4255"/>
            <path d="M255.95,77.1 L255.95,77.25"/>
            <path d="M211.7,77.1 L211.7,77.25"/>
            <path d="M211.7,77.25 L255.95,77.25"/>
            <path d="M211.7,77.1 L255.95,77.1"/>
        </g>
        <g id="product-746db980-bcb3-4084-8e29-f17dfcd9bece" class="IfcSlab material-null projection" ifc:name="TYPEX" ifc:guid="1qRRc0lBD0X8ufyNtysRxE">
            <path d="M135.85,101.1 L211.7,101.1"/>
            <path d="M135.85,100.95 L211.7,100.95"/>
            <path d="M211.7,89.4255 L211.7,89.4255"/>
            <path d="M135.85,89.4255 L135.85,89.4255"/>
            <path d="M135.85,100.775 L211.7,100.775"/>
            <path d="M211.7,89.25 L211.7,89.4255"/>
            <path d="M135.85,89.4255 L135.85,89.4255"/>
            <path d="M135.85,89.4255 L211.7,89.4255"/>
            <path d="M135.85,89.1 L135.85,89.1"/>
            <path d="M135.85,89.25 L211.7,89.25"/>
            <path d="M135.85,89.1 L211.7,89.1"/>
        </g>
        <g id="product-c32d0849-bf5a-4878-80da-68f60b2ec3da" class="IfcSlab material-null projection" ifc:name="TYPEX" ifc:guid="33BGX9lrf8U83QQFOBBiFQ">
            <path d="M60,88.95 L60,89.1"/>
            <path d="M60,88.7745 L60,88.95"/>
            <path d="M135.85,77.4255 L135.85,77.4255"/>
            <path d="M60,77.4255 L60,88.7745"/>
            <path d="M135.85,77.25 L135.85,77.4255"/>
            <path d="M60,77.25 L60,77.4255"/>
            <path d="M60,77.4255 L135.85,77.4255"/>
            <path d="M60,77.1 L60,77.25"/>
        </g>
        <g id="product-cedfc1e5-fa36-45e1-8d53-43c70cc6e614" class="IfcSlab material-null projection" ifc:name="TYPEX" ifc:guid="3Ety7b_ZP5uOrJGySCnkOK">
            <path d="M167.85,125.1 L168,125.1"/>
            <path d="M168,156.5 L168,125.1"/>
            <path d="M167.675,125.1 L167.85,125.1"/>
            <path d="M167.675,156.5 L167.85,156.5"/>
            <path d="M167.85,156.5 L167.85,125.1"/>
            <path d="M156.326,125.1 L167.675,125.1"/>
            <path d="M156.326,156.5 L167.675,156.5"/>
            <path d="M167.675,156.5 L167.675,125.1"/>
            <path d="M156.15,125.1 L156.326,125.1"/>
            <path d="M156.15,156.5 L156.326,156.5"/>
            <path d="M156.326,156.5 L156.326,125.1"/>
            <path d="M156,125.1 L156.15,125.1"/>
            <path d="M156.15,156.5 L156.15,125.1"/>
            <path d="M156,156.5 L156,125.1"/>
        </g>
        <g id="product-fb9a45c7-cab7-4d69-8088-976705871565" class="IfcSlab material-null projection" ifc:name="TYPEX" ifc:guid="3xcaN7ohTDQO28bsS5XnLb">
            <path d="M211.7,64.95 L211.7,65.1"/>
            <path d="M135.85,65.1 L211.7,65.1"/>
            <path d="M211.7,64.7745 L211.7,64.95"/>
            <path d="M135.85,64.95 L211.7,64.95"/>
            <path d="M211.7,53.4255 L211.7,64.7745"/>
            <path d="M135.85,53.4255 L135.85,53.4255"/>
            <path d="M135.85,64.7745 L211.7,64.7745"/>
            <path d="M211.7,53.25 L211.7,53.4255"/>
            <path d="M135.85,53.25 L135.85,53.4255"/>
            <path d="M135.85,53.4255 L211.7,53.4255"/>
            <path d="M211.7,53.1 L211.7,53.25"/>
            <path d="M135.85,53.1 L135.85,53.1"/>
            <path d="M135.85,53.25 L211.7,53.25"/>
            <path d="M135.85,53.1 L211.7,53.1"/>
        </g>
        <g id="product-b81e9266-7ba9-4bf8-af1a-a8ea80fd7507" class="IfcSlab material-null projection" ifc:name="TYPEX" ifc:guid="2u7f9cUwbB_AyQgEg0$NK7">
            <path d="M255.95,112.95 L255.95,113.1"/>
            <path d="M211.7,112.95 L211.7,113.1"/>
            <path d="M211.7,113.1 L255.95,113.1"/>
            <path d="M255.95,112.775 L255.95,112.95"/>
            <path d="M211.7,112.775 L211.7,112.95"/>
            <path d="M211.7,112.95 L255.95,112.95"/>
            <path d="M255.95,101.426 L255.95,112.775"/>
            <path d="M211.7,101.426 L211.7,112.775"/>
            <path d="M211.7,112.775 L255.95,112.775"/>
            <path d="M255.95,101.25 L255.95,101.426"/>
            <path d="M211.7,101.425 L211.7,101.425"/>
            <path d="M211.7,101.426 L211.7,101.426"/>
            <path d="M211.7,101.426 L255.95,101.426"/>
            <path d="M255.95,101.1 L255.95,101.25"/>
            <path d="M211.7,101.1 L211.7,101.25"/>
            <path d="M211.7,101.25 L255.95,101.25"/>
            <path d="M211.7,101.1 L255.95,101.1"/>
        </g>
        <g id="product-92722393-2b32-4674-a3f1-b61958afdd9d" class="IfcSlab material-null projection" ifc:name="TYPEX" ifc:guid="2ISYEJAp96TAFnjXbOhzsT">
            <path d="M203.85,125.1 L204,125.1"/>
            <path d="M204,156.5 L204,125.1"/>
            <path d="M203.675,125.1 L203.85,125.1"/>
            <path d="M203.675,156.5 L203.85,156.5"/>
            <path d="M203.85,156.5 L203.85,125.1"/>
            <path d="M192.326,125.1 L203.675,125.1"/>
            <path d="M192.326,156.5 L203.675,156.5"/>
            <path d="M203.675,156.5 L203.675,125.1"/>
            <path d="M192.15,125.1 L192.326,125.1"/>
            <path d="M192.15,156.5 L192.326,156.5"/>
            <path d="M192.326,156.5 L192.326,125.1"/>
            <path d="M192,125.1 L192.15,125.1"/>
            <path d="M192.15,156.5 L192.15,125.1"/>
            <path d="M192,156.5 L192,125.1"/>
        </g>
        <g id="product-9f7683f7-bf56-4d90-aed9-c1ac982f15e6" class="IfcSlab material-null projection" ifc:name="TYPEX" ifc:guid="2VTeFtlrPDaAxPmQoOBnNc">
            <path d="M72,156.5 L72,125.1"/>
            <path d="M71.6745,125.1 L71.85,125.1"/>
            <path d="M71.6745,156.5 L71.85,156.5"/>
            <path d="M71.85,156.5 L71.85,125.1"/>
            <path d="M60.3255,125.1 L71.6745,125.1"/>
            <path d="M60.3255,156.5 L71.6745,156.5"/>
            <path d="M71.6745,156.5 L71.6745,125.1"/>
            <path d="M60.15,125.1 L60.3255,125.1"/>
            <path d="M60.15,156.5 L60.3255,156.5"/>
            <path d="M60.3255,156.5 L60.3255,125.1"/>
            <path d="M60,125.1 L60.15,125.1"/>
            <path d="M60.15,156.5 L60.15,125.1"/>
            <path d="M60,156.5 L60,156.5"/>
            <path d="M60,156.5 L60,125.1"/>
        </g>
        <g id="product-626485e5-5b88-4398-86c2-659ecbf7ef7a" class="IfcSlab material-null projection" ifc:name="TYPEX" ifc:guid="1YP8NbMuX3c8R2PPxBz_zw">
            <path d="M144,156.5 L144,125.1"/>
            <path d="M143.675,125.1 L143.85,125.1"/>
            <path d="M143.675,156.5 L143.85,156.5"/>
            <path d="M143.85,156.5 L143.85,125.1"/>
            <path d="M132.326,125.1 L143.675,125.1"/>
            <path d="M132.326,156.5 L143.675,156.5"/>
            <path d="M143.675,156.5 L143.675,125.1"/>
            <path d="M132.15,125.1 L132.326,125.1"/>
            <path d="M132.15,156.5 L132.326,156.5"/>
            <path d="M132.326,156.5 L132.326,125.1"/>
            <path d="M132.15,156.5 L132.15,125.1"/>
            <path d="M132,156.5 L132,125.1"/>
        </g>
        <g id="product-c9857605-f200-45ff-924d-562506b04fc5" class="IfcSlab material-null projection" ifc:name="TYPEX" ifc:guid="39XNO5yW15$v9DLYK6i4$5">
            <path d="M60,180.35 L60,180.5"/>
            <path d="M60,180.5 L108.7,180.5"/>
            <path d="M60,180.175 L60,180.35"/>
            <path d="M60,180.35 L108.7,180.35"/>
            <path d="M108.7,168.826 L108.7,168.826"/>
            <path d="M60,168.826 L60,180.175"/>
            <path d="M60,180.175 L108.7,180.175"/>
            <path d="M108.7,168.65 L108.7,168.826"/>
            <path d="M60,168.65 L60,168.826"/>
            <path d="M60,168.826 L108.7,168.826"/>
            <path d="M108.7,168.5 L108.7,168.5"/>
            <path d="M60,168.5 L60,168.65"/>
            <path d="M60,168.65 L108.7,168.65"/>
            <path d="M60,168.5 L108.7,168.5"/>
        </g>
        <g id="product-c219a813-fbb6-46ae-9f6d-b1c5b067f46b" class="IfcSlab material-null projection" ifc:name="TYPEX" ifc:guid="326QWJ_xP6hfzjiSMmP$Hh">
            <path d="M60,168.35 L60,168.5"/>
            <path d="M60,168.5 L108.7,168.5"/>
            <path d="M60,168.175 L60,168.35"/>
            <path d="M60,168.35 L108.7,168.35"/>
            <path d="M108.7,156.826 L108.7,156.826"/>
            <path d="M60,156.826 L60,168.175"/>
            <path d="M60,168.175 L108.7,168.175"/>
            <path d="M108.7,156.65 L108.7,156.826"/>
            <path d="M60,156.65 L60,156.826"/>
            <path d="M60,156.826 L108.7,156.826"/>
            <path d="M60,156.5 L60,156.65"/>
            <path d="M60,156.65 L108.7,156.65"/>
        </g>
        <g id="product-cec54511-41b3-4002-aa29-2c12236df73f" class="IfcSlab material-null projection" ifc:name="TYPEX" ifc:guid="3EnKKHGRD00gefB18ZRVS$">
            <path d="M60,192.35 L60,192.5"/>
            <path d="M60,192.5 L108.7,192.5"/>
            <path d="M60,192.175 L60,192.35"/>
            <path d="M60,192.35 L108.7,192.35"/>
            <path d="M108.7,180.826 L108.7,180.826"/>
            <path d="M60,180.826 L60,192.175"/>
            <path d="M60,192.175 L108.7,192.175"/>
            <path d="M108.7,180.65 L108.7,180.826"/>
            <path d="M60,180.65 L60,180.826"/>
            <path d="M60,180.826 L108.7,180.826"/>
            <path d="M60,180.5 L60,180.65"/>
            <path d="M60,180.65 L108.7,180.65"/>
            <path d="M60,180.5 L108.7,180.5"/>
        </g>
        <g id="product-d067620f-7a07-4e6c-a4d5-4711eabb12bc" class="IfcSlab material-null projection" ifc:name="TYPEX" ifc:guid="3GPs8FUWTERAJLHn7gknAy">
            <path d="M108.7,204.5 L108.7,204.5"/>
            <path d="M60,204.35 L60,204.5"/>
            <path d="M60,204.5 L108.7,204.5"/>
            <path d="M108.7,204.175 L108.7,204.35"/>
            <path d="M60,204.175 L60,204.35"/>
            <path d="M60,204.35 L108.7,204.35"/>
            <path d="M108.7,204.175 L108.7,204.175"/>
            <path d="M60,192.826 L60,204.175"/>
            <path d="M60,204.175 L108.7,204.175"/>
            <path d="M60,192.65 L60,192.826"/>
            <path d="M60,192.826 L108.7,192.826"/>
            <path d="M60,192.5 L60,192.65"/>
            <path d="M60,192.65 L108.7,192.65"/>
            <path d="M60,192.5 L108.7,192.5"/>
        </g>
        <g id="product-1c1e59e5-7fe4-4e4a-b067-a3683d8d7d9c" class="IfcSlab material-null projection" ifc:name="TYPEX" ifc:guid="0S7bdbV_HEIh1desWzZNsS">
            <path d="M60,216.35 L60,216.5"/>
            <path d="M60,216.5 L108.7,216.5"/>
            <path d="M60,216.175 L60,216.35"/>
            <path d="M60,216.35 L108.7,216.35"/>
            <path d="M108.7,204.826 L108.7,204.826"/>
            <path d="M60,204.826 L60,216.175"/>
            <path d="M60,216.175 L108.7,216.175"/>
            <path d="M108.7,204.65 L108.7,204.826"/>
            <path d="M60,204.65 L60,204.826"/>
            <path d="M60,204.826 L108.7,204.826"/>
            <path d="M108.7,204.5 L108.7,204.5"/>
            <path d="M60,204.5 L60,204.65"/>
            <path d="M60,204.65 L108.7,204.65"/>
            <path d="M60,204.5 L108.7,204.5"/>
        </g>
        <g id="product-ef33335f-9e95-4735-9b61-cb009ab0e768" class="IfcSlab material-null projection" ifc:name="TYPEX" ifc:guid="3lCpDVdfL7DPjXom2QiETe">
            <path d="M108.7,228.5 L108.7,228.5"/>
            <path d="M60,228.35 L60,228.5"/>
            <path d="M60,228.5 L108.7,228.5"/>
            <path d="M108.7,228.175 L108.7,228.35"/>
            <path d="M60,228.175 L60,228.35"/>
            <path d="M60,228.35 L108.7,228.35"/>
            <path d="M108.7,228.175 L108.7,228.175"/>
            <path d="M60,216.826 L60,228.175"/>
            <path d="M60,228.175 L108.7,228.175"/>
            <path d="M108.7,216.65 L108.7,216.826"/>
            <path d="M60,216.65 L60,216.826"/>
            <path d="M60,216.826 L108.7,216.826"/>
            <path d="M108.7,216.65 L108.7,216.65"/>
            <path d="M60,216.5 L60,216.65"/>
            <path d="M60,216.65 L108.7,216.65"/>
            <path d="M60,216.5 L108.7,216.5"/>
        </g>
        <g id="product-8871dd1e-ceb0-4326-96a5-81719e498271" class="IfcSlab material-null projection" ifc:name="TYPEX" ifc:guid="28STqUph139fQbWN6UIO9n">
            <path d="M108.7,180.35 L108.7,180.5"/>
            <path d="M108.7,180.5 L182.2,180.5"/>
            <path d="M108.7,180.175 L108.7,180.35"/>
            <path d="M108.7,180.35 L182.2,180.35"/>
            <path d="M182.45,168.826 L182.45,168.826"/>
            <path d="M108.7,180.175 L108.7,180.175"/>
            <path d="M108.7,180.175 L182.2,180.175"/>
            <path d="M182.45,168.65 L182.45,168.826"/>
            <path d="M108.7,168.65 L108.7,168.826"/>
            <path d="M108.7,168.826 L108.7,168.826"/>
            <path d="M108.7,168.826 L182.45,168.826"/>
            <path d="M182.45,168.5 L182.45,168.5"/>
            <path d="M108.7,168.5 L108.7,168.65"/>
            <path d="M108.7,168.65 L182.2,168.65"/>
            <path d="M108.7,168.5 L182.2,168.5"/>
        </g>
        <g id="product-e0f15a5c-d62d-43ae-b7df-5d093394d7d5" class="IfcSlab material-null projection" ifc:name="TYPEX" ifc:guid="3WyLfSrYr3hhVVNGapbDVL">
            <path d="M108.7,168.35 L108.7,168.5"/>
            <path d="M108.7,168.5 L182.2,168.5"/>
            <path d="M108.7,168.175 L108.7,168.35"/>
            <path d="M108.7,168.35 L182.2,168.35"/>
            <path d="M182.45,156.826 L182.45,156.826"/>
            <path d="M108.7,168.175 L108.7,168.175"/>
            <path d="M108.7,168.175 L182.2,168.175"/>
            <path d="M182.45,156.65 L182.45,156.826"/>
            <path d="M108.7,156.65 L108.7,156.826"/>
            <path d="M108.7,156.826 L108.7,156.826"/>
            <path d="M108.7,156.826 L182.45,156.826"/>
            <path d="M108.7,156.5 L108.7,156.65"/>
            <path d="M108.7,156.65 L182.2,156.65"/>
        </g>
        <g id="product-cc040d84-ae8a-4b58-8838-f325707263fc" class="IfcSlab material-null projection" ifc:name="TYPEX" ifc:guid="3C10s4hefBM8WuyoLmScFy">
            <path d="M108.7,192.35 L108.7,192.5"/>
            <path d="M108.7,192.5 L182.2,192.5"/>
            <path d="M108.7,192.175 L108.7,192.35"/>
            <path d="M108.7,192.35 L182.2,192.35"/>
            <path d="M182.45,180.826 L182.45,180.826"/>
            <path d="M108.7,192.175 L108.7,192.175"/>
            <path d="M108.7,192.175 L182.2,192.175"/>
            <path d="M182.45,180.65 L182.45,180.826"/>
            <path d="M108.7,180.65 L108.7,180.826"/>
            <path d="M108.7,180.826 L108.7,180.826"/>
            <path d="M108.7,180.826 L182.45,180.826"/>
            <path d="M108.7,180.5 L108.7,180.65"/>
            <path d="M108.7,180.65 L182.2,180.65"/>
            <path d="M108.7,180.5 L182.2,180.5"/>
        </g>
        <g id="product-f80141b6-2398-431b-840c-df855b65ca41" class="IfcSlab material-null projection" ifc:name="TYPEX" ifc:guid="3u0K6s8vX36uGCtuLRPSf1">
            <path d="M108.7,204.35 L108.7,204.5"/>
            <path d="M108.7,204.5 L182.2,204.5"/>
            <path d="M108.7,204.175 L108.7,204.175"/>
            <path d="M108.7,204.35 L182.2,204.35"/>
            <path d="M182.45,192.826 L182.45,192.826"/>
            <path d="M108.7,192.826 L108.7,192.826"/>
            <path d="M108.7,204.175 L182.2,204.175"/>
            <path d="M182.45,192.65 L182.45,192.826"/>
            <path d="M108.7,192.65 L108.7,192.826"/>
            <path d="M108.7,192.826 L182.45,192.826"/>
            <path d="M182.45,192.5 L182.45,192.5"/>
            <path d="M108.7,192.5 L108.7,192.65"/>
            <path d="M108.7,192.65 L182.2,192.65"/>
            <path d="M108.7,192.5 L182.2,192.5"/>
        </g>
        <g id="product-7cccdf29-e962-4b3a-ae18-754c0884e197" class="IfcSlab material-null projection" ifc:name="TYPEX" ifc:guid="1ypDyfwM9BEguOTKm8XE6N">
            <path d="M108.7,228.35 L108.7,228.5"/>
            <path d="M108.7,228.5 L182.2,228.5"/>
            <path d="M108.7,228.175 L108.7,228.35"/>
            <path d="M108.7,228.35 L182.2,228.35"/>
            <path d="M182.45,216.826 L182.45,216.826"/>
            <path d="M108.7,216.826 L108.7,228.175"/>
            <path d="M108.7,228.175 L182.2,228.175"/>
            <path d="M182.45,216.65 L182.45,216.826"/>
            <path d="M108.7,216.65 L108.7,216.826"/>
            <path d="M108.7,216.826 L182.45,216.826"/>
            <path d="M182.45,216.5 L182.45,216.5"/>
            <path d="M108.7,216.5 L108.7,216.65"/>
            <path d="M108.7,216.65 L182.2,216.65"/>
            <path d="M108.7,216.5 L182.2,216.5"/>
        </g>
        <g id="product-b2b46df0-21d0-4c9b-a5a5-0d0c33266422" class="IfcSlab material-null projection" ifc:name="TYPEX" ifc:guid="2oj6tm8T1CcwMb3Gmp9cGY">
            <path d="M108.7,216.35 L108.7,216.5"/>
            <path d="M108.7,216.5 L182.2,216.5"/>
            <path d="M182.45,216.175 L182.45,216.35"/>
            <path d="M108.7,216.175 L108.7,216.35"/>
            <path d="M108.7,216.35 L182.2,216.35"/>
            <path d="M108.7,216.175 L108.7,216.175"/>
            <path d="M108.7,216.175 L182.2,216.175"/>
            <path d="M182.45,204.65 L182.45,204.826"/>
            <path d="M108.7,204.826 L108.7,204.826"/>
            <path d="M108.7,204.826 L182.2,204.826"/>
            <path d="M108.7,204.5 L108.7,204.65"/>
            <path d="M108.7,204.65 L182.2,204.65"/>
            <path d="M108.7,204.5 L182.2,204.5"/>
        </g>
        <g id="product-c446c104-824e-4eae-917e-cb58213077f7" class="IfcSlab material-null projection" ifc:name="TYPEX" ifc:guid="34Hi44WavEhf5_orWXC7Vt">
            <path d="M108.7,240.35 L108.7,240.5"/>
            <path d="M108.7,240.5 L182.2,240.5"/>
            <path d="M108.7,240.175 L108.7,240.35"/>
            <path d="M108.7,240.35 L182.2,240.35"/>
            <path d="M182.45,228.826 L182.45,228.826"/>
            <path d="M108.7,228.826 L108.7,240.175"/>
            <path d="M108.7,240.175 L182.2,240.175"/>
            <path d="M182.45,228.65 L182.45,228.826"/>
            <path d="M108.7,228.65 L108.7,228.826"/>
            <path d="M108.7,228.826 L182.45,228.826"/>
            <path d="M182.45,228.5 L182.45,228.5"/>
            <path d="M108.7,228.5 L108.7,228.65"/>
            <path d="M108.7,228.65 L182.2,228.65"/>
            <path d="M108.7,228.5 L182.2,228.5"/>
        </g>
        <g id="product-044c459a-12f4-4b77-ac46-2126ed7fb808" class="IfcSlab material-null projection" ifc:name="TYPEX" ifc:guid="04J4MQ4lHBTwn68IRjVxW8">
            <path d="M253.95,168.35 L253.95,168.5"/>
            <path d="M182.2,168.35 L182.2,168.5"/>
            <path d="M182.2,168.5 L253.95,168.5"/>
            <path d="M253.95,168.175 L253.95,168.35"/>
            <path d="M182.2,168.175 L182.2,168.35"/>
            <path d="M182.2,168.35 L253.95,168.35"/>
            <path d="M253.95,156.826 L253.95,168.175"/>
            <path d="M182.2,156.826 L182.2,168.175"/>
            <path d="M182.2,168.175 L253.95,168.175"/>
            <path d="M253.95,156.65 L253.95,156.826"/>
            <path d="M182.2,156.826 L182.2,156.826"/>
            <path d="M182.2,156.826 L253.95,156.826"/>
            <path d="M253.95,156.5 L253.95,156.65"/>
            <path d="M182.2,156.5 L182.2,156.65"/>
            <path d="M182.45,156.65 L253.95,156.65"/>
        </g>
        <g id="product-a73272ed-1689-4c64-b9b7-d27acd0d56c7" class="IfcSlab material-null projection" ifc:name="TYPEX" ifc:guid="2dCdBj5ebCPBctqdhD3LR7">
            <path d="M253.95,180.35 L253.95,180.5"/>
            <path d="M182.2,180.35 L182.2,180.5"/>
            <path d="M182.2,180.5 L253.95,180.5"/>
            <path d="M253.95,180.175 L253.95,180.35"/>
            <path d="M182.2,180.175 L182.2,180.35"/>
            <path d="M182.2,180.35 L253.95,180.35"/>
            <path d="M253.95,168.826 L253.95,180.175"/>
            <path d="M182.2,168.826 L182.2,180.175"/>
            <path d="M182.2,180.175 L253.95,180.175"/>
            <path d="M253.95,168.65 L253.95,168.826"/>
            <path d="M182.2,168.826 L182.2,168.826"/>
            <path d="M182.2,168.826 L253.95,168.826"/>
            <path d="M253.95,168.5 L253.95,168.65"/>
            <path d="M182.2,168.5 L182.2,168.65"/>
            <path d="M182.45,168.65 L253.95,168.65"/>
            <path d="M182.2,168.5 L253.95,168.5"/>
        </g>
        <g id="product-4b8534eb-2315-4f54-8af7-1584db4b0384" class="IfcBeam material-NLRS28SRbalkbetonBB350x600 projection" ifc:name="NLRS_28_SR_balk_beton BB 350x600" ifc:guid="1BXJJh8nLFL8ht5OJRImE4">
            <path d="M61.75,125.1 L61.75,125.1"/>
            <path d="M251.95,125.1 L251.95,125.1"/>
            <path d="M216,126.85 L216,126.85"/>
            <path d="M168,126.85 L168,126.85"/>
        </g>
        <g id="product-6a83bbc7-6d27-4134-b080-efe899b8e3de" class="IfcSlab material-null projection" ifc:name="TYPEX" ifc:guid="1gWxl7RIT1DB20x_YPkEFU">
            <path d="M253.95,192.35 L253.95,192.5"/>
            <path d="M182.2,192.35 L182.2,192.5"/>
            <path d="M182.2,192.5 L253.95,192.5"/>
            <path d="M253.95,192.175 L253.95,192.35"/>
            <path d="M182.2,192.175 L182.2,192.35"/>
            <path d="M182.2,192.35 L253.95,192.35"/>
            <path d="M253.95,180.826 L253.95,192.175"/>
            <path d="M182.2,180.826 L182.2,192.175"/>
            <path d="M182.2,192.175 L253.95,192.175"/>
            <path d="M253.95,180.65 L253.95,180.826"/>
            <path d="M182.2,180.826 L182.2,180.826"/>
            <path d="M182.2,180.826 L253.95,180.826"/>
            <path d="M253.95,180.5 L253.95,180.65"/>
            <path d="M182.2,180.5 L182.2,180.65"/>
            <path d="M182.45,180.65 L253.95,180.65"/>
            <path d="M182.2,180.5 L253.95,180.5"/>
        </g>
        <g id="product-7c9f9cfb-8b11-4f44-99c6-c17b18f3d4c6" class="IfcSlab material-null projection" ifc:name="TYPEX" ifc:guid="1ydvpxYn5FH9d6mNiOyzJ6">
            <path d="M253.95,216.35 L253.95,216.5"/>
            <path d="M182.2,216.35 L182.2,216.5"/>
            <path d="M182.2,216.5 L253.95,216.5"/>
            <path d="M253.95,216.175 L253.95,216.35"/>
            <path d="M182.2,216.175 L182.2,216.35"/>
            <path d="M182.2,216.35 L253.95,216.35"/>
            <path d="M253.95,204.826 L253.95,216.175"/>
            <path d="M182.2,204.826 L182.2,216.175"/>
            <path d="M182.2,216.175 L253.95,216.175"/>
            <path d="M253.95,204.65 L253.95,204.826"/>
            <path d="M182.2,204.65 L182.2,204.826"/>
            <path d="M182.2,204.826 L253.95,204.826"/>
            <path d="M253.95,204.5 L253.95,204.65"/>
            <path d="M182.2,204.5 L182.2,204.65"/>
            <path d="M182.2,204.65 L253.95,204.65"/>
            <path d="M182.2,204.5 L253.95,204.5"/>
        </g>
        <g id="product-40a4a416-ab13-47db-ad57-5e86320d4786" class="IfcSlab material-null projection" ifc:name="TYPEX" ifc:guid="10fAGMgnD7swrNNeOo3KU6">
            <path d="M253.95,204.35 L253.95,204.5"/>
            <path d="M182.2,204.35 L182.2,204.5"/>
            <path d="M182.2,204.5 L253.95,204.5"/>
            <path d="M253.95,204.175 L253.95,204.35"/>
            <path d="M182.2,204.175 L182.2,204.35"/>
            <path d="M182.2,204.35 L253.95,204.35"/>
            <path d="M253.95,192.826 L253.95,204.175"/>
            <path d="M182.2,192.826 L182.2,204.175"/>
            <path d="M182.2,204.175 L253.95,204.175"/>
            <path d="M253.95,192.65 L253.95,192.826"/>
            <path d="M182.2,192.826 L182.2,192.826"/>
            <path d="M182.2,192.826 L253.95,192.826"/>
            <path d="M253.95,192.5 L253.95,192.65"/>
            <path d="M182.2,192.5 L182.2,192.65"/>
            <path d="M182.45,192.65 L253.95,192.65"/>
            <path d="M182.2,192.5 L253.95,192.5"/>
        </g>
        <g id="product-220a3250-21a6-409b-9fa1-d66d05ebd74f" class="IfcSlab material-null projection" ifc:name="TYPEX" ifc:guid="0Y2Z9G8QP0cv_Xrcq5wzTF">
            <path d="M232.587,240.35 L232.587,240.5"/>
            <path d="M182.2,240.35 L182.2,240.5"/>
            <path d="M182.2,240.5 L232.587,240.5"/>
            <path d="M232.587,240.175 L232.587,240.35"/>
            <path d="M182.2,240.175 L182.2,240.35"/>
            <path d="M182.2,240.35 L232.587,240.35"/>
            <path d="M232.587,228.826 L232.587,240.175"/>
            <path d="M182.2,228.826 L182.2,240.175"/>
            <path d="M182.2,240.175 L232.587,240.175"/>
            <path d="M232.587,228.65 L232.587,228.826"/>
            <path d="M182.2,228.826 L182.2,228.826"/>
            <path d="M182.2,228.826 L232.587,228.826"/>
            <path d="M232.587,228.5 L232.587,228.65"/>
            <path d="M182.2,228.5 L182.2,228.65"/>
            <path d="M182.45,228.65 L232.587,228.65"/>
            <path d="M182.2,228.5 L232.587,228.5"/>
        </g>
        <g id="product-b30df9f4-24fa-44af-8b95-bd1d73d7c5ff" class="IfcSlab material-null projection" ifc:name="TYPEX" ifc:guid="2p3Vdq9Ff4hukLlHrpryN$">
            <path d="M246.908,228.35 L246.908,228.5"/>
            <path d="M182.2,228.35 L182.2,228.5"/>
            <path d="M182.2,228.5 L246.908,228.5"/>
            <path d="M246.908,228.175 L246.908,228.35"/>
            <path d="M182.2,228.175 L182.2,228.35"/>
            <path d="M182.2,228.35 L246.908,228.35"/>
            <path d="M246.908,216.826 L246.908,228.175"/>
            <path d="M182.2,216.826 L182.2,228.175"/>
            <path d="M182.2,228.175 L246.908,228.175"/>
            <path d="M246.908,216.65 L246.908,216.826"/>
            <path d="M182.2,216.826 L182.2,216.826"/>
            <path d="M182.2,216.826 L246.908,216.826"/>
            <path d="M246.908,216.5 L246.908,216.65"/>
            <path d="M182.2,216.5 L182.2,216.65"/>
            <path d="M182.45,216.65 L246.908,216.65"/>
            <path d="M182.2,216.5 L246.908,216.5"/>
        </g>
        <g id="product-6ff5c4d9-f843-480f-aef5-afa4745906fa" class="IfcBeam material-gewapendbetonprefab projection" ifc:name="KPV200" ifc:guid="1lzSJP_4D83wxrhwHqMGRw">
            <path d="M135.85,88.95 L135.85,89.1"/>
            <path d="M60,88.95 L60,89.1"/>
            <path d="M60,89.1 L135.85,89.1"/>
            <path d="M135.85,88.7745 L135.85,88.95"/>
            <path d="M60,88.7745 L60,88.95"/>
            <path d="M60,88.95 L135.85,88.95"/>
            <path d="M135.85,77.4255 L135.85,88.7745"/>
            <path d="M60,77.4255 L60,88.7745"/>
            <path d="M60,88.7745 L135.85,88.7745"/>
            <path d="M135.85,77.4255 L135.85,77.4255"/>
            <path d="M60,77.25 L60,77.4255"/>
            <path d="M60,77.4255 L135.85,77.4255"/>
            <path d="M135.85,77.1 L135.85,77.25"/>
            <path d="M60,77.1 L60,77.25"/>
            <path d="M60,77.1 L135.85,77.1"/>
        </g>
        <g id="product-a87514ac-63a8-4f42-b64c-bcb98b299e1c" class="IfcBeam material-gewapendbetonprefab projection" ifc:name="KPV200" ifc:guid="2eTHIiOwXFGhPClBcBAPuS">
            <path d="M135.85,100.95 L135.85,101.1"/>
            <path d="M60,100.95 L60,101.1"/>
            <path d="M60,101.1 L135.85,101.1"/>
            <path d="M135.85,100.775 L135.85,100.95"/>
            <path d="M60,100.775 L60,100.95"/>
            <path d="M60,100.95 L135.85,100.95"/>
            <path d="M135.85,89.4255 L135.85,100.775"/>
            <path d="M60,89.4255 L60,100.775"/>
            <path d="M60,100.775 L135.85,100.775"/>
            <path d="M135.85,89.4255 L135.85,89.4255"/>
            <path d="M60,89.25 L60,89.4255"/>
            <path d="M60,89.4255 L135.85,89.4255"/>
            <path d="M135.85,89.1 L135.85,89.25"/>
            <path d="M60,89.1 L60,89.25"/>
            <path d="M60,89.25 L60,89.25"/>
            <path d="M60,89.1 L135.85,89.1"/>
        </g>
        <g id="product-c1d3bb0b-e689-4d36-9528-0773457ce3b6" class="IfcBeam material-gewapendbetonprefab projection" ifc:name="KPV200" ifc:guid="31qxiBvebDDfKe1tD5VEEs">
            <path d="M135.85,64.95 L135.85,65.1"/>
            <path d="M60,64.95 L60,65.1"/>
            <path d="M60,65.1 L135.85,65.1"/>
            <path d="M135.85,64.7745 L135.85,64.95"/>
            <path d="M60,64.7745 L60,64.95"/>
            <path d="M60,64.95 L135.85,64.95"/>
            <path d="M135.85,53.4255 L135.85,64.7745"/>
            <path d="M60,53.4255 L60,64.7745"/>
            <path d="M60,64.7745 L135.85,64.7745"/>
            <path d="M135.85,53.4255 L135.85,53.4255"/>
            <path d="M60,53.25 L60,53.4255"/>
            <path d="M60,53.4255 L135.85,53.4255"/>
            <path d="M135.85,53.1 L135.85,53.25"/>
            <path d="M60,53.1 L60,53.25"/>
            <path d="M135.85,53.25 L135.85,53.25"/>
            <path d="M60,53.1 L135.85,53.1"/>
        </g>
        <g id="product-00d4f2f8-c3fa-437c-8c7d-a929302a16d7" class="IfcSlab material-null projection" ifc:name="TYPEX" ifc:guid="00rFBum$f3V8nzgIamAXRN">
            <path d="M211.7,76.95 L211.7,77.1"/>
            <path d="M135.85,77.1 L211.7,77.1"/>
            <path d="M211.7,76.7745 L211.7,76.95"/>
            <path d="M135.85,76.95 L211.7,76.95"/>
            <path d="M211.7,65.4255 L211.7,76.7745"/>
            <path d="M135.85,65.4255 L135.85,65.4255"/>
            <path d="M135.85,76.7745 L211.7,76.7745"/>
            <path d="M211.7,65.25 L211.7,65.4255"/>
            <path d="M135.85,65.4255 L135.85,65.4255"/>
            <path d="M135.85,65.4255 L211.7,65.4255"/>
            <path d="M211.7,65.1 L211.7,65.25"/>
            <path d="M135.85,65.1 L135.85,65.1"/>
            <path d="M135.85,65.25 L211.7,65.25"/>
            <path d="M135.85,65.1 L211.7,65.1"/>
        </g>
        <g id="product-351deae0-f006-4201-9f11-919f5aa41b84" class="IfcBeam material-gewapendbetonprefab projection" ifc:name="KPV200" ifc:guid="0r7UhWy0P20PyHaPzQf1k4">
            <path d="M135.85,124.95 L135.85,125.1"/>
            <path d="M60,124.95 L60,125.1"/>
            <path d="M135.85,124.775 L135.85,124.95"/>
            <path d="M60,124.775 L60,124.95"/>
            <path d="M60,124.95 L135.85,124.95"/>
            <path d="M135.85,113.426 L135.85,124.775"/>
            <path d="M60,113.426 L60,124.775"/>
            <path d="M60,124.775 L135.85,124.775"/>
            <path d="M135.85,113.426 L135.85,113.426"/>
            <path d="M60,113.25 L60,113.426"/>
            <path d="M60,113.426 L135.85,113.426"/>
            <path d="M135.85,113.1 L135.85,113.25"/>
            <path d="M60,113.1 L60,113.25"/>
            <path d="M60,113.25 L60,113.25"/>
            <path d="M60,113.1 L135.85,113.1"/>
        </g>
        <g id="product-d83bba34-8bc8-4579-87ed-60a3552bcfd6" class="IfcBeam material-gewapendbetonprefab projection" ifc:name="KPV200" ifc:guid="3OExeqYyX5UOVjOADLAy$M">
            <path d="M135.85,76.95 L135.85,77.1"/>
            <path d="M60,76.95 L60,77.1"/>
            <path d="M60,77.1 L135.85,77.1"/>
            <path d="M135.85,76.7745 L135.85,76.95"/>
            <path d="M60,76.7745 L60,76.95"/>
            <path d="M60,76.95 L135.85,76.95"/>
            <path d="M135.85,65.4255 L135.85,76.7745"/>
            <path d="M60,65.4255 L60,76.7745"/>
            <path d="M60,76.7745 L135.85,76.7745"/>
            <path d="M135.85,65.4255 L135.85,65.4255"/>
            <path d="M60,65.25 L60,65.4255"/>
            <path d="M60,65.4255 L135.85,65.4255"/>
            <path d="M135.85,65.1 L135.85,65.25"/>
            <path d="M60,65.1 L60,65.25"/>
            <path d="M60,65.1 L135.85,65.1"/>
        </g>
        <g id="product-1db84f38-842e-4bc7-9595-80692f976dcc" class="IfcBeam material-gewapendbetonprefab projection" ifc:name="KPV200" ifc:guid="0Tk4yuX2vBnvMLW6albstC">
            <path d="M135.85,112.95 L135.85,113.1"/>
            <path d="M60,112.95 L60,113.1"/>
            <path d="M60,113.1 L135.85,113.1"/>
            <path d="M135.85,112.775 L135.85,112.95"/>
            <path d="M60,112.774 L60,112.95"/>
            <path d="M60,112.95 L135.85,112.95"/>
            <path d="M135.85,101.426 L135.85,112.775"/>
            <path d="M60,101.425 L60,112.774"/>
            <path d="M60,112.774 L135.85,112.775"/>
            <path d="M135.85,101.426 L135.85,101.426"/>
            <path d="M60,101.25 L60,101.425"/>
            <path d="M60,101.425 L135.85,101.426"/>
            <path d="M135.85,101.1 L135.85,101.25"/>
            <path d="M60,101.1 L60,101.25"/>
            <path d="M60,101.25 L60,101.25"/>
            <path d="M60,101.1 L135.85,101.1"/>
        </g>
    </g>
</svg>