<svg baseProfile="full" data-scale="1:100" height="200.0mm" id="root" version="1.1" viewBox="0 0 200.0 200.0" width="200.0mm" xmlns="http://www.w3.org/2000/svg" xmlns:ev="http://www.w3.org/2001/xml-events" xmlns:ifc="http://www.ifcopenshell.org/ns" xmlns:xlink="http://www.w3.org/1999/xlink"><defs />    <g xmlns:inkscape="http://www.inkscape.org/namespaces/inkscape" id="ViewLayer_LineSet" inkscape:groupmode="lineset" inkscape:label="ViewLayer_LineSet" class="projection">
        <g xmlns:inkscape="http://www.inkscape.org/namespaces/inkscape" inkscape:groupmode="layer" id="strokes" inkscape:label="strokes">
            <path fill="none" d="M 81.71525423728814,334.11118644067795 81.76271186440678,330.7216949152542 81.81016949152541,327.3322033898305 81.85762711864406,323.94271186440676 81.90508474576271,320.553220338983 81.95254237288135,317.1637288135593 82.0,313.77423728813557 82.04745762711863,310.3847457627119 82.09491525423729,306.9952542372881 82.14237288135593,303.6057627118644 82.19016949152544,300.2162711864407 82.23762711864407,296.82677966101693 82.28508474576272,293.4372881355932 82.33254237288136,290.0477966101695 82.38,286.6583050847458 82.42745762711866,283.26881355932204 82.47491525423727,279.8793220338983 82.52237288135593,276.48983050847454 82.56983050847457,273.1003389830508 82.61728813559323,269.7108474576271 82.66508474576271,266.3213559322034 82.71254237288136,262.93186440677965 82.76,259.5423728813559 82.80745762711865,256.15288135593215 82.85491525423728,252.7633898305085 82.90237288135593,249.37389830508474 82.94983050847458,245.98440677966101 82.99728813559322,242.59491525423726 83.04474576271187,239.2054237288135 83.09220338983052,235.81559322033897 83.13966101694915,232.42610169491527 83.18745762711865,229.03661016949152 83.23491525423728,225.6471186440678 83.28237288135593,222.25762711864405 83.32983050847457,218.8681355932203 83.37728813559322,215.4786440677966 83.42474576271186,212.0891525423729 83.4722033898305,208.69966101694914 83.51966101694916,205.31016949152541 83.56711864406779,201.92067796610172 83.61457627118645,198.53118644067797 83.66237288135594,195.14169491525425 83.70983050847457,191.7522033898305 83.75728813559323,188.36271186440678 83.80474576271186,184.97322033898308 83.85220338983052,181.58372881355933 83.89966101694914,178.19423728813558 83.9471186440678,174.80474576271186 83.99457627118643,171.41525423728814 84.04203389830509,168.0257627118644 84.08949152542374,164.6362711864407 84.13694915254237,161.24677966101694 84.18474576271187,157.85728813559322 84.23220338983052,154.4677966101695 84.27966101694915,151.07830508474575 84.3271186440678,147.68881355932203 84.37457627118644,144.2993220338983 84.42203389830509,140.90983050847458 84.46949152542373,137.52033898305086 84.51694915254237,134.1308474576271 84.56440677966101,130.7413559322034 84.63322033898305,125.83593220338985"/>
            <path fill="none" d="M 80.14711864406779,334.62203389830506 80.19457627118645,331.2325423728813 80.24203389830508,327.8430508474576 80.28949152542373,324.4535593220339 80.33694915254237,321.0640677966102 80.384406779661,317.6745762711864 80.43186440677967,314.2850847457627 80.4793220338983,310.895593220339 80.5271186440678,307.50610169491523 80.57457627118644,304.11661016949154 80.62203389830509,300.7271186440678 80.66949152542374,297.33762711864404 80.71694915254237,293.94813559322034 80.76440677966102,290.55830508474577 80.81186440677966,287.168813559322 80.85932203389831,283.7793220338983 80.90677966101694,280.3898305084746 80.95423728813559,277.0003389830508 81.00203389830509,273.61084745762713 81.04949152542373,270.2213559322034 81.09694915254238,266.8318644067797 81.14440677966101,263.44237288135594 81.19186440677966,260.0528813559322 81.2393220338983,256.6633898305085 81.28677966101695,253.27389830508474 81.3342372881356,249.88440677966102 81.38169491525423,246.49491525423727 81.42915254237289,243.10542372881355 81.47661016949152,239.71593220338985 81.52440677966102,236.3264406779661 81.57186440677965,232.93694915254238 81.6193220338983,229.54745762711863 81.66677966101695,226.15796610169494 81.71423728813559,222.76847457627122 81.76169491525424,219.37898305084747 81.80915254237287,215.98949152542372 81.85661016949153,212.6 81.90406779661016,209.2105084745763 81.95152542372881,205.82101694915255 81.99932203389831,202.43152542372883 82.04677966101696,199.04203389830508 82.0942372881356,195.65254237288136 82.14169491525423,192.26305084745766 82.18915254237288,188.8735593220339 82.23661016949153,185.48406779661016 82.28406779661017,182.09457627118644 82.3315254237288,178.7050847457627 82.37898305084745,175.315593220339 82.4264406779661,171.92610169491527 82.4742372881356,168.53661016949152 82.52169491525424,165.1471186440678 82.56915254237288,161.75762711864408 82.61661016949152,158.36813559322033 82.66406779661017,154.9786440677966 82.71152542372882,151.5891525423729 82.75898305084746,148.19966101694916 82.8064406779661,144.81016949152544 82.85389830508475,141.4206779661017 82.90135593220339,138.03118644067797 82.94881355932205,134.64169491525425 82.99661016949152,131.25220338983053 83.04406779661016,127.86271186440679 83.08033898305084,125.27457627118643"/>
            <path fill="none" d="M 101.91627118644068,315.63220338983047 101.96372881355933,312.2427118644068 102.01118644067797,308.8532203389831 102.05898305084746,305.4637288135593 102.1064406779661,302.0742372881356 102.15389830508474,298.6847457627118 102.20135593220341,295.29525423728813 102.24881355932204,291.90576271186444 102.29627118644066,288.5162711864407 102.34372881355931,285.12677966101694 102.39118644067796,281.7372881355932 102.43864406779662,278.34779661016944 102.48610169491525,274.95830508474575 102.5335593220339,271.56881355932205 102.5813559322034,268.1793220338983 102.62881355932203,264.78983050847455 102.67627118644067,261.4003389830508 102.72372881355933,258.01084745762705 102.77118644067798,254.6213559322034 102.81864406779661,251.23186440677964 102.86610169491526,247.8423728813559 102.9135593220339,244.45288135593216 102.96101694915254,241.06338983050844 103.00847457627118,237.67389830508475 103.0562711864407,234.284406779661 103.10372881355931,230.89491525423728 103.15118644067796,227.50542372881353 103.1986440677966,224.11593220338983 103.24610169491525,220.72644067796608 103.2935593220339,217.33694915254236 103.34101694915255,213.9474576271186 103.38847457627118,210.5579661016949 103.43593220338985,207.1684745762712 103.48338983050849,203.77898305084744 103.53118644067796,200.38949152542372 103.57864406779662,197.0 103.62610169491526,193.61050847457625 103.67355932203391,190.22101694915256 103.72101694915254,186.83118644067798 103.76847457627119,183.44169491525423 103.81593220338982,180.0522033898305 103.86338983050847,176.66271186440676 103.91084745762711,173.27322033898304 103.95830508474577,169.88372881355932 104.0057627118644,166.4942372881356 104.0535593220339,163.10474576271184 104.10101694915255,159.71525423728815 104.14847457627118,156.3257627118644 104.19593220338983,152.93627118644068 104.24338983050848,149.54677966101696 104.29084745762714,146.1572881355932 104.33830508474576,142.76779661016948 104.38576271186439,139.37830508474576 104.43322033898303,135.988813559322 104.4806779661017,132.59932203389832 104.52813559322034,129.20983050847457 104.5864406779661,125.06338983050848"/>
            <path fill="none" d="M 100.34813559322033,316.1430508474576 100.39593220338983,312.7535593220339 100.44338983050847,309.3640677966102 100.49084745762711,305.97457627118644 100.53830508474577,302.5850847457627 100.58576271186442,299.19559322033894 100.63322033898305,295.80610169491524 100.6806779661017,292.4166101694915 100.72813559322036,289.0271186440678 100.77559322033898,285.63762711864405 100.82305084745762,282.2481355932203 100.87050847457625,278.8586440677966 100.91830508474577,275.46915254237285 100.96576271186439,272.07966101694916 101.01322033898303,268.6901694915254 101.0606779661017,265.30067796610166 101.10813559322034,261.91118644067797 101.15559322033899,258.5216949152542 101.20305084745762,255.1322033898305 101.25050847457628,251.74271186440674 101.29796610169493,248.35322033898305 101.34542372881357,244.96372881355933 101.39322033898306,241.57389830508475 101.4406779661017,238.184406779661 101.48813559322033,234.79491525423728 101.53559322033898,231.40542372881353 101.58305084745763,228.01593220338984 101.63050847457626,224.62644067796612 101.6779661016949,221.23694915254237 101.72542372881355,217.84745762711864 101.77288135593221,214.4579661016949 101.82033898305085,211.0684745762712 101.86779661016949,207.67898305084748 101.91559322033899,204.28949152542373 101.96305084745762,200.89999999999998 102.01050847457627,197.51050847457626 102.05796610169493,194.12101694915256 102.10542372881358,190.7315254237288 102.15288135593221,187.3420338983051 102.20033898305086,183.95254237288134 102.24779661016947,180.56305084745762 102.29525423728813,177.17355932203392 102.34271186440678,173.78406779661017 102.39050847457627,170.39457627118645 102.43796610169491,167.00508474576273 102.48542372881356,163.61559322033898 102.53288135593219,160.22610169491526 102.58033898305085,156.83661016949154 102.6277966101695,153.44711864406779 102.67525423728814,150.05762711864406 102.72271186440678,146.66813559322034 102.77016949152544,143.27864406779662 102.81762711864405,139.8891525423729 102.86542372881355,136.49966101694915 102.91288135593221,133.11016949152543 102.96033898305086,129.7206779661017 103.01830508474576,125.57423728813559"/>
            <path fill="none" d="M 71.99559322033899,116.4006779661017 71.78203389830509,116.47016949152543 71.73457627118644,119.85966101694916 71.71627118644068,121.16542372881356 74.90406779661018,122.31796610169492 78.09186440677966,123.47084745762712 81.27966101694916,124.62338983050847 81.53728813559323,124.71661016949152 83.08033898305084,125.27457627118643 83.09050847457627,125.2779661016949 84.63322033898305,125.83593220338985 87.82101694915254,126.98881355932204 90.16,127.83423728813558 90.16,127.83423728813558"/>
            <path fill="none" d="M 90.2257627118644,123.13898305084746 87.03796610169492,121.98644067796612 83.85016949152543,120.83389830508473 80.66237288135594,119.68101694915254 77.4742372881356,118.52847457627118 74.2864406779661,117.37593220338984 71.78203389830509,116.47016949152543"/>
            <path fill="none" d="M 90.43966101694916,123.06949152542373 90.2257627118644,123.13898305084746 90.17830508474577,126.5284745762712 90.16,127.83423728813558"/>
            <path fill="none" d="M 92.96508474576271,128.8484745762712 92.99220338983051,126.91186440677966 93.0308474576271,124.15355932203389"/>
            <path fill="none" d="M 114.62745762711866,117.11898305084745 111.40440677966102,118.16881355932203 108.18101694915254,119.2186440677966 104.9579661016949,120.26847457627116 101.73491525423728,121.31830508474577 98.51152542372881,122.36813559322033 95.28847457627118,123.41796610169493 93.04949152542372,124.1471186440678 93.0308474576271,124.15355932203389 90.2257627118644,123.13898305084746"/>
            <path fill="none" d="M 90.43966101694916,123.06949152542373 90.2257627118644,123.13898305084746 90.1871186440678,125.88474576271187 90.16,127.83423728813558 90.16,127.83423728813558 92.96508474576271,128.8484745762712 96.18813559322034,127.7986440677966 99.41152542372882,126.74881355932203 101.4606779661017,126.0813559322034 103.01830508474576,125.57423728813559 103.02881355932203,125.57084745762712 104.5864406779661,125.06338983050848 107.80949152542374,124.01355932203388 111.0328813559322,122.96372881355933 114.25593220338983,121.91389830508474 114.56169491525424,121.81423728813559 114.60915254237287,118.42474576271186 114.62745762711866,117.11898305084745 114.41694915254237,117.04305084745764"/>
            <path fill="none" d="M 93.52779661016949,88.79355932203389 93.48033898305084,92.18305084745762 93.43254237288134,95.57254237288136 93.3850847457627,98.96203389830508 93.33661016949154,102.43898305084747 93.33050847457626,102.87457627118646 93.32745762711863,103.09627118644069 93.27966101694915,106.48576271186441 93.23220338983052,109.87525423728815 93.18474576271186,113.26474576271185 93.15661016949153,115.28338983050847 93.14745762711865,115.94067796610167 93.14711864406779,115.95152542372882 93.14135593220338,116.37932203389832 93.12169491525424,117.76983050847458 93.1149152542373,118.25728813559321 93.06745762711863,121.64677966101695 93.05966101694916,122.204406779661 93.0593220338983,122.21627118644068 93.05830508474577,122.28440677966101 93.05152542372882,122.76847457627117 93.04474576271188,123.25220338983051 93.0342372881356,124.00779661016948 90.43966101694916,123.06949152542373 90.43966101694916,123.06949152542373 87.25186440677966,121.91694915254236 84.06372881355932,120.76406779661018 80.87593220338984,119.61152542372882 77.68813559322034,118.45898305084745 74.60779661016949,117.3450847457627 71.99559322033899,116.4006779661017"/>
            <path fill="none" d="M 93.74711864406778,123.77525423728815 93.74711864406778,123.7749152542373 93.75389830508475,123.29118644067796 93.75762711864407,123.0206779661017 93.76440677966103,122.53661016949154 93.76440677966103,122.53254237288135 93.77118644067797,122.0522033898305 93.7722033898305,121.98406779661018 93.81966101694914,118.59457627118644 93.82745762711863,118.02915254237287 93.82779661016947,118.0250847457627 93.8342372881356,117.54474576271186 93.85389830508475,116.15525423728815 93.85389830508475,116.15084745762712 93.86,115.71966101694915 93.86,115.71966101694915 93.86915254237287,115.06203389830507 93.86915254237287,115.06203389830507 93.91661016949152,111.67254237288135 93.96406779661018,108.28305084745762 94.00813559322035,105.13322033898305 94.03457627118644,103.25525423728814 94.03457627118644,103.25525423728814 94.04305084745764,102.64203389830509 94.04305084745764,102.64169491525423 94.04372881355931,102.59796610169491 94.04372881355931,102.59796610169491 94.09118644067797,99.20847457627119 94.1386440677966,95.81898305084746 94.18610169491525,92.42949152542373 94.23389830508475,89.03999999999999 94.24033898305085,88.56135593220338 94.09118644067797,88.50745762711864 93.67389830508476,88.35661016949152 93.55050847457626,88.31186440677965 93.55050847457626,88.31186440677965 93.5464406779661,88.31050847457628 93.53999999999999,88.30813559322036 93.5393220338983,88.30779661016949 93.53525423728813,88.30644067796611 92.91491525423729,88.08203389830508 92.91457627118645,88.08203389830508 92.83389830508474,88.05288135593219 92.83355932203389,88.05254237288136 89.64576271186439,86.9 88.47322033898305,86.47593220338983 87.84203389830509,86.24779661016949 84.65423728813559,85.09525423728815 82.60542372881356,84.3542372881356 81.9742372881356,84.12610169491526 78.7864406779661,82.97355932203389 75.56237288135593,81.80779661016949 75.56203389830507,81.80745762711864 74.93152542372881,81.57966101694916 74.93152542372881,81.57966101694916 74.29559322033899,81.34983050847457 74.29525423728813,81.34949152542373 73.59016949152543,81.09457627118644 73.20169491525424,80.95423728813559 72.48915254237288,81.1864406779661 72.44169491525425,84.57593220338983 72.39423728813559,87.96542372881355 72.34677966101695,91.35491525423728 72.29898305084747,94.744406779661 72.25152542372881,98.13389830508474 72.20406779661018,101.52338983050848 72.15661016949151,104.9128813559322 72.1091525423729,108.30237288135594 72.06169491525424,111.69186440677964 72.01423728813559,115.0813559322034 71.99559322033899,116.4006779661017"/>
            <path fill="none" d="M 94.24033898305085,88.56135593220338 93.54372881355933,88.78813559322035 93.53322033898304,88.79152542372881 93.53254237288135,88.79186440677965 93.52779661016949,88.79355932203389 92.90847457627119,88.56949152542371 92.82711864406778,88.54033898305084 89.6393220338983,87.38745762711865 87.83525423728813,86.73525423728815 84.64745762711865,85.58237288135592 82.01796610169492,84.63186440677966 78.83016949152542,83.47932203389831 75.64237288135594,82.3264406779661 75.55559322033899,82.29525423728813 74.92440677966101,82.0671186440678 74.28915254237289,81.83728813559321 73.58338983050847,81.58203389830508 72.48915254237288,81.1864406779661"/>
            <path fill="none" d="M 93.5671186440678,87.11762711864407 93.5671186440678,87.11762711864407 90.37932203389832,85.96508474576271 88.48983050847458,85.28169491525423 87.8586440677966,85.05355932203389 84.67084745762712,83.90101694915253 84.35152542372882,83.78542372881356 83.72033898305085,83.55728813559323 80.53254237288135,82.40474576271185 77.34474576271187,81.25186440677966 75.57932203389831,80.61355932203391 75.57932203389831,80.61355932203391 74.94813559322034,80.38542372881355 74.94813559322034,80.38542372881355 74.94813559322034,80.38542372881355 74.30677966101695,80.59423728813559 74.94203389830508,80.82406779661018 75.57322033898305,81.05220338983051 78.76101694915253,82.20508474576272 81.94881355932203,83.35762711864407 83.71016949152542,83.99457627118643 86.89796610169492,85.1471186440678 87.85254237288136,85.49220338983051 91.04033898305084,86.64508474576272 92.92474576271186,87.3264406779661 92.92508474576272,87.3264406779661 92.92542372881356,87.3264406779661"/>
            <path fill="none" d="M 92.83796610169492,87.78474576271186 92.8342372881356,88.05288135593219"/>
            <path fill="none" d="M 93.55050847457626,87.55254237288135 93.55050847457626,87.55254237288135 92.92542372881356,87.3264406779661 92.92508474576272,87.3264406779661 89.73728813559323,86.17389830508473 88.48372881355931,85.7206779661017 87.85254237288136,85.49220338983051 84.66474576271187,84.33966101694915 83.71016949152542,83.99457627118643 83.07898305084746,83.7664406779661 79.89118644067797,82.61355932203391 76.70338983050847,81.46101694915254 75.5728813559322,81.05220338983051 75.57254237288136,81.05220338983051 74.94203389830508,80.82406779661018 74.94203389830508,80.82406779661018 74.30677966101695,80.59423728813559 73.59389830508475,80.82644067796609 73.59016949152543,81.09457627118644"/>
            <path fill="none" d="M 93.55050847457626,87.55254237288135 92.91966101694915,87.75796610169493 92.83796610169492,87.78474576271186 89.65016949152543,86.63220338983051 87.84576271186441,85.97966101694915 84.65796610169491,84.8271186440678 82.99728813559322,84.22677966101695 79.80949152542372,83.07389830508475 76.62169491525424,81.92135593220338 75.5664406779661,81.53966101694915 74.93525423728813,81.31152542372881 74.29966101694914,81.08169491525425 73.59389830508475,80.82644067796609"/>
            <path fill="none" d="M 113.12203389830509,81.18203389830508 113.12203389830509,81.18203389830508 112.49084745762713,80.95389830508475 112.49084745762713,80.95389830508475 109.26779661016948,82.00372881355932 106.04474576271186,83.0535593220339 102.82135593220339,84.10338983050846 99.59830508474576,85.15322033898305 96.37525423728815,86.20305084745763 94.32915254237288,86.86949152542373 94.32915254237288,86.86949152542373 93.69186440677967,87.07728813559321 93.5671186440678,87.11762711864407"/>
            <path fill="none" d="M 93.5671186440678,87.11762711864407 92.92576271186441,87.32677966101694 92.92576271186441,87.32677966101694 92.92576271186441,87.32677966101694"/>
            <path fill="none" d="M 113.12203389830509,81.18203389830508 113.12203389830509,81.18203389830508 112.48474576271185,81.38983050847457 109.26169491525424,82.43966101694915 106.03864406779661,83.48949152542373 102.81525423728814,84.5393220338983 99.59220338983052,85.58915254237289 96.36915254237289,86.63898305084746 94.32305084745762,87.30542372881357 93.56101694915255,87.5535593220339 93.55694915254237,87.55491525423727 93.55050847457626,87.55254237288135 92.92576271186441,87.32677966101694"/>
            <path fill="none" d="M 102.24406779661017,104.96440677966102 105.4671186440678,103.91457627118643 108.69050847457626,102.86474576271188 108.80135593220339,102.82847457627118 108.80474576271186,102.82745762711865 108.8135593220339,102.19830508474577 108.81152542372882,102.19762711864406"/>
            <path fill="none" d="M 108.99932203389831,88.80677966101696 108.99898305084747,88.8071186440678 108.78881355932204,88.87559322033897 108.52203389830508,88.96237288135595"/>
            <path fill="none" d="M 109.00101694915254,88.80745762711865 108.99932203389831,88.80677966101696"/>
            <path fill="none" d="M 108.81152542372882,102.19762711864406 108.85898305084747,98.80813559322034 108.90644067796612,95.4186440677966 108.95389830508475,92.02915254237288 108.99898305084747,88.80813559322033"/>
            <path fill="none" d="M 108.33559322033896,102.35355932203389 108.33559322033896,102.35254237288136 108.33898305084746,102.1050847457627 108.34033898305084,102.0271186440678 108.3877966101695,98.63762711864406 108.43525423728815,95.24813559322035 108.43762711864406,95.06542372881356 108.43796610169491,95.04101694915254 108.4464406779661,94.43627118644068 108.44677966101695,94.41186440677966 108.4942372881356,91.02237288135593 108.52338983050846,88.96305084745761"/>
            <path fill="none" d="M 108.33389830508473,102.35322033898306 108.33559322033896,102.35355932203389 108.33389830508473,102.35322033898306 108.33389830508473,102.35322033898306 108.2064406779661,102.30711864406778 107.98406779661016,102.22677966101696"/>
            <path fill="none" d="M 107.7257627118644,102.13322033898305 107.72372881355933,102.13254237288136 107.7257627118644,102.13322033898305"/>
            <path fill="none" d="M 107.95491525423728,94.26406779661018 107.94271186440679,94.26779661016948 107.88677966101696,94.28610169491526 107.83355932203389,94.30338983050848 107.78474576271186,94.31932203389832 107.73423728813557,94.33593220338983 107.62677966101694,94.37084745762712 107.6193220338983,94.37322033898306 107.61288135593222,94.37525423728813 107.60745762711865,94.37728813559323 106.98203389830508,94.58101694915254 104.92915254237288,95.24949152542372 102.36847457627118,96.08372881355932"/>
            <path fill="none" d="M 108.43762711864406,95.06542372881356 108.4735593220339,95.05389830508474 108.48237288135594,94.42474576271186"/>
            <path fill="none" d="M 102.36372881355933,96.41762711864408 105.41288135593221,95.42440677966101 106.97728813559324,94.9149152542373 107.60271186440677,94.71118644067798 107.60813559322035,94.70949152542372 107.82881355932203,94.63762711864406 107.83830508474577,94.63457627118646 107.86610169491524,94.62542372881356 107.9501694915254,94.59796610169492 107.99016949152542,94.58508474576271 108.32677966101696,94.47525423728813 108.44101694915254,94.43830508474576 108.44474576271186,94.43694915254237"/>
            <path fill="none" d="M 102.3549152542373,97.04677966101696 105.40406779661018,96.0535593220339 106.96847457627119,95.54406779661018 107.59389830508475,95.34033898305086 107.5993220338983,95.33864406779662 107.60576271186441,95.33661016949152 107.7464406779661,95.29084745762711 107.82000000000001,95.26677966101694 107.88813559322033,95.24474576271186 107.92949152542373,95.23118644067797 107.9413559322034,95.2271186440678 108.30745762711864,95.10813559322034 108.31796610169494,95.104406779661 108.4322033898305,95.06745762711864 108.43593220338983,95.06610169491525"/>
            <path fill="none" d="M 102.37728813559322,95.45762711864407 105.60033898305086,94.4077966101695 106.99050847457627,93.95491525423728 107.2901694915254,93.85728813559324 107.2901694915254,93.85728813559324 107.33762711864408,90.46779661016949 107.34983050847458,89.61525423728813"/>
            <path fill="none" d="M 107.39559322033898,93.895593220339 107.2901694915254,93.85728813559324"/>
            <path fill="none" d="M 102.37627118644068,95.53016949152543 105.5993220338983,94.48033898305084 106.98983050847457,94.02779661016949 107.39559322033898,93.895593220339 107.44305084745763,90.50610169491526 107.45593220338982,89.58067796610169 107.34983050847458,89.61525423728813 107.20813559322033,89.66135593220338 107.10203389830508,89.69593220338984 107.05016949152541,89.71288135593221 103.82677966101694,90.76271186440678 102.43661016949153,91.21559322033899"/>
            <path fill="none" d="M 94.50305084745763,74.44983050847458 94.50305084745763,74.44983050847458 93.87186440677966,74.22169491525425 90.64881355932202,75.27152542372882 87.42542372881354,76.32135593220339 84.20237288135593,77.37118644067796 80.9793220338983,78.42101694915254 77.75593220338983,79.47084745762712 74.94813559322034,80.38542372881355 74.94813559322034,80.38542372881355"/>
            <path fill="none" d="M 113.81322033898307,81.70406779661018 113.81728813559322,81.4335593220339 113.12203389830509,81.18203389830508"/>
            <path fill="none" d="M 93.5393220338983,88.03830508474577 93.54372881355933,88.03694915254238 93.55457627118643,88.03322033898304 94.31627118644069,87.7850847457627 97.5393220338983,86.73525423728815 100.76237288135594,85.68542372881356 103.9857627118644,84.63559322033899 107.20881355932204,83.5857627118644 110.43186440677965,82.53593220338983 112.47830508474574,81.86949152542373 113.11559322033898,81.66203389830508 113.81728813559322,81.4335593220339"/>
            <path fill="none" d="M 113.11593220338982,81.17999999999999 112.4850847457627,81.38542372881355 112.4850847457627,81.38542372881355 109.26169491525424,82.43525423728813 106.03864406779661,83.48508474576272 102.81559322033897,84.53491525423729 99.59220338983052,85.58474576271186 96.36915254237289,86.63457627118643 94.32305084745762,87.30101694915254 94.32305084745762,87.30101694915254 93.68576271186441,87.50847457627118 93.56135593220338,87.54915254237288 93.56135593220338,87.54915254237288 93.55050847457626,87.55254237288135"/>
            <path fill="none" d="M 92.83796610169492,87.78474576271186 92.91898305084746,87.8142372881356 93.5393220338983,88.03830508474577 93.53525423728813,88.30644067796611"/>
            <path fill="none" d="M 92.91932203389831,87.75830508474576 92.91898305084746,87.75830508474576 92.83796610169492,87.78474576271186 92.8342372881356,88.05288135593219"/>
            <path fill="none" d="M 93.74711864406778,123.77559322033898 93.75762711864407,123.0206779661017 93.76440677966103,122.53254237288135 93.7722033898305,121.98406779661018 93.81966101694914,118.59457627118644 93.82745762711863,118.02915254237287 93.8342372881356,117.54474576271186 93.85389830508475,116.15525423728815 93.86,115.71966101694915 93.86915254237287,115.06203389830507 93.91661016949152,111.67254237288135 93.96406779661018,108.28305084745762 94.01152542372881,104.89355932203388 94.03457627118644,103.25525423728814 94.04305084745764,102.64237288135594 94.04372881355931,102.59796610169491 94.09118644067797,99.20847457627119 94.1386440677966,95.81898305084746 94.18610169491525,92.42949152542373 94.23389830508475,89.03999999999999 94.24033898305085,88.56135593220338"/>
            <path fill="none" d="M 114.91050847457626,81.82881355932203 113.80644067796611,82.18847457627119 113.10474576271186,82.41694915254237 112.46745762711865,82.624406779661 109.24440677966103,83.67423728813559 106.02135593220339,84.72406779661017 102.79796610169491,85.77389830508474 99.57491525423728,86.82372881355931 96.35186440677967,87.87355932203388 94.3057627118644,88.53999999999999 94.24033898305085,88.56135593220338 94.09118644067797,88.50745762711864"/>
            <path fill="none" d="M 102.23932203389829,105.30542372881355 102.24406779661017,104.96440677966102 102.24610169491524,104.82135593220339 102.24677966101694,104.77050847457627 102.24847457627118,104.6393220338983 102.24983050847459,104.55050847457625 102.25254237288135,104.34440677966101 102.2528813559322,104.33525423728813 102.25355932203391,104.2935593220339 102.25355932203391,104.29118644067796 102.25389830508476,104.25186440677967 102.25627118644067,104.09966101694914 102.25627118644067,104.09220338983052 102.25661016949152,104.07084745762711 102.25661016949152,104.06644067796609 102.25762711864408,104.00305084745764 102.25864406779661,103.92474576271185 102.25864406779661,103.91389830508476 102.26271186440678,103.63491525423728 102.31016949152543,100.24542372881355 102.3549152542373,97.04677966101696 102.35966101694916,96.7128813559322 102.3613559322034,96.5813559322034 102.36305084745763,96.45796610169491 102.36372881355933,96.41762711864408 102.36440677966104,96.36101694915253 102.36474576271186,96.33932203389831 102.36542372881357,96.29084745762711 102.36576271186439,96.26372881355933 102.36610169491527,96.24237288135595 102.36610169491527,96.23864406779661 102.3664406779661,96.23593220338984 102.3671186440678,96.1877966101695 102.36847457627118,96.08372881355932 102.36949152542374,96.01084745762712 102.37050847457627,95.94542372881355 102.37627118644068,95.53016949152543 102.37728813559322,95.45762711864407 102.3786440677966,95.36101694915254 102.37966101694916,95.28813559322035 102.42711864406782,91.89864406779661 102.43661016949153,91.21559322033899 102.43762711864406,91.14271186440678 102.43898305084747,91.04610169491527 102.44,90.97322033898304 102.44033898305085,90.94440677966101 102.44033898305085,90.94338983050848 102.44440677966102,90.65423728813559 105.66779661016949,89.60440677966103 107.05796610169493,89.15152542372881 107.60881355932203,88.97220338983051 107.68338983050847,88.94779661016949 107.68881355932206,88.94610169491526 107.69525423728814,88.94406779661017 107.90949152542373,88.87423728813559 107.96271186440678,88.85694915254237 108.01898305084745,88.83864406779661 108.03118644067797,88.83457627118645 108.10338983050846,88.81084745762713 108.10372881355931,88.81084745762713 108.39694915254239,88.71525423728814 108.40745762711865,88.71186440677967 108.46677966101694,88.69254237288135 108.52169491525423,88.67491525423729 108.58067796610169,88.65559322033899 108.58067796610169,88.65559322033899 108.79288135593221,88.5864406779661 109.00338983050848,88.51796610169491 109.5006779661017,88.35593220338981"/>
            <path fill="none" d="M 109.5006779661017,88.35593220338981 109.45322033898306,91.74542372881356 109.40576271186441,95.1349152542373 109.35830508474578,98.524406779661 109.31084745762712,101.91389830508474 109.29559322033899,103.0071186440678"/>
            <path fill="none" d="M 93.74711864406778,123.77559322033898 93.74711864406778,123.77559322033898 96.97016949152543,122.72576271186442 100.1935593220339,121.67593220338983 103.41661016949153,120.62610169491525 106.63966101694915,119.57627118644068 109.86305084745763,118.52644067796612 111.79728813559322,117.89627118644069 114.41694915254237,117.04305084745764 114.41694915254237,117.04305084745764 114.46440677966103,113.65355932203391 114.5122033898305,110.26406779661018 114.55966101694916,106.87457627118644 114.60711864406781,103.48508474576272 114.65457627118644,100.09559322033898 114.70203389830509,96.70610169491526 114.74949152542374,93.31661016949153 114.79694915254237,89.9271186440678 114.84440677966101,86.53762711864407 114.89186440677966,83.14813559322035 114.91050847457626,81.82881355932203 114.20915254237288,81.57525423728814 113.81322033898307,81.70406779661018 113.11152542372879,81.93288135593221 113.10542372881356,81.93491525423728 112.4742372881356,82.14033898305084 112.4742372881356,82.14033898305084 109.25118644067797,83.19016949152542 106.02813559322036,84.24000000000001 102.80474576271186,85.28983050847458 99.58169491525425,86.33966101694915 96.3586440677966,87.38949152542372 94.31254237288135,88.05593220338983 94.31254237288135,88.05593220338983 93.67525423728813,88.26338983050847 93.55050847457626,88.30406779661017 93.55050847457626,88.30406779661017 93.5464406779661,88.30542372881355 93.53999999999999,88.30745762711865 93.5393220338983,88.30779661016949"/>
            <path fill="none" d="M 108.80135593220339,102.82847457627118 109.29559322033899,103.0071186440678 106.07254237288134,104.05694915254237 102.84915254237288,105.10677966101696 102.23932203389829,105.30542372881355"/>
            <path fill="none" d="M 112.49084745762713,80.95389830508475 109.30305084745764,79.80135593220339 106.11525423728814,78.64881355932204 102.92745762711866,77.49593220338983 99.73966101694917,76.34338983050847 96.55186440677966,75.19084745762711 94.50305084745763,74.44983050847458 94.50305084745763,74.44983050847458 93.8657627118644,74.65762711864407 90.64271186440679,75.70745762711863 87.41932203389831,76.75728813559321 84.19627118644067,77.8071186440678 80.97322033898305,78.85694915254237 77.74983050847457,79.90677966101694 75.57932203389831,80.61355932203391"/>
            <path fill="none" d="M 74.94813559322034,80.38542372881355 74.94813559322034,80.38542372881355"/>
            <path fill="none" d="M 81.53728813559323,124.71661016949152 81.48983050847458,128.10610169491525 81.44237288135592,131.49559322033898 81.39491525423729,134.8850847457627 81.34745762711864,138.27457627118645 81.30000000000001,141.66406779661017 81.25254237288135,145.0535593220339 81.20508474576272,148.4430508474576 81.15762711864406,151.83254237288136 81.10983050847457,155.22203389830506 81.06237288135593,158.6115254237288 81.01491525423728,162.00101694915253 80.96745762711865,165.39050847457625 80.92,168.78 80.87254237288136,172.16949152542372 80.82508474576271,175.55898305084744 80.77762711864406,178.9484745762712 80.73016949152543,182.33796610169492 80.68271186440678,185.7274576271186 80.63491525423728,189.11694915254236 80.58745762711864,192.50644067796608 80.54,195.89593220338983 80.49254237288136,199.28542372881358 80.44508474576271,202.67491525423728 80.39762711864407,206.064406779661 80.35016949152542,209.45389830508475 80.30271186440679,212.84338983050847 80.25525423728813,216.23288135593216 80.2077966101695,219.62237288135591 80.16033898305085,223.01186440677964 80.11254237288135,226.4013559322034 80.06508474576272,229.79084745762714 80.01762711864406,233.18067796610168 79.97016949152543,236.57016949152543 79.92271186440678,239.95966101694913 79.87525423728815,243.34915254237285 79.82779661016949,246.7386440677966 79.78033898305085,250.12813559322035 79.7328813559322,253.51762711864407 79.68542372881356,256.9071186440678 79.63762711864408,260.2966101694915 79.59016949152542,263.68610169491524 79.54271186440678,267.075593220339 79.49525423728814,270.46508474576274 79.44779661016949,273.85457627118643 79.40033898305084,277.2440677966101 79.3528813559322,280.6335593220339 79.30542372881357,284.0230508474576 79.25796610169492,287.4125423728814 79.21050847457627,290.8020338983051 79.16305084745763,294.1915254237288 79.11525423728814,297.5810169491525 79.0677966101695,300.97050847457626 79.02033898305085,304.36 78.9728813559322,307.74949152542376 78.92542372881356,311.13898305084746 78.87796610169492,314.52847457627115 78.83050847457628,317.9179661016949 78.78305084745763,321.30745762711865 78.73559322033898,324.6969491525424 78.68813559322034,328.08644067796615 78.64033898305085,331.47593220338985 78.60406779661017,334.0640677966102"/>
            <path fill="none" d="M 93.5671186440678,87.11762711864407 90.37932203389832,85.96508474576271 87.8586440677966,85.05355932203389 84.67084745762712,83.90101694915253 84.35152542372882,83.78542372881356 81.16372881355932,82.6328813559322 77.97593220338983,81.48033898305084 75.57932203389831,80.61355932203391"/>
            <path fill="none" d="M 75.57932203389831,80.61355932203391 78.80237288135594,79.56372881355932 82.0257627118644,78.51389830508475 85.24881355932203,77.46406779661017 88.47186440677966,76.4142372881356 91.69525423728813,75.36440677966101 94.50305084745763,74.44983050847458"/>
            <path fill="none" d="M 101.4606779661017,126.0813559322034 101.41322033898304,129.47084745762714 101.36576271186442,132.86033898305084 101.3179661016949,136.2501694915254 101.27050847457626,139.63966101694916 101.22305084745761,143.02915254237288 101.175593220339,146.4186440677966 101.12813559322034,149.80813559322036 101.08067796610169,153.19762711864405 101.03322033898306,156.5871186440678 100.98576271186441,159.97661016949152 100.93830508474575,163.36610169491524 100.8908474576271,166.75559322033897 100.84305084745763,170.14508474576272 100.79559322033897,173.53457627118644 100.74813559322034,176.9240677966102 100.7006779661017,180.31355932203388 100.65322033898305,183.7030508474576 100.60576271186439,187.09254237288135 100.55830508474577,190.4820338983051 100.51084745762712,193.87152542372883 100.46338983050849,197.26101694915252 100.41593220338983,200.65050847457627 100.36847457627118,204.04 100.32067796610171,207.42949152542374 100.27322033898305,210.81898305084746 100.2257627118644,214.20847457627116 100.17830508474577,217.5979661016949 100.13084745762713,220.98745762711866 100.08338983050847,224.37694915254238 100.03593220338982,227.76644067796607 99.98847457627119,231.15593220338982 99.94101694915256,234.54542372881355 99.89355932203388,237.9349152542373 99.84576271186441,241.32440677966102 99.79830508474575,244.7138983050847 99.75084745762712,248.10338983050846 99.70338983050847,251.49288135593218 99.65593220338982,254.88237288135593 99.6084745762712,258.2718644067797 99.56101694915253,261.6613559322034 99.5135593220339,265.0508474576271 99.46610169491525,268.4403389830508 99.4186440677966,271.8298305084746 99.37118644067796,275.2193220338983 99.32338983050848,278.608813559322 99.27593220338983,281.99830508474577 99.22847457627118,285.38779661016946 99.18101694915255,288.7772881355932 99.1335593220339,292.16677966101696 99.08610169491524,295.55627118644065 99.03864406779661,298.9457627118644 98.99118644067796,302.33525423728815 98.94372881355933,305.72474576271185 98.89627118644069,309.11423728813554 98.8484745762712,312.5037288135593 98.80542372881355,315.58508474576274"/>
            <path fill="none" d="M 107.82000000000001,95.26677966101694 107.77254237288135,98.65627118644068 107.7250847457627,102.04983050847459 107.7250847457627,102.05016949152544 107.72372881355933,102.13254237288136"/>
            <path fill="none" d="M 107.7257627118644,102.13322033898305 107.65016949152542,102.15796610169492 107.50949152542373,102.20372881355932 107.50305084745764,102.20576271186441 107.49762711864406,102.20745762711864 107.28,102.27830508474575 104.05694915254237,103.32813559322034 102.25864406779661,103.91389830508476"/>
            <path fill="none" d="M 108.4464406779661,94.43627118644068 108.48237288135594,94.42474576271186"/>
            <path fill="none" d="M 108.43593220338983,95.06610169491525 108.3884745762712,98.45559322033898 108.34101694915255,101.8450847457627 108.33864406779661,102.02644067796611 108.33728813559323,102.10440677966102 108.33389830508473,102.35322033898306"/>
            <path fill="none" d="M 108.52169491525423,88.96372881355931 108.47389830508473,92.35322033898305 108.44508474576271,94.41152542372882 108.44474576271186,94.43694915254237"/>
            <path fill="none" d="M 102.2528813559322,104.33525423728813 105.47593220338982,103.28542372881356 107.9128813559322,102.49152542372882 108.60101694915254,102.26745762711865 108.8135593220339,102.19830508474577"/>
            <path fill="none" d="M 108.52203389830508,88.96237288135595 108.52169491525423,88.96271186440677 108.51762711864407,88.96372881355931 108.40372881355933,89.00101694915254 108.0271186440678,89.12372881355934 107.9586440677966,89.14576271186442 107.90542372881357,89.16305084745763 107.68474576271187,89.23525423728815 107.6793220338983,89.23694915254238 107.60474576271189,89.2613559322034 107.05389830508476,89.4406779661017 103.83084745762712,90.49050847457627 102.44033898305085,90.94338983050848"/>
            <path fill="none" d="M 102.44033898305085,90.94440677966101 105.66372881355932,89.89457627118644 107.05389830508476,89.44169491525425 107.60474576271189,89.26237288135593 107.6793220338983,89.23796610169492 107.68474576271187,89.23627118644069 107.69118644067797,89.23423728813559 107.90542372881357,89.16440677966102 107.9586440677966,89.14711864406779 108.0149152542373,89.12881355932204 108.0271186440678,89.12474576271187 108.39288135593222,89.0057627118644 108.40338983050847,89.00203389830507 108.51762711864407,88.96508474576271 108.52169491525423,88.96372881355931 108.52338983050846,88.96305084745761 108.60169491525424,88.93762711864406 108.71593220338983,88.90033898305084 108.78881355932204,88.87661016949153 108.99898305084747,88.80813559322033 109.00101694915254,88.80745762711865"/>
            <path fill="none" d="M 108.99932203389831,88.80677966101696 109.00338983050848,88.51796610169491"/>
            <path fill="none" d="M 94.32915254237288,86.86949152542373 93.5671186440678,87.11762711864407"/>
        </g>
    </g>
</svg>