  0
SECTION
  2
HEADER
  9
$ACADVER
  1
AC1024
  9
$ACADMAINTVER
 70
6
  9
$DWGCODEPAGE
  3
ANSI_1252
  9
$LASTSAVEDBY
  1
ezdxf
  9
$INSBASE
 10
0.0
 20
0.0
 30
0.0
  9
$EXTMIN
 10
1e+20
 20
1e+20
 30
1e+20
  9
$EXTMAX
 10
-1e+20
 20
-1e+20
 30
-1e+20
  9
$LIMMIN
 10
0.0
 20
0.0
  9
$LIMMAX
 10
420.0
 20
297.0
  9
$ORTHOMODE
 70
0
  9
$REGENMODE
 70
1
  9
$FILLMODE
 70
1
  9
$QTEXTMODE
 70
0
  9
$MIRRTEXT
 70
1
  9
$LTSCALE
 40
1.0
  9
$ATTMODE
 70
1
  9
$TEXTSIZE
 40
2.5
  9
$TRACEWID
 40
1.0
  9
$TEXTSTYLE
  7
Standard
  9
$CLAYER
  8
0
  9
$CELTYPE
  6
ByLayer
  9
$CECOLOR
 62
256
  9
$CELTSCALE
 40
1.0
  9
$DISPSILH
 70
0
  9
$DIMSCALE
 40
1.0
  9
$DIMASZ
 40
2.5
  9
$DIMEXO
 40
0.625
  9
$DIMDLI
 40
3.75
  9
$DIMRND
 40
0.0
  9
$DIMDLE
 40
0.0
  9
$DIMEXE
 40
1.25
  9
$DIMTP
 40
0.0
  9
$DIMTM
 40
0.0
  9
$DIMTXT
 40
2.5
  9
$DIMCEN
 40
2.5
  9
$DIMTSZ
 40
0.0
  9
$DIMTOL
 70
0
  9
$DIMLIM
 70
0
  9
$DIMTIH
 70
0
  9
$DIMTOH
 70
0
  9
$DIMSE1
 70
0
  9
$DIMSE2
 70
0
  9
$DIMTAD
 70
1
  9
$DIMZIN
 70
8
  9
$DIMBLK
  1

  9
$DIMASO
 70
1
  9
$DIMSHO
 70
1
  9
$DIMPOST
  1

  9
$DIMAPOST
  1

  9
$DIMALT
 70
0
  9
$DIMALTD
 70
3
  9
$DIMALTF
 40
0.03937007874
  9
$DIMLFAC
 40
1.0
  9
$DIMTOFL
 70
1
  9
$DIMTVP
 40
0.0
  9
$DIMTIX
 70
0
  9
$DIMSOXD
 70
0
  9
$DIMSAH
 70
0
  9
$DIMBLK1
  1

  9
$DIMBLK2
  1

  9
$DIMSTYLE
  2
ISO-25
  9
$DIMCLRD
 70
0
  9
$DIMCLRE
 70
0
  9
$DIMCLRT
 70
0
  9
$DIMTFAC
 40
1.0
  9
$DIMGAP
 40
0.625
  9
$DIMJUST
 70
0
  9
$DIMSD1
 70
0
  9
$DIMSD2
 70
0
  9
$DIMTOLJ
 70
0
  9
$DIMTZIN
 70
8
  9
$DIMALTZ
 70
0
  9
$DIMALTTZ
 70
0
  9
$DIMUPT
 70
0
  9
$DIMDEC
 70
2
  9
$DIMTDEC
 70
2
  9
$DIMALTU
 70
2
  9
$DIMALTTD
 70
3
  9
$DIMTXSTY
  7
Standard
  9
$DIMAUNIT
 70
0
  9
$DIMADEC
 70
0
  9
$DIMALTRND
 40
0.0
  9
$DIMAZIN
 70
0
  9
$DIMDSEP
 70
44
  9
$DIMATFIT
 70
3
  9
$DIMFRAC
 70
0
  9
$DIMLDRBLK
  1

  9
$DIMLUNIT
 70
2
  9
$DIMLWD
 70
-2
  9
$DIMLWE
 70
-2
  9
$DIMTMOVE
 70
0
  9
$DIMFXL
 40
1.0
  9
$DIMFXLON
 70
0
  9
$DIMJOGANG
 40
0.785398163397
  9
$DIMTFILL
 70
0
  9
$DIMTFILLCLR
 70
0
  9
$DIMARCSYM
 70
0
  9
$DIMLTYPE
  6

  9
$DIMLTEX1
  6

  9
$DIMLTEX2
  6

  9
$DIMTXTDIRECTION
 70
0
  9
$LUNITS
 70
2
  9
$LUPREC
 70
4
  9
$SKETCHINC
 40
1.0
  9
$FILLETRAD
 40
10.0
  9
$AUNITS
 70
0
  9
$AUPREC
 70
2
  9
$MENU
  1
.
  9
$ELEVATION
 40
0.0
  9
$PELEVATION
 40
0.0
  9
$THICKNESS
 40
0.0
  9
$LIMCHECK
 70
0
  9
$CHAMFERA
 40
0.0
  9
$CHAMFERB
 40
0.0
  9
$CHAMFERC
 40
0.0
  9
$CHAMFERD
 40
0.0
  9
$SKPOLY
 70
0
  9
$TDCREATE
 40
2460707.5558680557
  9
$TDUCREATE
 40
2458532.153996898
  9
$TDUPDATE
 40
2460707.5558680557
  9
$TDUUPDATE
 40
2458532.1544311
  9
$TDINDWG
 40
0.0
  9
$TDUSRTIMER
 40
0.0
  9
$USRTIMER
 70
1
  9
$ANGBASE
 50
0.0
  9
$ANGDIR
 70
0
  9
$PDMODE
 70
0
  9
$PDSIZE
 40
0.0
  9
$PLINEWID
 40
0.0
  9
$SPLFRAME
 70
0
  9
$SPLINETYPE
 70
6
  9
$SPLINESEGS
 70
8
  9
$HANDSEED
  5
1A0
  9
$SURFTAB1
 70
6
  9
$SURFTAB2
 70
6
  9
$SURFTYPE
 70
6
  9
$SURFU
 70
6
  9
$SURFV
 70
6
  9
$UCSBASE
  2

  9
$UCSNAME
  2

  9
$UCSORG
 10
0.0
 20
0.0
 30
0.0
  9
$UCSXDIR
 10
1.0
 20
0.0
 30
0.0
  9
$UCSYDIR
 10
0.0
 20
1.0
 30
0.0
  9
$UCSORTHOREF
  2

  9
$UCSORTHOVIEW
 70
0
  9
$UCSORGTOP
 10
0.0
 20
0.0
 30
0.0
  9
$UCSORGBOTTOM
 10
0.0
 20
0.0
 30
0.0
  9
$UCSORGLEFT
 10
0.0
 20
0.0
 30
0.0
  9
$UCSORGRIGHT
 10
0.0
 20
0.0
 30
0.0
  9
$UCSORGFRONT
 10
0.0
 20
0.0
 30
0.0
  9
$UCSORGBACK
 10
0.0
 20
0.0
 30
0.0
  9
$PUCSBASE
  2

  9
$PUCSNAME
  2

  9
$PUCSORG
 10
0.0
 20
0.0
 30
0.0
  9
$PUCSXDIR
 10
1.0
 20
0.0
 30
0.0
  9
$PUCSYDIR
 10
0.0
 20
1.0
 30
0.0
  9
$PUCSORTHOREF
  2

  9
$PUCSORTHOVIEW
 70
0
  9
$PUCSORGTOP
 10
0.0
 20
0.0
 30
0.0
  9
$PUCSORGBOTTOM
 10
0.0
 20
0.0
 30
0.0
  9
$PUCSORGLEFT
 10
0.0
 20
0.0
 30
0.0
  9
$PUCSORGRIGHT
 10
0.0
 20
0.0
 30
0.0
  9
$PUCSORGFRONT
 10
0.0
 20
0.0
 30
0.0
  9
$PUCSORGBACK
 10
0.0
 20
0.0
 30
0.0
  9
$USERI1
 70
0
  9
$USERI2
 70
0
  9
$USERI3
 70
0
  9
$USERI4
 70
0
  9
$USERI5
 70
0
  9
$USERR1
 40
0.0
  9
$USERR2
 40
0.0
  9
$USERR3
 40
0.0
  9
$USERR4
 40
0.0
  9
$USERR5
 40
0.0
  9
$WORLDVIEW
 70
1
  9
$SHADEDGE
 70
3
  9
$SHADEDIF
 70
70
  9
$TILEMODE
 70
1
  9
$MAXACTVP
 70
64
  9
$PINSBASE
 10
0.0
 20
0.0
 30
0.0
  9
$PLIMCHECK
 70
0
  9
$PEXTMIN
 10
1e+20
 20
1e+20
 30
1e+20
  9
$PEXTMAX
 10
-1e+20
 20
-1e+20
 30
-1e+20
  9
$PLIMMIN
 10
0.0
 20
0.0
  9
$PLIMMAX
 10
420.0
 20
297.0
  9
$UNITMODE
 70
0
  9
$VISRETAIN
 70
1
  9
$PLINEGEN
 70
0
  9
$PSLTSCALE
 70
1
  9
$TREEDEPTH
 70
3020
  9
$CMLSTYLE
  2
Standard
  9
$CMLJUST
 70
0
  9
$CMLSCALE
 40
20.0
  9
$PROXYGRAPHICS
 70
1
  9
$MEASUREMENT
 70
1
  9
$CELWEIGHT
370
-1
  9
$ENDCAPS
280
0
  9
$JOINSTYLE
280
0
  9
$LWDISPLAY
290
0
  9
$INSUNITS
 70
6
  9
$HYPERLINKBASE
  1

  9
$STYLESHEET
  1

  9
$XEDIT
290
1
  9
$CEPSNTYPE
380
0
  9
$PSTYLEMODE
290
1
  9
$FINGERPRINTGUID
  2
{E9D548EE-B821-409D-9D43-EB34DCF94EB3}
  9
$VERSIONGUID
  2
{7BC9FC3F-773F-41BC-8645-3C6196658F38}
  9
$EXTNAMES
290
1
  9
$PSVPSCALE
 40
0.0
  9
$OLESTARTUP
290
0
  9
$SORTENTS
280
127
  9
$INDEXCTL
280
0
  9
$HIDETEXT
280
1
  9
$XCLIPFRAME
280
1
  9
$HALOGAP
280
0
  9
$OBSCOLOR
 70
257
  9
$OBSLTYPE
280
0
  9
$INTERSECTIONDISPLAY
280
0
  9
$INTERSECTIONCOLOR
 70
257
  9
$DIMASSOC
280
2
  9
$PROJECTNAME
  1

  9
$CAMERADISPLAY
290
0
  9
$LENSLENGTH
 40
50.0
  9
$CAMERAHEIGHT
 40
0.0
  9
$STEPSPERSEC
 40
24.0
  9
$STEPSIZE
 40
100.0
  9
$3DDWFPREC
 40
2.0
  9
$PSOLWIDTH
 40
0.005
  9
$PSOLHEIGHT
 40
0.08
  9
$LOFTANG1
 40
1.570796326795
  9
$LOFTANG2
 40
1.570796326795
  9
$LOFTMAG1
 40
0.0
  9
$LOFTMAG2
 40
0.0
  9
$LOFTPARAM
 70
7
  9
$LOFTNORMALS
280
1
  9
$LATITUDE
 40
37.795
  9
$LONGITUDE
 40
-122.394
  9
$NORTHDIRECTION
 40
0.0
  9
$TIMEZONE
 70
-8000
  9
$LIGHTGLYPHDISPLAY
280
1
  9
$TILEMODELIGHTSYNCH
280
1
  9
$CMATERIAL
347
20
  9
$SOLIDHIST
280
0
  9
$SHOWHIST
280
1
  9
$DWFFRAME
280
2
  9
$DGNFRAME
280
2
  9
$REALWORLDSCALE
290
1
  9
$INTERFERECOLOR
 62
256
  9
$CSHADOW
280
0
  9
$SHADOWPLANELOCATION
 40
0.0
  0
ENDSEC
  0
SECTION
  2
CLASSES
  0
CLASS
  1
ACDBDICTIONARYWDFLT
  2
AcDbDictionaryWithDefault
  3
ObjectDBX Classes
 90
0
 91
0
280
0
281
0
  0
CLASS
  1
SUN
  2
AcDbSun
  3
SCENEOE
 90
1153
 91
0
280
0
281
0
  0
CLASS
  1
VISUALSTYLE
  2
AcDbVisualStyle
  3
ObjectDBX Classes
 90
4095
 91
0
280
0
281
0
  0
CLASS
  1
MATERIAL
  2
AcDbMaterial
  3
ObjectDBX Classes
 90
1153
 91
0
280
0
281
0
  0
CLASS
  1
SCALE
  2
AcDbScale
  3
ObjectDBX Classes
 90
1153
 91
0
280
0
281
0
  0
CLASS
  1
TABLESTYLE
  2
AcDbTableStyle
  3
ObjectDBX Classes
 90
4095
 91
0
280
0
281
0
  0
CLASS
  1
MLEADERSTYLE
  2
AcDbMLeaderStyle
  3
ACDB_MLEADERSTYLE_CLASS
 90
4095
 91
0
280
0
281
0
  0
CLASS
  1
DICTIONARYVAR
  2
AcDbDictionaryVar
  3
ObjectDBX Classes
 90
0
 91
0
280
0
281
0
  0
CLASS
  1
CELLSTYLEMAP
  2
AcDbCellStyleMap
  3
ObjectDBX Classes
 90
1152
 91
0
280
0
281
0
  0
CLASS
  1
MENTALRAYRENDERSETTINGS
  2
AcDbMentalRayRenderSettings
  3
SCENEOE
 90
1024
 91
0
280
0
281
0
  0
CLASS
  1
ACDBDETAILVIEWSTYLE
  2
AcDbDetailViewStyle
  3
ObjectDBX Classes
 90
1025
 91
0
280
0
281
0
  0
CLASS
  1
ACDBSECTIONVIEWSTYLE
  2
AcDbSectionViewStyle
  3
ObjectDBX Classes
 90
1025
 91
0
280
0
281
0
  0
CLASS
  1
RASTERVARIABLES
  2
AcDbRasterVariables
  3
ISM
 90
0
 91
0
280
0
281
0
  0
CLASS
  1
ACDBPLACEHOLDER
  2
AcDbPlaceHolder
  3
ObjectDBX Classes
 90
0
 91
0
280
0
281
0
  0
CLASS
  1
LAYOUT
  2
AcDbLayout
  3
ObjectDBX Classes
 90
0
 91
0
280
0
281
0
  0
ENDSEC
  0
SECTION
  2
TABLES
  0
TABLE
  2
VPORT
  5
8
330
0
100
AcDbSymbolTable
 70
1
  0
VPORT
  5
23
330
8
100
AcDbSymbolTableRecord
100
AcDbViewportTableRecord
  2
*Active
 70
0
 10
0.0
 20
0.0
 11
1.0
 21
1.0
 12
0.0
 22
0.0
 13
0.0
 23
0.0
 14
0.5
 24
0.5
 15
0.5
 25
0.5
 16
0.0
 26
0.0
 36
1.0
 17
0.0
 27
0.0
 37
0.0
 40
1000.0
 41
1.34
 42
50.0
 43
0.0
 44
0.0
 50
0.0
 51
0.0
 71
0
 72
1000
 73
1
 74
3
 75
0
 76
0
 77
0
 78
0
281
0
 65
0
146
0.0
  0
ENDTAB
  0
TABLE
  2
LTYPE
  5
2
330
0
100
AcDbSymbolTable
 70
3
  0
LTYPE
  5
24
330
2
100
AcDbSymbolTableRecord
100
AcDbLinetypeTableRecord
  2
ByBlock
 70
0
  3

 72
65
 73
0
 40
0.0
  0
LTYPE
  5
25
330
2
100
AcDbSymbolTableRecord
100
AcDbLinetypeTableRecord
  2
ByLayer
 70
0
  3

 72
65
 73
0
 40
0.0
  0
LTYPE
  5
26
330
2
100
AcDbSymbolTableRecord
100
AcDbLinetypeTableRecord
  2
Continuous
 70
0
  3

 72
65
 73
0
 40
0.0
  0
ENDTAB
  0
TABLE
  2
LAYER
  5
1
330
0
100
AcDbSymbolTable
 70
2
  0
LAYER
  5
27
330
1
100
AcDbSymbolTableRecord
100
AcDbLayerTableRecord
  2
0
 70
0
 62
7
  6
Continuous
370
-3
390
13
347
21
  0
LAYER
  5
28
330
1
100
AcDbSymbolTableRecord
100
AcDbLayerTableRecord
  2
Defpoints
 70
0
 62
7
  6
Continuous
290
0
370
-3
390
13
347
21
  0
ENDTAB
  0
TABLE
  2
STYLE
  5
5
330
0
100
AcDbSymbolTable
 70
1
  0
STYLE
  5
29
330
5
100
AcDbSymbolTableRecord
100
AcDbTextStyleTableRecord
  2
Standard
 70
0
 40
0.0
 41
1.0
 50
0.0
 71
0
 42
2.5
  3
txt
  4

  0
ENDTAB
  0
TABLE
  2
VIEW
  5
7
330
0
100
AcDbSymbolTable
 70
0
  0
ENDTAB
  0
TABLE
  2
UCS
  5
6
330
0
100
AcDbSymbolTable
 70
0
  0
ENDTAB
  0
TABLE
  2
APPID
  5
3
330
0
100
AcDbSymbolTable
 70
3
  0
APPID
  5
2A
330
3
100
AcDbSymbolTableRecord
100
AcDbRegAppTableRecord
  2
ACAD
 70
0
  0
APPID
  5
19D
330
3
100
AcDbSymbolTableRecord
100
AcDbRegAppTableRecord
  2
HATCHBACKGROUNDCOLOR
 70
0
  0
APPID
  5
19E
330
3
100
AcDbSymbolTableRecord
100
AcDbRegAppTableRecord
  2
EZDXF
 70
0
  0
ENDTAB
  0
TABLE
  2
DIMSTYLE
  5
4
330
0
100
AcDbSymbolTable
 70
1
100
AcDbDimStyleTable
  0
DIMSTYLE
105
2B
330
4
100
AcDbSymbolTableRecord
100
AcDbDimStyleTableRecord
  2
Standard
 70
0
 40
1.0
 41
2.5
 42
0.625
 43
3.75
 44
1.25
 45
0.0
 46
0.0
 47
0.0
 48
0.0
 49
2.5
140
2.5
141
2.5
142
0.0
143
0.03937007874
144
1.0
145
0.0
146
1.0
147
0.625
148
0.0
 69
0
 70
0
 71
0
 72
0
 73
0
 74
0
 75
0
 76
0
 77
1
 78
8
 79
3
170
0
171
3
172
1
173
0
174
0
175
0
176
0
177
0
178
0
179
2
271
2
272
2
273
2
274
3
275
0
276
0
277
2
278
44
279
0
280
0
281
0
282
0
283
0
284
8
285
0
286
0
288
0
289
3
290
0
371
-2
372
-2
  0
ENDTAB
  0
TABLE
  2
BLOCK_RECORD
  5
9
330
0
100
AcDbSymbolTable
 70
2
  0
BLOCK_RECORD
  5
17
330
9
100
AcDbSymbolTableRecord
100
AcDbBlockTableRecord
  2
*Model_Space
340
1A
 70
0
280
1
281
0
  0
BLOCK_RECORD
  5
1B
330
9
100
AcDbSymbolTableRecord
100
AcDbBlockTableRecord
  2
*Paper_Space
340
1E
 70
0
280
1
281
0
  0
ENDTAB
  0
ENDSEC
  0
SECTION
  2
BLOCKS
  0
BLOCK
  5
18
330
17
100
AcDbEntity
  8
0
100
AcDbBlockBegin
  2
*Model_Space
 70
0
 10
0.0
 20
0.0
 30
0.0
  3
*Model_Space
  1

  0
ENDBLK
  5
19
330
17
100
AcDbEntity
  8
0
100
AcDbBlockEnd
  0
BLOCK
  5
1C
330
1B
100
AcDbEntity
  8
0
100
AcDbBlockBegin
  2
*Paper_Space
 70
0
 10
0.0
 20
0.0
 30
0.0
  3
*Paper_Space
  1

  0
ENDBLK
  5
1D
330
1B
100
AcDbEntity
  8
0
100
AcDbBlockEnd
  0
ENDSEC
  0
SECTION
  2
ENTITIES
  0
LINE
  5
2F
330
17
100
AcDbEntity
  8
0
100
AcDbLine
 10
451.426
 20
-58.0402
 30
0.0
 11
451.426
 21
-70.0403
 31
0.0
  0
LINE
  5
30
330
17
100
AcDbEntity
  8
0
100
AcDbLine
 10
443.426
 20
-58.0402
 30
0.0
 11
451.426
 21
-58.0402
 31
0.0
  0
LINE
  5
31
330
17
100
AcDbEntity
  8
0
100
AcDbLine
 10
443.426
 20
-70.0403
 30
0.0
 11
443.426
 21
-58.0402
 31
0.0
  0
LINE
  5
32
330
17
100
AcDbEntity
  8
0
100
AcDbLine
 10
451.426
 20
-70.0403
 30
0.0
 11
443.426
 21
-70.0403
 31
0.0
  0
LINE
  5
33
330
17
100
AcDbEntity
  8
0
100
AcDbLine
 10
326.987
 20
-355.84
 30
0.0
 11
328.987
 21
-355.84
 31
0.0
  0
LINE
  5
34
330
17
100
AcDbEntity
  8
0
100
AcDbLine
 10
328.987
 20
-351.84
 30
0.0
 11
328.987
 21
-355.84
 31
0.0
  0
LINE
  5
35
330
17
100
AcDbEntity
  8
0
100
AcDbLine
 10
328.987
 20
-351.84
 30
0.0
 11
326.987
 21
-351.84
 31
0.0
  0
LINE
  5
36
330
17
100
AcDbEntity
  8
0
100
AcDbLine
 10
326.987
 20
-351.84
 30
0.0
 11
326.987
 21
-355.84
 31
0.0
  0
LINE
  5
37
330
17
100
AcDbEntity
  8
0
100
AcDbLine
 10
326.987
 20
-400.84
 30
0.0
 11
330.987
 21
-400.84
 31
0.0
  0
LINE
  5
38
330
17
100
AcDbEntity
  8
0
100
AcDbLine
 10
330.987
 20
-396.84
 30
0.0
 11
330.987
 21
-400.84
 31
0.0
  0
LINE
  5
39
330
17
100
AcDbEntity
  8
0
100
AcDbLine
 10
330.987
 20
-396.84
 30
0.0
 11
326.987
 21
-396.84
 31
0.0
  0
LINE
  5
3A
330
17
100
AcDbEntity
  8
0
100
AcDbLine
 10
326.987
 20
-396.84
 30
0.0
 11
326.987
 21
-400.84
 31
0.0
  0
LINE
  5
3B
330
17
100
AcDbEntity
  8
0
100
AcDbLine
 10
326.987
 20
-418.84
 30
0.0
 11
326.987
 21
-414.84
 31
0.0
  0
LINE
  5
3C
330
17
100
AcDbEntity
  8
0
100
AcDbLine
 10
330.987
 20
-418.84
 30
0.0
 11
326.987
 21
-418.84
 31
0.0
  0
LINE
  5
3D
330
17
100
AcDbEntity
  8
0
100
AcDbLine
 10
330.987
 20
-418.84
 30
0.0
 11
330.987
 21
-414.84
 31
0.0
  0
LINE
  5
3E
330
17
100
AcDbEntity
  8
0
100
AcDbLine
 10
326.987
 20
-414.84
 30
0.0
 11
330.987
 21
-414.84
 31
0.0
  0
LINE
  5
3F
330
17
100
AcDbEntity
  8
0
100
AcDbLine
 10
331.968
 20
-427.84
 30
0.0
 11
331.968
 21
-423.84
 31
0.0
  0
LINE
  5
40
330
17
100
AcDbEntity
  8
0
100
AcDbLine
 10
326.968
 20
-423.84
 30
0.0
 11
331.968
 21
-423.84
 31
0.0
  0
LINE
  5
41
330
17
100
AcDbEntity
  8
0
100
AcDbLine
 10
326.968
 20
-427.84
 30
0.0
 11
326.968
 21
-423.84
 31
0.0
  0
LINE
  5
42
330
17
100
AcDbEntity
  8
0
100
AcDbLine
 10
331.968
 20
-427.84
 30
0.0
 11
326.968
 21
-427.84
 31
0.0
  0
LINE
  5
43
330
17
100
AcDbEntity
  8
0
100
AcDbLine
 10
329.987
 20
-391.84
 30
0.0
 11
329.987
 21
-387.84
 31
0.0
  0
LINE
  5
44
330
17
100
AcDbEntity
  8
0
100
AcDbLine
 10
326.987
 20
-387.84
 30
0.0
 11
329.987
 21
-387.84
 31
0.0
  0
LINE
  5
45
330
17
100
AcDbEntity
  8
0
100
AcDbLine
 10
326.987
 20
-391.84
 30
0.0
 11
326.987
 21
-387.84
 31
0.0
  0
LINE
  5
46
330
17
100
AcDbEntity
  8
0
100
AcDbLine
 10
329.987
 20
-391.84
 30
0.0
 11
326.987
 21
-391.84
 31
0.0
  0
LINE
  5
47
330
17
100
AcDbEntity
  8
0
100
AcDbLine
 10
328.987
 20
-382.84
 30
0.0
 11
328.987
 21
-378.84
 31
0.0
  0
LINE
  5
48
330
17
100
AcDbEntity
  8
0
100
AcDbLine
 10
326.987
 20
-378.84
 30
0.0
 11
328.987
 21
-378.84
 31
0.0
  0
LINE
  5
49
330
17
100
AcDbEntity
  8
0
100
AcDbLine
 10
326.987
 20
-382.84
 30
0.0
 11
326.987
 21
-378.84
 31
0.0
  0
LINE
  5
4A
330
17
100
AcDbEntity
  8
0
100
AcDbLine
 10
328.987
 20
-382.84
 30
0.0
 11
326.987
 21
-382.84
 31
0.0
  0
LINE
  5
4B
330
17
100
AcDbEntity
  8
0
100
AcDbLine
 10
331.987
 20
-409.84
 30
0.0
 11
331.987
 21
-405.84
 31
0.0
  0
LINE
  5
4C
330
17
100
AcDbEntity
  8
0
100
AcDbLine
 10
326.987
 20
-405.84
 30
0.0
 11
331.987
 21
-405.84
 31
0.0
  0
LINE
  5
4D
330
17
100
AcDbEntity
  8
0
100
AcDbLine
 10
326.987
 20
-409.84
 30
0.0
 11
326.987
 21
-405.84
 31
0.0
  0
LINE
  5
4E
330
17
100
AcDbEntity
  8
0
100
AcDbLine
 10
331.987
 20
-409.84
 30
0.0
 11
326.987
 21
-409.84
 31
0.0
  0
LINE
  5
4F
330
17
100
AcDbEntity
  8
0
100
AcDbLine
 10
332.987
 20
-373.84
 30
0.0
 11
332.987
 21
-369.84
 31
0.0
  0
LINE
  5
50
330
17
100
AcDbEntity
  8
0
100
AcDbLine
 10
326.987
 20
-369.84
 30
0.0
 11
332.987
 21
-369.84
 31
0.0
  0
LINE
  5
51
330
17
100
AcDbEntity
  8
0
100
AcDbLine
 10
326.987
 20
-373.84
 30
0.0
 11
326.987
 21
-369.84
 31
0.0
  0
LINE
  5
52
330
17
100
AcDbEntity
  8
0
100
AcDbLine
 10
332.987
 20
-373.84
 30
0.0
 11
326.987
 21
-373.84
 31
0.0
  0
LINE
  5
53
330
17
100
AcDbEntity
  8
0
100
AcDbLine
 10
330.987
 20
-364.84
 30
0.0
 11
330.987
 21
-360.84
 31
0.0
  0
LINE
  5
54
330
17
100
AcDbEntity
  8
0
100
AcDbLine
 10
326.987
 20
-360.84
 30
0.0
 11
330.987
 21
-360.84
 31
0.0
  0
LINE
  5
55
330
17
100
AcDbEntity
  8
0
100
AcDbLine
 10
326.987
 20
-364.84
 30
0.0
 11
326.987
 21
-360.84
 31
0.0
  0
LINE
  5
56
330
17
100
AcDbEntity
  8
0
100
AcDbLine
 10
330.987
 20
-364.84
 30
0.0
 11
326.987
 21
-364.84
 31
0.0
  0
LINE
  5
57
330
17
100
AcDbEntity
  8
0
100
AcDbLine
 10
196.987
 20
-355.84
 30
0.0
 11
176.987
 21
-355.84
 31
0.0
  0
LINE
  5
58
330
17
100
AcDbEntity
  8
0
100
AcDbLine
 10
196.987
 20
-353.84
 30
0.0
 11
196.987
 21
-355.84
 31
0.0
  0
LINE
  5
59
330
17
100
AcDbEntity
  8
0
100
AcDbLine
 10
176.987
 20
-353.84
 30
0.0
 11
196.987
 21
-353.84
 31
0.0
  0
LINE
  5
5A
330
17
100
AcDbEntity
  8
0
100
AcDbLine
 10
176.987
 20
-355.84
 30
0.0
 11
176.987
 21
-353.84
 31
0.0
  0
LINE
  5
5B
330
17
100
AcDbEntity
  8
0
100
AcDbLine
 10
196.987
 20
-364.84
 30
0.0
 11
176.987
 21
-364.84
 31
0.0
  0
LINE
  5
5C
330
17
100
AcDbEntity
  8
0
100
AcDbLine
 10
196.987
 20
-360.84
 30
0.0
 11
196.987
 21
-364.84
 31
0.0
  0
LINE
  5
5D
330
17
100
AcDbEntity
  8
0
100
AcDbLine
 10
176.987
 20
-360.84
 30
0.0
 11
196.987
 21
-360.84
 31
0.0
  0
LINE
  5
5E
330
17
100
AcDbEntity
  8
0
100
AcDbLine
 10
176.987
 20
-364.84
 30
0.0
 11
176.987
 21
-360.84
 31
0.0
  0
LINE
  5
5F
330
17
100
AcDbEntity
  8
0
100
AcDbLine
 10
196.987
 20
-375.84
 30
0.0
 11
176.987
 21
-375.84
 31
0.0
  0
LINE
  5
60
330
17
100
AcDbEntity
  8
0
100
AcDbLine
 10
196.987
 20
-369.84
 30
0.0
 11
196.987
 21
-375.84
 31
0.0
  0
LINE
  5
61
330
17
100
AcDbEntity
  8
0
100
AcDbLine
 10
176.987
 20
-369.84
 30
0.0
 11
196.987
 21
-369.84
 31
0.0
  0
LINE
  5
62
330
17
100
AcDbEntity
  8
0
100
AcDbLine
 10
176.987
 20
-375.84
 30
0.0
 11
176.987
 21
-369.84
 31
0.0
  0
LINE
  5
63
330
17
100
AcDbEntity
  8
0
100
AcDbLine
 10
246.987
 20
-364.84
 30
0.0
 11
226.987
 21
-364.84
 31
0.0
  0
LINE
  5
64
330
17
100
AcDbEntity
  8
0
100
AcDbLine
 10
246.987
 20
-363.44
 30
0.0
 11
246.987
 21
-364.84
 31
0.0
  0
LINE
  5
65
330
17
100
AcDbEntity
  8
0
100
AcDbLine
 10
226.987
 20
-363.44
 30
0.0
 11
246.987
 21
-363.44
 31
0.0
  0
LINE
  5
66
330
17
100
AcDbEntity
  8
0
100
AcDbLine
 10
226.987
 20
-364.84
 30
0.0
 11
226.987
 21
-363.44
 31
0.0
  0
LINE
  5
67
330
17
100
AcDbEntity
  8
0
100
AcDbLine
 10
246.987
 20
-355.84
 30
0.0
 11
226.987
 21
-355.84
 31
0.0
  0
LINE
  5
68
330
17
100
AcDbEntity
  8
0
100
AcDbLine
 10
246.987
 20
-354.64
 30
0.0
 11
246.987
 21
-355.84
 31
0.0
  0
LINE
  5
69
330
17
100
AcDbEntity
  8
0
100
AcDbLine
 10
226.987
 20
-354.64
 30
0.0
 11
246.987
 21
-354.64
 31
0.0
  0
LINE
  5
6A
330
17
100
AcDbEntity
  8
0
100
AcDbLine
 10
226.987
 20
-355.84
 30
0.0
 11
226.987
 21
-354.64
 31
0.0
  0
LINE
  5
6B
330
17
100
AcDbEntity
  8
0
100
AcDbLine
 10
246.987
 20
-373.84
 30
0.0
 11
226.987
 21
-373.84
 31
0.0
  0
LINE
  5
6C
330
17
100
AcDbEntity
  8
0
100
AcDbLine
 10
246.987
 20
-372.04
 30
0.0
 11
246.987
 21
-373.84
 31
0.0
  0
LINE
  5
6D
330
17
100
AcDbEntity
  8
0
100
AcDbLine
 10
226.987
 20
-372.04
 30
0.0
 11
246.987
 21
-372.04
 31
0.0
  0
LINE
  5
6E
330
17
100
AcDbEntity
  8
0
100
AcDbLine
 10
226.987
 20
-373.84
 30
0.0
 11
226.987
 21
-372.04
 31
0.0
  0
LINE
  5
6F
330
17
100
AcDbEntity
  8
0
100
AcDbLine
 10
246.987
 20
-382.84
 30
0.0
 11
226.987
 21
-382.84
 31
0.0
  0
LINE
  5
70
330
17
100
AcDbEntity
  8
0
100
AcDbLine
 10
246.987
 20
-380.84
 30
0.0
 11
246.987
 21
-382.84
 31
0.0
  0
LINE
  5
71
330
17
100
AcDbEntity
  8
0
100
AcDbLine
 10
226.987
 20
-380.84
 30
0.0
 11
246.987
 21
-380.84
 31
0.0
  0
LINE
  5
72
330
17
100
AcDbEntity
  8
0
100
AcDbLine
 10
226.987
 20
-382.84
 30
0.0
 11
226.987
 21
-380.84
 31
0.0
  0
LINE
  5
73
330
17
100
AcDbEntity
  8
0
100
AcDbLine
 10
246.987
 20
-400.84
 30
0.0
 11
226.987
 21
-400.84
 31
0.0
  0
LINE
  5
74
330
17
100
AcDbEntity
  8
0
100
AcDbLine
 10
246.987
 20
-398.04
 30
0.0
 11
246.987
 21
-400.84
 31
0.0
  0
LINE
  5
75
330
17
100
AcDbEntity
  8
0
100
AcDbLine
 10
226.987
 20
-398.04
 30
0.0
 11
246.987
 21
-398.04
 31
0.0
  0
LINE
  5
76
330
17
100
AcDbEntity
  8
0
100
AcDbLine
 10
226.987
 20
-400.84
 30
0.0
 11
226.987
 21
-398.04
 31
0.0
  0
LINE
  5
77
330
17
100
AcDbEntity
  8
0
100
AcDbLine
 10
246.987
 20
-391.84
 30
0.0
 11
226.987
 21
-391.84
 31
0.0
  0
LINE
  5
78
330
17
100
AcDbEntity
  8
0
100
AcDbLine
 10
246.987
 20
-389.44
 30
0.0
 11
246.987
 21
-391.84
 31
0.0
  0
LINE
  5
79
330
17
100
AcDbEntity
  8
0
100
AcDbLine
 10
226.987
 20
-389.44
 30
0.0
 11
246.987
 21
-389.44
 31
0.0
  0
LINE
  5
7A
330
17
100
AcDbEntity
  8
0
100
AcDbLine
 10
226.987
 20
-391.84
 30
0.0
 11
226.987
 21
-389.44
 31
0.0
  0
LINE
  5
7B
330
17
100
AcDbEntity
  8
0
100
AcDbLine
 10
246.987
 20
-409.84
 30
0.0
 11
226.987
 21
-409.84
 31
0.0
  0
LINE
  5
7C
330
17
100
AcDbEntity
  8
0
100
AcDbLine
 10
246.987
 20
-406.64
 30
0.0
 11
246.987
 21
-409.84
 31
0.0
  0
LINE
  5
7D
330
17
100
AcDbEntity
  8
0
100
AcDbLine
 10
226.987
 20
-406.64
 30
0.0
 11
246.987
 21
-406.64
 31
0.0
  0
LINE
  5
7E
330
17
100
AcDbEntity
  8
0
100
AcDbLine
 10
226.987
 20
-409.84
 30
0.0
 11
226.987
 21
-406.64
 31
0.0
  0
LINE
  5
7F
330
17
100
AcDbEntity
  8
0
100
AcDbLine
 10
246.987
 20
-418.84
 30
0.0
 11
226.987
 21
-418.84
 31
0.0
  0
LINE
  5
80
330
17
100
AcDbEntity
  8
0
100
AcDbLine
 10
246.987
 20
-415.24
 30
0.0
 11
246.987
 21
-418.84
 31
0.0
  0
LINE
  5
81
330
17
100
AcDbEntity
  8
0
100
AcDbLine
 10
226.987
 20
-415.24
 30
0.0
 11
246.987
 21
-415.24
 31
0.0
  0
LINE
  5
82
330
17
100
AcDbEntity
  8
0
100
AcDbLine
 10
226.987
 20
-418.84
 30
0.0
 11
226.987
 21
-415.24
 31
0.0
  0
LINE
  5
83
330
17
100
AcDbEntity
  8
0
100
AcDbLine
 10
246.987
 20
-436.84
 30
0.0
 11
226.987
 21
-436.84
 31
0.0
  0
LINE
  5
84
330
17
100
AcDbEntity
  8
0
100
AcDbLine
 10
246.987
 20
-432.44
 30
0.0
 11
246.987
 21
-436.84
 31
0.0
  0
LINE
  5
85
330
17
100
AcDbEntity
  8
0
100
AcDbLine
 10
226.987
 20
-432.44
 30
0.0
 11
246.987
 21
-432.44
 31
0.0
  0
LINE
  5
86
330
17
100
AcDbEntity
  8
0
100
AcDbLine
 10
226.987
 20
-436.84
 30
0.0
 11
226.987
 21
-432.44
 31
0.0
  0
LINE
  5
87
330
17
100
AcDbEntity
  8
0
100
AcDbLine
 10
246.987
 20
-427.84
 30
0.0
 11
226.987
 21
-427.84
 31
0.0
  0
LINE
  5
88
330
17
100
AcDbEntity
  8
0
100
AcDbLine
 10
246.987
 20
-423.84
 30
0.0
 11
246.987
 21
-427.84
 31
0.0
  0
LINE
  5
89
330
17
100
AcDbEntity
  8
0
100
AcDbLine
 10
226.987
 20
-423.84
 30
0.0
 11
246.987
 21
-423.84
 31
0.0
  0
LINE
  5
8A
330
17
100
AcDbEntity
  8
0
100
AcDbLine
 10
226.987
 20
-427.84
 30
0.0
 11
226.987
 21
-423.84
 31
0.0
  0
LINE
  5
8B
330
17
100
AcDbEntity
  8
0
100
AcDbLine
 10
196.987
 20
-382.84
 30
0.0
 11
176.987
 21
-382.84
 31
0.0
  0
LINE
  5
8C
330
17
100
AcDbEntity
  8
0
100
AcDbLine
 10
196.987
 20
-380.84
 30
0.0
 11
196.987
 21
-382.84
 31
0.0
  0
LINE
  5
8D
330
17
100
AcDbEntity
  8
0
100
AcDbLine
 10
176.987
 20
-380.84
 30
0.0
 11
196.987
 21
-380.84
 31
0.0
  0
LINE
  5
8E
330
17
100
AcDbEntity
  8
0
100
AcDbLine
 10
176.987
 20
-382.84
 30
0.0
 11
176.987
 21
-380.84
 31
0.0
  0
LINE
  5
8F
330
17
100
AcDbEntity
  8
0
100
AcDbLine
 10
196.987
 20
-391.84
 30
0.0
 11
176.987
 21
-391.84
 31
0.0
  0
LINE
  5
90
330
17
100
AcDbEntity
  8
0
100
AcDbLine
 10
196.987
 20
-389.44
 30
0.0
 11
196.987
 21
-391.84
 31
0.0
  0
LINE
  5
91
330
17
100
AcDbEntity
  8
0
100
AcDbLine
 10
176.987
 20
-389.44
 30
0.0
 11
196.987
 21
-389.44
 31
0.0
  0
LINE
  5
92
330
17
100
AcDbEntity
  8
0
100
AcDbLine
 10
176.987
 20
-391.84
 30
0.0
 11
176.987
 21
-389.44
 31
0.0
  0
LINE
  5
93
330
17
100
AcDbEntity
  8
0
100
AcDbLine
 10
196.987
 20
-409.84
 30
0.0
 11
176.987
 21
-409.84
 31
0.0
  0
LINE
  5
94
330
17
100
AcDbEntity
  8
0
100
AcDbLine
 10
196.987
 20
-406.84
 30
0.0
 11
196.987
 21
-409.84
 31
0.0
  0
LINE
  5
95
330
17
100
AcDbEntity
  8
0
100
AcDbLine
 10
176.987
 20
-406.84
 30
0.0
 11
196.987
 21
-406.84
 31
0.0
  0
LINE
  5
96
330
17
100
AcDbEntity
  8
0
100
AcDbLine
 10
176.987
 20
-409.84
 30
0.0
 11
176.987
 21
-406.84
 31
0.0
  0
LINE
  5
97
330
17
100
AcDbEntity
  8
0
100
AcDbLine
 10
196.987
 20
-418.84
 30
0.0
 11
176.987
 21
-418.84
 31
0.0
  0
LINE
  5
98
330
17
100
AcDbEntity
  8
0
100
AcDbLine
 10
196.987
 20
-414.56
 30
0.0
 11
196.987
 21
-418.84
 31
0.0
  0
LINE
  5
99
330
17
100
AcDbEntity
  8
0
100
AcDbLine
 10
176.987
 20
-414.56
 30
0.0
 11
196.987
 21
-414.56
 31
0.0
  0
LINE
  5
9A
330
17
100
AcDbEntity
  8
0
100
AcDbLine
 10
176.987
 20
-418.84
 30
0.0
 11
176.987
 21
-414.56
 31
0.0
  0
LINE
  5
9B
330
17
100
AcDbEntity
  8
0
100
AcDbLine
 10
196.987
 20
-400.84
 30
0.0
 11
176.987
 21
-400.84
 31
0.0
  0
LINE
  5
9C
330
17
100
AcDbEntity
  8
0
100
AcDbLine
 10
196.987
 20
-398.04
 30
0.0
 11
196.987
 21
-400.84
 31
0.0
  0
LINE
  5
9D
330
17
100
AcDbEntity
  8
0
100
AcDbLine
 10
176.987
 20
-398.04
 30
0.0
 11
196.987
 21
-398.04
 31
0.0
  0
LINE
  5
9E
330
17
100
AcDbEntity
  8
0
100
AcDbLine
 10
176.987
 20
-400.84
 30
0.0
 11
176.987
 21
-398.04
 31
0.0
  0
LINE
  5
9F
330
17
100
AcDbEntity
  8
0
100
AcDbLine
 10
296.987
 20
-355.84
 30
0.0
 11
276.987
 21
-355.84
 31
0.0
  0
LINE
  5
A0
330
17
100
AcDbEntity
  8
0
100
AcDbLine
 10
296.987
 20
-353.84
 30
0.0
 11
296.987
 21
-355.84
 31
0.0
  0
LINE
  5
A1
330
17
100
AcDbEntity
  8
0
100
AcDbLine
 10
276.987
 20
-353.84
 30
0.0
 11
296.987
 21
-353.84
 31
0.0
  0
LINE
  5
A2
330
17
100
AcDbEntity
  8
0
100
AcDbLine
 10
276.987
 20
-355.84
 30
0.0
 11
276.987
 21
-353.84
 31
0.0
  0
LINE
  5
A3
330
17
100
AcDbEntity
  8
0
100
AcDbLine
 10
296.987
 20
-364.84
 30
0.0
 11
276.987
 21
-364.84
 31
0.0
  0
LINE
  5
A4
330
17
100
AcDbEntity
  8
0
100
AcDbLine
 10
296.987
 20
-362.84
 30
0.0
 11
296.987
 21
-364.84
 31
0.0
  0
LINE
  5
A5
330
17
100
AcDbEntity
  8
0
100
AcDbLine
 10
276.987
 20
-362.84
 30
0.0
 11
296.987
 21
-362.84
 31
0.0
  0
LINE
  5
A6
330
17
100
AcDbEntity
  8
0
100
AcDbLine
 10
276.987
 20
-364.84
 30
0.0
 11
276.987
 21
-362.84
 31
0.0
  0
LINE
  5
A7
330
17
100
AcDbEntity
  8
0
100
AcDbLine
 10
296.987
 20
-373.84
 30
0.0
 11
276.987
 21
-373.84
 31
0.0
  0
LINE
  5
A8
330
17
100
AcDbEntity
  8
0
100
AcDbLine
 10
296.987
 20
-371.64
 30
0.0
 11
296.987
 21
-373.84
 31
0.0
  0
LINE
  5
A9
330
17
100
AcDbEntity
  8
0
100
AcDbLine
 10
276.987
 20
-371.64
 30
0.0
 11
296.987
 21
-371.64
 31
0.0
  0
LINE
  5
AA
330
17
100
AcDbEntity
  8
0
100
AcDbLine
 10
276.987
 20
-373.84
 30
0.0
 11
276.987
 21
-371.64
 31
0.0
  0
LINE
  5
AB
330
17
100
AcDbEntity
  8
0
100
AcDbLine
 10
296.987
 20
-391.84
 30
0.0
 11
276.987
 21
-391.84
 31
0.0
  0
LINE
  5
AC
330
17
100
AcDbEntity
  8
0
100
AcDbLine
 10
296.987
 20
-388.16
 30
0.0
 11
296.987
 21
-391.84
 31
0.0
  0
LINE
  5
AD
330
17
100
AcDbEntity
  8
0
100
AcDbLine
 10
276.987
 20
-388.16
 30
0.0
 11
296.987
 21
-388.16
 31
0.0
  0
LINE
  5
AE
330
17
100
AcDbEntity
  8
0
100
AcDbLine
 10
276.987
 20
-391.84
 30
0.0
 11
276.987
 21
-388.16
 31
0.0
  0
LINE
  5
AF
330
17
100
AcDbEntity
  8
0
100
AcDbLine
 10
296.987
 20
-382.84
 30
0.0
 11
276.987
 21
-382.84
 31
0.0
  0
LINE
  5
B0
330
17
100
AcDbEntity
  8
0
100
AcDbLine
 10
296.987
 20
-380.84
 30
0.0
 11
296.987
 21
-382.84
 31
0.0
  0
LINE
  5
B1
330
17
100
AcDbEntity
  8
0
100
AcDbLine
 10
276.987
 20
-380.84
 30
0.0
 11
296.987
 21
-380.84
 31
0.0
  0
LINE
  5
B2
330
17
100
AcDbEntity
  8
0
100
AcDbLine
 10
276.987
 20
-382.84
 30
0.0
 11
276.987
 21
-380.84
 31
0.0
  0
LINE
  5
B3
330
17
100
AcDbEntity
  8
0
100
AcDbLine
 10
296.987
 20
-400.84
 30
0.0
 11
276.987
 21
-400.84
 31
0.0
  0
LINE
  5
B4
330
17
100
AcDbEntity
  8
0
100
AcDbLine
 10
296.987
 20
-396.14
 30
0.0
 11
296.987
 21
-400.84
 31
0.0
  0
LINE
  5
B5
330
17
100
AcDbEntity
  8
0
100
AcDbLine
 10
276.987
 20
-396.14
 30
0.0
 11
296.987
 21
-396.14
 31
0.0
  0
LINE
  5
B6
330
17
100
AcDbEntity
  8
0
100
AcDbLine
 10
276.987
 20
-400.84
 30
0.0
 11
276.987
 21
-396.14
 31
0.0
  0
LINE
  5
B7
330
17
100
AcDbEntity
  8
0
100
AcDbLine
 10
296.987
 20
-409.84
 30
0.0
 11
276.987
 21
-409.84
 31
0.0
  0
LINE
  5
B8
330
17
100
AcDbEntity
  8
0
100
AcDbLine
 10
296.987
 20
-409.66
 30
0.0
 11
296.987
 21
-409.84
 31
0.0
  0
LINE
  5
B9
330
17
100
AcDbEntity
  8
0
100
AcDbLine
 10
276.987
 20
-409.66
 30
0.0
 11
296.987
 21
-409.66
 31
0.0
  0
LINE
  5
BA
330
17
100
AcDbEntity
  8
0
100
AcDbLine
 10
276.987
 20
-409.84
 30
0.0
 11
276.987
 21
-409.66
 31
0.0
  0
LINE
  5
BB
330
17
100
AcDbEntity
  8
0
100
AcDbLine
 10
296.987
 20
-414.84
 30
0.0
 11
276.987
 21
-414.84
 31
0.0
  0
LINE
  5
BC
330
17
100
AcDbEntity
  8
0
100
AcDbLine
 10
296.987
 20
-414.6
 30
0.0
 11
296.987
 21
-414.84
 31
0.0
  0
LINE
  5
BD
330
17
100
AcDbEntity
  8
0
100
AcDbLine
 10
276.987
 20
-414.6
 30
0.0
 11
296.987
 21
-414.6
 31
0.0
  0
LINE
  5
BE
330
17
100
AcDbEntity
  8
0
100
AcDbLine
 10
276.987
 20
-414.84
 30
0.0
 11
276.987
 21
-414.6
 31
0.0
  0
LINE
  5
BF
330
17
100
AcDbEntity
  8
0
100
AcDbLine
 10
296.987
 20
-419.84
 30
0.0
 11
276.987
 21
-419.84
 31
0.0
  0
LINE
  5
C0
330
17
100
AcDbEntity
  8
0
100
AcDbLine
 10
296.987
 20
-419.59
 30
0.0
 11
296.987
 21
-419.84
 31
0.0
  0
LINE
  5
C1
330
17
100
AcDbEntity
  8
0
100
AcDbLine
 10
276.987
 20
-419.59
 30
0.0
 11
296.987
 21
-419.59
 31
0.0
  0
LINE
  5
C2
330
17
100
AcDbEntity
  8
0
100
AcDbLine
 10
276.987
 20
-419.84
 30
0.0
 11
276.987
 21
-419.59
 31
0.0
  0
LINE
  5
C3
330
17
100
AcDbEntity
  8
0
100
AcDbLine
 10
296.987
 20
-424.84
 30
0.0
 11
276.987
 21
-424.84
 31
0.0
  0
LINE
  5
C4
330
17
100
AcDbEntity
  8
0
100
AcDbLine
 10
296.987
 20
-424.59
 30
0.0
 11
296.987
 21
-424.84
 31
0.0
  0
LINE
  5
C5
330
17
100
AcDbEntity
  8
0
100
AcDbLine
 10
276.987
 20
-424.59
 30
0.0
 11
296.987
 21
-424.59
 31
0.0
  0
LINE
  5
C6
330
17
100
AcDbEntity
  8
0
100
AcDbLine
 10
276.987
 20
-424.84
 30
0.0
 11
276.987
 21
-424.59
 31
0.0
  0
LINE
  5
C7
330
17
100
AcDbEntity
  8
0
100
AcDbLine
 10
196.987
 20
-436.84
 30
0.0
 11
176.987
 21
-436.84
 31
0.0
  0
LINE
  5
C8
330
17
100
AcDbEntity
  8
0
100
AcDbLine
 10
196.987
 20
-434.84
 30
0.0
 11
196.987
 21
-436.84
 31
0.0
  0
LINE
  5
C9
330
17
100
AcDbEntity
  8
0
100
AcDbLine
 10
176.987
 20
-434.84
 30
0.0
 11
196.987
 21
-434.84
 31
0.0
  0
LINE
  5
CA
330
17
100
AcDbEntity
  8
0
100
AcDbLine
 10
176.987
 20
-436.84
 30
0.0
 11
176.987
 21
-434.84
 31
0.0
  0
LINE
  5
CB
330
17
100
AcDbEntity
  8
0
100
AcDbLine
 10
196.987
 20
-427.84
 30
0.0
 11
176.987
 21
-427.84
 31
0.0
  0
LINE
  5
CC
330
17
100
AcDbEntity
  8
0
100
AcDbLine
 10
196.987
 20
-422.84
 30
0.0
 11
196.987
 21
-427.84
 31
0.0
  0
LINE
  5
CD
330
17
100
AcDbEntity
  8
0
100
AcDbLine
 10
176.987
 20
-422.84
 30
0.0
 11
196.987
 21
-422.84
 31
0.0
  0
LINE
  5
CE
330
17
100
AcDbEntity
  8
0
100
AcDbLine
 10
176.987
 20
-427.84
 30
0.0
 11
176.987
 21
-422.84
 31
0.0
  0
LINE
  5
CF
330
17
100
AcDbEntity
  8
0
100
AcDbLine
 10
196.987
 20
-445.84
 30
0.0
 11
176.987
 21
-445.84
 31
0.0
  0
LINE
  5
D0
330
17
100
AcDbEntity
  8
0
100
AcDbLine
 10
196.987
 20
-442.24
 30
0.0
 11
196.987
 21
-445.84
 31
0.0
  0
LINE
  5
D1
330
17
100
AcDbEntity
  8
0
100
AcDbLine
 10
176.987
 20
-442.24
 30
0.0
 11
196.987
 21
-442.24
 31
0.0
  0
LINE
  5
D2
330
17
100
AcDbEntity
  8
0
100
AcDbLine
 10
176.987
 20
-445.84
 30
0.0
 11
176.987
 21
-442.24
 31
0.0
  0
LINE
  5
D3
330
17
100
AcDbEntity
  8
0
100
AcDbLine
 10
196.987
 20
-454.84
 30
0.0
 11
176.987
 21
-454.84
 31
0.0
  0
LINE
  5
D4
330
17
100
AcDbEntity
  8
0
100
AcDbLine
 10
196.987
 20
-449.84
 30
0.0
 11
196.987
 21
-454.84
 31
0.0
  0
LINE
  5
D5
330
17
100
AcDbEntity
  8
0
100
AcDbLine
 10
176.987
 20
-449.84
 30
0.0
 11
196.987
 21
-449.84
 31
0.0
  0
LINE
  5
D6
330
17
100
AcDbEntity
  8
0
100
AcDbLine
 10
176.987
 20
-454.84
 30
0.0
 11
176.987
 21
-449.84
 31
0.0
  0
LINE
  5
D7
330
17
100
AcDbEntity
  8
0
100
AcDbLine
 10
246.987
 20
-445.84
 30
0.0
 11
226.987
 21
-445.84
 31
0.0
  0
LINE
  5
D8
330
17
100
AcDbEntity
  8
0
100
AcDbLine
 10
246.987
 20
-443.84
 30
0.0
 11
246.987
 21
-445.84
 31
0.0
  0
LINE
  5
D9
330
17
100
AcDbEntity
  8
0
100
AcDbLine
 10
226.987
 20
-443.84
 30
0.0
 11
246.987
 21
-443.84
 31
0.0
  0
LINE
  5
DA
330
17
100
AcDbEntity
  8
0
100
AcDbLine
 10
226.987
 20
-445.84
 30
0.0
 11
226.987
 21
-443.84
 31
0.0
  0
LINE
  5
DB
330
17
100
AcDbEntity
  8
0
100
AcDbLine
 10
246.987
 20
-454.84
 30
0.0
 11
226.987
 21
-454.84
 31
0.0
  0
LINE
  5
DC
330
17
100
AcDbEntity
  8
0
100
AcDbLine
 10
246.987
 20
-450.64
 30
0.0
 11
246.987
 21
-454.84
 31
0.0
  0
LINE
  5
DD
330
17
100
AcDbEntity
  8
0
100
AcDbLine
 10
226.987
 20
-450.64
 30
0.0
 11
246.987
 21
-450.64
 31
0.0
  0
LINE
  5
DE
330
17
100
AcDbEntity
  8
0
100
AcDbLine
 10
226.987
 20
-454.84
 30
0.0
 11
226.987
 21
-450.64
 31
0.0
  0
LINE
  5
DF
330
17
100
AcDbEntity
  8
0
100
AcDbLine
 10
296.987
 20
-439.84
 30
0.0
 11
276.987
 21
-439.84
 31
0.0
  0
LINE
  5
E0
330
17
100
AcDbEntity
  8
0
100
AcDbLine
 10
296.987
 20
-439.64
 30
0.0
 11
296.987
 21
-439.84
 31
0.0
  0
LINE
  5
E1
330
17
100
AcDbEntity
  8
0
100
AcDbLine
 10
276.987
 20
-439.64
 30
0.0
 11
296.987
 21
-439.64
 31
0.0
  0
LINE
  5
E2
330
17
100
AcDbEntity
  8
0
100
AcDbLine
 10
276.987
 20
-439.84
 30
0.0
 11
276.987
 21
-439.64
 31
0.0
  0
LINE
  5
E3
330
17
100
AcDbEntity
  8
0
100
AcDbLine
 10
246.987
 20
-463.84
 30
0.0
 11
226.987
 21
-463.84
 31
0.0
  0
LINE
  5
E4
330
17
100
AcDbEntity
  8
0
100
AcDbLine
 10
246.987
 20
-461.84
 30
0.0
 11
246.987
 21
-463.84
 31
0.0
  0
LINE
  5
E5
330
17
100
AcDbEntity
  8
0
100
AcDbLine
 10
226.987
 20
-461.84
 30
0.0
 11
246.987
 21
-461.84
 31
0.0
  0
LINE
  5
E6
330
17
100
AcDbEntity
  8
0
100
AcDbLine
 10
226.987
 20
-463.84
 30
0.0
 11
226.987
 21
-461.84
 31
0.0
  0
LINE
  5
E7
330
17
100
AcDbEntity
  8
0
100
AcDbLine
 10
296.987
 20
-444.84
 30
0.0
 11
276.987
 21
-444.84
 31
0.0
  0
LINE
  5
E8
330
17
100
AcDbEntity
  8
0
100
AcDbLine
 10
296.987
 20
-444.6
 30
0.0
 11
296.987
 21
-444.84
 31
0.0
  0
LINE
  5
E9
330
17
100
AcDbEntity
  8
0
100
AcDbLine
 10
276.987
 20
-444.6
 30
0.0
 11
296.987
 21
-444.6
 31
0.0
  0
LINE
  5
EA
330
17
100
AcDbEntity
  8
0
100
AcDbLine
 10
276.987
 20
-444.84
 30
0.0
 11
276.987
 21
-444.6
 31
0.0
  0
LINE
  5
EB
330
17
100
AcDbEntity
  8
0
100
AcDbLine
 10
296.987
 20
-454.84
 30
0.0
 11
276.987
 21
-454.84
 31
0.0
  0
LINE
  5
EC
330
17
100
AcDbEntity
  8
0
100
AcDbLine
 10
296.987
 20
-454.48
 30
0.0
 11
296.987
 21
-454.84
 31
0.0
  0
LINE
  5
ED
330
17
100
AcDbEntity
  8
0
100
AcDbLine
 10
276.987
 20
-454.48
 30
0.0
 11
296.987
 21
-454.48
 31
0.0
  0
LINE
  5
EE
330
17
100
AcDbEntity
  8
0
100
AcDbLine
 10
276.987
 20
-454.84
 30
0.0
 11
276.987
 21
-454.48
 31
0.0
  0
LINE
  5
EF
330
17
100
AcDbEntity
  8
0
100
AcDbLine
 10
296.987
 20
-449.84
 30
0.0
 11
276.987
 21
-449.84
 31
0.0
  0
LINE
  5
F0
330
17
100
AcDbEntity
  8
0
100
AcDbLine
 10
296.987
 20
-449.54
 30
0.0
 11
296.987
 21
-449.84
 31
0.0
  0
LINE
  5
F1
330
17
100
AcDbEntity
  8
0
100
AcDbLine
 10
276.987
 20
-449.54
 30
0.0
 11
296.987
 21
-449.54
 31
0.0
  0
LINE
  5
F2
330
17
100
AcDbEntity
  8
0
100
AcDbLine
 10
276.987
 20
-449.84
 30
0.0
 11
276.987
 21
-449.54
 31
0.0
  0
LINE
  5
F3
330
17
100
AcDbEntity
  8
0
100
AcDbLine
 10
376.987
 20
-418.84
 30
0.0
 11
376.987
 21
-414.84
 31
0.0
  0
LINE
  5
F4
330
17
100
AcDbEntity
  8
0
100
AcDbLine
 10
377.987
 20
-418.84
 30
0.0
 11
376.987
 21
-418.84
 31
0.0
  0
LINE
  5
F5
330
17
100
AcDbEntity
  8
0
100
AcDbLine
 10
377.987
 20
-418.84
 30
0.0
 11
377.987
 21
-414.84
 31
0.0
  0
LINE
  5
F6
330
17
100
AcDbEntity
  8
0
100
AcDbLine
 10
376.987
 20
-414.84
 30
0.0
 11
377.987
 21
-414.84
 31
0.0
  0
LINE
  5
F7
330
17
100
AcDbEntity
  8
0
100
AcDbLine
 10
376.987
 20
-400.84
 30
0.0
 11
377.987
 21
-400.84
 31
0.0
  0
LINE
  5
F8
330
17
100
AcDbEntity
  8
0
100
AcDbLine
 10
377.987
 20
-396.84
 30
0.0
 11
377.987
 21
-400.84
 31
0.0
  0
LINE
  5
F9
330
17
100
AcDbEntity
  8
0
100
AcDbLine
 10
377.987
 20
-396.84
 30
0.0
 11
376.987
 21
-396.84
 31
0.0
  0
LINE
  5
FA
330
17
100
AcDbEntity
  8
0
100
AcDbLine
 10
376.987
 20
-396.84
 30
0.0
 11
376.987
 21
-400.84
 31
0.0
  0
LINE
  5
FB
330
17
100
AcDbEntity
  8
0
100
AcDbLine
 10
378.368
 20
-427.84
 30
0.0
 11
378.368
 21
-423.84
 31
0.0
  0
LINE
  5
FC
330
17
100
AcDbEntity
  8
0
100
AcDbLine
 10
376.968
 20
-423.84
 30
0.0
 11
378.368
 21
-423.84
 31
0.0
  0
LINE
  5
FD
330
17
100
AcDbEntity
  8
0
100
AcDbLine
 10
376.968
 20
-427.84
 30
0.0
 11
376.968
 21
-423.84
 31
0.0
  0
LINE
  5
FE
330
17
100
AcDbEntity
  8
0
100
AcDbLine
 10
378.368
 20
-427.84
 30
0.0
 11
376.968
 21
-427.84
 31
0.0
  0
LINE
  5
FF
330
17
100
AcDbEntity
  8
0
100
AcDbLine
 10
376.987
 20
-355.84
 30
0.0
 11
379.987
 21
-355.84
 31
0.0
  0
LINE
  5
100
330
17
100
AcDbEntity
  8
0
100
AcDbLine
 10
379.987
 20
-351.84
 30
0.0
 11
379.987
 21
-355.84
 31
0.0
  0
LINE
  5
101
330
17
100
AcDbEntity
  8
0
100
AcDbLine
 10
379.987
 20
-351.84
 30
0.0
 11
376.987
 21
-351.84
 31
0.0
  0
LINE
  5
102
330
17
100
AcDbEntity
  8
0
100
AcDbLine
 10
376.987
 20
-351.84
 30
0.0
 11
376.987
 21
-355.84
 31
0.0
  0
LINE
  5
103
330
17
100
AcDbEntity
  8
0
100
AcDbLine
 10
383.387
 20
-382.84
 30
0.0
 11
383.387
 21
-378.84
 31
0.0
  0
LINE
  5
104
330
17
100
AcDbEntity
  8
0
100
AcDbLine
 10
376.987
 20
-378.84
 30
0.0
 11
383.387
 21
-378.84
 31
0.0
  0
LINE
  5
105
330
17
100
AcDbEntity
  8
0
100
AcDbLine
 10
376.987
 20
-382.84
 30
0.0
 11
376.987
 21
-378.84
 31
0.0
  0
LINE
  5
106
330
17
100
AcDbEntity
  8
0
100
AcDbLine
 10
383.387
 20
-382.84
 30
0.0
 11
376.987
 21
-382.84
 31
0.0
  0
LINE
  5
107
330
17
100
AcDbEntity
  8
0
100
AcDbLine
 10
380.987
 20
-364.84
 30
0.0
 11
380.987
 21
-360.84
 31
0.0
  0
LINE
  5
108
330
17
100
AcDbEntity
  8
0
100
AcDbLine
 10
376.987
 20
-360.84
 30
0.0
 11
380.987
 21
-360.84
 31
0.0
  0
LINE
  5
109
330
17
100
AcDbEntity
  8
0
100
AcDbLine
 10
376.987
 20
-364.84
 30
0.0
 11
376.987
 21
-360.84
 31
0.0
  0
LINE
  5
10A
330
17
100
AcDbEntity
  8
0
100
AcDbLine
 10
380.987
 20
-364.84
 30
0.0
 11
376.987
 21
-364.84
 31
0.0
  0
LINE
  5
10B
330
17
100
AcDbEntity
  8
0
100
AcDbLine
 10
378.387
 20
-409.84
 30
0.0
 11
378.387
 21
-405.84
 31
0.0
  0
LINE
  5
10C
330
17
100
AcDbEntity
  8
0
100
AcDbLine
 10
376.987
 20
-405.84
 30
0.0
 11
378.387
 21
-405.84
 31
0.0
  0
LINE
  5
10D
330
17
100
AcDbEntity
  8
0
100
AcDbLine
 10
376.987
 20
-409.84
 30
0.0
 11
376.987
 21
-405.84
 31
0.0
  0
LINE
  5
10E
330
17
100
AcDbEntity
  8
0
100
AcDbLine
 10
378.387
 20
-409.84
 30
0.0
 11
376.987
 21
-409.84
 31
0.0
  0
LINE
  5
10F
330
17
100
AcDbEntity
  8
0
100
AcDbLine
 10
382.187
 20
-373.84
 30
0.0
 11
382.187
 21
-369.84
 31
0.0
  0
LINE
  5
110
330
17
100
AcDbEntity
  8
0
100
AcDbLine
 10
376.987
 20
-369.84
 30
0.0
 11
382.187
 21
-369.84
 31
0.0
  0
LINE
  5
111
330
17
100
AcDbEntity
  8
0
100
AcDbLine
 10
376.987
 20
-373.84
 30
0.0
 11
376.987
 21
-369.84
 31
0.0
  0
LINE
  5
112
330
17
100
AcDbEntity
  8
0
100
AcDbLine
 10
382.187
 20
-373.84
 30
0.0
 11
376.987
 21
-373.84
 31
0.0
  0
LINE
  5
113
330
17
100
AcDbEntity
  8
0
100
AcDbLine
 10
476.987
 20
-355.84
 30
0.0
 11
478.987
 21
-355.84
 31
0.0
  0
LINE
  5
114
330
17
100
AcDbEntity
  8
0
100
AcDbLine
 10
478.987
 20
-351.84
 30
0.0
 11
478.987
 21
-355.84
 31
0.0
  0
LINE
  5
115
330
17
100
AcDbEntity
  8
0
100
AcDbLine
 10
478.987
 20
-351.84
 30
0.0
 11
476.987
 21
-351.84
 31
0.0
  0
LINE
  5
116
330
17
100
AcDbEntity
  8
0
100
AcDbLine
 10
476.987
 20
-351.84
 30
0.0
 11
476.987
 21
-355.84
 31
0.0
  0
LINE
  5
117
330
17
100
AcDbEntity
  8
0
100
AcDbLine
 10
378.368
 20
-436.84
 30
0.0
 11
378.368
 21
-432.84
 31
0.0
  0
LINE
  5
118
330
17
100
AcDbEntity
  8
0
100
AcDbLine
 10
376.968
 20
-432.84
 30
0.0
 11
378.368
 21
-432.84
 31
0.0
  0
LINE
  5
119
330
17
100
AcDbEntity
  8
0
100
AcDbLine
 10
376.968
 20
-436.84
 30
0.0
 11
376.968
 21
-432.84
 31
0.0
  0
LINE
  5
11A
330
17
100
AcDbEntity
  8
0
100
AcDbLine
 10
378.368
 20
-436.84
 30
0.0
 11
376.968
 21
-436.84
 31
0.0
  0
LINE
  5
11B
330
17
100
AcDbEntity
  8
0
100
AcDbLine
 10
479.187
 20
-382.84
 30
0.0
 11
479.187
 21
-378.84
 31
0.0
  0
LINE
  5
11C
330
17
100
AcDbEntity
  8
0
100
AcDbLine
 10
476.987
 20
-378.84
 30
0.0
 11
479.187
 21
-378.84
 31
0.0
  0
LINE
  5
11D
330
17
100
AcDbEntity
  8
0
100
AcDbLine
 10
476.987
 20
-382.84
 30
0.0
 11
476.987
 21
-378.84
 31
0.0
  0
LINE
  5
11E
330
17
100
AcDbEntity
  8
0
100
AcDbLine
 10
479.187
 20
-382.84
 30
0.0
 11
476.987
 21
-382.84
 31
0.0
  0
LINE
  5
11F
330
17
100
AcDbEntity
  8
0
100
AcDbLine
 10
478.987
 20
-373.84
 30
0.0
 11
478.987
 21
-369.84
 31
0.0
  0
LINE
  5
120
330
17
100
AcDbEntity
  8
0
100
AcDbLine
 10
476.987
 20
-369.84
 30
0.0
 11
478.987
 21
-369.84
 31
0.0
  0
LINE
  5
121
330
17
100
AcDbEntity
  8
0
100
AcDbLine
 10
476.987
 20
-373.84
 30
0.0
 11
476.987
 21
-369.84
 31
0.0
  0
LINE
  5
122
330
17
100
AcDbEntity
  8
0
100
AcDbLine
 10
478.987
 20
-373.84
 30
0.0
 11
476.987
 21
-373.84
 31
0.0
  0
LINE
  5
123
330
17
100
AcDbEntity
  8
0
100
AcDbLine
 10
478.987
 20
-364.84
 30
0.0
 11
478.987
 21
-360.84
 31
0.0
  0
LINE
  5
124
330
17
100
AcDbEntity
  8
0
100
AcDbLine
 10
476.987
 20
-360.84
 30
0.0
 11
478.987
 21
-360.84
 31
0.0
  0
LINE
  5
125
330
17
100
AcDbEntity
  8
0
100
AcDbLine
 10
476.987
 20
-364.84
 30
0.0
 11
476.987
 21
-360.84
 31
0.0
  0
LINE
  5
126
330
17
100
AcDbEntity
  8
0
100
AcDbLine
 10
478.987
 20
-364.84
 30
0.0
 11
476.987
 21
-364.84
 31
0.0
  0
LINE
  5
127
330
17
100
AcDbEntity
  8
0
100
AcDbLine
 10
430.187
 20
-409.84
 30
0.0
 11
430.187
 21
-405.84
 31
0.0
  0
LINE
  5
128
330
17
100
AcDbEntity
  8
0
100
AcDbLine
 10
426.987
 20
-405.84
 30
0.0
 11
430.187
 21
-405.84
 31
0.0
  0
LINE
  5
129
330
17
100
AcDbEntity
  8
0
100
AcDbLine
 10
426.987
 20
-409.84
 30
0.0
 11
426.987
 21
-405.84
 31
0.0
  0
LINE
  5
12A
330
17
100
AcDbEntity
  8
0
100
AcDbLine
 10
430.187
 20
-409.84
 30
0.0
 11
426.987
 21
-409.84
 31
0.0
  0
LINE
  5
12B
330
17
100
AcDbEntity
  8
0
100
AcDbLine
 10
430.968
 20
-427.84
 30
0.0
 11
430.968
 21
-423.84
 31
0.0
  0
LINE
  5
12C
330
17
100
AcDbEntity
  8
0
100
AcDbLine
 10
426.968
 20
-423.84
 30
0.0
 11
430.968
 21
-423.84
 31
0.0
  0
LINE
  5
12D
330
17
100
AcDbEntity
  8
0
100
AcDbLine
 10
426.968
 20
-427.84
 30
0.0
 11
426.968
 21
-423.84
 31
0.0
  0
LINE
  5
12E
330
17
100
AcDbEntity
  8
0
100
AcDbLine
 10
430.968
 20
-427.84
 30
0.0
 11
426.968
 21
-427.84
 31
0.0
  0
LINE
  5
12F
330
17
100
AcDbEntity
  8
0
100
AcDbLine
 10
428.787
 20
-373.84
 30
0.0
 11
428.787
 21
-369.84
 31
0.0
  0
LINE
  5
130
330
17
100
AcDbEntity
  8
0
100
AcDbLine
 10
426.987
 20
-369.84
 30
0.0
 11
428.787
 21
-369.84
 31
0.0
  0
LINE
  5
131
330
17
100
AcDbEntity
  8
0
100
AcDbLine
 10
426.987
 20
-373.84
 30
0.0
 11
426.987
 21
-369.84
 31
0.0
  0
LINE
  5
132
330
17
100
AcDbEntity
  8
0
100
AcDbLine
 10
428.787
 20
-373.84
 30
0.0
 11
426.987
 21
-373.84
 31
0.0
  0
LINE
  5
133
330
17
100
AcDbEntity
  8
0
100
AcDbLine
 10
428.387
 20
-364.84
 30
0.0
 11
428.387
 21
-360.84
 31
0.0
  0
LINE
  5
134
330
17
100
AcDbEntity
  8
0
100
AcDbLine
 10
426.987
 20
-360.84
 30
0.0
 11
428.387
 21
-360.84
 31
0.0
  0
LINE
  5
135
330
17
100
AcDbEntity
  8
0
100
AcDbLine
 10
426.987
 20
-364.84
 30
0.0
 11
426.987
 21
-360.84
 31
0.0
  0
LINE
  5
136
330
17
100
AcDbEntity
  8
0
100
AcDbLine
 10
428.387
 20
-364.84
 30
0.0
 11
426.987
 21
-364.84
 31
0.0
  0
LINE
  5
137
330
17
100
AcDbEntity
  8
0
100
AcDbLine
 10
426.987
 20
-355.84
 30
0.0
 11
428.187
 21
-355.84
 31
0.0
  0
LINE
  5
138
330
17
100
AcDbEntity
  8
0
100
AcDbLine
 10
428.187
 20
-351.84
 30
0.0
 11
428.187
 21
-355.84
 31
0.0
  0
LINE
  5
139
330
17
100
AcDbEntity
  8
0
100
AcDbLine
 10
428.187
 20
-351.84
 30
0.0
 11
426.987
 21
-351.84
 31
0.0
  0
LINE
  5
13A
330
17
100
AcDbEntity
  8
0
100
AcDbLine
 10
426.987
 20
-351.84
 30
0.0
 11
426.987
 21
-355.84
 31
0.0
  0
LINE
  5
13B
330
17
100
AcDbEntity
  8
0
100
AcDbLine
 10
426.987
 20
-400.84
 30
0.0
 11
429.787
 21
-400.84
 31
0.0
  0
LINE
  5
13C
330
17
100
AcDbEntity
  8
0
100
AcDbLine
 10
429.787
 20
-396.84
 30
0.0
 11
429.787
 21
-400.84
 31
0.0
  0
LINE
  5
13D
330
17
100
AcDbEntity
  8
0
100
AcDbLine
 10
429.787
 20
-396.84
 30
0.0
 11
426.987
 21
-396.84
 31
0.0
  0
LINE
  5
13E
330
17
100
AcDbEntity
  8
0
100
AcDbLine
 10
426.987
 20
-396.84
 30
0.0
 11
426.987
 21
-400.84
 31
0.0
  0
LINE
  5
13F
330
17
100
AcDbEntity
  8
0
100
AcDbLine
 10
428.987
 20
-382.84
 30
0.0
 11
428.987
 21
-378.84
 31
0.0
  0
LINE
  5
140
330
17
100
AcDbEntity
  8
0
100
AcDbLine
 10
426.987
 20
-378.84
 30
0.0
 11
428.987
 21
-378.84
 31
0.0
  0
LINE
  5
141
330
17
100
AcDbEntity
  8
0
100
AcDbLine
 10
426.987
 20
-382.84
 30
0.0
 11
426.987
 21
-378.84
 31
0.0
  0
LINE
  5
142
330
17
100
AcDbEntity
  8
0
100
AcDbLine
 10
428.987
 20
-382.84
 30
0.0
 11
426.987
 21
-382.84
 31
0.0
  0
LINE
  5
143
330
17
100
AcDbEntity
  8
0
100
AcDbLine
 10
384.987
 20
-391.84
 30
0.0
 11
384.987
 21
-387.84
 31
0.0
  0
LINE
  5
144
330
17
100
AcDbEntity
  8
0
100
AcDbLine
 10
376.987
 20
-387.84
 30
0.0
 11
384.987
 21
-387.84
 31
0.0
  0
LINE
  5
145
330
17
100
AcDbEntity
  8
0
100
AcDbLine
 10
376.987
 20
-391.84
 30
0.0
 11
376.987
 21
-387.84
 31
0.0
  0
LINE
  5
146
330
17
100
AcDbEntity
  8
0
100
AcDbLine
 10
384.987
 20
-391.84
 30
0.0
 11
376.987
 21
-391.84
 31
0.0
  0
LINE
  5
147
330
17
100
AcDbEntity
  8
0
100
AcDbLine
 10
426.987
 20
-418.84
 30
0.0
 11
426.987
 21
-414.84
 31
0.0
  0
LINE
  5
148
330
17
100
AcDbEntity
  8
0
100
AcDbLine
 10
430.587
 20
-418.84
 30
0.0
 11
426.987
 21
-418.84
 31
0.0
  0
LINE
  5
149
330
17
100
AcDbEntity
  8
0
100
AcDbLine
 10
430.587
 20
-418.84
 30
0.0
 11
430.587
 21
-414.84
 31
0.0
  0
LINE
  5
14A
330
17
100
AcDbEntity
  8
0
100
AcDbLine
 10
426.987
 20
-414.84
 30
0.0
 11
430.587
 21
-414.84
 31
0.0
  0
LINE
  5
14B
330
17
100
AcDbEntity
  8
0
100
AcDbLine
 10
431.368
 20
-436.84
 30
0.0
 11
431.368
 21
-432.84
 31
0.0
  0
LINE
  5
14C
330
17
100
AcDbEntity
  8
0
100
AcDbLine
 10
426.968
 20
-432.84
 30
0.0
 11
431.368
 21
-432.84
 31
0.0
  0
LINE
  5
14D
330
17
100
AcDbEntity
  8
0
100
AcDbLine
 10
426.968
 20
-436.84
 30
0.0
 11
426.968
 21
-432.84
 31
0.0
  0
LINE
  5
14E
330
17
100
AcDbEntity
  8
0
100
AcDbLine
 10
431.368
 20
-436.84
 30
0.0
 11
426.968
 21
-436.84
 31
0.0
  0
LINE
  5
14F
330
17
100
AcDbEntity
  8
0
100
AcDbLine
 10
429.387
 20
-391.84
 30
0.0
 11
429.387
 21
-387.84
 31
0.0
  0
LINE
  5
150
330
17
100
AcDbEntity
  8
0
100
AcDbLine
 10
426.987
 20
-387.84
 30
0.0
 11
429.387
 21
-387.84
 31
0.0
  0
LINE
  5
151
330
17
100
AcDbEntity
  8
0
100
AcDbLine
 10
426.987
 20
-391.84
 30
0.0
 11
426.987
 21
-387.84
 31
0.0
  0
LINE
  5
152
330
17
100
AcDbEntity
  8
0
100
AcDbLine
 10
429.387
 20
-391.84
 30
0.0
 11
426.987
 21
-391.84
 31
0.0
  0
LWPOLYLINE
  5
153
330
17
100
AcDbEntity
  8
0
100
AcDbPolyline
 90
8
 70
1
 10
330.2188491821289
 20
-229.04024986814198
 10
330.2188491821289
 20
-209.040192647683
 10
330.2188491821289
 20
-199.04024986814198
 10
310.2187728881836
 20
-199.04024986814198
 10
300.2188491821289
 20
-199.04024986814198
 10
300.2188491821289
 20
-219.0403261620873
 10
300.2188491821289
 20
-229.0402689416283
 10
320.2189254760742
 20
-229.04024986814198
  0
LWPOLYLINE
  5
154
330
17
100
AcDbEntity
  8
0
100
AcDbPolyline
 90
8
 70
1
 10
451.42589569091797
 20
-70.0403490502709
 10
451.42589569091797
 20
-64.44025902341544
 10
451.42589569091797
 20
-58.040226979958405
 10
447.69256591796875
 20
-58.040226979958405
 10
443.4259033203125
 20
-58.040226979958405
 10
443.4259033203125
 20
-63.64031700681387
 10
443.4259033203125
 20
-70.0403490502709
 10
447.1592330932617
 20
-70.0403490502709
  0
LWPOLYLINE
  5
155
330
17
100
AcDbEntity
  8
0
100
AcDbPolyline
 90
8
 70
1
 10
378.90262603759766
 20
-351.84025673459706
 10
376.98673248291016
 20
-351.84025673459706
 10
376.98673248291016
 20
-353.2857504327172
 10
376.98673248291016
 20
-355.8402529198998
 10
378.0708694458008
 20
-355.8402529198998
 10
379.9867248535156
 20
-355.8402529198998
 10
379.9867248535156
 20
-354.3947592217797
 10
379.9867248535156
 20
-351.84025673459706
  0
LWPOLYLINE
  5
156
330
17
100
AcDbEntity
  8
0
100
AcDbPolyline
 90
8
 70
1
 10
376.98673248291016
 20
-360.84024338315663
 10
376.98673248291016
 20
-363.19474129270253
 10
376.98673248291016
 20
-364.84023956845937
 10
378.63224029541016
 20
-364.84023956845937
 10
380.9867477416992
 20
-364.84023956845937
 10
380.9867477416992
 20
-362.48574165891347
 10
380.9867477416992
 20
-360.84024338315663
 10
379.3412399291992
 20
-360.84024338315663
  0
LWPOLYLINE
  5
157
330
17
100
AcDbEntity
  8
0
100
AcDbPolyline
 90
8
 70
1
 10
376.98673248291016
 20
-369.8402586419457
 10
376.98673248291016
 20
-371.9547548730248
 10
376.98673248291016
 20
-373.84025482724843
 10
379.4378662109375
 20
-373.84025482724843
 10
382.1867370605469
 20
-373.84025482724843
 10
382.1867370605469
 20
-371.72574905942616
 10
382.1867370605469
 20
-369.8402586419457
 10
379.73560333251953
 20
-369.8402586419457
  0
LWPOLYLINE
  5
158
330
17
100
AcDbEntity
  8
0
100
AcDbPolyline
 90
8
 70
1
 10
376.98673248291016
 20
-378.84025482724843
 10
376.98673248291016
 20
-380.71474937986073
 10
376.98673248291016
 20
-382.84025101255116
 10
380.38753509521484
 20
-382.84025101255116
 10
383.38672637939453
 20
-382.84025101255116
 10
383.38672637939453
 20
-380.9657469231957
 10
383.38672637939453
 20
-378.84025482724843
 10
379.98592376708984
 20
-378.84025482724843
  0
LWPOLYLINE
  5
159
330
17
100
AcDbEntity
  8
0
100
AcDbPolyline
 90
8
 70
1
 10
376.98673248291016
 20
-387.84025101255116
 10
376.98673248291016
 20
-389.3947496850365
 10
376.98673248291016
 20
-391.84025673459706
 10
381.87774658203125
 20
-391.84025673459706
 10
384.9867248535156
 20
-391.84025673459706
 10
384.9867248535156
 20
-390.28574852536855
 10
384.9867248535156
 20
-387.84025101255116
 10
380.0957489013672
 20
-387.84025101255116
  0
LWPOLYLINE
  5
15A
330
17
100
AcDbEntity
  8
0
100
AcDbPolyline
 90
8
 70
1
 10
329.3412399291992
 20
-414.84024910520253
 10
326.98673248291016
 20
-414.84024910520253
 10
326.98673248291016
 20
-416.4857378442162
 10
326.98673248291016
 20
-418.84024529050527
 10
328.63224029541016
 20
-418.84024529050527
 10
330.9867477416992
 20
-418.84024529050527
 10
330.9867477416992
 20
-417.19473747800527
 10
330.9867477416992
 20
-414.84024910520253
  0
LWPOLYLINE
  5
15B
330
17
100
AcDbEntity
  8
0
100
AcDbPolyline
 90
8
 70
1
 10
326.9675827026367
 20
-423.84024529050527
 10
326.9675827026367
 20
-425.9947481591576
 10
326.9675827026367
 20
-427.840241475808
 10
329.2744827270508
 20
-427.840241475808
 10
331.9675827026367
 20
-427.840241475808
 10
331.9675827026367
 20
-425.68573860715566
 10
331.9675827026367
 20
-423.84024529050527
 10
329.66068267822266
 20
-423.84024529050527
  0
LWPOLYLINE
  5
15C
330
17
100
AcDbEntity
  8
0
100
AcDbPolyline
 90
8
 70
1
 10
328.3639907836914
 20
-378.84025482724843
 10
326.98673248291016
 20
-378.84025482724843
 10
326.98673248291016
 20
-381.5947523553246
 10
326.98673248291016
 20
-382.84025101255116
 10
327.6095199584961
 20
-382.84025101255116
 10
328.98670196533203
 20
-382.84025101255116
 10
328.98670196533203
 20
-380.085753484475
 10
328.98670196533203
 20
-378.84025482724843
  0
LWPOLYLINE
  5
15D
330
17
100
AcDbEntity
  8
0
100
AcDbPolyline
 90
8
 70
1
 10
328.90262603759766
 20
-387.84025101255116
 10
326.98673248291016
 20
-387.84025101255116
 10
326.98673248291016
 20
-390.3947534997338
 10
326.98673248291016
 20
-391.8402471978539
 10
328.0708694458008
 20
-391.8402471978539
 10
329.9867630004883
 20
-391.8402471978539
 10
329.9867630004883
 20
-389.2857447106713
 10
329.9867630004883
 20
-387.84025101255116
  0
LWPOLYLINE
  5
15E
330
17
100
AcDbEntity
  8
0
100
AcDbPolyline
 90
8
 70
1
 10
329.3412399291992
 20
-396.84023766111073
 10
326.98673248291016
 20
-396.84023766111073
 10
326.98673248291016
 20
-398.48574547361073
 10
326.98673248291016
 20
-400.84024338315663
 10
328.63224029541016
 20
-400.84024338315663
 10
330.9867477416992
 20
-400.84024338315663
 10
330.9867477416992
 20
-399.1947451073998
 10
330.9867477416992
 20
-396.84023766111073
  0
LWPOLYLINE
  5
15F
330
17
100
AcDbEntity
  8
0
100
AcDbPolyline
 90
8
 70
1
 10
329.6798324584961
 20
-405.84023384641347
 10
326.98673248291016
 20
-405.84023384641347
 10
326.98673248291016
 20
-407.9947367150658
 10
326.98673248291016
 20
-409.84023956845937
 10
329.2936325073242
 20
-409.84023956845937
 10
331.98673248291016
 20
-409.84023956845937
 10
331.98673248291016
 20
-407.685736699807
 10
331.98673248291016
 20
-405.84023384641347
  0
LWPOLYLINE
  5
160
330
17
100
AcDbEntity
  8
0
100
AcDbPolyline
 90
8
 70
1
 10
328.98670196533203
 20
-351.84025673459706
 10
328.3639907836914
 20
-351.84025673459706
 10
326.98673248291016
 20
-351.84025673459706
 10
326.98673248291016
 20
-353.0857553918236
 10
326.98673248291016
 20
-355.8402529198998
 10
327.6095199584961
 20
-355.8402529198998
 10
328.98670196533203
 20
-355.8402529198998
 10
328.98670196533203
 20
-354.59475426267323
  0
LWPOLYLINE
  5
161
330
17
100
AcDbEntity
  8
0
100
AcDbPolyline
 90
8
 70
1
 10
329.3412399291992
 20
-360.84024338315663
 10
326.98673248291016
 20
-360.84024338315663
 10
326.98673248291016
 20
-363.19474129270253
 10
326.98673248291016
 20
-364.84023956845937
 10
328.63224029541016
 20
-364.84023956845937
 10
330.9867477416992
 20
-364.84023956845937
 10
330.9867477416992
 20
-362.48574165891347
 10
330.9867477416992
 20
-360.84024338315663
  0
LWPOLYLINE
  5
162
330
17
100
AcDbEntity
  8
0
100
AcDbPolyline
 90
8
 70
1
 10
329.9184799194336
 20
-369.8402586419457
 10
326.98673248291016
 20
-369.8402586419457
 10
326.98673248291016
 20
-371.7947569329613
 10
326.98673248291016
 20
-373.84025482724843
 10
330.05496978759766
 20
-373.84025482724843
 10
332.9867172241211
 20
-373.84025482724843
 10
332.9867172241211
 20
-371.8857565362328
 10
332.9867172241211
 20
-369.8402586419457
  0
LWPOLYLINE
  5
163
330
17
100
AcDbEntity
  8
0
100
AcDbPolyline
 90
8
 70
1
 10
186.32007598876953
 20
-355.8402529198998
 10
196.98673248291016
 20
-355.8402529198998
 10
196.98673248291016
 20
-354.9069109399193
 10
196.98673248291016
 20
-353.84025482724843
 10
187.65338897705078
 20
-353.84025482724843
 10
176.98673248291016
 20
-353.84025482724843
 10
176.98673248291016
 20
-354.77358727048573
 10
176.98673248291016
 20
-355.8402529198998
  0
LWPOLYLINE
  5
164
330
17
100
AcDbEntity
  8
0
100
AcDbPolyline
 90
8
 70
1
 10
196.98673248291016
 20
-364.84024910520253
 10
196.98673248291016
 20
-362.97357468198476
 10
196.98673248291016
 20
-360.8402529198998
 10
187.65338897705078
 20
-360.8402529198998
 10
176.98673248291016
 20
-360.8402529198998
 10
176.98673248291016
 20
-362.70692734311757
 10
176.98673248291016
 20
-364.84024910520253
 10
186.32007598876953
 20
-364.84024910520253
  0
LWPOLYLINE
  5
165
330
17
100
AcDbEntity
  8
0
100
AcDbPolyline
 90
8
 70
1
 10
196.98673248291016
 20
-375.84024338315663
 10
196.98673248291016
 20
-373.0402269799584
 10
196.98673248291016
 20
-369.84023956845937
 10
187.65338897705078
 20
-369.84023956845937
 10
176.98673248291016
 20
-369.84023956845937
 10
176.98673248291016
 20
-372.6402559716576
 10
176.98673248291016
 20
-375.84024338315663
 10
186.32007598876953
 20
-375.84024338315663
  0
LWPOLYLINE
  5
166
330
17
100
AcDbEntity
  8
0
100
AcDbPolyline
 90
8
 70
1
 10
246.98673248291016
 20
-355.2802458245629
 10
246.98673248291016
 20
-354.640254064309
 10
237.65338897705078
 20
-354.640254064309
 10
226.98673248291016
 20
-354.640254064309
 10
226.98673248291016
 20
-355.2002516229027
 10
226.98673248291016
 20
-355.8402529198998
 10
236.32007598876953
 20
-355.8402529198998
 10
246.98673248291016
 20
-355.8402529198998
  0
LWPOLYLINE
  5
167
330
17
100
AcDbEntity
  8
0
100
AcDbPolyline
 90
8
 70
1
 10
246.98673248291016
 20
-364.1869154412621
 10
246.98673248291016
 20
-363.440245671975
 10
237.65338897705078
 20
-363.440245671975
 10
226.98673248291016
 20
-363.440245671975
 10
226.98673248291016
 20
-364.0935888726586
 10
226.98673248291016
 20
-364.84024910520253
 10
236.32007598876953
 20
-364.84024910520253
 10
246.98673248291016
 20
-364.84024910520253
  0
LWPOLYLINE
  5
168
330
17
100
AcDbEntity
  8
0
100
AcDbPolyline
 90
8
 70
1
 10
246.98673248291016
 20
-373.0002394158715
 10
246.98673248291016
 20
-372.04024223874745
 10
237.65338897705078
 20
-372.04024223874745
 10
226.98673248291016
 20
-372.04024223874745
 10
226.98673248291016
 20
-372.88024811338124
 10
226.98673248291016
 20
-373.84024529050527
 10
236.32007598876953
 20
-373.84024529050527
 10
246.98673248291016
 20
-373.84024529050527
  0
LWPOLYLINE
  5
169
330
17
100
AcDbEntity
  8
0
100
AcDbPolyline
 90
8
 70
1
 10
246.98673248291016
 20
-380.8402529198998
 10
237.65338897705078
 20
-380.8402529198998
 10
226.98673248291016
 20
-380.8402529198998
 10
226.98673248291016
 20
-381.7735853631371
 10
226.98673248291016
 20
-382.84025101255116
 10
236.32007598876953
 20
-382.84025101255116
 10
246.98673248291016
 20
-382.84025101255116
 10
246.98673248291016
 20
-381.9069090325707
  0
LWPOLYLINE
  5
16A
330
17
100
AcDbEntity
  8
0
100
AcDbPolyline
 90
8
 70
1
 10
246.98673248291016
 20
-389.4402590234154
 10
237.65338897705078
 20
-389.4402590234154
 10
226.98673248291016
 20
-389.4402590234154
 10
226.98673248291016
 20
-390.5602636773461
 10
226.98673248291016
 20
-391.84025673459706
 10
236.32007598876953
 20
-391.84025673459706
 10
246.98673248291016
 20
-391.84025673459706
 10
246.98673248291016
 20
-390.7202520806664
  0
LWPOLYLINE
  5
16B
330
17
100
AcDbEntity
  8
0
100
AcDbPolyline
 90
8
 70
1
 10
246.98673248291016
 20
-399.53358559201894
 10
246.98673248291016
 20
-398.0402460534447
 10
237.65338897705078
 20
-398.0402460534447
 10
226.98673248291016
 20
-398.0402460534447
 10
226.98673248291016
 20
-399.34692291806874
 10
226.98673248291016
 20
-400.8402529198998
 10
236.32007598876953
 20
-400.8402529198998
 10
246.98673248291016
 20
-400.8402529198998
  0
LWPOLYLINE
  5
16C
330
17
100
AcDbEntity
  8
0
100
AcDbPolyline
 90
8
 70
1
 10
246.98673248291016
 20
-408.3469095666283
 10
246.98673248291016
 20
-406.64025215696034
 10
237.65338897705078
 20
-406.64025215696034
 10
226.98673248291016
 20
-406.64025215696034
 10
226.98673248291016
 20
-408.13359169553456
 10
226.98673248291016
 20
-409.84024910520253
 10
236.32007598876953
 20
-409.84024910520253
 10
246.98673248291016
 20
-409.84024910520253
  0
LWPOLYLINE
  5
16D
330
17
100
AcDbEntity
  8
0
100
AcDbPolyline
 90
8
 70
1
 10
246.98673248291016
 20
-417.160252614724
 10
246.98673248291016
 20
-415.24025826047597
 10
237.65338897705078
 20
-415.24025826047597
 10
226.98673248291016
 20
-415.24025826047597
 10
226.98673248291016
 20
-416.92027000974355
 10
226.98673248291016
 20
-418.84024529050527
 10
236.32007598876953
 20
-418.84024529050527
 10
246.98673248291016
 20
-418.84024529050527
  0
LWPOLYLINE
  5
16E
330
17
100
AcDbEntity
  8
0
100
AcDbPolyline
 90
8
 70
1
 10
246.98673248291016
 20
-423.84024529050527
 10
237.65338897705078
 20
-423.84024529050527
 10
226.98673248291016
 20
-423.84024529050527
 10
226.98673248291016
 20
-425.7069292504662
 10
226.98673248291016
 20
-427.8402605492943
 10
236.32007598876953
 20
-427.8402605492943
 10
246.98673248291016
 20
-427.8402605492943
 10
246.98673248291016
 20
-425.9735765893334
  0
LWPOLYLINE
  5
16F
330
17
100
AcDbEntity
  8
0
100
AcDbPolyline
 90
8
 70
1
 10
246.98673248291016
 20
-432.4402513940209
 10
237.65338897705078
 20
-432.4402513940209
 10
226.98673248291016
 20
-432.4402513940209
 10
226.98673248291016
 20
-434.49358849118886
 10
226.98673248291016
 20
-436.84025673459706
 10
236.32007598876953
 20
-436.84025673459706
 10
246.98673248291016
 20
-436.84025673459706
 10
246.98673248291016
 20
-434.7869196374291
  0
LWPOLYLINE
  5
170
330
17
100
AcDbEntity
  8
0
100
AcDbPolyline
 90
8
 70
1
 10
196.98673248291016
 20
-382.84025101255116
 10
196.98673248291016
 20
-381.9069090325707
 10
196.98673248291016
 20
-380.8402529198998
 10
187.65338897705078
 20
-380.8402529198998
 10
176.98673248291016
 20
-380.8402529198998
 10
176.98673248291016
 20
-381.7735853631371
 10
176.98673248291016
 20
-382.84025101255116
 10
186.32007598876953
 20
-382.84025101255116
  0
LWPOLYLINE
  5
171
330
17
100
AcDbEntity
  8
0
100
AcDbPolyline
 90
8
 70
1
 10
196.98673248291016
 20
-391.84025673459706
 10
196.98673248291016
 20
-390.7202520806664
 10
196.98673248291016
 20
-389.4402590234154
 10
187.65338897705078
 20
-389.4402590234154
 10
176.98673248291016
 20
-389.4402590234154
 10
176.98673248291016
 20
-390.5602636773461
 10
176.98673248291016
 20
-391.84025673459706
 10
186.32007598876953
 20
-391.84025673459706
  0
LWPOLYLINE
  5
172
330
17
100
AcDbEntity
  8
0
100
AcDbPolyline
 90
8
 70
1
 10
196.98673248291016
 20
-400.8402529198998
 10
196.98673248291016
 20
-399.53358559201894
 10
196.98673248291016
 20
-398.0402460534447
 10
187.65338897705078
 20
-398.0402460534447
 10
176.98673248291016
 20
-398.0402460534447
 10
176.98673248291016
 20
-399.34692291806874
 10
176.98673248291016
 20
-400.8402529198998
 10
186.32007598876953
 20
-400.8402529198998
  0
LWPOLYLINE
  5
173
330
17
100
AcDbEntity
  8
0
100
AcDbPolyline
 90
8
 70
1
 10
196.98673248291016
 20
-408.440245671975
 10
196.98673248291016
 20
-406.84025673459706
 10
187.65338897705078
 20
-406.84025673459706
 10
176.98673248291016
 20
-406.84025673459706
 10
176.98673248291016
 20
-408.2402601678246
 10
176.98673248291016
 20
-409.84024910520253
 10
186.32007598876953
 20
-409.84024910520253
 10
196.98673248291016
 20
-409.84024910520253
  0
LWPOLYLINE
  5
174
330
17
100
AcDbEntity
  8
0
100
AcDbPolyline
 90
8
 70
1
 10
196.98673248291016
 20
-416.8429079491967
 10
196.98673248291016
 20
-414.560269399392
 10
187.65338897705078
 20
-414.560269399392
 10
176.98673248291016
 20
-414.560269399392
 10
176.98673248291016
 20
-416.5576067407006
 10
176.98673248291016
 20
-418.8402643639916
 10
186.32007598876953
 20
-418.8402643639916
 10
196.98673248291016
 20
-418.8402643639916
  0
LWPOLYLINE
  5
175
330
17
100
AcDbEntity
  8
0
100
AcDbPolyline
 90
8
 70
1
 10
276.98673248291016
 20
-355.8402529198998
 10
286.32007598876953
 20
-355.8402529198998
 10
296.98673248291016
 20
-355.8402529198998
 10
296.98673248291016
 20
-354.9069109399193
 10
296.98673248291016
 20
-353.84025482724843
 10
287.6533889770508
 20
-353.84025482724843
 10
276.98673248291016
 20
-353.84025482724843
 10
276.98673248291016
 20
-354.77358727048573
  0
LWPOLYLINE
  5
176
330
17
100
AcDbEntity
  8
0
100
AcDbPolyline
 90
8
 70
1
 10
286.32007598876953
 20
-364.84024910520253
 10
296.98673248291016
 20
-364.84024910520253
 10
296.98673248291016
 20
-363.90690712522206
 10
296.98673248291016
 20
-362.84025101255116
 10
287.6533889770508
 20
-362.84025101255116
 10
276.98673248291016
 20
-362.84025101255116
 10
276.98673248291016
 20
-363.77358345578847
 10
276.98673248291016
 20
-364.84024910520253
  0
LWPOLYLINE
  5
177
330
17
100
AcDbEntity
  8
0
100
AcDbPolyline
 90
8
 70
1
 10
286.32007598876953
 20
-373.84024529050527
 10
296.98673248291016
 20
-373.84024529050527
 10
296.98673248291016
 20
-372.8135767419213
 10
296.98673248291016
 20
-371.6402426202172
 10
287.6533889770508
 20
-371.6402426202172
 10
276.98673248291016
 20
-371.6402426202172
 10
276.98673248291016
 20
-372.6669207055443
 10
276.98673248291016
 20
-373.84024529050527
  0
LWPOLYLINE
  5
178
330
17
100
AcDbEntity
  8
0
100
AcDbPolyline
 90
8
 70
1
 10
276.98673248291016
 20
-382.84025101255116
 10
286.32007598876953
 20
-382.84025101255116
 10
296.98673248291016
 20
-382.84025101255116
 10
296.98673248291016
 20
-381.9069090325707
 10
296.98673248291016
 20
-380.8402529198998
 10
287.6533889770508
 20
-380.8402529198998
 10
276.98673248291016
 20
-380.8402529198998
 10
276.98673248291016
 20
-381.7735853631371
  0
LWPOLYLINE
  5
179
330
17
100
AcDbEntity
  8
0
100
AcDbPolyline
 90
8
 70
1
 10
286.32007598876953
 20
-391.8402471978539
 10
296.98673248291016
 20
-391.8402471978539
 10
296.98673248291016
 20
-390.1229086358422
 10
296.98673248291016
 20
-388.1602468926781
 10
287.6533889770508
 20
-388.1602468926781
 10
276.98673248291016
 20
-388.1602468926781
 10
276.98673248291016
 20
-389.87758545468984
 10
276.98673248291016
 20
-391.8402471978539
  0
LWPOLYLINE
  5
17A
330
17
100
AcDbEntity
  8
0
100
AcDbPolyline
 90
8
 70
1
 10
286.32007598876953
 20
-400.8402529198998
 10
296.98673248291016
 20
-400.8402529198998
 10
296.98673248291016
 20
-398.6469164330834
 10
296.98673248291016
 20
-396.1402597863549
 10
287.6533889770508
 20
-396.1402597863549
 10
276.98673248291016
 20
-396.1402597863549
 10
276.98673248291016
 20
-398.3335962731713
 10
276.98673248291016
 20
-400.8402529198998
  0
LWPOLYLINE
  5
17B
330
17
100
AcDbEntity
  8
0
100
AcDbPolyline
 90
8
 70
1
 10
296.98673248291016
 20
-409.84024910520253
 10
296.98673248291016
 20
-409.75624947141347
 10
296.98673248291016
 20
-409.660252614724
 10
287.6533889770508
 20
-409.660252614724
 10
276.98673248291016
 20
-409.660252614724
 10
276.98673248291016
 20
-409.7442522485131
 10
276.98673248291016
 20
-409.84024910520253
 10
286.32007598876953
 20
-409.84024910520253
  0
LWPOLYLINE
  5
17C
330
17
100
AcDbEntity
  8
0
100
AcDbPolyline
 90
8
 70
1
 10
296.98673248291016
 20
-414.84024910520253
 10
296.98673248291016
 20
-414.7282495934838
 10
296.98673248291016
 20
-414.60024742673573
 10
287.6533889770508
 20
-414.60024742673573
 10
276.98673248291016
 20
-414.60024742673573
 10
276.98673248291016
 20
-414.7122469384545
 10
276.98673248291016
 20
-414.84024910520253
 10
286.32007598876953
 20
-414.84024910520253
  0
LWPOLYLINE
  5
17D
330
17
100
AcDbEntity
  8
0
100
AcDbPolyline
 90
8
 70
1
 10
296.98673248291016
 20
-419.84024910520253
 10
296.98673248291016
 20
-419.7235765893334
 10
296.98673248291016
 20
-419.5902529198998
 10
287.6533889770508
 20
-419.5902529198998
 10
276.98673248291016
 20
-419.5902529198998
 10
276.98673248291016
 20
-419.7069063622826
 10
276.98673248291016
 20
-419.84024910520253
 10
286.32007598876953
 20
-419.84024910520253
  0
LWPOLYLINE
  5
17E
330
17
100
AcDbEntity
  8
0
100
AcDbPolyline
 90
8
 70
1
 10
296.98673248291016
 20
-424.84024910520253
 10
296.98673248291016
 20
-424.7235765893334
 10
296.98673248291016
 20
-424.5902529198998
 10
287.6533889770508
 20
-424.5902529198998
 10
276.98673248291016
 20
-424.5902529198998
 10
276.98673248291016
 20
-424.7069063622826
 10
276.98673248291016
 20
-424.84024910520253
 10
286.32007598876953
 20
-424.84024910520253
  0
LWPOLYLINE
  5
17F
330
17
100
AcDbEntity
  8
0
100
AcDbPolyline
 90
8
 70
1
 10
176.98673248291016
 20
-427.8402605492943
 10
186.32007598876953
 20
-427.8402605492943
 10
196.98673248291016
 20
-427.8402605492943
 10
196.98673248291016
 20
-425.50690559934316
 10
196.98673248291016
 20
-422.8402605492943
 10
187.65338897705078
 20
-422.8402605492943
 10
176.98673248291016
 20
-422.8402605492943
 10
176.98673248291016
 20
-425.1735964257592
  0
LWPOLYLINE
  5
180
330
17
100
AcDbEntity
  8
0
100
AcDbPolyline
 90
8
 70
1
 10
186.32007598876953
 20
-436.84025673459706
 10
196.98673248291016
 20
-436.84025673459706
 10
196.98673248291016
 20
-435.9069147546166
 10
196.98673248291016
 20
-434.84024910520253
 10
187.65338897705078
 20
-434.84024910520253
 10
176.98673248291016
 20
-434.84024910520253
 10
176.98673248291016
 20
-435.773591085183
 10
176.98673248291016
 20
-436.84025673459706
  0
LWPOLYLINE
  5
181
330
17
100
AcDbEntity
  8
0
100
AcDbPolyline
 90
8
 70
1
 10
196.98673248291016
 20
-445.8402529198998
 10
196.98673248291016
 20
-444.16026024411855
 10
196.98673248291016
 20
-442.2402658898705
 10
187.65338897705078
 20
-442.2402658898705
 10
176.98673248291016
 20
-442.2402658898705
 10
176.98673248291016
 20
-443.9202776391381
 10
176.98673248291016
 20
-445.8402529198998
 10
186.32007598876953
 20
-445.8402529198998
  0
LWPOLYLINE
  5
182
330
17
100
AcDbEntity
  8
0
100
AcDbPolyline
 90
8
 70
1
 10
196.98673248291016
 20
-454.84026817868886
 10
196.98673248291016
 20
-452.5069132287377
 10
196.98673248291016
 20
-449.84026817868886
 10
187.65338897705078
 20
-449.84026817868886
 10
176.98673248291016
 20
-449.84026817868886
 10
176.98673248291016
 20
-452.1736040551537
 10
176.98673248291016
 20
-454.84026817868886
 10
186.32007598876953
 20
-454.84026817868886
  0
LWPOLYLINE
  5
183
330
17
100
AcDbEntity
  8
0
100
AcDbPolyline
 90
8
 70
1
 10
236.32007598876953
 20
-445.8402529198998
 10
246.98673248291016
 20
-445.8402529198998
 10
246.98673248291016
 20
-444.9069109399193
 10
246.98673248291016
 20
-443.84024529050527
 10
237.65338897705078
 20
-443.84024529050527
 10
226.98673248291016
 20
-443.84024529050527
 10
226.98673248291016
 20
-444.77358727048573
 10
226.98673248291016
 20
-445.8402529198998
  0
LWPOLYLINE
  5
184
330
17
100
AcDbEntity
  8
0
100
AcDbPolyline
 90
8
 70
1
 10
236.32007598876953
 20
-454.84024910520253
 10
246.98673248291016
 20
-454.84024910520253
 10
246.98673248291016
 20
-452.8802385766381
 10
246.98673248291016
 20
-450.6402483422631
 10
237.65338897705078
 20
-450.6402483422631
 10
226.98673248291016
 20
-450.6402483422631
 10
226.98673248291016
 20
-452.60025887082753
 10
226.98673248291016
 20
-454.84024910520253
  0
LWPOLYLINE
  5
185
330
17
100
AcDbEntity
  8
0
100
AcDbPolyline
 90
8
 70
1
 10
226.98673248291016
 20
-463.8402643639916
 10
236.32007598876953
 20
-463.8402643639916
 10
246.98673248291016
 20
-463.8402643639916
 10
246.98673248291016
 20
-462.9069223840111
 10
246.98673248291016
 20
-461.84025673459706
 10
237.65338897705078
 20
-461.84025673459706
 10
226.98673248291016
 20
-461.84025673459706
 10
226.98673248291016
 20
-462.77359871457753
  0
LWPOLYLINE
  5
186
330
17
100
AcDbEntity
  8
0
100
AcDbPolyline
 90
8
 70
1
 10
296.98673248291016
 20
-439.84024910520253
 10
296.98673248291016
 20
-439.746922536599
 10
296.98673248291016
 20
-439.64026360105214
 10
287.6533889770508
 20
-439.64026360105214
 10
276.98673248291016
 20
-439.64026360105214
 10
276.98673248291016
 20
-439.73359016965566
 10
276.98673248291016
 20
-439.84024910520253
 10
286.32007598876953
 20
-439.84024910520253
  0
LWPOLYLINE
  5
187
330
17
100
AcDbEntity
  8
0
100
AcDbPolyline
 90
8
 70
1
 10
296.98673248291016
 20
-444.84024910520253
 10
296.98673248291016
 20
-444.7282495934838
 10
296.98673248291016
 20
-444.60024742673573
 10
287.6533889770508
 20
-444.60024742673573
 10
276.98673248291016
 20
-444.60024742673573
 10
276.98673248291016
 20
-444.7122469384545
 10
276.98673248291016
 20
-444.84024910520253
 10
286.32007598876953
 20
-444.84024910520253
  0
LWPOLYLINE
  5
188
330
17
100
AcDbEntity
  8
0
100
AcDbPolyline
 90
8
 70
1
 10
296.98673248291016
 20
-449.84024910520253
 10
296.98673248291016
 20
-449.7002497155541
 10
296.98673248291016
 20
-449.5402613122338
 10
287.6533889770508
 20
-449.5402613122338
 10
276.98673248291016
 20
-449.5402613122338
 10
276.98673248291016
 20
-449.6802607018822
 10
276.98673248291016
 20
-449.84024910520253
 10
286.32007598876953
 20
-449.84024910520253
  0
LWPOLYLINE
  5
189
330
17
100
AcDbEntity
  8
0
100
AcDbPolyline
 90
8
 70
1
 10
296.98673248291016
 20
-454.84024910520253
 10
296.98673248291016
 20
-454.6722498376244
 10
296.98673248291016
 20
-454.4802561242455
 10
287.6533889770508
 20
-454.4802561242455
 10
276.98673248291016
 20
-454.4802561242455
 10
276.98673248291016
 20
-454.6482553918236
 10
276.98673248291016
 20
-454.84024910520253
 10
286.32007598876953
 20
-454.84024910520253
  0
LWPOLYLINE
  5
18A
330
17
100
AcDbEntity
  8
0
100
AcDbPolyline
 90
8
 70
1
 10
377.7253723144531
 20
-396.84023766111073
 10
376.98673248291016
 20
-396.84023766111073
 10
376.98673248291016
 20
-397.88574127744374
 10
376.98673248291016
 20
-400.84024338315663
 10
377.2481155395508
 20
-400.84024338315663
 10
377.9867172241211
 20
-400.84024338315663
 10
377.9867172241211
 20
-399.7947397668236
 10
377.9867172241211
 20
-396.84023766111073
  0
LWPOLYLINE
  5
18B
330
17
100
AcDbEntity
  8
0
100
AcDbPolyline
 90
8
 70
1
 10
377.9928207397461
 20
-405.84023384641347
 10
376.98673248291016
 20
-405.84023384641347
 10
376.98673248291016
 20
-408.7147417504662
 10
376.98673248291016
 20
-409.84023956845937
 10
377.38067626953125
 20
-409.84023956845937
 10
378.38672637939453
 20
-409.84023956845937
 10
378.38672637939453
 20
-406.9657412011498
 10
378.38672637939453
 20
-405.84023384641347
  0
LWPOLYLINE
  5
18C
330
17
100
AcDbEntity
  8
0
100
AcDbPolyline
 90
8
 70
1
 10
377.9867172241211
 20
-414.84024910520253
 10
377.7253723144531
 20
-414.84024910520253
 10
376.98673248291016
 20
-414.84024910520253
 10
376.98673248291016
 20
-415.8857431847924
 10
376.98673248291016
 20
-418.84024529050527
 10
377.2481155395508
 20
-418.84024529050527
 10
377.9867172241211
 20
-418.84024529050527
 10
377.9867172241211
 20
-417.7947512109154
  0
LWPOLYLINE
  5
18D
330
17
100
AcDbEntity
  8
0
100
AcDbPolyline
 90
8
 70
1
 10
376.9675827026367
 20
-423.84024529050527
 10
376.9675827026367
 20
-426.7147341210717
 10
376.9675827026367
 20
-427.840241475808
 10
377.3615264892578
 20
-427.840241475808
 10
378.3675765991211
 20
-427.840241475808
 10
378.3675765991211
 20
-424.96573357175527
 10
378.3675765991211
 20
-423.84024529050527
 10
377.97367095947266
 20
-423.84024529050527
  0
LWPOLYLINE
  5
18E
330
17
100
AcDbEntity
  8
0
100
AcDbPolyline
 90
8
 70
1
 10
376.9675827026367
 20
-432.840241475808
 10
376.9675827026367
 20
-435.71474937986073
 10
376.9675827026367
 20
-436.84023766111073
 10
377.3615264892578
 20
-436.84023766111073
 10
378.3675765991211
 20
-436.84023766111073
 10
378.3675765991211
 20
-433.9657488305443
 10
378.3675765991211
 20
-432.840241475808
 10
377.97367095947266
 20
-432.840241475808
  0
LWPOLYLINE
  5
18F
330
17
100
AcDbEntity
  8
0
100
AcDbPolyline
 90
8
 70
1
 10
478.9867401123047
 20
-369.8402586419457
 10
478.3639907836914
 20
-369.8402586419457
 10
476.98673248291016
 20
-369.8402586419457
 10
476.98673248291016
 20
-372.59475617002187
 10
476.98673248291016
 20
-373.84025482724843
 10
477.60948181152344
 20
-373.84025482724843
 10
478.9867401123047
 20
-373.84025482724843
 10
478.9867401123047
 20
-371.08575729917226
  0
LWPOLYLINE
  5
190
330
17
100
AcDbEntity
  8
0
100
AcDbPolyline
 90
8
 70
1
 10
479.1867446899414
 20
-378.84025482724843
 10
478.4796905517578
 20
-378.84025482724843
 10
476.98673248291016
 20
-378.84025482724843
 10
476.98673248291016
 20
-381.5547552544945
 10
476.98673248291016
 20
-382.84025101255116
 10
477.6937484741211
 20
-382.84025101255116
 10
479.1867446899414
 20
-382.84025101255116
 10
479.1867446899414
 20
-380.12575058530507
  0
LWPOLYLINE
  5
191
330
17
100
AcDbEntity
  8
0
100
AcDbPolyline
 90
8
 70
1
 10
478.9867401123047
 20
-354.59475426267323
 10
478.9867401123047
 20
-351.84025673459706
 10
478.3639907836914
 20
-351.84025673459706
 10
476.98673248291016
 20
-351.84025673459706
 10
476.98673248291016
 20
-353.0857553918236
 10
476.98673248291016
 20
-355.8402529198998
 10
477.60948181152344
 20
-355.8402529198998
 10
478.9867401123047
 20
-355.8402529198998
  0
LWPOLYLINE
  5
192
330
17
100
AcDbEntity
  8
0
100
AcDbPolyline
 90
8
 70
1
 10
478.9867401123047
 20
-362.0857420403832
 10
478.9867401123047
 20
-360.84024338315663
 10
478.3639907836914
 20
-360.84024338315663
 10
476.98673248291016
 20
-360.84024338315663
 10
476.98673248291016
 20
-363.5947409112328
 10
476.98673248291016
 20
-364.84023956845937
 10
477.60948181152344
 20
-364.84023956845937
 10
478.9867401123047
 20
-364.84023956845937
  0
LWPOLYLINE
  5
193
330
17
100
AcDbEntity
  8
0
100
AcDbPolyline
 90
8
 70
1
 10
426.98673248291016
 20
-351.84025673459706
 10
426.98673248291016
 20
-352.925747915017
 10
426.98673248291016
 20
-355.8402529198998
 10
427.31239318847656
 20
-355.8402529198998
 10
428.1867218017578
 20
-355.8402529198998
 10
428.1867218017578
 20
-354.7547522027367
 10
428.1867218017578
 20
-351.84025673459706
 10
427.86109924316406
 20
-351.84025673459706
  0
LWPOLYLINE
  5
194
330
17
100
AcDbEntity
  8
0
100
AcDbPolyline
 90
8
 70
1
 10
426.98673248291016
 20
-360.84024338315663
 10
426.98673248291016
 20
-363.7147417504662
 10
426.98673248291016
 20
-364.84023956845937
 10
427.38067626953125
 20
-364.84023956845937
 10
428.38672637939453
 20
-364.84023956845937
 10
428.38672637939453
 20
-361.9657412011498
 10
428.38672637939453
 20
-360.84024338315663
 10
427.9928207397461
 20
-360.84024338315663
  0
LWPOLYLINE
  5
195
330
17
100
AcDbEntity
  8
0
100
AcDbPolyline
 90
8
 70
1
 10
426.98673248291016
 20
-369.8402586419457
 10
426.98673248291016
 20
-372.63475327085195
 10
426.98673248291016
 20
-373.84025482724843
 10
427.5292205810547
 20
-373.84025482724843
 10
428.78673553466797
 20
-373.84025482724843
 10
428.78673553466797
 20
-371.045750661599
 10
428.78673553466797
 20
-369.8402586419457
 10
428.24424743652344
 20
-369.8402586419457
  0
LWPOLYLINE
  5
196
330
17
100
AcDbEntity
  8
0
100
AcDbPolyline
 90
8
 70
1
 10
426.98673248291016
 20
-381.5947523553246
 10
426.98673248291016
 20
-382.84025101255116
 10
427.60948181152344
 20
-382.84025101255116
 10
428.9867401123047
 20
-382.84025101255116
 10
428.9867401123047
 20
-380.085753484475
 10
428.9867401123047
 20
-378.84025482724843
 10
428.3639907836914
 20
-378.84025482724843
 10
426.98673248291016
 20
-378.84025482724843
  0
LWPOLYLINE
  5
197
330
17
100
AcDbEntity
  8
0
100
AcDbPolyline
 90
8
 70
1
 10
426.98673248291016
 20
-390.5147543389672
 10
426.98673248291016
 20
-391.84025673459706
 10
427.78202056884766
 20
-391.84025673459706
 10
429.3867492675781
 20
-391.84025673459706
 10
429.3867492675781
 20
-389.16575340818105
 10
429.3867492675781
 20
-387.84025101255116
 10
428.59142303466797
 20
-387.84025101255116
 10
426.98673248291016
 20
-387.84025101255116
  0
LWPOLYLINE
  5
198
330
17
100
AcDbEntity
  8
0
100
AcDbPolyline
 90
8
 70
1
 10
426.98673248291016
 20
-396.84023766111073
 10
426.98673248291016
 20
-398.24574379514394
 10
426.98673248291016
 20
-400.84024338315663
 10
427.9705810546875
 20
-400.84024338315663
 10
429.7867202758789
 20
-400.84024338315663
 10
429.7867202758789
 20
-399.4347467858666
 10
429.7867202758789
 20
-396.84023766111073
 10
428.80287170410156
 20
-396.84023766111073
  0
LWPOLYLINE
  5
199
330
17
100
AcDbEntity
  8
0
100
AcDbPolyline
 90
8
 70
1
 10
426.98673248291016
 20
-405.84023384641347
 10
426.98673248291016
 20
-408.354739232766
 10
426.98673248291016
 20
-409.84023956845937
 10
428.1751251220703
 20
-409.84023956845937
 10
430.18672943115234
 20
-409.84023956845937
 10
430.18672943115234
 20
-407.3257341821068
 10
430.18672943115234
 20
-405.84023384641347
 10
428.9983367919922
 20
-405.84023384641347
  0
LWPOLYLINE
  5
19A
330
17
100
AcDbEntity
  8
0
100
AcDbPolyline
 90
8
 70
1
 10
429.1777801513672
 20
-414.84024910520253
 10
426.98673248291016
 20
-414.84024910520253
 10
426.98673248291016
 20
-416.40574364255605
 10
426.98673248291016
 20
-418.84024529050527
 10
428.39569091796875
 20
-418.84024529050527
 10
430.5867385864258
 20
-418.84024529050527
 10
430.5867385864258
 20
-417.27475075315175
 10
430.5867385864258
 20
-414.84024910520253
  0
LWPOLYLINE
  5
19B
330
17
100
AcDbEntity
  8
0
100
AcDbPolyline
 90
8
 70
1
 10
426.9675827026367
 20
-426.1947527367943
 10
426.9675827026367
 20
-427.840241475808
 10
428.6130905151367
 20
-427.840241475808
 10
430.9675979614258
 20
-427.840241475808
 10
430.9675979614258
 20
-425.48573402951894
 10
430.9675979614258
 20
-423.84024529050527
 10
429.3220901489258
 20
-423.84024529050527
 10
426.9675827026367
 20
-423.84024529050527
  0
LWPOLYLINE
  5
19C
330
17
100
AcDbEntity
  8
0
100
AcDbPolyline
 90
8
 70
1
 10
426.9675827026367
 20
-435.1147356469506
 10
426.9675827026367
 20
-436.84023766111073
 10
428.8656234741211
 20
-436.84023766111073
 10
431.36756896972656
 20
-436.84023766111073
 10
431.36756896972656
 20
-434.56574348996816
 10
431.36756896972656
 20
-432.840241475808
 10
429.4695281982422
 20
-432.840241475808
 10
426.9675827026367
 20
-432.840241475808
  0
ENDSEC
  0
SECTION
  2
OBJECTS
  0
DICTIONARY
  5
A
330
0
100
AcDbDictionary
280
0
281
1
  3
ACAD_COLOR
350
B
  3
ACAD_GROUP
350
C
  3
ACAD_LAYOUT
350
D
  3
ACAD_MATERIAL
350
E
  3
ACAD_MLEADERSTYLE
350
F
  3
ACAD_MLINESTYLE
350
10
  3
ACAD_PLOTSETTINGS
350
11
  3
ACAD_PLOTSTYLENAME
350
12
  3
ACAD_SCALELIST
350
14
  3
ACAD_TABLESTYLE
350
15
  3
ACAD_VISUALSTYLE
350
16
  3
EZDXF_META
350
2D
  0
DICTIONARY
  5
B
330
A
100
AcDbDictionary
280
0
281
1
  0
DICTIONARY
  5
C
330
A
100
AcDbDictionary
280
0
281
1
  0
DICTIONARY
  5
D
330
A
100
AcDbDictionary
280
0
281
1
  3
Model
350
1A
  3
Layout1
350
1E
  0
DICTIONARY
  5
E
330
A
100
AcDbDictionary
280
0
281
1
  3
ByBlock
350
1F
  3
ByLayer
350
20
  3
Global
350
21
  0
DICTIONARY
  5
F
330
A
100
AcDbDictionary
280
0
281
1
  3
Standard
350
2C
  0
DICTIONARY
  5
10
330
A
100
AcDbDictionary
280
0
281
1
  3
Standard
350
22
  0
DICTIONARY
  5
11
330
A
100
AcDbDictionary
280
0
281
1
  0
ACDBDICTIONARYWDFLT
  5
12
330
A
100
AcDbDictionary
280
0
281
1
  3
Normal
350
13
100
AcDbDictionaryWithDefault
340
13
  0
ACDBPLACEHOLDER
  5
13
330
12
  0
DICTIONARY
  5
14
330
A
100
AcDbDictionary
280
0
281
1
  0
DICTIONARY
  5
15
330
A
100
AcDbDictionary
280
0
281
1
  0
DICTIONARY
  5
16
330
A
100
AcDbDictionary
280
0
281
1
  0
LAYOUT
  5
1A
330
D
100
AcDbPlotSettings
  1

  4
A3
  6

 40
7.5
 41
20.0
 42
7.5
 43
20.0
 44
420.0
 45
297.0
 46
0.0
 47
0.0
 48
0.0
 49
0.0
140
0.0
141
0.0
142
1.0
143
1.0
 70
1024
 72
1
 73
0
 74
5
  7

 75
16
 76
0
 77
2
 78
300
147
1.0
148
0.0
149
0.0
100
AcDbLayout
  1
Model
 70
1
 71
0
 10
0.0
 20
0.0
 11
420.0
 21
297.0
 12
0.0
 22
0.0
 32
0.0
 14
1e+20
 24
1e+20
 34
1e+20
 15
-1e+20
 25
-1e+20
 35
-1e+20
146
0.0
 13
0.0
 23
0.0
 33
0.0
 16
1.0
 26
0.0
 36
0.0
 17
0.0
 27
1.0
 37
0.0
 76
1
330
17
  0
LAYOUT
  5
1E
330
D
100
AcDbPlotSettings
  1

  4
A3
  6

 40
7.5
 41
20.0
 42
7.5
 43
20.0
 44
420.0
 45
297.0
 46
0.0
 47
0.0
 48
0.0
 49
0.0
140
0.0
141
0.0
142
1.0
143
1.0
 70
0
 72
1
 73
0
 74
5
  7

 75
16
 76
0
 77
2
 78
300
147
1.0
148
0.0
149
0.0
100
AcDbLayout
  1
Layout1
 70
1
 71
1
 10
0.0
 20
0.0
 11
420.0
 21
297.0
 12
0.0
 22
0.0
 32
0.0
 14
1e+20
 24
1e+20
 34
1e+20
 15
-1e+20
 25
-1e+20
 35
-1e+20
146
0.0
 13
0.0
 23
0.0
 33
0.0
 16
1.0
 26
0.0
 36
0.0
 17
0.0
 27
1.0
 37
0.0
 76
1
330
1B
  0
MATERIAL
  5
1F
102
{ACAD_REACTORS
330
E
102
}
330
E
100
AcDbMaterial
  1
ByBlock
  2

 70
0
 40
1.0
 71
1
 41
1.0
 91
-1023410177
 42
1.0
 72
1
  3

 73
1
 74
1
 75
1
 44
0.5
 73
0
 45
1.0
 46
1.0
 77
1
  4

 78
1
 79
1
170
1
 48
1.0
171
1
  6

172
1
173
1
174
1
140
1.0
141
1.0
175
1
  7

176
1
177
1
178
1
143
1.0
179
1
  8

270
1
271
1
272
1
145
1.0
146
1.0
273
1
  9

274
1
275
1
276
1
 42
1.0
 72
1
  3

 73
1
 74
1
 75
1
 94
63
  0
MATERIAL
  5
20
102
{ACAD_REACTORS
330
E
102
}
330
E
100
AcDbMaterial
  1
ByLayer
  2

 70
0
 40
1.0
 71
1
 41
1.0
 91
-1023410177
 42
1.0
 72
1
  3

 73
1
 74
1
 75
1
 44
0.5
 73
0
 45
1.0
 46
1.0
 77
1
  4

 78
1
 79
1
170
1
 48
1.0
171
1
  6

172
1
173
1
174
1
140
1.0
141
1.0
175
1
  7

176
1
177
1
178
1
143
1.0
179
1
  8

270
1
271
1
272
1
145
1.0
146
1.0
273
1
  9

274
1
275
1
276
1
 42
1.0
 72
1
  3

 73
1
 74
1
 75
1
 94
63
  0
MATERIAL
  5
21
102
{ACAD_REACTORS
330
E
102
}
330
E
100
AcDbMaterial
  1
Global
  2

 70
0
 40
1.0
 71
1
 41
1.0
 91
-1023410177
 42
1.0
 72
1
  3

 73
1
 74
1
 75
1
 44
0.5
 73
0
 45
1.0
 46
1.0
 77
1
  4

 78
1
 79
1
170
1
 48
1.0
171
1
  6

172
1
173
1
174
1
140
1.0
141
1.0
175
1
  7

176
1
177
1
178
1
143
1.0
179
1
  8

270
1
271
1
272
1
145
1.0
146
1.0
273
1
  9

274
1
275
1
276
1
 42
1.0
 72
1
  3

 73
1
 74
1
 75
1
 94
63
  0
MLINESTYLE
  5
22
102
{ACAD_REACTORS
330
10
102
}
330
10
100
AcDbMlineStyle
  2
Standard
 70
0
  3

 62
256
 51
90.0
 52
90.0
 71
2
 49
0.5
 62
256
  6
BYLAYER
 49
-0.5
 62
256
  6
BYLAYER
  0
MLEADERSTYLE
  5
2C
102
{ACAD_REACTORS
330
F
102
}
330
F
100
AcDbMLeaderStyle
179
2
170
2
171
1
172
0
 90
2
 40
0.0
 41
0.0
173
1
 91
-1056964608
 92
-2
290
1
 42
2.0
291
1
 43
8.0
  3
Standard
 44
4.0
300

342
29
174
1
175
1
176
0
178
1
 93
-1056964608
 45
4.0
292
0
297
0
 46
4.0
 94
-1056964608
 47
1.0
 49
1.0
140
1.0
294
1
141
0.0
177
0
142
1.0
295
0
296
0
143
3.75
271
0
272
9
273
9
  0
DICTIONARY
  5
2D
330
A
100
AcDbDictionary
281
1
  3
CREATED_BY_EZDXF
350
2E
  3
WRITTEN_BY_EZDXF
350
19F
  0
DICTIONARYVAR
  5
2E
330
2D
100
DictionaryVariables
280
0
  1
1.3.4 @ 2025-01-31T12:20:27.271588+00:00
  0
DICTIONARYVAR
  5
19F
330
2D
100
DictionaryVariables
280
0
  1
1.3.4 @ 2025-01-31T12:20:27.324401+00:00
  0
ENDSEC
  0
EOF
