<svg xmlns="http://www.w3.org/2000/svg" xmlns:xlink="http://www.w3.org/1999/xlink" xmlns:ifc="http://www.ifcopenshell.org/ns" width="250mm" height="250mm" viewBox="0 0 250 250">
    <defs>
        <marker id="arrowend" markerWidth="10" markerHeight="7" refX="10" refY="3.5" orient="auto">
          <polygon points="0 0, 10 3.5, 0 7"/>
        </marker>
        <marker id="arrowstart" markerWidth="10" markerHeight="7" refX="0" refY="3.5" orient="auto">
          <polygon points="10 0, 0 3.5, 10 7"/>
        </marker>
    </defs>
    <g ifc:name="Elevation 01_BWK_PLG_00_begane_grond" class="section" ifc:plane="[[1.000000,0.000000,0.000000,0.000000],[0.000000,1.000000,0.000000,0.000000],[0.000000,0.000000,1.000000,0.000000],[0.000000,0.000000,0.000000,1.000000]]" ifc:matrix3="[[10.000000,0.000000,25.000010],[0.000000,10.000000,225.000006],[0.000000,0.000000,1.000000]]">
        <g id="product-825af80d-8820-4f34-9343-1cfba5ae6040" class="IfcBeam material-gewapendbeton projection" ifc:name="Randbalk 400x500" ifc:guid="22MlWDY21FD9D37Fkbhc10">
            <path d="M55,223.6 L55,224"/>
            <path d="M55,225 L55,225.5"/>
            <path d="M24.5,222 L24.5,225.5"/>
            <path d="M24.5,225.5 L55,225.5"/>
        </g>
        <g id="product-3ca044f2-cb45-4fd5-9ed1-f2224cc585d0" class="IfcBeam material-gewapendbeton projection" ifc:name="Randbalk 400x500" ifc:guid="0ye4JooqLFrPxHyY9CnONG">
            <path d="M24.5,195 L25,195"/>
            <path d="M26,195 L26.4,195"/>
            <path d="M24.5,222 L25,222"/>
            <path d="M26,222 L26.4,222"/>
            <path d="M24.5,222 L24.5,195"/>
        </g>
        <g id="product-24151b66-b605-46df-8c23-cdb722960a7c" class="IfcWall material-metselwerkbaksteenrood projection" ifc:name="MW100" ifc:guid="0a5HjcjWL6tumZpRSYbWfy">
            <path d="M26,195 L26,225"/>
            <path d="M25,195 L26,195"/>
            <path d="M25,225 L25,195"/>
            <path d="M26,225 L25,225"/>
        </g>
        <g id="product-2de96125-daa6-4473-85a5-751c95fe6f49" class="IfcSlab material-NEN476gewapendbetonprefab projection" ifc:name="BET220" ifc:guid="0jwM4bsgP4SuMbTHoL$cz9">
            <path d="M26.4,223.6 L26.4,195"/>
            <path d="M26.4,223.6 L26.4,223.6"/>
            <path d="M55,222.4 L55,223.6"/>
            <path d="M26.4,195 L27.6,195"/>
        </g>
        <g id="product-c5e9504b-7df5-48b3-97e7-63b109bc7cac" class="IfcWall material-metselwerkbaksteenrood projection" ifc:name="MW100" ifc:guid="35wL1BVVL8ivVdOx49l7oi">
            <path d="M55,225 L26,225"/>
            <path d="M55,224 L55,225"/>
            <path d="M26,224 L55,224"/>
            <path d="M26,225 L26,224"/>
        </g>
        <g id="product-a8256432-6506-4059-9c01-fe484e21e762" class="IfcWall material-naaldhoutvurenCLT projection" ifc:name="CLT120" ifc:guid="2e9MGoPGP0MPm1$aXE8UTY">
            <path d="M27.6,195 L27.6,222.4"/>
            <path d="M26.4,195 L27.6,195"/>
            <path d="M26.4,222.4 L26.4,195"/>
            <path d="M27.6,222.4 L26.4,222.4"/>
        </g>
        <g id="product-bdd2c04b-301b-437f-b5b4-c152c73b62ad" class="IfcSlab material-ongewapendbeton projection" ifc:name="Cementdekvloer 70" ifc:guid="2zqi1BC1j3VxMqmLB7EsAj">
            <path d="M27.6,208.668 L27.6,195.9"/>
            <path d="M27.6,195 L27.6,195"/>
            <path d="M55,222.4 L55,222.4"/>
            <path d="M29.725,222.4 L27.6,222.4"/>
            <path d="M55,195 L55,222.4"/>
            <path d="M27.6,195 L30.8,195"/>
            <path d="M37.6044,195 L45.4594,195"/>
            <path d="M45.7594,195 L46.7388,195"/>
            <path d="M55,195 L55,195"/>
        </g>
        <g id="product-192a9b43-2910-4a77-8397-f252e3cba880" class="IfcWall material-metselwerkbaksteenrood projection" ifc:name="MW100" ifc:guid="0PAfj3AH1ATuENybBZowY0">
            <path d="M26.4,223.6 L26,223.6"/>
            <path d="M55,222.6 L55,223.6"/>
            <path d="M26,222.6 L26.4,222.6"/>
            <path d="M55,222.6 L55,222.6"/>
            <path d="M26,223.6 L26,222.6"/>
        </g>
        <g id="product-d1eea825-bc53-4fdc-87d9-2ac5de7f5971" class="IfcWall material-naaldhoutvurenCLT projection" ifc:name="CLT120" ifc:guid="3HxgWbl5DFt8VPAiNUVrbn">
            <path d="M37.6044,222.4 L47.5044,222.4"/>
            <path d="M26.4,222.4 L26.4,223.6"/>
            <path d="M37.6044,223.6 L26.4,223.6"/>
            <path d="M37.6044,223.6 L37.6044,222.4"/>
            <path d="M37.6044,222.4 L26.4,222.4"/>
            <path d="M55,222.4 L47.5044,222.4"/>
            <path d="M47.5044,222.4 L47.5044,223.6"/>
            <path d="M55,223.6 L47.5044,223.6"/>
            <path d="M55,222.4 L55,223.6"/>
        </g>
        <g id="product-ac94c655-cb30-4114-8c8f-cb59c9a4150a" class="IfcWindow material-null projection" ifc:name="W_2D_990x1560" ifc:guid="2ibCPLop1158oFord9f1KA">
            <path d="M38.1044,223.352 L47.0044,223.352"/>
            <path d="M38.1044,223.352 L38.1044,223.352"/>
            <path d="M47.0044,223.152 L38.1044,223.152"/>
            <path d="M47.04,222.922 L47.0544,222.907"/>
            <path d="M47.5044,223.427 L47.4512,223.366"/>
            <path d="M47.0684,222.923 L47.0544,222.907"/>
            <path d="M47.5044,223.427 L47.474,223.399"/>
            <path d="M46.9063,223.427 L46.8344,223.427"/>
            <path d="M38.0688,222.922 L38.0544,222.907"/>
            <path d="M37.6348,223.399 L37.6044,223.427"/>
            <path d="M37.6044,223.427 L37.6575,223.366"/>
            <path d="M38.0404,222.923 L38.0544,222.907"/>
            <path d="M38.2744,223.427 L38.2025,223.427"/>
            <path d="M38.1044,223.352 L38.1044,223.352"/>
            <path d="M47.0044,223.43 L47.0044,222.957"/>
            <path d="M47.0257,222.925 L47.0353,222.911"/>
            <path d="M47.0044,223.43 L47.0044,223.427"/>
            <path d="M47.0044,223.43 L47.5044,223.427"/>
            <path d="M46.8344,223.427 L46.8344,224"/>
            <path d="M47.5044,224.297 L47.5044,223.897"/>
            <path d="M47.5044,223.897 L47.5044,224"/>
            <path d="M47.5044,223.897 L47.3444,223.897"/>
            <path d="M47.5044,223.897 L47.3444,223.897"/>
            <path d="M47.5044,223.897 L47.5044,223.897"/>
            <path d="M47.5044,222.907 L47.5044,223.617"/>
            <path d="M47.5044,223.6 L47.5044,223.617"/>
            <path d="M47.019,222.922 L47.0167,222.925"/>
            <path d="M47.0082,222.938 L47.019,222.922"/>
            <path d="M47.0353,222.911 L47.019,222.922"/>
            <path d="M47.019,222.922 L47.019,222.922"/>
            <path d="M47.019,222.922 L47.0353,222.911"/>
            <path d="M46.8344,224 L46.8344,223.427"/>
            <path d="M46.8344,223.427 L46.8344,223.427"/>
            <path d="M46.8344,223.427 L46.8344,224.297"/>
            <path d="M46.8344,224.3 L46.8344,224.297"/>
            <path d="M47.0082,222.938 L47.0044,222.957"/>
            <path d="M47.0082,222.938 L47.0082,222.938"/>
            <path d="M46.8344,223.427 L47.0044,223.427"/>
            <path d="M47.0044,223.427 L46.9063,223.427"/>
            <path d="M46.8344,223.427 L46.9063,223.427"/>
            <path d="M47.0044,223.427 L47.0044,223.427"/>
            <path d="M47.0044,223.427 L47.0044,223.352"/>
            <path d="M47.0044,223.352 L47.0044,223.152"/>
            <path d="M47.0044,223.152 L47.0044,222.957"/>
            <path d="M47.0044,222.957 L47.0044,222.957"/>
            <path d="M47.0044,222.957 L47.0044,223.427"/>
            <path d="M47.0544,222.907 L47.5044,222.907"/>
            <path d="M47.5044,222.907 L47.0544,222.907"/>
            <path d="M47.3444,223.897 L47.3444,223.617"/>
            <path d="M47.3444,223.897 L47.3444,223.617"/>
            <path d="M47.3444,223.897 L47.3444,223.897"/>
            <path d="M47.5044,224.297 L46.8344,224.297"/>
            <path d="M47.3444,223.617 L47.5044,223.617"/>
            <path d="M47.5044,223.617 L47.5044,223.617"/>
            <path d="M47.5044,223.617 L47.3444,223.617"/>
            <path d="M47.3444,223.617 L47.3444,223.617"/>
            <path d="M47.0353,222.911 L47.0544,222.907"/>
            <path d="M47.0544,222.907 L47.0544,222.907"/>
            <path d="M47.0544,222.907 L47.0544,222.907"/>
            <path d="M47.0544,222.907 L47.0353,222.911"/>
            <path d="M47.0353,222.911 L47.0353,222.911"/>
            <path d="M38.1044,223.43 L38.1044,222.957"/>
            <path d="M38.0831,222.925 L38.0735,222.911"/>
            <path d="M38.1044,223.43 L37.6044,223.427"/>
            <path d="M38.1044,223.43 L38.1044,223.427"/>
            <path d="M38.2744,223.427 L38.2744,224"/>
            <path d="M37.6044,223.897 L37.6044,224"/>
            <path d="M37.6044,224.297 L37.6044,223.897"/>
            <path d="M37.6044,223.897 L37.7644,223.897"/>
            <path d="M37.6044,223.897 L37.7644,223.897"/>
            <path d="M37.6044,223.617 L37.6044,222.907"/>
            <path d="M37.6044,222.907 L37.6044,222.923"/>
            <path d="M37.6044,223.366 L37.6044,223.427"/>
            <path d="M37.6044,223.427 L37.6044,223.617"/>
            <path d="M38.0898,222.922 L38.0921,222.925"/>
            <path d="M38.0898,222.922 L38.1006,222.938"/>
            <path d="M38.0898,222.922 L38.0735,222.911"/>
            <path d="M38.0735,222.911 L38.0898,222.922"/>
            <path d="M38.0898,222.922 L38.0898,222.922"/>
            <path d="M38.2744,224 L38.2744,223.427"/>
            <path d="M38.2744,224.3 L38.2744,224.297"/>
            <path d="M38.2744,224.297 L38.2744,223.427"/>
            <path d="M38.1006,222.938 L38.1044,222.957"/>
            <path d="M38.2744,223.427 L38.1044,223.427"/>
            <path d="M38.1044,223.427 L38.2025,223.427"/>
            <path d="M38.2744,223.427 L38.2025,223.427"/>
            <path d="M38.1044,223.427 L38.1044,223.427"/>
            <path d="M38.1044,223.427 L38.1044,223.352"/>
            <path d="M38.1044,223.152 L38.1044,223.352"/>
            <path d="M38.1044,223.152 L38.1044,222.957"/>
            <path d="M38.1044,222.957 L38.1044,222.957"/>
            <path d="M38.1044,222.957 L38.1044,223.427"/>
            <path d="M37.6044,222.907 L38.0544,222.907"/>
            <path d="M37.6044,222.907 L38.0544,222.907"/>
            <path d="M37.7644,223.897 L37.7644,223.617"/>
            <path d="M37.7644,223.617 L37.7644,223.897"/>
            <path d="M37.7644,223.897 L37.7644,223.897"/>
            <path d="M38.2744,224.297 L37.6044,224.297"/>
            <path d="M37.7644,223.617 L37.6044,223.617"/>
            <path d="M37.7644,223.617 L37.7644,223.617"/>
            <path d="M37.7644,223.617 L37.6044,223.617"/>
            <path d="M38.0544,222.907 L38.0735,222.911"/>
            <path d="M38.0544,222.907 L38.0544,222.907"/>
            <path d="M38.0544,222.907 L38.0735,222.911"/>
            <path d="M37.6044,222.935 L47.5044,222.935"/>
            <path d="M37.6044,223.43 L46.8344,223.43"/>
            <path d="M47.0044,223.43 L47.006,223.43"/>
            <path d="M37.6044,222.91 L37.6044,222.91"/>
            <path d="M38.0687,222.91 L47.0401,222.91"/>
            <path d="M37.6044,222.925 L47.0167,222.925"/>
            <path d="M47.0257,222.925 L47.5044,222.925"/>
            <path d="M37.6044,222.917 L37.6044,222.917"/>
            <path d="M38.0828,222.917 L47.026,222.917"/>
            <path d="M37.6044,222.912 L37.6044,222.912"/>
            <path d="M38.0749,222.912 L47.0339,222.912"/>
            <path d="M37.6044,224 L37.6044,223.6"/>
            <path d="M47.5044,223.617 L47.5044,223.897"/>
            <path d="M47.5044,223.366 L47.5044,222.935"/>
            <path d="M47.5044,222.935 L47.5044,222.925"/>
            <path d="M47.5044,222.923 L47.5044,222.925"/>
        </g>
        <g id="product-f86148fb-878e-48ad-80ec-28a99f5b80a1" class="IfcDoor material-null projection" ifc:name="Deur915x2315" ifc:guid="3uOKZxXuv8hO3iAAcVMu2X">
            <path d="M45.7594,194.971 L45.8094,194.971"/>
            <path d="M45.4594,194.971 L45.4094,194.971"/>
            <path d="M45.4594,194.971 L45.4594,195.244"/>
            <path d="M45.4594,194.971 L45.7594,194.971"/>
            <path d="M45.7594,194.971 L45.7594,195.244"/>
            <path d="M45.7594,194.971 L45.7594,195.108"/>
            <path d="M45.8094,194.971 L45.8094,194.674"/>
            <path d="M45.4094,194.971 L45.8094,194.971"/>
            <path d="M44.4194,194.971 L45.4094,194.971"/>
            <path d="M44.4194,194.971 L44.4194,194.674"/>
            <path d="M44.4194,194.674 L45.4094,194.674"/>
            <path d="M45.8094,194.674 L45.4094,194.674"/>
            <path d="M45.7594,195.244 L45.4594,195.244"/>
            <path d="M38,195.656 L38.1407,195.656"/>
            <path d="M37.93,195.218 L37.93,195.234"/>
            <path d="M38.1479,195.662 L38.1489,195.664"/>
            <path d="M37.6004,195.271 L37.6,195.269"/>
            <path d="M37.615,195.164 L37.6133,195.165"/>
            <path d="M37.6021,195.897 L37.6011,195.895"/>
            <path d="M37.9767,195.904 L37.611,195.904"/>
            <path d="M37.6,195.827 L37.6,195.799"/>
            <path d="M37.6004,195.798 L37.6034,195.79"/>
            <path d="M37.6133,195.785 L37.615,195.784"/>
            <path d="M46.3344,195.654 L46.3344,195.531"/>
            <path d="M46.2405,195.654 L46.1977,195.655"/>
            <path d="M46.6744,195.784 L46.6881,195.784"/>
            <path d="M46.5611,195.904 L46.7211,195.904"/>
            <path d="M46.4176,195.165 L46.5107,195.164"/>
            <path d="M46.3454,195.235 L46.3877,195.234"/>
            <path d="M46.7344,195.242 L46.7336,195.175"/>
            <path d="M46.7336,195.795 L46.7344,195.862"/>
            <path d="M46.1912,195.901 L46.1954,195.904"/>
            <path d="M38.1407,195.656 L38,195.654"/>
            <path d="M38,195.655 L38.0428,195.656"/>
            <path d="M37.9289,195.174 L37.9207,195.166"/>
            <path d="M37.615,195.164 L37.9207,195.166"/>
            <path d="M37.6044,195.169 L37.6,195.179"/>
            <path d="M37.6044,195.28 L37.615,195.284"/>
            <path d="M38,195.284 L38,195.249"/>
            <path d="M38,195.249 L37.9956,195.239"/>
            <path d="M38,195.284 L38,195.656"/>
            <path d="M38.139,195.655 L38.135,195.654"/>
            <path d="M38.139,195.655 L38.1407,195.656"/>
            <path d="M38.1407,195.656 L38.139,195.655"/>
            <path d="M37.93,195.218 L37.93,195.179"/>
            <path d="M37.93,195.234 L37.93,195.218"/>
            <path d="M37.9292,195.175 L37.93,195.218"/>
            <path d="M37.9289,195.174 L37.93,195.234"/>
            <path d="M37.6133,195.284 L37.615,195.284"/>
            <path d="M38.1479,195.662 L38.1456,195.659"/>
            <path d="M38.1489,195.664 L38.1479,195.662"/>
            <path d="M38.1422,195.657 L38.1479,195.662"/>
            <path d="M37.66,195.656 L38,195.656"/>
            <path d="M37.6044,195.28 L37.6034,195.279"/>
            <path d="M38.1422,195.657 L38.1456,195.659"/>
            <path d="M38.1407,195.656 L38.1422,195.657"/>
            <path d="M38.1407,195.656 L38.1422,195.657"/>
            <path d="M37.985,195.234 L37.9956,195.239"/>
            <path d="M37.6133,195.284 L37.6093,195.283"/>
            <path d="M37.6133,195.284 L37.6118,195.283"/>
            <path d="M37.615,195.284 L37.6133,195.284"/>
            <path d="M38.1489,195.664 L38.1492,195.665"/>
            <path d="M37.6044,195.28 L37.6,195.269"/>
            <path d="M37.6044,195.28 L37.6034,195.279"/>
            <path d="M37.6004,195.271 L37.6034,195.279"/>
            <path d="M37.6,195.269 L37.6004,195.271"/>
            <path d="M38.1492,195.665 L38.15,195.669"/>
            <path d="M38.1492,195.665 L38.1492,195.893"/>
            <path d="M38.1489,195.664 L38.1492,195.665"/>
            <path d="M37.615,195.284 L38,195.284"/>
            <path d="M37.9997,195.248 L37.9989,195.244"/>
            <path d="M37.9997,195.248 L38,195.249"/>
            <path d="M38,195.249 L37.9997,195.248"/>
            <path d="M37.6133,195.165 L37.6093,195.166"/>
            <path d="M37.6044,195.169 L37.615,195.164"/>
            <path d="M37.615,195.164 L37.6133,195.165"/>
            <path d="M37.6059,195.168 L37.6133,195.165"/>
            <path d="M37.611,195.904 L37.615,195.904"/>
            <path d="M37.6093,195.903 L37.611,195.904"/>
            <path d="M37.6093,195.903 L37.611,195.904"/>
            <path d="M37.66,195.284 L37.66,195.656"/>
            <path d="M37.9941,195.238 L37.9907,195.236"/>
            <path d="M37.9956,195.239 L37.9941,195.238"/>
            <path d="M37.9956,195.239 L37.9941,195.238"/>
            <path d="M37.6034,195.17 L37.6044,195.169"/>
            <path d="M37.6044,195.169 L37.6034,195.17"/>
            <path d="M37.6044,195.9 L37.6044,195.9"/>
            <path d="M37.6011,195.895 L37.6021,195.897"/>
            <path d="M37.6078,195.902 L37.6021,195.897"/>
            <path d="M37.9767,195.904 L37.615,195.904"/>
            <path d="M37.9767,195.904 L38.135,195.904"/>
            <path d="M38.135,195.904 L37.9767,195.904"/>
            <path d="M37.9966,195.24 L37.9989,195.244"/>
            <path d="M37.9956,195.239 L37.9966,195.24"/>
            <path d="M37.9956,195.239 L37.9966,195.24"/>
            <path d="M37.6059,195.168 L37.6093,195.166"/>
            <path d="M37.6059,195.168 L37.6044,195.169"/>
            <path d="M37.6044,195.169 L37.6059,195.168"/>
            <path d="M37.6078,195.902 L37.6044,195.9"/>
            <path d="M37.6093,195.903 L37.6078,195.902"/>
            <path d="M37.6093,195.903 L37.6078,195.902"/>
            <path d="M37.7063,195.164 L37.915,195.164"/>
            <path d="M37.615,195.164 L37.7063,195.164"/>
            <path d="M37.615,195.164 L37.7063,195.164"/>
            <path d="M37.9867,195.235 L37.9907,195.236"/>
            <path d="M37.985,195.234 L37.9867,195.235"/>
            <path d="M37.985,195.234 L37.9867,195.235"/>
            <path d="M37.6,195.179 L37.6004,195.178"/>
            <path d="M37.6,195.179 L37.6004,195.178"/>
            <path d="M37.6011,195.895 L37.6008,195.893"/>
            <path d="M37.93,195.234 L37.985,195.234"/>
            <path d="M37.6,195.179 L37.6,195.269"/>
            <path d="M37.6,195.799 L37.6,195.827"/>
            <path d="M37.6008,195.893 L37.6,195.827"/>
            <path d="M37.6011,195.895 L37.6008,195.893"/>
            <path d="M38.135,195.904 L38.1368,195.904"/>
            <path d="M37.919,195.165 L37.915,195.164"/>
            <path d="M37.919,195.165 L37.9207,195.166"/>
            <path d="M37.9207,195.166 L37.919,195.165"/>
            <path d="M37.6,195.799 L37.6004,195.798"/>
            <path d="M37.6,195.799 L37.6004,195.798"/>
            <path d="M38.1489,195.895 L38.1479,195.897"/>
            <path d="M37.9222,195.167 L37.9232,195.168"/>
            <path d="M37.6059,195.788 L37.6044,195.789"/>
            <path d="M38.1368,195.904 L38.1407,195.903"/>
            <path d="M38.1479,195.897 L38.1456,195.9"/>
            <path d="M38.135,195.904 L38.1368,195.904"/>
            <path d="M38.1479,195.897 L38.1368,195.904"/>
            <path d="M38.1489,195.895 L38.1479,195.897"/>
            <path d="M37.9222,195.167 L37.9256,195.169"/>
            <path d="M37.9222,195.167 L37.9207,195.166"/>
            <path d="M37.9207,195.166 L37.9222,195.167"/>
            <path d="M37.6034,195.79 L37.6044,195.789"/>
            <path d="M37.6044,195.789 L37.6034,195.79"/>
            <path d="M38.1492,195.893 L38.15,195.889"/>
            <path d="M38.1492,195.893 L38.1489,195.895"/>
            <path d="M38.1489,195.895 L38.1492,195.893"/>
            <path d="M37.9292,195.175 L37.93,195.179"/>
            <path d="M37.9289,195.174 L37.9292,195.175"/>
            <path d="M37.9289,195.174 L37.9292,195.175"/>
            <path d="M37.6133,195.785 L37.6093,195.786"/>
            <path d="M37.6059,195.788 L37.6093,195.786"/>
            <path d="M37.615,195.784 L37.6133,195.785"/>
            <path d="M37.6059,195.788 L37.6133,195.785"/>
            <path d="M37.6044,195.789 L37.6059,195.788"/>
            <path d="M37.6093,195.903 L38.135,195.904"/>
            <path d="M37.6011,195.895 L37.6093,195.903"/>
            <path d="M37.6,195.799 L37.6011,195.895"/>
            <path d="M37.6044,195.789 L37.6,195.799"/>
            <path d="M37.6044,195.789 L37.615,195.784"/>
            <path d="M37.615,195.784 L37.66,195.784"/>
            <path d="M37.66,195.656 L37.66,195.784"/>
            <path d="M38.1407,195.656 L38,195.656"/>
            <path d="M38.1407,195.656 L38.1489,195.664"/>
            <path d="M38.1489,195.664 L38.1489,195.895"/>
            <path d="M38.135,195.904 L38.1489,195.895"/>
            <path d="M37.615,195.904 L37.6093,195.903"/>
            <path d="M38.135,195.904 L37.615,195.904"/>
            <path d="M38.1407,195.903 L38.135,195.904"/>
            <path d="M38.1456,195.9 L38.1407,195.903"/>
            <path d="M38.1456,195.9 L38.1489,195.895"/>
            <path d="M38.15,195.889 L38.1489,195.895"/>
            <path d="M38.15,195.669 L38.15,195.889"/>
            <path d="M38.1489,195.664 L38.15,195.669"/>
            <path d="M38.1456,195.659 L38.1489,195.664"/>
            <path d="M38.1456,195.659 L38.1407,195.656"/>
            <path d="M38.1407,195.656 L38.135,195.654"/>
            <path d="M38.135,195.654 L38,195.654"/>
            <path d="M37.9989,195.244 L38,195.249"/>
            <path d="M37.9956,195.239 L37.9989,195.244"/>
            <path d="M37.9907,195.236 L37.9956,195.239"/>
            <path d="M37.9907,195.236 L37.985,195.234"/>
            <path d="M37.93,195.179 L37.93,195.234"/>
            <path d="M37.9289,195.174 L37.93,195.179"/>
            <path d="M37.9256,195.169 L37.9289,195.174"/>
            <path d="M37.9207,195.166 L37.9256,195.169"/>
            <path d="M37.9207,195.166 L37.915,195.164"/>
            <path d="M37.915,195.164 L37.615,195.164"/>
            <path d="M37.6093,195.166 L37.615,195.164"/>
            <path d="M37.6044,195.169 L37.6093,195.166"/>
            <path d="M37.6044,195.169 L37.6044,195.169"/>
            <path d="M37.6044,195.28 L37.6044,195.28"/>
            <path d="M37.6044,195.28 L37.6093,195.283"/>
            <path d="M37.615,195.284 L37.6093,195.283"/>
            <path d="M37.615,195.784 L37.6093,195.786"/>
            <path d="M37.6044,195.789 L37.6093,195.786"/>
            <path d="M37.6044,195.789 L37.6044,195.789"/>
            <path d="M37.6044,195.9 L37.6044,195.9"/>
            <path d="M37.6044,195.9 L37.6093,195.903"/>
            <path d="M46.4055,195.174 L46.4044,195.234"/>
            <path d="M46.188,195.661 L46.1855,195.664"/>
            <path d="M46.3352,195.245 L46.3344,195.531"/>
            <path d="M46.3344,195.531 L46.3344,195.249"/>
            <path d="M46.188,195.661 L46.1977,195.655"/>
            <path d="M46.1977,195.655 L46.1937,195.656"/>
            <path d="M46.188,195.661 L46.1937,195.656"/>
            <path d="M46.2405,195.654 L46.3344,195.654"/>
            <path d="M46.2405,195.654 L46.3344,195.654"/>
            <path d="M46.7194,195.284 L46.73,195.28"/>
            <path d="M46.6881,195.784 L46.7234,195.785"/>
            <path d="M46.6881,195.784 L46.7194,195.784"/>
            <path d="M46.73,195.28 L46.73,195.28"/>
            <path d="M46.7313,195.277 L46.73,195.28"/>
            <path d="M46.7313,195.277 L46.7344,195.269"/>
            <path d="M46.7344,195.269 L46.7313,195.277"/>
            <path d="M46.1855,195.664 L46.1855,195.895"/>
            <path d="M46.6744,195.284 L46.7194,195.284"/>
            <path d="M46.7234,195.165 L46.7266,195.167"/>
            <path d="M46.6744,195.784 L46.6744,195.284"/>
            <path d="M46.3422,195.237 L46.3365,195.242"/>
            <path d="M46.7323,195.172 L46.7266,195.167"/>
            <path d="M46.7266,195.167 L46.73,195.169"/>
            <path d="M46.7285,195.901 L46.731,195.899"/>
            <path d="M46.5611,195.904 L46.1954,195.904"/>
            <path d="M46.1954,195.904 L46.1994,195.904"/>
            <path d="M46.5611,195.904 L46.1994,195.904"/>
            <path d="M46.3365,195.242 L46.3388,195.239"/>
            <path d="M46.3352,195.245 L46.3344,195.249"/>
            <path d="M46.3352,195.245 L46.3365,195.242"/>
            <path d="M46.7285,195.901 L46.7211,195.904"/>
            <path d="M46.7211,195.904 L46.7251,195.903"/>
            <path d="M46.7285,195.901 L46.7251,195.903"/>
            <path d="M46.5107,195.164 L46.7234,195.165"/>
            <path d="M46.7234,195.165 L46.7194,195.164"/>
            <path d="M46.5107,195.164 L46.7194,195.164"/>
            <path d="M46.3422,195.237 L46.3388,195.239"/>
            <path d="M46.3454,195.235 L46.3494,195.234"/>
            <path d="M46.3454,195.235 L46.3422,195.237"/>
            <path d="M46.7336,195.175 L46.7344,195.179"/>
            <path d="M46.7323,195.172 L46.73,195.169"/>
            <path d="M46.7323,195.172 L46.7336,195.175"/>
            <path d="M46.731,195.899 L46.7332,195.895"/>
            <path d="M46.734,195.891 L46.731,195.899"/>
            <path d="M46.4044,195.234 L46.3877,195.234"/>
            <path d="M46.3877,195.234 L46.3494,195.234"/>
            <path d="M46.7344,195.242 L46.7344,195.179"/>
            <path d="M46.7344,195.242 L46.7344,195.269"/>
            <path d="M46.734,195.891 L46.7332,195.895"/>
            <path d="M46.7344,195.862 L46.7344,195.799"/>
            <path d="M46.7344,195.862 L46.734,195.891"/>
            <path d="M46.7336,195.795 L46.7344,195.799"/>
            <path d="M46.7323,195.792 L46.7336,195.795"/>
            <path d="M46.4055,195.174 L46.408,195.171"/>
            <path d="M46.1912,195.901 L46.1855,195.895"/>
            <path d="M46.1912,195.901 L46.1855,195.895"/>
            <path d="M46.408,195.171 L46.4176,195.165"/>
            <path d="M46.4176,195.165 L46.4137,195.166"/>
            <path d="M46.408,195.171 L46.4137,195.166"/>
            <path d="M46.7266,195.787 L46.7323,195.792"/>
            <path d="M46.7323,195.792 L46.73,195.789"/>
            <path d="M46.7234,195.785 L46.7266,195.787"/>
            <path d="M46.7266,195.787 L46.73,195.789"/>
            <path d="M46.7234,195.785 L46.7194,195.784"/>
            <path d="M46.7251,195.903 L46.1994,195.904"/>
            <path d="M46.7332,195.895 L46.7251,195.903"/>
            <path d="M46.7344,195.799 L46.7332,195.895"/>
            <path d="M46.73,195.789 L46.7344,195.799"/>
            <path d="M46.73,195.789 L46.7194,195.784"/>
            <path d="M46.7194,195.784 L46.6744,195.784"/>
            <path d="M46.6744,195.284 L46.6744,195.784"/>
            <path d="M46.7194,195.284 L46.6744,195.284"/>
            <path d="M46.73,195.28 L46.7194,195.284"/>
            <path d="M46.73,195.28 L46.7344,195.269"/>
            <path d="M46.7344,195.179 L46.7344,195.269"/>
            <path d="M46.73,195.169 L46.7344,195.179"/>
            <path d="M46.73,195.169 L46.7194,195.164"/>
            <path d="M46.7194,195.164 L46.4137,195.166"/>
            <path d="M46.4055,195.174 L46.4137,195.166"/>
            <path d="M46.4055,195.174 L46.4044,195.234"/>
            <path d="M46.4044,195.234 L46.3494,195.234"/>
            <path d="M46.3388,195.239 L46.3494,195.234"/>
            <path d="M46.3344,195.249 L46.3388,195.239"/>
            <path d="M46.3344,195.249 L46.3344,195.654"/>
            <path d="M46.1937,195.656 L46.3344,195.654"/>
            <path d="M46.1855,195.664 L46.1937,195.656"/>
            <path d="M46.1855,195.664 L46.1855,195.895"/>
            <path d="M46.1994,195.904 L46.1855,195.895"/>
            <path d="M46.3094,195.244 L46.3094,195.644"/>
            <path d="M38.025,195.644 L38.025,195.244"/>
            <path d="M46.3094,195.244 L46.3094,195.644"/>
            <path d="M38.025,195.244 L38.025,195.644"/>
            <path d="M38.025,195.244 L46.3094,195.244"/>
            <path d="M46.3094,195.244 L38.025,195.244"/>
            <path d="M38.025,195.644 L46.3094,195.644"/>
            <path d="M38.025,195.644 L46.3094,195.644"/>
        </g>
        <g id="product-e006a622-80c5-4895-9be0-c8a07689d7fd" class="IfcWall material-NEN471metselwerkbaksteen projection" ifc:name="CLT90" ifc:guid="3W1gOYWCL8bPlWoA1sYTVz">
            <path d="M37.6044,195.9 L37.6044,195.898"/>
            <path d="M37.6044,195.789 L37.6044,195.28"/>
            <path d="M37.6044,195.169 L37.6044,195"/>
            <path d="M37.6044,195 L27.6,195"/>
            <path d="M27.6,195 L27.6,195.9"/>
            <path d="M37.6044,195.9 L27.6,195.9"/>
            <path d="M46.7388,195 L46.7388,195.9"/>
            <path d="M55,195.9 L46.7388,195.9"/>
            <path d="M55,195 L55,195.9"/>
            <path d="M55,195 L46.7388,195"/>
        </g>
        <g id="product-2ad1db50-db1f-4814-b6d5-3055f193edfc" class="IfcWall material-metselwerkbaksteenrood projection" ifc:name="MW100" ifc:guid="0gqTjGsnz85BRLC5Nna_ty">
            <path d="M27.4,223.6 L27.4,224"/>
            <path d="M27.4,225 L27.4,225"/>
            <path d="M26.4,225 L26.4,225"/>
            <path d="M26.4,224 L26.4,223.6"/>
            <path d="M26.4,223.6 L26.4,223.6"/>
            <path d="M27.4,225 L26.4,225"/>
        </g>
        <g id="product-f86148fb-878e-48ad-80ec-28a99f5b80a1" class="IfcDoor material-null projection" ifc:name="Deur915x2315" ifc:guid="3uOKZxXuv8hO3iAAcVMu2X">
            <path d="M38.025,195.164 L45.4594,195.164"/>
            <path d="M45.7594,195.164 L46.325,195.164"/>
            <path d="M38.025,185.864 L39.1551,186.037"/>
            <path d="M38.025,195.164 L38.025,185.864"/>
            <path d="M46.2815,194.022 L46.325,195.164"/>
            <path d="M46.0952,192.894 L46.2815,194.022"/>
            <path d="M45.7692,191.798 L46.0952,192.894"/>
            <path d="M45.3085,190.752 L45.7692,191.798"/>
            <path d="M44.7205,189.772 L45.3085,190.752"/>
            <path d="M44.0143,188.873 L44.7205,189.772"/>
            <path d="M43.2011,188.069 L44.0143,188.873"/>
            <path d="M42.2937,187.374 L43.2011,188.069"/>
            <path d="M41.3063,186.798 L42.2937,187.374"/>
            <path d="M40.2546,186.35 L41.3063,186.798"/>
            <path d="M39.1551,186.037 L40.2546,186.35"/>
        </g>
    <g ifc:guid="2ibCPLop1158oFord9f1KA" ifc:name="W_2D_990x1560" class="IfcWindow material-null cut"><path d="M47.00439453125,223.35216522216797 L44.95671272277832,223.35216522216797"/><path d="M38.104400634765625,223.35216522216797 L44.95671272277832,223.35216522216797"/><path d="M47.00439453125,223.15216064453125 L40.152082443237305,223.15216064453125"/><path d="M38.104400634765625,223.15216064453125 L40.152082443237305,223.15216064453125"/><path d="M38.104400634765625,223.19817543029785 L38.104400634765625,223.35216522216797"/><path d="M38.104400634765625,223.19817543029785 L38.104400634765625,223.15216064453125"/><path d="M47.00439453125,223.30615043640137 L47.00439453125,223.35216522216797"/><path d="M47.00439453125,223.30615043640137 L47.00439453125,223.15216064453125"/><path d="M47.50439643859863,224.12808418273926 L47.50439643859863,223.89716148376465"/><path d="M47.50439643859863,223.89716148376465 L47.436766624450684,223.89716148376465"/><path d="M47.50439643859863,223.53704452514648 L47.50439643859863,223.42737197875977"/><path d="M47.50439643859863,223.207368850708 L47.50439643859863,223.42737197875977"/><path d="M47.01904296875,222.92181015014648 L47.012786865234375,222.9311752319336"/><path d="M47.03526496887207,222.91096687316895 L47.043352127075195,222.90935516357422"/><path d="M47.03526496887207,222.91096687316895 L47.02589988708496,222.91722297668457"/><path d="M47.01904296875,222.92181015014648 L47.02589988708496,222.91722297668457"/><path d="M46.834397315979004,224.2981719970703 L46.834402084350586,224.29954528808594"/><path d="M46.834402084350586,224.29954528808594 L46.834402084350586,223.79591941833496"/><path d="M46.834402084350586,223.79591941833496 L46.834402084350586,223.42717170715332"/><path d="M47.00600624084473,222.94907569885254 L47.00819969177246,222.93803215026855"/><path d="M47.012786865234375,222.9311752319336 L47.00819969177246,222.93803215026855"/><path d="M46.906256675720215,223.4273624420166 L46.834402084350586,223.42717170715332"/><path d="M47.00600624084473,222.94907569885254 L47.00439453125,222.95716285705566"/><path d="M47.00439453125,223.4273624420166 L46.906256675720215,223.4273624420166"/><path d="M47.00439453125,223.4273624420166 L47.00439453125,223.22850227355957"/><path d="M47.00439453125,223.22850227355957 L47.00439453125,222.95716285705566"/><path d="M47.50439643859863,223.207368850708 L47.50439643859863,222.90716171264648"/><path d="M47.50439643859863,222.90716171264648 L47.244606018066406,222.90716171264648"/><path d="M47.05439567565918,222.90716171264648 L47.244606018066406,222.90716171264648"/><path d="M47.05439567565918,222.90716171264648 L47.043352127075195,222.90935516357422"/><path d="M47.344398498535156,223.89716148376465 L47.436766624450684,223.89716148376465"/><path d="M47.344398498535156,223.89716148376465 L47.344398498535156,223.77881050109863"/><path d="M46.834397315979004,224.29716110229492 L46.834397315979004,224.2981719970703"/><path d="M47.50439643859863,224.29716110229492 L47.50439643859863,224.12808418273926"/><path d="M47.117605209350586,224.29716110229492 L47.50439643859863,224.29716110229492"/><path d="M47.117605209350586,224.29716110229492 L46.834397315979004,224.29716110229492"/><path d="M47.50439643859863,223.61716270446777 L47.50439643859863,223.53704452514648"/><path d="M47.50439643859863,223.61716270446777 L47.436766624450684,223.61716270446777"/><path d="M47.436766624450684,223.61716270446777 L47.344398498535156,223.61716270446777"/><path d="M47.344398498535156,223.77881050109863 L47.344398498535156,223.61716270446777"/><path d="M37.60439872741699,223.89716148376465 L37.60439872741699,224.12808418273926"/><path d="M37.67203330993652,223.89716148376465 L37.60439872741699,223.89716148376465"/><path d="M37.60439872741699,223.42737197875977 L37.60439872741699,223.20737838745117"/><path d="M37.60439872741699,223.42737197875977 L37.60439872741699,223.53704452514648"/><path d="M38.073530197143555,222.91096687316895 L38.06248664855957,222.9087734222412"/><path d="M38.073530197143555,222.91096687316895 L38.08039665222168,222.91555404663086"/><path d="M38.08039665222168,222.91555404663086 L38.08976173400879,222.92181015014648"/><path d="M38.09433937072754,222.92866706848145 L38.08976173400879,222.92181015014648"/><path d="M38.2744026184082,224.2995548248291 L38.2744026184082,224.2985439300537"/><path d="M38.2744026184082,224.2995548248291 L38.2744026184082,223.79591941833496"/><path d="M38.2744026184082,223.79591941833496 L38.2744026184082,223.42717170715332"/><path d="M38.10220718383789,222.94611930847168 L38.100595474243164,222.93803215026855"/><path d="M38.100595474243164,222.93803215026855 L38.09433937072754,222.92866706848145"/><path d="M38.2744026184082,223.42717170715332 L38.20254325866699,223.4273624420166"/><path d="M38.104400634765625,222.95716285705566 L38.10220718383789,222.94611930847168"/><path d="M38.20254325866699,223.4273624420166 L38.104400634765625,223.4273624420166"/><path d="M38.104400634765625,223.4273624420166 L38.104400634765625,223.22850227355957"/><path d="M38.104400634765625,223.22850227355957 L38.104400634765625,222.95716285705566"/><path d="M37.60439872741699,223.20737838745117 L37.60439872741699,222.90716171264648"/><path d="M38.054399490356445,222.90716171264648 L38.06248664855957,222.9087734222412"/><path d="M38.054399490356445,222.90716171264648 L37.79460906982422,222.90716171264648"/><path d="M37.79460906982422,222.90716171264648 L37.60439872741699,222.90716171264648"/><path d="M37.67203330993652,223.89716148376465 L37.76439666748047,223.89716148376465"/><path d="M37.76439666748047,223.89716148376465 L37.76439666748047,223.7355136871338"/><path d="M38.2744026184082,224.2985439300537 L38.2744026184082,224.29716110229492"/><path d="M38.2744026184082,224.29716110229492 L37.9911994934082,224.29716110229492"/><path d="M37.60439872741699,224.29716110229492 L37.9911994934082,224.29716110229492"/><path d="M37.60439872741699,224.29716110229492 L37.60439872741699,224.12808418273926"/><path d="M37.76439666748047,223.7355136871338 L37.76439666748047,223.61716270446777"/><path d="M37.76439666748047,223.61716270446777 L37.67203330993652,223.61716270446777"/><path d="M37.67203330993652,223.61716270446777 L37.60439872741699,223.61716270446777"/><path d="M37.60439872741699,223.61716270446777 L37.60439872741699,223.53704452514648"/></g><g ifc:guid="3uOKZxXuv8hO3iAAcVMu2X" ifc:name="Deur915x2315" class="IfcDoor material-null cut"><path d="M38.00000190734863,195.3726577758789 L38.00000190734863,195.655198097229"/><path d="M38.00000190734863,195.655198097229 L38.0428409576416,195.6555461883545"/><path d="M38.138999938964844,195.655198097229 L38.14074516296387,195.6555461883545"/><path d="M38.14074516296387,195.6555461883545 L38.0428409576416,195.6555461883545"/><path d="M38.14074516296387,195.6555461883545 L38.1422233581543,195.65653324127197"/><path d="M38.1422233581543,195.65653324127197 L38.14786911010742,195.66217422485352"/><path d="M37.613258361816406,195.28404712677002 L37.61178016662598,195.28306007385254"/><path d="M37.61178016662598,195.28306007385254 L37.60439872741699,195.28000831604004"/><path d="M38.148860931396484,195.66365242004395 L38.14786911010742,195.66217422485352"/><path d="M37.61500358581543,195.78439712524414 L37.64630317687988,195.78439712524414"/><path d="M37.60340690612793,195.2785301208496 L37.60439872741699,195.28000831604004"/><path d="M37.60340690612793,195.2785301208496 L37.60035514831543,195.27114868164062"/><path d="M38.149213790893555,195.66539764404297 L38.149213790893555,195.82643508911133"/><path d="M38.149213790893555,195.66539764404297 L38.148860931396484,195.66365242004395"/><path d="M37.61500358581543,195.2843952178955 L37.62869834899902,195.2843952178955"/><path d="M37.613258361816406,195.28404712677002 L37.61500358581543,195.2843952178955"/><path d="M38.00000190734863,195.3726577758789 L38.00000190734863,195.2493953704834"/><path d="M38.00000190734863,195.2493953704834 L37.99965858459473,195.24765014648438"/><path d="M37.65999794006348,195.2843952178955 L37.62869834899902,195.2843952178955"/><path d="M37.65999794006348,195.54258823394775 L37.65999794006348,195.2843952178955"/><path d="M37.65999794006348,195.78439712524414 L37.64630317687988,195.78439712524414"/><path d="M37.65999794006348,195.78439712524414 L37.65999794006348,195.69476127624512"/><path d="M37.65999794006348,195.54258823394775 L37.65999794006348,195.69476127624512"/><path d="M37.976741790771484,195.90438842773438 L37.61101722717285,195.90359210968018"/><path d="M37.99965858459473,195.24765014648438 L37.99659729003906,195.2402687072754"/><path d="M37.99659729003906,195.2402687072754 L37.99560546875,195.23879051208496"/><path d="M37.99560546875,195.23879051208496 L37.99412727355957,195.2377986907959"/><path d="M37.60587692260742,195.16779899597168 L37.613258361816406,195.16474723815918"/><path d="M37.60587692260742,195.16779899597168 L37.60439872741699,195.16879081726074"/><path d="M37.60439872741699,195.16879081726074 L37.60340690612793,195.17026901245117"/><path d="M37.609262466430664,195.9032440185547 L37.61101722717285,195.90359210968018"/><path d="M37.609262466430664,195.9032440185547 L37.607784271240234,195.9022569656372"/><path d="M37.607784271240234,195.9022569656372 L37.60213851928711,195.89661598205566"/><path d="M37.706308364868164,195.16440391540527 L37.61500358581543,195.16440391540527"/><path d="M37.61500358581543,195.16440391540527 L37.613258361816406,195.16474723815918"/><path d="M37.986745834350586,195.2347469329834 L37.99412727355957,195.2377986907959"/><path d="M37.60340690612793,195.17026901245117 L37.60035514831543,195.17765045166016"/><path d="M37.60114669799805,195.89513778686523 L37.60213851928711,195.89661598205566"/><path d="M37.98500061035156,195.2344036102295 L37.986745834350586,195.2347469329834"/><path d="M37.930002212524414,195.2344036102295 L37.930002212524414,195.21766185760498"/><path d="M37.946739196777344,195.2344036102295 L37.930002212524414,195.2344036102295"/><path d="M37.946739196777344,195.2344036102295 L37.98500061035156,195.2344036102295"/><path d="M37.60035514831543,195.17765045166016 L37.60000228881836,195.17939567565918"/><path d="M37.60000228881836,195.17939567565918 L37.60000228881836,195.20678997039795"/><path d="M37.60000228881836,195.2694034576416 L37.60000228881836,195.20678997039795"/><path d="M37.60000228881836,195.2694034576416 L37.60035514831543,195.27114868164062"/><path d="M37.60000228881836,195.82678318023682 L37.60080337524414,195.8933925628662"/><path d="M37.60080337524414,195.8933925628662 L37.60114669799805,195.89513778686523"/><path d="M38.1350040435791,195.90438842773438 L37.976741790771484,195.90438842773438"/><path d="M37.706308364868164,195.16440391540527 L37.918996810913086,195.16518592834473"/><path d="M37.60035514831543,195.79764366149902 L37.60000228881836,195.79938888549805"/><path d="M37.60000228881836,195.79938888549805 L37.60000228881836,195.82678318023682"/><path d="M38.14639091491699,195.89760780334473 L38.147878646850586,195.89661598205566"/><path d="M38.14639091491699,195.89760780334473 L38.13675880432129,195.9040403366089"/><path d="M38.1350040435791,195.90438842773438 L38.13675880432129,195.9040403366089"/><path d="M37.9232120513916,195.16799926757812 L37.92222023010254,195.1665210723877"/><path d="M37.92222023010254,195.1665210723877 L37.92074203491211,195.16552925109863"/><path d="M37.918996810913086,195.16518592834473 L37.92074203491211,195.16552925109863"/><path d="M37.60439872741699,195.7887840270996 L37.60340690612793,195.79026222229004"/><path d="M37.60340690612793,195.79026222229004 L37.60035514831543,195.79764366149902"/><path d="M38.147878646850586,195.89661598205566 L38.148860931396484,195.89513778686523"/><path d="M38.148860931396484,195.89513778686523 L38.149213790893555,195.8933925628662"/><path d="M38.149213790893555,195.8933925628662 L38.149213790893555,195.82643508911133"/><path d="M37.930002212524414,195.21766185760498 L37.9292106628418,195.17539978027344"/><path d="M37.9292106628418,195.17539978027344 L37.92885780334473,195.1736545562744"/><path d="M37.9232120513916,195.16799926757812 L37.92885780334473,195.1736545562744"/><path d="M37.605886459350586,195.78779697418213 L37.60439872741699,195.7887840270996"/><path d="M37.605886459350586,195.78779697418213 L37.613258361816406,195.78474521636963"/><path d="M37.613258361816406,195.78474521636963 L37.61500358581543,195.78439712524414"/><path d="M46.18800163269043,195.66118240356445 L46.19765281677246,195.6547451019287"/><path d="M46.33439064025879,195.53113460540771 L46.33439064025879,195.65439701080322"/><path d="M46.240482330322266,195.65439701080322 L46.33439064025879,195.65439701080322"/><path d="M46.240482330322266,195.65439701080322 L46.19765281677246,195.6547451019287"/><path d="M46.730003356933594,195.28000354766846 L46.72261714935303,195.28305530548096"/><path d="M46.730003356933594,195.28000354766846 L46.731343269348145,195.27677536010742"/><path d="M46.18800163269043,195.66118240356445 L46.18553161621094,195.66365242004395"/><path d="M46.18553161621094,195.66365242004395 L46.18553161621094,195.73410034179688"/><path d="M46.71938896179199,195.28439044952393 L46.72261714935303,195.28305530548096"/><path d="M46.71938896179199,195.28439044952393 L46.68808937072754,195.28439044952393"/><path d="M46.68808937072754,195.78439235687256 L46.674394607543945,195.78439235687256"/><path d="M46.674394607543945,195.69396018981934 L46.674394607543945,195.78439235687256"/><path d="M46.674394607543945,195.69396018981934 L46.674394607543945,195.54178714752197"/><path d="M46.674394607543945,195.54178714752197 L46.674394607543945,195.28439044952393"/><path d="M46.68808937072754,195.28439044952393 L46.674394607543945,195.28439044952393"/><path d="M46.56113147735596,195.9043836593628 L46.19540214538574,195.9035873413086"/><path d="M46.33652687072754,195.24217128753662 L46.33519172668457,195.24539947509766"/><path d="M46.33439064025879,195.53113460540771 L46.33519172668457,195.24539947509766"/><path d="M46.728525161743164,195.9009838104248 L46.7211389541626,195.9040355682373"/><path d="M46.56113147735596,195.9043836593628 L46.7211389541626,195.9040355682373"/><path d="M46.51069641113281,195.1643991470337 L46.723384857177734,195.16518592834473"/><path d="M46.723384857177734,195.16518592834473 L46.72661304473877,195.1665210723877"/><path d="M46.3454008102417,195.23518562316895 L46.342172622680664,195.2365207672119"/><path d="M46.33652687072754,195.24217128753662 L46.342172622680664,195.2365207672119"/><path d="M46.733598709106445,195.17539978027344 L46.73226356506348,195.1721715927124"/><path d="M46.72661304473877,195.1665210723877 L46.73226356506348,195.1721715927124"/><path d="M46.728525161743164,195.9009838104248 L46.730995178222656,195.8985137939453"/><path d="M46.3454008102417,195.23518562316895 L46.38765335083008,195.2343988418579"/><path d="M46.40439033508301,195.2343988418579 L46.38765335083008,195.2343988418579"/><path d="M46.40439033508301,195.2343988418579 L46.40519142150879,195.19213676452637"/><path d="M46.731343269348145,195.27677536010742 L46.73439025878906,195.26939868927002"/><path d="M46.73439025878906,195.26939868927002 L46.73439025878906,195.24200439453125"/><path d="M46.733598709106445,195.17539978027344 L46.73439025878906,195.24200439453125"/><path d="M46.730995178222656,195.8985137939453 L46.734046936035156,195.8911418914795"/><path d="M46.734046936035156,195.8911418914795 L46.73439025878906,195.86199760437012"/><path d="M46.73439025878906,195.86199760437012 L46.733598709106445,195.7953929901123"/><path d="M46.405534744262695,195.1736545562744 L46.40519142150879,195.19213676452637"/><path d="M46.19118690490723,195.9007740020752 L46.19540214538574,195.9035873413086"/><path d="M46.19118690490723,195.9007740020752 L46.18553161621094,195.89513301849365"/><path d="M46.18553161621094,195.89513301849365 L46.18553161621094,195.73410034179688"/><path d="M46.40800476074219,195.17117500305176 L46.405534744262695,195.1736545562744"/><path d="M46.40800476074219,195.17117500305176 L46.417646408081055,195.1647424697876"/><path d="M46.417646408081055,195.1647424697876 L46.51069641113281,195.1643991470337"/><path d="M46.733598709106445,195.7953929901123 L46.73226356506348,195.7921600341797"/><path d="M46.68808937072754,195.78439235687256 L46.723384857177734,195.78518867492676"/><path d="M46.723384857177734,195.78518867492676 L46.72661304473877,195.78652381896973"/><path d="M46.72661304473877,195.78652381896973 L46.73226356506348,195.7921600341797"/><path d="M46.30938529968262,195.51990509033203 L46.30938529968262,195.24439811706543"/><path d="M46.30938529968262,195.24439811706543 L40.60349464416504,195.24439811706543"/><path d="M38.025007247924805,195.24439811706543 L40.60349464416504,195.24439811706543"/><path d="M38.025007247924805,195.51990509033203 L38.025007247924805,195.24439811706543"/><path d="M38.025007247924805,195.64440727233887 L38.025007247924805,195.51990509033203"/><path d="M46.30938529968262,195.64440250396729 L46.30938529968262,195.51990509033203"/><path d="M40.60349464416504,195.64440727233887 L46.30938529968262,195.64440250396729"/><path d="M40.60349464416504,195.64440727233887 L38.025007247924805,195.64440727233887"/></g><g ifc:guid="0Mu_oMfm52hvAVMsNs635_" ifc:name="Space0" class="IfcSpace material-null cut"><path d="M27.60000228881836,195.9000062942505 L27.600011825561523,222.4000072479248 L55.00001907348633,222.4000072479248 L55.000009536743164,195.89999675750732 Z"/></g><g class="0a5HjcjWL6tumZpRSYbWfy material-metselwerkbaksteenrood 35wL1BVVL8ivVdOx49l7oi IfcWall cut"><path d="M26.000003814697266,195.00000953674316 L25.373334884643555,195.00000953674316 L25.0,195.00000953674316 L25.000009536743164,213.80001068115234 L25.000009536743164,225.00000953674316 L25.626678466796875,225.00000953674316 L26.00001335144043,225.00000953674316 L26.000003814697266,206.20000839233398 Z"/></g><g class="0a5HjcjWL6tumZpRSYbWfy material-metselwerkbaksteenrood 35wL1BVVL8ivVdOx49l7oi IfcWall cut"><path d="M26.00001335144043,224.0000057220459 L26.00001335144043,224.6266746520996 L26.00001335144043,225.00000953674316 L33.84839057922363,225.00000953674316 L37.60439872741699,225.00000953674316 L37.60439872741699,224.57058906555176 L37.60439872741699,224.0000057220459 L33.84839057922363,224.0000057220459 Z"/></g><g class="0a5HjcjWL6tumZpRSYbWfy material-metselwerkbaksteenrood 35wL1BVVL8ivVdOx49l7oi IfcWall cut"><path d="M49.93051528930664,224.0000057220459 L47.50439643859863,224.0000057220459 L47.50439643859863,224.42943572998047 L47.50439643859863,225.00000953674316 L49.93051528930664,225.00000953674316 L55.000009536743164,225.00000953674316 L55.000009536743164,224.37334060668945 L55.000009536743164,224.0000057220459 Z"/></g><g class="material-naaldhoutvurenCLT 2e9MGoPGP0MPm1$aXE8UTY 3HxgWbl5DFt8VPAiNUVrbn IfcWall cut"><path d="M27.60000228881836,195.00000953674316 L26.94723129272461,195.00000953674316 L26.40000343322754,195.00000953674316 L26.40000343322754,209.9048900604248 L26.400012969970703,222.4000072479248 L26.400012969970703,223.05277824401855 L26.400012969970703,223.60000610351562 L33.97785186767578,223.60000610351562 L37.60439872741699,223.60000610351562 L37.60439872741699,223.08469772338867 L37.60439872741699,222.4000072479248 L33.97785186767578,222.4000072479248 L27.600011825561523,222.4000072479248 L27.60000228881836,207.49512672424316 Z"/></g><g class="material-naaldhoutvurenCLT 2e9MGoPGP0MPm1$aXE8UTY 3HxgWbl5DFt8VPAiNUVrbn IfcWall cut"><path d="M47.50439643859863,222.91531562805176 L47.50439643859863,223.60000610351562 L49.93051528930664,223.60000610351562 L55.000009536743164,223.60000610351562 L55.000009536743164,223.0527687072754 L55.000009536743164,222.4000072479248 L49.93051528930664,222.4000072479248 L47.50439643859863,222.4000072479248 Z"/></g><g class="3W1gOYWCL8bPlWoA1sYTVz cut material-NEN471metselwerkbaksteen IfcWall"><path d="M49.38728332519531,194.99999523162842 L46.73878192901611,195.0 L46.73878192901611,195.6114625930786 L46.73878192901611,195.89999675750732 L49.38728332519531,195.89999675750732 L55.000009536743164,195.89999198913574 L55.000009536743164,195.47999382019043 L55.000009536743164,194.99999046325684 Z"/></g><g class="3W1gOYWCL8bPlWoA1sYTVz cut material-NEN471metselwerkbaksteen IfcWall"><path d="M27.60000228881836,195.00000953674316 L27.60000228881836,195.4800033569336 L27.60000228881836,195.9000062942505 L34.39703941345215,195.9000015258789 L37.60439872741699,195.9000015258789 L37.60439872741699,195.2885341644287 L37.60439872741699,195.0 L34.39703941345215,195.0 Z"/></g><path d="M27.60000228881836,195.9000062942505 L27.600011825561523,222.4000072479248 L55.00001907348633,222.4000072479248 L55.000009536743164,195.89999675750732 Z" class="IfcSpace material-null"/></g>
</svg>