<svg xmlns="http://www.w3.org/2000/svg" xmlns:xlink="http://www.w3.org/1999/xlink" xmlns:ifc="http://www.ifcopenshell.org/ns" width="500mm" height="500mm" viewBox="0 0 500 500">
    <defs>
        <marker id="arrowend" markerWidth="10" markerHeight="7" refX="10" refY="3.5" orient="auto">
          <polygon points="0 0, 10 3.5, 0 7"/>
        </marker>
        <marker id="arrowstart" markerWidth="10" markerHeight="7" refX="0" refY="3.5" orient="auto">
          <polygon points="10 0, 0 3.5, 10 7"/>
        </marker>
    </defs>
    <g ifc:name="Elevation 01_BWK_PLG_00_begane_grond" class="section" ifc:plane="[[1.000000,0.000000,0.000000,0.000000],[0.000000,1.000000,0.000000,0.000000],[0.000000,0.000000,1.000000,0.000000],[0.000000,0.000000,0.000000,1.000000]]" ifc:matrix3="[[20.000000,0.000000,50.000020],[0.000000,20.000000,450.000011],[0.000000,0.000000,1.000000]]">
        <g id="product-bdd2c04b-301b-437f-b5b4-c152c73b62ad" class="IfcSlab material-ongewapendbeton projection" ifc:name="dekvloer_70.001" ifc:guid="2zqi1BC1j3VxMqmLB7EsAj">
            <path d="M110,391.8 L110,448.2"/>
            <path d="M71.56,391.8 L110,391.8"/>
            <path d="M51.8,419.062 L51.8,391.8"/>
            <path d="M88.43,448.2 L51.8,448.2"/>
        </g>
        <g id="product-2de96125-daa6-4473-85a5-751c95fe6f49" class="IfcSlab material-gewapendbetontpg projection" ifc:name="beton_200" ifc:guid="0jwM4bsgP4SuMbTHoL$cz9">
            <path d="M110,391.8 L110,391.8"/>
        </g>
        <g id="product-a8256432-6506-4059-9c01-fe484e21e762" class="IfcWall material-naaldhoutvurenCLT projection" ifc:name="CLT90.001" ifc:guid="2e9MGoPGP0MPm1$aXE8UTY">
            <path d="M51.8,390 L51.8,448.2"/>
            <path d="M50,390 L51.8,390"/>
            <path d="M50,448.2 L50,390"/>
            <path d="M51.8,448.2 L50,448.2"/>
        </g>
        <g id="product-24151b66-b605-46df-8c23-cdb722960a7c" class="IfcWall material-metselwerkbaksteenrood projection" ifc:name="MW100" ifc:guid="0a5HjcjWL6tumZpRSYbWfy">
            <path d="M47.2,390 L47.2,454.8"/>
            <path d="M45.2,390 L47.2,390"/>
            <path d="M45.2,454.8 L45.2,390"/>
            <path d="M47.2,454.8 L45.2,454.8"/>
        </g>
        <g id="product-e006a622-80c5-4895-9be0-c8a07689d7fd" class="IfcWall material-naaldhoutvurenCLT projection" ifc:name="CLT90" ifc:guid="3W1gOYWCL8bPlWoA1sYTVz">
            <path d="M110,391.8 L51.8,391.8"/>
            <path d="M110,390 L110,391.8"/>
            <path d="M51.8,390 L110,390"/>
            <path d="M51.8,391.8 L51.8,390"/>
        </g>
        <g id="product-2f725bfd-1d36-4b75-a58d-cc5b9a1b49ab" class="IfcWall material-isolatie projection" ifc:name="ISO100" ifc:guid="0lSblz7JPBTQMDp5kQ6qch">
            <path d="M50,390 L50,452"/>
            <path d="M48,390 L50,390"/>
            <path d="M48,452 L48,390"/>
            <path d="M50,452 L48,452"/>
        </g>
        <g id="product-d1eea825-bc53-4fdc-87d9-2ac5de7f5971" class="IfcWall material-naaldhoutvurenCLT projection" ifc:name="CLT90" ifc:guid="3HxgWbl5DFt8VPAiNUVrbn">
            <path d="M110,448.2 L50,448.2"/>
            <path d="M50,448.2 L50,450"/>
            <path d="M110,450 L50,450"/>
            <path d="M110,448.2 L110,450"/>
        </g>
        <g id="product-4ca552b4-5839-4d2d-9212-0d32fe4f6562" class="IfcWall material-isolatie projection" ifc:name="ISO100" ifc:guid="1CfLAqM3bDBP8I3JB_JsLY">
            <path d="M110,450 L50,450"/>
            <path d="M50,450 L50,452"/>
            <path d="M110,452 L50,452"/>
            <path d="M110,450 L110,452"/>
        </g>
        <g id="product-c5e9504b-7df5-48b3-97e7-63b109bc7cac" class="IfcWall material-metselwerkbaksteenrood projection" ifc:name="MW100" ifc:guid="35wL1BVVL8ivVdOx49l7oi">
            <path d="M110,454.8 L47.2,454.8"/>
            <path d="M110,452.8 L110,454.8"/>
            <path d="M47.2,452.8 L110,452.8"/>
            <path d="M47.2,454.8 L47.2,452.8"/>
        </g>
        <g id="product-8f1b571e-1ab6-428d-ac22-869257c874cb" class="IfcPile material-null projection" ifc:name="FP_220_Type_1" ifc:guid="2F6rSU6hP2ZQmYXf9No7JB">
            <path d="M48,425.8 L47.8667,425.8"/>
            <path d="M47.8667,425.8 L48,425.8"/>
            <path d="M47.2,421.4 L47.8667,421.4"/>
            <path d="M47.8667,421.4 L47.2,421.4"/>
            <path d="M47.8667,423.6 L47.2,423.6"/>
            <path d="M47.2,423.6 L47.8667,423.6"/>
            <path d="M48,422 L47.2,422.8"/>
            <path d="M47.2,422.8 L48,422"/>
            <path d="M47.8667,421.4 L48,421.4"/>
            <path d="M48,421.4 L47.8667,421.4"/>
            <path d="M47.8667,423.6 L48,423.467"/>
            <path d="M48,423.467 L47.8667,423.6"/>
            <path d="M47.2,423.533 L48,422.733"/>
            <path d="M48,422.733 L47.2,423.533"/>
            <path d="M44.2,423.6 L45.2,423.6"/>
            <path d="M45.2,423.6 L44.2,423.6"/>
            <path d="M47.8667,421.4 L47.2,422.067"/>
            <path d="M47.2,422.067 L47.8667,421.4"/>
            <path d="M48,423.6 L47.8667,423.6"/>
            <path d="M47.8667,423.6 L48,423.6"/>
            <path d="M47.8667,425.8 L47.2,425.8"/>
            <path d="M47.2,425.8 L47.8667,425.8"/>
        </g>
        <g id="product-41e90adb-649b-4055-9402-0577efead61e" class="IfcPile material-null projection" ifc:name="FP_220_Type_2" ifc:guid="11wGhRP9j0LPG21NVlwjOU">
            <path d="M74.2,452.8 L74.2,452.133"/>
            <path d="M74.2,452.133 L74.2,452.8"/>
            <path d="M78.6,452.133 L77.9333,452.8"/>
            <path d="M77.9333,452.8 L78.6,452.133"/>
            <path d="M74.2,452.133 L74.2,452"/>
            <path d="M74.2,452 L74.2,452.133"/>
            <path d="M78,452 L77.2,452.8"/>
            <path d="M77.2,452.8 L78,452"/>
            <path d="M76.4667,452.8 L77.2667,452"/>
            <path d="M77.2667,452 L76.4667,452.8"/>
            <path d="M74.2,450 L74.2,450"/>
            <path d="M74.2,450 L74.2,450"/>
            <path d="M76.4,452.133 L76.5333,452"/>
            <path d="M76.5333,452 L76.4,452.133"/>
            <path d="M78.6,450 L78.6,450"/>
            <path d="M78.6,450 L78.6,450"/>
            <path d="M76.4,452.8 L76.4,452.133"/>
            <path d="M76.4,452.133 L76.4,452.8"/>
            <path d="M76.3333,450 L76.3333,450"/>
            <path d="M76.3333,450 L76.3333,450"/>
            <path d="M78.6,452.133 L78.6,452"/>
            <path d="M78.6,452 L78.6,452.133"/>
            <path d="M76.4,452.133 L76.4,452"/>
            <path d="M76.4,452 L76.4,452.133"/>
            <path d="M75.6,450 L75.6,450"/>
            <path d="M75.6,450 L75.6,450"/>
            <path d="M78.6,452.8 L78.6,452.133"/>
            <path d="M78.6,452.133 L78.6,452.8"/>
            <path d="M74.8667,450 L74.8667,450"/>
            <path d="M74.8667,450 L74.8667,450"/>
            <path d="M76.4,450 L76.4,450"/>
            <path d="M76.4,450 L76.4,450"/>
            <path d="M76.4,455.8 L76.4,454.8"/>
            <path d="M76.4,454.8 L76.4,455.8"/>
        </g>
    <g ifc:guid="0Mu_oMfm52hvAVMsNs635_" ifc:name="Example Space" class="IfcSpace material-null cut"><path d="M51.80000305175781,407.77997970581055 L51.80002212524414,448.2000160217285 L68.29004287719727,448.2000160217285 L110.00007629394531,448.1999969482422 L110.00006675720215,432.2199821472168 L110.00005722045898,391.79993629455566 L93.51003646850586,391.79993629455566 L51.80000305175781,391.799955368042 Z"/></g><g class="2e9MGoPGP0MPm1$aXE8UTY material-naaldhoutvurenCLT 3W1gOYWCL8bPlWoA1sYTVz IfcWall cut 3HxgWbl5DFt8VPAiNUVrbn"><path d="M92.45162963867188,391.7999458312988 L110.00005722045898,391.7999267578125 L110.00005722045898,390.5426597595215 L110.00005722045898,389.99993324279785 L69.34843063354492,389.9999523162842 L51.80000305175781,389.99996185302734 L50.5394172668457,389.99996185302734 L50.0,389.99996185302734 L50.00001907348633,430.7589530944824 L50.00001907348633,448.2000160217285 L50.00001907348633,448.7394332885742 L50.00001907348633,450.0000190734863 L68.77609252929688,450.0000190734863 L73.57610702514648,450.0000190734863 L91.7920970916748,450.0 L110.00006675720215,450.0 L110.00006675720215,448.7394142150879 L110.00006675720215,448.1999969482422 L91.7920970916748,448.2000160217285 L73.57608795166016,448.2000160217285 L68.77609252929688,448.2000160217285 L51.80002212524414,448.2000160217285 L51.80000305175781,407.4410152435303 L51.80000305175781,391.79996490478516 Z"/></g><g class="material-metselwerkbaksteenrood 35wL1BVVL8ivVdOx49l7oi IfcWall cut 0a5HjcjWL6tumZpRSYbWfy"><path d="M47.20001220703125,417.6479911804199 L47.20001220703125,389.99996185302734 L46.0533332824707,389.99996185302734 L45.20000457763672,389.99996185302734 L45.20000457763672,427.15200424194336 L45.20002365112305,454.8000144958496 L46.346683502197266,454.8000144958496 L47.20001220703125,454.8000144958496 L69.30360794067383,454.8000144958496 L72.29410171508789,454.8000144958496 L91.15123748779297,454.8000144958496 L110.00007629394531,454.8000144958496 L110.00007629394531,453.9466857910156 L110.00007629394531,452.8000259399414 L91.15123748779297,452.8000259399414 L72.29410171508789,452.8000259399414 L69.30360794067383,452.8000259399414 L47.20001220703125,452.8000259399414 Z"/></g><g class="material-isolatie IfcWall cut 1CfLAqM3bDBP8I3JB_JsLY 0lSblz7JPBTQMDp5kQ6qch"><path d="M50.0,416.4533233642578 L50.0,389.99996185302734 L48.85334014892578,389.99996185302734 L47.99999237060547,389.99996185302734 L48.0000114440918,425.5466651916504 L48.0000114440918,452.00002670288086 L49.146690368652344,452.00002670288086 L50.00001907348633,452.00002670288086 Z"/></g><g class="material-isolatie IfcWall cut 1CfLAqM3bDBP8I3JB_JsLY 0lSblz7JPBTQMDp5kQ6qch"><path d="M69.43695068359375,450.0000190734863 L50.00001907348633,450.0000190734863 L50.00001907348633,450.8533477783203 L50.00001907348633,452.00002670288086 L69.43695068359375,452.00000762939453 L72.29410171508789,452.00000762939453 L91.15123748779297,452.00000762939453 L110.00007629394531,452.00000762939453 L110.00007629394531,450.853328704834 L110.00007629394531,450.0 L91.15123748779297,450.0 L72.29410171508789,450.0000190734863 Z"/></g><g id="product-ab85943e-e372-43ef-ad25-cad109981d3f" class="IfcBeam material-gewapendbetontpg projection" ifc:name="BB 400x500" ifc:guid="2hXPG_ut93xwqboj49c1q$">
            <path d="M50,390 L50,390"/>
            <path d="M44.6,455.4 L52.6,455.4"/>
            <path d="M52.6,455.4 L52.6,454.8"/>
            <path d="M52.6,452.8 L52.6,452"/>
            <path d="M44.6,455.4 L44.6,390"/>
        </g>
        <g id="product-7f9c48ec-33d6-4873-9626-17aaf58c8ed1" class="IfcBeam material-gewapendbetontpg projection" ifc:name="BB 400x500" ifc:guid="1$d4ZiCzP8SvOc5whrZ8xH">
            <path d="M110,450 L110,450"/>
            <path d="M110,452 L110,452.8"/>
            <path d="M110,454.8 L110,455.4"/>
            <path d="M52.6,450 L52.6,450"/>
            <path d="M52.6,452 L52.6,452.8"/>
            <path d="M52.6,454.8 L52.6,455.4"/>
            <path d="M52.6,455.4 L110,455.4"/>
            <path d="M110,447.4 L110,447.4"/>
        </g>
        <path d="M51.80000305175781,407.77997970581055 L51.80002212524414,448.2000160217285 L68.29004287719727,448.2000160217285 L110.00007629394531,448.1999969482422 L110.00006675720215,432.2199821472168 L110.00005722045898,391.79993629455566 L93.51003646850586,391.79993629455566 L51.80000305175781,391.799955368042 Z" class="IfcSpace material-null"/></g>
</svg>