<svg xmlns="http://www.w3.org/2000/svg" xmlns:xlink="http://www.w3.org/1999/xlink" xmlns:ifc="http://www.ifcopenshell.org/ns" width="500mm" height="500mm" viewBox="0 0 500 500">
    <defs>
        <marker id="arrowend" markerWidth="10" markerHeight="7" refX="10" refY="3.5" orient="auto">
          <polygon points="0 0, 10 3.5, 0 7"/>
        </marker>
        <marker id="arrowstart" markerWidth="10" markerHeight="7" refX="0" refY="3.5" orient="auto">
          <polygon points="10 0, 0 3.5, 10 7"/>
        </marker>
    </defs>
    <g ifc:name="Elevation 01_BWK_PLG_-1_fundering" class="section" ifc:plane="[[1.000000,0.000000,0.000000,0.000000],[0.000000,1.000000,0.000000,0.000000],[0.000000,0.000000,1.000000,0.000000],[0.000000,0.000000,0.000000,1.000000]]" ifc:matrix3="[[20.000000,0.000000,50.000020],[0.000000,20.000000,450.000011],[0.000000,0.000000,1.000000]]">
        <g id="product-8f1b571e-1ab6-428d-ac22-869257c874cb" class="IfcPile material-null projection" ifc:name="FP_220_Type_1" ifc:guid="2F6rSU6hP2ZQmYXf9No7JB">
            <path d="M53,423.6 L50.8,423.6"/>
            <path d="M50.8,423.6 L53,423.6"/>
            <path d="M50.8,425.8 L50.0667,425.8"/>
            <path d="M50.0667,425.8 L50.8,425.8"/>
            <path d="M49.3333,425.8 L48.6,425.8"/>
            <path d="M48.6,425.8 L49.3333,425.8"/>
            <path d="M48.6,425.8 L47.8667,425.8"/>
            <path d="M47.8667,425.8 L48.6,425.8"/>
            <path d="M50.8,423.6 L50.8,424.333"/>
            <path d="M50.8,424.333 L50.8,423.6"/>
            <path d="M50.8,422.133 L50.8,422.867"/>
            <path d="M50.8,422.867 L50.8,422.133"/>
            <path d="M48.6,421.4 L49.3333,421.4"/>
            <path d="M49.3333,421.4 L48.6,421.4"/>
            <path d="M48.6,422.133 L49.3333,421.4"/>
            <path d="M49.3333,421.4 L48.6,422.133"/>
            <path d="M48.6,425.067 L48.6,424.333"/>
            <path d="M48.6,424.333 L48.6,425.067"/>
            <path d="M47.1333,421.4 L47.8667,421.4"/>
            <path d="M47.8667,421.4 L47.1333,421.4"/>
            <path d="M46.4,425.067 L46.4,424.333"/>
            <path d="M46.4,424.333 L46.4,425.067"/>
            <path d="M47.8667,423.6 L47.1333,423.6"/>
            <path d="M47.1333,423.6 L47.8667,423.6"/>
            <path d="M50.8,422.867 L50.8,423.6"/>
            <path d="M50.8,423.6 L50.8,422.867"/>
            <path d="M48.6,421.4 L46.4,423.6"/>
            <path d="M46.4,423.6 L48.6,421.4"/>
            <path d="M48.6,419.2 L48.6,421.4"/>
            <path d="M48.6,421.4 L48.6,419.2"/>
            <path d="M47.1333,423.6 L46.4,423.6"/>
            <path d="M46.4,423.6 L47.1333,423.6"/>
            <path d="M48.6,423.6 L50.8,421.4"/>
            <path d="M50.8,421.4 L48.6,423.6"/>
            <path d="M46.4,425.8 L46.4,425.067"/>
            <path d="M46.4,425.067 L46.4,425.8"/>
            <path d="M49.3333,421.4 L50.0667,421.4"/>
            <path d="M50.0667,421.4 L49.3333,421.4"/>
            <path d="M50.8,425.067 L50.8,425.8"/>
            <path d="M50.8,425.8 L50.8,425.067"/>
            <path d="M49.3333,423.6 L48.6,423.6"/>
            <path d="M48.6,423.6 L49.3333,423.6"/>
            <path d="M48.6,422.867 L48.6,422.133"/>
            <path d="M48.6,422.133 L48.6,422.867"/>
            <path d="M48.6,425.8 L48.6,425.067"/>
            <path d="M48.6,425.067 L48.6,425.8"/>
            <path d="M46.4,421.4 L47.1333,421.4"/>
            <path d="M47.1333,421.4 L46.4,421.4"/>
            <path d="M46.4,422.133 L46.4,421.4"/>
            <path d="M46.4,421.4 L46.4,422.133"/>
            <path d="M50.0667,421.4 L50.8,421.4"/>
            <path d="M50.8,421.4 L50.0667,421.4"/>
            <path d="M47.8667,421.4 L48.6,421.4"/>
            <path d="M48.6,421.4 L47.8667,421.4"/>
            <path d="M47.8667,423.6 L48.6,422.867"/>
            <path d="M48.6,422.867 L47.8667,423.6"/>
            <path d="M46.4,422.867 L46.4,422.133"/>
            <path d="M46.4,422.133 L46.4,422.867"/>
            <path d="M48.6,423.6 L48.6,422.867"/>
            <path d="M48.6,422.867 L48.6,423.6"/>
            <path d="M50.8,423.6 L50.0667,423.6"/>
            <path d="M50.0667,423.6 L50.8,423.6"/>
            <path d="M50.8,421.4 L50.8,422.133"/>
            <path d="M50.8,422.133 L50.8,421.4"/>
            <path d="M47.1333,425.8 L46.4,425.8"/>
            <path d="M46.4,425.8 L47.1333,425.8"/>
            <path d="M47.1333,423.6 L48.6,422.133"/>
            <path d="M48.6,422.133 L47.1333,423.6"/>
            <path d="M47.1333,421.4 L46.4,422.133"/>
            <path d="M46.4,422.133 L47.1333,421.4"/>
            <path d="M44.2,423.6 L46.4,423.6"/>
            <path d="M46.4,423.6 L44.2,423.6"/>
            <path d="M46.4,423.6 L46.4,422.867"/>
            <path d="M46.4,422.867 L46.4,423.6"/>
            <path d="M50.8,424.333 L50.8,425.067"/>
            <path d="M50.8,425.067 L50.8,424.333"/>
            <path d="M47.8667,421.4 L46.4,422.867"/>
            <path d="M46.4,422.867 L47.8667,421.4"/>
            <path d="M50.0667,425.8 L49.3333,425.8"/>
            <path d="M49.3333,425.8 L50.0667,425.8"/>
            <path d="M48.6,423.6 L47.8667,423.6"/>
            <path d="M47.8667,423.6 L48.6,423.6"/>
            <path d="M48.6,424.333 L48.6,423.6"/>
            <path d="M48.6,423.6 L48.6,424.333"/>
            <path d="M48.6,422.133 L48.6,421.4"/>
            <path d="M48.6,421.4 L48.6,422.133"/>
            <path d="M48.6,428 L48.6,425.8"/>
            <path d="M48.6,425.8 L48.6,428"/>
            <path d="M50.0667,423.6 L49.3333,423.6"/>
            <path d="M49.3333,423.6 L50.0667,423.6"/>
            <path d="M48.6,422.867 L50.0667,421.4"/>
            <path d="M50.0667,421.4 L48.6,422.867"/>
            <path d="M50.0667,423.6 L50.8,422.867"/>
            <path d="M50.8,422.867 L50.0667,423.6"/>
            <path d="M46.4,424.333 L46.4,423.6"/>
            <path d="M46.4,423.6 L46.4,424.333"/>
            <path d="M49.3333,423.6 L50.8,422.133"/>
            <path d="M50.8,422.133 L49.3333,423.6"/>
            <path d="M47.8667,425.8 L47.1333,425.8"/>
            <path d="M47.1333,425.8 L47.8667,425.8"/>
        </g>
        <g id="product-41e90adb-649b-4055-9402-0577efead61e" class="IfcPile material-null projection" ifc:name="FP_220_Type_2" ifc:guid="11wGhRP9j0LPG21NVlwjOU">
            <path d="M76.4,449.2 L76.4,447"/>
            <path d="M76.4,447 L76.4,449.2"/>
            <path d="M77.1334,449.2 L76.4,449.2"/>
            <path d="M76.4,449.2 L77.1334,449.2"/>
            <path d="M76.4,453.6 L76.4,452.867"/>
            <path d="M76.4,452.867 L76.4,453.6"/>
            <path d="M74.2,451.4 L72,451.4"/>
            <path d="M72,451.4 L74.2,451.4"/>
            <path d="M77.8667,449.2 L77.1334,449.2"/>
            <path d="M77.1334,449.2 L77.8667,449.2"/>
            <path d="M77.8667,453.6 L77.1334,453.6"/>
            <path d="M77.1334,453.6 L77.8667,453.6"/>
            <path d="M80.8,451.4 L78.6,451.4"/>
            <path d="M78.6,451.4 L80.8,451.4"/>
            <path d="M78.6,449.2 L77.8667,449.2"/>
            <path d="M77.8667,449.2 L78.6,449.2"/>
            <path d="M78.6,452.867 L77.8667,453.6"/>
            <path d="M77.8667,453.6 L78.6,452.867"/>
            <path d="M77.1334,453.6 L76.4,453.6"/>
            <path d="M76.4,453.6 L77.1334,453.6"/>
            <path d="M77.8667,451.4 L77.1334,451.4"/>
            <path d="M77.1334,451.4 L77.8667,451.4"/>
            <path d="M74.2,452.867 L74.2,452.133"/>
            <path d="M74.2,452.133 L74.2,452.867"/>
            <path d="M78.6,452.133 L77.1334,453.6"/>
            <path d="M77.1334,453.6 L78.6,452.133"/>
            <path d="M76.4,453.6 L75.6667,453.6"/>
            <path d="M75.6667,453.6 L76.4,453.6"/>
            <path d="M77.1334,451.4 L76.4,451.4"/>
            <path d="M76.4,451.4 L77.1334,451.4"/>
            <path d="M74.2,452.133 L74.2,451.4"/>
            <path d="M74.2,451.4 L74.2,452.133"/>
            <path d="M78.6,451.4 L76.4,453.6"/>
            <path d="M76.4,453.6 L78.6,451.4"/>
            <path d="M75.6667,453.6 L74.9334,453.6"/>
            <path d="M74.9334,453.6 L75.6667,453.6"/>
            <path d="M76.4,451.4 L75.6667,451.4"/>
            <path d="M75.6667,451.4 L76.4,451.4"/>
            <path d="M74.2,451.4 L74.2,450.667"/>
            <path d="M74.2,450.667 L74.2,451.4"/>
            <path d="M76.4,452.867 L77.8667,451.4"/>
            <path d="M77.8667,451.4 L76.4,452.867"/>
            <path d="M74.9334,453.6 L74.2,453.6"/>
            <path d="M74.2,453.6 L74.9334,453.6"/>
            <path d="M75.6667,451.4 L74.9334,451.4"/>
            <path d="M74.9334,451.4 L75.6667,451.4"/>
            <path d="M74.2,450.667 L74.2,449.933"/>
            <path d="M74.2,449.933 L74.2,450.667"/>
            <path d="M76.4,452.133 L77.1334,451.4"/>
            <path d="M77.1334,451.4 L76.4,452.133"/>
            <path d="M78.6,450.667 L78.6,449.933"/>
            <path d="M78.6,449.933 L78.6,450.667"/>
            <path d="M74.9334,451.4 L74.2,451.4"/>
            <path d="M74.2,451.4 L74.9334,451.4"/>
            <path d="M74.2,449.933 L74.2,449.2"/>
            <path d="M74.2,449.2 L74.2,449.933"/>
            <path d="M76.4,450.667 L75.6667,451.4"/>
            <path d="M75.6667,451.4 L76.4,450.667"/>
            <path d="M78.6,451.4 L78.6,450.667"/>
            <path d="M78.6,450.667 L78.6,451.4"/>
            <path d="M76.4,452.867 L76.4,452.133"/>
            <path d="M76.4,452.133 L76.4,452.867"/>
            <path d="M78.6,453.6 L77.8667,453.6"/>
            <path d="M77.8667,453.6 L78.6,453.6"/>
            <path d="M76.4,449.933 L74.9334,451.4"/>
            <path d="M74.9334,451.4 L76.4,449.933"/>
            <path d="M78.6,452.133 L78.6,451.4"/>
            <path d="M78.6,451.4 L78.6,452.133"/>
            <path d="M76.4,452.133 L76.4,451.4"/>
            <path d="M76.4,451.4 L76.4,452.133"/>
            <path d="M78.6,449.933 L78.6,449.2"/>
            <path d="M78.6,449.2 L78.6,449.933"/>
            <path d="M74.2,451.4 L76.4,449.2"/>
            <path d="M76.4,449.2 L74.2,451.4"/>
            <path d="M78.6,452.867 L78.6,452.133"/>
            <path d="M78.6,452.133 L78.6,452.867"/>
            <path d="M76.4,451.4 L76.4,450.667"/>
            <path d="M76.4,450.667 L76.4,451.4"/>
            <path d="M74.9334,449.2 L74.2,449.2"/>
            <path d="M74.2,449.2 L74.9334,449.2"/>
            <path d="M74.2,450.667 L75.6667,449.2"/>
            <path d="M75.6667,449.2 L74.2,450.667"/>
            <path d="M78.6,453.6 L78.6,452.867"/>
            <path d="M78.6,452.867 L78.6,453.6"/>
            <path d="M76.4,450.667 L76.4,449.933"/>
            <path d="M76.4,449.933 L76.4,450.667"/>
            <path d="M74.2,453.6 L74.2,452.867"/>
            <path d="M74.2,452.867 L74.2,453.6"/>
            <path d="M74.2,449.933 L74.9334,449.2"/>
            <path d="M74.9334,449.2 L74.2,449.933"/>
            <path d="M75.6667,449.2 L74.9334,449.2"/>
            <path d="M74.9334,449.2 L75.6667,449.2"/>
            <path d="M76.4,449.933 L76.4,449.2"/>
            <path d="M76.4,449.2 L76.4,449.933"/>
            <path d="M76.4,455.8 L76.4,453.6"/>
            <path d="M76.4,453.6 L76.4,455.8"/>
            <path d="M76.4,449.2 L75.6667,449.2"/>
            <path d="M75.6667,449.2 L76.4,449.2"/>
            <path d="M78.6,451.4 L77.8667,451.4"/>
            <path d="M77.8667,451.4 L78.6,451.4"/>
        </g>
    <g id="product-ab85943e-e372-43ef-ad25-cad109981d3f" class="IfcBeam material-gewapendbetontpg projection" ifc:name="BB 400x500" ifc:guid="2hXPG_ut93xwqboj49c1q$">
            <path d="M44.6,390 L52.6,390"/>
            <path d="M44.6,455.4 L52.6,455.4"/>
            <path d="M52.6,455.4 L52.6,390"/>
            <path d="M44.6,455.4 L44.6,390"/>
        </g>
        <g id="product-7f9c48ec-33d6-4873-9626-17aaf58c8ed1" class="IfcBeam material-gewapendbetontpg projection" ifc:name="BB 400x500" ifc:guid="1$d4ZiCzP8SvOc5whrZ8xH">
            <path d="M110,447.4 L110,455.4"/>
            <path d="M52.6,447.4 L52.6,455.4"/>
            <path d="M52.6,455.4 L110,455.4"/>
            <path d="M52.6,447.4 L110,447.4"/>
        </g>
        </g>
</svg>