<svg xmlns="http://www.w3.org/2000/svg" xmlns:xlink="http://www.w3.org/1999/xlink" xmlns:ifc="http://www.ifcopenshell.org/ns" width="250mm" height="250mm" viewBox="0 0 250 250">
    <defs>
        <marker id="arrowend" markerWidth="10" markerHeight="7" refX="10" refY="3.5" orient="auto">
          <polygon points="0 0, 10 3.5, 0 7"/>
        </marker>
        <marker id="arrowstart" markerWidth="10" markerHeight="7" refX="0" refY="3.5" orient="auto">
          <polygon points="10 0, 0 3.5, 10 7"/>
        </marker>
    </defs>
    <g ifc:name="Elevation 01_BWK_PLG_00_begane_grond" class="section" ifc:plane="[[1.000000,0.000000,0.000000,0.000000],[0.000000,1.000000,0.000000,0.000000],[0.000000,0.000000,1.000000,0.000000],[0.000000,0.000000,0.000000,1.000000]]" ifc:matrix3="[[10.000000,0.000000,25.000010],[0.000000,10.000000,225.000006],[0.000000,0.000000,1.000000]]">
        <g id="product-2de96125-daa6-4473-85a5-751c95fe6f49" class="IfcSlab material-gewapendbeton projection" ifc:name="beton_200" ifc:guid="0jwM4bsgP4SuMbTHoL$cz9">
            <path d="M52.6,225 L52.6,224.1"/>
            <path d="M52.6,225 L52.6,225"/>
        </g>
        <g id="product-bdd2c04b-301b-437f-b5b4-c152c73b62ad" class="IfcSlab material-ongewapendbeton projection" ifc:name="dekvloer_70.001" ifc:guid="2zqi1BC1j3VxMqmLB7EsAj">
            <path d="M25.9,198.3 L25.9,210.613"/>
            <path d="M52.6,197.4 L52.6,197.4"/>
            <path d="M45.1888,197.4 L36.0544,197.4"/>
            <path d="M52.6,224.1 L52.6,197.4"/>
            <path d="M25.9,224.1 L52.6,224.1"/>
        </g>
        <g id="product-24151b66-b605-46df-8c23-cdb722960a7c" class="IfcWall material-metselwerkbaksteenrood projection" ifc:name="MW100" ifc:guid="0a5HjcjWL6tumZpRSYbWfy">
            <path d="M23.6,197.4 L23.6,227.4"/>
            <path d="M22.6,197.4 L23.6,197.4"/>
            <path d="M22.6,227.4 L22.6,197.4"/>
            <path d="M23.6,227.4 L22.6,227.4"/>
        </g>
        <g id="product-2f725bfd-1d36-4b75-a58d-cc5b9a1b49ab" class="IfcWall material-isolatie projection" ifc:name="ISO100" ifc:guid="0lSblz7JPBTQMDp5kQ6qch">
            <path d="M25,197.4 L25,226"/>
            <path d="M24,197.4 L25,197.4"/>
            <path d="M24,226 L24,197.4"/>
            <path d="M25,226 L24,226"/>
        </g>
        <g id="product-a8256432-6506-4059-9c01-fe484e21e762" class="IfcWall material-naaldhoutvurenCLT projection" ifc:name="CLT90.001" ifc:guid="2e9MGoPGP0MPm1$aXE8UTY">
            <path d="M25.9,197.4 L25.9,224.1"/>
            <path d="M25,197.4 L25.9,197.4"/>
            <path d="M25,224.1 L25,197.4"/>
            <path d="M25.9,224.1 L25,224.1"/>
        </g>
        <g id="product-d1eea825-bc53-4fdc-87d9-2ac5de7f5971" class="IfcWall material-naaldhoutvurenCLT projection" ifc:name="CLT90" ifc:guid="3HxgWbl5DFt8VPAiNUVrbn">
            <path d="M52.6,224.1 L25,224.1"/>
            <path d="M25,224.1 L25,225"/>
            <path d="M52.6,225 L25,225"/>
            <path d="M52.6,224.1 L52.6,225"/>
        </g>
        <g id="product-4ca552b4-5839-4d2d-9212-0d32fe4f6562" class="IfcWall material-isolatie projection" ifc:name="ISO100" ifc:guid="1CfLAqM3bDBP8I3JB_JsLY">
            <path d="M52.6,225 L25,225"/>
            <path d="M25,225 L25,226"/>
            <path d="M52.6,226 L25,226"/>
            <path d="M52.6,225 L52.6,226"/>
        </g>
        <g id="product-c5e9504b-7df5-48b3-97e7-63b109bc7cac" class="IfcWall material-metselwerkbaksteenrood projection" ifc:name="MW100" ifc:guid="35wL1BVVL8ivVdOx49l7oi">
            <path d="M52.6,227.4 L23.6,227.4"/>
            <path d="M52.6,226.4 L52.6,227.4"/>
            <path d="M23.6,226.4 L52.6,226.4"/>
            <path d="M23.6,227.4 L23.6,226.4"/>
        </g>
        <g id="product-e006a622-80c5-4895-9be0-c8a07689d7fd" class="IfcWall material-naaldhoutvurenCLT projection" ifc:name="CLT90" ifc:guid="3W1gOYWCL8bPlWoA1sYTVz">
            <path d="M36.0544,198.3 L36.0544,197.4"/>
            <path d="M36.0544,197.4 L25.9,197.4"/>
            <path d="M25.9,197.4 L25.9,198.3"/>
            <path d="M36.0544,198.3 L25.9,198.3"/>
            <path d="M45.1888,197.4 L45.1888,198.3"/>
            <path d="M52.6,198.3 L45.1888,198.3"/>
            <path d="M52.6,197.4 L52.6,198.3"/>
            <path d="M52.6,197.4 L45.1888,197.4"/>
        </g>
        <g id="product-8f1b571e-1ab6-428d-ac22-869257c874cb" class="IfcPile material-null projection" ifc:name="FP_220_Type_1" ifc:guid="2F6rSU6hP2ZQmYXf9No7JB">
            <path d="M24,212.9 L23.9333,212.9"/>
            <path d="M23.9333,212.9 L24,212.9"/>
            <path d="M23.6,210.7 L23.9333,210.7"/>
            <path d="M23.9333,210.7 L23.6,210.7"/>
            <path d="M23.9333,211.8 L23.6,211.8"/>
            <path d="M23.6,211.8 L23.9333,211.8"/>
            <path d="M24,211 L23.6,211.4"/>
            <path d="M23.6,211.4 L24,211"/>
            <path d="M23.9333,210.7 L24,210.7"/>
            <path d="M24,210.7 L23.9333,210.7"/>
            <path d="M23.9333,211.8 L24,211.733"/>
            <path d="M24,211.733 L23.9333,211.8"/>
            <path d="M23.6,211.767 L24,211.367"/>
            <path d="M24,211.367 L23.6,211.767"/>
            <path d="M22.1,211.8 L22.6,211.8"/>
            <path d="M22.6,211.8 L22.1,211.8"/>
            <path d="M23.9333,210.7 L23.6,211.033"/>
            <path d="M23.6,211.033 L23.9333,210.7"/>
            <path d="M24,211.8 L23.9333,211.8"/>
            <path d="M23.9333,211.8 L24,211.8"/>
            <path d="M23.9333,212.9 L23.6,212.9"/>
            <path d="M23.6,212.9 L23.9333,212.9"/>
        </g>
        <g id="product-41e90adb-649b-4055-9402-0577efead61e" class="IfcPile material-null projection" ifc:name="FP_220_Type_2" ifc:guid="11wGhRP9j0LPG21NVlwjOU">
            <path d="M37.1,226.4 L37.1,226.067"/>
            <path d="M37.1,226.067 L37.1,226.4"/>
            <path d="M39.3,226.067 L38.9667,226.4"/>
            <path d="M38.9667,226.4 L39.3,226.067"/>
            <path d="M37.1,226.067 L37.1,226"/>
            <path d="M37.1,226 L37.1,226.067"/>
            <path d="M39,226 L38.6,226.4"/>
            <path d="M38.6,226.4 L39,226"/>
            <path d="M38.2333,226.4 L38.6333,226"/>
            <path d="M38.6333,226 L38.2333,226.4"/>
            <path d="M37.1,225 L37.1,225"/>
            <path d="M37.1,225 L37.1,225"/>
            <path d="M38.2,226.067 L38.2667,226"/>
            <path d="M38.2667,226 L38.2,226.067"/>
            <path d="M39.3,225 L39.3,225"/>
            <path d="M39.3,225 L39.3,225"/>
            <path d="M38.2,226.4 L38.2,226.067"/>
            <path d="M38.2,226.067 L38.2,226.4"/>
            <path d="M38.1667,225 L38.1667,225"/>
            <path d="M38.1667,225 L38.1667,225"/>
            <path d="M39.3,226.067 L39.3,226"/>
            <path d="M39.3,226 L39.3,226.067"/>
            <path d="M38.2,226.067 L38.2,226"/>
            <path d="M38.2,226 L38.2,226.067"/>
            <path d="M37.8,225 L37.8,225"/>
            <path d="M37.8,225 L37.8,225"/>
            <path d="M39.3,226.4 L39.3,226.067"/>
            <path d="M39.3,226.067 L39.3,226.4"/>
            <path d="M37.4333,225 L37.4333,225"/>
            <path d="M37.4333,225 L37.4333,225"/>
            <path d="M38.2,225 L38.2,225"/>
            <path d="M38.2,225 L38.2,225"/>
            <path d="M38.2,227.9 L38.2,227.4"/>
            <path d="M38.2,227.4 L38.2,227.9"/>
        </g>
    <g ifc:guid="0Mu_oMfm52hvAVMsNs635_" ifc:name="Example Space" class="IfcSpace material-null cut"><path d="M52.60002136230469,224.10000801086426 L52.60001182556152,205.60999870300293 L52.60001182556152,198.29999923706055 L33.465003967285156,198.30000400543213 L25.900001525878906,198.3000087738037 L25.90001106262207,216.79000854492188 L25.90001106262207,224.10000801086426 L45.035014152526855,224.10000801086426 Z"/></g><g class="cut material-metselwerkbaksteenrood IfcWall 0a5HjcjWL6tumZpRSYbWfy 35wL1BVVL8ivVdOx49l7oi"><path d="M23.600006103515625,210.20000457763672 L23.59999656677246,197.4000072479248 L23.02666664123535,197.4000072479248 L22.60000228881836,197.4000072479248 L22.60000228881836,214.6000099182129 L22.600011825561523,227.4000072479248 L23.173341751098633,227.4000072479248 L23.600006103515625,227.4000072479248 L34.651803970336914,227.4000072479248 L36.03276252746582,227.4000072479248 L45.46133041381836,227.4000072479248 L52.60000705718994,227.4000072479248 L52.60000705718994,226.9733428955078 L52.60000705718994,226.4000129699707 L45.46133041381836,226.4000129699707 L36.03276252746582,226.4000129699707 L34.651803970336914,226.4000129699707 L23.600006103515625,226.4000129699707 Z"/></g><g class="0lSblz7JPBTQMDp5kQ6qch cut 1CfLAqM3bDBP8I3JB_JsLY IfcWall material-isolatie"><path d="M25.0,209.60267066955566 L25.0,197.4000072479248 L24.42667007446289,197.4000072479248 L24.0000057220459,197.4000072479248 L24.0000057220459,213.7973403930664 L24.0000057220459,226.00001335144043 L24.573345184326172,226.00001335144043 L25.000009536743164,226.00001335144043 Z"/></g><g class="0lSblz7JPBTQMDp5kQ6qch cut 1CfLAqM3bDBP8I3JB_JsLY IfcWall material-isolatie"><path d="M34.718475341796875,225.00000953674316 L25.000009536743164,225.00000953674316 L25.000009536743164,225.42667388916016 L25.000009536743164,226.00001335144043 L34.718475341796875,226.00000381469727 L36.03276252746582,226.00000381469727 L45.46133041381836,226.00000381469727 L52.60000705718994,226.00000381469727 L52.60000705718994,225.42667388916016 L52.60000705718994,225.0 L45.46133041381836,225.0 L36.03276252746582,225.00000953674316 Z"/></g><g class="2e9MGoPGP0MPm1$aXE8UTY cut material-naaldhoutvurenCLT 3HxgWbl5DFt8VPAiNUVrbn IfcWall 3W1gOYWCL8bPlWoA1sYTVz"><path d="M45.18877983093262,197.39999771118164 L45.18877983093262,197.72483825683594 L45.18877983093262,198.29999923706055 L49.92504119873047,198.29999446868896 L52.60000705718994,198.29999446868896 L52.60000705718994,197.65499114990234 L52.60000705718994,197.39999294281006 L49.92504119873047,197.39999771118164 Z"/></g><g class="2e9MGoPGP0MPm1$aXE8UTY cut material-naaldhoutvurenCLT 3HxgWbl5DFt8VPAiNUVrbn IfcWall 3W1gOYWCL8bPlWoA1sYTVz"><path d="M29.565067291259766,198.30000400543213 L36.054391860961914,198.29999923706055 L36.054391860961914,197.97515869140625 L36.054391860961914,197.40000247955322 L29.565067291259766,197.4000072479248 L25.900001525878906,197.4000072479248 L25.26970863342285,197.4000072479248 L25.0,197.4000072479248 L25.000009536743164,216.0987091064453 L25.000009536743164,224.10000801086426 L25.000009536743164,224.3697166442871 L25.000009536743164,225.00000953674316 L34.38804626464844,225.00000953674316 L36.59604072570801,225.00000953674316 L45.704050064086914,225.0 L52.60000705718994,225.0 L52.60000705718994,224.36970710754395 L52.60000705718994,224.0999984741211 L45.704050064086914,224.10000801086426 L36.59604072570801,224.10000801086426 L34.38804626464844,224.10000801086426 L25.90001106262207,224.10000801086426 L25.900001525878906,205.4013156890869 L25.900001525878906,198.3000087738037 Z"/></g><g id="product-7f9c48ec-33d6-4873-9626-17aaf58c8ed1" class="IfcBeam material-gewapendbeton projection" ifc:name="BB 400x500" ifc:guid="1$d4ZiCzP8SvOc5whrZ8xH">
            <path d="M52.6,225 L52.6,227.7"/>
            <path d="M26.3,225 L26.3,225"/>
            <path d="M26.3,226 L26.3,226.4"/>
            <path d="M26.3,227.4 L26.3,227.7"/>
            <path d="M26.3,227.7 L52.6,227.7"/>
        </g>
        <g id="product-ab85943e-e372-43ef-ad25-cad109981d3f" class="IfcBeam material-gewapendbeton projection" ifc:name="BB 400x500" ifc:guid="2hXPG_ut93xwqboj49c1q$">
            <path d="M22.3,197.4 L22.6,197.4"/>
            <path d="M23.6,197.4 L24,197.4"/>
            <path d="M22.3,227.7 L26.3,227.7"/>
            <path d="M26.3,227.7 L26.3,227.4"/>
            <path d="M26.3,226.4 L26.3,226"/>
            <path d="M22.3,227.7 L22.3,197.4"/>
        </g>
        <path d="M52.60002136230469,224.10000801086426 L52.60001182556152,205.60999870300293 L52.60001182556152,198.29999923706055 L33.465003967285156,198.30000400543213 L25.900001525878906,198.3000087738037 L25.90001106262207,216.79000854492188 L25.90001106262207,224.10000801086426 L45.035014152526855,224.10000801086426 Z" class="IfcSpace material-null"/></g>
</svg>