<svg xmlns="http://www.w3.org/2000/svg" xmlns:xlink="http://www.w3.org/1999/xlink" xmlns:ifc="http://www.ifcopenshell.org/ns" width="250mm" height="250mm" viewBox="0 0 250 250">
    <defs>
        <marker id="arrowend" markerWidth="10" markerHeight="7" refX="10" refY="3.5" orient="auto">
          <polygon points="0 0, 10 3.5, 0 7"/>
        </marker>
        <marker id="arrowstart" markerWidth="10" markerHeight="7" refX="0" refY="3.5" orient="auto">
          <polygon points="10 0, 0 3.5, 10 7"/>
        </marker>
    </defs>
    <g ifc:name="Elevation 01_CON_PLG_palenplan" class="section" ifc:plane="[[1.000000,0.000000,0.000000,0.000000],[0.000000,1.000000,0.000000,0.000000],[0.000000,0.000000,1.000000,0.000000],[0.000000,0.000000,0.000000,1.000000]]" ifc:matrix3="[[10.000000,0.000000,25.000010],[0.000000,10.000000,225.000006],[0.000000,0.000000,1.000000]]">
        <g id="product-825af80d-8820-4f34-9343-1cfba5ae6040" class="IfcBeam material-gewapendbeton projection" ifc:name="Randbalk 400x500" ifc:guid="22MlWDY21FD9D37Fkbhc10">
            <path d="M55,222 L55,225.5"/>
            <path d="M24.5,222 L24.5,225.5"/>
            <path d="M24.5,225.5 L55,225.5"/>
            <path d="M24.5,222 L55,222"/>
        </g>
        <g id="product-3ca044f2-cb45-4fd5-9ed1-f2224cc585d0" class="IfcBeam material-gewapendbeton projection" ifc:name="Randbalk 400x500" ifc:guid="0ye4JooqLFrPxHyY9CnONG">
            <path d="M24.5,195 L28,195"/>
            <path d="M24.5,222 L28,222"/>
            <path d="M28,222 L28,195"/>
            <path d="M24.5,222 L24.5,195"/>
        </g>
        <g id="product-8f1b571e-1ab6-428d-ac22-869257c874cb" class="IfcPile material-null projection" ifc:name="FP_220_Type_1" ifc:guid="2F6rSU6hP2ZQmYXf9No7JB">
            <path d="M28.7,209.4 L27.6,209.4"/>
            <path d="M27.6,209.4 L28.7,209.4"/>
            <path d="M27.6,210.5 L27.2333,210.5"/>
            <path d="M27.2333,210.5 L27.6,210.5"/>
            <path d="M26.8667,210.5 L26.5,210.5"/>
            <path d="M26.5,210.5 L26.8667,210.5"/>
            <path d="M26.5,210.5 L26.1333,210.5"/>
            <path d="M26.1333,210.5 L26.5,210.5"/>
            <path d="M27.6,209.4 L27.6,209.767"/>
            <path d="M27.6,209.767 L27.6,209.4"/>
            <path d="M27.6,208.667 L27.6,209.033"/>
            <path d="M27.6,209.033 L27.6,208.667"/>
            <path d="M26.5,208.3 L26.8667,208.3"/>
            <path d="M26.8667,208.3 L26.5,208.3"/>
            <path d="M26.5,208.667 L26.8667,208.3"/>
            <path d="M26.8667,208.3 L26.5,208.667"/>
            <path d="M26.5,210.133 L26.5,209.767"/>
            <path d="M26.5,209.767 L26.5,210.133"/>
            <path d="M25.7667,208.3 L26.1333,208.3"/>
            <path d="M26.1333,208.3 L25.7667,208.3"/>
            <path d="M25.4,210.133 L25.4,209.767"/>
            <path d="M25.4,209.767 L25.4,210.133"/>
            <path d="M26.1333,209.4 L25.7667,209.4"/>
            <path d="M25.7667,209.4 L26.1333,209.4"/>
            <path d="M27.6,209.033 L27.6,209.4"/>
            <path d="M27.6,209.4 L27.6,209.033"/>
            <path d="M26.5,208.3 L25.4,209.4"/>
            <path d="M25.4,209.4 L26.5,208.3"/>
            <path d="M26.5,207.2 L26.5,208.3"/>
            <path d="M26.5,208.3 L26.5,207.2"/>
            <path d="M25.7667,209.4 L25.4,209.4"/>
            <path d="M25.4,209.4 L25.7667,209.4"/>
            <path d="M26.5,209.4 L27.6,208.3"/>
            <path d="M27.6,208.3 L26.5,209.4"/>
            <path d="M25.4,210.5 L25.4,210.133"/>
            <path d="M25.4,210.133 L25.4,210.5"/>
            <path d="M26.8667,208.3 L27.2333,208.3"/>
            <path d="M27.2333,208.3 L26.8667,208.3"/>
            <path d="M27.6,210.133 L27.6,210.5"/>
            <path d="M27.6,210.5 L27.6,210.133"/>
            <path d="M26.8667,209.4 L26.5,209.4"/>
            <path d="M26.5,209.4 L26.8667,209.4"/>
            <path d="M26.5,209.033 L26.5,208.667"/>
            <path d="M26.5,208.667 L26.5,209.033"/>
            <path d="M26.5,210.5 L26.5,210.133"/>
            <path d="M26.5,210.133 L26.5,210.5"/>
            <path d="M25.4,208.3 L25.7667,208.3"/>
            <path d="M25.7667,208.3 L25.4,208.3"/>
            <path d="M25.4,208.667 L25.4,208.3"/>
            <path d="M25.4,208.3 L25.4,208.667"/>
            <path d="M27.2333,208.3 L27.6,208.3"/>
            <path d="M27.6,208.3 L27.2333,208.3"/>
            <path d="M26.1333,208.3 L26.5,208.3"/>
            <path d="M26.5,208.3 L26.1333,208.3"/>
            <path d="M26.1333,209.4 L26.5,209.033"/>
            <path d="M26.5,209.033 L26.1333,209.4"/>
            <path d="M25.4,209.033 L25.4,208.667"/>
            <path d="M25.4,208.667 L25.4,209.033"/>
            <path d="M26.5,209.4 L26.5,209.033"/>
            <path d="M26.5,209.033 L26.5,209.4"/>
            <path d="M27.6,209.4 L27.2333,209.4"/>
            <path d="M27.2333,209.4 L27.6,209.4"/>
            <path d="M27.6,208.3 L27.6,208.667"/>
            <path d="M27.6,208.667 L27.6,208.3"/>
            <path d="M25.7667,210.5 L25.4,210.5"/>
            <path d="M25.4,210.5 L25.7667,210.5"/>
            <path d="M25.7667,209.4 L26.5,208.667"/>
            <path d="M26.5,208.667 L25.7667,209.4"/>
            <path d="M25.7667,208.3 L25.4,208.667"/>
            <path d="M25.4,208.667 L25.7667,208.3"/>
            <path d="M24.3,209.4 L25.4,209.4"/>
            <path d="M25.4,209.4 L24.3,209.4"/>
            <path d="M25.4,209.4 L25.4,209.033"/>
            <path d="M25.4,209.033 L25.4,209.4"/>
            <path d="M27.6,209.767 L27.6,210.133"/>
            <path d="M27.6,210.133 L27.6,209.767"/>
            <path d="M26.1333,208.3 L25.4,209.033"/>
            <path d="M25.4,209.033 L26.1333,208.3"/>
            <path d="M27.2333,210.5 L26.8667,210.5"/>
            <path d="M26.8667,210.5 L27.2333,210.5"/>
            <path d="M26.5,209.4 L26.1333,209.4"/>
            <path d="M26.1333,209.4 L26.5,209.4"/>
            <path d="M26.5,209.767 L26.5,209.4"/>
            <path d="M26.5,209.4 L26.5,209.767"/>
            <path d="M26.5,208.667 L26.5,208.3"/>
            <path d="M26.5,208.3 L26.5,208.667"/>
            <path d="M26.5,211.6 L26.5,210.5"/>
            <path d="M26.5,210.5 L26.5,211.6"/>
            <path d="M27.2333,209.4 L26.8667,209.4"/>
            <path d="M26.8667,209.4 L27.2333,209.4"/>
            <path d="M26.5,209.033 L27.2333,208.3"/>
            <path d="M27.2333,208.3 L26.5,209.033"/>
            <path d="M27.2333,209.4 L27.6,209.033"/>
            <path d="M27.6,209.033 L27.2333,209.4"/>
            <path d="M25.4,209.767 L25.4,209.4"/>
            <path d="M25.4,209.4 L25.4,209.767"/>
            <path d="M26.8667,209.4 L27.6,208.667"/>
            <path d="M27.6,208.667 L26.8667,209.4"/>
            <path d="M26.1333,210.5 L25.7667,210.5"/>
            <path d="M25.7667,210.5 L26.1333,210.5"/>
        </g>
        <g id="product-41e90adb-649b-4055-9402-0577efead61e" class="IfcPile material-null projection" ifc:name="FP_220_Type_2" ifc:guid="11wGhRP9j0LPG21NVlwjOU">
            <path d="M40.6,222.4 L40.6,221.3"/>
            <path d="M40.6,221.3 L40.6,222.4"/>
            <path d="M40.9667,222.4 L40.6,222.4"/>
            <path d="M40.6,222.4 L40.9667,222.4"/>
            <path d="M40.6,224.6 L40.6,224.233"/>
            <path d="M40.6,224.233 L40.6,224.6"/>
            <path d="M39.5,223.5 L38.4,223.5"/>
            <path d="M38.4,223.5 L39.5,223.5"/>
            <path d="M41.3333,222.4 L40.9667,222.4"/>
            <path d="M40.9667,222.4 L41.3333,222.4"/>
            <path d="M41.3333,224.6 L40.9667,224.6"/>
            <path d="M40.9667,224.6 L41.3333,224.6"/>
            <path d="M42.8,223.5 L41.7,223.5"/>
            <path d="M41.7,223.5 L42.8,223.5"/>
            <path d="M41.7,222.4 L41.3333,222.4"/>
            <path d="M41.3333,222.4 L41.7,222.4"/>
            <path d="M41.7,224.233 L41.3333,224.6"/>
            <path d="M41.3333,224.6 L41.7,224.233"/>
            <path d="M40.9667,224.6 L40.6,224.6"/>
            <path d="M40.6,224.6 L40.9667,224.6"/>
            <path d="M41.3333,223.5 L40.9667,223.5"/>
            <path d="M40.9667,223.5 L41.3333,223.5"/>
            <path d="M39.5,224.233 L39.5,223.867"/>
            <path d="M39.5,223.867 L39.5,224.233"/>
            <path d="M41.7,223.867 L40.9667,224.6"/>
            <path d="M40.9667,224.6 L41.7,223.867"/>
            <path d="M40.6,224.6 L40.2333,224.6"/>
            <path d="M40.2333,224.6 L40.6,224.6"/>
            <path d="M40.9667,223.5 L40.6,223.5"/>
            <path d="M40.6,223.5 L40.9667,223.5"/>
            <path d="M39.5,223.867 L39.5,223.5"/>
            <path d="M39.5,223.5 L39.5,223.867"/>
            <path d="M41.7,223.5 L40.6,224.6"/>
            <path d="M40.6,224.6 L41.7,223.5"/>
            <path d="M40.2333,224.6 L39.8667,224.6"/>
            <path d="M39.8667,224.6 L40.2333,224.6"/>
            <path d="M40.6,223.5 L40.2333,223.5"/>
            <path d="M40.2333,223.5 L40.6,223.5"/>
            <path d="M39.5,223.5 L39.5,223.133"/>
            <path d="M39.5,223.133 L39.5,223.5"/>
            <path d="M40.6,224.233 L41.3333,223.5"/>
            <path d="M41.3333,223.5 L40.6,224.233"/>
            <path d="M39.8667,224.6 L39.5,224.6"/>
            <path d="M39.5,224.6 L39.8667,224.6"/>
            <path d="M40.2333,223.5 L39.8667,223.5"/>
            <path d="M39.8667,223.5 L40.2333,223.5"/>
            <path d="M39.5,223.133 L39.5,222.767"/>
            <path d="M39.5,222.767 L39.5,223.133"/>
            <path d="M40.6,223.867 L40.9667,223.5"/>
            <path d="M40.9667,223.5 L40.6,223.867"/>
            <path d="M41.7,223.133 L41.7,222.767"/>
            <path d="M41.7,222.767 L41.7,223.133"/>
            <path d="M39.8667,223.5 L39.5,223.5"/>
            <path d="M39.5,223.5 L39.8667,223.5"/>
            <path d="M39.5,222.767 L39.5,222.4"/>
            <path d="M39.5,222.4 L39.5,222.767"/>
            <path d="M40.6,223.133 L40.2333,223.5"/>
            <path d="M40.2333,223.5 L40.6,223.133"/>
            <path d="M41.7,223.5 L41.7,223.133"/>
            <path d="M41.7,223.133 L41.7,223.5"/>
            <path d="M40.6,224.233 L40.6,223.867"/>
            <path d="M40.6,223.867 L40.6,224.233"/>
            <path d="M41.7,224.6 L41.3333,224.6"/>
            <path d="M41.3333,224.6 L41.7,224.6"/>
            <path d="M40.6,222.767 L39.8667,223.5"/>
            <path d="M39.8667,223.5 L40.6,222.767"/>
            <path d="M41.7,223.867 L41.7,223.5"/>
            <path d="M41.7,223.5 L41.7,223.867"/>
            <path d="M40.6,223.867 L40.6,223.5"/>
            <path d="M40.6,223.5 L40.6,223.867"/>
            <path d="M41.7,222.767 L41.7,222.4"/>
            <path d="M41.7,222.4 L41.7,222.767"/>
            <path d="M39.5,223.5 L40.6,222.4"/>
            <path d="M40.6,222.4 L39.5,223.5"/>
            <path d="M41.7,224.233 L41.7,223.867"/>
            <path d="M41.7,223.867 L41.7,224.233"/>
            <path d="M40.6,223.5 L40.6,223.133"/>
            <path d="M40.6,223.133 L40.6,223.5"/>
            <path d="M39.8667,222.4 L39.5,222.4"/>
            <path d="M39.5,222.4 L39.8667,222.4"/>
            <path d="M39.5,223.133 L40.2333,222.4"/>
            <path d="M40.2333,222.4 L39.5,223.133"/>
            <path d="M41.7,224.6 L41.7,224.233"/>
            <path d="M41.7,224.233 L41.7,224.6"/>
            <path d="M40.6,223.133 L40.6,222.767"/>
            <path d="M40.6,222.767 L40.6,223.133"/>
            <path d="M39.5,224.6 L39.5,224.233"/>
            <path d="M39.5,224.233 L39.5,224.6"/>
            <path d="M39.5,222.767 L39.8667,222.4"/>
            <path d="M39.8667,222.4 L39.5,222.767"/>
            <path d="M40.2333,222.4 L39.8667,222.4"/>
            <path d="M39.8667,222.4 L40.2333,222.4"/>
            <path d="M40.6,222.767 L40.6,222.4"/>
            <path d="M40.6,222.4 L40.6,222.767"/>
            <path d="M40.6,225.7 L40.6,224.6"/>
            <path d="M40.6,224.6 L40.6,225.7"/>
            <path d="M40.6,222.4 L40.2333,222.4"/>
            <path d="M40.2333,222.4 L40.6,222.4"/>
            <path d="M41.7,223.5 L41.3333,223.5"/>
            <path d="M41.3333,223.5 L41.7,223.5"/>
        </g>
    <g ifc:guid="0Mu_oMfm52hvAVMsNs635_" ifc:name="Example Space" class="IfcSpace material-null cut"><path d="M50.92970848083496,195.89999675750732 L27.60000228881836,195.9000062942505 L27.60000228881836,199.8366117477417 L27.600011825561523,222.4000072479248 L31.670312881469727,222.4000072479248 L55.00001907348633,222.4000072479248 L55.00001907348633,218.46339225769043 L55.000009536743164,195.89999675750732 Z"/></g><path d="M50.92970848083496,195.89999675750732 L27.60000228881836,195.9000062942505 L27.60000228881836,199.8366117477417 L27.600011825561523,222.4000072479248 L31.670312881469727,222.4000072479248 L55.00001907348633,222.4000072479248 L55.00001907348633,218.46339225769043 L55.000009536743164,195.89999675750732 Z" class="IfcSpace material-null"/></g>
</svg>