<svg xmlns="http://www.w3.org/2000/svg" xmlns:xlink="http://www.w3.org/1999/xlink" xmlns:ifc="http://www.ifcopenshell.org/ns" width="250mm" height="250mm" viewBox="0 0 250 250">
    <defs>
        <marker id="arrowend" markerWidth="10" markerHeight="7" refX="10" refY="3.5" orient="auto">
          <polygon points="0 0, 10 3.5, 0 7"/>
        </marker>
        <marker id="arrowstart" markerWidth="10" markerHeight="7" refX="0" refY="3.5" orient="auto">
          <polygon points="10 0, 0 3.5, 10 7"/>
        </marker>
    </defs>
    <g ifc:name="Elevation 01_CON_PLG_00_begane_grond" class="section" ifc:plane="[[1.000000,0.000000,0.000000,0.000000],[0.000000,1.000000,0.000000,0.000000],[0.000000,0.000000,1.000000,0.000000],[0.000000,0.000000,0.000000,1.000000]]" ifc:matrix3="[[10.000000,0.000000,25.000010],[0.000000,10.000000,225.000006],[0.000000,0.000000,1.000000]]">
        <g id="product-bdd2c04b-301b-437f-b5b4-c152c73b62ad" class="IfcSlab material-null projection" ifc:name="Cementdekvloer 70" ifc:guid="2zqi1BC1j3VxMqmLB7EsAj">
            <path d="M28.45,221.55 L55,221.55"/>
            <path d="M55,195 L55,195"/>
            <path d="M46.7388,195 L37.6044,195"/>
            <path d="M55,221.55 L55,195"/>
        </g>
        <g id="product-2de96125-daa6-4473-85a5-751c95fe6f49" class="IfcSlab material-gewapendbeton projection" ifc:name="beton_200" ifc:guid="0jwM4bsgP4SuMbTHoL$cz9">
            <path d="M55,222.441 L55,222.441"/>
            <path d="M55,222.441 L55,221.55"/>
        </g>
        <g id="product-24151b66-b605-46df-8c23-cdb722960a7c" class="IfcWall material-metselwerkbaksteenrood projection" ifc:name="MW100" ifc:guid="0a5HjcjWL6tumZpRSYbWfy">
            <path d="M26,195 L26,225"/>
            <path d="M25,195 L26,195"/>
            <path d="M25,225 L25,195"/>
            <path d="M26,225 L25,225"/>
        </g>
        <g id="product-a8256432-6506-4059-9c01-fe484e21e762" class="IfcWall material-naaldhoutvurenCLT projection" ifc:name="CLT90.001" ifc:guid="2e9MGoPGP0MPm1$aXE8UTY">
            <path d="M28.45,195 L28.45,221.55"/>
            <path d="M27.55,195 L28.45,195"/>
            <path d="M27.55,221.55 L27.55,195"/>
            <path d="M28.45,221.55 L27.55,221.55"/>
        </g>
        <g id="product-2f725bfd-1d36-4b75-a58d-cc5b9a1b49ab" class="IfcWall material-isolatie projection" ifc:name="ISO100" ifc:guid="0lSblz7JPBTQMDp5kQ6qch">
            <path d="M27.55,195 L27.55,222.441"/>
            <path d="M26.55,195 L27.55,195"/>
            <path d="M26.55,222.441 L26.55,195"/>
            <path d="M27.55,222.441 L26.55,222.441"/>
        </g>
        <g id="product-d1eea825-bc53-4fdc-87d9-2ac5de7f5971" class="IfcWall material-naaldhoutvurenCLT projection" ifc:name="CLT90" ifc:guid="3HxgWbl5DFt8VPAiNUVrbn">
            <path d="M55,221.55 L27.55,221.55"/>
            <path d="M27.55,221.55 L27.55,222.45"/>
            <path d="M55,222.45 L27.55,222.45"/>
            <path d="M55,221.55 L55,222.45"/>
        </g>
        <g id="product-e006a622-80c5-4895-9be0-c8a07689d7fd" class="IfcWall material-naaldhoutvurenCLT projection" ifc:name="CLT90" ifc:guid="3W1gOYWCL8bPlWoA1sYTVz">
            <path d="M37.6044,195.9 L37.6044,195"/>
            <path d="M37.6044,195 L28.45,195"/>
            <path d="M28.45,195 L28.45,195.9"/>
            <path d="M37.6044,195.9 L28.45,195.9"/>
            <path d="M46.7388,195 L46.7388,195.9"/>
            <path d="M55,195.9 L46.7388,195.9"/>
            <path d="M55,195 L55,195.9"/>
            <path d="M55,195 L46.7388,195"/>
        </g>
        <g id="product-c5e9504b-7df5-48b3-97e7-63b109bc7cac" class="IfcWall material-metselwerkbaksteenrood projection" ifc:name="MW100" ifc:guid="35wL1BVVL8ivVdOx49l7oi">
            <path d="M55,225 L26,225"/>
            <path d="M55,224 L55,225"/>
            <path d="M26,224 L55,224"/>
            <path d="M26,225 L26,224"/>
        </g>
        <g id="product-4ca552b4-5839-4d2d-9212-0d32fe4f6562" class="IfcWall material-isolatie projection" ifc:name="ISO100" ifc:guid="1CfLAqM3bDBP8I3JB_JsLY">
            <path d="M55,222.441 L26.55,222.441"/>
            <path d="M26.55,222.441 L26.55,223.441"/>
            <path d="M55,223.441 L26.55,223.441"/>
            <path d="M55,222.441 L55,223.441"/>
        </g>
        <g id="product-8f1b571e-1ab6-428d-ac22-869257c874cb" class="IfcPile material-null projection" ifc:name="FP_220_Type_1" ifc:guid="2F6rSU6hP2ZQmYXf9No7JB">
            <path d="M26.55,210.5 L26.5,210.5"/>
            <path d="M26.5,210.5 L26.55,210.5"/>
            <path d="M26.5,210.5 L26.1333,210.5"/>
            <path d="M26.1333,210.5 L26.5,210.5"/>
            <path d="M26.5,208.3 L26.55,208.3"/>
            <path d="M26.55,208.3 L26.5,208.3"/>
            <path d="M26.5,208.667 L26.55,208.617"/>
            <path d="M26.55,208.617 L26.5,208.667"/>
            <path d="M26.5,210.133 L26.5,209.767"/>
            <path d="M26.5,209.767 L26.5,210.133"/>
            <path d="M26,208.3 L26.1333,208.3"/>
            <path d="M26.1333,208.3 L26,208.3"/>
            <path d="M26.1333,209.4 L26,209.4"/>
            <path d="M26,209.4 L26.1333,209.4"/>
            <path d="M26.5,208.3 L26,208.8"/>
            <path d="M26,208.8 L26.5,208.3"/>
            <path d="M26.5,207.2 L26.5,208.3"/>
            <path d="M26.5,208.3 L26.5,207.2"/>
            <path d="M26.5,209.4 L26.55,209.35"/>
            <path d="M26.55,209.35 L26.5,209.4"/>
            <path d="M26.55,209.4 L26.5,209.4"/>
            <path d="M26.5,209.4 L26.55,209.4"/>
            <path d="M26.5,209.033 L26.5,208.667"/>
            <path d="M26.5,208.667 L26.5,209.033"/>
            <path d="M26.5,210.5 L26.5,210.133"/>
            <path d="M26.5,210.133 L26.5,210.5"/>
            <path d="M26.1333,208.3 L26.5,208.3"/>
            <path d="M26.5,208.3 L26.1333,208.3"/>
            <path d="M26.1333,209.4 L26.5,209.033"/>
            <path d="M26.5,209.033 L26.1333,209.4"/>
            <path d="M26.5,209.4 L26.5,209.033"/>
            <path d="M26.5,209.033 L26.5,209.4"/>
            <path d="M26,209.167 L26.5,208.667"/>
            <path d="M26.5,208.667 L26,209.167"/>
            <path d="M24.3,209.4 L25,209.4"/>
            <path d="M25,209.4 L24.3,209.4"/>
            <path d="M26.1333,208.3 L26,208.433"/>
            <path d="M26,208.433 L26.1333,208.3"/>
            <path d="M26.5,209.4 L26.1333,209.4"/>
            <path d="M26.1333,209.4 L26.5,209.4"/>
            <path d="M26.5,209.767 L26.5,209.4"/>
            <path d="M26.5,209.4 L26.5,209.767"/>
            <path d="M26.5,208.667 L26.5,208.3"/>
            <path d="M26.5,208.3 L26.5,208.667"/>
            <path d="M26.5,211.6 L26.5,210.5"/>
            <path d="M26.5,210.5 L26.5,211.6"/>
            <path d="M26.5,209.033 L26.55,208.983"/>
            <path d="M26.55,208.983 L26.5,209.033"/>
            <path d="M26.1333,210.5 L26,210.5"/>
            <path d="M26,210.5 L26.1333,210.5"/>
        </g>
        <g id="product-41e90adb-649b-4055-9402-0577efead61e" class="IfcPile material-null projection" ifc:name="FP_220_Type_2" ifc:guid="11wGhRP9j0LPG21NVlwjOU">
            <path d="M39.5,223.5 L38.4,223.5"/>
            <path d="M38.4,223.5 L39.5,223.5"/>
            <path d="M42.8,223.5 L41.7,223.5"/>
            <path d="M41.7,223.5 L42.8,223.5"/>
            <path d="M41.3333,223.5 L40.9667,223.5"/>
            <path d="M40.9667,223.5 L41.3333,223.5"/>
            <path d="M39.5,224 L39.5,223.867"/>
            <path d="M39.5,223.867 L39.5,224"/>
            <path d="M41.7,223.867 L41.5668,224"/>
            <path d="M41.5668,224 L41.7,223.867"/>
            <path d="M40.9667,223.5 L40.6,223.5"/>
            <path d="M40.6,223.5 L40.9667,223.5"/>
            <path d="M39.5,223.867 L39.5,223.5"/>
            <path d="M39.5,223.5 L39.5,223.867"/>
            <path d="M41.7,223.5 L41.2001,224"/>
            <path d="M41.2001,224 L41.7,223.5"/>
            <path d="M40.6,223.5 L40.2333,223.5"/>
            <path d="M40.2333,223.5 L40.6,223.5"/>
            <path d="M39.5,223.5 L39.5,223.441"/>
            <path d="M39.5,223.441 L39.5,223.5"/>
            <path d="M40.8334,224 L41.3333,223.5"/>
            <path d="M41.3333,223.5 L40.8334,224"/>
            <path d="M40.2333,223.5 L39.8667,223.5"/>
            <path d="M39.8667,223.5 L40.2333,223.5"/>
            <path d="M40.6,223.867 L40.9667,223.5"/>
            <path d="M40.9667,223.5 L40.6,223.867"/>
            <path d="M39.8667,223.5 L39.5,223.5"/>
            <path d="M39.5,223.5 L39.8667,223.5"/>
            <path d="M40.2924,223.441 L40.2333,223.5"/>
            <path d="M40.2333,223.5 L40.2924,223.441"/>
            <path d="M41.7,223.5 L41.7,223.441"/>
            <path d="M41.7,223.441 L41.7,223.5"/>
            <path d="M40.6,224 L40.6,223.867"/>
            <path d="M40.6,223.867 L40.6,224"/>
            <path d="M39.9258,223.441 L39.8667,223.5"/>
            <path d="M39.8667,223.5 L39.9258,223.441"/>
            <path d="M41.7,223.867 L41.7,223.5"/>
            <path d="M41.7,223.5 L41.7,223.867"/>
            <path d="M40.6,223.867 L40.6,223.5"/>
            <path d="M40.6,223.5 L40.6,223.867"/>
            <path d="M39.5,223.5 L39.5591,223.441"/>
            <path d="M39.5591,223.441 L39.5,223.5"/>
            <path d="M41.7,224 L41.7,223.867"/>
            <path d="M41.7,223.867 L41.7,224"/>
            <path d="M40.6,223.5 L40.6,223.441"/>
            <path d="M40.6,223.441 L40.6,223.5"/>
            <path d="M40.6,225.7 L40.6,225"/>
            <path d="M40.6,225 L40.6,225.7"/>
            <path d="M41.7,223.5 L41.3333,223.5"/>
            <path d="M41.3333,223.5 L41.7,223.5"/>
        </g>
    <g ifc:guid="0Mu_oMfm52hvAVMsNs635_" ifc:name="Example Space" class="IfcSpace material-null cut"><path d="M55.00001907348633,221.5499973297119 L55.00001907348633,214.28250312805176 L55.000009536743164,195.89999675750732 L47.47750282287598,195.9000015258789 L28.450002670288086,195.9000062942505 L28.450002670288086,203.16750526428223 L28.450002670288086,221.55000686645508 L35.97250938415527,221.55000686645508 Z"/></g><g class="35wL1BVVL8ivVdOx49l7oi 0a5HjcjWL6tumZpRSYbWfy material-metselwerkbaksteenrood IfcWall cut"><path d="M26.000003814697266,207.80000686645508 L26.000003814697266,195.00000953674316 L25.426664352416992,195.00000953674316 L25.0,195.00000953674316 L25.000009536743164,212.20001220703125 L25.000009536743164,225.00000953674316 L25.573339462280273,225.00000953674316 L26.00001335144043,225.00000953674316 Z"/></g><g class="35wL1BVVL8ivVdOx49l7oi 0a5HjcjWL6tumZpRSYbWfy material-metselwerkbaksteenrood IfcWall cut"><path d="M55.000009536743164,224.0000057220459 L47.86133289337158,224.0000057220459 L38.43276023864746,224.0000057220459 L37.051801681518555,224.0000057220459 L26.00001335144043,224.0000057220459 L26.00001335144043,224.42667961120605 L26.00001335144043,225.00000953674316 L37.051801681518555,225.00000953674316 L38.43276023864746,225.00000953674316 L47.86133289337158,225.00000953674316 L55.000009536743164,225.00000953674316 L55.000009536743164,224.57334518432617 Z"/></g><g class="2e9MGoPGP0MPm1$aXE8UTY 3HxgWbl5DFt8VPAiNUVrbn 3W1gOYWCL8bPlWoA1sYTVz material-naaldhoutvurenCLT IfcWall cut"><path d="M46.73878192901611,195.0 L46.738786697387695,195.3248405456543 L46.738786697387695,195.89999675750732 L52.01825141906738,195.89999198913574 L55.000009536743164,195.89999198913574 L55.00000476837158,195.2549934387207 L55.00000476837158,194.99999046325684 L52.0182466506958,194.99999523162842 Z"/></g><g class="2e9MGoPGP0MPm1$aXE8UTY 3HxgWbl5DFt8VPAiNUVrbn 3W1gOYWCL8bPlWoA1sYTVz material-naaldhoutvurenCLT IfcWall cut"><path d="M31.754131317138672,195.9000015258789 L37.60439872741699,195.9000015258789 L37.60439872741699,195.5751609802246 L37.60439872741699,195.0 L31.754131317138672,195.00000476837158 L28.450002670288086,195.00000953674316 L27.81970977783203,195.00000953674316 L27.55000114440918,195.00000953674316 L27.55000114440918,213.59365463256836 L27.550010681152344,221.55000686645508 L27.550010681152344,221.81971549987793 L27.550010681152344,222.45000839233398 L36.80004119873047,222.45000839233398 L38.99604797363281,222.45000839233398 L48.104047775268555,222.45000839233398 L55.000009536743164,222.44999885559082 L55.000009536743164,221.81970596313477 L55.000009536743164,221.55000686645508 L48.104047775268555,221.55000686645508 L38.99604797363281,221.55000686645508 L36.80004119873047,221.55000686645508 L28.45001220703125,221.55000686645508 L28.450002670288086,202.95636177062988 L28.450002670288086,195.9000062942505 Z"/></g><g class="material-isolatie 0lSblz7JPBTQMDp5kQ6qch 1CfLAqM3bDBP8I3JB_JsLY IfcWall cut"><path d="M27.55000114440918,206.7081642150879 L27.55000114440918,195.00000953674316 L26.97667121887207,195.00000953674316 L26.549997329711914,195.00000953674316 L26.550006866455078,210.73285102844238 L26.550006866455078,222.4410057067871 L26.550006866455078,222.8676700592041 L26.550006866455078,223.4409999847412 L37.077999114990234,223.4409999847412 L38.43276023864746,223.4409999847412 L47.86133289337158,223.4409999847412 L55.000009536743164,223.4409999847412 L55.000009536743164,222.86766052246094 L55.000009536743164,222.44099617004395 L47.86133289337158,222.44099617004395 L38.43276023864746,222.44099617004395 L37.077999114990234,222.4410057067871 L27.550010681152344,222.4410057067871 Z"/></g><g id="product-3ca044f2-cb45-4fd5-9ed1-f2224cc585d0" class="IfcBeam material-null projection" ifc:name="betonbalk_400x500" ifc:guid="0ye4JooqLFrPxHyY9CnONG">
            <path d="M24.7,195 L25,195"/>
            <path d="M26,195 L26.55,195"/>
            <path d="M27.55,195 L27.55,195"/>
            <path d="M24.7,221.3 L25,221.3"/>
            <path d="M26,221.3 L26.55,221.3"/>
            <path d="M24.7,221.3 L24.7,195"/>
        </g>
        <g id="product-825af80d-8820-4f34-9343-1cfba5ae6040" class="IfcBeam material-null projection" ifc:name="betonbalk_400x500.001" ifc:guid="22MlWDY21FD9D37Fkbhc10">
            <path d="M55,222.441 L55,225.3"/>
            <path d="M24.7,221.3 L24.7,225.3"/>
            <path d="M24.7,225.3 L55,225.3"/>
            <path d="M24.7,221.3 L25,221.3"/>
            <path d="M26,221.3 L26.55,221.3"/>
        </g>
        <path d="M55.00001907348633,221.5499973297119 L55.00001907348633,214.28250312805176 L55.000009536743164,195.89999675750732 L47.47750282287598,195.9000015258789 L28.450002670288086,195.9000062942505 L28.450002670288086,203.16750526428223 L28.450002670288086,221.55000686645508 L35.97250938415527,221.55000686645508 Z" class="IfcSpace material-null"/></g>
</svg>