<svg xmlns="http://www.w3.org/2000/svg" xmlns:xlink="http://www.w3.org/1999/xlink" xmlns:ifc="http://www.ifcopenshell.org/ns" width="100mm" height="100mm" viewBox="0 0 100 100">
    <defs>
        <marker id="arrowend" markerWidth="10" markerHeight="7" refX="10" refY="3.5" orient="auto">
          <polygon points="0 0, 10 3.5, 0 7"/>
        </marker>
        <marker id="arrowstart" markerWidth="10" markerHeight="7" refX="0" refY="3.5" orient="auto">
          <polygon points="10 0, 0 3.5, 10 7"/>
        </marker>
    </defs>
    <g ifc:name="Elevation 2D detail components" class="section" ifc:plane="[[1.000000,0.000000,0.000000,0.000000],[0.000000,1.000000,0.000000,0.000000],[0.000000,0.000000,1.000000,0.000000],[0.000000,0.000000,0.000000,1.000000]]" ifc:matrix3="[[10.000000,0.000000,489.824175],[0.000000,10.000000,367.496870],[0.000000,0.000000,1.000000]]">
        <g id="product-34593c12-bf33-47d8-8c90-93f9394b1fc3" class="IfcFurniture material-null projection" ifc:name="2dDigibord" ifc:guid="0qMJmIlpD7s8oGa$avIn$3">
            <path d="M39.6734,81.9863 L38.1734,81.9863"/>
            <path d="M39.6734,82.1363 L39.6734,81.9863"/>
            <path d="M20.6434,82.1363 L39.6734,82.1363"/>
            <path d="M20.6434,81.9863 L20.6434,82.1363"/>
            <path d="M22.1434,81.9863 L20.6434,81.9863"/>
            <path d="M38.1734,81.9863 L22.1434,81.9863"/>
            <path d="M34.3062,80.9863 L38.1734,81.9863"/>
            <path d="M26.0105,80.9863 L34.3062,80.9863"/>
            <path d="M22.1434,81.9863 L26.0105,80.9863"/>
        </g>
        <g id="product-9aa8ef11-8544-4015-86ef-18c594f608ce" class="IfcFurniture material-null projection" ifc:name="2dPantryKlein" ifc:guid="2QgEyHXKH05ORl6CMKzWZE">
            <path d="M21.5316,74.9001 L21.3775,74.7971"/>
            <path d="M21.7134,74.9363 L21.5316,74.9001"/>
            <path d="M24.3734,74.9363 L21.7134,74.9363"/>
            <path d="M24.5551,74.9001 L24.3734,74.9363"/>
            <path d="M24.7092,74.7972 L24.5551,74.9001"/>
            <path d="M24.8122,74.6431 L24.7092,74.7972"/>
            <path d="M24.8484,74.4613 L24.8122,74.6431"/>
            <path d="M24.8484,72.3713 L24.8484,74.4613"/>
            <path d="M24.8122,72.1895 L24.8484,72.3713"/>
            <path d="M24.7092,72.0354 L24.8122,72.1895"/>
            <path d="M24.5551,71.9324 L24.7092,72.0354"/>
            <path d="M24.3734,71.8963 L24.5551,71.9324"/>
            <path d="M21.7134,71.8963 L24.3734,71.8963"/>
            <path d="M21.5316,71.9324 L21.7134,71.8963"/>
            <path d="M21.3775,72.0354 L21.5316,71.9324"/>
            <path d="M21.2745,72.1895 L21.3775,72.0354"/>
            <path d="M21.2384,72.3713 L21.2745,72.1895"/>
            <path d="M21.2384,74.4613 L21.2384,72.3713"/>
            <path d="M21.2745,74.643 L21.2384,74.4613"/>
            <path d="M21.3775,74.7971 L21.2745,74.643"/>
            <path d="M21.452,74.9782 L21.2898,74.8698"/>
            <path d="M21.6434,75.0163 L21.452,74.9782"/>
            <path d="M24.4434,75.0163 L21.6434,75.0163"/>
            <path d="M24.6347,74.9782 L24.4434,75.0163"/>
            <path d="M24.7969,74.8698 L24.6347,74.9782"/>
            <path d="M24.9053,74.7076 L24.7969,74.8698"/>
            <path d="M24.9434,74.5163 L24.9053,74.7076"/>
            <path d="M24.9434,72.3163 L24.9434,74.5163"/>
            <path d="M24.9053,72.1249 L24.9434,72.3163"/>
            <path d="M24.7969,71.9627 L24.9053,72.1249"/>
            <path d="M24.6347,71.8543 L24.7969,71.9627"/>
            <path d="M24.4434,71.8163 L24.6347,71.8543"/>
            <path d="M21.6434,71.8163 L24.4434,71.8163"/>
            <path d="M21.452,71.8543 L21.6434,71.8163"/>
            <path d="M21.2898,71.9627 L21.452,71.8543"/>
            <path d="M21.1814,72.1249 L21.2898,71.9627"/>
            <path d="M21.1434,72.3163 L21.1814,72.1249"/>
            <path d="M21.1434,74.5163 L21.1434,72.3163"/>
            <path d="M21.1814,74.7076 L21.1434,74.5163"/>
            <path d="M21.2898,74.8698 L21.1814,74.7076"/>
            <path d="M28.1434,75.9863 L26.1234,75.9863"/>
            <path d="M23.2474,70.9162 L23.2105,70.9414"/>
            <path d="M23.3032,70.8463 L23.2474,70.9162"/>
            <path d="M23.3358,70.763 L23.3032,70.8463"/>
            <path d="M23.3425,70.6739 L23.3358,70.763"/>
            <path d="M23.3226,70.5867 L23.3425,70.6739"/>
            <path d="M23.2779,70.5092 L23.3226,70.5867"/>
            <path d="M23.2123,70.4484 L23.2779,70.5092"/>
            <path d="M23.1318,70.4096 L23.2123,70.4484"/>
            <path d="M23.0434,70.3963 L23.1318,70.4096"/>
            <path d="M22.9549,70.4096 L23.0434,70.3963"/>
            <path d="M22.8744,70.4484 L22.9549,70.4096"/>
            <path d="M22.8088,70.5092 L22.8744,70.4484"/>
            <path d="M22.7641,70.5867 L22.8088,70.5092"/>
            <path d="M22.7442,70.6739 L22.7641,70.5867"/>
            <path d="M22.7509,70.763 L22.7442,70.6739"/>
            <path d="M22.7835,70.8463 L22.7509,70.763"/>
            <path d="M22.8393,70.9162 L22.7835,70.8463"/>
            <path d="M22.8762,70.9414 L22.8393,70.9162"/>
            <path d="M24.9434,76.0863 L24.9434,75.9863"/>
            <path d="M22.9234,76.0863 L24.9434,76.0863"/>
            <path d="M22.9234,75.9863 L22.9234,76.0863"/>
            <path d="M24.9434,75.9863 L22.9234,75.9863"/>
            <path d="M26.1234,75.9863 L24.9434,75.9863"/>
            <path d="M26.1234,76.0863 L26.1234,75.9863"/>
            <path d="M28.1434,76.0863 L26.1234,76.0863"/>
            <path d="M28.1434,75.9863 L28.1434,76.0863"/>
            <path d="M30.6434,75.9863 L28.1434,75.9863"/>
            <path d="M30.6434,69.9863 L30.6434,75.9863"/>
            <path d="M20.6434,69.9863 L30.6434,69.9863"/>
            <path d="M20.6434,75.9863 L20.6434,69.9863"/>
            <path d="M22.9234,75.9863 L20.6434,75.9863"/>
            <path d="M23.1308,72.0797 L23.1308,70.9797"/>
            <path d="M22.9559,72.0797 L23.1308,72.0797"/>
            <path d="M22.9559,70.9797 L22.9559,72.0797"/>
            <path d="M22.9986,70.9929 L22.9559,70.9797"/>
            <path d="M23.0881,70.9929 L22.9986,70.9929"/>
            <path d="M23.1308,70.9797 L23.0881,70.9929"/>
            <path d="M23.1735,70.9666 L23.1308,70.9797"/>
            <path d="M23.2105,70.9414 L23.1735,70.9666"/>
            <path d="M23.2105,73.0414 L23.2105,70.9414"/>
            <path d="M23.2029,73.0797 L23.2105,73.0414"/>
            <path d="M23.1812,73.1121 L23.2029,73.0797"/>
            <path d="M23.1487,73.1338 L23.1812,73.1121"/>
            <path d="M23.1105,73.1414 L23.1487,73.1338"/>
            <path d="M22.9762,73.1414 L23.1105,73.1414"/>
            <path d="M22.938,73.1338 L22.9762,73.1414"/>
            <path d="M22.9055,73.1121 L22.938,73.1338"/>
            <path d="M22.8839,73.0796 L22.9055,73.1121"/>
            <path d="M22.8762,73.0414 L22.8839,73.0796"/>
            <path d="M22.8762,70.9414 L22.8762,73.0414"/>
            <path d="M22.9132,70.9666 L22.8762,70.9414"/>
            <path d="M22.9559,70.9797 L22.9132,70.9666"/>
        </g>
        <g id="product-0d50aadd-5f44-4ef1-b881-64fbd373d463" class="IfcFurniture material-null projection" ifc:name="2dBureauEnStoel" ifc:guid="0DKAhTNqHEyRY1PFlJSzHZ">
            <path d="M32.0286,55.8634 L32.1434,55.8863"/>
            <path d="M31.9312,55.7984 L32.0286,55.8634"/>
            <path d="M31.8662,55.7011 L31.9312,55.7984"/>
            <path d="M31.8434,55.5863 L31.8662,55.7011"/>
            <path d="M31.8434,53.7863 L31.8434,55.5863"/>
            <path d="M31.8662,53.6715 L31.8434,53.7863"/>
            <path d="M31.9312,53.5741 L31.8662,53.6715"/>
            <path d="M32.0286,53.5091 L31.9312,53.5741"/>
            <path d="M32.1434,53.4863 L32.0286,53.5091"/>
            <path d="M32.3434,53.4863 L32.1434,53.4863"/>
            <path d="M32.4582,53.5091 L32.3434,53.4863"/>
            <path d="M32.5555,53.5741 L32.4582,53.5091"/>
            <path d="M32.6205,53.6715 L32.5555,53.5741"/>
            <path d="M32.6434,53.7863 L32.6205,53.6715"/>
            <path d="M32.6434,55.5863 L32.6434,53.7863"/>
            <path d="M32.6205,55.7011 L32.6434,55.5863"/>
            <path d="M32.5555,55.7984 L32.6205,55.7011"/>
            <path d="M32.4582,55.8634 L32.5555,55.7984"/>
            <path d="M32.3434,55.8863 L32.4582,55.8634"/>
            <path d="M32.1434,55.8863 L32.3434,55.8863"/>
            <path d="M26.5786,55.8634 L26.6934,55.8863"/>
            <path d="M26.4812,55.7984 L26.5786,55.8634"/>
            <path d="M26.4162,55.7011 L26.4812,55.7984"/>
            <path d="M26.3934,55.5863 L26.4162,55.7011"/>
            <path d="M26.3934,53.7863 L26.3934,55.5863"/>
            <path d="M26.4162,53.6715 L26.3934,53.7863"/>
            <path d="M26.4812,53.5741 L26.4162,53.6715"/>
            <path d="M26.5786,53.5091 L26.4812,53.5741"/>
            <path d="M26.6934,53.4863 L26.5786,53.5091"/>
            <path d="M26.8934,53.4863 L26.6934,53.4863"/>
            <path d="M27.0082,53.5091 L26.8934,53.4863"/>
            <path d="M27.1055,53.5741 L27.0082,53.5091"/>
            <path d="M27.1705,53.6715 L27.1055,53.5741"/>
            <path d="M27.1934,53.7863 L27.1705,53.6715"/>
            <path d="M27.1934,55.5863 L27.1934,53.7863"/>
            <path d="M27.1705,55.7011 L27.1934,55.5863"/>
            <path d="M27.1055,55.7984 L27.1705,55.7011"/>
            <path d="M27.0082,55.8634 L27.1055,55.7984"/>
            <path d="M26.8934,55.8863 L27.0082,55.8634"/>
            <path d="M26.6934,55.8863 L26.8934,55.8863"/>
            <path d="M27.0303,51.8009 L26.9834,51.8126"/>
            <path d="M32.0251,51.8009 L27.0303,51.8009"/>
            <path d="M32.0692,51.8112 L32.0251,51.8009"/>
            <path d="M32.1042,51.8397 L32.0692,51.8112"/>
            <path d="M32.1231,51.8808 L32.1042,51.8397"/>
            <path d="M32.1219,51.926 L32.1231,51.8808"/>
            <path d="M32.0579,52.6368 L32.1219,51.926"/>
            <path d="M32.018,52.7785 L32.0579,52.6368"/>
            <path d="M31.9294,52.8962 L32.018,52.7785"/>
            <path d="M31.8043,52.9738 L31.9294,52.8962"/>
            <path d="M31.6595,53.0009 L31.8043,52.9738"/>
            <path d="M27.3969,53.0009 L31.6595,53.0009"/>
            <path d="M27.2519,52.9737 L27.3969,53.0009"/>
            <path d="M27.1266,52.8958 L27.2519,52.9737"/>
            <path d="M27.0381,52.7778 L27.1266,52.8958"/>
            <path d="M26.9984,52.6357 L27.0381,52.7778"/>
            <path d="M26.9375,51.9382 L26.9984,52.6357"/>
            <path d="M26.9309,51.8903 L26.9375,51.9382"/>
            <path d="M26.9474,51.8449 L26.9309,51.8903"/>
            <path d="M26.9834,51.8126 L26.9474,51.8449"/>
            <path d="M20.6434,64.9863 L20.6434,57.3863"/>
            <path d="M38.9434,64.9863 L20.6434,64.9863"/>
            <path d="M38.9434,57.3863 L38.9434,64.9863"/>
            <path d="M20.6434,57.3863 L38.9434,57.3863"/>
            <path d="M32.2434,51.9363 L32.2434,53.4863"/>
            <path d="M32.2281,51.8597 L32.2434,51.9363"/>
            <path d="M32.1848,51.7948 L32.2281,51.8597"/>
            <path d="M32.1199,51.7515 L32.1848,51.7948"/>
            <path d="M32.0434,51.7363 L32.1199,51.7515"/>
            <path d="M26.9934,51.7363 L32.0434,51.7363"/>
            <path d="M26.9168,51.7515 L26.9934,51.7363"/>
            <path d="M26.8519,51.7948 L26.9168,51.7515"/>
            <path d="M26.8086,51.8597 L26.8519,51.7948"/>
            <path d="M26.7934,51.9363 L26.8086,51.8597"/>
            <path d="M26.7934,53.4863 L26.7934,51.9363"/>
            <path d="M26.7934,57.0863 L26.7934,55.8863"/>
            <path d="M32.2434,57.0863 L26.7934,57.0863"/>
            <path d="M32.2434,55.8863 L32.2434,57.0863"/>
        </g>
        <g id="product-26676fe3-fcfb-4281-93cc-99fb60d65fa1" class="IfcFurniture material-null projection" ifc:name="2dTafelStoelenKlas" ifc:guid="0cPs$Z$Fj2WPFCcVjWrb_X">
            <path d="M33.0033,45.916 L33.0033,46.416"/>
            <path d="M33.5034,45.916 L33.0033,45.916"/>
            <path d="M33.2414,36.09 L33.1858,36.1377"/>
            <path d="M32.7782,36.1165 L32.857,36.13"/>
            <path d="M32.1547,36.2116 L32.7782,36.1165"/>
            <path d="M31.2492,36.2579 L32.1547,36.2116"/>
            <path d="M30.481,36.2552 L31.2492,36.2579"/>
            <path d="M29.7146,36.2035 L30.481,36.2552"/>
            <path d="M29.5244,36.2593 L29.7146,36.2035"/>
            <path d="M33.0726,35.9983 L33.1525,35.9443"/>
            <path d="M29.3332,40.471 L29.4471,40.416"/>
            <path d="M33.0598,40.4005 L33.0265,40.3349"/>
            <path d="M34.4033,41.006 L27.9433,41.006"/>
            <path d="M25.7033,45.916 L25.7033,46.416"/>
            <path d="M26.2034,45.916 L25.7033,45.916"/>
            <path d="M20.6433,41.006 L27.1033,41.006"/>
            <path d="M21.9897,40.3029 L22.0575,40.2614"/>
            <path d="M25.7527,37.0518 L25.7018,37.107"/>
            <path d="M25.7768,36.859 L25.7527,37.0518"/>
            <path d="M25.7876,36.4403 L25.7768,36.859"/>
            <path d="M25.726,36.2845 L25.7876,36.4403"/>
            <path d="M22.0869,36.5264 L22.2244,36.2593"/>
            <path d="M25.7931,35.9151 L25.7726,35.9983"/>
            <path d="M25.8698,35.8473 L25.7931,35.9151"/>
            <path d="M25.9735,35.845 L25.8698,35.8473"/>
            <path d="M26.0669,35.9243 L25.9735,35.845"/>
            <path d="M26.0671,36.0593 L26.0669,35.9243"/>
            <path d="M25.975,36.1384 L26.0671,36.0593"/>
            <path d="M25.8858,36.1377 L25.975,36.1384"/>
            <path d="M29.4106,40.2172 L29.3575,40.2614"/>
            <path d="M29.6374,40.4224 L29.5246,40.3831"/>
            <path d="M30.3009,40.4657 L29.6374,40.4224"/>
            <path d="M31.2018,40.4853 L30.3009,40.4657"/>
            <path d="M32.3432,40.45 L31.2018,40.4853"/>
            <path d="M32.8538,40.4009 L32.3432,40.45"/>
            <path d="M32.9281,40.5109 L32.8761,40.4272"/>
            <path d="M25.7598,40.4005 L25.7265,40.3349"/>
            <path d="M27.9433,46.504 L27.9433,45.566"/>
            <path d="M27.9625,46.6004 L27.9433,46.504"/>
            <path d="M28.0171,46.6822 L27.9625,46.6004"/>
            <path d="M28.0989,46.7368 L28.0171,46.6822"/>
            <path d="M34.1506,46.7552 L28.0989,46.7368"/>
            <path d="M34.2473,46.7362 L34.1506,46.7552"/>
            <path d="M34.3293,46.6817 L34.2473,46.7362"/>
            <path d="M34.3841,46.5998 L34.3293,46.6817"/>
            <path d="M34.4033,46.5032 L34.3841,46.5998"/>
            <path d="M34.4033,41.006 L34.4033,46.5032"/>
            <path d="M34.2033,41.006 L34.4033,41.006"/>
            <path d="M34.1717,40.925 L34.2033,41.006"/>
            <path d="M34.0775,40.833 L34.1717,40.925"/>
            <path d="M33.9503,40.7995 L34.0775,40.833"/>
            <path d="M33.823,40.833 L33.9503,40.7995"/>
            <path d="M33.7289,40.925 L33.823,40.833"/>
            <path d="M33.7033,41.006 L33.7289,40.925"/>
            <path d="M29.3866,38.2561 L29.4018,37.107"/>
            <path d="M29.3866,39.0221 L29.3866,38.2561"/>
            <path d="M29.3953,39.788 L29.3866,39.0221"/>
            <path d="M29.4106,40.2172 L29.3953,39.788"/>
            <path d="M29.4447,40.3034 L29.4106,40.2172"/>
            <path d="M29.5246,40.3831 L29.4447,40.3034"/>
            <path d="M29.4471,40.416 L29.5246,40.3831"/>
            <path d="M29.411,40.4968 L29.4471,40.416"/>
            <path d="M29.3008,40.5555 L29.411,40.4968"/>
            <path d="M29.1923,40.5237 L29.3008,40.5555"/>
            <path d="M29.1372,40.3791 L29.1923,40.5237"/>
            <path d="M29.2325,40.2572 L29.1372,40.3791"/>
            <path d="M29.324,40.2504 L29.2325,40.2572"/>
            <path d="M29.3575,40.2614 L29.324,40.2504"/>
            <path d="M29.2897,40.3029 L29.3575,40.2614"/>
            <path d="M29.5244,36.2593 L29.3869,36.5264"/>
            <path d="M29.4941,36.2802 L29.5244,36.2593"/>
            <path d="M29.3914,36.124 L29.4941,36.2802"/>
            <path d="M29.3869,36.5264 L29.2092,36.1711"/>
            <path d="M29.313,36.9694 L29.3869,36.5264"/>
            <path d="M29.3431,37.0778 L29.313,36.9694"/>
            <path d="M29.4018,37.107 L29.3431,37.0778"/>
            <path d="M29.8517,37.1248 L29.4018,37.107"/>
            <path d="M30.926,37.1505 L29.8517,37.1248"/>
            <path d="M31.652,37.1482 L30.926,37.1505"/>
            <path d="M32.3699,37.1318 L31.652,37.1482"/>
            <path d="M33.0018,37.107 L32.3699,37.1318"/>
            <path d="M29.3914,36.124 L29.3305,36.0354"/>
            <path d="M29.3858,36.0333 L29.3914,36.124"/>
            <path d="M29.336,35.9223 L29.3858,36.0333"/>
            <path d="M29.2084,35.8829 L29.336,35.9223"/>
            <path d="M29.0938,35.9656 L29.2084,35.8829"/>
            <path d="M29.104,36.122 L29.0938,35.9656"/>
            <path d="M29.2092,36.1711 L29.104,36.122"/>
            <path d="M29.1838,36.1218 L29.2092,36.1711"/>
            <path d="M33.0265,40.3349 L32.9893,40.2616"/>
            <path d="M33.1197,40.3757 L33.0265,40.3349"/>
            <path d="M33.169,40.5014 L33.1197,40.3757"/>
            <path d="M33.1015,40.6183 L33.169,40.5014"/>
            <path d="M32.9262,40.6183 L33.1015,40.6183"/>
            <path d="M32.8587,40.5014 L32.9262,40.6183"/>
            <path d="M32.8761,40.4272 L32.8587,40.5014"/>
            <path d="M32.8538,40.4009 L32.8761,40.4272"/>
            <path d="M32.9893,40.2616 L32.8538,40.4009"/>
            <path d="M33.029,39.7036 L32.9893,40.2616"/>
            <path d="M33.0613,38.6389 L33.029,39.7036"/>
            <path d="M33.0241,37.4897 L33.0613,38.6389"/>
            <path d="M33.0018,37.107 L33.0241,37.4897"/>
            <path d="M33.0527,37.0518 L33.0018,37.107"/>
            <path d="M33.0768,36.859 L33.0527,37.0518"/>
            <path d="M33.0876,36.4403 L33.0768,36.859"/>
            <path d="M33.026,36.2845 L33.0876,36.4403"/>
            <path d="M32.9476,36.1671 L33.026,36.2845"/>
            <path d="M32.857,36.13 L32.9476,36.1671"/>
            <path d="M33.0726,35.9983 L32.857,36.13"/>
            <path d="M33.0931,35.9151 L33.0726,35.9983"/>
            <path d="M33.1698,35.8473 L33.0931,35.9151"/>
            <path d="M33.2735,35.845 L33.1698,35.8473"/>
            <path d="M33.3669,35.9243 L33.2735,35.845"/>
            <path d="M33.3671,36.0593 L33.3669,35.9243"/>
            <path d="M33.275,36.1384 L33.3671,36.0593"/>
            <path d="M33.1858,36.1377 L33.275,36.1384"/>
            <path d="M33.026,36.2845 L33.1858,36.1377"/>
            <path d="M22.1471,40.416 L22.2246,40.3831"/>
            <path d="M22.1471,40.416 L22.0332,40.471"/>
            <path d="M22.111,40.4968 L22.1471,40.416"/>
            <path d="M22.0008,40.5555 L22.111,40.4968"/>
            <path d="M21.8923,40.5237 L22.0008,40.5555"/>
            <path d="M21.8372,40.3791 L21.8923,40.5237"/>
            <path d="M21.9325,40.2572 L21.8372,40.3791"/>
            <path d="M22.024,40.2504 L21.9325,40.2572"/>
            <path d="M22.0575,40.2614 L22.024,40.2504"/>
            <path d="M22.1106,40.2172 L22.0575,40.2614"/>
            <path d="M25.729,39.7036 L25.6893,40.2616"/>
            <path d="M25.7613,38.6389 L25.729,39.7036"/>
            <path d="M25.7241,37.4897 L25.7613,38.6389"/>
            <path d="M25.7018,37.107 L25.7241,37.4897"/>
            <path d="M25.0699,37.1318 L25.7018,37.107"/>
            <path d="M24.352,37.1482 L25.0699,37.1318"/>
            <path d="M23.626,37.1505 L24.352,37.1482"/>
            <path d="M22.5517,37.1248 L23.626,37.1505"/>
            <path d="M22.1018,37.107 L22.5517,37.1248"/>
            <path d="M25.8858,36.1377 L25.9414,36.09"/>
            <path d="M25.726,36.2845 L25.8858,36.1377"/>
            <path d="M25.6476,36.1671 L25.726,36.2845"/>
            <path d="M25.557,36.13 L25.6476,36.1671"/>
            <path d="M25.5587,40.5014 L25.5761,40.4272"/>
            <path d="M25.6262,40.6183 L25.5587,40.5014"/>
            <path d="M25.8015,40.6183 L25.6262,40.6183"/>
            <path d="M25.869,40.5014 L25.8015,40.6183"/>
            <path d="M25.8197,40.3757 L25.869,40.5014"/>
            <path d="M25.7265,40.3349 L25.8197,40.3757"/>
            <path d="M25.6893,40.2616 L25.7265,40.3349"/>
            <path d="M25.5538,40.4009 L25.6893,40.2616"/>
            <path d="M26.4289,40.925 L26.4033,41.006"/>
            <path d="M26.523,40.833 L26.4289,40.925"/>
            <path d="M26.6503,40.7995 L26.523,40.833"/>
            <path d="M26.7775,40.833 L26.6503,40.7995"/>
            <path d="M26.8717,40.925 L26.7775,40.833"/>
            <path d="M26.9033,41.006 L26.8717,40.925"/>
            <path d="M27.1033,41.006 L26.9033,41.006"/>
            <path d="M27.1033,46.5032 L27.1033,41.006"/>
            <path d="M27.0841,46.5998 L27.1033,46.5032"/>
            <path d="M27.0293,46.6817 L27.0841,46.5998"/>
            <path d="M26.9472,46.7362 L27.0293,46.6817"/>
            <path d="M26.8506,46.7552 L26.9472,46.7362"/>
            <path d="M20.7989,46.7368 L26.8506,46.7552"/>
            <path d="M20.7171,46.6822 L20.7989,46.7368"/>
            <path d="M20.6625,46.6004 L20.7171,46.6822"/>
            <path d="M20.6433,46.504 L20.6625,46.6004"/>
            <path d="M20.6433,45.566 L20.6433,46.504"/>
            <path d="M22.1941,36.2802 L22.0914,36.124"/>
            <path d="M22.2244,36.2593 L22.1941,36.2802"/>
            <path d="M22.4146,36.2035 L22.2244,36.2593"/>
            <path d="M23.181,36.2552 L22.4146,36.2035"/>
            <path d="M23.9492,36.2579 L23.181,36.2552"/>
            <path d="M24.8547,36.2116 L23.9492,36.2579"/>
            <path d="M25.4782,36.1165 L24.8547,36.2116"/>
            <path d="M25.557,36.13 L25.4782,36.1165"/>
            <path d="M25.7726,35.9983 L25.557,36.13"/>
            <path d="M25.8525,35.9443 L25.7726,35.9983"/>
            <path d="M29.3433,46.416 L29.3433,45.916"/>
            <path d="M28.8434,46.416 L29.3433,46.416"/>
            <path d="M28.8434,45.916 L28.8434,46.416"/>
            <path d="M33.5034,45.916 L28.8434,45.916"/>
            <path d="M33.5034,46.416 L33.5034,45.916"/>
            <path d="M28.8434,46.416 L33.5034,46.416"/>
            <path d="M27.9433,45.566 L34.4033,45.566"/>
            <path d="M27.9433,41.006 L27.9433,45.566"/>
            <path d="M28.1433,41.006 L27.9433,41.006"/>
            <path d="M28.1689,40.925 L28.1433,41.006"/>
            <path d="M28.263,40.833 L28.1689,40.925"/>
            <path d="M28.3903,40.7995 L28.263,40.833"/>
            <path d="M28.5175,40.833 L28.3903,40.7995"/>
            <path d="M28.6117,40.925 L28.5175,40.833"/>
            <path d="M28.6433,41.006 L28.6117,40.925"/>
            <path d="M22.0434,46.416 L22.0434,45.916"/>
            <path d="M21.5434,46.416 L22.0434,46.416"/>
            <path d="M21.5434,45.916 L21.5434,46.416"/>
            <path d="M26.2034,45.916 L21.5434,45.916"/>
            <path d="M26.2034,46.416 L26.2034,45.916"/>
            <path d="M21.5434,46.416 L26.2034,46.416"/>
            <path d="M21.8838,36.1218 L21.9092,36.1711"/>
            <path d="M22.0914,36.124 L22.0305,36.0354"/>
            <path d="M22.0858,36.0333 L22.0914,36.124"/>
            <path d="M22.036,35.9223 L22.0858,36.0333"/>
            <path d="M21.9084,35.8829 L22.036,35.9223"/>
            <path d="M21.7938,35.9656 L21.9084,35.8829"/>
            <path d="M21.804,36.1221 L21.7938,35.9656"/>
            <path d="M21.9092,36.1711 L21.804,36.1221"/>
            <path d="M22.0869,36.5264 L21.9092,36.1711"/>
            <path d="M22.013,36.9694 L22.0869,36.5264"/>
            <path d="M22.0431,37.0778 L22.013,36.9694"/>
            <path d="M22.1018,37.107 L22.0431,37.0778"/>
            <path d="M22.0866,38.2561 L22.1018,37.107"/>
            <path d="M22.0866,39.0221 L22.0866,38.2561"/>
            <path d="M22.0953,39.788 L22.0866,39.0221"/>
            <path d="M22.1106,40.2172 L22.0953,39.788"/>
            <path d="M22.1447,40.3034 L22.1106,40.2172"/>
            <path d="M22.2246,40.3831 L22.1447,40.3034"/>
            <path d="M22.3374,40.4224 L22.2246,40.3831"/>
            <path d="M23.0009,40.4657 L22.3374,40.4224"/>
            <path d="M23.9018,40.4853 L23.0009,40.4657"/>
            <path d="M25.0432,40.45 L23.9018,40.4853"/>
            <path d="M25.5538,40.4009 L25.0432,40.45"/>
            <path d="M25.5761,40.4272 L25.5538,40.4009"/>
            <path d="M25.6281,40.5109 L25.5761,40.4272"/>
            <path d="M21.3117,40.925 L21.3433,41.006"/>
            <path d="M21.2175,40.833 L21.3117,40.925"/>
            <path d="M21.0903,40.7995 L21.2175,40.833"/>
            <path d="M20.963,40.833 L21.0903,40.7995"/>
            <path d="M20.8689,40.925 L20.963,40.833"/>
            <path d="M20.8433,41.006 L20.8689,40.925"/>
            <path d="M20.6433,41.006 L20.8433,41.006"/>
            <path d="M20.6433,45.566 L20.6433,41.006"/>
            <path d="M27.1033,45.566 L20.6433,45.566"/>
        </g>
    </g>
</svg>