<?xml version="1.0" encoding="utf-8" ?>
<svg xmlns="http://www.w3.org/2000/svg" xmlns:ev="http://www.w3.org/2001/xml-events" xmlns:ifc="http://www.ifcopenshell.org/ns" xmlns:xlink="http://www.w3.org/1999/xlink" baseProfile="full" data-scale="1:20" height="150.00001192092896mm" id="root" version="1.1" viewBox="0 0 150.00001192092896 150.00001192092896" width="150.00001192092896mm">
  <defs/>
  <path class="GlobalId-3ejurTyqPB7O8e8B1Yovz_ IfcAnnotation PredefinedType-gewapendbetonprefab" d="M 0.41147470474243164 66.00585132837296 L 151.79516077041626 66.00585132837296 L 151.79516077041626 55.50585091114044 L 0.41147470474243164 55.50585091114044 L 0.41147470474243164 66.00585132837296"/>
  <path class="GlobalId-1nJuVPvk1BiPU9DUkxtfpT IfcAnnotation PredefinedType-isolatie" d="M 30.904439091682434 82.17844665050507 L 34.28521752357483 78.38442772626877 L 32.60825872421265 76.12055540084839 L 32.42144584655762 73.30943048000336 L 33.78410339355469 70.84356397390366 L 36.26358509063721 69.50585171580315 L 39.07268047332764 69.72100734710693 L 41.31952524185181 71.42072133719921 L 43.73205304145813 66.00585132837296 L 30.601143836975098 66.00585132837296 L 27.557435631752014 69.86000537872314 L 27.306640148162842 77.32147574424744 L 30.904439091682434 82.17844665050507"/>
  <path class="GlobalId-1nJuVPvk1BiPU9DUkxtfpT IfcAnnotation PredefinedType-isolatie" d="M 43.73205304145813 66.00585132837296 L 41.31952524185181 71.42072133719921 L 42.29075312614441 74.0653458982706 L 41.678011417388916 76.81523114442825 L 39.67583775520325 78.7973091006279 L 36.91991567611694 79.38228249549866 L 34.28521752357483 78.38442772626877 L 30.904439091682434 82.17844665050507 L 36.55698299407959 84.31927114725113 L 42.4696147441864 83.06425362825394 L 46.76513075828552 78.81185114383698 L 47.61309325695038 72.13446237146854 L 43.73205304145813 66.00585132837296"/>
  <line class="GlobalId-2G6a7Z3Z535x85Eg_0AOLr IfcAnnotation PredefinedType-DIMENSION" x1="81.10331726074219" x2="111.10331726074219" y1="38.55104064941406" y2="38.5510368347168"/>
  <text dominant-baseline="baseline" style="font-size: 0;" text-anchor="middle" transform="translate(96.10331726074219, 37.55104064941406) rotate(-7.285535494650533e-06)">
    <tspan class="DIMENSION" dy="0em" x="0" y="0">600</tspan>
  </text>
  <path class="GlobalId-3cld65JaTElRJYmwZgPp1C IfcAnnotation PredefinedType-isolatiePIR" d="M 81.10331743955612 72.00585156679153 L 81.10331706702709 66.00585132837296 L 111.1033171415329 66.00584834814072 L 111.10332012176514 72.00584802776575 L 81.10331743955612 72.00585156679153"/>
  <line class="GlobalId-2fLbMDIyjDMwT0cq7Lu7Om IfcAnnotation PredefinedType-LINEWORK dashed22" x1="0.41147470474243164" x2="151.795166015625" y1="58.00585174560547" y2="58.00585174560547"/>
  <line class="GlobalId-2fLbMDIyjDMwT0cq7Lu7Om IfcAnnotation PredefinedType-LINEWORK dashed22" x1="0.41147470474243164" x2="151.795166015625" y1="63.50585174560547" y2="63.50585174560547"/>
  <line class="GlobalId-2fLbMDIyjDMwT0cq7Lu7Om IfcAnnotation PredefinedType-LINEWORK dashed22" x1="83.82830810546875" x2="83.82830810546875" y1="66.00585174560547" y2="63.50585174560547"/>
  <line class="GlobalId-2fLbMDIyjDMwT0cq7Lu7Om IfcAnnotation PredefinedType-LINEWORK dashed22" x1="84.57830810546875" x2="84.57830810546875" y1="66.00585174560547" y2="63.50585174560547"/>
  <line class="GlobalId-2fLbMDIyjDMwT0cq7Lu7Om IfcAnnotation PredefinedType-LINEWORK dashed22" x1="93.82830810546875" x2="93.82830810546875" y1="66.00585174560547" y2="63.50585174560547"/>
  <line class="GlobalId-2fLbMDIyjDMwT0cq7Lu7Om IfcAnnotation PredefinedType-LINEWORK dashed22" x1="94.57830810546875" x2="94.57830810546875" y1="66.00585174560547" y2="63.50585174560547"/>
  <line class="GlobalId-2fLbMDIyjDMwT0cq7Lu7Om IfcAnnotation PredefinedType-LINEWORK dashed22" x1="103.82830810546875" x2="103.82830810546875" y1="66.00585174560547" y2="63.50585174560547"/>
  <line class="GlobalId-2fLbMDIyjDMwT0cq7Lu7Om IfcAnnotation PredefinedType-LINEWORK dashed22" x1="104.57830810546875" x2="104.57830810546875" y1="66.00585174560547" y2="63.50585174560547"/>
  <line class="GlobalId-2fLbMDIyjDMwT0cq7Lu7Om IfcAnnotation PredefinedType-LINEWORK dashed22" x1="113.82831573486328" x2="113.82831573486328" y1="66.00585174560547" y2="63.50585174560547"/>
  <line class="GlobalId-2fLbMDIyjDMwT0cq7Lu7Om IfcAnnotation PredefinedType-LINEWORK dashed22" x1="114.57830810546875" x2="114.57830810546875" y1="66.00585174560547" y2="63.50585174560547"/>
  <line class="GlobalId-2fLbMDIyjDMwT0cq7Lu7Om IfcAnnotation PredefinedType-LINEWORK dashed22" x1="123.82831573486328" x2="123.82831573486328" y1="66.00585174560547" y2="63.50585174560547"/>
  <line class="GlobalId-2fLbMDIyjDMwT0cq7Lu7Om IfcAnnotation PredefinedType-LINEWORK dashed22" x1="124.57830810546875" x2="124.57830810546875" y1="66.00585174560547" y2="63.50585174560547"/>
  <line class="GlobalId-2fLbMDIyjDMwT0cq7Lu7Om IfcAnnotation PredefinedType-LINEWORK dashed22" x1="133.8283233642578" x2="133.8283233642578" y1="66.00585174560547" y2="63.50585174560547"/>
  <line class="GlobalId-2fLbMDIyjDMwT0cq7Lu7Om IfcAnnotation PredefinedType-LINEWORK dashed22" x1="134.57830810546875" x2="134.57830810546875" y1="66.00585174560547" y2="63.50585174560547"/>
  <line class="GlobalId-2fLbMDIyjDMwT0cq7Lu7Om IfcAnnotation PredefinedType-LINEWORK dashed22" x1="73.82830047607422" x2="73.82830047607422" y1="66.00585174560547" y2="63.50585174560547"/>
  <line class="GlobalId-2fLbMDIyjDMwT0cq7Lu7Om IfcAnnotation PredefinedType-LINEWORK dashed22" x1="74.57830047607422" x2="74.57830047607422" y1="66.00585174560547" y2="63.50585174560547"/>
  <line class="GlobalId-2fLbMDIyjDMwT0cq7Lu7Om IfcAnnotation PredefinedType-LINEWORK dashed22" x1="63.82830047607422" x2="63.82830047607422" y1="66.00585174560547" y2="63.50585174560547"/>
  <line class="GlobalId-2fLbMDIyjDMwT0cq7Lu7Om IfcAnnotation PredefinedType-LINEWORK dashed22" x1="64.57829284667969" x2="64.57829284667969" y1="66.00585174560547" y2="63.50585174560547"/>
  <line class="GlobalId-2fLbMDIyjDMwT0cq7Lu7Om IfcAnnotation PredefinedType-LINEWORK dashed22" x1="53.82830047607422" x2="53.82830047607422" y1="66.00585174560547" y2="63.50585174560547"/>
  <line class="GlobalId-2fLbMDIyjDMwT0cq7Lu7Om IfcAnnotation PredefinedType-LINEWORK dashed22" x1="54.57829284667969" x2="54.57829284667969" y1="66.00585174560547" y2="63.50585174560547"/>
  <line class="GlobalId-2fLbMDIyjDMwT0cq7Lu7Om IfcAnnotation PredefinedType-LINEWORK dashed22" x1="43.82830047607422" x2="43.82830047607422" y1="66.00585174560547" y2="63.50585174560547"/>
  <line class="GlobalId-2fLbMDIyjDMwT0cq7Lu7Om IfcAnnotation PredefinedType-LINEWORK dashed22" x1="44.57829284667969" x2="44.57829284667969" y1="66.00585174560547" y2="63.50585174560547"/>
  <line class="GlobalId-2fLbMDIyjDMwT0cq7Lu7Om IfcAnnotation PredefinedType-LINEWORK dashed22" x1="33.82830047607422" x2="33.82830047607422" y1="66.00585174560547" y2="63.50585174560547"/>
  <line class="GlobalId-2fLbMDIyjDMwT0cq7Lu7Om IfcAnnotation PredefinedType-LINEWORK dashed22" x1="34.57829284667969" x2="34.57829284667969" y1="66.00585174560547" y2="63.50585174560547"/>
  <line class="GlobalId-2fLbMDIyjDMwT0cq7Lu7Om IfcAnnotation PredefinedType-LINEWORK dashed22" x1="23.828298568725586" x2="23.828298568725586" y1="66.00585174560547" y2="63.50585174560547"/>
  <line class="GlobalId-2fLbMDIyjDMwT0cq7Lu7Om IfcAnnotation PredefinedType-LINEWORK dashed22" x1="24.578290939331055" x2="24.578290939331055" y1="66.00585174560547" y2="63.50585174560547"/>
  <line class="GlobalId-2fLbMDIyjDMwT0cq7Lu7Om IfcAnnotation PredefinedType-LINEWORK dashed22" x1="13.828301429748535" x2="13.828301429748535" y1="66.00585174560547" y2="63.50585174560547"/>
  <line class="GlobalId-2fLbMDIyjDMwT0cq7Lu7Om IfcAnnotation PredefinedType-LINEWORK dashed22" x1="14.57829475402832" x2="14.57829475402832" y1="66.00585174560547" y2="63.50585174560547"/>
  <line class="GlobalId-3RUTrWIrjFpx6VO4UDNpNP IfcAnnotation PredefinedType-LINEWORK" x1="41.67801284790039" x2="42.29075241088867" y1="76.81523132324219" y2="74.06534576416016"/>
  <line class="GlobalId-3RUTrWIrjFpx6VO4UDNpNP IfcAnnotation PredefinedType-LINEWORK" x1="42.29075241088867" x2="41.31952667236328" y1="74.06534576416016" y2="71.42072296142578"/>
  <line class="GlobalId-3RUTrWIrjFpx6VO4UDNpNP IfcAnnotation PredefinedType-LINEWORK" x1="41.31952667236328" x2="39.07268524169922" y1="71.42072296142578" y2="69.72100830078125"/>
  <line class="GlobalId-3RUTrWIrjFpx6VO4UDNpNP IfcAnnotation PredefinedType-LINEWORK" x1="39.07268524169922" x2="36.26358413696289" y1="69.72100830078125" y2="69.50585174560547"/>
  <line class="GlobalId-3RUTrWIrjFpx6VO4UDNpNP IfcAnnotation PredefinedType-LINEWORK" x1="36.26358413696289" x2="33.78409957885742" y1="69.50585174560547" y2="70.84356689453125"/>
  <line class="GlobalId-3RUTrWIrjFpx6VO4UDNpNP IfcAnnotation PredefinedType-LINEWORK" x1="33.78409957885742" x2="32.42144775390625" y1="70.84356689453125" y2="73.30943298339844"/>
  <line class="GlobalId-3RUTrWIrjFpx6VO4UDNpNP IfcAnnotation PredefinedType-LINEWORK" x1="32.42144775390625" x2="32.60825729370117" y1="73.30943298339844" y2="76.12055206298828"/>
  <line class="GlobalId-3RUTrWIrjFpx6VO4UDNpNP IfcAnnotation PredefinedType-LINEWORK" x1="32.60825729370117" x2="34.285221099853516" y1="76.12055206298828" y2="78.38442993164062"/>
  <line class="GlobalId-3RUTrWIrjFpx6VO4UDNpNP IfcAnnotation PredefinedType-LINEWORK" x1="34.285221099853516" x2="36.91991424560547" y1="78.38442993164062" y2="79.38228607177734"/>
  <line class="GlobalId-3RUTrWIrjFpx6VO4UDNpNP IfcAnnotation PredefinedType-LINEWORK" x1="36.91991424560547" x2="39.675838470458984" y1="79.38228607177734" y2="78.79730987548828"/>
  <line class="GlobalId-3RUTrWIrjFpx6VO4UDNpNP IfcAnnotation PredefinedType-LINEWORK" x1="41.67801284790039" x2="39.675838470458984" y1="76.81523132324219" y2="78.79730987548828"/>
  <line class="GlobalId-3RUTrWIrjFpx6VO4UDNpNP IfcAnnotation PredefinedType-LINEWORK" x1="40.764244079589844" x2="41.24904251098633" y1="76.3102798461914" y2="74.13456726074219"/>
  <line class="GlobalId-3RUTrWIrjFpx6VO4UDNpNP IfcAnnotation PredefinedType-LINEWORK" x1="41.24904251098633" x2="40.48060607910156" y1="74.13456726074219" y2="72.04215240478516"/>
  <line class="GlobalId-3RUTrWIrjFpx6VO4UDNpNP IfcAnnotation PredefinedType-LINEWORK" x1="40.48060607910156" x2="38.702911376953125" y1="72.04215240478516" y2="70.69733428955078"/>
  <line class="GlobalId-3RUTrWIrjFpx6VO4UDNpNP IfcAnnotation PredefinedType-LINEWORK" x1="38.702911376953125" x2="36.4803581237793" y1="70.69733428955078" y2="70.52710723876953"/>
  <line class="GlobalId-3RUTrWIrjFpx6VO4UDNpNP IfcAnnotation PredefinedType-LINEWORK" x1="36.4803581237793" x2="34.518592834472656" y1="70.52710723876953" y2="71.58550262451172"/>
  <line class="GlobalId-3RUTrWIrjFpx6VO4UDNpNP IfcAnnotation PredefinedType-LINEWORK" x1="34.518592834472656" x2="33.44046401977539" y1="71.58550262451172" y2="73.53649139404297"/>
  <line class="GlobalId-3RUTrWIrjFpx6VO4UDNpNP IfcAnnotation PredefinedType-LINEWORK" x1="33.44046401977539" x2="33.58826446533203" y1="73.53649139404297" y2="75.76065063476562"/>
  <line class="GlobalId-3RUTrWIrjFpx6VO4UDNpNP IfcAnnotation PredefinedType-LINEWORK" x1="33.58826446533203" x2="34.915077209472656" y1="75.76065063476562" y2="77.55182647705078"/>
  <line class="GlobalId-3RUTrWIrjFpx6VO4UDNpNP IfcAnnotation PredefinedType-LINEWORK" x1="34.915077209472656" x2="36.99964141845703" y1="77.55182647705078" y2="78.34132385253906"/>
  <line class="GlobalId-3RUTrWIrjFpx6VO4UDNpNP IfcAnnotation PredefinedType-LINEWORK" x1="36.99964141845703" x2="39.18012619018555" y1="78.34132385253906" y2="77.87849426269531"/>
  <line class="GlobalId-3RUTrWIrjFpx6VO4UDNpNP IfcAnnotation PredefinedType-LINEWORK" x1="40.764244079589844" x2="39.18012619018555" y1="76.3102798461914" y2="77.87849426269531"/>
  <path class="GlobalId-3WEuRdFCv0zB$0JV1ry8W3 IfcAnnotation PredefinedType-black" d="M 80.60331791639328 66.00585132837296 L 81.10331781208515 66.00585132837296 L 81.10331781208515 145.70738077163696 L 80.60331791639328 145.70738077163696 L 80.60331791639328 66.00585132837296"/>
  <path class="GlobalId-0tQvEynw966xCbRDro0byr IfcAnnotation PredefinedType-black" d="M 75.60331746935844 66.00585132837296 L 76.10331755131483 66.00585132837296 L 76.10331755131483 145.70738077163696 L 75.60331746935844 145.70738077163696 L 75.60331746935844 66.00585132837296"/>
  <line class="GlobalId-1xd$mGaxb6zBSo2lZ5y$Qm IfcAnnotation PredefinedType-LINEWORK" x1="138.15707397460938" x2="138.7698211669922" y1="76.81523132324219" y2="74.06534576416016"/>
  <line class="GlobalId-1xd$mGaxb6zBSo2lZ5y$Qm IfcAnnotation PredefinedType-LINEWORK" x1="138.7698211669922" x2="137.79859924316406" y1="74.06534576416016" y2="71.42072296142578"/>
  <line class="GlobalId-1xd$mGaxb6zBSo2lZ5y$Qm IfcAnnotation PredefinedType-LINEWORK" x1="137.79859924316406" x2="135.5517578125" y1="71.42072296142578" y2="69.72100830078125"/>
  <line class="GlobalId-1xd$mGaxb6zBSo2lZ5y$Qm IfcAnnotation PredefinedType-LINEWORK" x1="135.5517578125" x2="132.74266052246094" y1="69.72100830078125" y2="69.50585174560547"/>
  <line class="GlobalId-1xd$mGaxb6zBSo2lZ5y$Qm IfcAnnotation PredefinedType-LINEWORK" x1="132.74266052246094" x2="130.26316833496094" y1="69.50585174560547" y2="70.84356689453125"/>
  <line class="GlobalId-1xd$mGaxb6zBSo2lZ5y$Qm IfcAnnotation PredefinedType-LINEWORK" x1="130.26316833496094" x2="128.9005126953125" y1="70.84356689453125" y2="73.3094253540039"/>
  <line class="GlobalId-1xd$mGaxb6zBSo2lZ5y$Qm IfcAnnotation PredefinedType-LINEWORK" x1="128.9005126953125" x2="129.0873260498047" y1="73.3094253540039" y2="76.12055206298828"/>
  <line class="GlobalId-1xd$mGaxb6zBSo2lZ5y$Qm IfcAnnotation PredefinedType-LINEWORK" x1="129.0873260498047" x2="130.76429748535156" y1="76.12055206298828" y2="78.38442993164062"/>
  <line class="GlobalId-1xd$mGaxb6zBSo2lZ5y$Qm IfcAnnotation PredefinedType-LINEWORK" x1="130.76429748535156" x2="133.39898681640625" y1="78.38442993164062" y2="79.38228607177734"/>
  <line class="GlobalId-1xd$mGaxb6zBSo2lZ5y$Qm IfcAnnotation PredefinedType-LINEWORK" x1="133.39898681640625" x2="136.1549072265625" y1="79.38228607177734" y2="78.79730987548828"/>
  <line class="GlobalId-1xd$mGaxb6zBSo2lZ5y$Qm IfcAnnotation PredefinedType-LINEWORK" x1="138.15707397460938" x2="136.1549072265625" y1="76.81523132324219" y2="78.79730987548828"/>
  <line class="GlobalId-1xd$mGaxb6zBSo2lZ5y$Qm IfcAnnotation PredefinedType-LINEWORK" x1="137.24331665039062" x2="137.72811889648438" y1="76.3102798461914" y2="74.13456726074219"/>
  <line class="GlobalId-1xd$mGaxb6zBSo2lZ5y$Qm IfcAnnotation PredefinedType-LINEWORK" x1="137.72811889648438" x2="136.9596710205078" y1="74.13456726074219" y2="72.04215240478516"/>
  <line class="GlobalId-1xd$mGaxb6zBSo2lZ5y$Qm IfcAnnotation PredefinedType-LINEWORK" x1="136.9596710205078" x2="135.18197631835938" y1="72.04215240478516" y2="70.69733428955078"/>
  <line class="GlobalId-1xd$mGaxb6zBSo2lZ5y$Qm IfcAnnotation PredefinedType-LINEWORK" x1="135.18197631835938" x2="132.9594268798828" y1="70.69733428955078" y2="70.52710723876953"/>
  <line class="GlobalId-1xd$mGaxb6zBSo2lZ5y$Qm IfcAnnotation PredefinedType-LINEWORK" x1="132.9594268798828" x2="130.99765014648438" y1="70.52710723876953" y2="71.58550262451172"/>
  <line class="GlobalId-1xd$mGaxb6zBSo2lZ5y$Qm IfcAnnotation PredefinedType-LINEWORK" x1="130.99765014648438" x2="129.91952514648438" y1="71.58550262451172" y2="73.53649139404297"/>
  <line class="GlobalId-1xd$mGaxb6zBSo2lZ5y$Qm IfcAnnotation PredefinedType-LINEWORK" x1="129.91952514648438" x2="130.0673370361328" y1="73.53649139404297" y2="75.76065063476562"/>
  <line class="GlobalId-1xd$mGaxb6zBSo2lZ5y$Qm IfcAnnotation PredefinedType-LINEWORK" x1="130.0673370361328" x2="131.39414978027344" y1="75.76065063476562" y2="77.55182647705078"/>
  <line class="GlobalId-1xd$mGaxb6zBSo2lZ5y$Qm IfcAnnotation PredefinedType-LINEWORK" x1="131.39414978027344" x2="133.4787139892578" y1="77.55182647705078" y2="78.34132385253906"/>
  <line class="GlobalId-1xd$mGaxb6zBSo2lZ5y$Qm IfcAnnotation PredefinedType-LINEWORK" x1="133.4787139892578" x2="135.65919494628906" y1="78.34132385253906" y2="77.87849426269531"/>
  <line class="GlobalId-1xd$mGaxb6zBSo2lZ5y$Qm IfcAnnotation PredefinedType-LINEWORK" x1="137.24331665039062" x2="135.65919494628906" y1="76.3102798461914" y2="77.87849426269531"/>
  <path class="GlobalId-1YLInIwX17PwQ9PTxgDRKX IfcAnnotation PredefinedType-isolatie" d="M 76.10331773757935 66.00585132837296 L 80.60331791639328 66.00585132837296 L 80.60331791639328 145.70738077163696 L 76.10331773757935 145.70738077163696 L 76.10331773757935 66.00585132837296"/>
  <text dominant-baseline="baseline" style="font-size: 0;" text-anchor="end" transform="translate(55.60332107543945, 94.43083953857422) rotate(-0.0)">
    <tspan class="GlobalId-1Lrs0wV_T3dQYhIinNZD4Y IfcAnnotation PredefinedType-TEXT" dy="0em" x="0" y="0">21 graden</tspan>
  </text>
  <text dominant-baseline="baseline" style="font-size: 0;" text-anchor="start" transform="translate(49.808170318603516, 78.46721649169922) rotate(-0.0)">
    <tspan class="GlobalId-320ujiFILF8P2C7nhQNvJn IfcAnnotation PredefinedType-TEXT" dy="0em" x="0" y="0">3</tspan>
  </text>
  <text dominant-baseline="baseline" style="font-size: 0;" text-anchor="start" transform="translate(101.10331726074219, 94.43083953857422) rotate(-0.0)">
    <tspan class="GlobalId-0$Ymp2BKL1JgWnk6xD0CDn IfcAnnotation PredefinedType-TEXT" dy="0em" x="0" y="0">6 graden</tspan>
  </text>
  <text dominant-baseline="baseline" style="font-size: 0;" text-anchor="start" transform="translate(107.916259765625, 75.96720886230469) rotate(-0.0)">
    <tspan class="GlobalId-1Y$sY7phH0lxdLOG96bcUX IfcAnnotation PredefinedType-TEXT" dy="0em" x="0" y="0">1</tspan>
  </text>
  <text dominant-baseline="baseline" style="font-size: 0;" text-anchor="start" transform="translate(81.90118408203125, 54.29171371459961) rotate(-0.0)">
    <tspan class="GlobalId-21agGQoc15lx2tesqI7UFU IfcAnnotation PredefinedType-TEXT" dy="0em" x="0" y="0">2</tspan>
  </text>
  <path class="GlobalId-3XAlnD5ST6JAnYmXKSvv3g IfcAnnotation PredefinedType-isolatiePUR" d="M 87.67800629138947 60.15698164701462 L 88.65014910697937 61.20689660310745 L 88.06686252355576 62.21792697906494 L 87.87242770195007 63.50585073232651 L 84.63973626494408 63.50585073232651 L 84.63973626494408 66.00585132837296 L 83.82830768823624 66.00585132837296 L 83.8283084332943 63.50585073232651 L 81.80624842643738 63.50585073232651 L 79.90085743367672 62.52901256084442 L 80.28971552848816 60.81804037094116 L 78.96760255098343 60.1958692073822 L 79.74531725049019 58.71821045875549 L 81.76736235618591 58.00585150718689 L 85.69481372833252 58.00585150718689 L 87.52245903015137 58.99040997028351 L 87.67800629138947 60.15698164701462"/>
  <path class="GlobalId-1Mi_cNYKz24RlPDzhlP7sQ IfcAnnotation PredefinedType-blank" d="M 52.47456729412079 155.59430122375488 L 109.2668205499649 155.59430122375488 L 109.2668205499649 118.09429824352264 L 52.47456729412079 118.09429824352264 L 52.47456729412079 155.59430122375488"/>
  <path class="GlobalId-0rj0d6QEb3K8RUYmg$IQkJ IfcAnnotation PredefinedType-blank" d="M -40.559107065200806 78.61379384994507 L 16.233140230178833 78.61379384994507 L 16.233140230178833 41.11379086971283 L -40.559107065200806 41.11379086971283 L -40.559107065200806 78.61379384994507"/>
  <path class="GlobalId-103oFX_hH6$O6mBj$oX0GM IfcAnnotation PredefinedType-blank" d="M 142.90794730186462 81.50303810834885 L 199.70019459724426 81.50303810834885 L 199.70019459724426 44.00303363800049 L 142.90794730186462 44.00303363800049 L 142.90794730186462 81.50303810834885"/>
  <line class="GlobalId-1i07Hc6215cgcsrl7f2eBa IfcAnnotation PredefinedType-LINEWORK breakline" x1="89.60331726074219" x2="67.10331726074219" y1="118.09429931640625" y2="118.09429931640625"/>
  <line class="GlobalId-0VFIL0iZv2_eAtrqMmeTZS IfcAnnotation PredefinedType-LINEWORK breakline" x1="16.23314094543457" x2="16.23314094543457" y1="72.00585174560547" y2="49.5058479309082"/>
  <line class="GlobalId-2EzkL9s5b6J8bywJeg8cEa IfcAnnotation PredefinedType-LINEWORK breakline" x1="142.907958984375" x2="142.907958984375" y1="72.00585174560547" y2="49.5058479309082"/>
</svg>
