<svg xmlns="http://www.w3.org/2000/svg" xmlns:xlink="http://www.w3.org/1999/xlink" xmlns:ifc="http://www.ifcopenshell.org/ns" width="200mm" height="200mm" viewBox="0 0 200 200">
    <defs>
        <marker id="arrowend" markerWidth="10" markerHeight="7" refX="10" refY="3.5" orient="auto">
          <polygon points="0 0, 10 3.5, 0 7"/>
        </marker>
        <marker id="arrowstart" markerWidth="10" markerHeight="7" refX="0" refY="3.5" orient="auto">
          <polygon points="10 0, 0 3.5, 10 7"/>
        </marker>
    </defs>
    <g ifc:name="Elevation BWK_detail_3D_1_10" class="section" ifc:plane="[[1.000000,0.000000,0.000000,0.000000],[0.000000,1.000000,0.000000,0.000000],[0.000000,0.000000,1.000000,0.000000],[0.000000,0.000000,0.000000,1.000000]]" ifc:matrix3="[[100.000001,0.000000,80.000011],[0.000000,100.000001,40.000015],[0.000000,0.000000,1.000000]]">
        <g id="product-8f1b571e-1ab6-428d-ac22-869257c874cb" class="IfcPile material-null projection" ifc:name="FP_220_Type_1" ifc:guid="2F6rSU6hP2ZQmYXf9No7JB">
            <path d="M61.9999,165 L61.9999,2398"/>
            <path d="M61.9999,2398 L83.9999,2398"/>
            <path d="M83.9999,2398 L83.9999,165"/>
            <path d="M61.9999,165 L83.9999,165"/>
        </g>
        <g id="product-2de96125-daa6-4473-85a5-751c95fe6f49" class="IfcSlab material-gewapendbetontpg projection" ifc:name="beton_200" ifc:guid="0jwM4bsgP4SuMbTHoL$cz9">
            <path d="M79.9999,47 L79.9999,67"/>
            <path d="M79.9999,67 L380,67"/>
            <path d="M380,67 L380,47"/>
            <path d="M79.9999,47 L380,47"/>
        </g>
        <g id="product-bdd2c04b-301b-437f-b5b4-c152c73b62ad" class="IfcSlab material-ongewapendbeton projection" ifc:name="dekvloer_70.001" ifc:guid="2zqi1BC1j3VxMqmLB7EsAj">
            <path d="M380,47 L89,47"/>
            <path d="M380,40 L380,47"/>
            <path d="M380,40 L89,40"/>
            <path d="M89,47 L89,40"/>
        </g>
        <g id="product-e006a622-80c5-4895-9be0-c8a07689d7fd" class="IfcWall material-naaldhoutvurenCLT projection" ifc:name="CLT90" ifc:guid="3W1gOYWCL8bPlWoA1sYTVz">
            <path d="M380,-259.434 L89,-259.434"/>
            <path d="M380,47.5664 L380,47.5664"/>
            <path d="M380,47.5664 L380,-259.434"/>
        </g>
        <g id="product-a8256432-6506-4059-9c01-fe484e21e762" class="IfcWall material-naaldhoutvurenCLT projection" ifc:name="CLT90.001" ifc:guid="2e9MGoPGP0MPm1$aXE8UTY">
            <path d="M89,47 L80,47"/>
            <path d="M89,-260 L89,47"/>
            <path d="M89,-260 L80,-260"/>
            <path d="M80,47 L80,-260"/>
        </g>
        <g id="product-24151b66-b605-46df-8c23-cdb722960a7c" class="IfcWall material-metselwerkbaksteenrood projection" ifc:name="MW100" ifc:guid="0a5HjcjWL6tumZpRSYbWfy">
            <path d="M66,115 L56,115"/>
            <path d="M66,-260 L66,115"/>
            <path d="M66,-260 L56,-260"/>
            <path d="M56,115 L56,-260"/>
        </g>
        <g id="product-2f725bfd-1d36-4b75-a58d-cc5b9a1b49ab" class="IfcWall material-isolatie projection" ifc:name="ISO100" ifc:guid="0lSblz7JPBTQMDp5kQ6qch">
            <path d="M80,115 L70,115"/>
            <path d="M80,-260 L80,115"/>
            <path d="M80,-260 L70,-260"/>
            <path d="M70,115 L70,-260"/>
        </g>
        <g id="product-2ad1db50-db1f-4814-b6d5-3055f193edfc" class="IfcWall material-metselwerkbaksteenrood projection" ifc:name="MW100" ifc:guid="0gqTjGsnz85BRLC5Nna_ty">
            <path d="M90,115 L80,115"/>
            <path d="M90,67 L90,115"/>
            <path d="M90,67 L80,67"/>
            <path d="M80,115 L80,67"/>
        </g>
    <g ifc:guid="0Mu_oMfm52hvAVMsNs635_" ifc:name="Example Space" class="IfcSpace material-null cut"><path d="M88.99996727705002,-175.411057472229 L88.99996727705002,39.99999761581421 L297.9490041732788,39.99999761581421 L380.0002336502075,39.99999761581421 L380.0002336502075,-44.58878040313721 L380.0002336502075,-259.9999189376831 L297.9490041732788,-259.9999189376831 L88.99996727705002,-259.9999189376831 Z"/></g><g class="IfcSlab 0jwM4bsgP4SuMbTHoL$cz9 cut material-gewapendbetontpg"><path d="M380.0001382827759,46.99999690055847 L291.4865732192993,46.99999690055847 L79.99991029500961,46.99999690055847 L79.99991029500961,52.90089249610901 L79.99991029500961,66.99999570846558 L168.51345896720886,66.99999570846558 L380.0001382827759,66.99999570846558 L380.0001382827759,61.0990971326828 Z"/></g><g class="IfcSlab cut material-ongewapendbeton 2zqi1BC1j3VxMqmLB7EsAj"><path d="M380.0001859664917,39.99999761581421 L297.948956489563,39.99999761581421 L88.99994939565659,39.99999761581421 L88.99994939565659,45.026254653930664 L88.99994939565659,46.99999690055847 L171.0511863231659,46.99999690055847 L380.0001859664917,46.99999690055847 L380.0001859664917,41.97373390197754 Z"/></g><g class="material-naaldhoutvurenCLT IfcWall 2e9MGoPGP0MPm1$aXE8UTY cut"><path d="M88.99996876716614,-260.00003814697266 L86.54078543186188,-260.00003814697266 L79.99996840953827,-260.00003814697266 L79.99996840953827,-36.88546419143677 L79.99996840953827,46.99999690055847 L82.45915174484253,46.99999690055847 L88.99996876716614,46.99999690055847 L88.99996876716614,-176.1145830154419 Z"/></g><g class="cut 0gqTjGsnz85BRLC5Nna_ty 0a5HjcjWL6tumZpRSYbWfy IfcWall material-metselwerkbaksteenrood"><path d="M62.527334690093994,-260.00003814697266 L55.99997639656067,-260.00003814697266 L55.99997639656067,-15.224039554595947 L55.99997639656067,114.99999016523361 L59.472617506980896,114.99999016523361 L65.99997878074646,114.99999016523361 L65.99997878074646,-129.7760009765625 L65.99997878074646,-260.00003814697266 Z"/></g><g class="cut 0gqTjGsnz85BRLC5Nna_ty 0a5HjcjWL6tumZpRSYbWfy IfcWall material-metselwerkbaksteenrood"><path d="M82.95160830020905,66.99999570846558 L79.99996840953827,66.99999570846558 L79.99996840953827,81.16785734891891 L79.99996840953827,114.99997228384018 L82.95160830020905,114.99997228384018 L89.99996855854988,114.99997228384018 L89.99996855854988,100.83211585879326 L89.99996855854988,66.99999570846558 Z"/></g><g class="cut material-isolatie IfcWall 0lSblz7JPBTQMDp5kQ6qch"><path d="M79.99996691942215,-260.00003814697266 L76.82210952043533,-260.00003814697266 L69.99996900558472,-260.00003814697266 L69.99996900558472,-4.169678688049316 L69.99996900558472,114.99999016523361 L73.17782640457153,114.99999016523361 L79.99996691942215,114.99999016523361 L79.99996691942215,-140.8303737640381 Z"/></g><g id="product-ab85943e-e372-43ef-ad25-cad109981d3f" class="IfcBeam material-gewapendbetontpg projection" ifc:name="BB 400x500" ifc:guid="2hXPG_ut93xwqboj49c1q$">
            <path d="M52.9999,165 L92.9999,165"/>
            <path d="M92.9999,165 L92.9999,115"/>
            <path d="M92.9999,115 L52.9999,115"/>
            <path d="M52.9999,115 L52.9999,165"/>
        </g>
        <g ifc:guid="2hXPG_ut93xwqboj49c1q$" ifc:name="BB 400x500" class="IfcBeam material-gewapendbetontpg cut"><path d="M92.99988150596619,164.99998569488525 L92.99988150596619,132.66260027885437 L92.99988150596619,114.99998420476913 L67.1299695968628,114.99998420476913 L52.9998779296875,114.99998420476913 L52.9998779296875,147.33737707138062 L52.9998779296875,164.99998569488525 L78.86979132890701,164.99998569488525 Z"/></g><path d="M88.99996727705002,-175.411057472229 L88.99996727705002,39.99999761581421 L297.9490041732788,39.99999761581421 L380.0002336502075,39.99999761581421 L380.0002336502075,-44.58878040313721 L380.0002336502075,-259.9999189376831 L297.9490041732788,-259.9999189376831 L88.99996727705002,-259.9999189376831 Z" class="IfcSpace material-null"/></g>
</svg>