<svg xmlns="http://www.w3.org/2000/svg" xmlns:xlink="http://www.w3.org/1999/xlink" xmlns:ifc="http://www.ifcopenshell.org/ns" width="250mm" height="199.865mm" viewBox="0 0 250 199.865">
    <defs>
        <marker id="arrowend" markerWidth="10" markerHeight="7" refX="10" refY="3.5" orient="auto">
          <polygon points="0 0, 10 3.5, 0 7"/>
        </marker>
        <marker id="arrowstart" markerWidth="10" markerHeight="7" refX="0" refY="3.5" orient="auto">
          <polygon points="10 0, 0 3.5, 10 7"/>
        </marker>
    </defs>
    <g ifc:name="Elevation CON_renvooi_palenplan" class="section" ifc:plane="[[1.000000,0.000000,0.000000,0.000000],[0.000000,1.000000,0.000000,0.000000],[0.000000,0.000000,1.000000,0.000000],[0.000000,0.000000,0.000000,1.000000]]" ifc:matrix3="[[10.000000,0.000000,502.202911],[0.000000,10.000000,-296.002031],[0.000000,0.000000,1.000000]]">
        <g id="product-4ad6e9ca-260c-453e-a71f-84095950c1c4" class="IfcBuildingElementProxy material-null projection" ifc:name="Type 2" ifc:guid="1ArkdA9Wn5FgSVX0bPKC74">
            <path d="M28.5607,157.534 L28.5607,157.9"/>
            <path d="M28.5607,157.534 L28.5607,157.9"/>
            <path d="M26.3607,156.8 L27.4607,156.8"/>
            <path d="M26.3607,156.8 L27.4607,156.8"/>
            <path d="M28.9274,157.9 L29.2941,157.9"/>
            <path d="M28.9274,157.9 L29.2941,157.9"/>
            <path d="M30.7607,156.8 L29.6607,156.8"/>
            <path d="M30.7607,156.8 L29.6607,156.8"/>
            <path d="M28.5607,155.7 L29.6607,155.7"/>
            <path d="M29.6607,155.7 L28.5607,155.7"/>
            <path d="M29.2941,157.9 L29.6607,157.534"/>
            <path d="M29.2941,157.9 L29.6607,157.534"/>
            <path d="M28.9274,157.9 L28.5607,157.9"/>
            <path d="M28.9274,157.9 L28.5607,157.9"/>
            <path d="M28.9274,156.8 L29.2941,156.8"/>
            <path d="M28.9274,156.8 L29.2941,156.8"/>
            <path d="M28.9274,157.9 L29.6607,157.167"/>
            <path d="M28.9274,157.9 L29.6607,157.167"/>
            <path d="M28.9274,156.8 L28.5607,156.8"/>
            <path d="M28.9274,156.8 L28.5607,156.8"/>
            <path d="M28.5607,157.9 L29.6607,156.8"/>
            <path d="M28.5607,157.9 L29.6607,156.8"/>
            <path d="M28.1941,156.8 L28.5607,156.8"/>
            <path d="M28.1941,156.8 L28.5607,156.8"/>
            <path d="M27.4607,156.8 L27.4607,156.434"/>
            <path d="M27.4607,156.8 L27.4607,156.434"/>
            <path d="M28.5607,157.534 L29.2941,156.8"/>
            <path d="M28.5607,157.534 L29.2941,156.8"/>
            <path d="M28.5607,157.9 L27.4607,157.9"/>
            <path d="M27.4607,157.9 L28.5607,157.9"/>
            <path d="M28.1941,156.8 L27.8274,156.8"/>
            <path d="M28.1941,156.8 L27.8274,156.8"/>
            <path d="M27.4607,156.434 L27.4607,156.067"/>
            <path d="M27.4607,156.434 L27.4607,156.067"/>
            <path d="M28.9274,156.8 L28.5607,157.167"/>
            <path d="M28.9274,156.8 L28.5607,157.167"/>
            <path d="M27.8274,156.8 L27.4607,156.8"/>
            <path d="M27.8274,156.8 L27.4607,156.8"/>
            <path d="M27.4607,155.7 L27.4607,156.067"/>
            <path d="M27.4607,155.7 L27.4607,156.067"/>
            <path d="M28.1941,156.8 L28.5607,156.434"/>
            <path d="M28.1941,156.8 L28.5607,156.434"/>
            <path d="M28.5607,157.534 L28.5607,157.167"/>
            <path d="M28.5607,157.534 L28.5607,157.167"/>
            <path d="M29.2941,157.9 L29.6607,157.9"/>
            <path d="M29.2941,157.9 L29.6607,157.9"/>
            <path d="M27.8274,156.8 L28.5607,156.067"/>
            <path d="M27.8274,156.8 L28.5607,156.067"/>
            <path d="M29.6607,157.167 L29.6607,156.8"/>
            <path d="M29.6607,157.167 L29.6607,156.8"/>
            <path d="M28.5607,157.167 L28.5607,156.8"/>
            <path d="M28.5607,157.167 L28.5607,156.8"/>
            <path d="M29.6607,155.7 L29.6607,156.8"/>
            <path d="M29.6607,156.8 L29.6607,155.7"/>
            <path d="M27.4607,156.8 L28.5607,155.7"/>
            <path d="M27.4607,156.8 L28.5607,155.7"/>
            <path d="M29.6607,157.167 L29.6607,157.534"/>
            <path d="M29.6607,157.167 L29.6607,157.534"/>
            <path d="M28.5607,156.8 L28.5607,156.434"/>
            <path d="M28.5607,156.8 L28.5607,156.434"/>
            <path d="M27.4607,155.7 L27.8274,155.7"/>
            <path d="M27.4607,155.7 L27.8274,155.7"/>
            <path d="M27.4607,156.434 L28.1941,155.7"/>
            <path d="M27.4607,156.434 L28.1941,155.7"/>
            <path d="M29.6607,157.534 L29.6607,157.9"/>
            <path d="M29.6607,157.534 L29.6607,157.9"/>
            <path d="M28.5607,156.434 L28.5607,156.067"/>
            <path d="M28.5607,156.434 L28.5607,156.067"/>
            <path d="M27.4607,157.9 L27.4607,156.8"/>
            <path d="M27.4607,156.8 L27.4607,157.9"/>
            <path d="M27.4607,156.067 L27.8274,155.7"/>
            <path d="M27.4607,156.067 L27.8274,155.7"/>
            <path d="M27.8274,155.7 L28.1941,155.7"/>
            <path d="M27.8274,155.7 L28.1941,155.7"/>
            <path d="M28.5607,156.067 L28.5607,155.7"/>
            <path d="M28.5607,156.067 L28.5607,155.7"/>
            <path d="M28.5607,159 L28.5607,157.9"/>
            <path d="M28.5607,157.9 L28.5607,159"/>
            <path d="M28.1941,155.7 L28.5607,155.7"/>
            <path d="M28.1941,155.7 L28.5607,155.7"/>
            <path d="M29.6607,156.8 L29.2941,156.8"/>
            <path d="M29.2941,156.8 L29.6607,156.8"/>
            <path d="M28.5607,154.6 L28.5607,155.7"/>
            <path d="M28.5607,154.6 L28.5607,155.7"/>
        </g>
        <g id="product-bc5258d9-8f15-4d3b-bd64-1d107cbecd33" class="IfcBuildingElementProxy material-null projection" ifc:name="Type 1" ifc:guid="2yKbZPZnLDExra7H1yliqp">
            <path d="M30.7607,144.3 L29.6607,144.3"/>
            <path d="M30.7607,144.3 L29.6607,144.3"/>
            <path d="M29.6607,143.934 L29.6607,143.567"/>
            <path d="M29.6607,143.934 L29.6607,143.567"/>
            <path d="M28.9274,143.2 L28.5607,143.2"/>
            <path d="M28.9274,143.2 L28.5607,143.2"/>
            <path d="M28.9274,143.2 L28.5607,143.567"/>
            <path d="M28.9274,143.2 L28.5607,143.567"/>
            <path d="M27.8274,143.2 L28.1941,143.2"/>
            <path d="M27.8274,143.2 L28.1941,143.2"/>
            <path d="M27.8274,144.3 L28.1941,144.3"/>
            <path d="M27.8274,144.3 L28.1941,144.3"/>
            <path d="M29.6607,144.3 L29.6607,143.934"/>
            <path d="M29.6607,144.3 L29.6607,143.934"/>
            <path d="M28.5607,143.2 L27.4607,144.3"/>
            <path d="M28.5607,143.2 L27.4607,144.3"/>
            <path d="M28.5607,142.1 L28.5607,143.2"/>
            <path d="M28.5607,142.1 L28.5607,143.2"/>
            <path d="M27.8274,144.3 L27.4607,144.3"/>
            <path d="M27.8274,144.3 L27.4607,144.3"/>
            <path d="M29.6607,143.2 L28.5607,144.3"/>
            <path d="M29.6607,143.2 L28.5607,144.3"/>
            <path d="M28.9274,143.2 L29.2941,143.2"/>
            <path d="M28.9274,143.2 L29.2941,143.2"/>
            <path d="M28.5607,144.3 L28.9274,144.3"/>
            <path d="M28.5607,144.3 L28.9274,144.3"/>
            <path d="M28.5607,143.567 L28.5607,143.934"/>
            <path d="M28.5607,143.567 L28.5607,143.934"/>
            <path d="M27.4607,143.2 L27.8274,143.2"/>
            <path d="M27.4607,143.2 L27.8274,143.2"/>
            <path d="M27.4607,143.2 L27.4607,143.567"/>
            <path d="M27.4607,143.2 L27.4607,143.567"/>
            <path d="M29.6607,143.2 L29.2941,143.2"/>
            <path d="M29.6607,143.2 L29.2941,143.2"/>
            <path d="M28.1941,143.2 L28.5607,143.2"/>
            <path d="M28.1941,143.2 L28.5607,143.2"/>
            <path d="M28.1941,144.3 L28.5607,143.934"/>
            <path d="M28.1941,144.3 L28.5607,143.934"/>
            <path d="M27.4607,143.567 L27.4607,143.934"/>
            <path d="M27.4607,143.567 L27.4607,143.934"/>
            <path d="M28.5607,144.3 L28.5607,143.934"/>
            <path d="M28.5607,144.3 L28.5607,143.934"/>
            <path d="M29.6607,144.3 L29.2941,144.3"/>
            <path d="M29.6607,144.3 L29.2941,144.3"/>
            <path d="M29.6607,143.2 L29.6607,143.567"/>
            <path d="M29.6607,143.2 L29.6607,143.567"/>
            <path d="M27.8274,144.3 L28.5607,143.567"/>
            <path d="M27.8274,144.3 L28.5607,143.567"/>
            <path d="M27.4607,143.567 L27.8274,143.2"/>
            <path d="M27.8274,143.2 L27.4607,143.567"/>
            <path d="M26.3607,144.3 L27.4607,144.3"/>
            <path d="M26.3607,144.3 L27.4607,144.3"/>
            <path d="M27.4607,143.934 L27.4607,144.3"/>
            <path d="M27.4607,143.934 L27.4607,144.3"/>
            <path d="M29.6607,144.3 L29.6607,145.4"/>
            <path d="M29.6607,145.4 L29.6607,144.3"/>
            <path d="M27.4607,143.934 L28.1941,143.2"/>
            <path d="M28.1941,143.2 L27.4607,143.934"/>
            <path d="M29.6607,145.4 L28.5607,145.4"/>
            <path d="M28.5607,145.4 L29.6607,145.4"/>
            <path d="M28.1941,144.3 L28.5607,144.3"/>
            <path d="M28.1941,144.3 L28.5607,144.3"/>
            <path d="M28.5607,145.4 L28.5607,144.3"/>
            <path d="M28.5607,144.3 L28.5607,145.4"/>
            <path d="M28.5607,143.567 L28.5607,143.2"/>
            <path d="M28.5607,143.2 L28.5607,143.567"/>
            <path d="M28.5607,146.5 L28.5607,145.4"/>
            <path d="M28.5607,145.4 L28.5607,146.5"/>
            <path d="M29.2941,144.3 L28.9274,144.3"/>
            <path d="M29.2941,144.3 L28.9274,144.3"/>
            <path d="M29.2941,143.2 L28.5607,143.934"/>
            <path d="M28.5607,143.934 L29.2941,143.2"/>
            <path d="M29.2941,144.3 L29.6607,143.934"/>
            <path d="M29.6607,143.934 L29.2941,144.3"/>
            <path d="M27.4607,145.4 L27.4607,144.3"/>
            <path d="M27.4607,144.3 L27.4607,145.4"/>
            <path d="M28.9274,144.3 L29.6607,143.567"/>
            <path d="M29.6607,143.567 L28.9274,144.3"/>
            <path d="M28.5607,145.4 L27.4607,145.4"/>
            <path d="M27.4607,145.4 L28.5607,145.4"/>
        </g>
    </g>
</svg>