<svg xmlns="http://www.w3.org/2000/svg" xmlns:xlink="http://www.w3.org/1999/xlink" xmlns:ifc="http://www.ifcopenshell.org/ns" width="1000mm" height="1000mm" viewBox="0 0 1000 1000">
    <defs>
        <marker id="arrowend" markerWidth="10" markerHeight="7" refX="10" refY="3.5" orient="auto">
          <polygon points="0 0, 10 3.5, 0 7"/>
        </marker>
        <marker id="arrowstart" markerWidth="10" markerHeight="7" refX="0" refY="3.5" orient="auto">
          <polygon points="10 0, 0 3.5, 10 7"/>
        </marker>
    </defs>
    <g ifc:name="Elevation CON_details_2D_verticaal" class="section" ifc:plane="[[1.000000,0.000000,0.000000,0.000000],[0.000000,1.000000,0.000000,0.000000],[0.000000,0.000000,1.000000,0.000000],[0.000000,0.000000,0.000000,1.000000]]" ifc:matrix3="[[100.000001,0.000000,10233.958645],[0.000000,100.000001,876.614574],[0.000000,0.000000,1.000000]]">
        <g id="product-a4e9e5c9-9101-4e6d-9e47-1ee13832566d" class="IfcWall material-NEN471metselwerkbaksteen projection" ifc:name="MW140.001" ifc:guid="2awUN9aG5ERPv77k4uCbPj">
            <path d="M178.137,548.615 L164.137,548.615"/>
            <path d="M178.137,398.615 L178.137,548.615"/>
            <path d="M178.137,398.615 L164.137,398.615"/>
            <path d="M164.137,548.615 L164.137,548.581"/>
            <path d="M164.137,548.068 L164.137,547.876"/>
            <path d="M164.137,547.547 L164.137,398.615"/>
        </g>
        <g id="product-a6ff7e3a-8735-44ea-9614-a3b5df5fc926" class="IfcWall material-NEN471metselwerkbaksteen projection" ifc:name="MW140" ifc:guid="2c$tuwXpL4wfOKexNVNyac">
            <path d="M178.137,726.615 L164.137,726.615"/>
            <path d="M178.137,576.615 L178.137,726.615"/>
            <path d="M178.137,576.615 L164.137,576.615"/>
            <path d="M164.137,726.615 L164.137,576.615"/>
        </g>
        <g id="product-2fa96c15-3547-4437-b865-1f5b8c498f81" class="IfcSlab material-naaldhoutvurenCLT projection" ifc:name="CLT150" ifc:guid="0lgMmLDKT4DxXb7rkCIO_1">
            <path d="M164.137,571.615 L64.1366,571.615"/>
            <path d="M64.1366,586.615 L64.1366,571.615"/>
            <path d="M164.137,586.615 L64.1366,586.615"/>
            <path d="M164.137,571.615 L164.137,586.615"/>
        </g>
        <g id="product-1220c328-813b-4bc5-9ce6-0f4f88128308" class="IfcBeam material-HEA260 projection" ifc:name="HEA260" ifc:guid="0I8CCeWJjBnPpc3q_84eC8">
            <path d="M151.137,571.115 L177.137,571.115"/>
            <path d="M177.137,571.115 L177.137,569.865"/>
            <path d="M177.137,569.865 L166.912,569.865"/>
            <path d="M165.993,569.682 L166.912,569.865"/>
            <path d="M165.215,569.162 L165.993,569.682"/>
            <path d="M164.694,568.383 L165.215,569.162"/>
            <path d="M164.512,567.465 L164.694,568.383"/>
            <path d="M164.512,567.465 L164.512,549.765"/>
            <path d="M164.694,548.846 L164.512,549.765"/>
            <path d="M165.215,548.068 L164.694,548.846"/>
            <path d="M165.993,547.547 L165.215,548.068"/>
            <path d="M166.912,547.365 L165.993,547.547"/>
            <path d="M166.912,547.365 L177.137,547.365"/>
            <path d="M177.137,547.365 L177.137,546.115"/>
            <path d="M177.137,546.115 L151.137,546.115"/>
            <path d="M151.137,546.115 L151.137,547.365"/>
            <path d="M151.137,547.365 L161.362,547.365"/>
            <path d="M162.28,547.547 L161.362,547.365"/>
            <path d="M163.059,548.068 L162.28,547.547"/>
            <path d="M163.579,548.846 L163.059,548.068"/>
            <path d="M163.762,549.765 L163.579,548.846"/>
            <path d="M163.762,549.765 L163.762,567.465"/>
            <path d="M163.579,568.383 L163.762,567.465"/>
            <path d="M163.059,569.162 L163.579,568.383"/>
            <path d="M162.28,569.682 L163.059,569.162"/>
            <path d="M161.362,569.865 L162.28,569.682"/>
            <path d="M161.362,569.865 L151.137,569.865"/>
            <path d="M151.137,569.865 L151.137,571.115"/>
        </g>
        <g id="product-e9e967ed-6f32-4b6e-b6b4-16164bdf7a07" class="IfcSlab material-gewapendbeton projection" ifc:name="Breedplaat 280" ifc:guid="3fwMVjRp9BRhQq5XPBtte7">
            <path d="M164.137,576.615 L352.185,576.615"/>
            <path d="M352.185,548.615 L352.185,576.615"/>
            <path d="M140.137,548.615 L163.424,548.615"/>
            <path d="M164.269,548.615 L352.185,548.615"/>
            <path d="M140.137,548.615 L140.137,571.615"/>
            <path d="M140.137,571.615 L164.137,571.615"/>
            <path d="M164.137,571.615 L164.137,576.615"/>
        </g>
    <g ifc:guid="0I8CCeWJjBnPpc3q_84eC8" ifc:name="HEA260" class="IfcBeam material-HEA260 cut"><path d="M177.13627815246582,570.7969605922699 L177.13627815246582,569.8646247386932 L174.5384693145752,569.8646247386932 L166.91136360168457,569.8646247386932 L166.51310920715332,569.8197543621063 L166.37730598449707,569.804447889328 L165.99888801574707,569.6720540523529 L165.86995124816895,569.6269452571869 L165.53120613098145,569.4136798381805 L165.41523933410645,569.3410098552704 L165.13142585754395,569.0575778484344 L165.0352954864502,568.9609944820404 L164.8216724395752,568.6215817928314 L164.74919319152832,568.5059487819672 L164.6172046661377,568.127578496933 L164.5714282989502,567.9986655712128 L164.52717781066895,567.6003396511078 L164.51191902160645,567.4646317958832 L164.51191902160645,562.966650724411 L164.51191902160645,549.7646301984787 L164.5561695098877,549.3662804365158 L164.5714282989502,549.2305725812912 L164.70417976379395,548.8522261381149 L164.74919319152832,548.7233132123947 L164.96281623840332,548.3839005231857 L165.0352954864502,548.2682436704636 L165.31834602355957,547.9848116636276 L165.41523933410645,547.8882282972336 L165.75474739074707,547.6749628782272 L165.86995124816895,547.6022928953171 L166.24836921691895,547.469899058342 L166.37730598449707,547.424790263176 L166.77556037902832,547.379919886589 L166.91136360168457,547.3646372556686 L169.50993537902832,547.3646372556686 L177.13627815246582,547.3646372556686 L177.13627815246582,547.0469683408737 L177.13627815246582,546.1146324872971 L170.52922248840332,546.1146324872971 L151.13682746887207,546.1146324872971 L151.13682746887207,546.4322775602341 L151.13682746887207,547.3646372556686 L153.7346363067627,547.3646372556686 L161.36174201965332,547.3646372556686 L161.75999641418457,547.4095076322556 L161.89579963684082,547.424790263176 L162.27421760559082,547.5571841001511 L162.40315437316895,547.6022928953171 L162.74266242980957,547.8155821561813 L162.85786628723145,547.8882282972336 L163.14167976379395,548.1716841459274 L163.2378101348877,548.2682436704636 L163.4514331817627,548.6076563596725 L163.52391242980957,548.7233132123947 L163.6559009552002,549.101659655571 L163.7016773223877,549.2305725812912 L163.74592781066895,549.6289223432541 L163.76118659973145,549.7646301984787 L163.76118659973145,554.2625844478607 L163.76118659973145,567.4646317958832 L163.7169361114502,567.8629577159882 L163.7016773223877,567.9986655712128 L163.56892585754395,568.377035856247 L163.52391242980957,568.5059487819672 L163.31028938293457,568.8453614711761 L163.2378101348877,568.9609944820404 L162.95475959777832,569.2444503307343 L162.85786628723145,569.3410098552704 L162.51835823059082,569.5542991161346 L162.40315437316895,569.6269452571869 L162.02473640441895,569.759339094162 L161.89579963684082,569.804447889328 L161.49754524230957,569.8493421077728 L161.36174201965332,569.8646247386932 L158.76317024230957,569.8646247386932 L151.13682746887207,569.8646247386932 L151.13682746887207,570.1822698116302 L151.13682746887207,571.1146295070648 L157.74388313293457,571.1146295070648 L177.13627815246582,571.1146295070648 Z"/></g><g class="material-NEN471metselwerkbaksteen IfcWall 2awUN9aG5ERPv77k4uCbPj cut 2c$tuwXpL4wfOKexNVNyac"><path d="M167.9893970489502,398.61459732055664 L164.13655281066895,398.61459732055664 L164.13655281066895,439.8931920528412 L164.13655281066895,548.6146181821823 L167.9893970489502,548.6146181821823 L178.1364917755127,548.6146181821823 L178.1364917755127,507.33601674437523 L178.1364917755127,398.61459732055664 Z"/></g><g class="material-NEN471metselwerkbaksteen IfcWall 2awUN9aG5ERPv77k4uCbPj cut 2c$tuwXpL4wfOKexNVNyac"><path d="M167.9893970489502,576.6146123409271 L164.13655281066895,576.6146123409271 L164.13655281066895,617.8932189941406 L164.13655281066895,726.6146183013916 L167.9893970489502,726.6146183013916 L178.1364917755127,726.6146183013916 L178.1364917755127,685.3360295295715 L178.1364917755127,576.6146123409271 Z"/></g><g class="material-naaldhoutvurenCLT cut IfcSlab 0lgMmLDKT4DxXb7rkCIO_1"><path d="M136.6173267364502,571.6146171092987 L64.13655281066895,571.6146171092987 L64.13655281066895,575.7424771785736 L64.13655281066895,586.6146266460419 L136.6173267364502,586.6146266460419 L164.13655281066895,586.6146266460419 L164.13655281066895,582.486766576767 L164.13655281066895,571.6146171092987 Z"/></g><g class="3fwMVjRp9BRhQq5XPBtte7 material-gewapendbeton cut IfcSlab"><path d="M352.1851062774658,564.0253007411957 L352.1851062774658,548.6146181821823 L256.8443775177002,548.6146181821823 L140.13676643371582,548.6146181821823 L140.13676643371582,561.2733781337738 L140.13676643371582,571.6146171092987 L153.34553718566895,571.6146171092987 L164.13655281066895,571.6146171092987 L164.13655281066895,574.3665158748627 L164.13655281066895,576.6146123409271 L267.6353931427002,576.6146123409271 L352.1851062774658,576.6146123409271 Z"/></g></g>
</svg>