<?xml version="1.0" encoding="utf-8" ?>
<svg xmlns="http://www.w3.org/2000/svg" xmlns:ev="http://www.w3.org/2001/xml-events" xmlns:ifc="http://www.ifcopenshell.org/ns" xmlns:xlink="http://www.w3.org/1999/xlink" baseProfile="full" data-scale="1:10" height="1000.0000953674316mm" id="root" version="1.1" viewBox="0 0 1000.0000953674316 1000.0000953674316" width="1000.0000953674316mm">
  <defs/>
  <path class="GlobalId-1R9vyTJAnDzeSidv4JJkVC IfcAnnotation PredefinedType-SECTIONLEVEL" d="M 700.0000610351562 556.6145629882812 L -299.99993896484375 556.6145629882812"/>
  <text dominant-baseline="baseline" style="font-size: 0;" text-anchor="start" transform="translate(700.0000610351562, 553.1145629882812) rotate(0.0)">
    <tspan class="SECTIONLEVEL" dy="-1em" x="0" y="0">1e Verdieping</tspan>
    <tspan class="SECTIONLEVEL" dy="0em" x="0" y="0">RL +3200</tspan>
  </text>
  <path class="GlobalId-2V4$qURt55teoKppT9wsYC IfcAnnotation PredefinedType-SECTIONLEVEL" d="M 700.0000610351562 951.6145629882812 L -299.99993896484375 951.6145629882812"/>
  <text dominant-baseline="baseline" style="font-size: 0;" text-anchor="start" transform="translate(700.0000610351562, 948.1145629882812) rotate(0.0)">
    <tspan class="SECTIONLEVEL" dy="-1em" x="0" y="0">Fundering</tspan>
    <tspan class="SECTIONLEVEL" dy="0em" x="0" y="0">RL -750</tspan>
  </text>
  <path class="GlobalId-1x4bwCiPbFzw7DgWBKo6Kq IfcAnnotation PredefinedType-afbreeklijn" d="M 233.63652229309082 476.0367840528488 L 233.63652229309082 226.03673934936523 L 108.63652229309082 226.03673934936523 L 108.63652229309082 476.0367840528488 L 233.63652229309082 476.0367840528488"/>
  <line class="GlobalId-2A4tgO7YP3Sx0C_GkODBVF IfcAnnotation PredefinedType-DIMENSION" x1="405.78466796875" x2="535.4652709960938" y1="767.002685546875" y2="767.002685546875"/>
  <text dominant-baseline="baseline" style="font-size: 0;" text-anchor="middle" transform="translate(470.6249694824219, 766.002685546875) rotate(0.0)">
    <tspan class="DIMENSION" dy="0em" x="0" y="0">1234</tspan>
  </text>
  <path class="GlobalId-31u54BUsn6ee7cd1GCORfz IfcAnnotation PredefinedType-afbreeklijn" d="M 293.61424446105957 338.0523681640625 L 543.6142444610596 338.0523204803467 L 543.6142444610596 213.0523681640625 L 293.61424446105957 213.0523681640625 L 293.61424446105957 338.0523681640625"/>
  <line class="GlobalId-0pQlQw2dD6PBrWSNGZjIoM IfcAnnotation PredefinedType-DIMENSION" x1="405.78466796875" x2="535.4652709960938" y1="716.1039428710938" y2="716.1039428710938"/>
  <text dominant-baseline="baseline" style="font-size: 0;" text-anchor="middle" transform="translate(470.6249694824219, 715.1039428710938) rotate(0.0)">
    <tspan class="DIMENSION" dy="0em" x="0" y="0">1297</tspan>
  </text>
  <path class="GlobalId-2Lr8gUU_L7rxUchOJmQKaR IfcAnnotation PredefinedType-SECTIONLEVEL" d="M 5521.5439453125 876.6145629882812 L 521.5439453125 876.6145629882812"/>
  <text dominant-baseline="baseline" style="font-size: 0;" text-anchor="start" transform="translate(5521.5439453125, 873.1145629882812) rotate(0.0)">
    <tspan class="SECTIONLEVEL" dy="-1em" x="0" y="0">Begane Grond</tspan>
    <tspan class="SECTIONLEVEL" dy="0em" x="0" y="0">RL -0</tspan>
  </text>
  <path class="GlobalId-2QZEF7xg5CQfrIY1ep98ZP IfcAnnotation PredefinedType-black" d="M 510.72545051574707 575.2083241939545 L 510.5949878692627 575.402969121933 L 510.5499744415283 575.6325900554657 L 510.5949878692627 575.8622109889984 L 510.72545051574707 576.0568559169769 L 510.92000007629395 576.1869132518768 L 511.14964485168457 576.2325942516327 L 511.3792896270752 576.1869132518768 L 511.57383918762207 576.0568559169769 L 511.70430183410645 575.8622109889984 L 511.7493152618408 575.6325900554657 L 511.70430183410645 575.402969121933 L 511.57383918762207 575.2083241939545 L 511.3792896270752 575.0782668590546 L 511.14964485168457 575.0325858592987 L 510.92000007629395 575.0782668590546 L 510.72545051574707 575.2083241939545"/>
  <path class="GlobalId-2QZEF7xg5CQfrIY1ep98ZP IfcAnnotation PredefinedType-black" d="M 596.7621326446533 575.8021295070648 L 596.9154834747314 575.8325755596161 L 597.0688343048096 575.8021295070648 L 597.1985340118408 575.7154166698456 L 597.284746170044 575.5856454372406 L 597.315263748169 575.4325807094574 L 597.284746170044 575.2795159816742 L 597.1985340118408 575.1497447490692 L 597.0688343048096 575.06303191185 L 596.9154834747314 575.0325858592987 L 596.7621326446533 575.06303191185 L 596.6324329376221 575.1497447490692 L 596.546220779419 575.2795159816742 L 596.515703201294 575.4325807094574 L 596.546220779419 575.5856454372406 L 596.6324329376221 575.7154166698456 L 596.7621326446533 575.8021295070648"/>
  <text dominant-baseline="baseline" style="font-size: 0;" text-anchor="start" transform="translate(168.82176208496094, 626.8143920898438) rotate(-0.0)">
    <tspan class="GlobalId-2HLIukGkT6t8viLO$GwPFf IfcAnnotation PredefinedType-TEXT" dy="0em" x="0" y="0">TEXT</tspan>
  </text>
  <text dominant-baseline="baseline" filter="url(#fill-background)" style="font-size: 0;" text-anchor="start" transform="translate(170.3133087158203, 642.79248046875) rotate(-0.0)">
    <tspan class="GlobalId-3SEX9Tr9LAYefOlUQZhy$W IfcAnnotation PredefinedType-TEXT fill-bg" dy="0em" x="0" y="0">\|KSJKfhskdjfksdf</tspan>
  </text>
  <text dominant-baseline="baseline" style="font-size: 0;" text-anchor="start" transform="translate(170.3133087158203, 642.79248046875) rotate(-0.0)">
    <tspan class="GlobalId-3SEX9Tr9LAYefOlUQZhy$W IfcAnnotation PredefinedType-TEXT fill-bg" dy="0em" x="0" y="0">\|KSJKfhskdjfksdf</tspan>
  </text>
  <line class="GlobalId-26BR8yCiv3GOHW0wzp4eU3 IfcAnnotation PredefinedType-LINEWORK" x1="596.3959350585938" x2="596.3959350585938" y1="607.6326293945312" y2="617.6326293945312"/>
  <line class="GlobalId-26BR8yCiv3GOHW0wzp4eU3 IfcAnnotation PredefinedType-LINEWORK" x1="596.3959350585938" x2="552.794677734375" y1="617.6326293945312" y2="617.6326293945312"/>
  <line class="GlobalId-26BR8yCiv3GOHW0wzp4eU3 IfcAnnotation PredefinedType-LINEWORK" x1="552.794677734375" x2="552.794677734375" y1="617.6326293945312" y2="575.4326171875"/>
  <line class="GlobalId-26BR8yCiv3GOHW0wzp4eU3 IfcAnnotation PredefinedType-LINEWORK" x1="552.794677734375" x2="596.7957153320312" y1="575.4326171875" y2="575.4326171875"/>
  <line class="GlobalId-26BR8yCiv3GOHW0wzp4eU3 IfcAnnotation PredefinedType-LINEWORK" x1="596.7957153320312" x2="596.7957153320312" y1="575.4326171875" y2="618.0325927734375"/>
  <line class="GlobalId-26BR8yCiv3GOHW0wzp4eU3 IfcAnnotation PredefinedType-LINEWORK" x1="596.7957153320312" x2="510.5950012207031" y1="618.0325927734375" y2="618.0325927734375"/>
  <line class="GlobalId-26BR8yCiv3GOHW0wzp4eU3 IfcAnnotation PredefinedType-LINEWORK" x1="510.5950012207031" x2="510.5950012207031" y1="618.0325927734375" y2="575.0325927734375"/>
  <line class="GlobalId-26BR8yCiv3GOHW0wzp4eU3 IfcAnnotation PredefinedType-LINEWORK" x1="510.5950012207031" x2="597.1954956054688" y1="575.0325927734375" y2="575.0325927734375"/>
  <line class="GlobalId-26BR8yCiv3GOHW0wzp4eU3 IfcAnnotation PredefinedType-LINEWORK" x1="597.1954956054688" x2="597.1954956054688" y1="575.0325927734375" y2="585.0325317382812"/>
  <path class="GlobalId-2c3iBZAQ5AR8IfEDNurKuT IfcAnnotation PredefinedType-blank" d="M 600.2953052520752 571.5326011180878 L 506.2950611114502 571.5326249599457 L 506.2950611114502 621.5326309204102 L 600.2953052520752 621.5326309204102 L 600.2953052520752 571.5326011180878"/>
  <path class="GlobalId-1AVM6zb3T0zuP1Ub9o$WcM IfcAnnotation PredefinedType-black" d="M 595.795488357544 617.6326274871826 L 596.0251331329346 617.5869703292847 L 596.2196826934814 617.4568891525269 L 596.3501453399658 617.2622442245483 L 596.3959217071533 617.0326232910156 L 596.3501453399658 616.8030261993408 L 596.2196826934814 616.6083812713623 L 596.0251331329346 616.4783000946045 L 595.795488357544 616.4326429367065 L 595.5658435821533 616.4783000946045 L 595.3712940216064 616.6083812713623 L 595.2415943145752 616.8030261993408 L 595.1958179473877 617.0326232910156 L 595.2415943145752 617.2622442245483 L 595.3712940216064 617.4568891525269 L 595.5658435821533 617.5869703292847 L 595.795488357544 617.6326274871826"/>
  <path class="GlobalId-1AVM6zb3T0zuP1Ub9o$WcM IfcAnnotation PredefinedType-black" d="M 511.99727058410645 596.8154847621918 L 512.0834827423096 596.6857135295868 L 512.1140003204346 596.5326488018036 L 512.0834827423096 596.3795840740204 L 511.99727058410645 596.2498128414154 L 511.8675708770752 596.1631000041962 L 511.71422004699707 596.1326539516449 L 511.56086921691895 596.1631000041962 L 511.4311695098877 596.2498128414154 L 511.34495735168457 596.3795840740204 L 511.31443977355957 596.5326488018036 L 511.34495735168457 596.6857135295868 L 511.4311695098877 596.8154847621918 L 511.56086921691895 596.902197599411 L 511.71422004699707 596.9326436519623 L 511.8675708770752 596.902197599411 L 511.99727058410645 596.8154847621918"/>
  <path class="GlobalId-1AVM6zb3T0zuP1Ub9o$WcM IfcAnnotation PredefinedType-black" d="M 512.4542713165283 575.8486211299896 L 512.323808670044 575.6539762020111 L 512.1292591094971 575.5238950252533 L 511.89961433410645 575.4782378673553 L 511.6699695587158 575.5238950252533 L 511.47541999816895 575.6539762020111 L 511.34495735168457 575.8486211299896 L 511.2999439239502 576.0782420635223 L 511.34495735168457 576.3078391551971 L 511.47541999816895 576.5025079250336 L 511.6699695587158 576.6325652599335 L 511.89961433410645 576.6782224178314 L 512.1292591094971 576.6325652599335 L 512.323808670044 576.5025079250336 L 512.4542713165283 576.3078391551971 L 512.4992847442627 576.0782420635223 L 512.4542713165283 575.8486211299896"/>
  <path class="GlobalId-1AVM6zb3T0zuP1Ub9o$WcM IfcAnnotation PredefinedType-black" d="M 511.6699695587158 617.5869703292847 L 511.89961433410645 617.6326274871826 L 512.1292591094971 617.5869703292847 L 512.323808670044 617.4568891525269 L 512.4542713165283 617.2622442245483 L 512.4992847442627 617.0326232910156 L 512.4542713165283 616.8030261993408 L 512.323808670044 616.6083812713623 L 512.1292591094971 616.4783000946045 L 511.89961433410645 616.4326429367065 L 511.6699695587158 616.4783000946045 L 511.47541999816895 616.6083812713623 L 511.34495735168457 616.8030261993408 L 511.2999439239502 617.0326232910156 L 511.34495735168457 617.2622442245483 L 511.47541999816895 617.4568891525269 L 511.6699695587158 617.5869703292847"/>
  <path class="GlobalId-1AVM6zb3T0zuP1Ub9o$WcM IfcAnnotation PredefinedType-black" d="M 596.2662220001221 596.902197599411 L 596.3959217071533 596.8154847621918 L 596.4821338653564 596.6857135295868 L 596.5126514434814 596.5326488018036 L 596.4821338653564 596.3795840740204 L 596.3959217071533 596.2498128414154 L 596.2662220001221 596.1631000041962 L 596.112871170044 596.1326539516449 L 595.9595203399658 596.1631000041962 L 595.8298206329346 596.2498128414154 L 595.7436084747314 596.3795840740204 L 595.7130908966064 596.5326488018036 L 595.7436084747314 596.6857135295868 L 595.8298206329346 596.8154847621918 L 595.9595203399658 596.902197599411 L 596.112871170044 596.9326436519623 L 596.2662220001221 596.902197599411"/>
  <path class="GlobalId-1AVM6zb3T0zuP1Ub9o$WcM IfcAnnotation PredefinedType-black" d="M 554.529619216919 576.6325652599335 L 554.7241687774658 576.5025079250336 L 554.8538684844971 576.3078391551971 L 554.8996448516846 576.0782420635223 L 554.8538684844971 575.8486211299896 L 554.7241687774658 575.6539762020111 L 554.529619216919 575.5238950252533 L 554.2999744415283 575.4782378673553 L 554.0703296661377 575.5238950252533 L 553.8750171661377 575.6539762020111 L 553.7453174591064 575.8486211299896 L 553.699541091919 576.0782420635223 L 553.7453174591064 576.3078391551971 L 553.8750171661377 576.5025079250336 L 554.0703296661377 576.6325652599335 L 554.2999744415283 576.6782224178314 L 554.529619216919 576.6325652599335"/>
  <path class="GlobalId-1AVM6zb3T0zuP1Ub9o$WcM IfcAnnotation PredefinedType-black" d="M 574.8993396759033 576.0782420635223 L 574.9451160430908 576.3078391551971 L 575.0755786895752 576.5025079250336 L 575.2701282501221 576.6325652599335 L 575.4997730255127 576.6782224178314 L 575.7294178009033 576.6325652599335 L 575.9239673614502 576.5025079250336 L 576.0536670684814 576.3078391551971 L 576.099443435669 576.0782420635223 L 576.0536670684814 575.8486211299896 L 575.9239673614502 575.6539762020111 L 575.7294178009033 575.5238950252533 L 575.4997730255127 575.4782378673553 L 575.2701282501221 575.5238950252533 L 575.0755786895752 575.6539762020111 L 574.9451160430908 575.8486211299896 L 574.8993396759033 576.0782420635223"/>
  <path class="GlobalId-1AVM6zb3T0zuP1Ub9o$WcM IfcAnnotation PredefinedType-black" d="M 532.6752185821533 576.5025079250336 L 532.8697681427002 576.6325652599335 L 533.0994129180908 576.6782224178314 L 533.3290576934814 576.6325652599335 L 533.5236072540283 576.5025079250336 L 533.6540699005127 576.3078391551971 L 533.6998462677002 576.0782420635223 L 533.6540699005127 575.8486211299896 L 533.5236072540283 575.6539762020111 L 533.3290576934814 575.5238950252533 L 533.0994129180908 575.4782378673553 L 532.8697681427002 575.5238950252533 L 532.6752185821533 575.6539762020111 L 532.5455188751221 575.8486211299896 L 532.4997425079346 576.0782420635223 L 532.5455188751221 576.3078391551971 L 532.6752185821533 576.5025079250336"/>
  <path class="GlobalId-1AVM6zb3T0zuP1Ub9o$WcM IfcAnnotation PredefinedType-black" d="M 574.9451160430908 616.8030261993408 L 574.8993396759033 617.0326232910156 L 574.9451160430908 617.2622442245483 L 575.0755786895752 617.4568891525269 L 575.2701282501221 617.5869703292847 L 575.4997730255127 617.6326274871826 L 575.7294178009033 617.5869703292847 L 575.9239673614502 617.4568891525269 L 576.0536670684814 617.2622442245483 L 576.099443435669 617.0326232910156 L 576.0536670684814 616.8030261993408 L 575.9239673614502 616.6083812713623 L 575.7294178009033 616.4783000946045 L 575.4997730255127 616.4326429367065 L 575.2701282501221 616.4783000946045 L 575.0755786895752 616.6083812713623 L 574.9451160430908 616.8030261993408"/>
  <path class="GlobalId-1AVM6zb3T0zuP1Ub9o$WcM IfcAnnotation PredefinedType-black" d="M 595.5498218536377 576.0325849056244 L 595.5955982208252 576.2621819972992 L 595.7252979278564 576.4568507671356 L 595.9198474884033 576.5869081020355 L 596.149492263794 576.6325652599335 L 596.3791370391846 576.5869081020355 L 596.5736865997314 576.4568507671356 L 596.7041492462158 576.2621819972992 L 596.7499256134033 576.0325849056244 L 596.7041492462158 575.8029639720917 L 596.5736865997314 575.6083190441132 L 596.3791370391846 575.4782378673553 L 596.149492263794 575.4325807094574 L 595.9198474884033 575.4782378673553 L 595.7252979278564 575.6083190441132 L 595.5955982208252 575.8029639720917 L 595.5498218536377 576.0325849056244"/>
  <path class="GlobalId-1AVM6zb3T0zuP1Ub9o$WcM IfcAnnotation PredefinedType-black" d="M 554.0703296661377 616.4783000946045 L 553.8750171661377 616.6083812713623 L 553.7453174591064 616.8030261993408 L 553.699541091919 617.0326232910156 L 553.7453174591064 617.2622442245483 L 553.8750171661377 617.4568891525269 L 554.0703296661377 617.5869703292847 L 554.2999744415283 617.6326274871826 L 554.529619216919 617.5869703292847 L 554.7241687774658 617.4568891525269 L 554.8538684844971 617.2622442245483 L 554.8996448516846 617.0326232910156 L 554.8538684844971 616.8030261993408 L 554.7241687774658 616.6083812713623 L 554.529619216919 616.4783000946045 L 554.2999744415283 616.4326429367065 L 554.0703296661377 616.4783000946045"/>
  <path class="GlobalId-1AVM6zb3T0zuP1Ub9o$WcM IfcAnnotation PredefinedType-black" d="M 532.6752185821533 617.4568891525269 L 532.8697681427002 617.5869703292847 L 533.0994129180908 617.6326274871826 L 533.3290576934814 617.5869703292847 L 533.5236072540283 617.4568891525269 L 533.6540699005127 617.2622442245483 L 533.6998462677002 617.0326232910156 L 533.6540699005127 616.8030261993408 L 533.5236072540283 616.6083812713623 L 533.3290576934814 616.4783000946045 L 533.0994129180908 616.4326429367065 L 532.8697681427002 616.4783000946045 L 532.6752185821533 616.6083812713623 L 532.5455188751221 616.8030261993408 L 532.4997425079346 617.0326232910156 L 532.5455188751221 617.2622442245483 L 532.6752185821533 617.4568891525269"/>
</svg>
