<?xml version="1.0" encoding="utf-8" ?>
<svg xmlns="http://www.w3.org/2000/svg" xmlns:ev="http://www.w3.org/2001/xml-events" xmlns:ifc="http://www.ifcopenshell.org/ns" xmlns:xlink="http://www.w3.org/1999/xlink" baseProfile="full" data-scale="1:10" height="1000.0000953674316mm" id="root" version="1.1" viewBox="0 0 1000.0000953674316 1000.0000953674316" width="1000.0000953674316mm">
  <defs/>
  <path class="GlobalId-0f8cLCFvv2nAroB_GpPZTS IfcAnnotation PredefinedType-isolatieEPS" d="M 390.87910652160645 200.76146125793457 L 400.87971687316895 200.76146125793457 L 400.87971687316895 260.7614994049072 L 310.8795642852783 260.7614994049072 L 310.8795642852783 200.76146125793457 L 320.8794116973877 200.76146125793457 L 320.8794116973877 250.76146125793457 L 390.87910652160645 250.76146125793457 L 390.87910652160645 200.76146125793457"/>
  <path class="GlobalId-0_PushMFj90Azky3Qs8KKy IfcAnnotation PredefinedType-gewapendbetonprefab" d="M 598.5672473907471 179.76136207580566 L 683.5670948028564 179.76136207580566 L 683.5670948028564 174.76143836975098 L 583.5670948028564 174.76143836975098 L 583.5670948028564 201.76148414611816 L 593.5669422149658 201.76148414611816 L 598.5672473907471 179.76136207580566"/>
  <path class="GlobalId-0KtN$VCwDFYPS03b9r$d8i IfcAnnotation PredefinedType-gewapendbetonprefab" d="M 360.8788013458252 200.76146125793457 L 460.8788013458252 200.76146125793457 L 460.8788013458252 180.7614803314209 L 360.8788013458252 180.7614803314209 L 360.8788013458252 200.76146125793457"/>
  <path class="GlobalId-1CweqYYWn9aOB72oIU6tPY IfcAnnotation PredefinedType-gewapendbeton" d="M 360.8788013458252 174.76143836975098 L 460.8788013458252 174.76143836975098 L 460.8788013458252 180.7614803314209 L 360.8788013458252 180.7614803314209 L 360.8788013458252 174.76143836975098"/>
  <line class="GlobalId-0UDSKO0k520xxMUQ8UeaWt IfcAnnotation PredefinedType-LINEWORK grey" x1="122.04060363769531" x2="122.04060363769531" y1="272.7615966796875" y2="232.76162719726562"/>
  <line class="GlobalId-0UDSKO0k520xxMUQ8UeaWt IfcAnnotation PredefinedType-LINEWORK grey" x1="136.04054260253906" x2="136.04054260253906" y1="272.7615966796875" y2="232.76162719726562"/>
  <path class="GlobalId-38mzHl_gnAovO4SuUvwg6q IfcAnnotation PredefinedType-gewapendbeton" d="M 198.04081916809082 180.7614803314209 L 98.04081916809082 180.7614803314209 L 98.04081916809082 197.76158332824707 L 198.04081916809082 197.76158332824707 L 198.04081916809082 180.7614803314209"/>
  <path class="GlobalId-0iAyL1JgfFNg1q$eRGm8$Y IfcAnnotation PredefinedType-NEN471metselwerkbaksteen" d="M 136.0405445098877 232.76162147521973 L 136.0405445098877 202.76169776916504 L 122.04060554504395 202.76169776916504 L 122.04060554504395 232.76162147521973 L 136.0405445098877 232.76162147521973"/>
  <path class="GlobalId-0iAyL1JgfFNg1q$eRGm8$Y IfcAnnotation PredefinedType-NEN471metselwerkbaksteen" d="M 136.0405445098877 98.76155853271484 L 136.0405445098877 174.76143836975098 L 122.04060554504395 174.76143836975098 L 122.04060554504395 98.76155853271484 L 136.0405445098877 98.76155853271484"/>
  <path class="GlobalId-0p_dVKJ7L71eZ6wMlpCope IfcAnnotation PredefinedType-gewapendbeton" d="M 555.567216873169 209.76147651672363 L 555.567216873169 256.76140785217285 L 590.5678272247314 256.76140785217285 L 590.5678272247314 209.76147651672363 L 555.567216873169 209.76147651672363"/>
  <path class="GlobalId-22rc$IT7T25x3GWoP8pDH3 IfcAnnotation PredefinedType-gewapendbetonprefab" d="M 122.04060554504395 197.79095649719238 L 198.04081916809082 197.79095649719238 L 198.04081916809082 202.79107093811035 L 122.04060554504395 202.79107093811035 L 122.04060554504395 197.79095649719238"/>
  <path class="GlobalId-0xDPcGnTf6qBi_J$LNv5I9 IfcAnnotation PredefinedType-PLANLEVEL" d="M 744.0834350585938 187.29490661621094 L 744.0834350585938 159.761474609375"/>
  <text dominant-baseline="baseline" style="font-size: 0;" text-anchor="start" transform="translate(744.0834350585938, 186.29490661621094) rotate(-90.00000250447816)">
    <tspan class="PLANLEVEL" dy="0em" x="0" y="0">+600</tspan>
  </text>
  <path class="GlobalId-0qFEiBTRr23exAEoC1cltl IfcAnnotation PredefinedType-isolatieEPS" d="M 400.87971687316895 210.76149940490723 L 460.8788013458252 210.76149940490723 L 460.8788013458252 200.76146125793457 L 400.87971687316895 200.76146125793457 L 400.87971687316895 210.76149940490723"/>
  <path class="GlobalId-1YSAMlx5TECh_SRAMD5QWR IfcAnnotation PredefinedType-naaldhoutvurenCLT" d="M 122.04060554504395 197.76158332824707 L 46.04039192199707 197.76158332824707 L 46.04039192199707 212.7615451812744 L 122.04060554504395 212.7615451812744 L 122.04060554504395 197.76158332824707"/>
  <line class="GlobalId-1LY44t5854EQFhGVGx969q IfcAnnotation PredefinedType-LINEWORK grey" x1="583.5670776367188" x2="565.5670776367188" y1="174.76144409179688" y2="174.76144409179688"/>
  <line class="GlobalId-1LY44t5854EQFhGVGx969q IfcAnnotation PredefinedType-LINEWORK grey" x1="555.5671997070312" x2="525.56689453125" y1="174.76144409179688" y2="174.76144409179688"/>
  <line class="GlobalId-1LY44t5854EQFhGVGx969q IfcAnnotation PredefinedType-LINEWORK grey" x1="555.5671997070312" x2="525.56689453125" y1="209.761474609375" y2="209.761474609375"/>
  <line class="GlobalId-1LY44t5854EQFhGVGx969q IfcAnnotation PredefinedType-LINEWORK grey" x1="555.5671997070312" x2="525.56689453125" y1="256.76141357421875" y2="256.76141357421875"/>
  <path class="GlobalId-0aO07NTQb0De44z6uL8ITH IfcAnnotation PredefinedType-isolatieEPS" d="M 593.5669422149658 201.76148414611816 L 583.5670948028564 201.76148414611816 L 583.5670948028564 209.76147651672363 L 683.5670948028564 209.76147651672363 L 683.5670948028564 179.76136207580566 L 598.5672473907471 179.76136207580566 L 593.5669422149658 201.76148414611816"/>
  <line class="GlobalId-30Wqp0C211w9U7$X1hggrF IfcAnnotation PredefinedType-SECTION" x1="-36.38987731933594" x2="963.3094482421875" y1="881.65625" y2="881.65625"/>
  <use transform="rotate(0.0, -36.38987731933594, 881.65625)" x="-36.38987731933594" xlink:href="#section-arrow" y="881.65625"/>
  <use x="-36.38987731933594" xlink:href="#section-tag" y="881.65625"/>
  <text class="SECTION" dominant-baseline="middle" text-anchor="middle" x="-36.38987731933594" y="879.15625">-</text>
  <text class="SECTION" dominant-baseline="middle" text-anchor="middle" x="-36.38987731933594" y="884.15625">-</text>
  <use transform="rotate(0.0, 963.3094482421875, 881.65625)" x="963.3094482421875" xlink:href="#section-arrow" y="881.65625"/>
  <use x="963.3094482421875" xlink:href="#section-tag" y="881.65625"/>
  <text class="SECTION" dominant-baseline="middle" text-anchor="middle" x="963.3094482421875" y="879.15625">-</text>
  <text class="SECTION" dominant-baseline="middle" text-anchor="middle" x="963.3094482421875" y="884.15625">-</text>
  <path class="GlobalId-2vx9kocif8sfDcsIPuiK0$ IfcAnnotation PredefinedType-gewapendbeton" d="M 98.04081916809082 174.76143836975098 L 198.04081916809082 174.76143836975098 L 198.04081916809082 180.7614803314209 L 98.04081916809082 180.7614803314209 L 98.04081916809082 174.76143836975098"/>
  <line class="GlobalId-3F3A5ysCH1JgSuVQ5cxq7b IfcAnnotation PredefinedType-LINEWORK hartlijn" x1="372.09326171875" x2="372.09326171875" y1="197.76148986816406" y2="108.89540100097656"/>
  <path class="GlobalId-1W3fO3RQP8uAPZXb1gW4qZ IfcAnnotation PredefinedType-metselwerkbaksteenrood" d="M 555.567216873169 209.76147651672363 L 555.567216873169 133.76164436340332 L 565.5670642852783 133.76164436340332 L 565.5670642852783 209.76147651672363 L 555.567216873169 209.76147651672363"/>
  <path class="GlobalId-3NHtgffDf35ujqHU6LRRwB IfcAnnotation PredefinedType-gewapendbeton" d="M 320.8794116973877 250.76146125793457 L 390.87910652160645 250.76146125793457 L 390.87910652160645 200.76146125793457 L 320.8794116973877 200.76146125793457 L 320.8794116973877 250.76146125793457"/>
  <path class="GlobalId-1BjTFbIffBA9LwDG9rTEcG IfcAnnotation PredefinedType-black" d="M 97.14055061340332 196.8616008758545 L 88.44075202941895 196.8616008758545 L 88.44075202941895 197.76158332824707 L 98.04081916809082 197.76158332824707 L 98.04081916809082 183.26153755187988 L 97.14055061340332 183.26153755187988 L 97.14055061340332 196.8616008758545"/>
  <path class="GlobalId-2we0ynUov4VffGPo_kOs2q IfcAnnotation PredefinedType-kalkzandsteen" d="M 593.5669422149658 133.76164436340332 L 593.5669422149658 174.76143836975098 L 583.5670948028564 174.76143836975098 L 583.5670948028564 133.76164436340332 L 593.5669422149658 133.76164436340332"/>
  <text dominant-baseline="middle" filter="url(#fill-background)" style="font-size: 0;" text-anchor="start" transform="translate(588.5673828125, 170.77383422851562) rotate(-90.00000250447816)">
    <tspan class="GlobalId-3t8f_SvHP2OhSbsX62g38c IfcAnnotation PredefinedType-TEXT fill-bg regular" dy="0em" x="0" y="0">kzst 100</tspan>
  </text>
  <text dominant-baseline="middle" style="font-size: 0;" text-anchor="start" transform="translate(588.5673828125, 170.77383422851562) rotate(-90.00000250447816)">
    <tspan class="GlobalId-3t8f_SvHP2OhSbsX62g38c IfcAnnotation PredefinedType-TEXT fill-bg regular" dy="0em" x="0" y="0">kzst 100</tspan>
  </text>
  <text dominant-baseline="middle" style="font-size: 0;" text-anchor="end" transform="translate(301.0948791503906, 255.50885009765625) rotate(-0.0)">
    <tspan class="GlobalId-0QFcn8GO5409yEA69K5SYU IfcAnnotation PredefinedType-TEXT small" dy="0em" x="0" y="0">5Ø16</tspan>
  </text>
  <text dominant-baseline="baseline" style="font-size: 0;" text-anchor="end" transform="translate(359.87860107421875, 174.76144409179688) rotate(-0.0)">
    <tspan class="GlobalId-03xOR9bH96kvcG7SoEYFwu IfcAnnotation PredefinedType-TEXT mini small" dy="0em" x="0" y="0">L60/6</tspan>
  </text>
  <text dominant-baseline="middle" style="font-size: 0;" text-anchor="end" transform="translate(357.3616638183594, 144.51947021484375) rotate(-90.00000250447816)">
    <tspan class="GlobalId-1PyWVGA6TFN8dA6AlAzd_a IfcAnnotation PredefinedType-TEXT mini small" dy="0em" x="0" y="0">strip 80x15</tspan>
  </text>
  <text dominant-baseline="middle" style="font-size: 0;" text-anchor="end" transform="translate(301.0948791503906, 235.59841918945312) rotate(-0.0)">
    <tspan class="GlobalId-2Ddvsmetr9ne5SZdpCfANK IfcAnnotation PredefinedType-TEXT small" dy="0em" x="0" y="0">2Ø8</tspan>
  </text>
  <text dominant-baseline="middle" style="font-size: 0;" text-anchor="end" transform="translate(301.0948791503906, 214.60813903808594) rotate(-0.0)">
    <tspan class="GlobalId-3OvZdulOrAKeQvkxBllCao IfcAnnotation PredefinedType-TEXT small" dy="0em" x="0" y="0">5Ø16</tspan>
  </text>
  <text dominant-baseline="middle" style="font-size: 0;" text-anchor="end" transform="translate(386.9217529296875, 144.51947021484375) rotate(-90.00000250447816)">
    <tspan class="GlobalId-3dUNS_4Tz3zuz_I45G2Khy IfcAnnotation PredefinedType-TEXT mini small" dy="0em" x="0" y="0">HEA240</tspan>
  </text>
  <text dominant-baseline="middle" style="font-size: 0;" text-anchor="start" transform="translate(393.8789978027344, 167.27357482910156) rotate(-0.0)">
    <tspan class="GlobalId-23FiRBhlb32PszLELt3clL IfcAnnotation PredefinedType-TEXT mini small" dy="0em" x="0" y="0">Kanaalplaatvloer D 200 mm </tspan>
    <tspan class="GlobalId-23FiRBhlb32PszLELt3clL IfcAnnotation PredefinedType-TEXT mini small" dy="1em" x="0" y="0">Druklaag D 60 mm</tspan>
  </text>
  <line class="GlobalId-0kxOJRtiDEeRZS8veAI7ki IfcAnnotation PredefinedType-LINEWORK" x1="98.04081726074219" x2="118.04051208496094" y1="185.26148986816406" y2="185.26148986816406"/>
  <line class="GlobalId-0kxOJRtiDEeRZS8veAI7ki IfcAnnotation PredefinedType-LINEWORK" x1="118.04051208496094" x2="118.04051208496094" y1="185.26148986816406" y2="193.76148986816406"/>
  <line class="GlobalId-0kxOJRtiDEeRZS8veAI7ki IfcAnnotation PredefinedType-LINEWORK" x1="118.04051208496094" x2="98.04081726074219" y1="193.76148986816406" y2="193.76148986816406"/>
  <line class="GlobalId-0kxOJRtiDEeRZS8veAI7ki IfcAnnotation PredefinedType-LINEWORK" x1="93.24040222167969" x2="93.24040222167969" y1="197.76158142089844" y2="207.76162719726562"/>
  <line class="GlobalId-1qTVzJe7D05uyFUTH43xlg IfcAnnotation PredefinedType-LINEWORK" x1="323.4795227050781" x2="323.4795227050781" y1="246.46153259277344" y2="204.6082000732422"/>
  <line class="GlobalId-1qTVzJe7D05uyFUTH43xlg IfcAnnotation PredefinedType-LINEWORK" x1="323.4795227050781" x2="342.472900390625" y1="204.6082000732422" y2="204.6082000732422"/>
  <line class="GlobalId-1qTVzJe7D05uyFUTH43xlg IfcAnnotation PredefinedType-LINEWORK" x1="324.09521484375" x2="324.09521484375" y1="219.6907501220703" y2="203.96142578125"/>
  <line class="GlobalId-1qTVzJe7D05uyFUTH43xlg IfcAnnotation PredefinedType-LINEWORK" x1="324.09521484375" x2="386.8790283203125" y1="203.96142578125" y2="203.96142578125"/>
  <line class="GlobalId-1qTVzJe7D05uyFUTH43xlg IfcAnnotation PredefinedType-LINEWORK" x1="386.8790283203125" x2="386.8790283203125" y1="203.96142578125" y2="246.46153259277344"/>
  <line class="GlobalId-1qTVzJe7D05uyFUTH43xlg IfcAnnotation PredefinedType-LINEWORK" x1="386.8790283203125" x2="323.4795227050781" y1="246.46153259277344" y2="246.46153259277344"/>
  <path class="GlobalId-1X5uS8mLb4HvBKNiQL0ToY IfcAnnotation PredefinedType-black black" d="M 324.4934558868408 204.01339530944824 L 324.18599128723145 203.9614200592041 L 323.88157844543457 204.03132438659668 L 323.6267566680908 204.21223640441895 L 323.4611988067627 204.47678565979004 L 323.4093189239502 204.78453636169434 L 323.4795093536377 205.08875846862793 L 323.6603260040283 205.34310340881348 L 323.9250659942627 205.50885200500488 L 324.23253059387207 205.56082725524902 L 324.53694343566895 205.49092292785645 L 324.79100227355957 205.31001091003418 L 324.9565601348877 205.0454616546631 L 325.0084400177002 204.7377109527588 L 324.9390125274658 204.4334888458252 L 324.7581958770752 204.17914390563965 L 324.4934558868408 204.01339530944824"/>
  <path class="GlobalId-1X5uS8mLb4HvBKNiQL0ToY IfcAnnotation PredefinedType-black black" d="M 386.3640308380127 204.0132999420166 L 386.0565662384033 203.9614200592041 L 385.75215339660645 204.03122901916504 L 385.4973316192627 204.2121410369873 L 385.33177375793457 204.4766902923584 L 385.27989387512207 204.7844409942627 L 385.35008430480957 205.0886631011963 L 385.5309009552002 205.34300804138184 L 385.79564094543457 205.50875663757324 L 386.10310554504395 205.56073188781738 L 386.4075183868408 205.4908275604248 L 386.66157722473145 205.30991554260254 L 386.82713508605957 205.04536628723145 L 386.87901496887207 204.73761558532715 L 386.8095874786377 204.43339347839355 L 386.62877082824707 204.179048538208 L 386.3640308380127 204.0132999420166"/>
  <path class="GlobalId-1X5uS8mLb4HvBKNiQL0ToY IfcAnnotation PredefinedType-black black" d="M 339.9437427520752 204.01339530944824 L 339.6355152130127 203.9614200592041 L 339.3311023712158 204.03132438659668 L 339.0770435333252 204.21223640441895 L 338.91148567199707 204.47678565979004 L 338.85960578918457 204.78453636169434 L 338.92903327941895 205.08875846862793 L 339.10984992980957 205.34310340881348 L 339.37458992004395 205.50885200500488 L 339.68281745910645 205.56082725524902 L 339.9864673614502 205.49092292785645 L 340.24128913879395 205.31001091003418 L 340.40684700012207 205.0454616546631 L 340.45872688293457 204.7377109527588 L 340.38853645324707 204.4334888458252 L 340.20771980285645 204.17914390563965 L 339.9437427520752 204.01339530944824"/>
  <path class="GlobalId-1X5uS8mLb4HvBKNiQL0ToY IfcAnnotation PredefinedType-black black" d="M 355.39326667785645 204.01339530944824 L 355.08580207824707 203.9614200592041 L 354.7813892364502 204.03132438659668 L 354.52733039855957 204.21223640441895 L 354.3610095977783 204.47678565979004 L 354.3091297149658 204.78453636169434 L 354.3793201446533 205.08875846862793 L 354.56013679504395 205.34310340881348 L 354.8248767852783 205.50885200500488 L 355.1323413848877 205.56082725524902 L 355.43675422668457 205.49092292785645 L 355.6908130645752 205.31001091003418 L 355.85713386535645 205.0454616546631 L 355.90901374816895 204.7377109527588 L 355.83882331848145 204.4334888458252 L 355.6580066680908 204.17914390563965 L 355.39326667785645 204.01339530944824"/>
  <path class="GlobalId-1X5uS8mLb4HvBKNiQL0ToY IfcAnnotation PredefinedType-black black" d="M 370.8435535430908 204.01339530944824 L 370.5353260040283 203.9614200592041 L 370.23167610168457 204.03132438659668 L 369.9768543243408 204.21223640441895 L 369.8112964630127 204.47678565979004 L 369.7594165802002 204.78453636169434 L 369.8296070098877 205.08875846862793 L 370.0104236602783 205.34310340881348 L 370.27440071105957 205.50885200500488 L 370.58262825012207 205.56082725524902 L 370.88704109191895 205.49092292785645 L 371.14109992980957 205.31001091003418 L 371.3066577911377 205.0454616546631 L 371.3585376739502 204.7377109527588 L 371.2891101837158 204.4334888458252 L 371.1082935333252 204.17914390563965 L 370.8435535430908 204.01339530944824"/>
  <path class="GlobalId-1X5uS8mLb4HvBKNiQL0ToY IfcAnnotation PredefinedType-black black" d="M 324.4934558868408 244.9141025543213 L 324.18599128723145 244.8622226715088 L 323.88157844543457 244.93203163146973 L 323.6267566680908 245.112943649292 L 323.4611988067627 245.3774929046631 L 323.4093189239502 245.68524360656738 L 323.4795093536377 245.98946571350098 L 323.6603260040283 246.24381065368652 L 323.9250659942627 246.40955924987793 L 324.23253059387207 246.46153450012207 L 324.53694343566895 246.3916301727295 L 324.79100227355957 246.21071815490723 L 324.9565601348877 245.94616889953613 L 325.0084400177002 245.63841819763184 L 324.9390125274658 245.33419609069824 L 324.7581958770752 245.0798511505127 L 324.4934558868408 244.9141025543213"/>
  <path class="GlobalId-1X5uS8mLb4HvBKNiQL0ToY IfcAnnotation PredefinedType-black black" d="M 386.3640308380127 244.91400718688965 L 386.0565662384033 244.8620319366455 L 385.75215339660645 244.9319362640381 L 385.4973316192627 245.11284828186035 L 385.33177375793457 245.37739753723145 L 385.27989387512207 245.68514823913574 L 385.35008430480957 245.98937034606934 L 385.5309009552002 246.24371528625488 L 385.79564094543457 246.4094638824463 L 386.10310554504395 246.46143913269043 L 386.4075183868408 246.39153480529785 L 386.66157722473145 246.2106227874756 L 386.82713508605957 245.9460735321045 L 386.87901496887207 245.6383228302002 L 386.8095874786377 245.3341007232666 L 386.62877082824707 245.07975578308105 L 386.3640308380127 244.91400718688965"/>
  <path class="GlobalId-1X5uS8mLb4HvBKNiQL0ToY IfcAnnotation PredefinedType-black black" d="M 339.9437427520752 244.9141025543213 L 339.6355152130127 244.8622226715088 L 339.3311023712158 244.93203163146973 L 339.0770435333252 245.112943649292 L 338.91148567199707 245.3774929046631 L 338.85960578918457 245.68524360656738 L 338.92903327941895 245.98946571350098 L 339.10984992980957 246.24381065368652 L 339.37458992004395 246.40955924987793 L 339.68281745910645 246.46153450012207 L 339.9864673614502 246.3916301727295 L 340.24128913879395 246.21071815490723 L 340.40684700012207 245.94616889953613 L 340.45872688293457 245.63841819763184 L 340.38853645324707 245.33419609069824 L 340.20771980285645 245.0798511505127 L 339.9437427520752 244.9141025543213"/>
  <path class="GlobalId-1X5uS8mLb4HvBKNiQL0ToY IfcAnnotation PredefinedType-black black" d="M 355.39326667785645 244.9141025543213 L 355.08580207824707 244.8622226715088 L 354.7813892364502 244.93203163146973 L 354.52733039855957 245.112943649292 L 354.3610095977783 245.3774929046631 L 354.3091297149658 245.68524360656738 L 354.3793201446533 245.98946571350098 L 354.56013679504395 246.24381065368652 L 354.8248767852783 246.40955924987793 L 355.1323413848877 246.46153450012207 L 355.43675422668457 246.3916301727295 L 355.6908130645752 246.21071815490723 L 355.85713386535645 245.94616889953613 L 355.90901374816895 245.63841819763184 L 355.83882331848145 245.33419609069824 L 355.6580066680908 245.0798511505127 L 355.39326667785645 244.9141025543213"/>
  <path class="GlobalId-1X5uS8mLb4HvBKNiQL0ToY IfcAnnotation PredefinedType-black black" d="M 370.8435535430908 244.9141025543213 L 370.5353260040283 244.8622226715088 L 370.23167610168457 244.93203163146973 L 369.9768543243408 245.112943649292 L 369.8112964630127 245.3774929046631 L 369.7594165802002 245.68524360656738 L 369.8296070098877 245.98946571350098 L 370.0104236602783 246.24381065368652 L 370.27440071105957 246.40955924987793 L 370.58262825012207 246.46153450012207 L 370.88704109191895 246.3916301727295 L 371.14109992980957 246.21071815490723 L 371.3066577911377 245.94616889953613 L 371.3585376739502 245.63841819763184 L 371.2891101837158 245.33419609069824 L 371.1082935333252 245.0798511505127 L 370.8435535430908 244.9141025543213"/>
  <path class="GlobalId-1X5uS8mLb4HvBKNiQL0ToY IfcAnnotation PredefinedType-black black" d="M 324.2126941680908 225.709867477417 L 324.0593433380127 225.68392753601074 L 323.9067554473877 225.7188320159912 L 323.78010749816895 225.80933570861816 L 323.6969470977783 225.9416103363037 L 323.67100715637207 226.09543800354004 L 323.7061023712158 226.24754905700684 L 323.79612922668457 226.37476921081543 L 323.9288806915283 226.45764350891113 L 324.08223152160645 226.48358345031738 L 324.23481941223145 226.4486789703369 L 324.3622303009033 226.35817527770996 L 324.4446277618408 226.2259006500244 L 324.47056770324707 226.0720729827881 L 324.4354724884033 225.9199619293213 L 324.34544563293457 225.7927417755127 L 324.2126941680908 225.709867477417"/>
  <path class="GlobalId-1X5uS8mLb4HvBKNiQL0ToY IfcAnnotation PredefinedType-black black" d="M 386.3213062286377 225.709867477417 L 386.16795539855957 225.68392753601074 L 386.01536750793457 225.7188320159912 L 385.8879566192627 225.80933570861816 L 385.8055591583252 225.9416103363037 L 385.77961921691895 226.09543800354004 L 385.8147144317627 226.24754905700684 L 385.90474128723145 226.37476921081543 L 386.0374927520752 226.45764350891113 L 386.1908435821533 226.48358345031738 L 386.3434314727783 226.4486789703369 L 386.47007942199707 226.35817527770996 L 386.5532398223877 226.2259006500244 L 386.57917976379395 226.0720729827881 L 386.5440845489502 225.9199619293213 L 386.45405769348145 225.7927417755127 L 386.3213062286377 225.709867477417"/>
  <line class="GlobalId-1C8Fq9HSvBvfVOvSN68mgA IfcAnnotation PredefinedType-LINEWORK dashed_2_2" x1="593.5669555664062" x2="593.5669555664062" y1="209.761474609375" y2="201.76148986816406"/>
  <line class="GlobalId-1C8Fq9HSvBvfVOvSN68mgA IfcAnnotation PredefinedType-LINEWORK dashed_2_2" x1="593.5669555664062" x2="583.5670776367188" y1="201.76148986816406" y2="209.761474609375"/>
  <line class="GlobalId-1C8Fq9HSvBvfVOvSN68mgA IfcAnnotation PredefinedType-LINEWORK dashed_2_2" x1="583.5670776367188" x2="593.5669555664062" y1="201.76148986816406" y2="209.761474609375"/>
  <line class="GlobalId-1C8Fq9HSvBvfVOvSN68mgA IfcAnnotation PredefinedType-LINEWORK dashed_2_2" x1="583.5670776367188" x2="583.5670776367188" y1="209.761474609375" y2="201.76148986816406"/>
  <line class="GlobalId-1C8Fq9HSvBvfVOvSN68mgA IfcAnnotation PredefinedType-LINEWORK dashed_2_2" x1="593.5669555664062" x2="583.5670776367188" y1="209.761474609375" y2="209.761474609375"/>
  <line class="GlobalId-1C8Fq9HSvBvfVOvSN68mgA IfcAnnotation PredefinedType-LINEWORK dashed_2_2" x1="593.5669555664062" x2="583.5670776367188" y1="201.76148986816406" y2="201.76148986816406"/>
  <line class="GlobalId-1MgIxFwDbFwh$Hfc310ms3 IfcAnnotation PredefinedType-LINEWORK dashed_2_2" x1="383.879150390625" x2="383.879150390625" y1="197.76148986816406" y2="174.76144409179688"/>
  <line class="GlobalId-1MgIxFwDbFwh$Hfc310ms3 IfcAnnotation PredefinedType-LINEWORK dashed_2_2" x1="360.8788146972656" x2="383.879150390625" y1="197.76148986816406" y2="197.76148986816406"/>
  <line class="GlobalId-1MgIxFwDbFwh$Hfc310ms3 IfcAnnotation PredefinedType-LINEWORK dashed_2_2" x1="360.8788146972656" x2="360.8788146972656" y1="174.76144409179688" y2="197.76148986816406"/>
  <line class="GlobalId-1MgIxFwDbFwh$Hfc310ms3 IfcAnnotation PredefinedType-LINEWORK dashed_2_2" x1="362.07891845703125" x2="362.07891845703125" y1="174.76144409179688" y2="196.26145935058594"/>
  <line class="GlobalId-1MgIxFwDbFwh$Hfc310ms3 IfcAnnotation PredefinedType-LINEWORK dashed_2_2" x1="382.6790466308594" x2="382.6790466308594" y1="196.26145935058594" y2="174.76144409179688"/>
  <line class="GlobalId-1MgIxFwDbFwh$Hfc310ms3 IfcAnnotation PredefinedType-LINEWORK dashed_2_2" x1="383.879150390625" x2="360.8788146972656" y1="196.26145935058594" y2="196.26145935058594"/>
  <line class="GlobalId-1MgIxFwDbFwh$Hfc310ms3 IfcAnnotation PredefinedType-LINEWORK dashed_2_2" x1="366.8785705566406" x2="366.8785705566406" y1="174.76144409179688" y2="174.16148376464844"/>
  <line class="GlobalId-1MgIxFwDbFwh$Hfc310ms3 IfcAnnotation PredefinedType-LINEWORK dashed_2_2" x1="361.5006103515625" x2="361.4784851074219" y1="173.35543823242188" y2="173.1614532470703"/>
  <line class="GlobalId-1MgIxFwDbFwh$Hfc310ms3 IfcAnnotation PredefinedType-LINEWORK dashed_2_2" x1="366.8785705566406" x2="362.47869873046875" y1="174.16148376464844" y2="174.16148376464844"/>
  <line class="GlobalId-1MgIxFwDbFwh$Hfc310ms3 IfcAnnotation PredefinedType-LINEWORK dashed_2_2" x1="361.4784851074219" x2="361.4784851074219" y1="173.1614532470703" y2="168.76148986816406"/>
  <line class="GlobalId-1MgIxFwDbFwh$Hfc310ms3 IfcAnnotation PredefinedType-LINEWORK dashed_2_2" x1="361.4784851074219" x2="360.8788146972656" y1="168.76148986816406" y2="168.76148986816406"/>
  <line class="GlobalId-1MgIxFwDbFwh$Hfc310ms3 IfcAnnotation PredefinedType-LINEWORK dashed_2_2" x1="362.47869873046875" x2="362.284912109375" y1="174.16148376464844" y2="174.13973999023438"/>
  <line class="GlobalId-1MgIxFwDbFwh$Hfc310ms3 IfcAnnotation PredefinedType-LINEWORK dashed_2_2" x1="362.284912109375" x2="362.0979919433594" y1="174.13973999023438" y2="174.08128356933594"/>
  <line class="GlobalId-1MgIxFwDbFwh$Hfc310ms3 IfcAnnotation PredefinedType-LINEWORK dashed_2_2" x1="362.0979919433594" x2="361.92633056640625" y1="174.08128356933594" y2="173.9882049560547"/>
  <line class="GlobalId-1MgIxFwDbFwh$Hfc310ms3 IfcAnnotation PredefinedType-LINEWORK dashed_2_2" x1="361.92633056640625" x2="361.7760314941406" y1="173.9882049560547" y2="173.86402893066406"/>
  <line class="GlobalId-1MgIxFwDbFwh$Hfc310ms3 IfcAnnotation PredefinedType-LINEWORK dashed_2_2" x1="361.7760314941406" x2="361.65167236328125" y1="173.86402893066406" y2="173.71334838867188"/>
  <line class="GlobalId-1MgIxFwDbFwh$Hfc310ms3 IfcAnnotation PredefinedType-LINEWORK dashed_2_2" x1="361.65167236328125" x2="361.55859375" y1="173.71334838867188" y2="173.54177856445312"/>
  <line class="GlobalId-1MgIxFwDbFwh$Hfc310ms3 IfcAnnotation PredefinedType-LINEWORK dashed_2_2" x1="361.55859375" x2="361.5006103515625" y1="173.54177856445312" y2="173.35543823242188"/>
  <line class="GlobalId-1MgIxFwDbFwh$Hfc310ms3 IfcAnnotation PredefinedType-LINEWORK dashed_2_2" x1="363.578857421875" x2="362.07891845703125" y1="160.76150512695312" y2="160.76150512695312"/>
  <line class="GlobalId-1MgIxFwDbFwh$Hfc310ms3 IfcAnnotation PredefinedType-LINEWORK dashed_2_2" x1="363.578857421875" x2="362.07891845703125" y1="152.76150512695312" y2="152.76150512695312"/>
  <line class="GlobalId-1MgIxFwDbFwh$Hfc310ms3 IfcAnnotation PredefinedType-LINEWORK dashed_2_2" x1="362.07891845703125" x2="362.07891845703125" y1="160.76150512695312" y2="152.76150512695312"/>
  <line class="GlobalId-1MgIxFwDbFwh$Hfc310ms3 IfcAnnotation PredefinedType-LINEWORK dashed_2_2" x1="363.578857421875" x2="363.578857421875" y1="152.76150512695312" y2="160.76150512695312"/>
  <line class="GlobalId-1MgIxFwDbFwh$Hfc310ms3 IfcAnnotation PredefinedType-LINEWORK dashed_2_2" x1="363.578857421875" x2="362.07891845703125" y1="134.27748107910156" y2="134.27748107910156"/>
  <line class="GlobalId-1MgIxFwDbFwh$Hfc310ms3 IfcAnnotation PredefinedType-LINEWORK dashed_2_2" x1="362.07891845703125" x2="362.07891845703125" y1="152.76150512695312" y2="134.27748107910156"/>
  <line class="GlobalId-1MgIxFwDbFwh$Hfc310ms3 IfcAnnotation PredefinedType-LINEWORK dashed_2_2" x1="363.578857421875" x2="363.578857421875" y1="134.27748107910156" y2="152.76150512695312"/>
  <line class="GlobalId-1QVsCVlnb6XPKPjBn3r3UD IfcAnnotation PredefinedType-LINEWORK dashed_2_2" x1="555.5671997070312" x2="590.5678100585938" y1="254.76136779785156" y2="254.76136779785156"/>
  <line class="GlobalId-1QVsCVlnb6XPKPjBn3r3UD IfcAnnotation PredefinedType-LINEWORK dashed_2_2" x1="590.5678100585938" x2="590.5678100585938" y1="254.76136779785156" y2="256.76141357421875"/>
  <line class="GlobalId-1QVsCVlnb6XPKPjBn3r3UD IfcAnnotation PredefinedType-LINEWORK dashed_2_2" x1="555.5671997070312" x2="555.5671997070312" y1="256.76141357421875" y2="254.76136779785156"/>
  <line class="GlobalId-0StEF604L0T9i6ZSPoHR2N IfcAnnotation PredefinedType-LINEWORK hartlijn" x1="127.54063415527344" x2="127.54063415527344" y1="272.7615966796875" y2="197.76158142089844"/>
  <line class="GlobalId-3dkKJT7sH1QBsK8x2$zjhP IfcAnnotation PredefinedType-LINEWORK" x1="385.66290283203125" x2="380.60308837890625" y1="205.42588806152344" y2="214.60824584960938"/>
  <line class="GlobalId-3dkKJT7sH1QBsK8x2$zjhP IfcAnnotation PredefinedType-LINEWORK" x1="334.0218200683594" x2="318.7950744628906" y1="214.60813903808594" y2="214.60813903808594"/>
  <line class="GlobalId-3dkKJT7sH1QBsK8x2$zjhP IfcAnnotation PredefinedType-LINEWORK" x1="380.60308837890625" x2="364.9757995605469" y1="214.60824584960938" y2="214.60813903808594"/>
  <line class="GlobalId-3dkKJT7sH1QBsK8x2$zjhP IfcAnnotation PredefinedType-LINEWORK" x1="364.9757995605469" x2="349.5491638183594" y1="214.60813903808594" y2="214.60813903808594"/>
  <line class="GlobalId-3dkKJT7sH1QBsK8x2$zjhP IfcAnnotation PredefinedType-LINEWORK" x1="349.5491638183594" x2="334.0218200683594" y1="214.60813903808594" y2="214.60813903808594"/>
  <line class="GlobalId-3dkKJT7sH1QBsK8x2$zjhP IfcAnnotation PredefinedType-LINEWORK" x1="364.9757995605469" x2="370.1424255371094" y1="214.60813903808594" y2="205.4260711669922"/>
  <line class="GlobalId-3dkKJT7sH1QBsK8x2$zjhP IfcAnnotation PredefinedType-LINEWORK" x1="349.5491638183594" x2="354.692138671875" y1="214.60813903808594" y2="205.4259796142578"/>
  <line class="GlobalId-3dkKJT7sH1QBsK8x2$zjhP IfcAnnotation PredefinedType-LINEWORK" x1="334.0218200683594" x2="339.24261474609375" y1="214.60813903808594" y2="205.4259796142578"/>
  <line class="GlobalId-3dkKJT7sH1QBsK8x2$zjhP IfcAnnotation PredefinedType-LINEWORK" x1="318.7950744628906" x2="323.7923278808594" y1="214.60813903808594" y2="205.4259796142578"/>
  <line class="GlobalId-3dkKJT7sH1QBsK8x2$zjhP IfcAnnotation PredefinedType-LINEWORK" x1="318.7950744628906" x2="304.0947570800781" y1="214.60813903808594" y2="214.60813903808594"/>
  <line class="GlobalId-3dkKJT7sH1QBsK8x2$zjhP IfcAnnotation PredefinedType-LINEWORK" x1="385.66290283203125" x2="380.60308837890625" y1="246.3265838623047" y2="255.50894165039062"/>
  <line class="GlobalId-3dkKJT7sH1QBsK8x2$zjhP IfcAnnotation PredefinedType-LINEWORK" x1="334.0218200683594" x2="318.7950744628906" y1="255.50885009765625" y2="255.50885009765625"/>
  <line class="GlobalId-3dkKJT7sH1QBsK8x2$zjhP IfcAnnotation PredefinedType-LINEWORK" x1="380.60308837890625" x2="364.9757995605469" y1="255.50894165039062" y2="255.50885009765625"/>
  <line class="GlobalId-3dkKJT7sH1QBsK8x2$zjhP IfcAnnotation PredefinedType-LINEWORK" x1="364.9757995605469" x2="349.5491638183594" y1="255.50885009765625" y2="255.50885009765625"/>
  <line class="GlobalId-3dkKJT7sH1QBsK8x2$zjhP IfcAnnotation PredefinedType-LINEWORK" x1="349.5491638183594" x2="334.0218200683594" y1="255.50885009765625" y2="255.50885009765625"/>
  <line class="GlobalId-3dkKJT7sH1QBsK8x2$zjhP IfcAnnotation PredefinedType-LINEWORK" x1="364.9757995605469" x2="370.1424255371094" y1="255.50885009765625" y2="246.32669067382812"/>
  <line class="GlobalId-3dkKJT7sH1QBsK8x2$zjhP IfcAnnotation PredefinedType-LINEWORK" x1="349.5491638183594" x2="354.692138671875" y1="255.50885009765625" y2="246.32669067382812"/>
  <line class="GlobalId-3dkKJT7sH1QBsK8x2$zjhP IfcAnnotation PredefinedType-LINEWORK" x1="334.0218200683594" x2="339.24261474609375" y1="255.50885009765625" y2="246.32669067382812"/>
  <line class="GlobalId-3dkKJT7sH1QBsK8x2$zjhP IfcAnnotation PredefinedType-LINEWORK" x1="318.7950744628906" x2="323.7923278808594" y1="255.50885009765625" y2="246.32669067382812"/>
  <line class="GlobalId-3dkKJT7sH1QBsK8x2$zjhP IfcAnnotation PredefinedType-LINEWORK" x1="318.7950744628906" x2="304.0947570800781" y1="255.50885009765625" y2="255.50885009765625"/>
  <line class="GlobalId-3dkKJT7sH1QBsK8x2$zjhP IfcAnnotation PredefinedType-LINEWORK" x1="385.97113037109375" x2="383.91119384765625" y1="226.41615295410156" y2="235.5985107421875"/>
  <line class="GlobalId-3dkKJT7sH1QBsK8x2$zjhP IfcAnnotation PredefinedType-LINEWORK" x1="321.8651428222656" x2="323.8625183105469" y1="235.59841918945312" y2="226.416259765625"/>
  <line class="GlobalId-3dkKJT7sH1QBsK8x2$zjhP IfcAnnotation PredefinedType-LINEWORK" x1="321.8651428222656" x2="304.4029846191406" y1="235.59841918945312" y2="235.59841918945312"/>
  <line class="GlobalId-3dkKJT7sH1QBsK8x2$zjhP IfcAnnotation PredefinedType-LINEWORK" x1="383.91119384765625" x2="321.8651428222656" y1="235.5985107421875" y2="235.59841918945312"/>
  <line class="GlobalId-2JdEGjp8P498jNfChBVlgt IfcAnnotation PredefinedType-LINEWORK" x1="379.8790588378906" x2="379.8790588378906" y1="250.76145935058594" y2="280.761474609375"/>
  <line class="GlobalId-2JdEGjp8P498jNfChBVlgt IfcAnnotation PredefinedType-LINEWORK" x1="361.8790283203125" x2="361.8790283203125" y1="250.76145935058594" y2="280.7613830566406"/>
  <line class="GlobalId-2JdEGjp8P498jNfChBVlgt IfcAnnotation PredefinedType-LINEWORK" x1="361.8790283203125" x2="379.8790588378906" y1="280.7613830566406" y2="276.0614013671875"/>
  <line class="GlobalId-2JdEGjp8P498jNfChBVlgt IfcAnnotation PredefinedType-LINEWORK" x1="379.8790588378906" x2="370.8794250488281" y1="280.761474609375" y2="278.41143798828125"/>
  <line class="GlobalId-2gvBPYdIj8EBuZRSpYLBfY IfcAnnotation PredefinedType-LINEWORK dashed_2_2" x1="360.8788146972656" x2="460.9322204589844" y1="184.26145935058594" y2="184.26145935058594"/>
  <line class="GlobalId-2gvBPYdIj8EBuZRSpYLBfY IfcAnnotation PredefinedType-LINEWORK dashed_2_2" x1="360.8788146972656" x2="460.9322204589844" y1="197.261474609375" y2="197.261474609375"/>
  <line class="GlobalId-2938yOLDH08uy9AGrILOM4 IfcAnnotation PredefinedType-LINEWORK" x1="360.8788146972656" x2="360.8788146972656" y1="174.76144409179688" y2="108.89540100097656"/>
  <line class="GlobalId-2938yOLDH08uy9AGrILOM4 IfcAnnotation PredefinedType-LINEWORK" x1="362.07891845703125" x2="362.07891845703125" y1="174.76144409179688" y2="108.89540100097656"/>
  <line class="GlobalId-2938yOLDH08uy9AGrILOM4 IfcAnnotation PredefinedType-LINEWORK" x1="382.6790466308594" x2="382.6790466308594" y1="174.76144409179688" y2="108.89540100097656"/>
  <line class="GlobalId-2938yOLDH08uy9AGrILOM4 IfcAnnotation PredefinedType-LINEWORK" x1="383.879150390625" x2="383.879150390625" y1="174.76144409179688" y2="108.89540100097656"/>
  <path class="GlobalId-16UkJYj_bFzRfNhnHvRVMW IfcAnnotation PredefinedType-black" d="M 130.3154468536377 196.04086875915527 L 140.54036140441895 196.04086875915527 L 140.54036140441895 197.2909450531006 L 130.3154468536377 196.04086875915527"/>
  <path class="GlobalId-16UkJYj_bFzRfNhnHvRVMW IfcAnnotation PredefinedType-black" d="M 126.4519214630127 195.32713890075684 L 128.3318042755127 194.9655055999756 L 128.62935066223145 195.32713890075684 L 126.4519214630127 195.32713890075684"/>
  <path class="GlobalId-16UkJYj_bFzRfNhnHvRVMW IfcAnnotation PredefinedType-black" d="M 126.4519214630127 195.32713890075684 L 128.62935066223145 195.32713890075684 L 128.9909839630127 195.6251621246338 L 126.4519214630127 195.32713890075684"/>
  <path class="GlobalId-16UkJYj_bFzRfNhnHvRVMW IfcAnnotation PredefinedType-black" d="M 126.09028816223145 195.6251621246338 L 126.4519214630127 195.32713890075684 L 128.9909839630127 195.6251621246338 L 126.09028816223145 195.6251621246338"/>
  <path class="GlobalId-16UkJYj_bFzRfNhnHvRVMW IfcAnnotation PredefinedType-black" d="M 126.74946784973145 194.9655055999756 L 128.10826301574707 194.5535182952881 L 128.3318042755127 194.9655055999756 L 126.74946784973145 194.9655055999756"/>
  <path class="GlobalId-16UkJYj_bFzRfNhnHvRVMW IfcAnnotation PredefinedType-black" d="M 126.74946784973145 194.9655055999756 L 128.3318042755127 194.9655055999756 L 126.4519214630127 195.32713890075684 L 126.74946784973145 194.9655055999756"/>
  <path class="GlobalId-16UkJYj_bFzRfNhnHvRVMW IfcAnnotation PredefinedType-black" d="M 125.67830085754395 195.8484172821045 L 128.9909839630127 195.6251621246338 L 129.4029712677002 195.8484172821045 L 125.67830085754395 195.8484172821045"/>
  <path class="GlobalId-16UkJYj_bFzRfNhnHvRVMW IfcAnnotation PredefinedType-black" d="M 125.67830085754395 195.8484172821045 L 126.09028816223145 195.6251621246338 L 128.9909839630127 195.6251621246338 L 125.67830085754395 195.8484172821045"/>
  <path class="GlobalId-16UkJYj_bFzRfNhnHvRVMW IfcAnnotation PredefinedType-black" d="M 126.97300910949707 194.5535182952881 L 127.96788215637207 194.10653114318848 L 128.10826301574707 194.5535182952881 L 126.97300910949707 194.5535182952881"/>
  <path class="GlobalId-16UkJYj_bFzRfNhnHvRVMW IfcAnnotation PredefinedType-black" d="M 126.97300910949707 194.5535182952881 L 128.10826301574707 194.5535182952881 L 126.74946784973145 194.9655055999756 L 126.97300910949707 194.5535182952881"/>
  <path class="GlobalId-16UkJYj_bFzRfNhnHvRVMW IfcAnnotation PredefinedType-black" d="M 125.2312183380127 195.98870277404785 L 129.4029712677002 195.8484172821045 L 129.85005378723145 195.98870277404785 L 125.2312183380127 195.98870277404785"/>
  <path class="GlobalId-16UkJYj_bFzRfNhnHvRVMW IfcAnnotation PredefinedType-black" d="M 125.2312183380127 195.98870277404785 L 125.67830085754395 195.8484172821045 L 129.4029712677002 195.8484172821045 L 125.2312183380127 195.98870277404785"/>
  <path class="GlobalId-16UkJYj_bFzRfNhnHvRVMW IfcAnnotation PredefinedType-black" d="M 127.11338996887207 194.10653114318848 L 127.91600227355957 193.6408519744873 L 127.96788215637207 194.10653114318848 L 127.11338996887207 194.10653114318848"/>
  <path class="GlobalId-16UkJYj_bFzRfNhnHvRVMW IfcAnnotation PredefinedType-black" d="M 127.11338996887207 194.10653114318848 L 127.96788215637207 194.10653114318848 L 126.97300910949707 194.5535182952881 L 127.11338996887207 194.10653114318848"/>
  <path class="GlobalId-16UkJYj_bFzRfNhnHvRVMW IfcAnnotation PredefinedType-black" d="M 124.76582527160645 196.04086875915527 L 129.85005378723145 195.98870277404785 L 130.3154468536377 196.04086875915527 L 124.76582527160645 196.04086875915527"/>
  <path class="GlobalId-16UkJYj_bFzRfNhnHvRVMW IfcAnnotation PredefinedType-black" d="M 124.76582527160645 196.04086875915527 L 130.3154468536377 196.04086875915527 L 140.54036140441895 197.2909450531006 L 124.76582527160645 196.04086875915527"/>
  <path class="GlobalId-16UkJYj_bFzRfNhnHvRVMW IfcAnnotation PredefinedType-black" d="M 124.76582527160645 196.04086875915527 L 125.2312183380127 195.98870277404785 L 129.85005378723145 195.98870277404785 L 124.76582527160645 196.04086875915527"/>
  <path class="GlobalId-16UkJYj_bFzRfNhnHvRVMW IfcAnnotation PredefinedType-black" d="M 127.16526985168457 193.6408519744873 L 127.91600227355957 193.6408519744873 L 127.11338996887207 194.10653114318848 L 127.16526985168457 193.6408519744873"/>
  <path class="GlobalId-16UkJYj_bFzRfNhnHvRVMW IfcAnnotation PredefinedType-black" d="M 114.5409107208252 197.29084968566895 L 124.76582527160645 196.04086875915527 L 140.54036140441895 197.2909450531006 L 114.5409107208252 197.29084968566895"/>
  <path class="GlobalId-16UkJYj_bFzRfNhnHvRVMW IfcAnnotation PredefinedType-black" d="M 114.5409107208252 196.04086875915527 L 124.76582527160645 196.04086875915527 L 114.5409107208252 197.29084968566895 L 114.5409107208252 196.04086875915527"/>
  <path class="GlobalId-16UkJYj_bFzRfNhnHvRVMW IfcAnnotation PredefinedType-black" d="M 127.91600227355957 175.9408473968506 L 127.91600227355957 193.6408519744873 L 127.16526985168457 193.6408519744873 L 127.91600227355957 175.9408473968506"/>
  <path class="GlobalId-16UkJYj_bFzRfNhnHvRVMW IfcAnnotation PredefinedType-black" d="M 130.3154468536377 173.54083061218262 L 140.54036140441895 172.29084968566895 L 140.54036140441895 173.54083061218262 L 130.3154468536377 173.54083061218262"/>
  <path class="GlobalId-16UkJYj_bFzRfNhnHvRVMW IfcAnnotation PredefinedType-black" d="M 127.16526985168457 175.9408473968506 L 127.91600227355957 175.9408473968506 L 127.16526985168457 193.6408519744873 L 127.16526985168457 175.9408473968506"/>
  <path class="GlobalId-16UkJYj_bFzRfNhnHvRVMW IfcAnnotation PredefinedType-black" d="M 127.11338996887207 175.47526359558105 L 127.91600227355957 175.9408473968506 L 127.16526985168457 175.9408473968506 L 127.11338996887207 175.47526359558105"/>
  <path class="GlobalId-16UkJYj_bFzRfNhnHvRVMW IfcAnnotation PredefinedType-black" d="M 127.11338996887207 175.47526359558105 L 128.10826301574707 175.0281810760498 L 127.96788215637207 175.47526359558105 L 127.11338996887207 175.47526359558105"/>
  <path class="GlobalId-16UkJYj_bFzRfNhnHvRVMW IfcAnnotation PredefinedType-black" d="M 127.11338996887207 175.47526359558105 L 127.96788215637207 175.47526359558105 L 127.91600227355957 175.9408473968506 L 127.11338996887207 175.47526359558105"/>
  <path class="GlobalId-16UkJYj_bFzRfNhnHvRVMW IfcAnnotation PredefinedType-black" d="M 126.97300910949707 175.0281810760498 L 128.10826301574707 175.0281810760498 L 127.11338996887207 175.47526359558105 L 126.97300910949707 175.0281810760498"/>
  <path class="GlobalId-16UkJYj_bFzRfNhnHvRVMW IfcAnnotation PredefinedType-black" d="M 126.74946784973145 174.6161937713623 L 128.3318042755127 174.6161937713623 L 128.10826301574707 175.0281810760498 L 126.74946784973145 174.6161937713623"/>
  <path class="GlobalId-16UkJYj_bFzRfNhnHvRVMW IfcAnnotation PredefinedType-black" d="M 126.74946784973145 174.6161937713623 L 128.10826301574707 175.0281810760498 L 126.97300910949707 175.0281810760498 L 126.74946784973145 174.6161937713623"/>
  <path class="GlobalId-16UkJYj_bFzRfNhnHvRVMW IfcAnnotation PredefinedType-black" d="M 126.4519214630127 174.25456047058105 L 128.3318042755127 174.6161937713623 L 126.74946784973145 174.6161937713623 L 126.4519214630127 174.25456047058105"/>
  <path class="GlobalId-16UkJYj_bFzRfNhnHvRVMW IfcAnnotation PredefinedType-black" d="M 126.4519214630127 174.25456047058105 L 128.9909839630127 173.9565372467041 L 128.62935066223145 174.25456047058105 L 126.4519214630127 174.25456047058105"/>
  <path class="GlobalId-16UkJYj_bFzRfNhnHvRVMW IfcAnnotation PredefinedType-black" d="M 126.4519214630127 174.25456047058105 L 128.62935066223145 174.25456047058105 L 128.3318042755127 174.6161937713623 L 126.4519214630127 174.25456047058105"/>
  <path class="GlobalId-16UkJYj_bFzRfNhnHvRVMW IfcAnnotation PredefinedType-black" d="M 126.09028816223145 173.9565372467041 L 128.9909839630127 173.9565372467041 L 126.4519214630127 174.25456047058105 L 126.09028816223145 173.9565372467041"/>
  <path class="GlobalId-16UkJYj_bFzRfNhnHvRVMW IfcAnnotation PredefinedType-black" d="M 125.67830085754395 173.7332820892334 L 129.4029712677002 173.7332820892334 L 128.9909839630127 173.9565372467041 L 125.67830085754395 173.7332820892334"/>
  <path class="GlobalId-16UkJYj_bFzRfNhnHvRVMW IfcAnnotation PredefinedType-black" d="M 125.67830085754395 173.7332820892334 L 128.9909839630127 173.9565372467041 L 126.09028816223145 173.9565372467041 L 125.67830085754395 173.7332820892334"/>
  <path class="GlobalId-16UkJYj_bFzRfNhnHvRVMW IfcAnnotation PredefinedType-black" d="M 125.2312183380127 173.59299659729004 L 129.85005378723145 173.59299659729004 L 129.4029712677002 173.7332820892334 L 125.2312183380127 173.59299659729004"/>
  <path class="GlobalId-16UkJYj_bFzRfNhnHvRVMW IfcAnnotation PredefinedType-black" d="M 125.2312183380127 173.59299659729004 L 129.4029712677002 173.7332820892334 L 125.67830085754395 173.7332820892334 L 125.2312183380127 173.59299659729004"/>
  <path class="GlobalId-16UkJYj_bFzRfNhnHvRVMW IfcAnnotation PredefinedType-black" d="M 114.5409107208252 172.29084968566895 L 124.76582527160645 173.54083061218262 L 114.5409107208252 173.54083061218262 L 114.5409107208252 172.29084968566895"/>
  <path class="GlobalId-16UkJYj_bFzRfNhnHvRVMW IfcAnnotation PredefinedType-black" d="M 114.5409107208252 172.29084968566895 L 140.54036140441895 172.29084968566895 L 130.3154468536377 173.54083061218262 L 114.5409107208252 172.29084968566895"/>
  <path class="GlobalId-16UkJYj_bFzRfNhnHvRVMW IfcAnnotation PredefinedType-black" d="M 114.5409107208252 172.29084968566895 L 130.3154468536377 173.54083061218262 L 129.85005378723145 173.59299659729004 L 114.5409107208252 172.29084968566895"/>
  <path class="GlobalId-16UkJYj_bFzRfNhnHvRVMW IfcAnnotation PredefinedType-black" d="M 114.5409107208252 172.29084968566895 L 129.85005378723145 173.59299659729004 L 124.76582527160645 173.54083061218262 L 114.5409107208252 172.29084968566895"/>
  <path class="GlobalId-16UkJYj_bFzRfNhnHvRVMW IfcAnnotation PredefinedType-black" d="M 124.76582527160645 173.54083061218262 L 129.85005378723145 173.59299659729004 L 125.2312183380127 173.59299659729004 L 124.76582527160645 173.54083061218262"/>
  <line class="GlobalId-3LJi_pyRP27RatA1OaGMCI IfcAnnotation PredefinedType-LINEWORK dashed_2_2" x1="361.8790283203125" x2="379.8790588378906" y1="248.76141357421875" y2="248.76141357421875"/>
  <line class="GlobalId-3LJi_pyRP27RatA1OaGMCI IfcAnnotation PredefinedType-LINEWORK dashed_2_2" x1="379.8790588378906" x2="379.8790588378906" y1="248.76141357421875" y2="250.76145935058594"/>
  <line class="GlobalId-3LJi_pyRP27RatA1OaGMCI IfcAnnotation PredefinedType-LINEWORK dashed_2_2" x1="361.8790283203125" x2="361.8790283203125" y1="250.76145935058594" y2="248.76141357421875"/>
  <line class="GlobalId-1LUyhLq$b8_eIcH0m2$C2k IfcAnnotation PredefinedType-LINEWORK dashed_20_10_10_10" x1="123.54054260253906" x2="123.54054260253906" y1="280.9373474121094" y2="197.26156616210938"/>
  <line class="GlobalId-1LUyhLq$b8_eIcH0m2$C2k IfcAnnotation PredefinedType-LINEWORK dashed_20_10_10_10" x1="124.04026794433594" x2="124.04026794433594" y1="280.9373474121094" y2="197.26156616210938"/>
  <line class="GlobalId-1LUyhLq$b8_eIcH0m2$C2k IfcAnnotation PredefinedType-LINEWORK dashed_20_10_10_10" x1="131.0402374267578" x2="131.0402374267578" y1="280.9373474121094" y2="197.26156616210938"/>
  <line class="GlobalId-1LUyhLq$b8_eIcH0m2$C2k IfcAnnotation PredefinedType-LINEWORK dashed_20_10_10_10" x1="131.5407257080078" x2="131.5407257080078" y1="280.9373474121094" y2="197.26156616210938"/>
  <line class="GlobalId-2iTra2LQDAZQNalpZf$mHn IfcAnnotation PredefinedType-LINEWORK" x1="590.5678100585938" x2="590.5678100585938" y1="256.76141357421875" y2="286.76141357421875"/>
  <line class="GlobalId-2iTra2LQDAZQNalpZf$mHn IfcAnnotation PredefinedType-LINEWORK" x1="555.5671997070312" x2="555.5671997070312" y1="256.76141357421875" y2="286.7613220214844"/>
  <line class="GlobalId-2iTra2LQDAZQNalpZf$mHn IfcAnnotation PredefinedType-LINEWORK" x1="555.5671997070312" x2="590.5678100585938" y1="286.7613220214844" y2="279.2614440917969"/>
  <line class="GlobalId-2iTra2LQDAZQNalpZf$mHn IfcAnnotation PredefinedType-LINEWORK" x1="590.5678100585938" x2="573.0675048828125" y1="286.76141357421875" y2="283.0113830566406"/>
  <line class="GlobalId-0EktRiSRXA0QPWDg12U$Xq IfcAnnotation PredefinedType-LINEWORK dashed_2_2" x1="370.8794250488281" x2="370.8794250488281" y1="311.0775451660156" y2="232.63821411132812"/>
  <line class="GlobalId-13c1SVs1P9gQ$CrPs3s_3D IfcAnnotation PredefinedType-LINEWORK dashed_2_2" x1="573.0675048828125" x2="573.0675048828125" y1="311.0775451660156" y2="239.7613983154297"/>
  <path class="GlobalId-3km6zQ8nP5ZfppAczAYyow IfcAnnotation PredefinedType-blank" d="M 446.1395740509033 225.76146125793457 L 492.41795539855957 225.76146125793457 L 492.41795539855957 159.76147651672363 L 446.1395740509033 159.76147651672363 L 446.1395740509033 225.76146125793457"/>
  <path class="GlobalId-3km6zQ8nP5ZfppAczAYyow IfcAnnotation PredefinedType-blank" d="M 398.8792896270752 81.28561973571777 L 345.87864875793457 81.28561973571777 L 345.87864875793457 143.5194492340088 L 398.8792896270752 143.5194492340088 L 398.8792896270752 81.28561973571777"/>
  <path class="GlobalId-2zmN50vXL63AJwUXDjY4A0 IfcAnnotation PredefinedType-blank naaldhoutvurenCLT" d="M 655.8273792266846 224.76143836975098 L 702.1057605743408 224.76143836975098 L 702.1057605743408 159.76147651672363 L 655.8273792266846 159.76147651672363 L 655.8273792266846 224.76143836975098"/>
  <path class="GlobalId-2zmN50vXL63AJwUXDjY4A0 IfcAnnotation PredefinedType-blank naaldhoutvurenCLT" d="M 608.5670948028564 81.28561973571777 L 540.5670642852783 81.28561973571777 L 540.5663013458252 143.5194492340088 L 608.5670948028564 143.5194492340088 L 608.5670948028564 81.28561973571777"/>
  <path class="GlobalId-1Rwi2v82z9XRm2rluMTYTb IfcAnnotation PredefinedType-blank" d="M 185.0822925567627 217.79112815856934 L 231.36067390441895 217.79112815856934 L 231.36067390441895 159.76147651672363 L 185.0822925567627 159.76147651672363 L 185.0822925567627 217.79112815856934"/>
  <path class="GlobalId-1Rwi2v82z9XRm2rluMTYTb IfcAnnotation PredefinedType-blank" d="M 151.04069709777832 315.92679023742676 L 107.04045295715332 315.92679023742676 L 107.04045295715332 272.76158332824707 L 151.04069709777832 272.76158332824707 L 151.04069709777832 315.92679023742676"/>
  <path class="GlobalId-1Rwi2v82z9XRm2rluMTYTb IfcAnnotation PredefinedType-blank" d="M 73.04081916809082 227.7616024017334 L 25.80265998840332 227.7616024017334 L 25.80265998840332 182.76162147521973 L 73.04081916809082 182.76162147521973 L 73.04081916809082 227.7616024017334"/>
  <path class="GlobalId-1Rwi2v82z9XRm2rluMTYTb IfcAnnotation PredefinedType-blank" d="M 151.04069709777832 81.28561973571777 L 107.04045295715332 81.28561973571777 L 107.04045295715332 143.5194492340088 L 151.04069709777832 143.5194492340088 L 151.04069709777832 81.28561973571777"/>
  <line class="GlobalId-1fKjC0LLTEBBfmd$58kKB3 IfcAnnotation PredefinedType-LINEWORK breakline" x1="655.827392578125" x2="655.827392578125" y1="224.76144409179688" y2="159.761474609375"/>
  <line class="GlobalId-1fKjC0LLTEBBfmd$58kKB3 IfcAnnotation PredefinedType-LINEWORK breakline" x1="540.5678100585938" x2="608.5670776367188" y1="143.5194549560547" y2="143.5194549560547"/>
  <path class="GlobalId-1DG5IMuZD3ngKv61n2M$S9 IfcAnnotation PredefinedType-TEXTLEADER" d="M 161.56468391418457 252.7616024017334 L 131.54072761535645 252.7616024017334"/>
  <text dominant-baseline="middle" style="font-size: 0;" text-anchor="start" transform="translate(161.56468200683594, 252.7615966796875) rotate(-0.0)">
    <tspan class="GlobalId-1DG5IMuZD3ngKv61n2M$S9 IfcAnnotation PredefinedType-TEXTLEADER" dy="0em" x="0" y="0">K80/5</tspan>
  </text>
  <path class="GlobalId-1clLh5oB97mOy48lZ6Luqr IfcAnnotation PredefinedType-SECTIONLEVEL" d="M 679.613525390625 175.09646606445312 L 666.9693603515625 175.09646606445312"/>
  <text dominant-baseline="baseline" style="font-size: 0;" text-anchor="start" transform="translate(679.613525390625, 171.59646606445312) rotate(0.0)">
    <tspan class="SECTIONLEVEL" dy="0em" x="0" y="0">RL +600</tspan>
  </text>
  <line class="GlobalId-3RFfcAOEj7ZB5j0KtH12c0 IfcAnnotation PredefinedType-LINEWORK breakline" x1="185.08229064941406" x2="185.08229064941406" y1="217.79112243652344" y2="159.761474609375"/>
  <line class="GlobalId-3RFfcAOEj7ZB5j0KtH12c0 IfcAnnotation PredefinedType-LINEWORK breakline" x1="107.04045104980469" x2="151.0406951904297" y1="143.5194549560547" y2="143.5194549560547"/>
  <line class="GlobalId-3RFfcAOEj7ZB5j0KtH12c0 IfcAnnotation PredefinedType-LINEWORK breakline" x1="107.04045104980469" x2="151.0406951904297" y1="272.7615966796875" y2="272.7615966796875"/>
  <line class="GlobalId-3RFfcAOEj7ZB5j0KtH12c0 IfcAnnotation PredefinedType-LINEWORK breakline" x1="73.04081726074219" x2="73.04081726074219" y1="227.7615966796875" y2="182.76162719726562"/>
  <line class="GlobalId-3Z0fhbXar60ufvvZLJYzUU IfcAnnotation PredefinedType-LINEWORK breakline" x1="446.13958740234375" x2="446.13958740234375" y1="225.76145935058594" y2="159.761474609375"/>
  <line class="GlobalId-3Z0fhbXar60ufvvZLJYzUU IfcAnnotation PredefinedType-LINEWORK breakline" x1="345.878662109375" x2="398.8793029785156" y1="143.5194549560547" y2="143.5194549560547"/>
  <line class="GlobalId-1JdXvC0nrE2fWsV_Etmald IfcAnnotation PredefinedType-DIMENSION bg-fill" x1="195.08213806152344" x2="195.08213806152344" y1="174.76144409179688" y2="197.76158142089844"/>
  <text dominant-baseline="baseline" style="font-size: 0;" text-anchor="middle" transform="translate(196.08213806152344, 186.26150512695312) rotate(90.00000250447816)">
    <tspan class="DIMENSION" dy="0em" x="0" y="0">230</tspan>
  </text>
  <line class="GlobalId-1JdXvC0nrE2fWsV_Etmald IfcAnnotation PredefinedType-DIMENSION bg-fill" x1="195.08213806152344" x2="195.08213806152344" y1="197.76158142089844" y2="202.76170349121094"/>
  <text dominant-baseline="baseline" style="font-size: 0;" text-anchor="middle" transform="translate(196.08213806152344, 200.2616424560547) rotate(90.00000250447816)">
    <tspan class="DIMENSION" dy="0em" x="0" y="0">50</tspan>
  </text>
  <line class="GlobalId-1JdXvC0nrE2fWsV_Etmald IfcAnnotation PredefinedType-DIMENSION bg-fill" x1="122.04060363769531" x2="136.04054260253906" y1="133.5194091796875" y2="133.5194091796875"/>
  <text dominant-baseline="baseline" style="font-size: 0;" text-anchor="middle" transform="translate(129.0405731201172, 132.5194091796875) rotate(0.0)">
    <tspan class="DIMENSION" dy="0em" x="0" y="0">140</tspan>
  </text>
  <line class="GlobalId-2BfmlUAXT6TOwFhaFecWUp IfcAnnotation PredefinedType-GRID grid blue" stroke-dasharray="12.5, 3, 3, 3" x1="122.04060363769531" x2="122.04060363769531" y1="297.7615966796875" y2="125.04630279541016"/>
  <text class="GRID" dominant-baseline="middle" text-anchor="middle" x="122.04060363769531" y="297.7615966796875">A </text>
  <text class="GRID" dominant-baseline="middle" text-anchor="middle" x="122.04060363769531" y="125.04630279541016">A </text>
  <line class="GlobalId-3Twhfmbd94YhJkPT16o_vf IfcAnnotation PredefinedType-GRID grid blue" stroke-dasharray="12.5, 3, 3, 3" x1="360.8788146972656" x2="360.8788146972656" y1="311.0775451660156" y2="125.04630279541016"/>
  <text class="GRID" dominant-baseline="middle" text-anchor="middle" x="360.8788146972656" y="311.0775451660156">2</text>
  <text class="GRID" dominant-baseline="middle" text-anchor="middle" x="360.8788146972656" y="125.04630279541016">2</text>
  <path class="GlobalId-0Wh_bMJmLAaQzo0NKxTATU IfcAnnotation PredefinedType-TEXTLEADER" d="M 609.8686695098877 221.9778537750244 L 602.5352954864502 221.9778537750244 L 602.5352954864502 209.76147651672363"/>
  <text dominant-baseline="baseline" style="font-size: 0;" text-anchor="start" transform="translate(609.86865234375, 221.9778594970703) rotate(-0.0)">
    <tspan class="GlobalId-0Wh_bMJmLAaQzo0NKxTATU IfcAnnotation PredefinedType-TEXTLEADER" dy="0em" x="0" y="0">ribcassettevloer </tspan>
    <tspan class="GlobalId-0Wh_bMJmLAaQzo0NKxTATU IfcAnnotation PredefinedType-TEXTLEADER" dy="1em" x="0" y="0">zijoplegging met nokken</tspan>
  </text>
  <line class="GlobalId-0Z8ybJwJLBNuR7XV$uIcCl IfcAnnotation PredefinedType-DIMENSION bg-fill" x1="456.1394348144531" x2="456.1394348144531" y1="250.76145935058594" y2="200.76145935058594"/>
  <text dominant-baseline="baseline" style="font-size: 0;" text-anchor="middle" transform="translate(455.1394348144531, 225.76145935058594) rotate(-90.00000250447816)">
    <tspan class="DIMENSION" dy="0em" x="0" y="0">500</tspan>
  </text>
  <line class="GlobalId-0Z8ybJwJLBNuR7XV$uIcCl IfcAnnotation PredefinedType-DIMENSION bg-fill" x1="456.1394348144531" x2="456.1394348144531" y1="200.76145935058594" y2="174.76144409179688"/>
  <text dominant-baseline="baseline" style="font-size: 0;" text-anchor="middle" transform="translate(455.1394348144531, 187.76144409179688) rotate(-90.00000250447816)">
    <tspan class="DIMENSION" dy="0em" x="0" y="0">260</tspan>
  </text>
  <line class="GlobalId-0Z8ybJwJLBNuR7XV$uIcCl IfcAnnotation PredefinedType-DIMENSION bg-fill" x1="320.8794250488281" x2="360.8788146972656" y1="285.7615051269531" y2="285.7615051269531"/>
  <text dominant-baseline="baseline" style="font-size: 0;" text-anchor="middle" transform="translate(340.8791198730469, 284.7615051269531) rotate(0.0)">
    <tspan class="DIMENSION" dy="0em" x="0" y="0">400</tspan>
  </text>
  <line class="GlobalId-0Z8ybJwJLBNuR7XV$uIcCl IfcAnnotation PredefinedType-DIMENSION bg-fill" x1="360.8788146972656" x2="390.8791198730469" y1="285.7615051269531" y2="285.7615051269531"/>
  <text dominant-baseline="baseline" style="font-size: 0;" text-anchor="middle" transform="translate(375.87896728515625, 284.7615051269531) rotate(0.0)">
    <tspan class="DIMENSION" dy="0em" x="0" y="0">300</tspan>
  </text>
  <line class="GlobalId-0Z8ybJwJLBNuR7XV$uIcCl IfcAnnotation PredefinedType-DIMENSION bg-fill" x1="320.8794250488281" x2="390.8791198730469" y1="295.76153564453125" y2="295.76153564453125"/>
  <text dominant-baseline="baseline" style="font-size: 0;" text-anchor="middle" transform="translate(355.8792724609375, 294.76153564453125) rotate(0.0)">
    <tspan class="DIMENSION" dy="0em" x="0" y="0">700</tspan>
  </text>
  <line class="GlobalId-1MvaXEP_vBPRW34GWjxf95 IfcAnnotation PredefinedType-GRID grid blue" stroke-dasharray="12.5, 3, 3, 3" x1="583.5670776367188" x2="583.5670776367188" y1="311.0775451660156" y2="125.04630279541016"/>
  <text class="GRID" dominant-baseline="middle" text-anchor="middle" x="583.5670776367188" y="311.0775451660156">B</text>
  <text class="GRID" dominant-baseline="middle" text-anchor="middle" x="583.5670776367188" y="125.04630279541016">B</text>
  <line class="GlobalId-0bb3ltKFj5HONaKuWuBC8b IfcAnnotation PredefinedType-DIMENSION bg-fill" x1="540.5670776367188" x2="540.5670776367188" y1="256.76141357421875" y2="209.761474609375"/>
  <text dominant-baseline="baseline" style="font-size: 0;" text-anchor="middle" transform="translate(539.5670776367188, 233.26144409179688) rotate(-90.00000250447816)">
    <tspan class="DIMENSION" dy="0em" x="0" y="0">470</tspan>
  </text>
  <line class="GlobalId-0bb3ltKFj5HONaKuWuBC8b IfcAnnotation PredefinedType-DIMENSION bg-fill" x1="540.5670776367188" x2="540.5670776367188" y1="209.761474609375" y2="174.76144409179688"/>
  <text dominant-baseline="baseline" style="font-size: 0;" text-anchor="middle" transform="translate(539.5670776367188, 192.26145935058594) rotate(-90.00000250447816)">
    <tspan class="DIMENSION" dy="0em" x="0" y="0">350</tspan>
  </text>
  <line class="GlobalId-0bb3ltKFj5HONaKuWuBC8b IfcAnnotation PredefinedType-DIMENSION bg-fill" x1="555.5671997070312" x2="565.5670776367188" y1="133.5194091796875" y2="133.5194091796875"/>
  <text dominant-baseline="baseline" style="font-size: 0;" text-anchor="middle" transform="translate(560.567138671875, 132.5194091796875) rotate(0.0)">
    <tspan class="DIMENSION" dy="0em" x="0" y="0">100</tspan>
  </text>
  <line class="GlobalId-0bb3ltKFj5HONaKuWuBC8b IfcAnnotation PredefinedType-DIMENSION bg-fill" x1="565.5670776367188" x2="583.5670776367188" y1="133.5194091796875" y2="133.5194091796875"/>
  <text dominant-baseline="baseline" style="font-size: 0;" text-anchor="middle" transform="translate(574.5670776367188, 132.5194091796875) rotate(0.0)">
    <tspan class="DIMENSION" dy="0em" x="0" y="0">180</tspan>
  </text>
  <line class="GlobalId-0bb3ltKFj5HONaKuWuBC8b IfcAnnotation PredefinedType-DIMENSION bg-fill" x1="583.5670776367188" x2="593.5669555664062" y1="133.5194091796875" y2="133.5194091796875"/>
  <text dominant-baseline="baseline" style="font-size: 0;" text-anchor="middle" transform="translate(588.5670166015625, 132.5194091796875) rotate(0.0)">
    <tspan class="DIMENSION" dy="0em" x="0" y="0">100</tspan>
  </text>
  <line class="GlobalId-0bb3ltKFj5HONaKuWuBC8b IfcAnnotation PredefinedType-DIMENSION bg-fill" x1="555.5671997070312" x2="593.5669555664062" y1="296.7613830566406" y2="296.7613830566406"/>
  <text dominant-baseline="baseline" style="font-size: 0;" text-anchor="middle" transform="translate(574.5670776367188, 295.7613830566406) rotate(0.0)">
    <tspan class="DIMENSION" dy="0em" x="0" y="0">380</tspan>
  </text>
</svg>
