<?xml version="1.0" encoding="utf-8" ?>
<svg xmlns="http://www.w3.org/2000/svg" xmlns:ev="http://www.w3.org/2001/xml-events" xmlns:ifc="http://www.ifcopenshell.org/ns" xmlns:xlink="http://www.w3.org/1999/xlink" baseProfile="full" data-scale="1:10" height="1000.0000953674316mm" id="root" version="1.1" viewBox="0 0 1000.0000953674316 1000.0000953674316" width="1000.0000953674316mm">
  <defs/>
  <path class="GlobalId-16UkJYj_bFzRfNhnHvRVMW IfcAnnotation PredefinedType-black" d="M 214.5409107208252 196.01149559020996 L 224.76582527160645 196.01149559020996 L 225.2312183380127 195.95932960510254 L 225.67830085754395 195.81904411315918 L 226.09028816223145 195.59578895568848 L 226.4519214630127 195.29776573181152 L 226.75023078918457 194.93613243103027 L 226.97300910949707 194.52414512634277 L 227.11338996887207 194.07715797424316 L 227.16526985168457 193.611478805542 L 227.16526985168457 175.91147422790527 L 227.11338996887207 175.4457950592041 L 226.97300910949707 174.9988079071045 L 226.75023078918457 174.586820602417 L 226.4519214630127 174.22518730163574 L 226.09028816223145 173.9271640777588 L 225.67830085754395 173.7039089202881 L 225.2312183380127 173.56362342834473 L 224.76582527160645 173.5114574432373 L 214.5409107208252 173.5114574432373 L 214.5409107208252 172.26147651672363 L 240.54036140441895 172.26147651672363 L 240.54036140441895 173.5114574432373 L 230.3154468536377 173.5114574432373 L 229.85005378723145 173.56362342834473 L 229.4029712677002 173.7039089202881 L 228.9909839630127 173.9271640777588 L 228.62935066223145 174.22518730163574 L 228.3318042755127 174.586820602417 L 228.10826301574707 174.9988079071045 L 227.96788215637207 175.4457950592041 L 227.91600227355957 175.91147422790527 L 227.91600227355957 193.611478805542 L 227.96788215637207 194.07715797424316 L 228.10826301574707 194.52414512634277 L 228.3318042755127 194.93613243103027 L 228.62935066223145 195.29776573181152 L 228.9909839630127 195.59578895568848 L 229.4029712677002 195.81904411315918 L 229.85005378723145 195.95932960510254 L 230.3154468536377 196.01149559020996 L 240.54036140441895 196.01149559020996 L 240.54036140441895 197.26147651672363 L 214.5409107208252 197.26147651672363 L 214.5409107208252 196.01149559020996"/>
  <path class="GlobalId-0iAyL1JgfFNg1q$eRGm8$Y IfcAnnotation PredefinedType-NEN471metselwerkbaksteen" d="M 236.0405445098877 174.76143836975098 L 236.0405445098877 98.76155853271484 L 222.04060554504395 98.76155853271484 L 222.04060554504395 174.76143836975098 L 236.0405445098877 174.76143836975098"/>
  <path class="GlobalId-0iAyL1JgfFNg1q$eRGm8$Y IfcAnnotation PredefinedType-NEN471metselwerkbaksteen" d="M 236.0405445098877 202.76169776916504 L 222.04060554504395 202.76169776916504 L 222.04060554504395 232.76171684265137 L 236.0405445098877 232.76171684265137 L 236.0405445098877 202.76169776916504"/>
  <path class="GlobalId-22rc$IT7T25x3GWoP8pDH3 IfcAnnotation PredefinedType-gewapendbetonprefab" d="M 222.04060554504395 202.76169776916504 L 298.0408191680908 202.76169776916504 L 298.0408191680908 197.76158332824707 L 222.04060554504395 197.76158332824707 L 222.04060554504395 202.76169776916504"/>
  <line class="GlobalId-1JdXvC0nrE2fWsV_Etmald IfcAnnotation PredefinedType-DIMENSION" x1="302.2659912109375" x2="302.2659912109375" y1="174.76144409179688" y2="197.76158142089844"/>
  <text dominant-baseline="baseline" style="font-size: 0;" text-anchor="middle" transform="translate(303.2659912109375, 186.26150512695312) rotate(90.00000250447816)">
    <tspan class="DIMENSION" dy="0em" x="0" y="0">230</tspan>
  </text>
  <line class="GlobalId-1JdXvC0nrE2fWsV_Etmald IfcAnnotation PredefinedType-DIMENSION" x1="302.2659912109375" x2="302.2659912109375" y1="197.76158142089844" y2="202.76170349121094"/>
  <text dominant-baseline="baseline" style="font-size: 0;" text-anchor="middle" transform="translate(303.2659912109375, 200.2616424560547) rotate(90.00000250447816)">
    <tspan class="DIMENSION" dy="0em" x="0" y="0">50</tspan>
  </text>
  <line class="GlobalId-1JdXvC0nrE2fWsV_Etmald IfcAnnotation PredefinedType-DIMENSION" x1="222.0406036376953" x2="236.04054260253906" y1="93.32804870605469" y2="93.32804870605469"/>
  <text dominant-baseline="baseline" style="font-size: 0;" text-anchor="middle" transform="translate(229.0405731201172, 92.32804870605469) rotate(0.0)">
    <tspan class="DIMENSION" dy="0em" x="0" y="0">140</tspan>
  </text>
  <path class="GlobalId-1YSAMlx5TECh_SRAMD5QWR IfcAnnotation PredefinedType-naaldhoutvurenCLT" d="M 146.04039192199707 212.7615451812744 L 222.04060554504395 212.7615451812744 L 222.04060554504395 197.76158332824707 L 146.04039192199707 197.76158332824707 L 146.04039192199707 212.7615451812744"/>
  <line class="GlobalId-3ueixdzqX9rwkXRYtaM0_W IfcAnnotation PredefinedType-LINEWORK" x1="223.54054260253906" x2="223.54054260253906" y1="272.7615966796875" y2="197.261474609375"/>
  <line class="GlobalId-3ueixdzqX9rwkXRYtaM0_W IfcAnnotation PredefinedType-LINEWORK" x1="224.04026794433594" x2="224.04026794433594" y1="272.7615966796875" y2="197.261474609375"/>
  <line class="GlobalId-3ueixdzqX9rwkXRYtaM0_W IfcAnnotation PredefinedType-LINEWORK" x1="231.0402374267578" x2="231.0402374267578" y1="272.7615966796875" y2="197.261474609375"/>
  <line class="GlobalId-3ueixdzqX9rwkXRYtaM0_W IfcAnnotation PredefinedType-LINEWORK" x1="231.5407257080078" x2="231.5407257080078" y1="272.7615966796875" y2="197.261474609375"/>
  <path class="GlobalId-2vx9kocif8sfDcsIPuiK0$ IfcAnnotation PredefinedType-gewapendbeton" d="M 198.04081916809082 180.7614803314209 L 298.0408191680908 180.7614803314209 L 298.0408191680908 174.76143836975098 L 198.04081916809082 174.76143836975098 L 198.04081916809082 180.7614803314209"/>
  <path class="GlobalId-0Fu5rtXnr7J9y752lkq2bA IfcAnnotation PredefinedType-afbreeklijn" d="M 278.1097888946533 119.12932395935059 L 385.5774402618408 119.12932395935059 L 385.5774402618408 68.58868598937988 L 278.1097888946533 68.58868598937988 L 278.1097888946533 119.12932395935059"/>
  <line class="GlobalId-3RFfcAOEj7ZB5j0KtH12c0 IfcAnnotation PredefinedType-LINEWORK breakline" x1="207.0404510498047" x2="251.0406951904297" y1="114.76139831542969" y2="114.76139831542969"/>
  <line class="GlobalId-3RFfcAOEj7ZB5j0KtH12c0 IfcAnnotation PredefinedType-LINEWORK breakline" x1="207.0404510498047" x2="251.0406951904297" y1="272.7615966796875" y2="272.7615966796875"/>
  <line class="GlobalId-3RFfcAOEj7ZB5j0KtH12c0 IfcAnnotation PredefinedType-LINEWORK breakline" x1="173.0408172607422" x2="173.0408172607422" y1="227.7615966796875" y2="182.76162719726562"/>
  <line class="GlobalId-0kxOJRtiDEeRZS8veAI7ki IfcAnnotation PredefinedType-LINEWORK" x1="218.04051208496094" x2="218.04051208496094" y1="193.76148986816406" y2="185.26148986816406"/>
  <line class="GlobalId-0kxOJRtiDEeRZS8veAI7ki IfcAnnotation PredefinedType-LINEWORK" x1="198.0408172607422" x2="218.04051208496094" y1="185.26148986816406" y2="185.26148986816406"/>
  <line class="GlobalId-0kxOJRtiDEeRZS8veAI7ki IfcAnnotation PredefinedType-LINEWORK" x1="218.04051208496094" x2="198.0408172607422" y1="193.76148986816406" y2="193.76148986816406"/>
  <line class="GlobalId-0kxOJRtiDEeRZS8veAI7ki IfcAnnotation PredefinedType-LINEWORK" x1="193.2404022216797" x2="193.2404022216797" y1="197.76158142089844" y2="207.76162719726562"/>
  <line class="GlobalId-2BfmlUAXT6TOwFhaFecWUp IfcAnnotation PredefinedType-GRID" stroke-dasharray="12.5, 3, 3, 3" x1="222.0406036376953" x2="222.0406036376953" y1="297.7615966796875" y2="73.76160430908203"/>
  <text class="GRID" dominant-baseline="middle" text-anchor="middle" x="222.0406036376953" y="297.7615966796875">A </text>
  <text class="GRID" dominant-baseline="middle" text-anchor="middle" x="222.0406036376953" y="73.76160430908203">A </text>
  <path class="GlobalId-1BjTFbIffBA9LwDG9rTEcG IfcAnnotation PredefinedType-black" d="M 198.04081916809082 197.76158332824707 L 198.04081916809082 183.26153755187988 L 197.14055061340332 183.26153755187988 L 197.14055061340332 196.8616008758545 L 188.44075202941895 196.8616008758545 L 188.44075202941895 197.76158332824707 L 198.04081916809082 197.76158332824707"/>
  <path class="GlobalId-38mzHl_gnAovO4SuUvwg6q IfcAnnotation PredefinedType-gewapendbeton" d="M 198.04081916809082 197.76158332824707 L 298.0408191680908 197.76158332824707 L 298.0408191680908 180.7614803314209 L 198.04081916809082 180.7614803314209 L 198.04081916809082 197.76158332824707"/>
</svg>
