<?xml version="1.0" encoding="utf-8" ?>
<svg xmlns="http://www.w3.org/2000/svg" xmlns:ev="http://www.w3.org/2001/xml-events" xmlns:ifc="http://www.ifcopenshell.org/ns" xmlns:xlink="http://www.w3.org/1999/xlink" baseProfile="full" data-scale="1:10" height="500.0000476837158mm" id="root" version="1.1" viewBox="0 0 500.0000476837158 500.0000476837158" width="500.0000476837158mm">
  <defs/>
  <path class="GlobalId-2vx9kocif8sfDcsIPuiK0$ IfcAnnotation PredefinedType-gewapendbeton" d="M 348.0407953262329 224.76141452789307 L 248.0407953262329 224.76141452789307 L 248.0407953262329 230.761456489563 L 348.0407953262329 230.761456489563 L 348.0407953262329 224.76141452789307"/>
  <line class="GlobalId-3RFfcAOEj7ZB5j0KtH12c0 IfcAnnotation PredefinedType-LINEWORK breakline" x1="223.04080200195312" x2="223.04080200195312" y1="277.7615661621094" y2="232.7615966796875"/>
  <line class="GlobalId-3RFfcAOEj7ZB5j0KtH12c0 IfcAnnotation PredefinedType-LINEWORK breakline" x1="257.0404357910156" x2="301.0406799316406" y1="322.7615661621094" y2="322.7615661621094"/>
  <line class="GlobalId-3RFfcAOEj7ZB5j0KtH12c0 IfcAnnotation PredefinedType-LINEWORK breakline" x1="257.0404357910156" x2="301.0406799316406" y1="164.76138305664062" y2="164.76138305664062"/>
  <path class="GlobalId-1BjTFbIffBA9LwDG9rTEcG IfcAnnotation PredefinedType-black" d="M 247.1405267715454 246.86157703399658 L 238.44072818756104 246.86157703399658 L 238.44072818756104 247.76155948638916 L 248.0407953262329 247.76155948638916 L 248.0407953262329 233.26151371002197 L 247.1405267715454 233.26151371002197 L 247.1405267715454 246.86157703399658"/>
  <path class="GlobalId-38mzHl_gnAovO4SuUvwg6q IfcAnnotation PredefinedType-gewapendbeton" d="M 348.0407953262329 230.761456489563 L 248.0407953262329 230.761456489563 L 248.0407953262329 247.76155948638916 L 348.0407953262329 247.76155948638916 L 348.0407953262329 230.761456489563"/>
  <path class="GlobalId-0iAyL1JgfFNg1q$eRGm8$Y IfcAnnotation PredefinedType-NEN471metselwerkbaksteen" d="M 272.04058170318604 148.76158237457275 L 272.04058170318604 224.76141452789307 L 286.0405206680298 224.76141452789307 L 286.0405206680298 148.76158237457275 L 272.04058170318604 148.76158237457275"/>
  <path class="GlobalId-0iAyL1JgfFNg1q$eRGm8$Y IfcAnnotation PredefinedType-NEN471metselwerkbaksteen" d="M 286.0405206680298 282.76169300079346 L 286.0405206680298 252.76167392730713 L 272.04058170318604 252.76167392730713 L 272.04058170318604 282.76169300079346 L 286.0405206680298 282.76169300079346"/>
  <path class="GlobalId-22rc$IT7T25x3GWoP8pDH3 IfcAnnotation PredefinedType-gewapendbetonprefab" d="M 348.0407953262329 247.76155948638916 L 272.04058170318604 247.76155948638916 L 272.04058170318604 252.76167392730713 L 348.0407953262329 252.76167392730713 L 348.0407953262329 247.76155948638916"/>
  <line class="GlobalId-30Wqp0C211w9U7$X1hggrF IfcAnnotation PredefinedType-SECTION" x1="113.61009979248047" x2="1113.3094482421875" y1="931.65625" y2="931.65625"/>
  <use transform="rotate(0.0, 113.61009979248047, 931.65625)" x="113.61009979248047" xlink:href="#section-arrow" y="931.65625"/>
  <use x="113.61009979248047" xlink:href="#section-tag" y="931.65625"/>
  <text class="SECTION" dominant-baseline="middle" text-anchor="middle" x="113.61009979248047" y="929.15625">-</text>
  <text class="SECTION" dominant-baseline="middle" text-anchor="middle" x="113.61009979248047" y="934.15625">-</text>
  <use transform="rotate(0.0, 1113.3094482421875, 931.65625)" x="1113.3094482421875" xlink:href="#section-arrow" y="931.65625"/>
  <use x="1113.3094482421875" xlink:href="#section-tag" y="931.65625"/>
  <text class="SECTION" dominant-baseline="middle" text-anchor="middle" x="1113.3094482421875" y="929.15625">-</text>
  <text class="SECTION" dominant-baseline="middle" text-anchor="middle" x="1113.3094482421875" y="934.15625">-</text>
  <line class="GlobalId-1JdXvC0nrE2fWsV_Etmald IfcAnnotation PredefinedType-DIMENSION" x1="272.04058837890625" x2="286.04052734375" y1="143.32801818847656" y2="143.32801818847656"/>
  <text dominant-baseline="baseline" style="font-size: 0;" text-anchor="middle" transform="translate(279.0405578613281, 142.32801818847656) rotate(0.0)">
    <tspan class="DIMENSION" dy="0em" x="0" y="0">140</tspan>
  </text>
  <line class="GlobalId-1JdXvC0nrE2fWsV_Etmald IfcAnnotation PredefinedType-DIMENSION" x1="352.2659606933594" x2="352.2659606933594" y1="224.76141357421875" y2="247.76156616210938"/>
  <text dominant-baseline="baseline" style="font-size: 0;" text-anchor="middle" transform="translate(353.2659606933594, 236.26148986816406) rotate(90.00000250447816)">
    <tspan class="DIMENSION" dy="0em" x="0" y="0">230</tspan>
  </text>
  <line class="GlobalId-1JdXvC0nrE2fWsV_Etmald IfcAnnotation PredefinedType-DIMENSION" x1="352.2659606933594" x2="352.2659606933594" y1="247.76156616210938" y2="252.7616729736328"/>
  <text dominant-baseline="baseline" style="font-size: 0;" text-anchor="middle" transform="translate(353.2659606933594, 250.26162719726562) rotate(90.00000250447816)">
    <tspan class="DIMENSION" dy="0em" x="0" y="0">50</tspan>
  </text>
  <path class="GlobalId-1YSAMlx5TECh_SRAMD5QWR IfcAnnotation PredefinedType-naaldhoutvurenCLT" d="M 272.04058170318604 247.76155948638916 L 196.04036808013916 247.76155948638916 L 196.04036808013916 262.7615213394165 L 272.04058170318604 262.7615213394165 L 272.04058170318604 247.76155948638916"/>
  <line class="GlobalId-3ueixdzqX9rwkXRYtaM0_W IfcAnnotation PredefinedType-dashed22 dashed22" x1="281.54071044921875" x2="281.54071044921875" y1="322.7615661621094" y2="247.26145935058594"/>
  <line class="GlobalId-3ueixdzqX9rwkXRYtaM0_W IfcAnnotation PredefinedType-dashed22 dashed22" x1="281.04022216796875" x2="281.04022216796875" y1="322.7615661621094" y2="247.26145935058594"/>
  <line class="GlobalId-3ueixdzqX9rwkXRYtaM0_W IfcAnnotation PredefinedType-dashed22 dashed22" x1="274.0402526855469" x2="274.0402526855469" y1="322.7615661621094" y2="247.26145935058594"/>
  <line class="GlobalId-3ueixdzqX9rwkXRYtaM0_W IfcAnnotation PredefinedType-dashed22 dashed22" x1="273.54052734375" x2="273.54052734375" y1="322.7615661621094" y2="247.26145935058594"/>
  <line class="GlobalId-0kxOJRtiDEeRZS8veAI7ki IfcAnnotation PredefinedType-LINEWORK" x1="243.24038696289062" x2="243.24038696289062" y1="247.76156616210938" y2="257.7615966796875"/>
  <line class="GlobalId-0kxOJRtiDEeRZS8veAI7ki IfcAnnotation PredefinedType-LINEWORK" x1="248.04080200195312" x2="268.0404968261719" y1="235.26145935058594" y2="235.26145935058594"/>
  <line class="GlobalId-0kxOJRtiDEeRZS8veAI7ki IfcAnnotation PredefinedType-LINEWORK" x1="268.0404968261719" x2="248.04080200195312" y1="243.761474609375" y2="243.761474609375"/>
  <line class="GlobalId-0kxOJRtiDEeRZS8veAI7ki IfcAnnotation PredefinedType-LINEWORK" x1="268.0404968261719" x2="268.0404968261719" y1="235.26145935058594" y2="243.761474609375"/>
  <path class="GlobalId-16UkJYj_bFzRfNhnHvRVMW IfcAnnotation PredefinedType-black" d="M 277.96785831451416 225.4457712173462 L 277.91597843170166 225.91145038604736 L 277.91597843170166 243.61145496368408 L 277.96785831451416 244.07713413238525 L 278.10823917388916 244.52412128448486 L 278.3317804336548 244.93610858917236 L 278.62932682037354 245.2977418899536 L 278.9909601211548 245.59576511383057 L 279.4029474258423 245.81902027130127 L 279.85002994537354 245.95930576324463 L 280.3154230117798 246.01147174835205 L 290.54033756256104 246.01147174835205 L 290.54033756256104 247.26145267486572 L 264.5408868789673 247.26145267486572 L 264.5408868789673 246.01147174835205 L 274.76580142974854 246.01147174835205 L 275.2311944961548 245.95930576324463 L 275.67827701568604 245.81902027130127 L 276.09026432037354 245.59576511383057 L 276.4518976211548 245.2977418899536 L 276.75020694732666 244.93610858917236 L 276.97298526763916 244.52412128448486 L 277.11336612701416 244.0770387649536 L 277.16524600982666 243.61145496368408 L 277.16524600982666 225.91145038604736 L 277.11336612701416 225.4457712173462 L 276.97298526763916 224.99878406524658 L 276.75020694732666 224.58679676055908 L 276.4518976211548 224.22516345977783 L 276.09026432037354 223.92714023590088 L 275.67827701568604 223.70388507843018 L 275.2311944961548 223.56359958648682 L 274.76580142974854 223.5114336013794 L 264.5408868789673 223.5114336013794 L 264.5408868789673 222.26145267486572 L 290.54033756256104 222.26145267486572 L 290.54033756256104 223.5114336013794 L 280.3154230117798 223.5114336013794 L 279.85002994537354 223.56359958648682 L 279.4029474258423 223.70388507843018 L 278.9909601211548 223.92714023590088 L 278.62932682037354 224.22516345977783 L 278.3317804336548 224.58679676055908 L 278.10823917388916 224.99878406524658 L 277.96785831451416 225.4457712173462"/>
  <line class="GlobalId-2BfmlUAXT6TOwFhaFecWUp IfcAnnotation PredefinedType-GRID grid" stroke-dasharray="12.5, 3, 3, 3" x1="272.04058837890625" x2="272.04058837890625" y1="347.7615661621094" y2="123.76158142089844"/>
  <text class="GRID" dominant-baseline="middle" text-anchor="middle" x="272.04058837890625" y="347.7615661621094">A </text>
  <text class="GRID" dominant-baseline="middle" text-anchor="middle" x="272.04058837890625" y="123.76158142089844">A </text>
</svg>
