<?xml version="1.0" encoding="utf-8" ?>
<svg xmlns="http://www.w3.org/2000/svg" xmlns:ev="http://www.w3.org/2001/xml-events" xmlns:ifc="http://www.ifcopenshell.org/ns" xmlns:xlink="http://www.w3.org/1999/xlink" baseProfile="full" data-scale="1:50" height="499.9153691210496mm" id="root" version="1.1" viewBox="0 0 599.8307037353516 499.9153691210496" width="599.8307037353516mm">
  <defs/>
  <use transform="translate(252.43389892578125, 223.0402374267578) rotate(-0.0) scale(1.0)" xlink:href="#hwa"/>
  <path class="GlobalId-3pSj0wryD4D9J$6Lv5Eq_I IfcAnnotation PredefinedType-NEN474nietdragendelichtescheidingswanden" d="M 100.42591094970703 61.04021935056387 L 94.4259262084961 61.04021935056387 L 94.4259262084961 63.040226979958405 L 100.42591094970703 63.040226979958405 L 100.42591094970703 61.04021935056387"/>
  <path class="GlobalId-30kQqRmTLEpO$tFefvkCs$ IfcAnnotation PredefinedType-isolatieglaswol" d="M 300.42591094970703 52.04020409177481 L 294.4259262084961 52.04020409177481 L 294.4259262084961 54.04021172116934 L 300.42591094970703 54.04021172116934 L 300.42591094970703 52.04020409177481"/>
  <path class="GlobalId-3rfU_8A$5ETxHUu9OTFelX IfcAnnotation PredefinedType-maaiveldasfalt" d="M 350.42591094970703 58.04018883298575 L 344.4259262084961 58.04018883298575 L 344.4259262084961 60.04019646238028 L 350.42591094970703 60.04019646238028 L 350.42591094970703 58.04018883298575"/>
  <path class="GlobalId-3VRiW3Mwz5iB7fDuZbYMG3 IfcAnnotation PredefinedType-NEN4728water" d="M 100.42591094970703 126.04025749753653 L 94.4259262084961 126.04025749753653 L 94.4259262084961 128.04026512693105 L 100.42591094970703 128.04026512693105 L 100.42591094970703 126.04025749753653"/>
  <path class="GlobalId-1eXVA4EufBIuAiXNJXtrgu IfcAnnotation PredefinedType-maaiveldalgemeen" d="M 350.42591094970703 52.04020409177481 L 344.4259262084961 52.04020409177481 L 344.4259262084961 54.04021172116934 L 350.42591094970703 54.04021172116934 L 350.42591094970703 52.04020409177481"/>
  <path class="GlobalId-0IlpgNKnrAbRA0Ew56ezTf IfcAnnotation PredefinedType-bekledingsplaatrodespaan" d="M 250.42591094970703 129.04024986814198 L 244.4259262084961 129.04024986814198 L 244.4259262084961 131.04025749753652 L 250.42591094970703 131.04025749753652 L 250.42591094970703 129.04024986814198"/>
  <path class="GlobalId-29uOB1F7f9Hv6Ke_wqjIpG IfcAnnotation PredefinedType-naaldhoutiroko" d="M 250.42591094970703 92.04024223874747 L 244.4259262084961 92.04024223874747 L 244.4259262084961 94.040249868142 L 250.42591094970703 94.040249868142 L 250.42591094970703 92.04024223874747"/>
  <path class="GlobalId-1nqzola0bClwMC9aSWNWC9 IfcAnnotation PredefinedType-naaldhoutazobe" d="M 250.42591094970703 101.04025749753653 L 244.4259262084961 101.04025749753653 L 244.4259262084961 103.04026512693106 L 250.42591094970703 103.04026512693106 L 250.42591094970703 101.04025749753653"/>
  <path class="GlobalId-2vi$uPpcD78OTgt$ii_WY7 IfcAnnotation PredefinedType-glass" d="M 44.33452606201172 109.04032616208731 L 50.334510803222656 109.04032616208731 L 50.334510803222656 107.04028038572012 L 44.33452606201172 107.04028038572012 L 44.33452606201172 109.04032616208731"/>
  <path class="GlobalId-3vSra0xSrA49pgFqxb6pf_ IfcAnnotation PredefinedType-earth" d="M 44.33452606201172 106.04033379148184 L 50.334510803222656 106.04033379148184 L 50.334510803222656 104.04032616208731 L 44.33452606201172 104.04032616208731 L 44.33452606201172 106.04033379148184"/>
  <line class="GlobalId-3NXsbdJnr7WOb57qN0ZQu8 IfcAnnotation PredefinedType-DIMENSION normaal" x1="352.43389892578125" x2="362.43389892578125" y1="205.04025268554688" y2="205.04025268554688"/>
  <text dominant-baseline="baseline" style="font-size: 0;" text-anchor="middle" transform="translate(357.43389892578125, 204.04025268554688) rotate(0.0)">
    <tspan class="DIMENSION" dy="0em" x="0" y="0">500</tspan>
  </text>
  <line class="GlobalId-3NXsbdJnr7WOb57qN0ZQu8 IfcAnnotation PredefinedType-DIMENSION normaal" x1="362.43389892578125" x2="390.43389892578125" y1="205.04025268554688" y2="205.04025268554688"/>
  <text dominant-baseline="baseline" style="font-size: 0;" text-anchor="middle" transform="translate(376.43389892578125, 204.04025268554688) rotate(0.0)">
    <tspan class="DIMENSION" dy="0em" x="0" y="0">1400</tspan>
  </text>
  <line class="GlobalId-3NXsbdJnr7WOb57qN0ZQu8 IfcAnnotation PredefinedType-DIMENSION normaal" x1="390.43389892578125" x2="392.43389892578125" y1="205.04025268554688" y2="205.04025268554688"/>
  <text dominant-baseline="baseline" style="font-size: 0;" text-anchor="middle" transform="translate(395.43389892578125, 204.04025268554688) rotate(0.0)">
    <tspan class="DIMENSION" dy="0em" x="0" y="0">100</tspan>
  </text>
  <path class="GlobalId-1ZRQRjE$r1GBqhg$ceU6Sx IfcAnnotation PredefinedType-metselwerkbaksteencement" d="M 200.42591094970703 58.040226979958405 L 194.4259262084961 58.040226979958405 L 194.4259262084961 60.040234609352936 L 200.42591094970703 60.040234609352936 L 200.42591094970703 58.040226979958405"/>
  <path class="GlobalId-0190BnIgH7sBRnXaNQg4b0 IfcAnnotation PredefinedType-naaldhoutjatoba" d="M 250.42591094970703 70.04023460935294 L 244.4259262084961 70.04023460935294 L 244.4259262084961 72.04024223874747 L 250.42591094970703 72.04024223874747 L 250.42591094970703 70.04023460935294"/>
  <line class="GlobalId-19UoUVDSLCIRRU_n_Yl$23 IfcAnnotation PredefinedType-LINEWORK darkgrey" x1="116.59175872802734" x2="146.59176635742188" y1="214.0402374267578" y2="214.0402374267578"/>
  <path class="GlobalId-2Lhsx5moDFiOdQgqQoF0WM IfcAnnotation PredefinedType-NEN473metselwerknietgebakkenkunststeen" d="M 100.42591094970703 58.040226979958405 L 94.4259262084961 58.040226979958405 L 94.4259262084961 60.040234609352936 L 100.42591094970703 60.040234609352936 L 100.42591094970703 58.040226979958405"/>
  <path class="GlobalId-2OsPQmiEnDOfEIT2ITM2hR IfcAnnotation PredefinedType-naaldhoutvurenCLT" d="M 250.42591094970703 107.04024223874747 L 244.4259262084961 107.04024223874747 L 244.4259262084961 109.040249868142 L 250.42591094970703 109.040249868142 L 250.42591094970703 107.04024223874747"/>
  <line class="GlobalId-3ndw7t$9HFDfOaZa9MnuJR IfcAnnotation PredefinedType-LINEWORK thick" x1="44.33452606201172" x2="74.33452606201172" y1="269.691650390625" y2="269.6916198730469"/>
  <path class="GlobalId-3dVmG6d3f4HvhubUsTccaU IfcAnnotation PredefinedType-white25" d="M 400.42591094970703 61.04048637937247 L 394.4259262084961 61.04048637937247 L 394.4259262084961 59.04044060300528 L 400.42591094970703 59.04044060300528 L 400.42591094970703 61.04048637937247"/>
  <path class="GlobalId-32Kp1hUe9D3hjW9ho7widc IfcAnnotation PredefinedType-samengesteldewandvloerafwerking" d="M 150.42591094970703 79.04021172116934 L 144.4259262084961 79.04021172116934 L 144.4259262084961 81.04021935056387 L 150.42591094970703 81.04021935056387 L 150.42591094970703 79.04021172116934"/>
  <path class="GlobalId-3933gwrXn918$XzY9qyIiF IfcAnnotation PredefinedType-NEN476gewapendbetonprefab" d="M 100.42591094970703 64.040249868142 L 94.4259262084961 64.040249868142 L 94.4259262084961 66.04025749753653 L 100.42591094970703 66.04025749753653 L 100.42591094970703 64.040249868142"/>
  <path class="GlobalId-1pr1lgvRrEJf9q2HmORZC1 IfcAnnotation PredefinedType-isolatiePUR" d="M 300.42591094970703 64.040249868142 L 294.4259262084961 64.040249868142 L 294.4259262084961 66.04025749753653 L 300.42591094970703 66.04025749753653 L 300.42591094970703 64.040249868142"/>
  <path class="GlobalId-1r2J7t0h52P8LgAvUqboJz IfcAnnotation PredefinedType-NEN4722kunststof" d="M 100.42591094970703 107.04024223874747 L 94.4259262084961 107.04024223874747 L 94.4259262084961 109.040249868142 L 100.42591094970703 109.040249868142 L 100.42591094970703 107.04024223874747"/>
  <path class="GlobalId-2QbkEP28f5GPLCjHt_1rF7 IfcAnnotation PredefinedType-isolatiePIR" d="M 300.42591094970703 58.040226979958405 L 294.4259262084961 58.040226979958405 L 294.4259262084961 60.040234609352936 L 300.42591094970703 60.040234609352936 L 300.42591094970703 58.040226979958405"/>
  <marker id="revision-cloud-0boYZRr755b9ZSEoMvdxaK" markerHeight="15.0" markerUnits="userSpaceOnUse" markerWidth="19.0" orient="auto" refX="2.0" refY="5.0">
    <path d="m2.0,5.0 c0,-2 5,-2 5,0 c0,-2.5 5,-2.5 5,0 c0,-1.5 5,-1.5 5,0" style="fill: none; stroke:red; stroke-width:0.20"/>
  </marker>
  <polyline class="GlobalId-0boYZRr755b9ZSEoMvdxaK IfcAnnotation PredefinedType-REVISIONCLOUD" points="0.0,0.0 15.0,0.0" style="marker: url(#revision-cloud-0boYZRr755b9ZSEoMvdxaK); stroke: none; " transform="translate(44.33452606201172, 385.0402526855469) scale(1.000000, 1.000000)"/>
  <polyline class="GlobalId-0boYZRr755b9ZSEoMvdxaK IfcAnnotation PredefinedType-REVISIONCLOUD" points="0.0,0.0 0.0,15.0" style="marker: url(#revision-cloud-0boYZRr755b9ZSEoMvdxaK); stroke: none; marker-end: none; " transform="translate(74.33452606201172, 385.0402526855469) scale(1.000000, 0.333333)"/>
  <polyline class="GlobalId-0boYZRr755b9ZSEoMvdxaK IfcAnnotation PredefinedType-REVISIONCLOUD" points="-0.0,0.0 -15.0,0.0" style="marker: url(#revision-cloud-0boYZRr755b9ZSEoMvdxaK); stroke: none; " transform="translate(74.33452606201172, 390.0402526855469) scale(1.000000, 1.000000)"/>
  <polyline class="GlobalId-0boYZRr755b9ZSEoMvdxaK IfcAnnotation PredefinedType-REVISIONCLOUD" points="0.0,-0.0 0.0,-15.0" style="marker: url(#revision-cloud-0boYZRr755b9ZSEoMvdxaK); stroke: none; marker-end: none; " transform="translate(44.33452606201172, 390.0402526855469) scale(1.000000, 0.333333)"/>
  <line class="GlobalId-1IrLu0wJDCeOP_rjDTPlSB IfcAnnotation PredefinedType-LINEWORK zwart" x1="116.59175872802734" x2="146.59176635742188" y1="205.04025268554688" y2="205.04025268554688"/>
  <line class="GlobalId-2MGf6EhiDBou$JqHi8rJ3o IfcAnnotation PredefinedType-LINEWORK dashed" x1="44.33452606201172" x2="74.33452606201172" y1="233.69161987304688" y2="233.69161987304688"/>
  <path class="GlobalId-0Bvj615G5FngWDbyXbSUo0 IfcAnnotation PredefinedType-NEN4713loofhout" d="M 100.42591094970703 92.04024223874747 L 94.4259262084961 92.04024223874747 L 94.4259262084961 94.040249868142 L 100.42591094970703 94.040249868142 L 100.42591094970703 92.04024223874747"/>
  <path class="GlobalId-1IhItY0w92oQj0_mBTLPpm IfcAnnotation PredefinedType-naaldhoutbangkirai" d="M 250.42591094970703 98.0402269799584 L 244.4259262084961 98.0402269799584 L 244.4259262084961 100.04023460935294 L 250.42591094970703 100.04023460935294 L 250.42591094970703 98.0402269799584"/>
  <path class="GlobalId-37bqQNK355a9I1$5p91fUv IfcAnnotation PredefinedType-NEN4727grind" d="M 100.42591094970703 123.0402269799584 L 94.4259262084961 123.0402269799584 L 94.4259262084961 125.04023460935294 L 100.42591094970703 125.04023460935294 L 100.42591094970703 123.0402269799584"/>
  <path class="GlobalId-0rjYDpKETE6gzeMEzCPw$g IfcAnnotation PredefinedType-NEN477ongewapendbeton" d="M 100.42591094970703 67.04020409177481 L 94.4259262084961 67.04020409177481 L 94.4259262084961 69.04021172116934 L 100.42591094970703 69.04021172116934 L 100.42591094970703 67.04020409177481"/>
  <path class="GlobalId-0fTFwhoJL9GRl42Eeww19j IfcAnnotation PredefinedType-crosshatch3" d="M 44.33452606201172 100.04038719724356 L 50.334510803222656 100.04038719724356 L 50.334510803222656 98.04034142087637 L 44.33452606201172 98.04034142087637 L 44.33452606201172 100.04038719724356"/>
  <path class="GlobalId-3nZnS$AxTFK93HNGwPXie$ IfcAnnotation PredefinedType-crosshatch1" d="M 44.33452606201172 94.04040245603262 L 50.334510803222656 94.04040245603262 L 50.334510803222656 92.04035667966544 L 44.33452606201172 92.04035667966544 L 44.33452606201172 94.04040245603262"/>
  <path class="GlobalId-1FvyDHvQ9CBQ8mPeb4iwJF IfcAnnotation PredefinedType-gewapendbetonprefab" d="M 150.42591094970703 64.040249868142 L 144.4259262084961 64.040249868142 L 144.4259262084961 66.04025749753653 L 150.42591094970703 66.04025749753653 L 150.42591094970703 64.040249868142"/>
  <path class="GlobalId-2ovzgbQP9Fqwq$GH0j0j8d IfcAnnotation PredefinedType-isolatiesteenwol" d="M 300.42591094970703 55.040234609352936 L 294.4259262084961 55.040234609352936 L 294.4259262084961 57.04024223874747 L 300.42591094970703 57.04024223874747 L 300.42591094970703 55.040234609352936"/>
  <line class="GlobalId-2cF8DNtnv929RGgQJ$Oj0U IfcAnnotation PredefinedType-LINEWORK fine" x1="44.33452606201172" x2="74.33452606201172" y1="242.69163513183594" y2="242.69161987304688"/>
  <line class="GlobalId-3yI4graDf6rRrXywQsu41k IfcAnnotation PredefinedType-LINEWORK thin" x1="44.33452606201172" x2="74.33452606201172" y1="251.691650390625" y2="251.69161987304688"/>
  <path class="GlobalId-1vUY4b3398Ve217xEAcH2W IfcAnnotation PredefinedType-metselwerkbaksteenrood" d="M 200.42591094970703 55.040234609352936 L 194.4259262084961 55.040234609352936 L 194.4259262084961 57.04024223874747 L 200.42591094970703 57.04024223874747 L 200.42591094970703 55.040234609352936"/>
  <path class="GlobalId-3_PFt4X996rAgebvskVbdM IfcAnnotation PredefinedType-FALL" d="M 44.33452606201172 364.04015450071034 L 74.33452606201172 364.04015450071034"/>
  <text class="RADIUS" dominant-baseline="middle" text-anchor="middle" x="42.33452606201172" y="364.0401611328125">0°</text>
  <path class="GlobalId-16ETe0ayT7CfLhSg$rCUPb IfcAnnotation PredefinedType-brick" d="M 44.33452606201172 103.04034142087637 L 50.334510803222656 103.04034142087637 L 50.334510803222656 101.04029564450919 L 44.33452606201172 101.04029564450919 L 44.33452606201172 103.04034142087637"/>
  <path class="GlobalId-2M95Sl8Z59RvV_w5WQjIXM IfcAnnotation PredefinedType-nietdragendelichtescheidingswanden" d="M 150.42591094970703 61.04021935056387 L 144.4259262084961 61.04021935056387 L 144.4259262084961 63.040226979958405 L 150.42591094970703 63.040226979958405 L 150.42591094970703 61.04021935056387"/>
  <path class="GlobalId-0circNrvf7IBFPhqoUywP_ IfcAnnotation PredefinedType-lood" d="M 150.42591094970703 104.04021172116934 L 144.4259262084961 104.04021172116934 L 144.4259262084961 106.04021935056387 L 150.42591094970703 106.04021935056387 L 150.42591094970703 104.04021172116934"/>
  <path class="GlobalId-25IP1_eevEmRZnVGc56tcZ IfcAnnotation PredefinedType-metselwerkbaksteentras" d="M 200.42591094970703 61.04021935056387 L 194.4259262084961 61.04021935056387 L 194.4259262084961 63.040226979958405 L 200.42591094970703 63.040226979958405 L 200.42591094970703 61.04021935056387"/>
  <line class="GlobalId-32WeeR$br9gx2IKDEYD_M_ IfcAnnotation PredefinedType-LINEWORK medium" x1="44.33452606201172" x2="74.33452606201172" y1="260.6916198730469" y2="260.69158935546875"/>
  <path class="GlobalId-3FuqmFiYD96f4DAJbZP56g IfcAnnotation PredefinedType-FILLAREA" d="M 44.33452606201172 54.040173574196686 L 50.334510803222656 54.040173574196686 L 50.334510803222656 52.040165944802155 L 44.33452606201172 52.040165944802155 L 44.33452606201172 54.040173574196686"/>
  <path class="GlobalId-3XGSOK0UPAPQ1alh27VI7t IfcAnnotation PredefinedType-bekledingsplaatunderlayment" d="M 250.42591094970703 135.04023460935292 L 244.4259262084961 135.04023460935292 L 244.4259262084961 137.04024223874745 L 250.42591094970703 137.04024223874745 L 250.42591094970703 135.04023460935292"/>
  <path class="GlobalId-0lbeXt1EL29wwmAdjJGUjK IfcAnnotation PredefinedType-grind" d="M 150.42591094970703 123.0402269799584 L 144.4259262084961 123.0402269799584 L 144.4259262084961 125.04023460935294 L 150.42591094970703 125.04023460935294 L 150.42591094970703 123.0402269799584"/>
  <path class="GlobalId-1ntbdwNp13JuC6rIlkXUlb IfcAnnotation PredefinedType-loofhout" d="M 150.42591094970703 92.04024223874747 L 144.4259262084961 92.04024223874747 L 144.4259262084961 94.040249868142 L 150.42591094970703 94.040249868142 L 150.42591094970703 92.04024223874747"/>
  <path class="GlobalId-38PZGObfbDtP5g_cUkca2l IfcAnnotation PredefinedType-RADIUS" d="M 124.33452606201172 420.66033935546875 L 154.33453369140625 420.66033935546875"/>
  <text dominant-baseline="middle" style="font-size: 0;" text-anchor="middle" transform="translate(119.33452606201172, 420.66033935546875) rotate(0.0)">
    <tspan class="RADIUS" dy="0em" x="0" y="0">R1500</tspan>
  </text>
  <line class="GlobalId-2tFpgkQ19FI8VEHjnb_WJD IfcAnnotation PredefinedType-LINEWORK grey" x1="116.59175872802734" x2="146.59176635742188" y1="223.04025268554688" y2="223.04025268554688"/>
  <path class="GlobalId-11pVRkgO972ueqJhHfU_9h IfcAnnotation PredefinedType-natuursteenhardsteen" d="M 200.42591094970703 70.04023460935294 L 194.4259262084961 70.04023460935294 L 194.4259262084961 72.04024223874747 L 200.42591094970703 72.04024223874747 L 200.42591094970703 70.04023460935294"/>
  <path class="GlobalId-3esnRsvuD6nw3n8sF5k78H IfcAnnotation PredefinedType-white50" d="M 400.42591094970703 64.04051689695059 L 394.4259262084961 64.04051689695059 L 394.4259262084961 62.040471120583405 L 400.42591094970703 62.040471120583405 L 400.42591094970703 64.04051689695059"/>
  <path class="GlobalId-17EARs7rD7ZAt8Y$UZRad3 IfcAnnotation PredefinedType-enkelewandvloerafwerking" d="M 150.42591094970703 76.04021935056387 L 144.4259262084961 76.04021935056387 L 144.4259262084961 78.0402269799584 L 150.42591094970703 78.0402269799584 L 150.42591094970703 76.04021935056387"/>
  <path class="GlobalId-3EgaQcQwHE395e30zECGME IfcAnnotation PredefinedType-maaiveldveen" d="M 350.42591094970703 64.04021172116934 L 344.4259262084961 64.04021172116934 L 344.4259262084961 66.04021935056387 L 350.42591094970703 66.04021935056387 L 350.42591094970703 64.04021172116934"/>
  <path class="GlobalId-1bCjD9SPn61xexS84CNRwK IfcAnnotation PredefinedType-naaldhoutvurengewolmaniseerd" d="M 250.42591094970703 55.040234609352936 L 244.4259262084961 55.040234609352936 L 244.4259262084961 57.04024223874747 L 250.42591094970703 57.04024223874747 L 250.42591094970703 55.040234609352936"/>
  <path class="GlobalId-1_1DUO4m58AhCyyRz0U82j IfcAnnotation PredefinedType-diagonal3" d="M 44.33452606201172 91.04025749753653 L 50.334510803222656 91.04025749753653 L 50.334510803222656 89.040249868142 L 44.33452606201172 89.040249868142 L 44.33452606201172 91.04025749753653"/>
  <path class="GlobalId-0iC2HuO$bE2vcXAeECmLHQ IfcAnnotation PredefinedType-crosshatch2" d="M 44.33452606201172 97.04035667966544 L 50.334510803222656 97.04035667966544 L 50.334510803222656 95.04031090329825 L 44.33452606201172 95.04031090329825 L 44.33452606201172 97.04035667966544"/>
  <path class="GlobalId-344sVcU8fC$u$EtGmcDL9h IfcAnnotation PredefinedType-naaldhoutmahonie" d="M 250.42591094970703 73.04026512693106 L 244.4259262084961 73.04026512693106 L 244.4259262084961 75.04027275632559 L 250.42591094970703 75.04027275632559 L 250.42591094970703 73.04026512693106"/>
  <use transform="translate(252.43389892578125, 205.04025268554688) rotate(-0.0) scale(1.0)" xlink:href="#c1"/>
  <path class="GlobalId-1eM53QGi112R1lc2MpCeHa IfcAnnotation PredefinedType-sierbeton" d="M 150.42591094970703 70.04023460935294 L 144.4259262084961 70.04023460935294 L 144.4259262084961 72.04024223874747 L 150.42591094970703 72.04024223874747 L 150.42591094970703 70.04023460935294"/>
  <path class="GlobalId-1NpK$aAMj158pAFb8lOApM IfcAnnotation PredefinedType-isolatieEPS" d="M 300.42591094970703 67.04020409177481 L 294.4259262084961 67.04020409177481 L 294.4259262084961 69.04021172116934 L 300.42591094970703 69.04021172116934 L 300.42591094970703 67.04020409177481"/>
  <path class="GlobalId-2WvuyfDZf4$xBLxm8fYJhG IfcAnnotation PredefinedType-metselwerkbaksteenporiso" d="M 200.42591094970703 52.04020409177481 L 194.4259262084961 52.04020409177481 L 194.4259262084961 54.04021172116934 L 200.42591094970703 54.04021172116934 L 200.42591094970703 52.04020409177481"/>
  <path class="GlobalId-1ZYZU_225AAQYXVGuEaMoN IfcAnnotation PredefinedType-kunststof" d="M 150.42591094970703 107.04024223874747 L 144.4259262084961 107.04024223874747 L 144.4259262084961 109.040249868142 L 150.42591094970703 109.040249868142 L 150.42591094970703 107.04024223874747"/>
  <path class="GlobalId-0Ie_q86NrA7vlOou4NaGJZ IfcAnnotation PredefinedType-white75" d="M 400.42591094970703 67.04054741452872 L 394.4259262084961 67.04054741452872 L 394.4259262084961 65.04050163816153 L 400.42591094970703 65.04050163816153 L 400.42591094970703 67.04054741452872"/>
  <line class="GlobalId-1wixfdqin6pOEPxv0EzUQ1 IfcAnnotation PredefinedType-LINEWORK strong" x1="44.33452606201172" x2="74.33452606201172" y1="278.691650390625" y2="278.691650390625"/>
  <path class="GlobalId-36EFjQyfX6yw4A50gTdtiN IfcAnnotation PredefinedType-STEEL" d="M 44.33452606201172 63.04030327390372 L 50.334510803222656 63.04030327390372 L 50.334510803222656 61.04025749753653 L 44.33452606201172 61.04025749753653 L 44.33452606201172 63.04030327390372"/>
  <marker id="batting-0ddmto0QP9X9x4qHWED8fL" markerHeight="15.0" markerUnits="userSpaceOnUse" markerWidth="6.0" orient="auto" refX="0" refY="7.5">
    <path d="M 0 3.0 A 3.0 3.0 0 0 1 6.0 3.0 L 3.0 12.0 M 0 3.0 L 3.0 12.0 A 3.0 3.0 0 0 0 6.0 15.0 M 3.0 12.0 A 3.0 3.0 0 0 1 0 15.0" style="fill: none; stroke:black; stroke-width:0.18"/>
  </marker>
  <marker id="batting-end-0ddmto0QP9X9x4qHWED8fL" markerHeight="15.0" markerUnits="userSpaceOnUse" markerWidth="6.0" orient="auto" refX="0" refY="7.5">
    <path d="M 0 3.0 A 3.0 3.0 0 0 1 6.0 3.0 L 3.0 12.0 M 0 3.0 L 3.0 12.0 A 3.0 3.0 0 0 0 6.0 15.0 M 3.0 12.0 A 3.0 3.0 0 0 1 0 15.0" style="fill: none; stroke:black; stroke-width:0.18"/>
  </marker>
  <polyline class="GlobalId-0ddmto0QP9X9x4qHWED8fL IfcAnnotation PredefinedType-BATTING" points="44.334449768066406,413.3997802734375 50.334449768066406,413.3997802734375 56.334449768066406,413.3997802734375 62.334449768066406,413.3997802734375 68.3344497680664,413.3997802734375" style="marker-start: url(#batting-0ddmto0QP9X9x4qHWED8fL); marker-mid: url(#batting-0ddmto0QP9X9x4qHWED8fL); stroke: none; marker-end: url(#batting-end-0ddmto0QP9X9x4qHWED8fL); stroke: none; "/>
  <use transform="translate(252.43389892578125, 271.04022216796875) rotate(-0.0) scale(1.0)" xlink:href="#wapsym"/>
  <path class="GlobalId-2rTyH1xnf8TuROGgmK672T IfcAnnotation PredefinedType-naaldhoutvuren" d="M 250.42591094970703 52.04020409177481 L 244.4259262084961 52.04020409177481 L 244.4259262084961 54.04021172116934 L 250.42591094970703 54.04021172116934 L 250.42591094970703 52.04020409177481"/>
  <path class="GlobalId-3UUg7MtTP9SAW6wkgUX6TV IfcAnnotation PredefinedType-natuursteen" d="M 150.42591094970703 73.0402269799584 L 144.4259262084961 73.0402269799584 L 144.4259262084961 75.04023460935294 L 150.42591094970703 75.04023460935294 L 150.42591094970703 73.0402269799584"/>
  <path class="GlobalId-3L04xHQrjDHOKv_mRbY5J3 IfcAnnotation PredefinedType-naaldhout" d="M 150.42591094970703 89.040249868142 L 144.4259262084961 89.040249868142 L 144.4259262084961 91.04025749753653 L 150.42591094970703 91.04025749753653 L 150.42591094970703 89.040249868142"/>
  <use transform="translate(252.43389892578125, 214.0402374267578) rotate(-0.0) scale(1.0)" xlink:href="#g10"/>
  <path class="GlobalId-22RmY5b2nAp9Xzu$GpNgp7 IfcAnnotation PredefinedType-bekledingsplaatokoume" d="M 250.42591094970703 126.04025749753653 L 244.4259262084961 126.04025749753653 L 244.4259262084961 128.04026512693105 L 250.42591094970703 128.04026512693105 L 250.42591094970703 126.04025749753653"/>
  <path class="GlobalId-1CTBT71Of2rRdSw2Khm9VQ IfcAnnotation PredefinedType-glasmat" d="M 400.42591094970703 55.040234609352936 L 394.4259262084961 55.040234609352936 L 394.4259262084961 57.04024223874747 L 400.42591094970703 57.04024223874747 L 400.42591094970703 55.040234609352936"/>
  <path class="GlobalId-02uzpyjif27BjODvm9zupl IfcAnnotation PredefinedType-natuursteenkalksteen" d="M 200.42591094970703 76.04025749753653 L 194.4259262084961 76.04025749753653 L 194.4259262084961 78.04026512693106 L 200.42591094970703 78.04026512693106 L 200.42591094970703 76.04025749753653"/>
  <path class="GlobalId-3BEgVC0mT92AJ9K$8vWNCl IfcAnnotation PredefinedType-afdichtingsmiddel" d="M 150.42591094970703 110.04023460935294 L 144.4259262084961 110.04023460935294 L 144.4259262084961 112.04024223874747 L 150.42591094970703 112.04024223874747 L 150.42591094970703 110.04023460935294"/>
  <path class="GlobalId-2APn0soUb7DxF9nzzO8qG5 IfcAnnotation PredefinedType-maaiveldgrond" d="M 350.42591094970703 55.040234609352936 L 344.4259262084961 55.040234609352936 L 344.4259262084961 57.04024223874747 L 350.42591094970703 57.04024223874747 L 350.42591094970703 55.040234609352936"/>
  <path class="GlobalId-1iwlVtjb91ku_wV$Bzcd81 IfcAnnotation PredefinedType-CONCRETE" d="M 44.33452606201172 66.04025749753653 L 50.334510803222656 66.04025749753653 L 50.334510803222656 64.04021172116934 L 44.33452606201172 64.04021172116934 L 44.33452606201172 66.04025749753653"/>
  <path class="GlobalId-0YGcXDjGz1pu2WpzTytC3O IfcAnnotation PredefinedType-NEN472specialesteenachtigematerialen" d="M 100.42591094970703 55.040234609352936 L 94.4259262084961 55.040234609352936 L 94.4259262084961 57.04024223874747 L 100.42591094970703 57.04024223874747 L 100.42591094970703 55.040234609352936"/>
  <path class="GlobalId-24KfCbzXzDxQiKoZizWOd2 IfcAnnotation PredefinedType-SEALANT" d="M 44.33452606201172 72.04024223874747 L 50.334510803222656 72.04024223874747 L 50.334510803222656 70.04019646238028 L 44.33452606201172 70.04019646238028 L 44.33452606201172 72.04024223874747"/>
  <path class="GlobalId-01g2wTHC1EfO$ooRxRM0rK IfcAnnotation PredefinedType-ongewapendbeton" d="M 150.42591094970703 67.04020409177481 L 144.4259262084961 67.04020409177481 L 144.4259262084961 69.04021172116934 L 150.42591094970703 69.04021172116934 L 150.42591094970703 67.04020409177481"/>
  <path class="GlobalId-1TIIG7$vP51uDZKJA_Ao2X IfcAnnotation PredefinedType-blank" d="M 50.334510803222656 73.0402269799584 L 44.33452606201172 73.0402269799584 L 44.33452606201172 75.04023460935294 L 50.334510803222656 75.04023460935294 L 50.334510803222656 73.0402269799584"/>
  <path class="GlobalId-36_ak3Imz9px5d5MavVIeA IfcAnnotation PredefinedType-diagonal2" d="M 50.334510803222656 79.04021172116934 L 44.33452606201172 79.04021172116934 L 44.33452606201172 81.04021935056387 L 50.334510803222656 81.04021935056387 L 50.334510803222656 79.04021172116934"/>
  <path class="GlobalId-0_R3JkTKXAPPixy_iqtcJX IfcAnnotation PredefinedType-diagonal1" d="M 50.334510803222656 76.04021935056387 L 44.33452606201172 76.04021935056387 L 44.33452606201172 78.0402269799584 L 50.334510803222656 78.0402269799584 L 50.334510803222656 76.04021935056387"/>
  <path class="GlobalId-2$TV5f55L0QuZpzS2sf61B IfcAnnotation PredefinedType-natuursteentuf" d="M 200.42591094970703 79.040249868142 L 194.4259262084961 79.040249868142 L 194.4259262084961 81.04025749753653 L 200.42591094970703 81.04025749753653 L 200.42591094970703 79.040249868142"/>
  <line class="GlobalId-3yvQL1PpX2HA9$4athWZH1 IfcAnnotation PredefinedType-DIAMETER" x1="124.33452606201172" x2="154.33453369140625" y1="406.66033935546875" y2="406.66033935546875"/>
  <text dominant-baseline="baseline" style="font-size: 0;" text-anchor="middle" transform="translate(139.33453369140625, 405.66033935546875) rotate(0.0)">
    <tspan class="DIMENSION" dy="0em" x="0" y="0">D1500</tspan>
  </text>
  <path class="GlobalId-3PRUN0h4XC3Q5oz1U_1GlM IfcAnnotation PredefinedType-bekledingsplaat" d="M 150.42591094970703 98.0402269799584 L 144.4259262084961 98.0402269799584 L 144.4259262084961 100.04023460935294 L 150.42591094970703 100.04023460935294 L 150.42591094970703 98.0402269799584"/>
  <text class="ANGLE" dominant-baseline="middle" text-anchor="middle" x="148.423828125" y="432.2557678222656">30.0°</text>
  <path class="GlobalId-11mwuc_f94Yx$EUwy7kEWW IfcAnnotation PredefinedType-ANGLE" d="M 144.26068115234375 438.66033935546875 A 19.926155330614222 19.926155330614222 0 0 0 141.62965393066406 428.7643737792969"/>
  <line class="GlobalId-30dyAdF658Xgq7GeYyOq4m IfcAnnotation PredefinedType-LINEWORK dashed_2_2" x1="116.59175872802734" x2="146.59176635742188" y1="232.0402374267578" y2="232.0402374267578"/>
  <use transform="translate(252.43389892578125, 281.04022216796875) rotate(-0.0) scale(1.0)" xlink:href="#wapsym_ng_1"/>
  <path class="GlobalId-2ZUYl3kCbElfVpNoVwa4$x IfcAnnotation PredefinedType-PLANLEVEL" d="M 74.33452606201172 460.3889465332031 L 44.33452606201172 460.388916015625"/>
  <text dominant-baseline="baseline" style="font-size: 0;" text-anchor="end" transform="translate(74.33452606201172, 459.3889465332031) rotate(5.828428395720427e-05)">
    <tspan class="PLANLEVEL" dy="0em" x="0" y="0">+600</tspan>
  </text>
  <path class="GlobalId-1$aahIWW97yAROtBZdi4qr IfcAnnotation PredefinedType-naaldloofhoutlangsarcering" d="M 150.42591094970703 95.04023460935294 L 144.4259262084961 95.04023460935294 L 144.4259262084961 97.04024223874747 L 150.42591094970703 97.04024223874747 L 150.42591094970703 95.04023460935294"/>
  <path class="GlobalId-3YZ45KCoT74fIytlbzNEoW IfcAnnotation PredefinedType-zandzand" d="M 350.42591094970703 67.04020409177481 L 344.4259262084961 67.04020409177481 L 344.4259262084961 69.04021172116934 L 350.42591094970703 69.04021172116934 L 350.42591094970703 67.04020409177481"/>
  <path class="GlobalId-3FbUrzLe19FR$pj6mIh41N IfcAnnotation PredefinedType-NEN4723afdichtingsmiddel" d="M 100.42591094970703 110.04023460935294 L 94.4259262084961 110.04023460935294 L 94.4259262084961 112.04024223874747 L 100.42591094970703 112.04024223874747 L 100.42591094970703 110.04023460935294"/>
  <path class="GlobalId-3W0r2KhqLDqgOGDen6S4Y6 IfcAnnotation PredefinedType-glashelder" d="M 400.42591094970703 52.04020409177481 L 394.4259262084961 52.04020409177481 L 394.4259262084961 54.04021172116934 L 400.42591094970703 54.04021172116934 L 400.42591094970703 52.04020409177481"/>
  <path class="GlobalId-0tp4bvX4DC8xHxbBg5sgf3 IfcAnnotation PredefinedType-naaldhoutbamboe" d="M 250.42591094970703 104.040249868142 L 244.4259262084961 104.040249868142 L 244.4259262084961 106.04025749753653 L 250.42591094970703 106.04025749753653 L 250.42591094970703 104.040249868142"/>
  <path class="GlobalId-3Ou1vecX53FuJHwdbJfJ1I IfcAnnotation PredefinedType-WOOD" d="M 44.33452606201172 60.04027275632559 L 50.334510803222656 60.04027275632559 L 50.334510803222656 58.040226979958405 L 44.33452606201172 58.040226979958405 L 44.33452606201172 60.04027275632559"/>
  <path class="GlobalId-3IqI3$wTf0ruH_$1nYLLGK IfcAnnotation PredefinedType-maaiveldklei" d="M 350.42591094970703 61.04021935056387 L 344.4259262084961 61.04021935056387 L 344.4259262084961 63.040226979958405 L 350.42591094970703 63.040226979958405 L 350.42591094970703 61.04021935056387"/>
  <path class="GlobalId-2Jpuk5UP59lfRI_g2ps27o IfcAnnotation PredefinedType-waterwater" d="M 350.42591094970703 70.04023460935294 L 344.4259262084961 70.04023460935294 L 344.4259262084961 72.04024223874747 L 350.42591094970703 72.04024223874747 L 350.42591094970703 70.04023460935294"/>
  <path class="GlobalId-1m6_kj7WzBfufMZCERxjqR IfcAnnotation PredefinedType-naaldhoutdouglas" d="M 250.42591094970703 76.04025749753653 L 244.4259262084961 76.04025749753653 L 244.4259262084961 78.04026512693106 L 250.42591094970703 78.04026512693106 L 250.42591094970703 76.04025749753653"/>
  <path class="GlobalId-3UZ$Br$Dr99Oyw7UlQEude IfcAnnotation PredefinedType-kalkzandsteen" d="M 200.42591094970703 67.04020409177481 L 194.4259262084961 67.04020409177481 L 194.4259262084961 69.04021172116934 L 200.42591094970703 69.04021172116934 L 200.42591094970703 67.04020409177481"/>
  <path class="GlobalId-373YN3ti96SRxKzpdPZUXu IfcAnnotation PredefinedType-isolatiekooltherm" d="M 300.42591094970703 61.04021935056387 L 294.4259262084961 61.04021935056387 L 294.4259262084961 63.040226979958405 L 300.42591094970703 63.040226979958405 L 300.42591094970703 61.04021935056387"/>
  <line class="GlobalId-1icxQ$LAL2x9KeY2dlsAg9 IfcAnnotation PredefinedType-LINEWORK" x1="44.33452606201172" x2="74.33452606201172" y1="214.0401611328125" y2="214.04014587402344"/>
  <path class="GlobalId-0Z$o6WMFD8FwvFz8jjfaRH IfcAnnotation PredefinedType-TEXTLEADER" d="M 124.33452606201172 395.04019646238027 L 135.51136016845703 395.04019646238027 L 154.33452606201172 389.6603289086693"/>
  <text dominant-baseline="middle" style="font-size: 0;" text-anchor="end" transform="translate(124.33452606201172, 395.04022216796875) rotate(-0.0)">
    <tspan class="GlobalId-0Z$o6WMFD8FwvFz8jjfaRH IfcAnnotation PredefinedType-TEXTLEADER" dy="0em" x="0" y="0">TEXT</tspan>
  </text>
  <path class="GlobalId-27hwbhz254f8DEPcXTj5pG IfcAnnotation PredefinedType-bekledingsplaatMDF" d="M 250.42591094970703 116.04021935056387 L 244.4259262084961 116.04021935056387 L 244.4259262084961 118.0402269799584 L 250.42591094970703 118.0402269799584 L 250.42591094970703 116.04021935056387"/>
  <path class="GlobalId-1mBh35TpbFUOWJ6rnn6mAI IfcAnnotation PredefinedType-grass" d="M 50.334510803222656 113.0402269799584 L 44.33452606201172 113.0402269799584 L 44.33452606201172 115.04023460935294 L 50.334510803222656 115.04023460935294 L 50.334510803222656 113.0402269799584"/>
  <path class="GlobalId-1fsg0CSLD1UgbR5CEGSGWi IfcAnnotation PredefinedType-liquid" d="M 50.334510803222656 110.04023460935294 L 44.33452606201172 110.04023460935294 L 44.33452606201172 112.04024223874747 L 50.334510803222656 112.04024223874747 L 50.334510803222656 110.04023460935294"/>
  <path class="GlobalId-29gvcF_H51bernDSt06GBK IfcAnnotation PredefinedType-honeycomb" d="M 50.334510803222656 116.04021935056387 L 44.33452606201172 116.04021935056387 L 44.33452606201172 118.0402269799584 L 50.334510803222656 118.0402269799584 L 50.334510803222656 116.04021935056387"/>
  <path class="GlobalId-0A1rcvG0nAC81ALQjGUFPi IfcAnnotation PredefinedType-naaldhoutniove" d="M 250.42591094970703 95.04023460935294 L 244.4259262084961 95.04023460935294 L 244.4259262084961 97.04024223874747 L 250.42591094970703 97.04024223874747 L 250.42591094970703 95.04023460935294"/>
  <path class="GlobalId-3zsur7mMn04AcyQTtlzxed IfcAnnotation PredefinedType-naaldhouteiken" d="M 250.42591094970703 58.040226979958405 L 244.4259262084961 58.040226979958405 L 244.4259262084961 60.040234609352936 L 250.42591094970703 60.040234609352936 L 250.42591094970703 58.040226979958405"/>
  <path class="GlobalId-09Pk3Fd6T2gQdTg7KTy$EM IfcAnnotation PredefinedType-metselwerknietgebakkenkunststeen" d="M 150.42591094970703 58.040226979958405 L 144.4259262084961 58.040226979958405 L 144.4259262084961 60.040234609352936 L 150.42591094970703 60.040234609352936 L 150.42591094970703 58.040226979958405"/>
  <path class="GlobalId-3$UoR0D1L1yxhTVTzXV9Hz IfcAnnotation PredefinedType-bekledingsplaatgroenespaan" d="M 250.42591094970703 132.04024223874745 L 244.4259262084961 132.04024223874745 L 244.4259262084961 134.04024986814198 L 250.42591094970703 134.04024986814198 L 250.42591094970703 132.04024223874745"/>
  <path class="GlobalId-0k5H6utVXAxRA7EAZ_0eni IfcAnnotation PredefinedType-NEN4720lood" d="M 100.42591094970703 104.04021172116934 L 94.4259262084961 104.04021172116934 L 94.4259262084961 106.04021935056387 L 100.42591094970703 106.04021935056387 L 100.42591094970703 104.04021172116934"/>
  <path class="GlobalId-2nQWauWx9Bwu8CWXHhjtlc IfcAnnotation PredefinedType-NEN4716bekledingsplaat" d="M 100.42591094970703 98.0402269799584 L 94.4259262084961 98.0402269799584 L 94.4259262084961 100.04023460935294 L 100.42591094970703 100.04023460935294 L 100.42591094970703 98.0402269799584"/>
  <line class="GlobalId-3MLH9F1lL6RgFmBo521Wt_ IfcAnnotation PredefinedType-DIMENSION" x1="124.33467864990234" x2="154.33468627929688" y1="450.660400390625" y2="450.660400390625"/>
  <text dominant-baseline="baseline" style="font-size: 0;" text-anchor="middle" transform="translate(139.33468627929688, 449.660400390625) rotate(0.0)">
    <tspan class="DIMENSION" dy="0em" x="0" y="0">1500</tspan>
  </text>
  <line class="GlobalId-3MLH9F1lL6RgFmBo521Wt_ IfcAnnotation PredefinedType-DIMENSION" x1="34.183311462402344" x2="34.183311462402344" y1="428.0401916503906" y2="398.0401916503906"/>
  <text dominant-baseline="baseline" style="font-size: 0;" text-anchor="middle" transform="translate(33.183311462402344, 413.0401916503906) rotate(-90.00000250447816)">
    <tspan class="DIMENSION" dy="0em" x="0" y="0">1500</tspan>
  </text>
  <path class="GlobalId-04xWx7H1z5wQ1PBxxPBvif IfcAnnotation PredefinedType-glas" d="M 150.42591094970703 129.04021172116933 L 144.4259262084961 129.04021172116933 L 144.4259262084961 131.04021935056386 L 150.42591094970703 131.04021935056386 L 150.42591094970703 129.04021172116933"/>
  <path class="GlobalId-2zgv5lVFv5neNLttk8CE3p IfcAnnotation PredefinedType-natuursteenmergel" d="M 200.42591094970703 89.040249868142 L 194.4259262084961 89.040249868142 L 194.4259262084961 91.04025749753653 L 200.42591094970703 91.04025749753653 L 200.42591094970703 89.040249868142"/>
  <path class="GlobalId-25RMOn$_TDue4NHegSEJjb IfcAnnotation PredefinedType-bekledingsplaatwatervast" d="M 250.42591094970703 123.0402269799584 L 244.4259262084961 123.0402269799584 L 244.4259262084961 125.04023460935294 L 250.42591094970703 125.04023460935294 L 250.42591094970703 123.0402269799584"/>
  <path class="GlobalId-07cL3K69PDEQMbww$msgUb IfcAnnotation PredefinedType-SECTIONLEVEL" d="M 74.3344497680664 448.3890075683594 L 44.33452606201172 448.38897705078125"/>
  <text dominant-baseline="baseline" style="font-size: 0;" text-anchor="start" transform="translate(74.3344497680664, 444.8890075683594) rotate(5.8284427260276e-05)">
    <tspan class="SECTIONLEVEL" dy="0em" x="0" y="0">RL +600</tspan>
  </text>
  <path class="GlobalId-2lP2EqOUb9Du3K8Gb3Gujk IfcAnnotation PredefinedType-NEN471metselwerkbaksteen" d="M 100.42591094970703 52.04020409177481 L 94.4259262084961 52.04020409177481 L 94.4259262084961 54.04021172116934 L 100.42591094970703 54.04021172116934 L 100.42591094970703 52.04020409177481"/>
  <path class="GlobalId-0T9l$UGFf09B5waRnWdlq8 IfcAnnotation PredefinedType-NEN4726zand" d="M 100.42591094970703 116.04021935056387 L 94.4259262084961 116.04021935056387 L 94.4259262084961 118.0402269799584 L 100.42591094970703 118.0402269799584 L 100.42591094970703 116.04021935056387"/>
  <line class="GlobalId-0mhGhYjHjAYR4AQVIhjl3b IfcAnnotation PredefinedType-LINEWORK folie" x1="116.59175872802734" x2="146.59176635742188" y1="268.04022216796875" y2="268.04022216796875"/>
  <path class="GlobalId-0rNiD7RKP5V9dhcz2aXxd8 IfcAnnotation PredefinedType-NEN4714naaldloofhoutlangsarcering" d="M 100.42591094970703 95.04023460935294 L 94.4259262084961 95.04023460935294 L 94.4259262084961 97.04024223874747 L 100.42591094970703 97.04024223874747 L 100.42591094970703 95.04023460935294"/>
  <path class="GlobalId-27tdIuA2L0RwXiFKnp6igO IfcAnnotation PredefinedType-naaldhoutlariks" d="M 250.42591094970703 61.04021935056387 L 244.4259262084961 61.04021935056387 L 244.4259262084961 63.040226979958405 L 250.42591094970703 63.040226979958405 L 250.42591094970703 61.04021935056387"/>
  <path class="GlobalId-31aK2giB51d9wGPkngTO3e IfcAnnotation PredefinedType-NEN4729glas" d="M 100.42591094970703 129.04021172116933 L 94.4259262084961 129.04021172116933 L 94.4259262084961 131.04021935056386 L 100.42591094970703 131.04021935056386 L 100.42591094970703 129.04021172116933"/>
  <path class="GlobalId-096tNIZ_b9zez00QbCDc_b IfcAnnotation PredefinedType-NEN4717isolatie" d="M 100.42591094970703 101.04021935056387 L 94.4259262084961 101.04021935056387 L 94.4259262084961 103.0402269799584 L 100.42591094970703 103.0402269799584 L 100.42591094970703 101.04021935056387"/>
  <line class="GlobalId-1GwRMEXTbARgk$GQX$OYaK IfcAnnotation PredefinedType-LINEWORK blue" x1="116.59175872802734" x2="146.59176635742188" y1="259.0402526855469" y2="259.0402526855469"/>
  <line class="GlobalId-0PT1ki3OD8reuw$jhnJtTJ IfcAnnotation PredefinedType-LINEWORK grid gridends" x1="352.43389892578125" x2="392.43389892578125" y1="231.04025268554688" y2="231.04025268554688"/>
  <path class="GlobalId-1u52XKcMz8TBfHOMcVmbAm IfcAnnotation PredefinedType-NEN4712naaldhout" d="M 100.42591094970703 89.040249868142 L 94.4259262084961 89.040249868142 L 94.4259262084961 91.04025749753653 L 100.42591094970703 91.04025749753653 L 100.42591094970703 89.040249868142"/>
  <path class="GlobalId-3P0yWnpDz4vejfiVlJ85DD IfcAnnotation PredefinedType-concrete" d="M 50.334510803222656 126.04025749753653 L 44.33452606201172 126.04025749753653 L 44.33452606201172 128.04026512693105 L 50.334510803222656 128.04026512693105 L 50.334510803222656 126.04025749753653"/>
  <path class="GlobalId-0LQjQ16vD8k9dSaljpUaeZ IfcAnnotation PredefinedType-sand" d="M 50.334510803222656 123.0402269799584 L 44.33452606201172 123.0402269799584 L 44.33452606201172 125.04023460935294 L 50.334510803222656 125.04023460935294 L 50.334510803222656 123.0402269799584"/>
  <line class="GlobalId-30mbf40JTCQ8Hxp99z2HTt IfcAnnotation PredefinedType-HIDDENLINE" x1="44.33452606201172" x2="74.33452606201172" y1="303.0252685546875" y2="303.0252380371094"/>
  <use transform="translate(252.43389892578125, 291.04022216796875) rotate(-0.0) scale(1.0)" xlink:href="#wapsym_ng_2"/>
  <path class="GlobalId-0dkdghyr53XPRsPP35VHhb IfcAnnotation PredefinedType-NEN4710enkelewandvloerafwerking" d="M 100.42591094970703 76.04021935056387 L 94.4259262084961 76.04021935056387 L 94.4259262084961 78.0402269799584 L 100.42591094970703 78.0402269799584 L 100.42591094970703 76.04021935056387"/>
  <path class="GlobalId-1WaT77ARP969EPpUYqv4qE IfcAnnotation PredefinedType-naaldhoutmeranti" d="M 250.42591094970703 67.04020409177481 L 244.4259262084961 67.04020409177481 L 244.4259262084961 69.04021172116934 L 250.42591094970703 69.04021172116934 L 250.42591094970703 67.04020409177481"/>
  <path class="GlobalId-1l2$vmBcP0wBXnKkHdd9S7 IfcAnnotation PredefinedType-water" d="M 150.42591094970703 126.04025749753653 L 144.4259262084961 126.04025749753653 L 144.4259262084961 128.04026512693105 L 150.42591094970703 128.04026512693105 L 150.42591094970703 126.04025749753653"/>
  <path class="GlobalId-0rL$gfNPrBvREUXAAlkOGF IfcAnnotation PredefinedType-naaldhoutgrenen" d="M 250.42591094970703 79.040249868142 L 244.4259262084961 79.040249868142 L 244.4259262084961 81.04025749753653 L 250.42591094970703 81.04025749753653 L 250.42591094970703 79.040249868142"/>
  <path class="GlobalId-1DTf$z1aD9yQA5GmNry8DZ IfcAnnotation PredefinedType-isolatieEPS00" d="M 300.42591094970703 70.04023460935294 L 294.4259262084961 70.04023460935294 L 294.4259262084961 72.04024223874747 L 300.42591094970703 72.04024223874747 L 300.42591094970703 70.04023460935294"/>
  <path class="GlobalId-3ConIuBxTDDg5VI8wSbrXu IfcAnnotation PredefinedType-specialesteenachtigematerialen" d="M 150.42591094970703 55.040234609352936 L 144.4259262084961 55.040234609352936 L 144.4259262084961 57.04024223874747 L 150.42591094970703 57.04024223874747 L 150.42591094970703 55.040234609352936"/>
  <path class="GlobalId-1ixg45nqHDsRDcrXSjJvY5 IfcAnnotation PredefinedType-BREAKLINE" d="M 97.0345687866211 436.3889780480736 L 70.6845474243164 436.3889780480736 L 44.33452606201172 436.3889780480736"/>
  <path class="GlobalId-0dUidE3kv1Z82dbGYDSCO0 IfcAnnotation PredefinedType-FILLAREA" d="M 74.33452606201172 372.0402803857201 L 44.33452606201172 372.0402803857201 L 44.33452606201172 377.0402803857201 L 74.33452606201172 372.0402803857201"/>
  <path class="GlobalId-0dUidE3kv1Z82dbGYDSCO0 IfcAnnotation PredefinedType-FILLAREA" d="M 74.33452606201172 372.0402803857201 L 44.33452606201172 377.0402803857201 L 74.33452606201172 377.0402803857201 L 74.33452606201172 372.0402803857201"/>
  <path class="GlobalId-1NUTlHV0v3IOxeTi6EQM2t IfcAnnotation PredefinedType-metselwerkbaksteenkalk" d="M 200.42591094970703 64.040249868142 L 194.4259262084961 64.040249868142 L 194.4259262084961 66.04025749753653 L 200.42591094970703 66.04025749753653 L 200.42591094970703 64.040249868142"/>
  <line class="GlobalId-3YKel8T7DCdfkl6zoVHD69 IfcAnnotation PredefinedType-DIMENSION mw" x1="352.43389892578125" x2="362.43389892578125" y1="218.04025268554688" y2="218.04025268554688"/>
  <text dominant-baseline="baseline" style="font-size: 0;" text-anchor="middle" transform="translate(357.43389892578125, 217.04025268554688) rotate(0.0)">
    <tspan class="DIMENSION" dy="0em" x="0" y="0">500</tspan>
  </text>
  <line class="GlobalId-3YKel8T7DCdfkl6zoVHD69 IfcAnnotation PredefinedType-DIMENSION mw" x1="362.43389892578125" x2="390.43389892578125" y1="218.04025268554688" y2="218.04025268554688"/>
  <text dominant-baseline="baseline" style="font-size: 0;" text-anchor="middle" transform="translate(376.43389892578125, 217.04025268554688) rotate(0.0)">
    <tspan class="DIMENSION" dy="0em" x="0" y="0">1400</tspan>
  </text>
  <line class="GlobalId-3YKel8T7DCdfkl6zoVHD69 IfcAnnotation PredefinedType-DIMENSION mw" x1="390.43389892578125" x2="392.43389892578125" y1="218.04025268554688" y2="218.04025268554688"/>
  <text dominant-baseline="baseline" style="font-size: 0;" text-anchor="middle" transform="translate(395.43389892578125, 217.04025268554688) rotate(0.0)">
    <tspan class="DIMENSION" dy="0em" x="0" y="0">100</tspan>
  </text>
  <path class="GlobalId-1N2eOm9Sb9H8hxaEg9HKGs IfcAnnotation PredefinedType-bekledingsplaatmultiplex" d="M 250.42591094970703 110.04023460935294 L 244.4259262084961 110.04023460935294 L 244.4259262084961 112.04024223874747 L 250.42591094970703 112.04024223874747 L 250.42591094970703 110.04023460935294"/>
  <path class="GlobalId-2a1J_2anLDlA38NsgYccxU IfcAnnotation PredefinedType-NEN478sierbeton" d="M 100.42591094970703 70.04023460935294 L 94.4259262084961 70.04023460935294 L 94.4259262084961 72.04024223874747 L 100.42591094970703 72.04024223874747 L 100.42591094970703 70.04023460935294"/>
  <path class="GlobalId-1D4iZ1pmL85feBWl_Rj5y4 IfcAnnotation PredefinedType-naaldhoutredcedar" d="M 250.42591094970703 89.040249868142 L 244.4259262084961 89.040249868142 L 244.4259262084961 91.04025749753653 L 250.42591094970703 91.04025749753653 L 250.42591094970703 89.040249868142"/>
  <path class="GlobalId-39WcokUpvFKx1ax$ou6r7i IfcAnnotation PredefinedType-zand" d="M 150.42591094970703 116.04021935056387 L 144.4259262084961 116.04021935056387 L 144.4259262084961 118.0402269799584 L 150.42591094970703 118.0402269799584 L 150.42591094970703 116.04021935056387"/>
  <path class="GlobalId-0ezNIDt8f2musDFlTniVDI IfcAnnotation PredefinedType-PLASTERBOARD" d="M 44.33452606201172 69.040249868142 L 50.334510803222656 69.040249868142 L 50.334510803222656 67.04024223874747 L 44.33452606201172 67.04024223874747 L 44.33452606201172 69.040249868142"/>
  <path class="GlobalId-1jmrXAHDDAVBU$kRt7nwlm IfcAnnotation PredefinedType-NEN4711samengesteldewandvloerafwerking" d="M 100.42591094970703 79.04021172116934 L 94.4259262084961 79.04021172116934 L 94.4259262084961 81.04021935056387 L 100.42591094970703 81.04021935056387 L 100.42591094970703 79.04021172116934"/>
  <path class="GlobalId-2nJR5lWwv3Pg1Y2crAdsSg IfcAnnotation PredefinedType-natuursteenzandsteen" d="M 200.42591094970703 73.04026512693106 L 194.4259262084961 73.04026512693106 L 194.4259262084961 75.04027275632559 L 200.42591094970703 75.04027275632559 L 200.42591094970703 73.04026512693106"/>
  <path class="GlobalId-2reZJnX7nEFP8nLXqHjk2N IfcAnnotation PredefinedType-NEN479natuursteen" d="M 100.42591094970703 73.0402269799584 L 94.4259262084961 73.0402269799584 L 94.4259262084961 75.04023460935294 L 100.42591094970703 75.04023460935294 L 100.42591094970703 73.0402269799584"/>
  <path class="GlobalId-1qZaveXvfBQQwMhJxAz73b IfcAnnotation PredefinedType-maaiveld" d="M 150.42591094970703 113.0402269799584 L 144.4259262084961 113.0402269799584 L 144.4259262084961 115.04023460935294 L 150.42591094970703 115.04023460935294 L 150.42591094970703 113.0402269799584"/>
  <path class="GlobalId-2YTSpUGabAwgqqgOO5fu1c IfcAnnotation PredefinedType-isolatie" d="M 150.42591094970703 101.04021935056387 L 144.4259262084961 101.04021935056387 L 144.4259262084961 103.0402269799584 L 150.42591094970703 103.0402269799584 L 150.42591094970703 101.04021935056387"/>
  <path class="GlobalId-0WAsZCQyD4VRKRqUMP6F5K IfcAnnotation PredefinedType-NEN4725maaiveld" d="M 100.42591094970703 113.0402269799584 L 94.4259262084961 113.0402269799584 L 94.4259262084961 115.04023460935294 L 100.42591094970703 115.04023460935294 L 100.42591094970703 113.0402269799584"/>
  <path class="GlobalId-03EHp7eCL3UO8NoDofAtht IfcAnnotation PredefinedType-bekledingsplaatOSB" d="M 250.42591094970703 113.0402269799584 L 244.4259262084961 113.0402269799584 L 244.4259262084961 115.04023460935294 L 250.42591094970703 115.04023460935294 L 250.42591094970703 113.0402269799584"/>
  <path class="GlobalId-3qZCfiO$15XfY1ePTbS1sJ IfcAnnotation PredefinedType-naaldhoutmerbau" d="M 250.42591094970703 64.040249868142 L 244.4259262084961 64.040249868142 L 244.4259262084961 66.04025749753653 L 250.42591094970703 66.04025749753653 L 250.42591094970703 64.040249868142"/>
  <path class="GlobalId-0LHKvD9L94WeVh2IsdoZl3 IfcAnnotation PredefinedType-metselwerkbaksteen" d="M 150.42591094970703 52.04020409177481 L 144.4259262084961 52.04020409177481 L 144.4259262084961 54.04021172116934 L 150.42591094970703 54.04021172116934 L 150.42591094970703 52.04020409177481"/>
  <path class="GlobalId-1WqvsFbkL3YAAW7rwZcPAk IfcAnnotation PredefinedType-STUD" d="M 44.33452606201172 57.04031853269278 L 50.334510803222656 57.04031853269278 L 50.334510803222656 55.04027275632559 L 44.33452606201172 55.04027275632559 L 44.33452606201172 57.04031853269278"/>
  <path class="GlobalId-1urkjpGeP7PeCh9yT07BRB IfcAnnotation PredefinedType-STAIRARROW" d="M 124.33452606201172 383.0402269799584 L 154.33452606201172 383.0402269799584"/>
  <text class="STAIR" dominant-baseline="middle" text-anchor="middle" x="119.33452606201172" y="383.04022216796875">UP</text>
  <line class="GlobalId-3VdkQiQB98SuWfIBf1ZoEC IfcAnnotation PredefinedType-LINEWORK WDBDO60" x1="116.59175872802734" x2="146.59176635742188" y1="250.04025268554688" y2="250.04025268554688"/>
  <line class="GlobalId-1BARdbtwH1owbYnNwLX4WL IfcAnnotation PredefinedType-LINEWORK dashed22 blue" x1="116.59175872802734" x2="146.59176635742188" y1="285.5125427246094" y2="285.5125427246094"/>
  <text dominant-baseline="baseline" style="font-size: 0;" text-anchor="start" transform="translate(251.4259033203125, 57.040245056152344) rotate(-0.0)">
    <tspan class="GlobalId-1fl1sJPvjCV8evK8Ib$YNx IfcAnnotation PredefinedType-TEXT mini" dy="0em" x="0" y="0">naaldhoutvurengewolmaniseerd</tspan>
  </text>
  <text dominant-baseline="baseline" style="font-size: 0;" text-anchor="start" transform="translate(101.42589569091797, 75.04023742675781) rotate(-0.0)">
    <tspan class="GlobalId-1tZFl$zzr8TAE1$pq5W$Vz IfcAnnotation PredefinedType-TEXT mini" dy="0em" x="0" y="0">natuursteen</tspan>
  </text>
  <text dominant-baseline="baseline" style="font-size: 0;" text-anchor="start" transform="translate(201.4259033203125, 54.04021453857422) rotate(-0.0)">
    <tspan class="GlobalId-2kbYOks312gvwK3lYoj5jo IfcAnnotation PredefinedType-TEXT mini" dy="0em" x="0" y="0">metselwerkbaksteenporiso</tspan>
  </text>
  <text dominant-baseline="baseline" style="font-size: 0;" text-anchor="start" transform="translate(201.4259033203125, 91.0402603149414) rotate(-0.0)">
    <tspan class="GlobalId-0wSfWrUZ53jQERqM8VsBOf IfcAnnotation PredefinedType-TEXT mini" dy="0em" x="0" y="0">natuursteenmergel</tspan>
  </text>
  <text dominant-baseline="baseline" style="font-size: 0;" text-anchor="start" transform="translate(251.4259033203125, 131.04022216796875) rotate(-0.0)">
    <tspan class="GlobalId-1YE7RCULj7jRTrmw$Y4$2r IfcAnnotation PredefinedType-TEXT mini" dy="0em" x="0" y="0">bekledingsplaatrodespaan</tspan>
  </text>
  <text dominant-baseline="baseline" style="font-size: 0;" text-anchor="start" transform="translate(251.4259033203125, 97.04024505615234) rotate(-0.0)">
    <tspan class="GlobalId-3LFGh1KRL9fRgNyJ1StFwf IfcAnnotation PredefinedType-TEXT mini" dy="0em" x="0" y="0">naaldhoutniove</tspan>
  </text>
  <text dominant-baseline="baseline" style="font-size: 0;" text-anchor="start" transform="translate(101.42589569091797, 63.04022979736328) rotate(-0.0)">
    <tspan class="GlobalId-2Q5v$c69LBjvREas3jAZfD IfcAnnotation PredefinedType-TEXT mini" dy="0em" x="0" y="0">nietdragendelichtescheidingswanden</tspan>
  </text>
  <text dominant-baseline="baseline" style="font-size: 0;" text-anchor="start" transform="translate(151.4259033203125, 106.0402603149414) rotate(-0.0)">
    <tspan class="GlobalId-0hKcv4A4XD4hCS$uK36pu6 IfcAnnotation PredefinedType-TEXT mini" dy="0em" x="0" y="0">lood</tspan>
  </text>
  <text dominant-baseline="baseline" style="font-size: 0;" text-anchor="start" transform="translate(251.4259033203125, 118.04022979736328) rotate(-0.0)">
    <tspan class="GlobalId-1AXaIcJGX2I9oiqo1wjcbJ IfcAnnotation PredefinedType-TEXT mini" dy="0em" x="0" y="0">bekledingsplaatMDF</tspan>
  </text>
  <text dominant-baseline="baseline" style="font-size: 0;" text-anchor="start" transform="translate(151.4259033203125, 97.04024505615234) rotate(-0.0)">
    <tspan class="GlobalId-2n4ESeIcr8GBOAs5NHf9gx IfcAnnotation PredefinedType-TEXT mini" dy="0em" x="0" y="0">naaldloofhoutlangsarcering</tspan>
  </text>
  <text dominant-baseline="baseline" style="font-size: 0;" text-anchor="start" transform="translate(251.4259033203125, 69.04021453857422) rotate(-0.0)">
    <tspan class="GlobalId-07PmRlNhT7Xgka3b9cKepc IfcAnnotation PredefinedType-TEXT mini" dy="0em" x="0" y="0">naaldhoutmeranti</tspan>
  </text>
  <text dominant-baseline="baseline" style="font-size: 0;" text-anchor="start" transform="translate(101.42589569091797, 69.04021453857422) rotate(-0.0)">
    <tspan class="GlobalId-37J9p3w416sQM8BXNXbwCi IfcAnnotation PredefinedType-TEXT mini" dy="0em" x="0" y="0">ongewapendbeton</tspan>
  </text>
  <text dominant-baseline="baseline" style="font-size: 0;" text-anchor="start" transform="translate(151.4259033203125, 63.04022979736328) rotate(-0.0)">
    <tspan class="GlobalId-3$_fHaNlv908knvB8LpYg7 IfcAnnotation PredefinedType-TEXT mini" dy="0em" x="0" y="0">nietdragendelichtescheidingswanden</tspan>
  </text>
  <text dominant-baseline="baseline" style="font-size: 0;" text-anchor="start" transform="translate(151.4259033203125, 75.04023742675781) rotate(-0.0)">
    <tspan class="GlobalId-3XZUGlOsv2lw2zRdnk3qPA IfcAnnotation PredefinedType-TEXT mini" dy="0em" x="0" y="0">natuursteen</tspan>
  </text>
  <text dominant-baseline="baseline" style="font-size: 0;" text-anchor="start" transform="translate(201.4259033203125, 72.04024505615234) rotate(-0.0)">
    <tspan class="GlobalId-36oeMTWej3lBMoJL89T2Rf IfcAnnotation PredefinedType-TEXT mini" dy="0em" x="0" y="0">natuursteenhardsteen</tspan>
  </text>
  <text dominant-baseline="baseline" style="font-size: 0;" text-anchor="start" transform="translate(51.33464813232422, 63.04022979736328) rotate(-0.0)">
    <tspan class="GlobalId-2TPj$KfNfCyx16I3UT8YOJ IfcAnnotation PredefinedType-TEXT mini" dy="0em" x="0" y="0">STEEL</tspan>
  </text>
  <text dominant-baseline="baseline" style="font-size: 0;" text-anchor="start" transform="translate(251.4259033203125, 63.04022979736328) rotate(-0.0)">
    <tspan class="GlobalId-1$FWZQe3j8dRf6mayB5j6C IfcAnnotation PredefinedType-TEXT mini" dy="0em" x="0" y="0">naaldhoutlariks</tspan>
  </text>
  <text dominant-baseline="baseline" style="font-size: 0;" text-anchor="start" transform="translate(101.42589569091797, 131.04022216796875) rotate(-0.0)">
    <tspan class="GlobalId-07nR9DM29FR8UweXUeAwPz IfcAnnotation PredefinedType-TEXT mini" dy="0em" x="0" y="0">glas</tspan>
  </text>
  <text dominant-baseline="baseline" style="font-size: 0;" text-anchor="start" transform="translate(301.4259033203125, 63.04022979736328) rotate(-0.0)">
    <tspan class="GlobalId-0BsvpWPuvChRKUFhRaZlOP IfcAnnotation PredefinedType-TEXT mini" dy="0em" x="0" y="0">isolatiekooltherm</tspan>
  </text>
  <text dominant-baseline="baseline" style="font-size: 0;" text-anchor="start" transform="translate(101.42589569091797, 91.0402603149414) rotate(-0.0)">
    <tspan class="GlobalId-2KvYvgbRX9$v3i8sXkzHeP IfcAnnotation PredefinedType-TEXT mini" dy="0em" x="0" y="0">naaldhout</tspan>
  </text>
  <text dominant-baseline="baseline" style="font-size: 0;" text-anchor="start" transform="translate(24.33452606201172, 349.0402526855469) rotate(89.999995674289)">
    <tspan class="GlobalId-17CYTavCXFqOJja9G7ldTq IfcAnnotation PredefinedType-TEXT large" dy="0em" x="0" y="0">IfcTypes</tspan>
  </text>
  <text dominant-baseline="baseline" style="font-size: 0;" text-anchor="start" transform="translate(351.4259033203125, 66.0402603149414) rotate(-0.0)">
    <tspan class="GlobalId-2C4fsoK$P4Ox3Y0CIpEP3_ IfcAnnotation PredefinedType-TEXT mini" dy="0em" x="0" y="0">maaiveldveen</tspan>
  </text>
  <text dominant-baseline="baseline" style="font-size: 0;" text-anchor="start" transform="translate(226.98672485351562, 360.84027099609375) rotate(-0.0)">
    <tspan class="GlobalId-1gdZ7$FC5CNwzbXqWYNCuN IfcAnnotation PredefinedType-TEXT small" dy="0em" x="0" y="0">CLT200</tspan>
  </text>
  <text dominant-baseline="baseline" style="font-size: 0;" text-anchor="start" transform="translate(251.4259033203125, 137.0402374267578) rotate(-0.0)">
    <tspan class="GlobalId-1BXubx5xj34PgA6Qx3YIvf IfcAnnotation PredefinedType-TEXT mini" dy="0em" x="0" y="0">bekledingsplaatunderlayment</tspan>
  </text>
  <text dominant-baseline="baseline" style="font-size: 0;" text-anchor="start" transform="translate(151.4259033203125, 112.04024505615234) rotate(-0.0)">
    <tspan class="GlobalId-2HgB2T96n5ZPbkv87Km6oV IfcAnnotation PredefinedType-TEXT mini" dy="0em" x="0" y="0">afdichtingsmiddel</tspan>
  </text>
  <text dominant-baseline="baseline" style="font-size: 0;" text-anchor="start" transform="translate(101.42589569091797, 125.04023742675781) rotate(-0.0)">
    <tspan class="GlobalId-3a6garkIj6SBROxLfn0BO2 IfcAnnotation PredefinedType-TEXT mini" dy="0em" x="0" y="0">grind</tspan>
  </text>
  <text dominant-baseline="baseline" style="font-size: 0;" text-anchor="start" transform="translate(251.4259033203125, 112.04024505615234) rotate(-0.0)">
    <tspan class="GlobalId-3P8g6cZ4jCI8Mcbej5wsgx IfcAnnotation PredefinedType-TEXT mini" dy="0em" x="0" y="0">bekledingsplaatmultiplex</tspan>
  </text>
  <text dominant-baseline="baseline" style="font-size: 0;" text-anchor="start" transform="translate(226.98672485351562, 448.84027099609375) rotate(-0.0)">
    <tspan class="GlobalId-3X5$vtnh11JBqWOW66HmbE IfcAnnotation PredefinedType-TEXT small" dy="0em" x="0" y="0">Plafond600x600</tspan>
  </text>
  <text dominant-baseline="baseline" style="font-size: 0;" text-anchor="start" transform="translate(51.33464813232422, 81.04022216796875) rotate(-0.0)">
    <tspan class="GlobalId-3LryEMH8n5shRk_qCcY87m IfcAnnotation PredefinedType-TEXT mini" dy="0em" x="0" y="0">diagonal2</tspan>
  </text>
  <use transform="translate(324.77801513671875, 316.26776123046875) rotate(-0.0) scale(1.0)" xlink:href="#kol_ond"/>
  <text dominant-baseline="baseline" style="font-size: 0;" text-anchor="start" transform="translate(324.77801513671875, 316.26776123046875) rotate(-0.0)">
    <tspan class="GlobalId-17gj1vGybETgTNvZPnlr9J IfcAnnotation PredefinedType-TEXT regular" dy="0em" x="0" y="0">HEA120</tspan>
  </text>
  <text dominant-baseline="baseline" style="font-size: 0;" text-anchor="start" transform="translate(401.4259033203125, 61.04045104980469) rotate(-0.0)">
    <tspan class="GlobalId-2Gs6hYRYL2cezQOJ2Z$LbP IfcAnnotation PredefinedType-TEXT mini" dy="0em" x="0" y="0">white25</tspan>
  </text>
  <text dominant-baseline="baseline" style="font-size: 0;" text-anchor="start" transform="translate(301.4259033203125, 60.04023742675781) rotate(-0.0)">
    <tspan class="GlobalId-1nSdWGQmH25QgipyYRbZQB IfcAnnotation PredefinedType-TEXT mini" dy="0em" x="0" y="0">isolatiePIR</tspan>
  </text>
  <text dominant-baseline="baseline" style="font-size: 0;" text-anchor="start" transform="translate(151.4259033203125, 78.04022979736328) rotate(-0.0)">
    <tspan class="GlobalId-2HjM6zmJH4xu2mK3Q6VxED IfcAnnotation PredefinedType-TEXT mini" dy="0em" x="0" y="0">enkelewandvloerafwerking</tspan>
  </text>
  <text dominant-baseline="baseline" style="font-size: 0;" text-anchor="start" transform="translate(24.33452606201172, 199.0402374267578) rotate(89.999995674289)">
    <tspan class="GlobalId-3E5ntaaoL61hBAERdU3pso IfcAnnotation PredefinedType-TEXT large" dy="0em" x="0" y="0">IfcAnnotations</tspan>
  </text>
  <text dominant-baseline="baseline" style="font-size: 0;" text-anchor="start" transform="translate(101.42589569091797, 118.04022979736328) rotate(-0.0)">
    <tspan class="GlobalId-24Y8QRTDv02ug07KBQ0oZA IfcAnnotation PredefinedType-TEXT mini" dy="0em" x="0" y="0">zand</tspan>
  </text>
  <text dominant-baseline="baseline" style="font-size: 0;" text-anchor="start" transform="translate(201.4259033203125, 66.0402603149414) rotate(-0.0)">
    <tspan class="GlobalId-3rQAr7VRH1RP4fevxCEFvu IfcAnnotation PredefinedType-TEXT mini" dy="0em" x="0" y="0">metselwerkbaksteenkalk</tspan>
  </text>
  <use transform="translate(293.0630187988281, 249.79092407226562) rotate(-0.0) scale(1.0)" xlink:href="#pn_1_8"/>
  <text dominant-baseline="baseline" style="font-size: 0;" text-anchor="start" transform="translate(293.0630187988281, 249.79092407226562) rotate(-0.0)">
    <tspan class="GlobalId-3sTSfzqI5B69MFYiw0dw6j IfcAnnotation PredefinedType-TEXT small" dy="0em" x="0" y="0">PUNTNIVEAU: -14.0 NAP</tspan>
  </text>
  <text dominant-baseline="baseline" style="font-size: 0;" text-anchor="start" transform="translate(251.4259033203125, 128.04022216796875) rotate(-0.0)">
    <tspan class="GlobalId-39yjYOHF993goeY3MHqiWp IfcAnnotation PredefinedType-TEXT mini" dy="0em" x="0" y="0">bekledingsplaatokoume</tspan>
  </text>
  <text dominant-baseline="baseline" style="font-size: 0;" text-anchor="start" transform="translate(151.4259033203125, 128.04022216796875) rotate(-0.0)">
    <tspan class="GlobalId-0OgjXJM3LBMfaZYLji9Tis IfcAnnotation PredefinedType-TEXT mini" dy="0em" x="0" y="0">water</tspan>
  </text>
  <text dominant-baseline="baseline" style="font-size: 0;" text-anchor="start" transform="translate(226.98672485351562, 382.8402404785156) rotate(-0.0)">
    <tspan class="GlobalId-0Tpw8Gl5z38gsMCzfT7mJN IfcAnnotation PredefinedType-TEXT small" dy="0em" x="0" y="0">BET220</tspan>
  </text>
  <text dominant-baseline="baseline" style="font-size: 0;" text-anchor="start" transform="translate(101.42589569091797, 115.04023742675781) rotate(-0.0)">
    <tspan class="GlobalId-0gRUFcCojDQOw0moaaIucb IfcAnnotation PredefinedType-TEXT mini" dy="0em" x="0" y="0">maaiveld</tspan>
  </text>
  <text dominant-baseline="baseline" style="font-size: 0;" text-anchor="start" transform="translate(201.4259033203125, 60.04023742675781) rotate(-0.0)">
    <tspan class="GlobalId-3NY7pLqQv0yeBwTpSL9cPG IfcAnnotation PredefinedType-TEXT mini" dy="0em" x="0" y="0">metselwerkbaksteencement</tspan>
  </text>
  <text dominant-baseline="baseline" style="font-size: 0;" text-anchor="start" transform="translate(176.98672485351562, 349.0402526855469) rotate(-0.0)">
    <tspan class="GlobalId-2k45OwjRb2v9xUGMV3k2_C IfcAnnotation PredefinedType-TEXT" dy="0em" x="0" y="0">Walls</tspan>
  </text>
  <text dominant-baseline="baseline" style="font-size: 0;" text-anchor="start" transform="translate(251.4259033203125, 66.0402603149414) rotate(-0.0)">
    <tspan class="GlobalId-16pGu7Sv92DhQ11j_jktUF IfcAnnotation PredefinedType-TEXT mini" dy="0em" x="0" y="0">naaldhoutmerbau</tspan>
  </text>
  <text dominant-baseline="baseline" style="font-size: 0;" text-anchor="start" transform="translate(401.4259033203125, 57.040245056152344) rotate(-0.0)">
    <tspan class="GlobalId-0xzQr555rDYQ01YB$SFmi2 IfcAnnotation PredefinedType-TEXT mini" dy="0em" x="0" y="0">glasmat</tspan>
  </text>
  <text dominant-baseline="baseline" style="font-size: 0;" text-anchor="start" transform="translate(401.4259033203125, 67.04051208496094) rotate(-0.0)">
    <tspan class="GlobalId-0CihWk47rEffe9waJTvr8j IfcAnnotation PredefinedType-TEXT mini" dy="0em" x="0" y="0">white75</tspan>
  </text>
  <text dominant-baseline="baseline" style="font-size: 0;" text-anchor="start" transform="translate(24.33452606201172, 49.040252685546875) rotate(89.999995674289)">
    <tspan class="GlobalId-0RztStvtvCiP7D0piw4H$U IfcAnnotation PredefinedType-TEXT large" dy="0em" x="0" y="0">IfcMaterials &amp; Filled Regions</tspan>
  </text>
  <text dominant-baseline="baseline" style="font-size: 0;" text-anchor="start" transform="translate(351.4259033203125, 57.040245056152344) rotate(-0.0)">
    <tspan class="GlobalId-2qJdsqF_D84OQAd6i7$A3f IfcAnnotation PredefinedType-TEXT mini" dy="0em" x="0" y="0">maaiveldgrond</tspan>
  </text>
  <text dominant-baseline="baseline" style="font-size: 0;" text-anchor="start" transform="translate(301.4259033203125, 66.0402603149414) rotate(-0.0)">
    <tspan class="GlobalId-3GL71V5lf0u8oD1gsDiJui IfcAnnotation PredefinedType-TEXT mini" dy="0em" x="0" y="0">isolatiePUR</tspan>
  </text>
  <text dominant-baseline="baseline" style="font-size: 0;" text-anchor="start" transform="translate(51.33464813232422, 66.0402603149414) rotate(-0.0)">
    <tspan class="GlobalId-3KUZJwvMTCaOf82GzT0MMM IfcAnnotation PredefinedType-TEXT mini" dy="0em" x="0" y="0">CONCRETE</tspan>
  </text>
  <text dominant-baseline="baseline" style="font-size: 0;" text-anchor="start" transform="translate(251.4259033203125, 72.04024505615234) rotate(-0.0)">
    <tspan class="GlobalId-0Ej6jfTgn2C8aechKSKWmE IfcAnnotation PredefinedType-TEXT mini" dy="0em" x="0" y="0">naaldhoutjatoba</tspan>
  </text>
  <text dominant-baseline="baseline" style="font-size: 0;" text-anchor="start" transform="translate(401.4259033203125, 54.04021453857422) rotate(-0.0)">
    <tspan class="GlobalId-1lr4QxAZ56MhtDqfaTmxCb IfcAnnotation PredefinedType-TEXT mini" dy="0em" x="0" y="0">glashelder</tspan>
  </text>
  <text dominant-baseline="baseline" style="font-size: 0;" text-anchor="start" transform="translate(251.4259033203125, 125.04023742675781) rotate(-0.0)">
    <tspan class="GlobalId-3cBySgUNn9DOjK4h9_YiAN IfcAnnotation PredefinedType-TEXT mini" dy="0em" x="0" y="0">bekledingsplaatwatervast</tspan>
  </text>
  <text dominant-baseline="baseline" style="font-size: 0;" text-anchor="start" transform="translate(251.4259033203125, 115.04023742675781) rotate(-0.0)">
    <tspan class="GlobalId-2V86R1bHP3oPHnSiKcp3mB IfcAnnotation PredefinedType-TEXT mini" dy="0em" x="0" y="0">bekledingsplaatOSB</tspan>
  </text>
  <text dominant-baseline="baseline" style="font-size: 0;" text-anchor="start" transform="translate(201.4259033203125, 81.04022216796875) rotate(-0.0)">
    <tspan class="GlobalId-0A45xu5h5BYRNdSttC2JB7 IfcAnnotation PredefinedType-TEXT mini" dy="0em" x="0" y="0">natuursteentuf</tspan>
  </text>
  <text dominant-baseline="baseline" style="font-size: 0;" text-anchor="start" transform="translate(226.98672485351562, 393.84027099609375) rotate(-0.0)">
    <tspan class="GlobalId-0zmUfe04v4CODKwW45YKA7 IfcAnnotation PredefinedType-TEXT small" dy="0em" x="0" y="0">Cementdekvloer 70</tspan>
  </text>
  <text dominant-baseline="baseline" style="font-size: 0;" text-anchor="start" transform="translate(251.4259033203125, 91.0402603149414) rotate(-0.0)">
    <tspan class="GlobalId-2V1QUVMurDd9lBiXlVdxLj IfcAnnotation PredefinedType-TEXT mini" dy="0em" x="0" y="0">naaldhoutredcedar</tspan>
  </text>
  <text dominant-baseline="baseline" style="font-size: 0;" text-anchor="start" transform="translate(51.33464813232422, 118.04022979736328) rotate(-0.0)">
    <tspan class="GlobalId-1tV5axSCP7QvQWRep3jHAN IfcAnnotation PredefinedType-TEXT mini" dy="0em" x="0" y="0">honeycomb</tspan>
  </text>
  <g transform="translate(252.43389892578125, 245.04022216796875) rotate(-0.0) scale(1.0)">
    
        
    <text font-size="5.78px" text-anchor="left" dominant-baseline="middle" data-type="text-template" class="GlobalId-2gc7BsmqT6VPgsijVH9RRe IfcAnnotation PredefinedType-TEXT small">1.0</text>
    
        
    <text y="3.5" class="GlobalId-2gc7BsmqT6VPgsijVH9RRe IfcAnnotation PredefinedType-TEXT small" text-anchor="left" dominant-baseline="middle" data-type="text-template">Ruimte</text>
    
		
    <text y="7" class="GlobalId-2gc7BsmqT6VPgsijVH9RRe IfcAnnotation PredefinedType-TEXT small" text-anchor="left" dominant-baseline="middle" data-type="text-template">2.25 m²</text>
    
	
  </g>
   
	
  <text dominant-baseline="baseline" style="font-size: 0;" text-anchor="start" transform="translate(51.33464813232422, 54.040138244628906) rotate(-0.0)">
    <tspan class="GlobalId-1iWbjTfyPFbguxakfPgUYS IfcAnnotation PredefinedType-TEXT mini" dy="0em" x="0" y="0">FILL_AREA</tspan>
  </text>
  <text dominant-baseline="baseline" style="font-size: 0;" text-anchor="start" transform="translate(401.4259033203125, 64.04048156738281) rotate(-0.0)">
    <tspan class="GlobalId-29ztXEOOL8_xGVgOaSzK7N IfcAnnotation PredefinedType-TEXT mini" dy="0em" x="0" y="0">white 50</tspan>
  </text>
  <text dominant-baseline="baseline" style="font-size: 0;" text-anchor="start" transform="translate(251.4259033203125, 54.04021453857422) rotate(-0.0)">
    <tspan class="GlobalId-2bL6RzKmrDCgizTXpII6jO IfcAnnotation PredefinedType-TEXT mini" dy="0em" x="0" y="0">naaldhoutvuren</tspan>
  </text>
  <text dominant-baseline="baseline" style="font-size: 0;" text-anchor="start" transform="translate(201.4259033203125, 75.04023742675781) rotate(-0.0)">
    <tspan class="GlobalId-01YkGe6Az2dO7DO9let1qb IfcAnnotation PredefinedType-TEXT mini" dy="0em" x="0" y="0">natuursteenzandsteen</tspan>
  </text>
  <text dominant-baseline="baseline" style="font-size: 0;" text-anchor="start" transform="translate(101.42589569091797, 60.04023742675781) rotate(-0.0)">
    <tspan class="GlobalId-2XjiJi5cPBGgqX2srv1760 IfcAnnotation PredefinedType-TEXT mini" dy="0em" x="0" y="0">metselwerknietgebakkenkunststeen</tspan>
  </text>
  <text dominant-baseline="baseline" style="font-size: 0;" text-anchor="start" transform="translate(352.43389892578125, 250.04025268554688) rotate(-0.0)">
    <tspan class="GlobalId-1vPSFyhyTDSeGDxdJVM8_M IfcAnnotation PredefinedType-TEXT small" dy="0em" x="0" y="0">Section</tspan>
  </text>
  <text dominant-baseline="baseline" style="font-size: 0;" text-anchor="start" transform="translate(226.98672485351562, 371.8402404785156) rotate(-0.0)">
    <tspan class="GlobalId-2FJH0mFEzBl9OWIIWbqJ_x IfcAnnotation PredefinedType-TEXT small" dy="0em" x="0" y="0">CLT250</tspan>
  </text>
  <text dominant-baseline="baseline" style="font-size: 0;" text-anchor="start" transform="translate(101.42589569091797, 78.04022979736328) rotate(-0.0)">
    <tspan class="GlobalId-3FgUI8BiHBn9A0U87D3$5w IfcAnnotation PredefinedType-TEXT mini" dy="0em" x="0" y="0">enkelewandvloerafwerking</tspan>
  </text>
  <text dominant-baseline="baseline" style="font-size: 0;" text-anchor="start" transform="translate(176.98672485351562, 208.0402374267578) rotate(-0.0)">
    <tspan class="GlobalId-2BagOaXlrFS98FVloTNMVD IfcAnnotation PredefinedType-TEXT mini" dy="0em" x="0" y="0">1.3mm mini</tspan>
  </text>
  <text dominant-baseline="baseline" style="font-size: 0;" text-anchor="start" transform="translate(44.33452606201172, 433.38885498046875) rotate(-0.0)">
    <tspan class="GlobalId-2LZl3AmNTFlAyvfI09bsZ4 IfcAnnotation PredefinedType-TEXT small" dy="0em" x="0" y="0">Batting</tspan>
  </text>
  <text dominant-baseline="baseline" style="font-size: 0;" text-anchor="start" transform="translate(176.98672485351562, 289.04022216796875) rotate(-0.0)">
    <tspan class="GlobalId-1uw80gjrf9gPYPyI0Fkmre IfcAnnotation PredefinedType-TEXT title" dy="0em" x="0" y="0">7mm Title</tspan>
  </text>
  <text dominant-baseline="baseline" style="font-size: 0;" text-anchor="start" transform="translate(151.4259033203125, 131.04022216796875) rotate(-0.0)">
    <tspan class="GlobalId-2A$Tq4Waf4f9K6lIvHJzlT IfcAnnotation PredefinedType-TEXT mini" dy="0em" x="0" y="0">glas</tspan>
  </text>
  <text dominant-baseline="baseline" style="font-size: 0;" text-anchor="start" transform="translate(151.4259033203125, 57.040245056152344) rotate(-0.0)">
    <tspan class="GlobalId-07OM$A38XEu99FlagcVgVt IfcAnnotation PredefinedType-TEXT mini" dy="0em" x="0" y="0">specialesteenachtigematerialen</tspan>
  </text>
  <text dominant-baseline="baseline" style="font-size: 0;" text-anchor="start" transform="translate(44.33452606201172, 349.0402526855469) rotate(-1.0017912261950662e-05)">
    <tspan class="GlobalId-0ksd_D_r541f40ulX1d_mh IfcAnnotation PredefinedType-TEXT regular" dy="0em" x="0" y="0">IfcAnnotation Object Types</tspan>
  </text>
  <text dominant-baseline="baseline" style="font-size: 0;" text-anchor="start" transform="translate(151.4259033203125, 109.04025268554688) rotate(-0.0)">
    <tspan class="GlobalId-0JHxolFUf138vrQGv4lSkE IfcAnnotation PredefinedType-TEXT mini" dy="0em" x="0" y="0">kunststof</tspan>
  </text>
  <text dominant-baseline="baseline" style="font-size: 0;" text-anchor="start" transform="translate(51.33464813232422, 72.04032135009766) rotate(-0.0)">
    <tspan class="GlobalId-34pKnov8D2GfxJebF3lxfL IfcAnnotation PredefinedType-TEXT mini" dy="0em" x="0" y="0">SEALANT</tspan>
  </text>
  <text dominant-baseline="baseline" style="font-size: 0;" text-anchor="start" transform="translate(301.4259033203125, 69.04021453857422) rotate(-0.0)">
    <tspan class="GlobalId-39th8bWvLBWBMWEp4ud8fz IfcAnnotation PredefinedType-TEXT mini" dy="0em" x="0" y="0">isolatieEPS</tspan>
  </text>
  <text dominant-baseline="baseline" style="font-size: 0;" text-anchor="start" transform="translate(226.98672485351562, 404.8402404785156) rotate(-0.0)">
    <tspan class="GlobalId-11G6vD0V1DtQBncelhsoaF IfcAnnotation PredefinedType-TEXT small" dy="0em" x="0" y="0">Kanaalplaatvloer 200</tspan>
  </text>
  <text dominant-baseline="baseline" style="font-size: 0;" text-anchor="start" transform="translate(101.42589569091797, 103.04022979736328) rotate(-0.0)">
    <tspan class="GlobalId-0KMgkowWT6APhMpzozWK2z IfcAnnotation PredefinedType-TEXT mini" dy="0em" x="0" y="0">isolatie</tspan>
  </text>
  <text dominant-baseline="baseline" style="font-size: 0;" text-anchor="start" transform="translate(151.4259033203125, 91.0402603149414) rotate(-0.0)">
    <tspan class="GlobalId-1BoBZdK1L7Nwe5aaibfsax IfcAnnotation PredefinedType-TEXT mini" dy="0em" x="0" y="0">naaldhout</tspan>
  </text>
  <text dominant-baseline="baseline" style="font-size: 0;" text-anchor="start" transform="translate(176.98672485351562, 367.8402404785156) rotate(-0.0)">
    <tspan class="GlobalId-19qKgj0qn2VRv0V8NF$LI0 IfcAnnotation PredefinedType-TEXT small" dy="0em" x="0" y="0">CLT90</tspan>
  </text>
  <text dominant-baseline="baseline" style="font-size: 0;" text-anchor="start" transform="translate(151.4259033203125, 54.04021453857422) rotate(-0.0)">
    <tspan class="GlobalId-1QZ3sf5W55JvxG8QBOHL6n IfcAnnotation PredefinedType-TEXT mini" dy="0em" x="0" y="0">metselwerkbaksteen</tspan>
  </text>
  <text dominant-baseline="baseline" style="font-size: 0;" text-anchor="start" transform="translate(151.4259033203125, 125.04023742675781) rotate(-0.0)">
    <tspan class="GlobalId-0JRKLlZE52SwNAwzO9QPKU IfcAnnotation PredefinedType-TEXT mini" dy="0em" x="0" y="0">grind</tspan>
  </text>
  <text dominant-baseline="baseline" style="font-size: 0;" text-anchor="start" transform="translate(101.42589569091797, 81.04022216796875) rotate(-0.0)">
    <tspan class="GlobalId-0n3rxHUlT0KRWWJYY0LBkq IfcAnnotation PredefinedType-TEXT mini" dy="0em" x="0" y="0">samengesteldewandvloerafwerking</tspan>
  </text>
  <text dominant-baseline="baseline" style="font-size: 0;" text-anchor="start" transform="translate(151.4259033203125, 72.04024505615234) rotate(-0.0)">
    <tspan class="GlobalId-3e0iMf3vn83Pvl7n23yt6_ IfcAnnotation PredefinedType-TEXT mini" dy="0em" x="0" y="0">sierbeton</tspan>
  </text>
  <text dominant-baseline="baseline" style="font-size: 0;" text-anchor="start" transform="translate(351.4259033203125, 69.04021453857422) rotate(-0.0)">
    <tspan class="GlobalId-0gz5lpdIbB38mJ0iZf3Y4c IfcAnnotation PredefinedType-TEXT mini" dy="0em" x="0" y="0">zandzand</tspan>
  </text>
  <text dominant-baseline="baseline" style="font-size: 0;" text-anchor="start" transform="translate(51.33464813232422, 57.040245056152344) rotate(-0.0)">
    <tspan class="GlobalId-0f7WgTVwf0oAOWUeiMNDNy IfcAnnotation PredefinedType-TEXT mini" dy="0em" x="0" y="0">STUD</tspan>
  </text>
  <text dominant-baseline="baseline" style="font-size: 0;" text-anchor="start" transform="translate(251.4259033203125, 60.04023742675781) rotate(-0.0)">
    <tspan class="GlobalId-1npW0tsSLDXBth18s_Oaqp IfcAnnotation PredefinedType-TEXT mini" dy="0em" x="0" y="0">naaldhouteiken</tspan>
  </text>
  <text dominant-baseline="baseline" style="font-size: 0;" text-anchor="start" transform="translate(176.98672485351562, 376.8402404785156) rotate(-0.0)">
    <tspan class="GlobalId-3Qx$Ba7E1F9e10Du3ct9qo IfcAnnotation PredefinedType-TEXT small" dy="0em" x="0" y="0">CLT120</tspan>
  </text>
  <text dominant-baseline="baseline" style="font-size: 0;" text-anchor="start" transform="translate(176.98672485351562, 218.37286376953125) rotate(-0.0)">
    <tspan class="GlobalId-2mcfbH$rz0VgUWnDhT7WgU IfcAnnotation PredefinedType-TEXT mini small" dy="0em" x="0" y="0">1.8mm small</tspan>
  </text>
  <text dominant-baseline="baseline" style="font-size: 0;" text-anchor="start" transform="translate(301.4259033203125, 54.04021453857422) rotate(-0.0)">
    <tspan class="GlobalId-1OuBFFXuL7FuttMhefThmN IfcAnnotation PredefinedType-TEXT mini" dy="0em" x="0" y="0">isolatieglaswol</tspan>
  </text>
  <text dominant-baseline="baseline" style="font-size: 0;" text-anchor="start" transform="translate(101.42589569091797, 54.04021453857422) rotate(-0.0)">
    <tspan class="GlobalId-3cik834y9DMQFqJftMLA4a IfcAnnotation PredefinedType-TEXT mini" dy="0em" x="0" y="0">metselwerkbaksteen</tspan>
  </text>
  <text dominant-baseline="baseline" style="font-size: 0;" text-anchor="start" transform="translate(301.4259033203125, 57.040245056152344) rotate(-0.0)">
    <tspan class="GlobalId-0oiep2dan72RDJAuMwuGAW IfcAnnotation PredefinedType-TEXT mini" dy="0em" x="0" y="0">isolatiesteenwol</tspan>
  </text>
  <text dominant-baseline="baseline" style="font-size: 0;" text-anchor="start" transform="translate(251.4259033203125, 81.04022216796875) rotate(-0.0)">
    <tspan class="GlobalId-1EicjB$rn11uxq8s$VrkRM IfcAnnotation PredefinedType-TEXT mini" dy="0em" x="0" y="0">naaldhoutgrenen</tspan>
  </text>
  <text dominant-baseline="baseline" style="font-size: 0;" text-anchor="start" transform="translate(151.4259033203125, 103.04022979736328) rotate(-0.0)">
    <tspan class="GlobalId-0f7Hgokxf82uAcj5PEveDH IfcAnnotation PredefinedType-TEXT mini" dy="0em" x="0" y="0">isolatie</tspan>
  </text>
  <text dominant-baseline="baseline" style="font-size: 0;" text-anchor="start" transform="translate(51.33464813232422, 115.04023742675781) rotate(-0.0)">
    <tspan class="GlobalId-3RptKqvkX4oQWGP7mqtVZ9 IfcAnnotation PredefinedType-TEXT mini" dy="0em" x="0" y="0">grass</tspan>
  </text>
  <text dominant-baseline="baseline" style="font-size: 0;" text-anchor="start" transform="translate(51.33464813232422, 100.04039001464844) rotate(-0.0)">
    <tspan class="GlobalId-33Je5C$Kv7TfKprnO1yeOc IfcAnnotation PredefinedType-TEXT mini" dy="0em" x="0" y="0">crosshatch3</tspan>
  </text>
  <text dominant-baseline="baseline" style="font-size: 0;" text-anchor="start" transform="translate(176.98672485351562, 358.84027099609375) rotate(-0.0)">
    <tspan class="GlobalId-3s0ipq_jDCShfAGvxk7$8a IfcAnnotation PredefinedType-TEXT small" dy="0em" x="0" y="0">CLT50</tspan>
  </text>
  <text dominant-baseline="baseline" style="font-size: 0;" text-anchor="start" transform="translate(44.33452606201172, 219.0401611328125) rotate(-0.0)">
    <tspan class="GlobalId-1Abpa2$qbEeQzwRQfgqCN3 IfcAnnotation PredefinedType-TEXT small" dy="0em" x="0" y="0">LINEWORK</tspan>
  </text>
  <text dominant-baseline="baseline" style="font-size: 0;" text-anchor="start" transform="translate(101.42589569091797, 94.04025268554688) rotate(-0.0)">
    <tspan class="GlobalId-061j_xQgX72RYXX3ncr12O IfcAnnotation PredefinedType-TEXT mini" dy="0em" x="0" y="0">loofhout</tspan>
  </text>
  <text dominant-baseline="baseline" style="font-size: 0;" text-anchor="start" transform="translate(151.4259033203125, 60.04023742675781) rotate(-0.0)">
    <tspan class="GlobalId-1CknsOqZ9E5RfPijDdCCFA IfcAnnotation PredefinedType-TEXT mini" dy="0em" x="0" y="0">metselwerknietgebakkenkunststeen</tspan>
  </text>
  <text dominant-baseline="baseline" style="font-size: 0;" text-anchor="start" transform="translate(251.4259033203125, 94.04025268554688) rotate(-0.0)">
    <tspan class="GlobalId-3bFYvjBnb7$wNFWFUjs6wI IfcAnnotation PredefinedType-TEXT mini" dy="0em" x="0" y="0">naaldhoutiroko</tspan>
  </text>
  <text dominant-baseline="baseline" style="font-size: 0;" text-anchor="start" transform="translate(176.98672485351562, 229.94332885742188) rotate(-0.0)">
    <tspan class="GlobalId-0rEUU_2WD6w865HEoPF1Kj IfcAnnotation PredefinedType-TEXT regular" dy="0em" x="0" y="0">2.5mm regular</tspan>
  </text>
  <text dominant-baseline="baseline" style="font-size: 0;" text-anchor="start" transform="translate(124.33452606201172, 411.6603088378906) rotate(-0.0)">
    <tspan class="GlobalId-1yxVjbNFX46QeRcE83UoV_ IfcAnnotation PredefinedType-TEXT small" dy="0em" x="0" y="0">Diameter</tspan>
  </text>
  <text dominant-baseline="baseline" style="font-size: 0;" text-anchor="start" transform="translate(51.33464813232422, 103.04034423828125) rotate(-0.0)">
    <tspan class="GlobalId-2LlwXpJvnEYv7TXKPmrmfX IfcAnnotation PredefinedType-TEXT mini" dy="0em" x="0" y="0">brick</tspan>
  </text>
  <text dominant-baseline="baseline" style="font-size: 0;" text-anchor="start" transform="translate(201.4259033203125, 78.04022979736328) rotate(-0.0)">
    <tspan class="GlobalId-20BrSEmFP8FwLwTyrF3rgk IfcAnnotation PredefinedType-TEXT mini" dy="0em" x="0" y="0">natuursteenkalksteen</tspan>
  </text>
  <text dominant-baseline="baseline" style="font-size: 0;" text-anchor="start" transform="translate(226.98672485351562, 415.8402099609375) rotate(-0.0)">
    <tspan class="GlobalId-06rTOUIlLAXePt4IX8ZT3X IfcAnnotation PredefinedType-TEXT small" dy="0em" x="0" y="0">Isolatie40</tspan>
  </text>
  <text dominant-baseline="baseline" style="font-size: 0;" text-anchor="start" transform="translate(51.33464813232422, 109.04032897949219) rotate(-0.0)">
    <tspan class="GlobalId-3w8o5LJ5j1kgHdiuR2QjoK IfcAnnotation PredefinedType-TEXT mini" dy="0em" x="0" y="0">glass</tspan>
  </text>
  <text dominant-baseline="baseline" style="font-size: 0;" text-anchor="start" transform="translate(194.42593383789062, 49.04021453857422) rotate(-0.0)">
    <tspan class="GlobalId-3P1IfBpkf2_QGgKx3Wm0IB IfcAnnotation PredefinedType-TEXT" dy="0em" x="0" y="0">Steenachtig</tspan>
  </text>
  <text dominant-baseline="baseline" style="font-size: 0;" text-anchor="start" transform="translate(101.42589569091797, 112.04024505615234) rotate(-0.0)">
    <tspan class="GlobalId-2rsw7cW0b7Sh17DQDMex06 IfcAnnotation PredefinedType-TEXT mini" dy="0em" x="0" y="0">afdichtingsmiddel</tspan>
  </text>
  <text dominant-baseline="baseline" style="font-size: 0;" text-anchor="start" transform="translate(226.98672485351562, 349.0402526855469) rotate(-0.0)">
    <tspan class="GlobalId-3mv9pseY1A0u0x3pWGwM5p IfcAnnotation PredefinedType-TEXT" dy="0em" x="0" y="0">Slabs</tspan>
  </text>
  <text dominant-baseline="baseline" style="font-size: 0;" text-anchor="start" transform="translate(124.33452606201172, 376.0401916503906) rotate(-0.0)">
    <tspan class="GlobalId-1cusyaSQv19fJI9qaKEzV2 IfcAnnotation PredefinedType-TEXT small" dy="0em" x="0" y="0">Level - Plan</tspan>
  </text>
  <text dominant-baseline="baseline" style="font-size: 0;" text-anchor="start" transform="translate(151.4259033203125, 94.04025268554688) rotate(-0.0)">
    <tspan class="GlobalId-0k6porOXn5ngSp3oE$fpxm IfcAnnotation PredefinedType-TEXT mini" dy="0em" x="0" y="0">loofhout</tspan>
  </text>
  <text dominant-baseline="baseline" style="font-size: 0;" text-anchor="start" transform="translate(151.4259033203125, 115.04023742675781) rotate(-0.0)">
    <tspan class="GlobalId-2WiTirTW17FBmQkERE_d7A IfcAnnotation PredefinedType-TEXT mini" dy="0em" x="0" y="0">maaiveld</tspan>
  </text>
  <text dominant-baseline="baseline" style="font-size: 0;" text-anchor="start" transform="translate(151.4259033203125, 100.04023742675781) rotate(-0.0)">
    <tspan class="GlobalId-11_gOxsh91zeSTy7n6RHhW IfcAnnotation PredefinedType-TEXT mini" dy="0em" x="0" y="0">bekledingsplaat</tspan>
  </text>
  <text dominant-baseline="baseline" style="font-size: 0;" text-anchor="start" transform="translate(201.4259033203125, 63.04022979736328) rotate(-0.0)">
    <tspan class="GlobalId-1MIIVGFb1789vMCbBN1RTB IfcAnnotation PredefinedType-TEXT mini" dy="0em" x="0" y="0">metselwerkbaksteentras</tspan>
  </text>
  <text dominant-baseline="baseline" style="font-size: 0;" text-anchor="start" transform="translate(51.33464813232422, 78.04022979736328) rotate(-0.0)">
    <tspan class="GlobalId-3sLWPcPw11BORvZttIrySX IfcAnnotation PredefinedType-TEXT mini" dy="0em" x="0" y="0">diagonal1</tspan>
  </text>
  <text dominant-baseline="baseline" style="font-size: 0;" text-anchor="start" transform="translate(151.4259033203125, 69.04021453857422) rotate(-0.0)">
    <tspan class="GlobalId-2dzoGgu2r0XunM1rjoalHl IfcAnnotation PredefinedType-TEXT mini" dy="0em" x="0" y="0">ongewapendbeton</tspan>
  </text>
  <text dominant-baseline="baseline" style="font-size: 0;" text-anchor="start" transform="translate(251.4259033203125, 78.04022979736328) rotate(-0.0)">
    <tspan class="GlobalId-1s7fBiPS58nOAdRfRXroiH IfcAnnotation PredefinedType-TEXT mini" dy="0em" x="0" y="0">naaldhoutdouglas</tspan>
  </text>
  <text dominant-baseline="baseline" style="font-size: 0;" text-anchor="start" transform="translate(301.4259033203125, 72.04024505615234) rotate(-0.0)">
    <tspan class="GlobalId-3UZelVEe5FWfyhhfA6YdFB IfcAnnotation PredefinedType-TEXT mini" dy="0em" x="0" y="0">isolatieEPS00</tspan>
  </text>
  <text dominant-baseline="baseline" style="font-size: 0;" text-anchor="start" transform="translate(401.4259033203125, 73.04049682617188) rotate(-0.0)">
    <tspan class="GlobalId-32PeqzKHnEfRROIDGHSasV IfcAnnotation PredefinedType-TEXT mini" dy="0em" x="0" y="0">black</tspan>
  </text>
  <text dominant-baseline="baseline" style="font-size: 0;" text-anchor="start" transform="translate(51.33464813232422, 94.0404052734375) rotate(-0.0)">
    <tspan class="GlobalId-2$1VV4xLv7EwlOwwe5kjka IfcAnnotation PredefinedType-TEXT mini" dy="0em" x="0" y="0">crosshatch1</tspan>
  </text>
  <text dominant-baseline="baseline" style="font-size: 0;" text-anchor="start" transform="translate(151.4259033203125, 118.04022979736328) rotate(-0.0)">
    <tspan class="GlobalId-2YKP77KjrCcAsyXL9w_ToN IfcAnnotation PredefinedType-TEXT mini" dy="0em" x="0" y="0">zand</tspan>
  </text>
  <text dominant-baseline="baseline" style="font-size: 0;" text-anchor="start" transform="translate(201.4259033203125, 57.040245056152344) rotate(-0.0)">
    <tspan class="GlobalId-3dEWcVqsj76ueuibhR3Xb8 IfcAnnotation PredefinedType-TEXT mini" dy="0em" x="0" y="0">metselwerkbaksteenrood</tspan>
  </text>
  <text dominant-baseline="baseline" style="font-size: 0;" text-anchor="start" transform="translate(51.33464813232422, 112.04024505615234) rotate(-0.0)">
    <tspan class="GlobalId-3UHjwcQsTFlOhUmgVSM779 IfcAnnotation PredefinedType-TEXT mini" dy="0em" x="0" y="0">liquid</tspan>
  </text>
  <text dominant-baseline="baseline" style="font-size: 0;" text-anchor="start" transform="translate(51.33464813232422, 125.04023742675781) rotate(-0.0)">
    <tspan class="GlobalId-3MG44J8kHFQfwzEG9yWkYk IfcAnnotation PredefinedType-TEXT mini" dy="0em" x="0" y="0">sand</tspan>
  </text>
  <text dominant-baseline="baseline" style="font-size: 0;" text-anchor="start" transform="translate(51.33464813232422, 106.04033660888672) rotate(-0.0)">
    <tspan class="GlobalId-3fzEaTQ2PE2eI46rMNGpZK IfcAnnotation PredefinedType-TEXT mini" dy="0em" x="0" y="0">earth</tspan>
  </text>
  <text dominant-baseline="baseline" style="font-size: 0;" text-anchor="start" transform="translate(226.98672485351562, 426.8402404785156) rotate(-0.0)">
    <tspan class="GlobalId-2overSRaTEmR66QX932B$i IfcAnnotation PredefinedType-TEXT small" dy="0em" x="0" y="0">Isolatie120</tspan>
  </text>
  <text dominant-baseline="baseline" style="font-size: 0;" text-anchor="start" transform="translate(101.42589569091797, 100.04023742675781) rotate(-0.0)">
    <tspan class="GlobalId-2WWGxmtXHC6wbREC0TlRQE IfcAnnotation PredefinedType-TEXT mini" dy="0em" x="0" y="0">bekledingsplaat</tspan>
  </text>
  <text dominant-baseline="baseline" style="font-size: 0;" text-anchor="start" transform="translate(101.42589569091797, 72.04024505615234) rotate(-0.0)">
    <tspan class="GlobalId-1qgVS4t3bAcBR$UuSfaViE IfcAnnotation PredefinedType-TEXT mini" dy="0em" x="0" y="0">sierbeton</tspan>
  </text>
  <text dominant-baseline="baseline" style="font-size: 0;" text-anchor="start" transform="translate(226.98672485351562, 437.84027099609375) rotate(-0.0)">
    <tspan class="GlobalId-3Mg55wdln5DfWm4k7zEPf1 IfcAnnotation PredefinedType-TEXT small" dy="0em" x="0" y="0">Isolatie180</tspan>
  </text>
  <text dominant-baseline="baseline" style="font-size: 0;" text-anchor="start" transform="translate(176.98672485351562, 403.84027099609375) rotate(-0.0)">
    <tspan class="GlobalId-1QWuUXVtz0NfL1iaob6kYa IfcAnnotation PredefinedType-TEXT small" dy="0em" x="0" y="0">MW100</tspan>
  </text>
  <text dominant-baseline="baseline" style="font-size: 0;" text-anchor="start" transform="translate(101.42589569091797, 97.04024505615234) rotate(-0.0)">
    <tspan class="GlobalId-11EpxooHD6t8i86T5zEzgy IfcAnnotation PredefinedType-TEXT mini" dy="0em" x="0" y="0">naaldloofhoutlangsarcering</tspan>
  </text>
  <text dominant-baseline="baseline" style="font-size: 0;" text-anchor="start" transform="translate(101.42589569091797, 66.0402603149414) rotate(-0.0)">
    <tspan class="GlobalId-3OspGRIYH97O5jzl9NA7MV IfcAnnotation PredefinedType-TEXT mini" dy="0em" x="0" y="0">gewapendbetonprefab</tspan>
  </text>
  <text dominant-baseline="baseline" style="font-size: 0;" text-anchor="start" transform="translate(176.98672485351562, 246.55929565429688) rotate(-0.0)">
    <tspan class="GlobalId-1ba9Fy6Ub8LOm7tkSH5wQT IfcAnnotation PredefinedType-TEXT large" dy="0em" x="0" y="0">3.5mm large</tspan>
  </text>
  <text dominant-baseline="baseline" style="font-size: 0;" text-anchor="start" transform="translate(251.4259033203125, 134.04025268554688) rotate(-0.0)">
    <tspan class="GlobalId-27_n6lw3nBOurVJK4S5bpn IfcAnnotation PredefinedType-TEXT mini" dy="0em" x="0" y="0">bekledingsplaatgroenespaan</tspan>
  </text>
  <text dominant-baseline="baseline" style="font-size: 0;" text-anchor="start" transform="translate(101.42589569091797, 57.040245056152344) rotate(-0.0)">
    <tspan class="GlobalId-2LhS47DbXAdh0D2NyP$LGp IfcAnnotation PredefinedType-TEXT mini" dy="0em" x="0" y="0">specialesteenachtigematerialen</tspan>
  </text>
  <text dominant-baseline="baseline" style="font-size: 0;" text-anchor="start" transform="translate(101.42589569091797, 128.04022216796875) rotate(-0.0)">
    <tspan class="GlobalId-1_tM8AMg114gFGSBlBwZbo IfcAnnotation PredefinedType-TEXT mini" dy="0em" x="0" y="0">water</tspan>
  </text>
  <text dominant-baseline="baseline" style="font-size: 0;" text-anchor="start" transform="translate(401.4259033203125, 70.0405044555664) rotate(-0.0)">
    <tspan class="GlobalId-3UIW4U1u1EeeS8jtt9YkV3 IfcAnnotation PredefinedType-TEXT mini" dy="0em" x="0" y="0">blank</tspan>
  </text>
  <text dominant-baseline="baseline" style="font-size: 0;" text-anchor="start" transform="translate(351.4259033203125, 72.04024505615234) rotate(-0.0)">
    <tspan class="GlobalId-0v4pEOeGj1hgyjGoU68zrL IfcAnnotation PredefinedType-TEXT mini" dy="0em" x="0" y="0">waterwater</tspan>
  </text>
  <text dominant-baseline="baseline" style="font-size: 0;" text-anchor="start" transform="translate(251.4259033203125, 109.04025268554688) rotate(-0.0)">
    <tspan class="GlobalId-3OYDor5EDCKP1wZce9tp5S IfcAnnotation PredefinedType-TEXT mini" dy="0em" x="0" y="0">naaldhoutvurenCLT</tspan>
  </text>
  <text dominant-baseline="baseline" style="font-size: 0;" text-anchor="start" transform="translate(51.33464813232422, 75.04023742675781) rotate(-0.0)">
    <tspan class="GlobalId-2AAkvKa4j99uS77j5Afrl8 IfcAnnotation PredefinedType-TEXT mini" dy="0em" x="0" y="0">blank</tspan>
  </text>
  <text dominant-baseline="baseline" style="font-size: 0;" text-anchor="start" transform="translate(101.42589569091797, 109.04025268554688) rotate(-0.0)">
    <tspan class="GlobalId-3xYJmbBLrF7uG4QBNfmtLF IfcAnnotation PredefinedType-TEXT mini" dy="0em" x="0" y="0">kunststof</tspan>
  </text>
  <text dominant-baseline="baseline" style="font-size: 0;" text-anchor="start" transform="translate(251.4259033203125, 103.04022979736328) rotate(-0.0)">
    <tspan class="GlobalId-2m1frqAA18mOaOt21NlOxA IfcAnnotation PredefinedType-TEXT mini" dy="0em" x="0" y="0">naaldhoutazobe</tspan>
  </text>
  <text dominant-baseline="baseline" style="font-size: 0;" text-anchor="start" transform="translate(251.4259033203125, 75.04023742675781) rotate(-0.0)">
    <tspan class="GlobalId-36sfzq29H3_ga1jPyb6gK7 IfcAnnotation PredefinedType-TEXT mini" dy="0em" x="0" y="0">naaldhoutmahonie</tspan>
  </text>
  <text dominant-baseline="baseline" style="font-size: 0;" text-anchor="start" transform="translate(351.4259033203125, 63.04022979736328) rotate(-0.0)">
    <tspan class="GlobalId-0n2SuJsn59EAhI5uT$2RWq IfcAnnotation PredefinedType-TEXT mini" dy="0em" x="0" y="0">maaiveldklei</tspan>
  </text>
  <text dominant-baseline="baseline" style="font-size: 0;" text-anchor="start" transform="translate(101.42589569091797, 106.0402603149414) rotate(-0.0)">
    <tspan class="GlobalId-2ghk4SvevCFggvN80FiTVA IfcAnnotation PredefinedType-TEXT mini" dy="0em" x="0" y="0">lood</tspan>
  </text>
  <text dominant-baseline="baseline" style="font-size: 0;" text-anchor="start" transform="translate(51.33464813232422, 69.04021453857422) rotate(-0.0)">
    <tspan class="GlobalId-3w_5wFq$nAWxeCewN_16nD IfcAnnotation PredefinedType-TEXT mini" dy="0em" x="0" y="0">PLASTERBOARD</tspan>
  </text>
  <text dominant-baseline="baseline" style="font-size: 0;" text-anchor="start" transform="translate(176.98672485351562, 385.84027099609375) rotate(-0.0)">
    <tspan class="GlobalId-2mCRFxNGj6GeROTNcjbLKT IfcAnnotation PredefinedType-TEXT small" dy="0em" x="0" y="0">CLT140</tspan>
  </text>
  <text dominant-baseline="baseline" style="font-size: 0;" text-anchor="start" transform="translate(176.98672485351562, 394.8402404785156) rotate(-0.0)">
    <tspan class="GlobalId-3vw07KwVr4Q8AwixLvz$ac IfcAnnotation PredefinedType-TEXT small" dy="0em" x="0" y="0">ISO100</tspan>
  </text>
  <text dominant-baseline="baseline" style="font-size: 0;" text-anchor="start" transform="translate(51.33464813232422, 91.0402603149414) rotate(-0.0)">
    <tspan class="GlobalId-2QHZurTaT6wv7OzH2rJBdj IfcAnnotation PredefinedType-TEXT mini" dy="0em" x="0" y="0">diagonal3</tspan>
  </text>
  <text dominant-baseline="baseline" style="font-size: 0;" text-anchor="start" transform="translate(51.33464813232422, 97.04035949707031) rotate(-0.0)">
    <tspan class="GlobalId-3Ejus1qif7_8R4ccRnfG51 IfcAnnotation PredefinedType-TEXT mini" dy="0em" x="0" y="0">crosshatch2</tspan>
  </text>
  <text dominant-baseline="baseline" style="font-size: 0;" text-anchor="start" transform="translate(151.4259033203125, 81.04022216796875) rotate(-0.0)">
    <tspan class="GlobalId-04Yq6oyQvCCPyAqOvNXXxP IfcAnnotation PredefinedType-TEXT mini" dy="0em" x="0" y="0">samengesteldewandvloerafwerking</tspan>
  </text>
  <text dominant-baseline="baseline" style="font-size: 0;" text-anchor="start" transform="translate(151.4259033203125, 66.0402603149414) rotate(-0.0)">
    <tspan class="GlobalId-2UJD28wan60Rm01DWFdEWr IfcAnnotation PredefinedType-TEXT mini" dy="0em" x="0" y="0">gewapendbetonprefab</tspan>
  </text>
  <text dominant-baseline="baseline" style="font-size: 0;" text-anchor="start" transform="translate(351.4259033203125, 60.040199279785156) rotate(-0.0)">
    <tspan class="GlobalId-0R_QFFMovEtQ0$ZiM702yu IfcAnnotation PredefinedType-TEXT mini" dy="0em" x="0" y="0">maaiveldasfalt</tspan>
  </text>
  <text dominant-baseline="baseline" style="font-size: 0;" text-anchor="start" transform="translate(176.98672485351562, 263.6672668457031) rotate(-0.0)">
    <tspan class="GlobalId-0zLRHTCSD5IO_hZ5KDSP4t IfcAnnotation PredefinedType-TEXT header" dy="0em" x="0" y="0">5.0mm header</tspan>
  </text>
  <text dominant-baseline="baseline" style="font-size: 0;" text-anchor="start" transform="translate(51.33464813232422, 60.04027557373047) rotate(-0.0)">
    <tspan class="GlobalId-1V1$jTI6b8lgRPd7UvSvK7 IfcAnnotation PredefinedType-TEXT mini" dy="0em" x="0" y="0">WOOD</tspan>
  </text>
  <text dominant-baseline="baseline" style="font-size: 0;" text-anchor="start" transform="translate(251.4259033203125, 100.04023742675781) rotate(-0.0)">
    <tspan class="GlobalId-0nM8nooGT0fgsU01EMe8LX IfcAnnotation PredefinedType-TEXT mini" dy="0em" x="0" y="0">naaldhoutbangkirai</tspan>
  </text>
  <text dominant-baseline="baseline" style="font-size: 0;" text-anchor="start" transform="translate(201.4259033203125, 69.04021453857422) rotate(-0.0)">
    <tspan class="GlobalId-03S4Cu3TfBrxTL3WDPqlKd IfcAnnotation PredefinedType-TEXT mini" dy="0em" x="0" y="0">kalkzandsteen</tspan>
  </text>
  <text dominant-baseline="baseline" style="font-size: 0;" text-anchor="start" transform="translate(251.4259033203125, 106.0402603149414) rotate(-0.0)">
    <tspan class="GlobalId-0x1p136yv1BhrHzhE864bD IfcAnnotation PredefinedType-TEXT mini" dy="0em" x="0" y="0">naaldhoutbamboe</tspan>
  </text>
  <text dominant-baseline="baseline" style="font-size: 0;" text-anchor="start" transform="translate(51.33464813232422, 128.04026794433594) rotate(-0.0)">
    <tspan class="GlobalId-2gxO0P3sfDhhuJMil$5pFr IfcAnnotation PredefinedType-TEXT mini" dy="0em" x="0" y="0">concrete</tspan>
  </text>
  <text dominant-baseline="baseline" style="font-size: 0;" text-anchor="start" transform="translate(351.4259033203125, 54.04021453857422) rotate(-0.0)">
    <tspan class="GlobalId-3ceQvBTP9B1QHC5ODLw3gI IfcAnnotation PredefinedType-TEXT mini" dy="0em" x="0" y="0">maaiveldalgemeen</tspan>
  </text>
  <path class="GlobalId-0uwh4kanjABgz5XycLTQpP IfcAnnotation PredefinedType-blank" d="M 400.42591094970703 70.04053978513419 L 394.4259262084961 70.04053978513419 L 394.4259262084961 68.040494008767 L 400.42591094970703 68.040494008767 L 400.42591094970703 70.04053978513419"/>
  <path class="GlobalId-1Ji0iRnwb79ePAgMPX9wSb IfcAnnotation PredefinedType-black" d="M 400.42591094970703 73.04053215573965 L 394.4259262084961 73.04053215573965 L 394.4259262084961 71.04048637937247 L 400.42591094970703 71.04048637937247 L 400.42591094970703 73.04053215573965"/>
  <line class="GlobalId-3hO0bwmXjC_vLWDK0hOXva IfcAnnotation PredefinedType-LINEWORK breakline" x1="116.59175872802734" x2="146.59176635742188" y1="241.04022216796875" y2="241.04022216796875"/>
</svg>
