<svg xmlns="http://www.w3.org/2000/svg" xmlns:xlink="http://www.w3.org/1999/xlink" xmlns:ifc="http://www.ifcopenshell.org/ns" width="500mm" height="500mm" viewBox="0 0 500 500">
    <defs>
        <marker id="arrowend" markerWidth="10" markerHeight="7" refX="10" refY="3.5" orient="auto">
          <polygon points="0 0, 10 3.5, 0 7"/>
        </marker>
        <marker id="arrowstart" markerWidth="10" markerHeight="7" refX="0" refY="3.5" orient="auto">
          <polygon points="10 0, 0 3.5, 10 7"/>
        </marker>
    </defs>
    <g ifc:name="Elevation Materialen &amp; Annotaties" class="section" ifc:plane="[[1.000000,0.000000,0.000000,0.000000],[0.000000,1.000000,0.000000,0.000000],[0.000000,0.000000,1.000000,0.000000],[0.000000,0.000000,0.000000,1.000000]]" ifc:matrix3="[[20.000000,0.000000,1010.000075],[0.000000,20.000000,470.000011],[0.000000,0.000000,1.000000]]">
        <g id="product-64b012bb-ec22-4ba2-8ddb-1920a00125f2" class="IfcWall material-naaldhoutvurenCLT projection" ifc:name="Wall" ifc:guid="1ai1Axx29BeetR6I2W0INo">
            <path d="M207.071,355.883 L187.071,355.883"/>
            <path d="M207.071,354.883 L207.071,355.883"/>
            <path d="M187.071,354.883 L207.071,354.883"/>
            <path d="M187.071,355.883 L187.071,354.883"/>
        </g>
        <g id="product-58def3be-8727-43c7-acff-de8a2a21983e" class="IfcWall material-naaldhoutvurenCLT projection" ifc:name="Wall" ifc:guid="1OtlE_XoT3nwp$teeg8PW_">
            <path d="M207.071,373.883 L187.071,373.883"/>
            <path d="M207.071,371.483 L207.071,373.883"/>
            <path d="M187.071,371.483 L207.071,371.483"/>
            <path d="M187.071,373.883 L187.071,371.483"/>
        </g>
        <g id="product-be2a8dad-8543-4c10-bd69-8a9dae5619a7" class="IfcWall material-isolatie projection" ifc:name="Wall" ifc:guid="2_AesjXKDC4BrfYfskLXcd">
            <path d="M207.071,391.883 L187.071,391.883"/>
            <path d="M207.071,389.883 L207.071,391.883"/>
            <path d="M187.071,389.883 L207.071,389.883"/>
            <path d="M187.071,391.883 L187.071,389.883"/>
        </g>
        <g id="product-f301f840-6e1f-400b-8865-892050ce260a" class="IfcWall material-naaldhoutvurenCLT projection" ifc:name="Wall" ifc:guid="3p0VX0RXz02uXbYI1GpYOA">
            <path d="M207.071,382.883 L187.071,382.883"/>
            <path d="M207.071,380.083 L207.071,382.883"/>
            <path d="M187.071,380.083 L207.071,380.083"/>
            <path d="M187.071,382.883 L187.071,380.083"/>
        </g>
        <g id="product-d8112f79-0248-44a8-9a89-28a0ca7a3ca6" class="IfcSlab material-naaldhoutvurenCLT projection" ifc:name="Slab" ifc:guid="3O4Izv0aX4g9g9AA3AUZoc">
            <path d="M237.071,353.883 L237.071,357.883"/>
            <path d="M257.071,353.883 L237.071,353.883"/>
            <path d="M257.071,357.883 L257.071,353.883"/>
            <path d="M237.071,357.883 L257.071,357.883"/>
        </g>
        <g id="product-985e514e-7ac7-4e39-8405-6467606174d8" class="IfcSlab material-naaldhoutvurenCLT projection" ifc:name="Slab" ifc:guid="2ONb5EUiTEEOG5P6TWONJO">
            <path d="M237.071,364.883 L237.071,368.883"/>
            <path d="M257.071,364.883 L237.071,364.883"/>
            <path d="M257.071,368.883 L257.071,364.883"/>
            <path d="M237.071,368.883 L257.071,368.883"/>
        </g>
        <g id="product-32c512a7-2d55-4ebb-b5e9-79f6ed7424af" class="IfcWall material-metselwerkbaksteenrood projection" ifc:name="Wall" ifc:guid="0onHAdBLLEkxNfUVRjT2Il">
            <path d="M207.071,400.883 L187.071,400.883"/>
            <path d="M207.071,398.883 L207.071,400.883"/>
            <path d="M187.071,398.883 L207.071,398.883"/>
            <path d="M187.071,400.883 L187.071,398.883"/>
        </g>
        <g id="product-dc82dd1c-6136-455e-b6e3-6eed39e414b9" class="IfcSlab material-ongewapendbeton projection" ifc:name="Slab" ifc:guid="3SWjqSOJP5NhRZRkqvv1Iv">
            <path d="M237.071,390.883 L237.071,386.883"/>
            <path d="M257.071,390.883 L237.071,390.883"/>
            <path d="M257.071,386.883 L257.071,390.883"/>
            <path d="M237.071,386.883 L257.071,386.883"/>
        </g>
        <g id="product-29710b09-4a78-4909-9592-9622fd25e689" class="IfcSlab material-gewapendbetonprefab projection" ifc:name="Slab" ifc:guid="0fSGi9IdX92PMIbYBz9UQ9">
            <path d="M237.071,401.883 L237.071,397.883"/>
            <path d="M257.071,401.883 L237.071,401.883"/>
            <path d="M257.071,397.883 L257.071,401.883"/>
            <path d="M237.071,397.883 L257.071,397.883"/>
        </g>
        <g id="product-961ada73-949d-4b1c-9185-cd81b85f584f" class="IfcSlab material-isolatieEPS projection" ifc:name="Slab" ifc:guid="2M6jfpb9rB7965pO6uNrXF">
            <path d="M237.071,419.883 L237.071,423.883"/>
            <path d="M257.071,419.883 L237.071,419.883"/>
            <path d="M257.071,423.883 L257.071,419.883"/>
            <path d="M237.071,423.883 L257.071,423.883"/>
        </g>
        <g id="product-af69c895-e628-4195-81e4-1ee733e86244" class="IfcSlab material-isolatie projection" ifc:name="Slab" ifc:guid="2lQSYLvYX1bO7a7kSpw694">
            <path d="M237.071,408.883 L237.071,412.883"/>
            <path d="M257.071,408.883 L237.071,408.883"/>
            <path d="M257.071,412.883 L257.071,408.883"/>
            <path d="M237.071,412.883 L257.071,412.883"/>
        </g>
        <g id="product-76bb8afe-41fc-4f5d-b69a-9626babb4b23" class="IfcSlab material-isolatiePUR projection" ifc:name="Slab" ifc:guid="1skuh_GVnFNRQQbYQwkqiZ">
            <path d="M237.071,434.883 L237.071,430.883"/>
            <path d="M257.071,434.883 L237.071,434.883"/>
            <path d="M257.071,430.883 L257.071,434.883"/>
            <path d="M237.071,430.883 L257.071,430.883"/>
        </g>
        <g id="product-e1b9fada-c888-4666-95f4-e6c578bf9923" class="IfcSlab material-enkelewandvloerafwerking projection" ifc:name="Slab" ifc:guid="3XkVhQo8X6PfNqviLulvaZ">
            <path d="M237.052,445.883 L237.052,441.883"/>
            <path d="M257.052,445.883 L237.052,445.883"/>
            <path d="M257.052,441.883 L257.052,445.883"/>
            <path d="M237.052,441.883 L257.052,441.883"/>
        </g>
        <g id="product-322dac67-2f56-4f01-8008-e182b39d0b02" class="IfcSlab material-NEN476gewapendbetonprefab projection" ifc:name="Slab" ifc:guid="0oBQndBrPF0O08uOApdGi2">
            <path d="M237.071,379.883 L237.071,375.883"/>
            <path d="M257.071,379.883 L237.071,379.883"/>
            <path d="M257.071,375.883 L257.071,379.883"/>
            <path d="M237.071,375.883 L257.071,375.883"/>
        </g>
        <g id="product-7ee249e7-1554-4e67-85c6-cea010ca495d" class="IfcFurniture material-null projection" ifc:name="Furniture" ifc:guid="1_uadd5LHEPuN6pg0GoabT">
            <path d="M422.519,285.898 L425.519,285.898"/>
            <path d="M422.519,285.598 L422.519,285.898"/>
            <path d="M460.579,285.598 L422.519,285.598"/>
            <path d="M460.579,285.898 L460.579,285.598"/>
            <path d="M457.579,285.898 L460.579,285.898"/>
            <path d="M425.519,285.898 L457.579,285.898"/>
            <path d="M433.253,287.898 L425.519,285.898"/>
            <path d="M449.844,287.898 L433.253,287.898"/>
            <path d="M457.579,285.898 L449.844,287.898"/>
        </g>
        <g id="product-63aaf256-590a-4984-9f77-0772b0de19bb" class="IfcWall material-NEN471metselwerkbaksteen projection" ifc:name="Wall" ifc:guid="1Zgl9MMGf9X9zt1tAmtXcx">
            <path d="M207.071,364.883 L187.071,364.883"/>
            <path d="M207.071,363.083 L207.071,364.883"/>
            <path d="M187.071,363.083 L207.071,363.083"/>
            <path d="M187.071,364.883 L187.071,363.083"/>
        </g>
        <g id="product-f08ab365-3e84-4702-867d-fd3904380402" class="IfcFurniture material-null projection" ifc:name="Furniture" ifc:guid="3mYhDbFeH70ePz$Ja4E0G2">
            <path d="M445.289,238.11 L445.518,238.156"/>
            <path d="M445.094,237.98 L445.289,238.11"/>
            <path d="M444.964,237.785 L445.094,237.98"/>
            <path d="M444.919,237.556 L444.964,237.785"/>
            <path d="M444.919,233.956 L444.919,237.556"/>
            <path d="M444.964,233.726 L444.919,233.956"/>
            <path d="M445.094,233.531 L444.964,233.726"/>
            <path d="M445.289,233.401 L445.094,233.531"/>
            <path d="M445.518,233.356 L445.289,233.401"/>
            <path d="M445.919,233.356 L445.518,233.356"/>
            <path d="M446.148,233.401 L445.919,233.356"/>
            <path d="M446.343,233.531 L446.148,233.401"/>
            <path d="M446.473,233.726 L446.343,233.531"/>
            <path d="M446.518,233.956 L446.473,233.726"/>
            <path d="M446.519,237.556 L446.518,233.956"/>
            <path d="M446.473,237.785 L446.519,237.556"/>
            <path d="M446.343,237.98 L446.473,237.785"/>
            <path d="M446.148,238.11 L446.343,237.98"/>
            <path d="M445.919,238.156 L446.148,238.11"/>
            <path d="M445.518,238.156 L445.919,238.156"/>
            <path d="M434.389,238.11 L434.618,238.156"/>
            <path d="M434.194,237.98 L434.389,238.11"/>
            <path d="M434.064,237.785 L434.194,237.98"/>
            <path d="M434.019,237.556 L434.064,237.785"/>
            <path d="M434.019,233.956 L434.019,237.556"/>
            <path d="M434.064,233.726 L434.019,233.956"/>
            <path d="M434.194,233.531 L434.064,233.726"/>
            <path d="M434.389,233.401 L434.194,233.531"/>
            <path d="M434.618,233.356 L434.389,233.401"/>
            <path d="M435.019,233.356 L434.618,233.356"/>
            <path d="M435.248,233.401 L435.019,233.356"/>
            <path d="M435.443,233.531 L435.248,233.401"/>
            <path d="M435.573,233.726 L435.443,233.531"/>
            <path d="M435.618,233.956 L435.573,233.726"/>
            <path d="M435.619,237.556 L435.618,233.956"/>
            <path d="M435.573,237.785 L435.619,237.556"/>
            <path d="M435.443,237.98 L435.573,237.785"/>
            <path d="M435.248,238.11 L435.443,237.98"/>
            <path d="M435.019,238.156 L435.248,238.11"/>
            <path d="M434.618,238.156 L435.019,238.156"/>
            <path d="M435.292,229.985 L435.199,230.008"/>
            <path d="M445.282,229.985 L435.292,229.985"/>
            <path d="M445.37,230.006 L445.282,229.985"/>
            <path d="M445.44,230.063 L445.37,230.006"/>
            <path d="M445.478,230.145 L445.44,230.063"/>
            <path d="M445.476,230.235 L445.478,230.145"/>
            <path d="M445.348,231.657 L445.476,230.235"/>
            <path d="M445.268,231.94 L445.348,231.657"/>
            <path d="M445.091,232.176 L445.268,231.94"/>
            <path d="M444.84,232.331 L445.091,232.176"/>
            <path d="M444.551,232.385 L444.84,232.331"/>
            <path d="M436.026,232.385 L444.551,232.385"/>
            <path d="M435.736,232.331 L436.026,232.385"/>
            <path d="M435.485,232.175 L435.736,232.331"/>
            <path d="M435.308,231.939 L435.485,232.175"/>
            <path d="M435.229,231.655 L435.308,231.939"/>
            <path d="M435.107,230.26 L435.229,231.655"/>
            <path d="M435.093,230.164 L435.107,230.26"/>
            <path d="M435.127,230.073 L435.093,230.164"/>
            <path d="M435.199,230.008 L435.127,230.073"/>
            <path d="M422.519,256.356 L422.519,241.156"/>
            <path d="M459.119,256.356 L422.519,256.356"/>
            <path d="M459.119,241.156 L459.119,256.356"/>
            <path d="M422.519,241.156 L459.119,241.156"/>
            <path d="M445.718,230.256 L445.718,233.356"/>
            <path d="M445.688,230.103 L445.718,230.256"/>
            <path d="M445.601,229.973 L445.688,230.103"/>
            <path d="M445.472,229.886 L445.601,229.973"/>
            <path d="M445.318,229.856 L445.472,229.886"/>
            <path d="M435.218,229.856 L445.318,229.856"/>
            <path d="M435.065,229.886 L435.218,229.856"/>
            <path d="M434.936,229.973 L435.065,229.886"/>
            <path d="M434.849,230.103 L434.936,229.973"/>
            <path d="M434.819,230.256 L434.849,230.103"/>
            <path d="M434.819,233.356 L434.819,230.256"/>
            <path d="M434.819,240.556 L434.819,238.156"/>
            <path d="M445.719,240.556 L434.819,240.556"/>
            <path d="M445.719,238.156 L445.719,240.556"/>
        </g>
        <g id="product-c642d2ac-5481-410e-88dd-a7edddea765d" class="IfcFurniture material-null projection" ifc:name="Furniture" ifc:guid="36GjAiL8513eZTf_tTwdPT">
            <path d="M440.742,266.77 L441.05,266.976"/>
            <path d="M440.379,266.698 L440.742,266.77"/>
            <path d="M435.059,266.698 L440.379,266.698"/>
            <path d="M434.695,266.77 L435.059,266.698"/>
            <path d="M434.387,266.976 L434.695,266.77"/>
            <path d="M434.181,267.284 L434.387,266.976"/>
            <path d="M434.109,267.648 L434.181,267.284"/>
            <path d="M434.109,271.828 L434.109,267.648"/>
            <path d="M434.181,272.191 L434.109,271.828"/>
            <path d="M434.387,272.499 L434.181,272.191"/>
            <path d="M434.695,272.705 L434.387,272.499"/>
            <path d="M435.059,272.778 L434.695,272.705"/>
            <path d="M440.379,272.778 L435.059,272.778"/>
            <path d="M440.742,272.705 L440.379,272.778"/>
            <path d="M441.05,272.499 L440.742,272.705"/>
            <path d="M441.256,272.191 L441.05,272.499"/>
            <path d="M441.329,271.828 L441.256,272.191"/>
            <path d="M441.329,267.648 L441.329,271.828"/>
            <path d="M441.256,267.284 L441.329,267.648"/>
            <path d="M441.05,266.976 L441.256,267.284"/>
            <path d="M440.901,266.614 L441.226,266.831"/>
            <path d="M440.519,266.538 L440.901,266.614"/>
            <path d="M434.919,266.538 L440.519,266.538"/>
            <path d="M434.536,266.614 L434.919,266.538"/>
            <path d="M434.211,266.831 L434.536,266.614"/>
            <path d="M433.995,267.155 L434.211,266.831"/>
            <path d="M433.919,267.538 L433.995,267.155"/>
            <path d="M433.919,271.938 L433.919,267.538"/>
            <path d="M433.995,272.32 L433.919,271.938"/>
            <path d="M434.211,272.645 L433.995,272.32"/>
            <path d="M434.536,272.862 L434.211,272.645"/>
            <path d="M434.919,272.938 L434.536,272.862"/>
            <path d="M440.519,272.938 L434.919,272.938"/>
            <path d="M440.901,272.862 L440.519,272.938"/>
            <path d="M441.226,272.645 L440.901,272.862"/>
            <path d="M441.442,272.32 L441.226,272.645"/>
            <path d="M441.519,271.938 L441.442,272.32"/>
            <path d="M441.519,267.538 L441.519,271.938"/>
            <path d="M441.442,267.155 L441.519,267.538"/>
            <path d="M441.226,266.831 L441.442,267.155"/>
            <path d="M427.519,264.598 L431.559,264.598"/>
            <path d="M437.31,274.738 L437.384,274.688"/>
            <path d="M437.199,274.878 L437.31,274.738"/>
            <path d="M437.134,275.044 L437.199,274.878"/>
            <path d="M437.12,275.223 L437.134,275.044"/>
            <path d="M437.16,275.397 L437.12,275.223"/>
            <path d="M437.249,275.552 L437.16,275.397"/>
            <path d="M437.381,275.673 L437.249,275.552"/>
            <path d="M437.542,275.751 L437.381,275.673"/>
            <path d="M437.719,275.778 L437.542,275.751"/>
            <path d="M437.895,275.751 L437.719,275.778"/>
            <path d="M438.057,275.673 L437.895,275.751"/>
            <path d="M438.188,275.552 L438.057,275.673"/>
            <path d="M438.277,275.397 L438.188,275.552"/>
            <path d="M438.317,275.223 L438.277,275.397"/>
            <path d="M438.304,275.044 L438.317,275.223"/>
            <path d="M438.238,274.878 L438.304,275.044"/>
            <path d="M438.127,274.738 L438.238,274.878"/>
            <path d="M438.053,274.688 L438.127,274.738"/>
            <path d="M433.919,264.398 L433.919,264.598"/>
            <path d="M437.959,264.398 L433.919,264.398"/>
            <path d="M437.959,264.598 L437.959,264.398"/>
            <path d="M433.919,264.598 L437.959,264.598"/>
            <path d="M431.559,264.598 L433.919,264.598"/>
            <path d="M431.559,264.398 L431.559,264.598"/>
            <path d="M427.519,264.398 L431.559,264.398"/>
            <path d="M427.519,264.598 L427.519,264.398"/>
            <path d="M422.519,264.598 L427.519,264.598"/>
            <path d="M422.519,276.598 L422.519,264.598"/>
            <path d="M442.519,276.598 L422.519,276.598"/>
            <path d="M442.519,264.598 L442.519,276.598"/>
            <path d="M437.959,264.598 L442.519,264.598"/>
            <path d="M437.544,272.411 L437.544,274.611"/>
            <path d="M437.893,272.411 L437.544,272.411"/>
            <path d="M437.893,274.611 L437.893,272.411"/>
            <path d="M437.808,274.584 L437.893,274.611"/>
            <path d="M437.629,274.584 L437.808,274.584"/>
            <path d="M437.544,274.611 L437.629,274.584"/>
            <path d="M437.458,274.637 L437.544,274.611"/>
            <path d="M437.384,274.688 L437.458,274.637"/>
            <path d="M437.384,270.488 L437.384,274.688"/>
            <path d="M437.4,270.411 L437.384,270.488"/>
            <path d="M437.443,270.346 L437.4,270.411"/>
            <path d="M437.508,270.303 L437.443,270.346"/>
            <path d="M437.584,270.288 L437.508,270.303"/>
            <path d="M437.853,270.288 L437.584,270.288"/>
            <path d="M437.929,270.303 L437.853,270.288"/>
            <path d="M437.994,270.346 L437.929,270.303"/>
            <path d="M438.038,270.411 L437.994,270.346"/>
            <path d="M438.053,270.488 L438.038,270.411"/>
            <path d="M438.053,274.688 L438.053,270.488"/>
            <path d="M437.979,274.637 L438.053,274.688"/>
            <path d="M437.893,274.611 L437.979,274.637"/>
        </g>
        <g id="product-849c009b-ae62-43d5-8a7a-0210798d9ac6" class="IfcFurniture material-null projection" ifc:name="Furniture" ifc:guid="24d02Rhc93rOfw0X1vZPh6">
            <path d="M447.239,222.404 L447.239,223.404"/>
            <path d="M448.239,222.404 L447.239,222.404"/>
            <path d="M447.715,202.752 L447.603,202.847"/>
            <path d="M446.788,202.805 L446.946,202.832"/>
            <path d="M445.541,202.995 L446.788,202.805"/>
            <path d="M443.73,203.088 L445.541,202.995"/>
            <path d="M442.194,203.082 L443.73,203.088"/>
            <path d="M440.661,202.979 L442.194,203.082"/>
            <path d="M440.281,203.091 L440.661,202.979"/>
            <path d="M447.377,202.569 L447.537,202.461"/>
            <path d="M439.898,211.514 L440.126,211.404"/>
            <path d="M447.351,211.373 L447.285,211.242"/>
            <path d="M450.039,212.584 L437.119,212.584"/>
            <path d="M432.639,222.404 L432.639,223.404"/>
            <path d="M433.639,222.404 L432.639,222.404"/>
            <path d="M422.519,212.584 L435.439,212.584"/>
            <path d="M425.211,211.178 L425.347,211.095"/>
            <path d="M432.737,204.676 L432.635,204.786"/>
            <path d="M432.785,204.29 L432.737,204.676"/>
            <path d="M432.807,203.453 L432.785,204.29"/>
            <path d="M432.684,203.141 L432.807,203.453"/>
            <path d="M425.406,203.625 L425.681,203.091"/>
            <path d="M432.818,202.402 L432.777,202.569"/>
            <path d="M432.971,202.267 L432.818,202.402"/>
            <path d="M433.179,202.262 L432.971,202.267"/>
            <path d="M433.366,202.421 L433.179,202.262"/>
            <path d="M433.366,202.691 L433.366,202.421"/>
            <path d="M433.182,202.849 L433.366,202.691"/>
            <path d="M433.003,202.847 L433.182,202.849"/>
            <path d="M440.053,211.007 L439.947,211.095"/>
            <path d="M440.507,211.417 L440.281,211.338"/>
            <path d="M441.834,211.504 L440.507,211.417"/>
            <path d="M443.635,211.543 L441.834,211.504"/>
            <path d="M445.918,211.472 L443.635,211.543"/>
            <path d="M446.939,211.374 L445.918,211.472"/>
            <path d="M447.088,211.594 L446.984,211.427"/>
            <path d="M432.751,211.373 L432.685,211.242"/>
            <path d="M437.119,223.58 L437.119,221.704"/>
            <path d="M437.157,223.773 L437.119,223.58"/>
            <path d="M437.266,223.936 L437.157,223.773"/>
            <path d="M437.43,224.046 L437.266,223.936"/>
            <path d="M449.533,224.083 L437.43,224.046"/>
            <path d="M449.726,224.045 L449.533,224.083"/>
            <path d="M449.89,223.936 L449.726,224.045"/>
            <path d="M450,223.772 L449.89,223.936"/>
            <path d="M450.039,223.579 L450,223.772"/>
            <path d="M450.039,212.584 L450.039,223.579"/>
            <path d="M449.639,212.584 L450.039,212.584"/>
            <path d="M449.575,212.422 L449.639,212.584"/>
            <path d="M449.387,212.238 L449.575,212.422"/>
            <path d="M449.132,212.171 L449.387,212.238"/>
            <path d="M448.878,212.238 L449.132,212.171"/>
            <path d="M448.69,212.422 L448.878,212.238"/>
            <path d="M448.639,212.584 L448.69,212.422"/>
            <path d="M440.005,207.084 L440.036,204.786"/>
            <path d="M440.005,208.616 L440.005,207.084"/>
            <path d="M440.022,210.148 L440.005,208.616"/>
            <path d="M440.053,211.007 L440.022,210.148"/>
            <path d="M440.121,211.179 L440.053,211.007"/>
            <path d="M440.281,211.338 L440.121,211.179"/>
            <path d="M440.126,211.404 L440.281,211.338"/>
            <path d="M440.054,211.566 L440.126,211.404"/>
            <path d="M439.834,211.683 L440.054,211.566"/>
            <path d="M439.616,211.62 L439.834,211.683"/>
            <path d="M439.506,211.33 L439.616,211.62"/>
            <path d="M439.697,211.087 L439.506,211.33"/>
            <path d="M439.88,211.073 L439.697,211.087"/>
            <path d="M439.947,211.095 L439.88,211.073"/>
            <path d="M439.811,211.178 L439.947,211.095"/>
            <path d="M440.281,203.091 L440.006,203.625"/>
            <path d="M440.22,203.132 L440.281,203.091"/>
            <path d="M440.015,202.82 L440.22,203.132"/>
            <path d="M440.006,203.625 L439.65,202.914"/>
            <path d="M439.858,204.511 L440.006,203.625"/>
            <path d="M439.918,204.728 L439.858,204.511"/>
            <path d="M440.036,204.786 L439.918,204.728"/>
            <path d="M440.935,204.822 L440.036,204.786"/>
            <path d="M443.084,204.873 L440.935,204.822"/>
            <path d="M444.536,204.869 L443.084,204.873"/>
            <path d="M445.972,204.836 L444.536,204.869"/>
            <path d="M447.235,204.786 L445.972,204.836"/>
            <path d="M440.015,202.82 L439.893,202.643"/>
            <path d="M440.003,202.639 L440.015,202.82"/>
            <path d="M439.904,202.417 L440.003,202.639"/>
            <path d="M439.649,202.338 L439.904,202.417"/>
            <path d="M439.42,202.503 L439.649,202.338"/>
            <path d="M439.44,202.816 L439.42,202.503"/>
            <path d="M439.65,202.914 L439.44,202.816"/>
            <path d="M439.599,202.816 L439.65,202.914"/>
            <path d="M447.285,211.242 L447.21,211.095"/>
            <path d="M447.471,211.324 L447.285,211.242"/>
            <path d="M447.57,211.575 L447.471,211.324"/>
            <path d="M447.435,211.809 L447.57,211.575"/>
            <path d="M447.084,211.809 L447.435,211.809"/>
            <path d="M446.949,211.575 L447.084,211.809"/>
            <path d="M446.984,211.427 L446.949,211.575"/>
            <path d="M446.939,211.374 L446.984,211.427"/>
            <path d="M447.21,211.095 L446.939,211.374"/>
            <path d="M447.29,209.979 L447.21,211.095"/>
            <path d="M447.354,207.85 L447.29,209.979"/>
            <path d="M447.28,205.552 L447.354,207.85"/>
            <path d="M447.235,204.786 L447.28,205.552"/>
            <path d="M447.337,204.676 L447.235,204.786"/>
            <path d="M447.385,204.29 L447.337,204.676"/>
            <path d="M447.407,203.453 L447.385,204.29"/>
            <path d="M447.284,203.141 L447.407,203.453"/>
            <path d="M447.127,202.906 L447.284,203.141"/>
            <path d="M446.946,202.832 L447.127,202.906"/>
            <path d="M447.377,202.569 L446.946,202.832"/>
            <path d="M447.418,202.402 L447.377,202.569"/>
            <path d="M447.571,202.267 L447.418,202.402"/>
            <path d="M447.779,202.262 L447.571,202.267"/>
            <path d="M447.966,202.421 L447.779,202.262"/>
            <path d="M447.966,202.691 L447.966,202.421"/>
            <path d="M447.782,202.849 L447.966,202.691"/>
            <path d="M447.603,202.847 L447.782,202.849"/>
            <path d="M447.284,203.141 L447.603,202.847"/>
            <path d="M425.526,211.404 L425.681,211.338"/>
            <path d="M425.526,211.404 L425.298,211.514"/>
            <path d="M425.454,211.566 L425.526,211.404"/>
            <path d="M425.234,211.683 L425.454,211.566"/>
            <path d="M425.016,211.62 L425.234,211.683"/>
            <path d="M424.906,211.33 L425.016,211.62"/>
            <path d="M425.097,211.087 L424.906,211.33"/>
            <path d="M425.28,211.073 L425.097,211.087"/>
            <path d="M425.347,211.095 L425.28,211.073"/>
            <path d="M425.453,211.007 L425.347,211.095"/>
            <path d="M432.69,209.979 L432.61,211.095"/>
            <path d="M432.754,207.85 L432.69,209.979"/>
            <path d="M432.68,205.552 L432.754,207.85"/>
            <path d="M432.635,204.786 L432.68,205.552"/>
            <path d="M431.372,204.836 L432.635,204.786"/>
            <path d="M429.936,204.869 L431.372,204.836"/>
            <path d="M428.484,204.873 L429.936,204.869"/>
            <path d="M426.335,204.822 L428.484,204.873"/>
            <path d="M425.436,204.786 L426.335,204.822"/>
            <path d="M433.003,202.847 L433.115,202.752"/>
            <path d="M432.684,203.141 L433.003,202.847"/>
            <path d="M432.527,202.906 L432.684,203.141"/>
            <path d="M432.346,202.832 L432.527,202.906"/>
            <path d="M432.349,211.575 L432.384,211.427"/>
            <path d="M432.484,211.809 L432.349,211.575"/>
            <path d="M432.835,211.809 L432.484,211.809"/>
            <path d="M432.97,211.575 L432.835,211.809"/>
            <path d="M432.871,211.324 L432.97,211.575"/>
            <path d="M432.685,211.242 L432.871,211.324"/>
            <path d="M432.61,211.095 L432.685,211.242"/>
            <path d="M432.339,211.374 L432.61,211.095"/>
            <path d="M434.09,212.422 L434.039,212.584"/>
            <path d="M434.278,212.238 L434.09,212.422"/>
            <path d="M434.532,212.171 L434.278,212.238"/>
            <path d="M434.787,212.238 L434.532,212.171"/>
            <path d="M434.975,212.422 L434.787,212.238"/>
            <path d="M435.039,212.584 L434.975,212.422"/>
            <path d="M435.439,212.584 L435.039,212.584"/>
            <path d="M435.439,223.579 L435.439,212.584"/>
            <path d="M435.4,223.772 L435.439,223.579"/>
            <path d="M435.29,223.936 L435.4,223.772"/>
            <path d="M435.126,224.045 L435.29,223.936"/>
            <path d="M434.933,224.083 L435.126,224.045"/>
            <path d="M422.83,224.046 L434.933,224.083"/>
            <path d="M422.666,223.936 L422.83,224.046"/>
            <path d="M422.557,223.773 L422.666,223.936"/>
            <path d="M422.519,223.58 L422.557,223.773"/>
            <path d="M422.519,221.704 L422.519,223.58"/>
            <path d="M425.62,203.132 L425.415,202.82"/>
            <path d="M425.681,203.091 L425.62,203.132"/>
            <path d="M426.061,202.979 L425.681,203.091"/>
            <path d="M427.594,203.082 L426.061,202.979"/>
            <path d="M429.13,203.088 L427.594,203.082"/>
            <path d="M430.941,202.995 L429.13,203.088"/>
            <path d="M432.188,202.805 L430.941,202.995"/>
            <path d="M432.346,202.832 L432.188,202.805"/>
            <path d="M432.777,202.569 L432.346,202.832"/>
            <path d="M432.937,202.461 L432.777,202.569"/>
            <path d="M439.919,223.404 L439.919,222.404"/>
            <path d="M438.919,223.404 L439.919,223.404"/>
            <path d="M438.919,222.404 L438.919,223.404"/>
            <path d="M448.239,222.404 L438.919,222.404"/>
            <path d="M448.239,223.404 L448.239,222.404"/>
            <path d="M438.919,223.404 L448.239,223.404"/>
            <path d="M437.119,221.704 L450.039,221.704"/>
            <path d="M437.119,212.584 L437.119,221.704"/>
            <path d="M437.519,212.584 L437.119,212.584"/>
            <path d="M437.57,212.422 L437.519,212.584"/>
            <path d="M437.758,212.238 L437.57,212.422"/>
            <path d="M438.012,212.171 L437.758,212.238"/>
            <path d="M438.267,212.238 L438.012,212.171"/>
            <path d="M438.455,212.422 L438.267,212.238"/>
            <path d="M438.519,212.584 L438.455,212.422"/>
            <path d="M425.319,223.404 L425.319,222.404"/>
            <path d="M424.319,223.404 L425.319,223.404"/>
            <path d="M424.319,222.404 L424.319,223.404"/>
            <path d="M433.639,222.404 L424.319,222.404"/>
            <path d="M433.639,223.404 L433.639,222.404"/>
            <path d="M424.319,223.404 L433.639,223.404"/>
            <path d="M424.999,202.816 L425.05,202.914"/>
            <path d="M425.415,202.82 L425.293,202.643"/>
            <path d="M425.403,202.639 L425.415,202.82"/>
            <path d="M425.304,202.417 L425.403,202.639"/>
            <path d="M425.049,202.338 L425.304,202.417"/>
            <path d="M424.82,202.503 L425.049,202.338"/>
            <path d="M424.84,202.816 L424.82,202.503"/>
            <path d="M425.05,202.914 L424.84,202.816"/>
            <path d="M425.406,203.625 L425.05,202.914"/>
            <path d="M425.258,204.511 L425.406,203.625"/>
            <path d="M425.318,204.728 L425.258,204.511"/>
            <path d="M425.436,204.786 L425.318,204.728"/>
            <path d="M425.405,207.084 L425.436,204.786"/>
            <path d="M425.405,208.616 L425.405,207.084"/>
            <path d="M425.422,210.148 L425.405,208.616"/>
            <path d="M425.453,211.007 L425.422,210.148"/>
            <path d="M425.521,211.179 L425.453,211.007"/>
            <path d="M425.681,211.338 L425.521,211.179"/>
            <path d="M425.907,211.417 L425.681,211.338"/>
            <path d="M427.234,211.504 L425.907,211.417"/>
            <path d="M429.035,211.543 L427.234,211.504"/>
            <path d="M431.318,211.472 L429.035,211.543"/>
            <path d="M432.339,211.374 L431.318,211.472"/>
            <path d="M432.384,211.427 L432.339,211.374"/>
            <path d="M432.488,211.594 L432.384,211.427"/>
            <path d="M423.855,212.422 L423.919,212.584"/>
            <path d="M423.667,212.238 L423.855,212.422"/>
            <path d="M423.412,212.171 L423.667,212.238"/>
            <path d="M423.158,212.238 L423.412,212.171"/>
            <path d="M422.97,212.422 L423.158,212.238"/>
            <path d="M422.919,212.584 L422.97,212.422"/>
            <path d="M422.519,212.584 L422.919,212.584"/>
            <path d="M422.519,221.704 L422.519,212.584"/>
            <path d="M435.439,221.704 L422.519,221.704"/>
        </g>
        <g id="product-c42269b9-1b74-45eb-a409-54630889327e" class="IfcWall material-null projection" ifc:name="Untyped" ifc:guid="348ccv6tH5wwG9L6C8YJ9_">
            <path d="M411.511,58.0826 L411.511,70.0827"/>
            <path d="M403.511,58.0826 L411.511,58.0826"/>
            <path d="M403.511,70.0827 L403.511,58.0826"/>
            <path d="M411.511,70.0827 L403.511,70.0827"/>
        </g>
    <g ifc:guid="3zuuPi5DzFRO8_qW0VLaSR" ifc:name="Ruimte" class="IfcSpace material-null cut"><path d="M250.30351638793945,234.46916580200195 L250.30351638793945,254.46924209594727 L250.30351638793945,264.4691848754883 L260.30344009399414,264.4691848754883 L280.30351638793945,264.46916580200195 L280.30351638793945,244.46910858154297 L280.30351638793945,234.46916580200195 L260.30344009399414,234.46916580200195 Z"/></g><g class="1OtlE_XoT3nwp$teeg8PW_ IfcWall 3p0VX0RXz02uXbYI1GpYOA 1ai1Axx29BeetR6I2W0INo material-naaldhoutvurenCLT cut"><path d="M207.0713996887207,355.8825874328613 L207.0713996887207,355.3492546081543 L207.0713996887207,354.88258361816406 L196.40474319458008,354.88258361816406 L187.0713996887207,354.88258361816406 L187.0713996887207,355.4159164428711 L187.0713996887207,355.8825874328613 L197.73805618286133,355.8825874328613 Z"/></g><g class="1OtlE_XoT3nwp$teeg8PW_ IfcWall 3p0VX0RXz02uXbYI1GpYOA 1ai1Axx29BeetR6I2W0INo material-naaldhoutvurenCLT cut"><path d="M207.0713996887207,372.6025867462158 L207.0713996887207,371.48258209228516 L196.40474319458008,371.48258209228516 L187.0713996887207,371.48258209228516 L187.0713996887207,372.76257514953613 L187.0713996887207,373.8825798034668 L197.73805618286133,373.8825798034668 L207.0713996887207,373.8825798034668 Z"/></g><g class="1OtlE_XoT3nwp$teeg8PW_ IfcWall 3p0VX0RXz02uXbYI1GpYOA 1ai1Axx29BeetR6I2W0INo material-naaldhoutvurenCLT cut"><path d="M207.0713996887207,381.38925552368164 L207.0713996887207,380.0825881958008 L196.40474319458008,380.0825881958008 L187.0713996887207,380.0825881958008 L187.0713996887207,381.5759086608887 L187.0713996887207,382.8825855255127 L197.73805618286133,382.8825855255127 L207.0713996887207,382.8825855255127 Z"/></g><g class="2_AesjXKDC4BrfYfskLXcd material-isolatie cut IfcWall"><path d="M197.73805618286133,391.88258171081543 L207.0713996887207,391.88258171081543 L207.0713996887207,390.81592559814453 L207.0713996887207,389.88258361816406 L196.40474319458008,389.88258361816406 L187.0713996887207,389.88258361816406 L187.0713996887207,390.9492492675781 L187.0713996887207,391.88258171081543 Z"/></g><g class="0onHAdBLLEkxNfUVRjT2Il cut material-metselwerkbaksteenrood IfcWall"><path d="M197.73805618286133,400.8825874328613 L207.0713996887207,400.8825874328613 L207.0713996887207,399.81592178344727 L207.0713996887207,398.88258934020996 L196.40474319458008,398.88258934020996 L187.0713996887207,398.88258934020996 L187.0713996887207,399.94924545288086 L187.0713996887207,400.8825874328613 Z"/></g><g class="material-NEN471metselwerkbaksteen cut IfcWall 1Zgl9MMGf9X9zt1tAmtXcx"><path d="M197.73805618286133,364.88258361816406 L207.0713996887207,364.88258361816406 L207.0713996887207,363.92258644104004 L207.0713996887207,363.08258056640625 L196.40474319458008,363.08258056640625 L187.0713996887207,363.08258056640625 L187.0713996887207,364.0425777435303 L187.0713996887207,364.88258361816406 Z"/></g><g class="material-null cut 348ccv6tH5wwG9L6C8YJ9_ IfcWall"><path d="M411.5105628967285,63.68265151977539 L411.5105628967285,58.08256149291992 L407.24390029907227,58.08256149291992 L403.51057052612305,58.08256149291992 L403.51057052612305,64.48259353637695 L403.51057052612305,70.08268356323242 L407.77719497680664,70.08268356323242 L411.5105628967285,70.08268356323242 Z"/></g><path d="M250.30351638793945,234.46916580200195 L250.30351638793945,254.46924209594727 L250.30351638793945,264.4691848754883 L260.30344009399414,264.4691848754883 L280.30351638793945,264.46916580200195 L280.30351638793945,244.46910858154297 L280.30351638793945,234.46916580200195 L260.30344009399414,234.46916580200195 Z" class="IfcSpace material-null"/></g>
</svg>