<svg xmlns="http://www.w3.org/2000/svg" xmlns:xlink="http://www.w3.org/1999/xlink" xmlns:ifc="http://www.ifcopenshell.org/ns" width="599.831mm" height="499.915mm" viewBox="0 0 599.831 499.915">
    <defs>
        <marker id="arrowend" markerWidth="10" markerHeight="7" refX="10" refY="3.5" orient="auto">
          <polygon points="0 0, 10 3.5, 0 7"/>
        </marker>
        <marker id="arrowstart" markerWidth="10" markerHeight="7" refX="0" refY="3.5" orient="auto">
          <polygon points="10 0, 0 3.5, 10 7"/>
        </marker>
    </defs>
    <g ifc:name="Elevation Materialen &amp; Annotaties" class="section" ifc:plane="[[1.000000,0.000000,0.000000,0.000000],[0.000000,1.000000,0.000000,0.000000],[0.000000,0.000000,1.000000,0.000000],[0.000000,0.000000,0.000000,1.000000]]" ifc:matrix3="[[20.000000,0.000000,999.915408],[0.000000,20.000000,469.957676],[0.000000,0.000000,1.000000]]">
        <g id="product-58def3be-8727-43c7-acff-de8a2a21983e" class="IfcWall material-naaldhoutvurenCLT projection" ifc:name="Wall" ifc:guid="1OtlE_XoT3nwp$teeg8PW_">
            <path d="M196.987,373.84 L176.987,373.84"/>
            <path d="M196.987,371.44 L196.987,373.84"/>
            <path d="M176.987,371.44 L196.987,371.44"/>
            <path d="M176.987,373.84 L176.987,371.44"/>
        </g>
        <g id="product-f301f840-6e1f-400b-8865-892050ce260a" class="IfcWall material-naaldhoutvurenCLT projection" ifc:name="Wall" ifc:guid="3p0VX0RXz02uXbYI1GpYOA">
            <path d="M196.987,382.84 L176.987,382.84"/>
            <path d="M196.987,380.04 L196.987,382.84"/>
            <path d="M176.987,380.04 L196.987,380.04"/>
            <path d="M176.987,382.84 L176.987,380.04"/>
        </g>
        <g id="product-be2a8dad-8543-4c10-bd69-8a9dae5619a7" class="IfcWall material-isolatie projection" ifc:name="Wall" ifc:guid="2_AesjXKDC4BrfYfskLXcd">
            <path d="M196.987,391.84 L176.987,391.84"/>
            <path d="M196.987,389.84 L196.987,391.84"/>
            <path d="M176.987,389.84 L196.987,389.84"/>
            <path d="M176.987,391.84 L176.987,389.84"/>
        </g>
        <g id="product-64b012bb-ec22-4ba2-8ddb-1920a00125f2" class="IfcWall material-naaldhoutvurenCLT projection" ifc:name="Wall" ifc:guid="1ai1Axx29BeetR6I2W0INo">
            <path d="M196.987,355.84 L176.987,355.84"/>
            <path d="M196.987,354.84 L196.987,355.84"/>
            <path d="M176.987,354.84 L196.987,354.84"/>
            <path d="M176.987,355.84 L176.987,354.84"/>
        </g>
        <g id="product-32c512a7-2d55-4ebb-b5e9-79f6ed7424af" class="IfcWall material-metselwerkbaksteenrood projection" ifc:name="Wall" ifc:guid="0onHAdBLLEkxNfUVRjT2Il">
            <path d="M196.987,400.84 L176.987,400.84"/>
            <path d="M196.987,398.84 L196.987,400.84"/>
            <path d="M176.987,398.84 L196.987,398.84"/>
            <path d="M176.987,400.84 L176.987,398.84"/>
        </g>
        <g id="product-d8112f79-0248-44a8-9a89-28a0ca7a3ca6" class="IfcSlab material-naaldhoutvurenCLT projection" ifc:name="Slab" ifc:guid="3O4Izv0aX4g9g9AA3AUZoc">
            <path d="M226.987,353.84 L226.987,357.84"/>
            <path d="M246.987,353.84 L226.987,353.84"/>
            <path d="M246.987,357.84 L246.987,353.84"/>
            <path d="M226.987,357.84 L246.987,357.84"/>
        </g>
        <g id="product-985e514e-7ac7-4e39-8405-6467606174d8" class="IfcSlab material-naaldhoutvurenCLT projection" ifc:name="Slab" ifc:guid="2ONb5EUiTEEOG5P6TWONJO">
            <path d="M226.987,364.84 L226.987,368.84"/>
            <path d="M246.987,364.84 L226.987,364.84"/>
            <path d="M246.987,368.84 L246.987,364.84"/>
            <path d="M226.987,368.84 L246.987,368.84"/>
        </g>
        <g id="product-dc82dd1c-6136-455e-b6e3-6eed39e414b9" class="IfcSlab material-ongewapendbeton projection" ifc:name="Slab" ifc:guid="3SWjqSOJP5NhRZRkqvv1Iv">
            <path d="M226.987,390.84 L226.987,386.84"/>
            <path d="M246.987,390.84 L226.987,390.84"/>
            <path d="M246.987,386.84 L246.987,390.84"/>
            <path d="M226.987,386.84 L246.987,386.84"/>
        </g>
        <g id="product-322dac67-2f56-4f01-8008-e182b39d0b02" class="IfcSlab material-NEN476gewapendbetonprefab projection" ifc:name="Slab" ifc:guid="0oBQndBrPF0O08uOApdGi2">
            <path d="M226.987,379.84 L226.987,375.84"/>
            <path d="M246.987,379.84 L226.987,379.84"/>
            <path d="M246.987,375.84 L246.987,379.84"/>
            <path d="M226.987,375.84 L246.987,375.84"/>
        </g>
        <g id="product-af69c895-e628-4195-81e4-1ee733e86244" class="IfcSlab material-isolatie projection" ifc:name="Slab" ifc:guid="2lQSYLvYX1bO7a7kSpw694">
            <path d="M226.987,408.84 L226.987,412.84"/>
            <path d="M246.987,408.84 L226.987,408.84"/>
            <path d="M246.987,412.84 L246.987,408.84"/>
            <path d="M226.987,412.84 L246.987,412.84"/>
        </g>
        <g id="product-29710b09-4a78-4909-9592-9622fd25e689" class="IfcSlab material-gewapendbetonprefab projection" ifc:name="Slab" ifc:guid="0fSGi9IdX92PMIbYBz9UQ9">
            <path d="M226.987,401.84 L226.987,397.84"/>
            <path d="M246.987,401.84 L226.987,401.84"/>
            <path d="M246.987,397.84 L246.987,401.84"/>
            <path d="M226.987,397.84 L246.987,397.84"/>
        </g>
        <g id="product-76bb8afe-41fc-4f5d-b69a-9626babb4b23" class="IfcSlab material-isolatiePUR projection" ifc:name="Slab" ifc:guid="1skuh_GVnFNRQQbYQwkqiZ">
            <path d="M226.987,434.84 L226.987,430.84"/>
            <path d="M246.987,434.84 L226.987,434.84"/>
            <path d="M246.987,430.84 L246.987,434.84"/>
            <path d="M226.987,430.84 L246.987,430.84"/>
        </g>
        <g id="product-961ada73-949d-4b1c-9185-cd81b85f584f" class="IfcSlab material-isolatieEPS projection" ifc:name="Slab" ifc:guid="2M6jfpb9rB7965pO6uNrXF">
            <path d="M226.987,419.84 L226.987,423.84"/>
            <path d="M246.987,419.84 L226.987,419.84"/>
            <path d="M246.987,423.84 L246.987,419.84"/>
            <path d="M226.987,423.84 L246.987,423.84"/>
        </g>
        <g id="product-7ee249e7-1554-4e67-85c6-cea010ca495d" class="IfcFurniture material-null projection" ifc:name="Furniture" ifc:guid="1_uadd5LHEPuN6pg0GoabT">
            <path d="M412.434,285.855 L415.434,285.855"/>
            <path d="M412.434,285.555 L412.434,285.855"/>
            <path d="M450.494,285.555 L412.434,285.555"/>
            <path d="M450.494,285.855 L450.494,285.555"/>
            <path d="M447.494,285.855 L450.494,285.855"/>
            <path d="M415.434,285.855 L447.494,285.855"/>
            <path d="M423.168,287.855 L415.434,285.855"/>
            <path d="M439.76,287.855 L423.168,287.855"/>
            <path d="M447.494,285.855 L439.76,287.855"/>
        </g>
        <g id="product-e1b9fada-c888-4666-95f4-e6c578bf9923" class="IfcSlab material-enkelewandvloerafwerking projection" ifc:name="Slab" ifc:guid="3XkVhQo8X6PfNqviLulvaZ">
            <path d="M226.968,445.84 L226.968,441.84"/>
            <path d="M246.968,445.84 L226.968,445.84"/>
            <path d="M246.968,441.84 L246.968,445.84"/>
            <path d="M226.968,441.84 L246.968,441.84"/>
        </g>
        <g id="product-63aaf256-590a-4984-9f77-0772b0de19bb" class="IfcWall material-NEN471metselwerkbaksteen projection" ifc:name="Wall" ifc:guid="1Zgl9MMGf9X9zt1tAmtXcx">
            <path d="M196.987,364.84 L176.987,364.84"/>
            <path d="M196.987,363.04 L196.987,364.84"/>
            <path d="M176.987,363.04 L196.987,363.04"/>
            <path d="M176.987,364.84 L176.987,363.04"/>
        </g>
        <g id="product-f08ab365-3e84-4702-867d-fd3904380402" class="IfcFurniture material-null projection" ifc:name="Furniture" ifc:guid="3mYhDbFeH70ePz$Ja4E0G2">
            <path d="M435.204,238.068 L435.434,238.113"/>
            <path d="M435.01,237.938 L435.204,238.068"/>
            <path d="M434.88,237.743 L435.01,237.938"/>
            <path d="M434.834,237.513 L434.88,237.743"/>
            <path d="M434.834,233.913 L434.834,237.513"/>
            <path d="M434.88,233.684 L434.834,233.913"/>
            <path d="M435.01,233.489 L434.88,233.684"/>
            <path d="M435.204,233.359 L435.01,233.489"/>
            <path d="M435.434,233.313 L435.204,233.359"/>
            <path d="M435.834,233.313 L435.434,233.313"/>
            <path d="M436.063,233.359 L435.834,233.313"/>
            <path d="M436.258,233.489 L436.063,233.359"/>
            <path d="M436.388,233.684 L436.258,233.489"/>
            <path d="M436.434,233.913 L436.388,233.684"/>
            <path d="M436.434,237.513 L436.434,233.913"/>
            <path d="M436.388,237.743 L436.434,237.513"/>
            <path d="M436.258,237.938 L436.388,237.743"/>
            <path d="M436.063,238.068 L436.258,237.938"/>
            <path d="M435.834,238.113 L436.063,238.068"/>
            <path d="M435.434,238.113 L435.834,238.113"/>
            <path d="M424.304,238.068 L424.534,238.113"/>
            <path d="M424.11,237.938 L424.304,238.068"/>
            <path d="M423.98,237.743 L424.11,237.938"/>
            <path d="M423.934,237.513 L423.98,237.743"/>
            <path d="M423.934,233.913 L423.934,237.513"/>
            <path d="M423.98,233.684 L423.934,233.913"/>
            <path d="M424.11,233.489 L423.98,233.684"/>
            <path d="M424.304,233.359 L424.11,233.489"/>
            <path d="M424.534,233.313 L424.304,233.359"/>
            <path d="M424.934,233.313 L424.534,233.313"/>
            <path d="M425.163,233.359 L424.934,233.313"/>
            <path d="M425.358,233.489 L425.163,233.359"/>
            <path d="M425.488,233.684 L425.358,233.489"/>
            <path d="M425.534,233.913 L425.488,233.684"/>
            <path d="M425.534,237.513 L425.534,233.913"/>
            <path d="M425.488,237.743 L425.534,237.513"/>
            <path d="M425.358,237.938 L425.488,237.743"/>
            <path d="M425.163,238.068 L425.358,237.938"/>
            <path d="M424.934,238.113 L425.163,238.068"/>
            <path d="M424.534,238.113 L424.934,238.113"/>
            <path d="M425.208,229.943 L425.114,229.966"/>
            <path d="M435.197,229.943 L425.208,229.943"/>
            <path d="M435.285,229.963 L435.197,229.943"/>
            <path d="M435.356,230.02 L435.285,229.963"/>
            <path d="M435.393,230.103 L435.356,230.02"/>
            <path d="M435.391,230.193 L435.393,230.103"/>
            <path d="M435.263,231.614 L435.391,230.193"/>
            <path d="M435.183,231.898 L435.263,231.614"/>
            <path d="M435.006,232.133 L435.183,231.898"/>
            <path d="M434.756,232.289 L435.006,232.133"/>
            <path d="M434.466,232.343 L434.756,232.289"/>
            <path d="M425.941,232.343 L434.466,232.343"/>
            <path d="M425.651,232.288 L425.941,232.343"/>
            <path d="M425.4,232.133 L425.651,232.288"/>
            <path d="M425.223,231.896 L425.4,232.133"/>
            <path d="M425.144,231.612 L425.223,231.896"/>
            <path d="M425.022,230.217 L425.144,231.612"/>
            <path d="M425.009,230.122 L425.022,230.217"/>
            <path d="M425.042,230.031 L425.009,230.122"/>
            <path d="M425.114,229.966 L425.042,230.031"/>
            <path d="M412.434,256.313 L412.434,241.113"/>
            <path d="M449.034,256.313 L412.434,256.313"/>
            <path d="M449.034,241.113 L449.034,256.313"/>
            <path d="M412.434,241.113 L449.034,241.113"/>
            <path d="M435.634,230.213 L435.634,233.313"/>
            <path d="M435.603,230.06 L435.634,230.213"/>
            <path d="M435.517,229.931 L435.603,230.06"/>
            <path d="M435.387,229.844 L435.517,229.931"/>
            <path d="M435.234,229.813 L435.387,229.844"/>
            <path d="M425.134,229.813 L435.234,229.813"/>
            <path d="M424.981,229.844 L425.134,229.813"/>
            <path d="M424.851,229.931 L424.981,229.844"/>
            <path d="M424.764,230.06 L424.851,229.931"/>
            <path d="M424.734,230.213 L424.764,230.06"/>
            <path d="M424.734,233.313 L424.734,230.213"/>
            <path d="M424.734,240.513 L424.734,238.113"/>
            <path d="M435.634,240.513 L424.734,240.513"/>
            <path d="M435.634,238.113 L435.634,240.513"/>
        </g>
        <g id="product-c642d2ac-5481-410e-88dd-a7edddea765d" class="IfcFurniture material-null projection" ifc:name="Furniture" ifc:guid="36GjAiL8513eZTf_tTwdPT">
            <path d="M430.657,266.728 L430.966,266.934"/>
            <path d="M430.294,266.655 L430.657,266.728"/>
            <path d="M424.974,266.655 L430.294,266.655"/>
            <path d="M424.61,266.728 L424.974,266.655"/>
            <path d="M424.302,266.934 L424.61,266.728"/>
            <path d="M424.096,267.242 L424.302,266.934"/>
            <path d="M424.024,267.605 L424.096,267.242"/>
            <path d="M424.024,271.785 L424.024,267.605"/>
            <path d="M424.096,272.149 L424.024,271.785"/>
            <path d="M424.302,272.457 L424.096,272.149"/>
            <path d="M424.61,272.663 L424.302,272.457"/>
            <path d="M424.974,272.735 L424.61,272.663"/>
            <path d="M430.294,272.735 L424.974,272.735"/>
            <path d="M430.657,272.663 L430.294,272.735"/>
            <path d="M430.966,272.457 L430.657,272.663"/>
            <path d="M431.172,272.149 L430.966,272.457"/>
            <path d="M431.244,271.785 L431.172,272.149"/>
            <path d="M431.244,267.605 L431.244,271.785"/>
            <path d="M431.172,267.242 L431.244,267.605"/>
            <path d="M430.966,266.934 L431.172,267.242"/>
            <path d="M430.817,266.572 L431.141,266.788"/>
            <path d="M430.434,266.495 L430.817,266.572"/>
            <path d="M424.834,266.495 L430.434,266.495"/>
            <path d="M424.451,266.572 L424.834,266.495"/>
            <path d="M424.127,266.788 L424.451,266.572"/>
            <path d="M423.91,267.113 L424.127,266.788"/>
            <path d="M423.834,267.495 L423.91,267.113"/>
            <path d="M423.834,271.895 L423.834,267.495"/>
            <path d="M423.91,272.278 L423.834,271.895"/>
            <path d="M424.127,272.603 L423.91,272.278"/>
            <path d="M424.451,272.819 L424.127,272.603"/>
            <path d="M424.834,272.895 L424.451,272.819"/>
            <path d="M430.434,272.895 L424.834,272.895"/>
            <path d="M430.817,272.819 L430.434,272.895"/>
            <path d="M431.141,272.603 L430.817,272.819"/>
            <path d="M431.358,272.278 L431.141,272.603"/>
            <path d="M431.434,271.895 L431.358,272.278"/>
            <path d="M431.434,267.495 L431.434,271.895"/>
            <path d="M431.358,267.113 L431.434,267.495"/>
            <path d="M431.141,266.788 L431.358,267.113"/>
            <path d="M417.434,264.555 L421.474,264.555"/>
            <path d="M427.226,274.696 L427.3,274.645"/>
            <path d="M427.114,274.835 L427.226,274.696"/>
            <path d="M427.049,275.002 L427.114,274.835"/>
            <path d="M427.036,275.18 L427.049,275.002"/>
            <path d="M427.075,275.355 L427.036,275.18"/>
            <path d="M427.165,275.509 L427.075,275.355"/>
            <path d="M427.296,275.631 L427.165,275.509"/>
            <path d="M427.457,275.709 L427.296,275.631"/>
            <path d="M427.634,275.735 L427.457,275.709"/>
            <path d="M427.811,275.709 L427.634,275.735"/>
            <path d="M427.972,275.631 L427.811,275.709"/>
            <path d="M428.103,275.509 L427.972,275.631"/>
            <path d="M428.192,275.355 L428.103,275.509"/>
            <path d="M428.232,275.18 L428.192,275.355"/>
            <path d="M428.219,275.002 L428.232,275.18"/>
            <path d="M428.154,274.835 L428.219,275.002"/>
            <path d="M428.042,274.696 L428.154,274.835"/>
            <path d="M427.968,274.645 L428.042,274.696"/>
            <path d="M423.834,264.355 L423.834,264.555"/>
            <path d="M427.874,264.355 L423.834,264.355"/>
            <path d="M427.874,264.555 L427.874,264.355"/>
            <path d="M423.834,264.555 L427.874,264.555"/>
            <path d="M421.474,264.555 L423.834,264.555"/>
            <path d="M421.474,264.355 L421.474,264.555"/>
            <path d="M417.434,264.355 L421.474,264.355"/>
            <path d="M417.434,264.555 L417.434,264.355"/>
            <path d="M412.434,264.555 L417.434,264.555"/>
            <path d="M412.434,276.555 L412.434,264.555"/>
            <path d="M432.434,276.555 L412.434,276.555"/>
            <path d="M432.434,264.555 L432.434,276.555"/>
            <path d="M427.874,264.555 L432.434,264.555"/>
            <path d="M427.459,272.368 L427.459,274.568"/>
            <path d="M427.809,272.368 L427.459,272.368"/>
            <path d="M427.809,274.568 L427.809,272.368"/>
            <path d="M427.723,274.542 L427.809,274.568"/>
            <path d="M427.544,274.542 L427.723,274.542"/>
            <path d="M427.459,274.568 L427.544,274.542"/>
            <path d="M427.374,274.595 L427.459,274.568"/>
            <path d="M427.3,274.645 L427.374,274.595"/>
            <path d="M427.3,270.445 L427.3,274.645"/>
            <path d="M427.315,270.369 L427.3,270.445"/>
            <path d="M427.358,270.304 L427.315,270.369"/>
            <path d="M427.423,270.26 L427.358,270.304"/>
            <path d="M427.5,270.245 L427.423,270.26"/>
            <path d="M427.768,270.245 L427.5,270.245"/>
            <path d="M427.845,270.26 L427.768,270.245"/>
            <path d="M427.91,270.304 L427.845,270.26"/>
            <path d="M427.953,270.369 L427.91,270.304"/>
            <path d="M427.968,270.445 L427.953,270.369"/>
            <path d="M427.968,274.645 L427.968,270.445"/>
            <path d="M427.894,274.595 L427.968,274.645"/>
            <path d="M427.809,274.568 L427.894,274.595"/>
        </g>
        <g id="product-c42269b9-1b74-45eb-a409-54630889327e" class="IfcWall material-null projection" ifc:name="Untyped" ifc:guid="348ccv6tH5wwG9L6C8YJ9_">
            <path d="M401.426,58.0402 L401.426,70.0403"/>
            <path d="M393.426,58.0402 L401.426,58.0402"/>
            <path d="M393.426,70.0403 L393.426,58.0402"/>
            <path d="M401.426,70.0403 L393.426,70.0403"/>
        </g>
        <g id="product-849c009b-ae62-43d5-8a7a-0210798d9ac6" class="IfcFurniture material-null projection" ifc:name="Furniture" ifc:guid="24d02Rhc93rOfw0X1vZPh6">
            <path d="M437.154,222.362 L437.154,223.362"/>
            <path d="M438.154,222.362 L437.154,222.362"/>
            <path d="M437.63,202.71 L437.519,202.805"/>
            <path d="M436.703,202.763 L436.861,202.79"/>
            <path d="M435.457,202.953 L436.703,202.763"/>
            <path d="M433.645,203.046 L435.457,202.953"/>
            <path d="M432.109,203.04 L433.645,203.046"/>
            <path d="M430.576,202.937 L432.109,203.04"/>
            <path d="M430.196,203.048 L430.576,202.937"/>
            <path d="M437.292,202.526 L437.452,202.418"/>
            <path d="M429.814,211.472 L430.041,211.362"/>
            <path d="M437.267,211.331 L437.2,211.2"/>
            <path d="M439.954,212.542 L427.034,212.542"/>
            <path d="M422.554,222.362 L422.554,223.362"/>
            <path d="M423.554,222.362 L422.554,222.362"/>
            <path d="M412.434,212.542 L425.354,212.542"/>
            <path d="M415.127,211.136 L415.262,211.053"/>
            <path d="M422.653,204.633 L422.551,204.744"/>
            <path d="M422.701,204.248 L422.653,204.633"/>
            <path d="M422.722,203.41 L422.701,204.248"/>
            <path d="M422.599,203.099 L422.722,203.41"/>
            <path d="M415.321,203.583 L415.596,203.048"/>
            <path d="M422.733,202.36 L422.692,202.526"/>
            <path d="M422.887,202.224 L422.733,202.36"/>
            <path d="M423.094,202.22 L422.887,202.224"/>
            <path d="M423.281,202.378 L423.094,202.22"/>
            <path d="M423.281,202.648 L423.281,202.378"/>
            <path d="M423.097,202.807 L423.281,202.648"/>
            <path d="M422.919,202.805 L423.097,202.807"/>
            <path d="M429.968,210.964 L429.862,211.053"/>
            <path d="M430.422,211.375 L430.196,211.296"/>
            <path d="M431.749,211.461 L430.422,211.375"/>
            <path d="M433.551,211.5 L431.749,211.461"/>
            <path d="M435.834,211.43 L433.551,211.5"/>
            <path d="M436.855,211.332 L435.834,211.43"/>
            <path d="M437.003,211.552 L436.899,211.384"/>
            <path d="M422.667,211.331 L422.6,211.2"/>
            <path d="M427.034,223.538 L427.034,221.662"/>
            <path d="M427.072,223.731 L427.034,223.538"/>
            <path d="M427.181,223.894 L427.072,223.731"/>
            <path d="M427.345,224.003 L427.181,223.894"/>
            <path d="M439.448,224.04 L427.345,224.003"/>
            <path d="M439.642,224.002 L439.448,224.04"/>
            <path d="M439.806,223.893 L439.642,224.002"/>
            <path d="M439.915,223.729 L439.806,223.893"/>
            <path d="M439.954,223.536 L439.915,223.729"/>
            <path d="M439.954,212.542 L439.954,223.536"/>
            <path d="M439.554,212.542 L439.954,212.542"/>
            <path d="M439.491,212.38 L439.554,212.542"/>
            <path d="M439.302,212.196 L439.491,212.38"/>
            <path d="M439.048,212.129 L439.302,212.196"/>
            <path d="M438.793,212.196 L439.048,212.129"/>
            <path d="M438.605,212.38 L438.793,212.196"/>
            <path d="M438.554,212.542 L438.605,212.38"/>
            <path d="M429.92,207.042 L429.951,204.744"/>
            <path d="M429.92,208.574 L429.92,207.042"/>
            <path d="M429.938,210.106 L429.92,208.574"/>
            <path d="M429.968,210.964 L429.938,210.106"/>
            <path d="M430.037,211.137 L429.968,210.964"/>
            <path d="M430.196,211.296 L430.037,211.137"/>
            <path d="M430.041,211.362 L430.196,211.296"/>
            <path d="M429.969,211.523 L430.041,211.362"/>
            <path d="M429.749,211.641 L429.969,211.523"/>
            <path d="M429.532,211.577 L429.749,211.641"/>
            <path d="M429.422,211.288 L429.532,211.577"/>
            <path d="M429.612,211.044 L429.422,211.288"/>
            <path d="M429.795,211.031 L429.612,211.044"/>
            <path d="M429.862,211.053 L429.795,211.031"/>
            <path d="M429.727,211.136 L429.862,211.053"/>
            <path d="M430.196,203.048 L429.921,203.583"/>
            <path d="M430.135,203.09 L430.196,203.048"/>
            <path d="M429.93,202.778 L430.135,203.09"/>
            <path d="M429.921,203.583 L429.566,202.872"/>
            <path d="M429.773,204.469 L429.921,203.583"/>
            <path d="M429.833,204.685 L429.773,204.469"/>
            <path d="M429.951,204.744 L429.833,204.685"/>
            <path d="M430.851,204.779 L429.951,204.744"/>
            <path d="M432.999,204.831 L430.851,204.779"/>
            <path d="M434.451,204.826 L432.999,204.831"/>
            <path d="M435.887,204.793 L434.451,204.826"/>
            <path d="M437.151,204.744 L435.887,204.793"/>
            <path d="M429.93,202.778 L429.808,202.601"/>
            <path d="M429.919,202.596 L429.93,202.778"/>
            <path d="M429.819,202.374 L429.919,202.596"/>
            <path d="M429.564,202.296 L429.819,202.374"/>
            <path d="M429.335,202.461 L429.564,202.296"/>
            <path d="M429.355,202.774 L429.335,202.461"/>
            <path d="M429.566,202.872 L429.355,202.774"/>
            <path d="M429.515,202.773 L429.566,202.872"/>
            <path d="M437.2,211.2 L437.126,211.053"/>
            <path d="M437.387,211.281 L437.2,211.2"/>
            <path d="M437.485,211.533 L437.387,211.281"/>
            <path d="M437.35,211.766 L437.485,211.533"/>
            <path d="M437,211.766 L437.35,211.766"/>
            <path d="M436.865,211.533 L437,211.766"/>
            <path d="M436.899,211.384 L436.865,211.533"/>
            <path d="M436.855,211.332 L436.899,211.384"/>
            <path d="M437.126,211.053 L436.855,211.332"/>
            <path d="M437.205,209.937 L437.126,211.053"/>
            <path d="M437.27,207.808 L437.205,209.937"/>
            <path d="M437.195,205.509 L437.27,207.808"/>
            <path d="M437.151,204.744 L437.195,205.509"/>
            <path d="M437.253,204.633 L437.151,204.744"/>
            <path d="M437.301,204.248 L437.253,204.633"/>
            <path d="M437.322,203.41 L437.301,204.248"/>
            <path d="M437.199,203.099 L437.322,203.41"/>
            <path d="M437.042,202.864 L437.199,203.099"/>
            <path d="M436.861,202.79 L437.042,202.864"/>
            <path d="M437.292,202.526 L436.861,202.79"/>
            <path d="M437.333,202.36 L437.292,202.526"/>
            <path d="M437.487,202.224 L437.333,202.36"/>
            <path d="M437.694,202.22 L437.487,202.224"/>
            <path d="M437.881,202.378 L437.694,202.22"/>
            <path d="M437.881,202.648 L437.881,202.378"/>
            <path d="M437.697,202.807 L437.881,202.648"/>
            <path d="M437.519,202.805 L437.697,202.807"/>
            <path d="M437.199,203.099 L437.519,202.805"/>
            <path d="M415.441,211.362 L415.596,211.296"/>
            <path d="M415.441,211.362 L415.214,211.472"/>
            <path d="M415.369,211.523 L415.441,211.362"/>
            <path d="M415.149,211.641 L415.369,211.523"/>
            <path d="M414.932,211.577 L415.149,211.641"/>
            <path d="M414.822,211.288 L414.932,211.577"/>
            <path d="M415.012,211.044 L414.822,211.288"/>
            <path d="M415.195,211.031 L415.012,211.044"/>
            <path d="M415.262,211.053 L415.195,211.031"/>
            <path d="M415.368,210.964 L415.262,211.053"/>
            <path d="M422.605,209.937 L422.526,211.053"/>
            <path d="M422.67,207.808 L422.605,209.937"/>
            <path d="M422.595,205.509 L422.67,207.808"/>
            <path d="M422.551,204.744 L422.595,205.509"/>
            <path d="M421.287,204.793 L422.551,204.744"/>
            <path d="M419.851,204.826 L421.287,204.793"/>
            <path d="M418.399,204.831 L419.851,204.826"/>
            <path d="M416.251,204.779 L418.399,204.831"/>
            <path d="M415.351,204.744 L416.251,204.779"/>
            <path d="M422.919,202.805 L423.03,202.71"/>
            <path d="M422.599,203.099 L422.919,202.805"/>
            <path d="M422.442,202.864 L422.599,203.099"/>
            <path d="M422.261,202.79 L422.442,202.864"/>
            <path d="M422.265,211.533 L422.299,211.384"/>
            <path d="M422.4,211.766 L422.265,211.533"/>
            <path d="M422.75,211.766 L422.4,211.766"/>
            <path d="M422.885,211.533 L422.75,211.766"/>
            <path d="M422.787,211.281 L422.885,211.533"/>
            <path d="M422.6,211.2 L422.787,211.281"/>
            <path d="M422.526,211.053 L422.6,211.2"/>
            <path d="M422.255,211.332 L422.526,211.053"/>
            <path d="M424.005,212.38 L423.954,212.542"/>
            <path d="M424.193,212.196 L424.005,212.38"/>
            <path d="M424.448,212.129 L424.193,212.196"/>
            <path d="M424.702,212.196 L424.448,212.129"/>
            <path d="M424.891,212.38 L424.702,212.196"/>
            <path d="M424.954,212.542 L424.891,212.38"/>
            <path d="M425.354,212.542 L424.954,212.542"/>
            <path d="M425.354,223.536 L425.354,212.542"/>
            <path d="M425.315,223.729 L425.354,223.536"/>
            <path d="M425.206,223.893 L425.315,223.729"/>
            <path d="M425.042,224.002 L425.206,223.893"/>
            <path d="M424.848,224.04 L425.042,224.002"/>
            <path d="M412.745,224.003 L424.848,224.04"/>
            <path d="M412.581,223.894 L412.745,224.003"/>
            <path d="M412.472,223.731 L412.581,223.894"/>
            <path d="M412.434,223.538 L412.472,223.731"/>
            <path d="M412.434,221.662 L412.434,223.538"/>
            <path d="M415.535,203.09 L415.33,202.778"/>
            <path d="M415.596,203.048 L415.535,203.09"/>
            <path d="M415.976,202.937 L415.596,203.048"/>
            <path d="M417.509,203.04 L415.976,202.937"/>
            <path d="M419.045,203.046 L417.509,203.04"/>
            <path d="M420.857,202.953 L419.045,203.046"/>
            <path d="M422.103,202.763 L420.857,202.953"/>
            <path d="M422.261,202.79 L422.103,202.763"/>
            <path d="M422.692,202.526 L422.261,202.79"/>
            <path d="M422.852,202.418 L422.692,202.526"/>
            <path d="M429.834,223.362 L429.834,222.362"/>
            <path d="M428.834,223.362 L429.834,223.362"/>
            <path d="M428.834,222.362 L428.834,223.362"/>
            <path d="M438.154,222.362 L428.834,222.362"/>
            <path d="M438.154,223.362 L438.154,222.362"/>
            <path d="M428.834,223.362 L438.154,223.362"/>
            <path d="M427.034,221.662 L439.954,221.662"/>
            <path d="M427.034,212.542 L427.034,221.662"/>
            <path d="M427.434,212.542 L427.034,212.542"/>
            <path d="M427.485,212.38 L427.434,212.542"/>
            <path d="M427.673,212.196 L427.485,212.38"/>
            <path d="M427.928,212.129 L427.673,212.196"/>
            <path d="M428.182,212.196 L427.928,212.129"/>
            <path d="M428.371,212.38 L428.182,212.196"/>
            <path d="M428.434,212.542 L428.371,212.38"/>
            <path d="M415.234,223.362 L415.234,222.362"/>
            <path d="M414.234,223.362 L415.234,223.362"/>
            <path d="M414.234,222.362 L414.234,223.362"/>
            <path d="M423.554,222.362 L414.234,222.362"/>
            <path d="M423.554,223.362 L423.554,222.362"/>
            <path d="M414.234,223.362 L423.554,223.362"/>
            <path d="M414.915,202.773 L414.966,202.872"/>
            <path d="M415.33,202.778 L415.208,202.601"/>
            <path d="M415.319,202.596 L415.33,202.778"/>
            <path d="M415.219,202.374 L415.319,202.596"/>
            <path d="M414.964,202.296 L415.219,202.374"/>
            <path d="M414.735,202.461 L414.964,202.296"/>
            <path d="M414.755,202.774 L414.735,202.461"/>
            <path d="M414.966,202.872 L414.755,202.774"/>
            <path d="M415.321,203.583 L414.966,202.872"/>
            <path d="M415.173,204.469 L415.321,203.583"/>
            <path d="M415.233,204.685 L415.173,204.469"/>
            <path d="M415.351,204.744 L415.233,204.685"/>
            <path d="M415.32,207.042 L415.351,204.744"/>
            <path d="M415.32,208.574 L415.32,207.042"/>
            <path d="M415.338,210.106 L415.32,208.574"/>
            <path d="M415.368,210.964 L415.338,210.106"/>
            <path d="M415.437,211.137 L415.368,210.964"/>
            <path d="M415.596,211.296 L415.437,211.137"/>
            <path d="M415.822,211.375 L415.596,211.296"/>
            <path d="M417.149,211.461 L415.822,211.375"/>
            <path d="M418.951,211.5 L417.149,211.461"/>
            <path d="M421.234,211.43 L418.951,211.5"/>
            <path d="M422.255,211.332 L421.234,211.43"/>
            <path d="M422.299,211.384 L422.255,211.332"/>
            <path d="M422.403,211.552 L422.299,211.384"/>
            <path d="M413.771,212.38 L413.834,212.542"/>
            <path d="M413.582,212.196 L413.771,212.38"/>
            <path d="M413.328,212.129 L413.582,212.196"/>
            <path d="M413.073,212.196 L413.328,212.129"/>
            <path d="M412.885,212.38 L413.073,212.196"/>
            <path d="M412.834,212.542 L412.885,212.38"/>
            <path d="M412.434,212.542 L412.834,212.542"/>
            <path d="M412.434,221.662 L412.434,212.542"/>
            <path d="M425.354,221.662 L412.434,221.662"/>
        </g>
    <g ifc:guid="3zuuPi5DzFRO8_qW0VLaSR" ifc:name="Ruimte" class="IfcSpace material-null cut"><path d="M240.2188491821289,234.42683128904042 L240.2188491821289,254.42690758298573 L240.2188491821289,264.42685036252675 L250.2187728881836,264.42685036252675 L270.2188491821289,264.4268312890404 L270.2188491821289,244.42677406858144 L270.2188491821289,234.42683128904042 L250.2187728881836,234.42683128904042 Z"/></g><g class="cut material-naaldhoutvurenCLT 1ai1Axx29BeetR6I2W0INo 1OtlE_XoT3nwp$teeg8PW_ IfcWall 3p0VX0RXz02uXbYI1GpYOA"><path d="M196.98673248291016,355.8402529198998 L196.98673248291016,355.30692009519277 L196.98673248291016,354.84024910520253 L186.32007598876953,354.84024910520253 L176.98673248291016,354.84024910520253 L176.98673248291016,355.37358192990956 L176.98673248291016,355.8402529198998 L187.65338897705078,355.8402529198998 Z"/></g><g class="cut material-naaldhoutvurenCLT 1ai1Axx29BeetR6I2W0INo 1OtlE_XoT3nwp$teeg8PW_ IfcWall 3p0VX0RXz02uXbYI1GpYOA"><path d="M196.98673248291016,372.5602522332543 L196.98673248291016,371.4402475793236 L186.32007598876953,371.4402475793236 L176.98673248291016,371.4402475793236 L176.98673248291016,372.7202406365746 L176.98673248291016,373.84024529050527 L187.65338897705078,373.84024529050527 L196.98673248291016,373.84024529050527 Z"/></g><g class="cut material-naaldhoutvurenCLT 1ai1Axx29BeetR6I2W0INo 1OtlE_XoT3nwp$teeg8PW_ IfcWall 3p0VX0RXz02uXbYI1GpYOA"><path d="M196.98673248291016,381.3469210107201 L196.98673248291016,380.04025368283925 L186.32007598876953,380.04025368283925 L176.98673248291016,380.04025368283925 L176.98673248291016,381.53357414792714 L176.98673248291016,382.84025101255116 L187.65338897705078,382.84025101255116 L196.98673248291016,382.84025101255116 Z"/></g><g class="material-metselwerkbaksteenrood cut IfcWall 0onHAdBLLEkxNfUVRjT2Il"><path d="M187.65338897705078,400.8402529198998 L196.98673248291016,400.8402529198998 L196.98673248291016,399.77358727048573 L196.98673248291016,398.84025482724843 L186.32007598876953,398.84025482724843 L176.98673248291016,398.84025482724843 L176.98673248291016,399.9069109399193 L176.98673248291016,400.8402529198998 Z"/></g><g class="cut 2_AesjXKDC4BrfYfskLXcd IfcWall material-isolatie"><path d="M187.65338897705078,391.8402471978539 L196.98673248291016,391.8402471978539 L196.98673248291016,390.773591085183 L196.98673248291016,389.84024910520253 L186.32007598876953,389.84024910520253 L176.98673248291016,389.84024910520253 L176.98673248291016,390.9069147546166 L176.98673248291016,391.8402471978539 Z"/></g><g class="cut IfcWall 1Zgl9MMGf9X9zt1tAmtXcx material-NEN471metselwerkbaksteen"><path d="M187.65338897705078,364.84024910520253 L196.98673248291016,364.84024910520253 L196.98673248291016,363.8802519280785 L196.98673248291016,363.0402460534447 L186.32007598876953,363.0402460534447 L176.98673248291016,363.0402460534447 L176.98673248291016,364.00024323056874 L176.98673248291016,364.84024910520253 Z"/></g><g class="cut IfcWall 348ccv6tH5wwG9L6C8YJ9_ material-null"><path d="M401.42589569091797,63.64031700681387 L401.42589569091797,58.040226979958405 L397.1592330932617,58.040226979958405 L393.4259033203125,58.040226979958405 L393.4259033203125,64.44025902341544 L393.4259033203125,70.0403490502709 L397.6925277709961,70.0403490502709 L401.42589569091797,70.0403490502709 Z"/></g><path d="M240.2188491821289,234.42683128904042 L240.2188491821289,254.42690758298573 L240.2188491821289,264.42685036252675 L250.2187728881836,264.42685036252675 L270.2188491821289,264.4268312890404 L270.2188491821289,244.42677406858144 L270.2188491821289,234.42683128904042 L250.2187728881836,234.42683128904042 Z" class="IfcSpace material-null"/></g>
</svg>