<svg xmlns="http://www.w3.org/2000/svg" xmlns:xlink="http://www.w3.org/1999/xlink" xmlns:ifc="http://www.ifcopenshell.org/ns" width="400mm" height="400mm" viewBox="0 0 400 400">
    <defs>
        <marker id="arrowend" markerWidth="10" markerHeight="7" refX="10" refY="3.5" orient="auto">
          <polygon points="0 0, 10 3.5, 0 7"/>
        </marker>
        <marker id="arrowstart" markerWidth="10" markerHeight="7" refX="0" refY="3.5" orient="auto">
          <polygon points="10 0, 0 3.5, 10 7"/>
        </marker>
    </defs>
    <g ifc:name="Elevation Nederlandse toevoegingen" class="section" ifc:plane="[[1.000000,0.000000,0.000000,0.000000],[0.000000,1.000000,0.000000,0.000000],[0.000000,0.000000,1.000000,1.600000],[0.000000,0.000000,0.000000,1.000000]]" ifc:matrix3="[[20.000000,0.000000,1000.000075],[0.000000,20.000000,400.000012],[0.000000,0.000000,1.000000]]">
        <g id="product-fef0d011-c88e-410b-8aa8-00b5672fae2c" class="IfcBuildingElementPart material-null projection" ifc:name="BuildingElementPart" ifc:guid="3_yD0Ho8v12uge0BLdBwui">
            <path d="M285.419,327.589 L286.219,327.589"/>
            <path d="M286.219,327.589 L285.419,327.589"/>
            <path d="M285.419,326.789 L286.219,326.789"/>
            <path d="M285.419,326.789 L286.219,326.789"/>
            <path d="M286.219,327.589 L286.219,326.789"/>
            <path d="M286.219,326.789 L286.219,327.589"/>
            <path d="M245.219,327.589 L244.419,327.589"/>
            <path d="M244.419,326.789 L245.219,326.789"/>
            <path d="M244.419,327.589 L244.419,326.789"/>
            <path d="M245.219,326.789 L245.219,327.589"/>
            <path d="M245.219,327.589 L245.219,326.789"/>
            <path d="M244.419,326.789 L245.219,326.789"/>
            <path d="M244.419,327.589 L244.419,326.789"/>
            <path d="M244.419,327.589 L245.219,327.589"/>
        </g>
    <g id="product-4bb58a6d-60f8-46d6-8cda-59292473a8d7" class="IfcColumn material-lood projection" ifc:name="Column" ifc:guid="1BjOfjOFX6repQMIaaSwZN">
            <path d="M144.526,277.284 L144.499,277.184"/>
            <path d="M144.599,277.357 L144.526,277.284"/>
            <path d="M144.699,277.384 L144.599,277.357"/>
            <path d="M144.499,276.344 L144.499,277.184"/>
            <path d="M144.599,276.171 L144.699,276.144"/>
            <path d="M144.526,276.244 L144.599,276.171"/>
            <path d="M144.499,276.344 L144.526,276.244"/>
            <path d="M145.539,276.144 L144.699,276.144"/>
            <path d="M145.712,276.244 L145.739,276.344"/>
            <path d="M145.639,276.171 L145.712,276.244"/>
            <path d="M145.539,276.144 L145.639,276.171"/>
            <path d="M145.739,277.184 L145.739,276.344"/>
            <path d="M145.639,277.357 L145.539,277.384"/>
            <path d="M145.712,277.284 L145.639,277.357"/>
            <path d="M145.739,277.184 L145.712,277.284"/>
            <path d="M144.699,277.384 L145.539,277.384"/>
            <path d="M144.619,277.464 L145.619,277.464"/>
            <path d="M145.819,277.264 L145.819,276.264"/>
            <path d="M145.792,276.164 L145.819,276.264"/>
            <path d="M145.719,276.091 L145.792,276.164"/>
            <path d="M145.619,276.064 L145.719,276.091"/>
            <path d="M145.619,276.064 L144.619,276.064"/>
            <path d="M144.519,276.091 L144.619,276.064"/>
            <path d="M144.446,276.164 L144.519,276.091"/>
            <path d="M144.419,276.264 L144.446,276.164"/>
            <path d="M144.419,276.264 L144.419,277.264"/>
            <path d="M144.446,277.364 L144.419,277.264"/>
            <path d="M144.519,277.437 L144.446,277.364"/>
            <path d="M144.619,277.464 L144.519,277.437"/>
            <path d="M145.719,277.437 L145.619,277.464"/>
            <path d="M145.792,277.364 L145.719,277.437"/>
            <path d="M145.819,277.264 L145.792,277.364"/>
        </g>
        <g id="product-d47cf8a8-e131-4900-9f33-4459428fa024" class="IfcColumn material-null projection" ifc:name="Column" ifc:guid="3KVFYeuJ5909ypH5b2Zw0a">
            <path d="M245.913,337.577 L245.939,337.383"/>
            <path d="M245.834,337.757 L245.913,337.577"/>
            <path d="M245.711,337.909 L245.834,337.757"/>
            <path d="M245.55,338.022 L245.711,337.909"/>
            <path d="M245.366,338.088 L245.55,338.022"/>
            <path d="M245.17,338.101 L245.366,338.088"/>
            <path d="M244.978,338.061 L245.17,338.101"/>
            <path d="M244.804,337.971 L244.978,338.061"/>
            <path d="M244.661,337.837 L244.804,337.971"/>
            <path d="M244.559,337.67 L244.661,337.837"/>
            <path d="M244.506,337.481 L244.559,337.67"/>
            <path d="M244.506,337.285 L244.506,337.481"/>
            <path d="M244.559,337.096 L244.506,337.285"/>
            <path d="M244.661,336.928 L244.559,337.096"/>
            <path d="M244.804,336.795 L244.661,336.928"/>
            <path d="M244.978,336.704 L244.804,336.795"/>
            <path d="M245.17,336.664 L244.978,336.704"/>
            <path d="M245.366,336.678 L245.17,336.664"/>
            <path d="M245.55,336.744 L245.366,336.678"/>
            <path d="M245.711,336.857 L245.55,336.744"/>
            <path d="M245.834,337.009 L245.711,336.857"/>
            <path d="M245.913,337.189 L245.834,337.009"/>
            <path d="M245.939,337.383 L245.913,337.189"/>
            <path d="M245.996,337.574 L246.019,337.383"/>
            <path d="M245.928,337.755 L245.996,337.574"/>
            <path d="M245.818,337.913 L245.928,337.755"/>
            <path d="M245.674,338.041 L245.818,337.913"/>
            <path d="M245.503,338.131 L245.674,338.041"/>
            <path d="M245.316,338.177 L245.503,338.131"/>
            <path d="M245.123,338.177 L245.316,338.177"/>
            <path d="M244.936,338.131 L245.123,338.177"/>
            <path d="M244.765,338.041 L244.936,338.131"/>
            <path d="M244.62,337.913 L244.765,338.041"/>
            <path d="M244.511,337.755 L244.62,337.913"/>
            <path d="M244.442,337.574 L244.511,337.755"/>
            <path d="M244.419,337.383 L244.442,337.574"/>
            <path d="M244.442,337.191 L244.419,337.383"/>
            <path d="M244.511,337.011 L244.442,337.191"/>
            <path d="M244.62,336.852 L244.511,337.011"/>
            <path d="M244.765,336.724 L244.62,336.852"/>
            <path d="M244.936,336.635 L244.765,336.724"/>
            <path d="M245.123,336.589 L244.936,336.635"/>
            <path d="M245.316,336.589 L245.123,336.589"/>
            <path d="M245.503,336.635 L245.316,336.589"/>
            <path d="M245.674,336.724 L245.503,336.635"/>
            <path d="M245.818,336.852 L245.674,336.724"/>
            <path d="M245.928,337.011 L245.818,336.852"/>
            <path d="M245.996,337.191 L245.928,337.011"/>
            <path d="M246.019,337.383 L245.996,337.191"/>
        </g>
        <g id="product-cf88d67e-2780-4213-9094-d4d1bd169531" class="IfcBuildingElementPart material-ongewapendbeton projection" ifc:name="BuildingElementPart" ifc:guid="3FYDP_9u124v2KrD6z5fKn">
            <path d="M264.419,315.289 L264.419,316.189"/>
            <path d="M244.419,315.289 L244.419,316.189"/>
            <path d="M244.419,316.189 L264.419,316.189"/>
        </g>
        <g id="product-c5b2a451-d2e3-4bd1-af88-55969455e5f9" class="IfcBeam material-lood projection" ifc:name="Beam" ifc:guid="35igHHqkDBqQ_8LPQKLUNv">
            <path d="M255.327,258.444 L264.419,258.444"/>
            <path d="M255.327,258.444 L244.419,258.444"/>
            <path d="M264.419,259.329 L264.419,259.363"/>
            <path d="M244.419,259.329 L244.419,259.363"/>
            <path d="M244.419,259.363 L264.419,259.363"/>
            <path d="M264.419,258.114 L264.419,259.329"/>
            <path d="M244.419,258.114 L244.419,259.329"/>
            <path d="M244.419,259.329 L264.419,259.329"/>
            <path d="M264.419,258.442 L264.419,258.444"/>
            <path d="M264.419,258.43 L264.419,258.442"/>
            <path d="M244.419,258.442 L244.419,258.444"/>
            <path d="M244.419,258.43 L244.419,258.442"/>
            <path d="M264.419,258.114 L264.419,258.43"/>
            <path d="M244.419,258.114 L244.419,258.43"/>
            <path d="M264.419,258.1 L264.419,258.114"/>
            <path d="M264.419,258.088 L264.419,258.1"/>
            <path d="M264.419,258.083 L264.419,258.088"/>
            <path d="M244.419,258.1 L244.419,258.114"/>
            <path d="M244.419,258.088 L244.419,258.1"/>
            <path d="M244.419,258.083 L244.419,258.088"/>
            <path d="M244.419,258.114 L264.419,258.114"/>
            <path d="M244.419,258.083 L264.419,258.083"/>
        </g>
        <g id="product-401d414d-c4ac-4616-824c-225c4f5a79a3" class="IfcStair material-gewapendbetonprefab projection" ifc:name="Stair" ifc:guid="107K5DnAn65e9C8bnFMdcZ">
            <path d="M221.119,303.798 L195.619,303.798"/>
            <path d="M221.119,297.981 L195.619,297.981"/>
            <path d="M195.619,298.042 L221.119,298.042"/>
            <path d="M221.119,298.05 L195.619,298.05"/>
            <path d="M221.119,297.821 L195.619,297.821"/>
            <path d="M221.119,297.611 L195.619,297.611"/>
            <path d="M221.119,297.55 L195.619,297.55"/>
            <path d="M221.119,293.15 L195.619,293.15"/>
            <path d="M221.119,279.95 L195.619,279.95"/>
            <path d="M221.119,284.35 L195.619,284.35"/>
            <path d="M221.119,288.75 L195.619,288.75"/>
            <path d="M221.119,275.55 L195.619,275.55"/>
            <path d="M221.119,271.15 L195.619,271.15"/>
            <path d="M221.119,266.75 L195.619,266.75"/>
            <path d="M221.119,262.35 L195.619,262.35"/>
            <path d="M221.119,257.95 L195.619,257.95"/>
            <path d="M195.619,275.409 L195.619,275.352"/>
            <path d="M194.419,288.552 L195.619,288.552"/>
            <path d="M195.619,288.609 L194.419,288.609"/>
            <path d="M194.419,270.952 L195.619,270.952"/>
            <path d="M195.619,271.009 L195.619,270.952"/>
            <path d="M195.619,275.352 L194.419,275.352"/>
            <path d="M195.619,266.609 L195.619,266.552"/>
            <path d="M194.419,275.409 L195.619,275.409"/>
            <path d="M195.619,279.752 L195.619,275.409"/>
            <path d="M194.419,271.009 L195.619,271.009"/>
            <path d="M195.619,275.352 L195.619,271.009"/>
            <path d="M195.619,266.552 L194.419,266.552"/>
            <path d="M194.419,266.609 L195.619,266.609"/>
            <path d="M195.619,270.952 L195.619,266.609"/>
            <path d="M195.619,257.809 L195.619,262.152"/>
            <path d="M195.619,262.209 L195.619,266.552"/>
            <path d="M194.419,262.152 L195.619,262.152"/>
            <path d="M195.619,262.209 L195.619,262.152"/>
            <path d="M195.619,262.209 L194.419,262.209"/>
            <path d="M194.419,257.752 L195.619,257.752"/>
            <path d="M195.619,257.809 L195.619,257.752"/>
            <path d="M195.619,257.809 L194.419,257.809"/>
            <path d="M195.619,297.813 L194.419,297.813"/>
            <path d="M194.419,297.844 L195.619,297.844"/>
            <path d="M195.619,297.85 L194.419,297.85"/>
            <path d="M195.619,297.728 L194.419,297.728"/>
            <path d="M195.619,297.514 L194.419,297.514"/>
            <path d="M195.619,297.474 L194.419,297.474"/>
            <path d="M195.619,292.952 L194.419,292.952"/>
            <path d="M195.619,293.009 L194.419,293.009"/>
            <path d="M195.619,279.752 L194.419,279.752"/>
            <path d="M195.619,279.809 L194.419,279.809"/>
            <path d="M195.619,284.152 L194.419,284.152"/>
            <path d="M195.619,284.209 L194.419,284.209"/>
            <path d="M195.619,288.552 L195.619,284.209"/>
            <path d="M195.619,284.152 L195.619,284.209"/>
            <path d="M195.619,284.152 L195.619,279.809"/>
            <path d="M195.619,279.752 L195.619,279.809"/>
            <path d="M195.619,292.952 L195.619,288.609"/>
            <path d="M195.619,288.609 L195.619,288.552"/>
            <path d="M195.619,303.798 L194.419,303.798"/>
            <path d="M195.619,297.844 L195.619,298.042"/>
            <path d="M195.619,292.952 L195.619,293.009"/>
            <path d="M195.619,297.474 L195.619,293.009"/>
            <path d="M195.619,297.474 L195.619,297.514"/>
            <path d="M195.619,297.728 L195.619,297.514"/>
            <path d="M195.619,297.813 L195.619,297.728"/>
            <path d="M195.619,297.844 L195.619,297.813"/>
            <path d="M195.619,297.85 L195.619,297.844"/>
            <path d="M194.419,303.798 L194.419,297.844"/>
            <path d="M194.419,297.85 L194.419,297.844"/>
            <path d="M194.419,297.844 L194.419,297.813"/>
            <path d="M194.419,297.813 L194.419,297.728"/>
            <path d="M194.419,297.728 L194.419,297.514"/>
            <path d="M194.419,297.474 L194.419,297.514"/>
            <path d="M194.419,297.474 L194.419,293.009"/>
            <path d="M194.419,292.952 L194.419,293.009"/>
            <path d="M194.419,292.952 L194.419,288.609"/>
            <path d="M194.419,288.552 L194.419,288.609"/>
            <path d="M194.419,284.209 L194.419,288.552"/>
            <path d="M194.419,284.152 L194.419,284.209"/>
            <path d="M194.419,284.152 L194.419,279.809"/>
            <path d="M194.419,279.752 L194.419,279.809"/>
            <path d="M194.419,275.409 L194.419,279.752"/>
            <path d="M194.419,275.409 L194.419,275.352"/>
            <path d="M194.419,271.009 L194.419,275.352"/>
            <path d="M194.419,271.009 L194.419,270.952"/>
            <path d="M194.419,266.609 L194.419,270.952"/>
            <path d="M194.419,266.609 L194.419,266.552"/>
            <path d="M194.419,262.209 L194.419,266.552"/>
            <path d="M194.419,262.152 L194.419,262.209"/>
            <path d="M194.419,257.809 L194.419,262.152"/>
            <path d="M194.419,257.752 L194.419,257.809"/>
            <path d="M194.419,303.798 L194.419,266.674"/>
            <path d="M195.619,298.042 L195.619,303.798"/>
            <path d="M221.119,275.409 L221.119,275.352"/>
            <path d="M221.119,288.552 L222.319,288.552"/>
            <path d="M222.319,288.609 L221.119,288.609"/>
            <path d="M221.119,270.952 L222.319,270.952"/>
            <path d="M221.119,271.009 L221.119,270.952"/>
            <path d="M222.319,275.352 L221.119,275.352"/>
            <path d="M221.119,266.609 L221.119,266.552"/>
            <path d="M221.119,275.409 L221.119,279.752"/>
            <path d="M221.119,275.409 L222.319,275.409"/>
            <path d="M221.119,271.009 L221.119,275.352"/>
            <path d="M221.119,271.009 L222.319,271.009"/>
            <path d="M222.319,266.552 L221.119,266.552"/>
            <path d="M221.119,266.609 L221.119,270.952"/>
            <path d="M221.119,266.609 L222.319,266.609"/>
            <path d="M221.119,257.809 L221.119,262.152"/>
            <path d="M221.119,262.209 L221.119,266.552"/>
            <path d="M221.119,262.152 L222.319,262.152"/>
            <path d="M222.319,262.209 L221.119,262.209"/>
            <path d="M221.119,262.152 L221.119,262.209"/>
            <path d="M221.119,257.752 L222.319,257.752"/>
            <path d="M222.319,257.809 L221.119,257.809"/>
            <path d="M221.119,257.752 L221.119,257.809"/>
            <path d="M222.319,297.813 L221.119,297.813"/>
            <path d="M221.119,297.844 L222.319,297.844"/>
            <path d="M222.319,297.85 L221.119,297.85"/>
            <path d="M222.319,297.728 L221.119,297.728"/>
            <path d="M222.319,297.514 L221.119,297.514"/>
            <path d="M222.319,297.474 L221.119,297.474"/>
            <path d="M222.319,292.952 L221.119,292.952"/>
            <path d="M222.319,293.009 L221.119,293.009"/>
            <path d="M222.319,279.752 L221.119,279.752"/>
            <path d="M222.319,279.809 L221.119,279.809"/>
            <path d="M222.319,284.152 L221.119,284.152"/>
            <path d="M222.319,284.209 L221.119,284.209"/>
            <path d="M221.119,284.152 L221.119,284.209"/>
            <path d="M221.119,284.209 L221.119,288.552"/>
            <path d="M221.119,279.752 L221.119,279.809"/>
            <path d="M221.119,284.152 L221.119,279.809"/>
            <path d="M221.119,288.552 L221.119,288.609"/>
            <path d="M221.119,292.952 L221.119,288.609"/>
            <path d="M222.319,303.798 L221.119,303.798"/>
            <path d="M221.119,298.042 L221.119,297.844"/>
            <path d="M221.119,297.85 L221.119,297.844"/>
            <path d="M221.119,297.844 L221.119,297.813"/>
            <path d="M221.119,297.813 L221.119,297.728"/>
            <path d="M221.119,297.728 L221.119,297.514"/>
            <path d="M221.119,297.474 L221.119,297.514"/>
            <path d="M221.119,297.474 L221.119,293.009"/>
            <path d="M221.119,292.952 L221.119,293.009"/>
            <path d="M221.119,303.798 L221.119,298.042"/>
            <path d="M222.319,303.798 L222.319,266.674"/>
            <path d="M222.319,257.809 L222.319,257.752"/>
            <path d="M222.319,257.809 L222.319,262.152"/>
            <path d="M222.319,262.209 L222.319,262.152"/>
            <path d="M222.319,262.209 L222.319,266.552"/>
            <path d="M222.319,266.609 L222.319,266.552"/>
            <path d="M222.319,270.952 L222.319,266.609"/>
            <path d="M222.319,271.009 L222.319,270.952"/>
            <path d="M222.319,275.352 L222.319,271.009"/>
            <path d="M222.319,275.409 L222.319,275.352"/>
            <path d="M222.319,279.752 L222.319,275.409"/>
            <path d="M222.319,279.752 L222.319,279.809"/>
            <path d="M222.319,284.152 L222.319,279.809"/>
            <path d="M222.319,284.152 L222.319,284.209"/>
            <path d="M222.319,288.552 L222.319,284.209"/>
            <path d="M222.319,288.609 L222.319,288.552"/>
            <path d="M222.319,292.952 L222.319,288.609"/>
            <path d="M222.319,292.952 L222.319,293.009"/>
            <path d="M222.319,297.474 L222.319,293.009"/>
            <path d="M222.319,297.474 L222.319,297.514"/>
            <path d="M222.319,297.728 L222.319,297.514"/>
            <path d="M222.319,297.813 L222.319,297.728"/>
            <path d="M222.319,297.844 L222.319,297.813"/>
            <path d="M222.319,297.85 L222.319,297.844"/>
            <path d="M222.319,297.844 L222.319,303.798"/>
        </g>
        <g id="product-3713120c-b4f3-42e4-b37d-3d487f60d8fd" class="IfcRailing material-null projection" ifc:name="Railing" ifc:guid="0t4n8CjFD2vBDzFKX$ODZz">
            <path d="M237.132,289.344 L236.975,289.344"/>
            <path d="M237.21,289.344 L237.132,289.344"/>
            <path d="M237.56,289.344 L237.775,289.344"/>
            <path d="M237.406,289.344 L237.21,289.344"/>
            <path d="M237.486,289.344 L237.406,289.344"/>
            <path d="M237.486,289.344 L237.56,289.344"/>
            <path d="M237.021,289.744 L236.975,289.744"/>
            <path d="M237.21,289.744 L237.021,289.744"/>
            <path d="M237.697,289.744 L237.775,289.744"/>
            <path d="M237.486,289.744 L237.697,289.744"/>
            <path d="M237.278,289.744 L237.21,289.744"/>
            <path d="M237.278,289.744 L237.486,289.744"/>
            <path d="M238.175,289.044 L237.775,289.044"/>
            <path d="M237.132,274.239 L236.975,274.239"/>
            <path d="M237.21,274.239 L237.132,274.239"/>
            <path d="M237.56,274.239 L237.775,274.239"/>
            <path d="M237.406,274.239 L237.21,274.239"/>
            <path d="M237.486,274.239 L237.406,274.239"/>
            <path d="M237.486,274.239 L237.56,274.239"/>
            <path d="M237.021,274.639 L236.975,274.639"/>
            <path d="M237.21,274.639 L237.021,274.639"/>
            <path d="M237.697,274.638 L237.775,274.639"/>
            <path d="M237.486,274.639 L237.697,274.638"/>
            <path d="M237.278,274.639 L237.21,274.639"/>
            <path d="M237.278,274.639 L237.486,274.639"/>
            <path d="M238.175,273.939 L237.775,273.939"/>
            <path d="M237.132,259.133 L236.975,259.133"/>
            <path d="M237.21,259.133 L237.132,259.133"/>
            <path d="M237.56,259.133 L237.775,259.133"/>
            <path d="M237.406,259.133 L237.21,259.133"/>
            <path d="M237.486,259.133 L237.406,259.133"/>
            <path d="M237.486,259.133 L237.56,259.133"/>
            <path d="M237.021,259.533 L236.975,259.533"/>
            <path d="M237.21,259.533 L237.021,259.533"/>
            <path d="M237.697,259.533 L237.775,259.533"/>
            <path d="M237.486,259.533 L237.697,259.533"/>
            <path d="M237.278,259.533 L237.21,259.533"/>
            <path d="M237.278,259.533 L237.486,259.533"/>
            <path d="M238.175,258.833 L237.775,258.833"/>
            <path d="M236.975,275.464 L236.975,275.748"/>
            <path d="M235.975,287.247 L235.975,287.527"/>
            <path d="M235.975,287.92 L235.975,287.527"/>
            <path d="M235.975,260.038 L235.975,257.791"/>
            <path d="M235.975,262.28 L235.975,260.038"/>
            <path d="M236.975,293.21 L236.975,293.756"/>
            <path d="M236.975,289.145 L236.975,288.488"/>
            <path d="M235.975,293.756 L235.975,293.17"/>
            <path d="M236.975,276.039 L236.975,275.748"/>
            <path d="M235.975,270.757 L235.975,271.123"/>
            <path d="M235.975,271.258 L235.975,271.123"/>
            <path d="M235.975,269.768 L235.975,270.757"/>
            <path d="M235.975,269.674 L235.975,269.768"/>
            <path d="M235.975,269.49 L235.975,269.674"/>
            <path d="M235.975,269.013 L235.975,269.179"/>
            <path d="M235.975,269.442 L235.975,269.49"/>
            <path d="M235.975,269.442 L235.975,269.179"/>
            <path d="M235.975,268.865 L235.975,268.733"/>
            <path d="M235.975,268.865 L235.975,269.013"/>
            <path d="M235.975,268.674 L235.975,268.733"/>
            <path d="M235.975,267.973 L235.975,268.674"/>
            <path d="M235.975,267.892 L235.975,267.973"/>
            <path d="M235.975,267.788 L235.975,267.892"/>
            <path d="M236.975,290.832 L236.975,291.402"/>
            <path d="M236.975,290.756 L236.975,290.832"/>
            <path d="M236.975,290.508 L236.975,290.756"/>
            <path d="M236.975,290.475 L236.975,290.508"/>
            <path d="M236.975,290.353 L236.975,290.475"/>
            <path d="M235.975,291.258 L235.975,291.479"/>
            <path d="M235.975,291.088 L235.975,291.258"/>
            <path d="M235.975,288.799 L235.975,289.064"/>
            <path d="M235.975,288.799 L235.975,287.92"/>
            <path d="M235.975,287.012 L235.975,287.247"/>
            <path d="M235.975,286.97 L235.975,287.012"/>
            <path d="M235.975,285.872 L235.975,285.93"/>
            <path d="M235.975,285.852 L235.975,285.872"/>
            <path d="M236.975,285.008 L236.975,284.726"/>
            <path d="M236.975,285.197 L236.975,285.008"/>
            <path d="M236.975,284.532 L236.975,284.726"/>
            <path d="M236.975,284.256 L236.975,284.532"/>
            <path d="M235.975,284.64 L235.975,284.725"/>
            <path d="M235.975,284.47 L235.975,284.64"/>
            <path d="M235.975,283.238 L235.975,284.47"/>
            <path d="M235.975,280.161 L235.975,280.236"/>
            <path d="M235.975,279.735 L235.975,280.161"/>
            <path d="M236.975,276.939 L236.975,276.871"/>
            <path d="M236.975,274.56 L236.975,274.621"/>
            <path d="M236.975,274.521 L236.975,274.292"/>
            <path d="M236.975,274.521 L236.975,274.56"/>
            <path d="M236.975,271.239 L236.975,271.259"/>
            <path d="M236.975,271.196 L236.975,271.15"/>
            <path d="M236.975,271.196 L236.975,271.239"/>
            <path d="M236.975,271.021 L236.975,271.15"/>
            <path d="M236.975,294.063 L236.975,294.139"/>
            <path d="M236.975,293.991 L236.975,293.756"/>
            <path d="M236.975,294.026 L236.975,294.063"/>
            <path d="M236.975,294.026 L236.975,293.991"/>
            <path d="M235.975,294.101 L235.975,294.14"/>
            <path d="M235.975,294.077 L235.975,294.101"/>
            <path d="M235.975,294.039 L235.975,294.077"/>
            <path d="M235.975,293.887 L235.975,294.039"/>
            <path d="M235.975,293.887 L235.975,293.756"/>
            <path d="M236.975,277.131 L236.975,276.939"/>
            <path d="M236.975,277.782 L236.975,277.131"/>
            <path d="M236.975,270.094 L236.975,264.313"/>
            <path d="M236.975,270.094 L236.975,271.021"/>
            <path d="M236.975,262.7 L236.975,264.313"/>
            <path d="M235.975,263.403 L235.975,262.28"/>
            <path d="M235.975,263.766 L235.975,263.403"/>
            <path d="M236.975,286.771 L236.975,287.411"/>
            <path d="M235.975,281.723 L235.975,283.238"/>
            <path d="M236.975,282.271 L236.975,282.69"/>
            <path d="M235.975,278.749 L235.975,279.735"/>
            <path d="M236.975,271.878 L236.975,274.292"/>
            <path d="M235.975,275.718 L235.975,278.749"/>
            <path d="M235.975,272.744 L235.975,275.718"/>
            <path d="M235.975,265.282 L235.975,263.766"/>
            <path d="M236.975,262.282 L236.975,261.922"/>
            <path d="M236.975,262.282 L236.975,262.7"/>
            <path d="M236.975,260.038 L236.975,257.791"/>
            <path d="M236.975,260.038 L236.975,261.922"/>
            <path d="M236.975,291.479 L236.975,291.806"/>
            <path d="M236.975,291.479 L236.975,291.402"/>
            <path d="M235.975,292.68 L235.975,292.507"/>
            <path d="M235.975,292.68 L235.975,293.17"/>
            <path d="M236.975,289.923 L236.975,289.145"/>
            <path d="M236.975,290.151 L236.975,289.923"/>
            <path d="M236.975,290.151 L236.975,290.353"/>
            <path d="M236.975,288.488 L236.975,287.411"/>
            <path d="M236.975,286.201 L236.975,286.771"/>
            <path d="M236.975,283.257 L236.975,282.69"/>
            <path d="M236.975,281.358 L236.975,281.054"/>
            <path d="M236.975,280.445 L236.975,281.054"/>
            <path d="M236.975,279.608 L236.975,280.445"/>
            <path d="M236.975,279.608 L236.975,277.782"/>
            <path d="M236.975,274.73 L236.975,274.621"/>
            <path d="M236.975,274.789 L236.975,274.73"/>
            <path d="M235.975,271.557 L235.975,272.744"/>
            <path d="M235.975,271.557 L235.975,271.258"/>
            <path d="M235.975,267.035 L235.975,267.788"/>
            <path d="M235.975,266.769 L235.975,265.282"/>
            <path d="M235.975,266.769 L235.975,267.035"/>
            <path d="M236.975,292.59 L236.975,293.21"/>
            <path d="M236.975,292.527 L236.975,292.59"/>
            <path d="M236.975,292.162 L236.975,292.527"/>
            <path d="M236.975,292.043 L236.975,292.162"/>
            <path d="M236.975,292.002 L236.975,291.806"/>
            <path d="M236.975,292.002 L236.975,292.043"/>
            <path d="M235.975,292.042 L235.975,291.479"/>
            <path d="M235.975,292.042 L235.975,292.507"/>
            <path d="M235.975,290.453 L235.975,291.088"/>
            <path d="M235.975,290.346 L235.975,290.453"/>
            <path d="M235.975,290.267 L235.975,290.346"/>
            <path d="M235.975,289.968 L235.975,290.267"/>
            <path d="M235.975,289.432 L235.975,289.968"/>
            <path d="M235.975,289.218 L235.975,289.432"/>
            <path d="M235.975,289.218 L235.975,289.064"/>
            <path d="M236.975,286.078 L236.975,286.201"/>
            <path d="M236.975,285.854 L236.975,286.078"/>
            <path d="M236.975,285.607 L236.975,285.854"/>
            <path d="M235.975,286.823 L235.975,286.97"/>
            <path d="M235.975,286.634 L235.975,285.93"/>
            <path d="M235.975,286.693 L235.975,286.634"/>
            <path d="M235.975,286.693 L235.975,286.823"/>
            <path d="M236.975,285.496 L236.975,285.607"/>
            <path d="M236.975,285.204 L236.975,285.496"/>
            <path d="M236.975,285.204 L236.975,285.197"/>
            <path d="M235.975,285.779 L235.975,285.852"/>
            <path d="M236.975,284.249 L236.975,284.256"/>
            <path d="M235.975,284.919 L235.975,284.725"/>
            <path d="M235.975,285.541 L235.975,284.919"/>
            <path d="M235.975,285.541 L235.975,285.779"/>
            <path d="M236.975,283.959 L236.975,283.848"/>
            <path d="M236.975,283.959 L236.975,284.249"/>
            <path d="M236.975,283.778 L236.975,283.848"/>
            <path d="M236.975,283.38 L236.975,283.257"/>
            <path d="M236.975,283.427 L236.975,283.778"/>
            <path d="M236.975,283.427 L236.975,283.38"/>
            <path d="M236.975,281.508 L236.975,281.358"/>
            <path d="M236.975,281.508 L236.975,282.271"/>
            <path d="M235.975,280.389 L235.975,280.236"/>
            <path d="M235.975,280.389 L235.975,281.723"/>
            <path d="M236.975,276.66 L236.975,276.871"/>
            <path d="M236.975,276.66 L236.975,276.039"/>
            <path d="M236.975,275.394 L236.975,274.789"/>
            <path d="M236.975,275.424 L236.975,275.394"/>
            <path d="M236.975,275.424 L236.975,275.464"/>
            <path d="M236.975,271.319 L236.975,271.259"/>
            <path d="M236.975,271.358 L236.975,271.319"/>
            <path d="M236.975,271.358 L236.975,271.878"/>
            <path d="M236.284,257.488 L236.475,257.463"/>
            <path d="M236.122,257.559 L236.284,257.488"/>
            <path d="M236.014,257.666 L236.122,257.559"/>
            <path d="M235.975,257.791 L236.014,257.666"/>
            <path d="M236.937,257.666 L236.975,257.791"/>
            <path d="M236.829,257.559 L236.937,257.666"/>
            <path d="M236.667,257.488 L236.829,257.559"/>
            <path d="M236.475,257.463 L236.667,257.488"/>
            <path d="M236.801,293.559 L236.475,293.376"/>
            <path d="M236.912,293.767 L236.801,293.559"/>
            <path d="M236.969,294.021 L236.912,293.767"/>
            <path d="M236.975,294.139 L236.969,294.021"/>
            <path d="M236.971,294.236 L236.975,294.139"/>
            <path d="M236.922,294.483 L236.971,294.236"/>
            <path d="M236.796,294.724 L236.922,294.483"/>
            <path d="M236.578,294.886 L236.796,294.724"/>
            <path d="M236.303,294.855 L236.578,294.886"/>
            <path d="M236.058,294.558 L236.303,294.855"/>
            <path d="M235.991,294.329 L236.058,294.558"/>
            <path d="M235.975,294.14 L235.991,294.329"/>
            <path d="M235.977,294.077 L235.975,294.14"/>
            <path d="M236.016,293.837 L235.977,294.077"/>
            <path d="M236.154,293.555 L236.016,293.837"/>
            <path d="M236.475,293.376 L236.154,293.555"/>
            <path d="M238.175,258.871 L238.175,258.833"/>
            <path d="M238.175,258.979 L238.175,258.871"/>
            <path d="M238.175,259.142 L238.175,258.979"/>
            <path d="M238.175,259.333 L238.175,259.142"/>
            <path d="M238.175,259.524 L238.175,259.333"/>
            <path d="M238.175,259.687 L238.175,259.524"/>
            <path d="M238.175,259.795 L238.175,259.687"/>
            <path d="M238.175,259.833 L238.175,259.795"/>
            <path d="M237.775,258.871 L237.775,258.833"/>
            <path d="M237.775,258.979 L237.775,258.871"/>
            <path d="M237.775,259.142 L237.775,258.979"/>
            <path d="M237.775,259.333 L237.775,259.142"/>
            <path d="M237.775,259.524 L237.775,259.333"/>
            <path d="M237.775,259.687 L237.775,259.524"/>
            <path d="M237.775,259.795 L237.775,259.687"/>
            <path d="M237.775,259.833 L237.775,259.795"/>
            <path d="M237.775,259.833 L238.175,259.833"/>
            <path d="M238.175,273.977 L238.175,273.939"/>
            <path d="M238.175,274.085 L238.175,273.977"/>
            <path d="M238.175,274.247 L238.175,274.085"/>
            <path d="M238.175,274.439 L238.175,274.247"/>
            <path d="M238.175,274.63 L238.175,274.439"/>
            <path d="M238.175,274.792 L238.175,274.63"/>
            <path d="M238.175,274.9 L238.175,274.792"/>
            <path d="M238.175,274.939 L238.175,274.9"/>
            <path d="M237.775,273.977 L237.775,273.939"/>
            <path d="M237.775,274.085 L237.775,273.977"/>
            <path d="M237.775,274.247 L237.775,274.085"/>
            <path d="M237.775,274.439 L237.775,274.247"/>
            <path d="M237.775,274.63 L237.775,274.439"/>
            <path d="M237.775,274.792 L237.775,274.63"/>
            <path d="M237.775,274.9 L237.775,274.792"/>
            <path d="M237.775,274.939 L237.775,274.9"/>
            <path d="M237.775,274.939 L238.175,274.939"/>
            <path d="M238.175,289.082 L238.175,289.044"/>
            <path d="M238.175,289.191 L238.175,289.082"/>
            <path d="M238.175,289.353 L238.175,289.191"/>
            <path d="M238.175,289.544 L238.175,289.353"/>
            <path d="M238.175,289.735 L238.175,289.544"/>
            <path d="M238.175,289.898 L238.175,289.735"/>
            <path d="M238.175,290.006 L238.175,289.898"/>
            <path d="M238.175,290.044 L238.175,290.006"/>
            <path d="M237.775,289.082 L237.775,289.044"/>
            <path d="M237.775,289.191 L237.775,289.082"/>
            <path d="M237.775,289.353 L237.775,289.191"/>
            <path d="M237.775,289.544 L237.775,289.353"/>
            <path d="M237.775,289.735 L237.775,289.544"/>
            <path d="M237.775,289.898 L237.775,289.735"/>
            <path d="M237.775,290.006 L237.775,289.898"/>
            <path d="M237.775,290.044 L237.775,290.006"/>
            <path d="M237.775,290.044 L238.175,290.044"/>
        </g>
        <g id="product-c60f2f00-329b-4b7f-af70-9fa7fefaf1c6" class="IfcBuildingElementPart material-isolatieEPS projection" ifc:name="BuildingElementPart" ifc:guid="363oy0CfjBVwzmdwV__l76">
            <path d="M264.419,313.089 L264.419,315.289"/>
            <path d="M244.419,313.089 L244.419,315.289"/>
            <path d="M244.419,315.289 L264.419,315.289"/>
            <path d="M244.419,313.089 L264.419,313.089"/>
        </g>
        <g id="product-849c009b-ae62-43d5-8a7a-0210798d9ac6" class="IfcFurniture material-null projection" ifc:name="Furniture" ifc:guid="24d02Rhc93rOfw0X1vZPh6">
            <path d="M219.139,152.404 L219.139,153.404"/>
            <path d="M220.139,152.404 L219.139,152.404"/>
            <path d="M219.615,132.752 L219.504,132.847"/>
            <path d="M218.689,132.805 L218.847,132.832"/>
            <path d="M217.442,132.995 L218.689,132.805"/>
            <path d="M215.631,133.088 L217.442,132.995"/>
            <path d="M214.094,133.082 L215.631,133.088"/>
            <path d="M212.562,132.979 L214.094,133.082"/>
            <path d="M212.181,133.091 L212.562,132.979"/>
            <path d="M219.278,132.569 L219.438,132.461"/>
            <path d="M211.799,141.514 L212.027,141.404"/>
            <path d="M219.252,141.373 L219.185,141.242"/>
            <path d="M221.939,142.584 L209.019,142.584"/>
            <path d="M204.539,152.404 L204.539,153.404"/>
            <path d="M205.539,152.404 L204.539,152.404"/>
            <path d="M194.419,142.584 L207.339,142.584"/>
            <path d="M197.112,141.178 L197.248,141.095"/>
            <path d="M204.638,134.676 L204.536,134.786"/>
            <path d="M204.686,134.29 L204.638,134.676"/>
            <path d="M204.708,133.453 L204.686,134.29"/>
            <path d="M204.585,133.141 L204.708,133.453"/>
            <path d="M197.306,133.625 L197.581,133.091"/>
            <path d="M204.719,132.402 L204.678,132.569"/>
            <path d="M204.872,132.267 L204.719,132.402"/>
            <path d="M205.079,132.262 L204.872,132.267"/>
            <path d="M205.266,132.421 L205.079,132.262"/>
            <path d="M205.267,132.691 L205.266,132.421"/>
            <path d="M205.082,132.849 L205.267,132.691"/>
            <path d="M204.904,132.847 L205.082,132.849"/>
            <path d="M211.954,141.007 L211.848,141.095"/>
            <path d="M212.407,141.417 L212.182,141.338"/>
            <path d="M213.734,141.504 L212.407,141.417"/>
            <path d="M215.536,141.543 L213.734,141.504"/>
            <path d="M217.819,141.472 L215.536,141.543"/>
            <path d="M218.84,141.374 L217.819,141.472"/>
            <path d="M218.989,141.594 L218.885,141.427"/>
            <path d="M204.652,141.373 L204.585,141.242"/>
            <path d="M209.019,153.58 L209.019,151.704"/>
            <path d="M209.058,153.773 L209.019,153.58"/>
            <path d="M209.167,153.936 L209.058,153.773"/>
            <path d="M209.33,154.046 L209.167,153.936"/>
            <path d="M221.434,154.083 L209.33,154.046"/>
            <path d="M221.627,154.045 L221.434,154.083"/>
            <path d="M221.791,153.936 L221.627,154.045"/>
            <path d="M221.901,153.772 L221.791,153.936"/>
            <path d="M221.939,153.579 L221.901,153.772"/>
            <path d="M221.939,142.584 L221.939,153.579"/>
            <path d="M221.539,142.584 L221.939,142.584"/>
            <path d="M221.476,142.422 L221.539,142.584"/>
            <path d="M221.288,142.238 L221.476,142.422"/>
            <path d="M221.033,142.171 L221.288,142.238"/>
            <path d="M220.779,142.238 L221.033,142.171"/>
            <path d="M220.59,142.422 L220.779,142.238"/>
            <path d="M220.539,142.584 L220.59,142.422"/>
            <path d="M211.906,137.084 L211.936,134.786"/>
            <path d="M211.906,138.616 L211.906,137.084"/>
            <path d="M211.923,140.148 L211.906,138.616"/>
            <path d="M211.954,141.007 L211.923,140.148"/>
            <path d="M212.022,141.179 L211.954,141.007"/>
            <path d="M212.182,141.338 L212.022,141.179"/>
            <path d="M212.027,141.404 L212.182,141.338"/>
            <path d="M211.954,141.566 L212.027,141.404"/>
            <path d="M211.734,141.683 L211.954,141.566"/>
            <path d="M211.517,141.62 L211.734,141.683"/>
            <path d="M211.407,141.33 L211.517,141.62"/>
            <path d="M211.597,141.087 L211.407,141.33"/>
            <path d="M211.78,141.073 L211.597,141.087"/>
            <path d="M211.848,141.095 L211.78,141.073"/>
            <path d="M211.712,141.178 L211.848,141.095"/>
            <path d="M212.181,133.091 L211.906,133.625"/>
            <path d="M212.121,133.132 L212.181,133.091"/>
            <path d="M211.915,132.82 L212.121,133.132"/>
            <path d="M211.906,133.625 L211.551,132.914"/>
            <path d="M211.759,134.511 L211.906,133.625"/>
            <path d="M211.819,134.728 L211.759,134.511"/>
            <path d="M211.936,134.786 L211.819,134.728"/>
            <path d="M212.836,134.822 L211.936,134.786"/>
            <path d="M214.984,134.873 L212.836,134.822"/>
            <path d="M216.436,134.869 L214.984,134.873"/>
            <path d="M217.872,134.836 L216.436,134.869"/>
            <path d="M219.136,134.786 L217.872,134.836"/>
            <path d="M211.915,132.82 L211.793,132.643"/>
            <path d="M211.904,132.639 L211.915,132.82"/>
            <path d="M211.805,132.417 L211.904,132.639"/>
            <path d="M211.549,132.338 L211.805,132.417"/>
            <path d="M211.32,132.503 L211.549,132.338"/>
            <path d="M211.34,132.816 L211.32,132.503"/>
            <path d="M211.551,132.914 L211.34,132.816"/>
            <path d="M211.5,132.816 L211.551,132.914"/>
            <path d="M219.185,141.242 L219.111,141.095"/>
            <path d="M219.372,141.324 L219.185,141.242"/>
            <path d="M219.471,141.575 L219.372,141.324"/>
            <path d="M219.336,141.809 L219.471,141.575"/>
            <path d="M218.985,141.809 L219.336,141.809"/>
            <path d="M218.85,141.575 L218.985,141.809"/>
            <path d="M218.885,141.427 L218.85,141.575"/>
            <path d="M218.84,141.374 L218.885,141.427"/>
            <path d="M219.111,141.095 L218.84,141.374"/>
            <path d="M219.191,139.979 L219.111,141.095"/>
            <path d="M219.255,137.85 L219.191,139.979"/>
            <path d="M219.181,135.552 L219.255,137.85"/>
            <path d="M219.136,134.786 L219.181,135.552"/>
            <path d="M219.238,134.676 L219.136,134.786"/>
            <path d="M219.286,134.29 L219.238,134.676"/>
            <path d="M219.308,133.453 L219.286,134.29"/>
            <path d="M219.185,133.141 L219.308,133.453"/>
            <path d="M219.028,132.906 L219.185,133.141"/>
            <path d="M218.847,132.832 L219.028,132.906"/>
            <path d="M219.278,132.569 L218.847,132.832"/>
            <path d="M219.319,132.402 L219.278,132.569"/>
            <path d="M219.472,132.267 L219.319,132.402"/>
            <path d="M219.679,132.262 L219.472,132.267"/>
            <path d="M219.866,132.421 L219.679,132.262"/>
            <path d="M219.867,132.691 L219.866,132.421"/>
            <path d="M219.682,132.849 L219.867,132.691"/>
            <path d="M219.504,132.847 L219.682,132.849"/>
            <path d="M219.185,133.141 L219.504,132.847"/>
            <path d="M197.427,141.404 L197.582,141.338"/>
            <path d="M197.427,141.404 L197.199,141.514"/>
            <path d="M197.354,141.566 L197.427,141.404"/>
            <path d="M197.134,141.683 L197.354,141.566"/>
            <path d="M196.917,141.62 L197.134,141.683"/>
            <path d="M196.807,141.33 L196.917,141.62"/>
            <path d="M196.997,141.087 L196.807,141.33"/>
            <path d="M197.18,141.073 L196.997,141.087"/>
            <path d="M197.248,141.095 L197.18,141.073"/>
            <path d="M197.354,141.007 L197.248,141.095"/>
            <path d="M204.591,139.979 L204.511,141.095"/>
            <path d="M204.655,137.85 L204.591,139.979"/>
            <path d="M204.581,135.552 L204.655,137.85"/>
            <path d="M204.536,134.786 L204.581,135.552"/>
            <path d="M203.272,134.836 L204.536,134.786"/>
            <path d="M201.836,134.869 L203.272,134.836"/>
            <path d="M200.384,134.873 L201.836,134.869"/>
            <path d="M198.236,134.822 L200.384,134.873"/>
            <path d="M197.336,134.786 L198.236,134.822"/>
            <path d="M204.904,132.847 L205.015,132.752"/>
            <path d="M204.585,133.141 L204.904,132.847"/>
            <path d="M204.428,132.906 L204.585,133.141"/>
            <path d="M204.247,132.832 L204.428,132.906"/>
            <path d="M204.25,141.575 L204.285,141.427"/>
            <path d="M204.385,141.809 L204.25,141.575"/>
            <path d="M204.736,141.809 L204.385,141.809"/>
            <path d="M204.871,141.575 L204.736,141.809"/>
            <path d="M204.772,141.324 L204.871,141.575"/>
            <path d="M204.585,141.242 L204.772,141.324"/>
            <path d="M204.511,141.095 L204.585,141.242"/>
            <path d="M204.24,141.374 L204.511,141.095"/>
            <path d="M205.99,142.422 L205.939,142.584"/>
            <path d="M206.179,142.238 L205.99,142.422"/>
            <path d="M206.433,142.171 L206.179,142.238"/>
            <path d="M206.688,142.238 L206.433,142.171"/>
            <path d="M206.876,142.422 L206.688,142.238"/>
            <path d="M206.939,142.584 L206.876,142.422"/>
            <path d="M207.339,142.584 L206.939,142.584"/>
            <path d="M207.339,153.579 L207.339,142.584"/>
            <path d="M207.301,153.772 L207.339,153.579"/>
            <path d="M207.191,153.936 L207.301,153.772"/>
            <path d="M207.027,154.045 L207.191,153.936"/>
            <path d="M206.834,154.083 L207.027,154.045"/>
            <path d="M194.73,154.046 L206.834,154.083"/>
            <path d="M194.567,153.936 L194.73,154.046"/>
            <path d="M194.458,153.773 L194.567,153.936"/>
            <path d="M194.419,153.58 L194.458,153.773"/>
            <path d="M194.419,151.704 L194.419,153.58"/>
            <path d="M197.521,133.132 L197.315,132.82"/>
            <path d="M197.581,133.091 L197.521,133.132"/>
            <path d="M197.962,132.979 L197.581,133.091"/>
            <path d="M199.494,133.082 L197.962,132.979"/>
            <path d="M201.031,133.088 L199.494,133.082"/>
            <path d="M202.842,132.995 L201.031,133.088"/>
            <path d="M204.089,132.805 L202.842,132.995"/>
            <path d="M204.247,132.832 L204.089,132.805"/>
            <path d="M204.678,132.569 L204.247,132.832"/>
            <path d="M204.838,132.461 L204.678,132.569"/>
            <path d="M211.819,153.404 L211.819,152.404"/>
            <path d="M210.819,153.404 L211.819,153.404"/>
            <path d="M210.819,152.404 L210.819,153.404"/>
            <path d="M220.139,152.404 L210.819,152.404"/>
            <path d="M220.139,153.404 L220.139,152.404"/>
            <path d="M210.819,153.404 L220.139,153.404"/>
            <path d="M209.019,151.704 L221.939,151.704"/>
            <path d="M209.019,142.584 L209.019,151.704"/>
            <path d="M209.419,142.584 L209.019,142.584"/>
            <path d="M209.47,142.422 L209.419,142.584"/>
            <path d="M209.659,142.238 L209.47,142.422"/>
            <path d="M209.913,142.171 L209.659,142.238"/>
            <path d="M210.168,142.238 L209.913,142.171"/>
            <path d="M210.356,142.422 L210.168,142.238"/>
            <path d="M210.419,142.584 L210.356,142.422"/>
            <path d="M197.219,153.404 L197.219,152.404"/>
            <path d="M196.219,153.404 L197.219,153.404"/>
            <path d="M196.219,152.404 L196.219,153.404"/>
            <path d="M205.539,152.404 L196.219,152.404"/>
            <path d="M205.539,153.404 L205.539,152.404"/>
            <path d="M196.219,153.404 L205.539,153.404"/>
            <path d="M196.9,132.816 L196.951,132.914"/>
            <path d="M197.315,132.82 L197.193,132.643"/>
            <path d="M197.304,132.639 L197.315,132.82"/>
            <path d="M197.205,132.417 L197.304,132.639"/>
            <path d="M196.949,132.338 L197.205,132.417"/>
            <path d="M196.72,132.503 L196.949,132.338"/>
            <path d="M196.74,132.816 L196.72,132.503"/>
            <path d="M196.951,132.914 L196.74,132.816"/>
            <path d="M197.306,133.625 L196.951,132.914"/>
            <path d="M197.159,134.511 L197.306,133.625"/>
            <path d="M197.219,134.728 L197.159,134.511"/>
            <path d="M197.336,134.786 L197.219,134.728"/>
            <path d="M197.306,137.084 L197.336,134.786"/>
            <path d="M197.306,138.616 L197.306,137.084"/>
            <path d="M197.323,140.148 L197.306,138.616"/>
            <path d="M197.354,141.007 L197.323,140.148"/>
            <path d="M197.422,141.179 L197.354,141.007"/>
            <path d="M197.582,141.338 L197.422,141.179"/>
            <path d="M197.807,141.417 L197.582,141.338"/>
            <path d="M199.134,141.504 L197.807,141.417"/>
            <path d="M200.936,141.543 L199.134,141.504"/>
            <path d="M203.219,141.472 L200.936,141.543"/>
            <path d="M204.24,141.374 L203.219,141.472"/>
            <path d="M204.285,141.427 L204.24,141.374"/>
            <path d="M204.389,141.594 L204.285,141.427"/>
            <path d="M195.756,142.422 L195.819,142.584"/>
            <path d="M195.568,142.238 L195.756,142.422"/>
            <path d="M195.313,142.171 L195.568,142.238"/>
            <path d="M195.059,142.238 L195.313,142.171"/>
            <path d="M194.87,142.422 L195.059,142.238"/>
            <path d="M194.819,142.584 L194.87,142.422"/>
            <path d="M194.419,142.584 L194.819,142.584"/>
            <path d="M194.419,151.704 L194.419,142.584"/>
            <path d="M207.339,151.704 L194.419,151.704"/>
        </g>
        <g id="product-c642d2ac-5481-410e-88dd-a7edddea765d" class="IfcFurniture material-null projection" ifc:name="Furniture" ifc:guid="36GjAiL8513eZTf_tTwdPT">
            <path d="M212.643,196.77 L212.951,196.976"/>
            <path d="M212.279,196.698 L212.643,196.77"/>
            <path d="M206.959,196.698 L212.279,196.698"/>
            <path d="M206.596,196.77 L206.959,196.698"/>
            <path d="M206.287,196.976 L206.596,196.77"/>
            <path d="M206.082,197.284 L206.287,196.976"/>
            <path d="M206.009,197.648 L206.082,197.284"/>
            <path d="M206.009,201.828 L206.009,197.648"/>
            <path d="M206.082,202.191 L206.009,201.828"/>
            <path d="M206.287,202.499 L206.082,202.191"/>
            <path d="M206.596,202.705 L206.287,202.499"/>
            <path d="M206.959,202.778 L206.596,202.705"/>
            <path d="M212.279,202.778 L206.959,202.778"/>
            <path d="M212.643,202.705 L212.279,202.778"/>
            <path d="M212.951,202.499 L212.643,202.705"/>
            <path d="M213.157,202.191 L212.951,202.499"/>
            <path d="M213.229,201.828 L213.157,202.191"/>
            <path d="M213.229,197.648 L213.229,201.828"/>
            <path d="M213.157,197.284 L213.229,197.648"/>
            <path d="M212.951,196.976 L213.157,197.284"/>
            <path d="M212.802,196.614 L213.126,196.831"/>
            <path d="M212.419,196.538 L212.802,196.614"/>
            <path d="M206.819,196.538 L212.419,196.538"/>
            <path d="M206.437,196.614 L206.819,196.538"/>
            <path d="M206.112,196.831 L206.437,196.614"/>
            <path d="M205.895,197.155 L206.112,196.831"/>
            <path d="M205.819,197.538 L205.895,197.155"/>
            <path d="M205.819,201.938 L205.819,197.538"/>
            <path d="M205.895,202.32 L205.819,201.938"/>
            <path d="M206.112,202.645 L205.895,202.32"/>
            <path d="M206.437,202.862 L206.112,202.645"/>
            <path d="M206.819,202.938 L206.437,202.862"/>
            <path d="M212.419,202.938 L206.819,202.938"/>
            <path d="M212.802,202.862 L212.419,202.938"/>
            <path d="M213.126,202.645 L212.802,202.862"/>
            <path d="M213.343,202.32 L213.126,202.645"/>
            <path d="M213.419,201.938 L213.343,202.32"/>
            <path d="M213.419,197.538 L213.419,201.938"/>
            <path d="M213.343,197.155 L213.419,197.538"/>
            <path d="M213.126,196.831 L213.343,197.155"/>
            <path d="M199.419,194.598 L203.459,194.598"/>
            <path d="M209.211,204.738 L209.285,204.688"/>
            <path d="M209.1,204.878 L209.211,204.738"/>
            <path d="M209.034,205.044 L209.1,204.878"/>
            <path d="M209.021,205.223 L209.034,205.044"/>
            <path d="M209.061,205.397 L209.021,205.223"/>
            <path d="M209.15,205.552 L209.061,205.397"/>
            <path d="M209.281,205.673 L209.15,205.552"/>
            <path d="M209.442,205.751 L209.281,205.673"/>
            <path d="M209.619,205.778 L209.442,205.751"/>
            <path d="M209.796,205.751 L209.619,205.778"/>
            <path d="M209.957,205.673 L209.796,205.751"/>
            <path d="M210.088,205.552 L209.957,205.673"/>
            <path d="M210.178,205.397 L210.088,205.552"/>
            <path d="M210.218,205.223 L210.178,205.397"/>
            <path d="M210.204,205.044 L210.218,205.223"/>
            <path d="M210.139,204.878 L210.204,205.044"/>
            <path d="M210.027,204.738 L210.139,204.878"/>
            <path d="M209.953,204.688 L210.027,204.738"/>
            <path d="M205.819,194.398 L205.819,194.598"/>
            <path d="M209.859,194.398 L205.819,194.398"/>
            <path d="M209.859,194.598 L209.859,194.398"/>
            <path d="M205.819,194.598 L209.859,194.598"/>
            <path d="M203.459,194.598 L205.819,194.598"/>
            <path d="M203.459,194.398 L203.459,194.598"/>
            <path d="M199.419,194.398 L203.459,194.398"/>
            <path d="M199.419,194.598 L199.419,194.398"/>
            <path d="M194.419,194.598 L199.419,194.598"/>
            <path d="M194.419,206.598 L194.419,194.598"/>
            <path d="M214.419,206.598 L194.419,206.598"/>
            <path d="M214.419,194.598 L214.419,206.598"/>
            <path d="M209.859,194.598 L214.419,194.598"/>
            <path d="M209.444,202.411 L209.444,204.611"/>
            <path d="M209.794,202.411 L209.444,202.411"/>
            <path d="M209.794,204.611 L209.794,202.411"/>
            <path d="M209.709,204.584 L209.794,204.611"/>
            <path d="M209.53,204.584 L209.709,204.584"/>
            <path d="M209.444,204.611 L209.53,204.584"/>
            <path d="M209.359,204.637 L209.444,204.611"/>
            <path d="M209.285,204.688 L209.359,204.637"/>
            <path d="M209.285,200.488 L209.285,204.688"/>
            <path d="M209.3,200.411 L209.285,200.488"/>
            <path d="M209.344,200.346 L209.3,200.411"/>
            <path d="M209.408,200.303 L209.344,200.346"/>
            <path d="M209.485,200.288 L209.408,200.303"/>
            <path d="M209.753,200.288 L209.485,200.288"/>
            <path d="M209.83,200.303 L209.753,200.288"/>
            <path d="M209.895,200.346 L209.83,200.303"/>
            <path d="M209.938,200.411 L209.895,200.346"/>
            <path d="M209.953,200.488 L209.938,200.411"/>
            <path d="M209.953,204.688 L209.953,200.488"/>
            <path d="M209.88,204.637 L209.953,204.688"/>
            <path d="M209.794,204.611 L209.88,204.637"/>
        </g>
        <g id="product-f08ab365-3e84-4702-867d-fd3904380402" class="IfcFurniture material-null projection" ifc:name="Furniture" ifc:guid="3mYhDbFeH70ePz$Ja4E0G2">
            <path d="M217.19,168.11 L217.419,168.156"/>
            <path d="M216.995,167.98 L217.19,168.11"/>
            <path d="M216.865,167.785 L216.995,167.98"/>
            <path d="M216.819,167.556 L216.865,167.785"/>
            <path d="M216.819,163.956 L216.819,167.556"/>
            <path d="M216.865,163.726 L216.819,163.956"/>
            <path d="M216.995,163.531 L216.865,163.726"/>
            <path d="M217.19,163.401 L216.995,163.531"/>
            <path d="M217.419,163.356 L217.19,163.401"/>
            <path d="M217.819,163.356 L217.419,163.356"/>
            <path d="M218.049,163.401 L217.819,163.356"/>
            <path d="M218.243,163.531 L218.049,163.401"/>
            <path d="M218.373,163.726 L218.243,163.531"/>
            <path d="M218.419,163.956 L218.373,163.726"/>
            <path d="M218.419,167.556 L218.419,163.956"/>
            <path d="M218.373,167.785 L218.419,167.556"/>
            <path d="M218.243,167.98 L218.373,167.785"/>
            <path d="M218.049,168.11 L218.243,167.98"/>
            <path d="M217.819,168.156 L218.049,168.11"/>
            <path d="M217.419,168.156 L217.819,168.156"/>
            <path d="M206.29,168.11 L206.519,168.156"/>
            <path d="M206.095,167.98 L206.29,168.11"/>
            <path d="M205.965,167.785 L206.095,167.98"/>
            <path d="M205.919,167.556 L205.965,167.785"/>
            <path d="M205.919,163.956 L205.919,167.556"/>
            <path d="M205.965,163.726 L205.919,163.956"/>
            <path d="M206.095,163.531 L205.965,163.726"/>
            <path d="M206.29,163.401 L206.095,163.531"/>
            <path d="M206.519,163.356 L206.29,163.401"/>
            <path d="M206.919,163.356 L206.519,163.356"/>
            <path d="M207.149,163.401 L206.919,163.356"/>
            <path d="M207.343,163.531 L207.149,163.401"/>
            <path d="M207.473,163.726 L207.343,163.531"/>
            <path d="M207.519,163.956 L207.473,163.726"/>
            <path d="M207.519,167.556 L207.519,163.956"/>
            <path d="M207.473,167.785 L207.519,167.556"/>
            <path d="M207.343,167.98 L207.473,167.785"/>
            <path d="M207.149,168.11 L207.343,167.98"/>
            <path d="M206.919,168.156 L207.149,168.11"/>
            <path d="M206.519,168.156 L206.919,168.156"/>
            <path d="M207.193,159.985 L207.099,160.008"/>
            <path d="M217.183,159.985 L207.193,159.985"/>
            <path d="M217.271,160.006 L217.183,159.985"/>
            <path d="M217.341,160.063 L217.271,160.006"/>
            <path d="M217.379,160.145 L217.341,160.063"/>
            <path d="M217.376,160.235 L217.379,160.145"/>
            <path d="M217.248,161.657 L217.376,160.235"/>
            <path d="M217.168,161.94 L217.248,161.657"/>
            <path d="M216.991,162.176 L217.168,161.94"/>
            <path d="M216.741,162.331 L216.991,162.176"/>
            <path d="M216.451,162.385 L216.741,162.331"/>
            <path d="M207.926,162.385 L216.451,162.385"/>
            <path d="M207.636,162.331 L207.926,162.385"/>
            <path d="M207.386,162.175 L207.636,162.331"/>
            <path d="M207.209,161.939 L207.386,162.175"/>
            <path d="M207.129,161.655 L207.209,161.939"/>
            <path d="M207.007,160.26 L207.129,161.655"/>
            <path d="M206.994,160.164 L207.007,160.26"/>
            <path d="M207.027,160.073 L206.994,160.164"/>
            <path d="M207.099,160.008 L207.027,160.073"/>
            <path d="M194.419,186.356 L194.419,171.156"/>
            <path d="M231.019,186.356 L194.419,186.356"/>
            <path d="M231.019,171.156 L231.019,186.356"/>
            <path d="M194.419,171.156 L231.019,171.156"/>
            <path d="M217.619,160.256 L217.619,163.356"/>
            <path d="M217.589,160.103 L217.619,160.256"/>
            <path d="M217.502,159.973 L217.589,160.103"/>
            <path d="M217.372,159.886 L217.502,159.973"/>
            <path d="M217.219,159.856 L217.372,159.886"/>
            <path d="M207.119,159.856 L217.219,159.856"/>
            <path d="M206.966,159.886 L207.119,159.856"/>
            <path d="M206.836,159.973 L206.966,159.886"/>
            <path d="M206.75,160.103 L206.836,159.973"/>
            <path d="M206.719,160.256 L206.75,160.103"/>
            <path d="M206.719,163.356 L206.719,160.256"/>
            <path d="M206.719,170.556 L206.719,168.156"/>
            <path d="M217.619,170.556 L206.719,170.556"/>
            <path d="M217.619,168.156 L217.619,170.556"/>
        </g>
        <g id="product-ac0c1724-c139-4db3-b8ca-d177459aa819" class="IfcBeam material-loofhout projection" ifc:name="Beam" ifc:guid="2i31SamJbDixZAqNT5cgWP">
            <path d="M264.419,269.851 L264.419,276.443"/>
            <path d="M244.419,269.851 L244.419,276.443"/>
            <path d="M244.419,276.443 L264.419,276.443"/>
            <path d="M244.419,269.851 L264.419,269.851"/>
        </g>
        <g id="product-7ee249e7-1554-4e67-85c6-cea010ca495d" class="IfcFurniture material-null projection" ifc:name="Furniture" ifc:guid="1_uadd5LHEPuN6pg0GoabT">
            <path d="M194.419,215.898 L197.419,215.898"/>
            <path d="M194.419,215.598 L194.419,215.898"/>
            <path d="M232.479,215.598 L194.419,215.598"/>
            <path d="M232.479,215.898 L232.479,215.598"/>
            <path d="M229.479,215.898 L232.479,215.898"/>
            <path d="M197.419,215.898 L229.479,215.898"/>
            <path d="M205.153,217.898 L197.419,215.898"/>
            <path d="M221.745,217.898 L205.153,217.898"/>
            <path d="M229.479,215.898 L221.745,217.898"/>
        </g>
        <g id="product-75d12fd0-fd12-4e56-934e-529a9bffd09d" class="IfcColumn material-naaldhoutvurenCLT projection" ifc:name="Column" ifc:guid="1rqI$G$H9ELfDEKfgR$z2T">
            <path d="M144.419,288.861 L148.419,288.861"/>
            <path d="M148.419,288.861 L148.419,284.861"/>
            <path d="M148.419,284.861 L144.419,284.861"/>
            <path d="M144.419,284.861 L144.419,288.861"/>
        </g>
        <g id="product-e1b9fada-c888-4666-95f4-e6c578bf9923" class="IfcSlab material-enkelewandvloerafwerking projection" ifc:name="Slab" ifc:guid="3XkVhQo8X6PfNqviLulvaZ">
            <path d="M94.4,345.883 L94.4,341.883"/>
            <path d="M114.4,345.883 L94.4,345.883"/>
            <path d="M114.4,341.883 L114.4,345.883"/>
            <path d="M94.4,341.883 L114.4,341.883"/>
        </g>
        <g id="product-bdcf6669-a31e-4c24-b09c-ed91a7f32297" class="IfcBeam material-gewapendbetonprefab projection" ifc:name="Beam" ifc:guid="2zpsPfenvC9B2SxP6dyoAN">
            <path d="M164.419,260.62 L164.419,268.62"/>
            <path d="M144.419,260.62 L144.419,268.62"/>
            <path d="M144.419,268.62 L164.419,268.62"/>
            <path d="M144.419,260.62 L164.419,260.62"/>
        </g>
        <g id="product-961ada73-949d-4b1c-9185-cd81b85f584f" class="IfcSlab material-isolatieEPS projection" ifc:name="Slab" ifc:guid="2M6jfpb9rB7965pO6uNrXF">
            <path d="M94.4192,319.883 L94.4192,323.883"/>
            <path d="M114.419,319.883 L94.4192,319.883"/>
            <path d="M114.419,323.883 L114.419,319.883"/>
            <path d="M94.4192,323.883 L114.419,323.883"/>
        </g>
        <g id="product-29710b09-4a78-4909-9592-9622fd25e689" class="IfcSlab material-gewapendbetonprefab projection" ifc:name="Slab" ifc:guid="0fSGi9IdX92PMIbYBz9UQ9">
            <path d="M94.4192,301.883 L94.4192,297.883"/>
            <path d="M114.419,301.883 L94.4192,301.883"/>
            <path d="M114.419,297.883 L114.419,301.883"/>
            <path d="M94.4192,297.883 L114.419,297.883"/>
        </g>
        <g id="product-76bb8afe-41fc-4f5d-b69a-9626babb4b23" class="IfcSlab material-isolatiePUR projection" ifc:name="Slab" ifc:guid="1skuh_GVnFNRQQbYQwkqiZ">
            <path d="M94.4192,334.883 L94.4192,330.883"/>
            <path d="M114.419,334.883 L94.4192,334.883"/>
            <path d="M114.419,330.883 L114.419,334.883"/>
            <path d="M94.4192,330.883 L114.419,330.883"/>
        </g>
        <g id="product-322dac67-2f56-4f01-8008-e182b39d0b02" class="IfcSlab material-NEN476gewapendbetonprefab projection" ifc:name="Slab" ifc:guid="0oBQndBrPF0O08uOApdGi2">
            <path d="M94.4192,279.883 L94.4192,275.883"/>
            <path d="M114.419,279.883 L94.4192,279.883"/>
            <path d="M114.419,275.883 L114.419,279.883"/>
            <path d="M94.4192,275.883 L114.419,275.883"/>
        </g>
        <g id="product-af69c895-e628-4195-81e4-1ee733e86244" class="IfcSlab material-isolatie projection" ifc:name="Slab" ifc:guid="2lQSYLvYX1bO7a7kSpw694">
            <path d="M94.4192,308.883 L94.4192,312.883"/>
            <path d="M114.419,308.883 L94.4192,308.883"/>
            <path d="M114.419,312.883 L114.419,308.883"/>
            <path d="M94.4192,312.883 L114.419,312.883"/>
        </g>
        <g id="product-dc82dd1c-6136-455e-b6e3-6eed39e414b9" class="IfcSlab material-ongewapendbeton projection" ifc:name="Slab" ifc:guid="3SWjqSOJP5NhRZRkqvv1Iv">
            <path d="M94.4192,290.883 L94.4192,286.883"/>
            <path d="M114.419,290.883 L94.4192,290.883"/>
            <path d="M114.419,286.883 L114.419,290.883"/>
            <path d="M94.4192,286.883 L114.419,286.883"/>
        </g>
        <g id="product-985e514e-7ac7-4e39-8405-6467606174d8" class="IfcSlab material-naaldhoutvurenCLT projection" ifc:name="Slab" ifc:guid="2ONb5EUiTEEOG5P6TWONJO">
            <path d="M94.4192,264.883 L94.4192,268.883"/>
            <path d="M114.419,264.883 L94.4192,264.883"/>
            <path d="M114.419,268.883 L114.419,264.883"/>
            <path d="M94.4192,268.883 L114.419,268.883"/>
        </g>
        <g id="product-d8112f79-0248-44a8-9a89-28a0ca7a3ca6" class="IfcSlab material-naaldhoutvurenCLT projection" ifc:name="Slab" ifc:guid="3O4Izv0aX4g9g9AA3AUZoc">
            <path d="M94.4192,253.883 L94.4192,257.883"/>
            <path d="M114.419,253.883 L94.4192,253.883"/>
            <path d="M114.419,257.883 L114.419,253.883"/>
            <path d="M94.4192,257.883 L114.419,257.883"/>
        </g>
        <g id="product-64b012bb-ec22-4ba2-8ddb-1920a00125f2" class="IfcWall material-naaldhoutvurenCLT projection" ifc:name="Wall" ifc:guid="1ai1Axx29BeetR6I2W0INo">
            <path d="M64.4192,255.883 L44.4192,255.883"/>
            <path d="M64.4192,254.883 L64.4192,255.883"/>
            <path d="M44.4192,254.883 L64.4192,254.883"/>
            <path d="M44.4192,255.883 L44.4192,254.883"/>
        </g>
        <g id="product-32c512a7-2d55-4ebb-b5e9-79f6ed7424af" class="IfcWall material-metselwerkbaksteenrood projection" ifc:name="Wall" ifc:guid="0onHAdBLLEkxNfUVRjT2Il">
            <path d="M64.4192,300.883 L44.4192,300.883"/>
            <path d="M64.4192,298.883 L64.4192,300.883"/>
            <path d="M44.4192,298.883 L64.4192,298.883"/>
            <path d="M44.4192,300.883 L44.4192,298.883"/>
        </g>
        <g id="product-be2a8dad-8543-4c10-bd69-8a9dae5619a7" class="IfcWall material-isolatie projection" ifc:name="Wall" ifc:guid="2_AesjXKDC4BrfYfskLXcd">
            <path d="M64.4192,291.883 L44.4192,291.883"/>
            <path d="M64.4192,289.883 L64.4192,291.883"/>
            <path d="M44.4192,289.883 L64.4192,289.883"/>
            <path d="M44.4192,291.883 L44.4192,289.883"/>
        </g>
        <g id="product-f301f840-6e1f-400b-8865-892050ce260a" class="IfcWall material-naaldhoutvurenCLT projection" ifc:name="Wall" ifc:guid="3p0VX0RXz02uXbYI1GpYOA">
            <path d="M64.4192,282.883 L44.4192,282.883"/>
            <path d="M64.4192,280.083 L64.4192,282.883"/>
            <path d="M44.4192,280.083 L64.4192,280.083"/>
            <path d="M44.4192,282.883 L44.4192,280.083"/>
        </g>
        <g id="product-58def3be-8727-43c7-acff-de8a2a21983e" class="IfcWall material-naaldhoutvurenCLT projection" ifc:name="Wall" ifc:guid="1OtlE_XoT3nwp$teeg8PW_">
            <path d="M64.4192,273.883 L44.4192,273.883"/>
            <path d="M64.4192,271.483 L64.4192,273.883"/>
            <path d="M44.4192,271.483 L64.4192,271.483"/>
            <path d="M44.4192,273.883 L44.4192,271.483"/>
        </g>
        <g id="product-63aaf256-590a-4984-9f77-0772b0de19bb" class="IfcWall material-naaldhoutvurenCLT projection" ifc:name="Wall" ifc:guid="1Zgl9MMGf9X9zt1tAmtXcx">
            <path d="M64.4192,264.883 L44.4192,264.883"/>
            <path d="M64.4192,263.083 L64.4192,264.883"/>
            <path d="M44.4192,263.083 L64.4192,263.083"/>
            <path d="M44.4192,264.883 L44.4192,263.083"/>
        </g>
        <g id="product-75d12fd0-fd12-4e56-934e-529a9bffd09d-body" class="IfcColumn material-naaldhoutvurenCLT cut" ifc:name="Column" ifc:guid="1rqI$G$H9ELfDEKfgR$z2T">
            <path d="M144.419,288.861 L148.419,288.861 L148.419,284.861 L144.419,284.861 L144.419,288.861"/>
        </g>
        <g id="product-3713120c-b4f3-42e4-b37d-3d487f60d8fd-body" class="IfcRailing material-null cut" ifc:name="Railing" ifc:guid="0t4n8CjFD2vBDzFKX$ODZz">
            <path d="M236.475,293.376 L236.47,293.376 L236.467,293.376 L236.464,293.376 L236.461,293.377 L236.458,293.377 L236.455,293.377 L236.451,293.377 L236.448,293.377 L236.445,293.378 L236.442,293.378 L236.439,293.378 L236.436,293.379 L236.433,293.379 L236.43,293.379 L236.426,293.38 L236.423,293.38 L236.42,293.381 L236.417,293.381 L236.414,293.382 L236.411,293.383 L236.408,293.383 L236.405,293.384 L236.401,293.385 L236.398,293.385 L236.395,293.386 L236.392,293.387 L236.389,293.388 L236.386,293.389 L236.383,293.389 L236.38,293.39 L236.377,293.391 L236.374,293.392 L236.371,293.393 L236.367,293.394 L236.364,293.395 L236.361,293.396 L236.358,293.397 L236.355,293.399 L236.352,293.4 L236.349,293.401 L236.346,293.402 L236.343,293.403 L236.34,293.405 L236.337,293.406 L236.334,293.407 L236.331,293.409 L236.328,293.41 L236.325,293.412 L236.322,293.413 L236.319,293.414 L236.316,293.416 L236.313,293.418 L236.31,293.419 L236.307,293.421 L236.304,293.422 L236.301,293.424 L236.298,293.426 L236.295,293.427 L236.292,293.429 L236.29,293.431 L236.287,293.433 L236.284,293.435 L236.281,293.436 L236.278,293.438 L236.275,293.44 L236.272,293.442 L236.269,293.444 L236.266,293.446 L236.264,293.448 L236.261,293.45 L236.258,293.452 L236.255,293.454 L236.252,293.456 L236.249,293.459 L236.247,293.461 L236.244,293.463 L236.241,293.465 L236.238,293.467 L236.236,293.47 L236.233,293.472 L236.23,293.474 L236.227,293.477 L236.225,293.479 L236.222,293.482 L236.219,293.484 L236.217,293.486 L236.214,293.489 L236.211,293.491 L236.209,293.494 L236.206,293.497 L236.203,293.499 L236.201,293.502 L236.198,293.504 L236.195,293.507 L236.193,293.51 L236.19,293.513 L236.188,293.515 L236.185,293.518 L236.182,293.521 L236.18,293.524 L236.177,293.527 L236.175,293.529 L236.172,293.532 L236.17,293.535 L236.167,293.538 L236.165,293.541 L236.162,293.544 L236.16,293.547 L236.158,293.55 L236.155,293.553 L236.153,293.556 L236.15,293.559 L236.148,293.563 L236.146,293.566 L236.143,293.569 L236.141,293.572 L236.139,293.575 L236.136,293.579 L236.134,293.582 L236.132,293.585 L236.129,293.588 L236.127,293.592 L236.125,293.595 L236.123,293.598 L236.12,293.602 L236.118,293.605 L236.116,293.609 L236.114,293.612 L236.112,293.616 L236.11,293.619 L236.107,293.623 L236.105,293.626 L236.103,293.63 L236.101,293.633 L236.099,293.637 L236.097,293.64 L236.095,293.644 L236.093,293.648 L236.091,293.651 L236.089,293.655 L236.087,293.659 L236.085,293.663 L236.083,293.666 L236.081,293.67 L236.079,293.674 L236.077,293.678 L236.075,293.682 L236.073,293.685 L236.072,293.689 L236.07,293.693 L236.068,293.697 L236.066,293.701 L236.064,293.705 L236.063,293.709 L236.061,293.713 L236.059,293.717 L236.057,293.721 L236.056,293.725 L236.054,293.729 L236.052,293.733 L236.051,293.737 L236.049,293.741 L236.047,293.745 L236.046,293.749 L236.044,293.753 L236.042,293.758 L236.041,293.762 L236.039,293.766 L236.038,293.77 L236.036,293.774 L236.035,293.778 L236.033,293.783 L236.032,293.787 L236.03,293.791 L236.029,293.795 L236.028,293.8 L236.026,293.804 L236.025,293.808 L236.024,293.813 L236.022,293.817 L236.021,293.821 L236.02,293.826 L236.018,293.83 L236.017,293.835 L236.016,293.839 L236.015,293.843 L236.013,293.848 L236.012,293.852 L236.011,293.857 L236.01,293.861 L236.009,293.866 L236.008,293.87 L236.006,293.875 L236.005,293.879 L236.004,293.884 L236.003,293.888 L236.002,293.893 L236.001,293.897 L236,293.902 L235.999,293.906 L235.998,293.911 L235.997,293.915 L235.997,293.92 L235.996,293.925 L235.995,293.929 L235.994,293.934 L235.993,293.938 L235.992,293.943 L235.991,293.948 L235.991,293.952 L235.99,293.957 L235.989,293.962 L235.988,293.966 L235.988,293.971 L235.987,293.976 L235.986,293.985 L235.985,293.994 L235.983,294.004 L235.982,294.013 L235.981,294.023 L235.98,294.032 L235.98,294.042 L235.979,294.051 L235.978,294.061 L235.977,294.07 L235.977,294.08 L235.977,294.089 L235.976,294.099 L235.976,294.109 L235.976,294.118 L235.976,294.128 L235.975,294.137 L235.975,294.147 L235.976,294.157 L235.976,294.166 L235.976,294.176 L235.976,294.185 L235.977,294.195 L235.977,294.204 L235.978,294.214 L235.979,294.223 L235.979,294.233 L235.98,294.242 L235.981,294.252 L235.982,294.261 L235.983,294.271 L235.984,294.28 L235.985,294.29 L235.987,294.299 L235.988,294.308 L235.989,294.313 L235.989,294.318 L235.99,294.322 L235.991,294.327 L235.992,294.332 L235.992,294.336 L235.993,294.341 L235.994,294.346 L235.995,294.35 L235.996,294.355 L235.997,294.359 L235.998,294.364 L235.999,294.369 L236,294.373 L236.001,294.378 L236.002,294.382 L236.003,294.387 L236.004,294.391 L236.005,294.396 L236.006,294.4 L236.007,294.405 L236.008,294.409 L236.009,294.414 L236.01,294.418 L236.011,294.423 L236.012,294.427 L236.014,294.432 L236.015,294.436 L236.016,294.44 L236.017,294.445 L236.019,294.449 L236.02,294.454 L236.021,294.458 L236.023,294.462 L236.024,294.467 L236.025,294.471 L236.027,294.475 L236.028,294.48 L236.029,294.484 L236.031,294.488 L236.032,294.492 L236.034,294.497 L236.035,294.501 L236.037,294.505 L236.038,294.509 L236.04,294.513 L236.041,294.518 L236.043,294.522 L236.044,294.526 L236.046,294.53 L236.048,294.534 L236.049,294.538 L236.051,294.542 L236.053,294.546 L236.054,294.55 L236.056,294.554 L236.058,294.558 L236.06,294.562 L236.061,294.566 L236.063,294.57 L236.065,294.574 L236.067,294.578 L236.068,294.582 L236.07,294.586 L236.072,294.59 L236.074,294.594 L236.076,294.598 L236.078,294.601 L236.08,294.605 L236.082,294.609 L236.084,294.613 L236.085,294.617 L236.087,294.62 L236.089,294.624 L236.091,294.628 L236.093,294.631 L236.096,294.635 L236.098,294.639 L236.1,294.642 L236.102,294.646 L236.104,294.649 L236.106,294.653 L236.108,294.657 L236.11,294.66 L236.112,294.664 L236.114,294.667 L236.117,294.67 L236.119,294.674 L236.121,294.677 L236.123,294.681 L236.126,294.684 L236.128,294.687 L236.13,294.691 L236.132,294.694 L236.135,294.697 L236.137,294.701 L236.139,294.704 L236.142,294.707 L236.144,294.71 L236.146,294.713 L236.149,294.716 L236.151,294.72 L236.153,294.723 L236.156,294.726 L236.158,294.729 L236.161,294.732 L236.163,294.735 L236.166,294.738 L236.168,294.741 L236.171,294.744 L236.173,294.747 L236.176,294.75 L236.178,294.752 L236.181,294.755 L236.183,294.758 L236.186,294.761 L236.188,294.764 L236.191,294.766 L236.193,294.769 L236.196,294.772 L236.199,294.774 L236.201,294.777 L236.204,294.78 L236.207,294.782 L236.209,294.785 L236.212,294.787 L236.215,294.79 L236.217,294.792 L236.22,294.795 L236.223,294.797 L236.225,294.8 L236.228,294.802 L236.231,294.804 L236.234,294.807 L236.236,294.809 L236.239,294.811 L236.242,294.814 L236.245,294.816 L236.247,294.818 L236.25,294.82 L236.253,294.822 L236.256,294.824 L236.259,294.827 L236.262,294.829 L236.264,294.831 L236.267,294.833 L236.27,294.835 L236.273,294.837 L236.276,294.839 L236.279,294.84 L236.282,294.842 L236.284,294.844 L236.287,294.846 L236.29,294.848 L236.293,294.85 L236.296,294.851 L236.299,294.853 L236.302,294.855 L236.305,294.856 L236.308,294.858 L236.311,294.859 L236.314,294.861 L236.317,294.863 L236.32,294.864 L236.323,294.866 L236.326,294.867 L236.329,294.868 L236.332,294.87 L236.335,294.871 L236.338,294.873 L236.341,294.874 L236.344,294.875 L236.347,294.876 L236.35,294.878 L236.353,294.879 L236.356,294.88 L236.359,294.881 L236.362,294.882 L236.365,294.883 L236.368,294.884 L236.371,294.885 L236.374,294.886 L236.378,294.887 L236.381,294.888 L236.384,294.889 L236.387,294.89 L236.39,294.891 L236.393,294.892 L236.396,294.892 L236.399,294.893 L236.402,294.894 L236.405,294.894 L236.409,294.895 L236.412,294.896 L236.415,294.896 L236.418,294.897 L236.421,294.897 L236.424,294.898 L236.427,294.898 L236.43,294.899 L236.434,294.899 L236.437,294.9 L236.44,294.9 L236.443,294.9 L236.446,294.901 L236.449,294.901 L236.452,294.901 L236.455,294.901 L236.459,294.902 L236.462,294.902 L236.465,294.902 L236.468,294.902 L236.471,294.902 L236.474,294.902 L236.48,294.902 L236.483,294.902 L236.486,294.902 L236.489,294.902 L236.492,294.902 L236.495,294.901 L236.499,294.901 L236.502,294.901 L236.505,294.901 L236.508,294.9 L236.511,294.9 L236.514,294.9 L236.517,294.899 L236.521,294.899 L236.524,294.898 L236.527,294.898 L236.53,294.897 L236.533,294.897 L236.536,294.896 L236.539,294.896 L236.542,294.895 L236.545,294.894 L236.549,294.894 L236.552,294.893 L236.555,294.892 L236.558,294.892 L236.561,294.891 L236.564,294.89 L236.567,294.889 L236.57,294.888 L236.573,294.887 L236.576,294.886 L236.579,294.885 L236.583,294.884 L236.586,294.883 L236.589,294.882 L236.592,294.881 L236.595,294.88 L236.598,294.879 L236.601,294.878 L236.604,294.876 L236.607,294.875 L236.61,294.874 L236.613,294.873 L236.616,294.871 L236.619,294.87 L236.622,294.868 L236.625,294.867 L236.628,294.866 L236.631,294.864 L236.634,294.863 L236.637,294.861 L236.64,294.86 L236.643,294.858 L236.646,294.856 L236.649,294.855 L236.652,294.853 L236.655,294.851 L236.658,294.85 L236.661,294.848 L236.663,294.846 L236.666,294.844 L236.669,294.842 L236.672,294.84 L236.675,294.839 L236.678,294.837 L236.681,294.835 L236.684,294.833 L236.687,294.831 L236.689,294.829 L236.692,294.827 L236.695,294.824 L236.698,294.822 L236.701,294.82 L236.703,294.818 L236.706,294.816 L236.709,294.814 L236.712,294.811 L236.715,294.809 L236.717,294.807 L236.72,294.804 L236.723,294.802 L236.726,294.8 L236.728,294.797 L236.731,294.795 L236.734,294.792 L236.736,294.79 L236.739,294.787 L236.742,294.785 L236.744,294.782 L236.747,294.78 L236.75,294.777 L236.752,294.774 L236.755,294.772 L236.757,294.769 L236.76,294.766 L236.763,294.764 L236.765,294.761 L236.768,294.758 L236.77,294.755 L236.773,294.752 L236.775,294.75 L236.778,294.747 L236.78,294.744 L236.783,294.741 L236.785,294.738 L236.788,294.735 L236.79,294.732 L236.793,294.729 L236.795,294.726 L236.797,294.723 L236.8,294.72 L236.802,294.717 L236.805,294.713 L236.807,294.71 L236.809,294.707 L236.812,294.704 L236.814,294.701 L236.816,294.697 L236.819,294.694 L236.821,294.691 L236.823,294.687 L236.825,294.684 L236.828,294.681 L236.83,294.677 L236.832,294.674 L236.834,294.67 L236.836,294.667 L236.839,294.664 L236.841,294.66 L236.843,294.657 L236.845,294.653 L236.847,294.649 L236.849,294.646 L236.851,294.642 L236.853,294.639 L236.855,294.635 L236.857,294.631 L236.859,294.628 L236.861,294.624 L236.863,294.62 L236.865,294.617 L236.867,294.613 L236.869,294.609 L236.871,294.605 L236.873,294.602 L236.875,294.598 L236.877,294.594 L236.879,294.59 L236.881,294.586 L236.882,294.582 L236.884,294.578 L236.886,294.574 L236.888,294.57 L236.89,294.566 L236.891,294.562 L236.893,294.558 L236.895,294.554 L236.897,294.55 L236.898,294.546 L236.9,294.542 L236.902,294.538 L236.903,294.534 L236.905,294.53 L236.906,294.526 L236.908,294.522 L236.91,294.518 L236.911,294.513 L236.913,294.509 L236.914,294.505 L236.916,294.501 L236.917,294.497 L236.919,294.492 L236.92,294.488 L236.921,294.484 L236.923,294.48 L236.924,294.475 L236.926,294.471 L236.927,294.467 L236.928,294.462 L236.93,294.458 L236.931,294.454 L236.932,294.449 L236.934,294.445 L236.935,294.44 L236.936,294.436 L236.937,294.432 L236.938,294.427 L236.94,294.423 L236.941,294.418 L236.942,294.414 L236.943,294.409 L236.944,294.405 L236.945,294.4 L236.946,294.396 L236.947,294.391 L236.948,294.387 L236.949,294.382 L236.95,294.378 L236.951,294.373 L236.952,294.369 L236.953,294.364 L236.954,294.359 L236.955,294.355 L236.956,294.35 L236.957,294.346 L236.958,294.341 L236.958,294.336 L236.959,294.332 L236.96,294.327 L236.961,294.322 L236.962,294.318 L236.962,294.313 L236.963,294.309 L236.964,294.304 L236.965,294.294 L236.966,294.285 L236.967,294.276 L236.968,294.266 L236.969,294.257 L236.97,294.247 L236.971,294.238 L236.972,294.228 L236.973,294.219 L236.973,294.209 L236.974,294.2 L236.974,294.19 L236.975,294.18 L236.975,294.171 L236.975,294.161 L236.975,294.152 L236.975,294.142 L236.975,294.133 L236.975,294.123 L236.975,294.113 L236.975,294.104 L236.975,294.094 L236.974,294.085 L236.974,294.075 L236.973,294.066 L236.972,294.056 L236.972,294.047 L236.971,294.037 L236.97,294.028 L236.969,294.018 L236.968,294.009 L236.967,293.999 L236.966,293.99 L236.965,293.98 L236.963,293.971 L236.962,293.966 L236.962,293.962 L236.961,293.957 L236.96,293.952 L236.959,293.948 L236.959,293.943 L236.958,293.938 L236.957,293.934 L236.956,293.929 L236.955,293.925 L236.954,293.92 L236.953,293.915 L236.953,293.911 L236.952,293.906 L236.951,293.902 L236.95,293.897 L236.949,293.893 L236.948,293.888 L236.947,293.884 L236.946,293.879 L236.944,293.875 L236.943,293.87 L236.942,293.866 L236.941,293.861 L236.94,293.857 L236.939,293.852 L236.938,293.848 L236.936,293.843 L236.935,293.839 L236.934,293.835 L236.933,293.83 L236.931,293.826 L236.93,293.821 L236.929,293.817 L236.927,293.813 L236.926,293.808 L236.925,293.804 L236.923,293.8 L236.922,293.795 L236.92,293.791 L236.919,293.787 L236.918,293.783 L236.916,293.778 L236.915,293.774 L236.913,293.77 L236.912,293.766 L236.91,293.762 L236.908,293.758 L236.907,293.753 L236.905,293.749 L236.904,293.745 L236.902,293.741 L236.9,293.737 L236.899,293.733 L236.897,293.729 L236.895,293.725 L236.894,293.721 L236.892,293.717 L236.89,293.713 L236.888,293.709 L236.887,293.705 L236.885,293.701 L236.883,293.697 L236.881,293.693 L236.879,293.689 L236.877,293.685 L236.876,293.682 L236.874,293.678 L236.872,293.674 L236.87,293.67 L236.868,293.666 L236.866,293.663 L236.864,293.659 L236.862,293.655 L236.86,293.651 L236.858,293.648 L236.856,293.644 L236.854,293.641 L236.852,293.637 L236.85,293.633 L236.848,293.63 L236.846,293.626 L236.843,293.623 L236.841,293.619 L236.839,293.616 L236.837,293.612 L236.835,293.609 L236.833,293.605 L236.83,293.602 L236.828,293.598 L236.826,293.595 L236.824,293.592 L236.821,293.588 L236.819,293.585 L236.817,293.582 L236.815,293.579 L236.812,293.575 L236.81,293.572 L236.808,293.569 L236.805,293.566 L236.803,293.563 L236.801,293.559 L236.798,293.556 L236.796,293.553 L236.793,293.55 L236.791,293.547 L236.788,293.544 L236.786,293.541 L236.783,293.538 L236.781,293.535 L236.779,293.532 L236.776,293.529 L236.773,293.527 L236.771,293.524 L236.768,293.521 L236.766,293.518 L236.763,293.515 L236.761,293.513 L236.758,293.51 L236.756,293.507 L236.753,293.504 L236.75,293.502 L236.748,293.499 L236.745,293.497 L236.742,293.494 L236.74,293.491 L236.737,293.489 L236.734,293.486 L236.732,293.484 L236.729,293.482 L236.726,293.479 L236.724,293.477 L236.721,293.474 L236.718,293.472 L236.715,293.47 L236.713,293.467 L236.71,293.465 L236.707,293.463 L236.704,293.461 L236.701,293.459 L236.699,293.456 L236.696,293.454 L236.693,293.452 L236.69,293.45 L236.687,293.448 L236.684,293.446 L236.682,293.444 L236.679,293.442 L236.676,293.44 L236.673,293.438 L236.67,293.436 L236.667,293.435 L236.664,293.433 L236.661,293.431 L236.658,293.429 L236.656,293.427 L236.653,293.426 L236.65,293.424 L236.647,293.422 L236.644,293.421 L236.641,293.419 L236.638,293.418 L236.635,293.416 L236.632,293.414 L236.629,293.413 L236.626,293.412 L236.623,293.41 L236.62,293.409 L236.617,293.407 L236.614,293.406 L236.611,293.405 L236.608,293.403 L236.605,293.402 L236.602,293.401 L236.599,293.4 L236.596,293.399 L236.593,293.397 L236.59,293.396 L236.586,293.395 L236.583,293.394 L236.58,293.393 L236.577,293.392 L236.574,293.391 L236.571,293.39 L236.568,293.389 L236.565,293.389 L236.562,293.388 L236.559,293.387 L236.556,293.386 L236.553,293.385 L236.549,293.385 L236.546,293.384 L236.543,293.383 L236.54,293.383 L236.537,293.382 L236.534,293.381 L236.531,293.381 L236.528,293.38 L236.524,293.38 L236.521,293.379 L236.518,293.379 L236.515,293.379 L236.512,293.378 L236.509,293.378 L236.506,293.378 L236.503,293.377 L236.499,293.377 L236.496,293.377 L236.493,293.377 L236.49,293.377 L236.487,293.376 L236.484,293.376 L236.481,293.376 L236.475,293.376"/>
        </g>
        <g id="product-401d414d-c4ac-4616-824c-225c4f5a79a3-body" class="IfcStair material-gewapendbetonprefab cut" ifc:name="Stair" ifc:guid="107K5DnAn65e9C8bnFMdcZ">
            <path d="M221.119,298.042 L221.119,297.844 L222.319,297.844 L222.319,303.798 L221.119,303.798 L195.619,303.798 L195.619,298.042 L221.119,298.042 L221.119,303.798 M195.619,303.798 L194.419,303.798 L194.419,297.844 L195.619,297.844 L195.619,298.042"/>
        </g>
        <g id="product-d47cf8a8-e131-4900-9f33-4459428fa024-body" class="IfcColumn material-null cut" ifc:name="Column" ifc:guid="3KVFYeuJ5909ypH5b2Zw0a">
            <path d="M246.019,337.383 L245.95,337.057 L245.755,336.788 L245.466,336.622 L245.136,336.587 L244.819,336.69 L244.572,336.913 L244.437,337.216 L244.437,337.549 L244.572,337.853 L244.819,338.076 L245.136,338.178 L245.466,338.144 L245.755,337.977 L245.95,337.708 L246.019,337.383 M245.939,337.383 L245.868,337.07 L245.668,336.82 L245.379,336.681 L245.059,336.681 L244.77,336.82 L244.571,337.07 L244.499,337.383 L244.571,337.695 L244.77,337.946 L245.059,338.085 L245.379,338.085 L245.668,337.946 L245.868,337.695 L245.939,337.383"/>
        </g>
        <g id="product-4bb58a6d-60f8-46d6-8cda-59292473a8d7-body" class="IfcColumn material-lood cut" ifc:name="Column" ifc:guid="1BjOfjOFX6repQMIaaSwZN">
            <path d="M145.63915113350126,277.34309319899245 L145.739,276.7439999999999 L145.739,276.344 L145.69778172588835,276.24379695431475 L145.09899999999993,276.144 L144.699,276.144 L144.59866963151208,276.18598221092753 L144.499,276.7840000000001 L144.499,277.184 L144.558,277.326 L144.699,277.384 L145.539,277.384 Z"/><path d="M145.739,276.7439999999999 L145.63915113350126,277.34309319899245 L145.681,277.326 L145.739,277.184 Z"/><path d="M145.739,276.7439999999999 L145.819,276.264 L145.69778172588835,276.24379695431475 L145.739,276.344 Z"/><path d="M145.09899999999993,276.144 L145.69778172588835,276.24379695431475 L145.681,276.203 L145.539,276.144 Z"/><path d="M145.09899999999993,276.144 L144.619,276.064 L144.59866963151208,276.18598221092753 L144.699,276.144 Z"/><path d="M144.499,276.7840000000001 L144.59866963151208,276.18598221092753 L144.558,276.203 L144.499,276.344 Z"/><path d="M145.619,277.464 L145.761,277.406 Z"/><path d="M145.819,276.264 L145.761,276.123 Z"/><path d="M144.619,277.464 L145.619,277.464 Z"/><path d="M145.619,277.464 L145.63915113350126,277.34309319899245 Z"/><path d="M144.419,277.264 L144.478,277.406 Z"/><path d="M144.499,276.7840000000001 L144.419,277.264 Z"/><path d="M144.619,276.064 L144.478,276.123 Z"/></g>
        <g id="product-fef0d011-c88e-410b-8aa8-00b5672fae2c-body" class="IfcBuildingElementPart material-null cut" ifc:name="BuildingElementPart" ifc:guid="3_yD0Ho8v12uge0BLdBwui">
            <path d="M245.219,326.789 L245.219,327.589 L244.419,327.589 L244.419,326.789 L245.219,326.789 M285.419,326.789 L286.219,326.789 L286.219,327.589 L285.419,327.589"/>
        </g>
        <g class="IfcWall cut 1OtlE_XoT3nwp$teeg8PW_ 3p0VX0RXz02uXbYI1GpYOA material-naaldhoutvurenCLT 1Zgl9MMGf9X9zt1tAmtXcx 1ai1Axx29BeetR6I2W0INo"><path d="M64.4192,254.883 L44.4192,254.883 L44.4192,255.883 L64.4192,255.883 Z"/></g><g class="IfcWall cut 1OtlE_XoT3nwp$teeg8PW_ 3p0VX0RXz02uXbYI1GpYOA material-naaldhoutvurenCLT 1Zgl9MMGf9X9zt1tAmtXcx 1ai1Axx29BeetR6I2W0INo"><path d="M64.4192,263.083 L44.4192,263.083 L44.4192,264.883 L64.4192,264.883 Z"/></g><g class="IfcWall cut 1OtlE_XoT3nwp$teeg8PW_ 3p0VX0RXz02uXbYI1GpYOA material-naaldhoutvurenCLT 1Zgl9MMGf9X9zt1tAmtXcx 1ai1Axx29BeetR6I2W0INo"><path d="M64.4192,271.483 L44.4192,271.483 L44.4192,273.883 L64.4192,273.883 Z"/></g><g class="IfcWall cut 1OtlE_XoT3nwp$teeg8PW_ 3p0VX0RXz02uXbYI1GpYOA material-naaldhoutvurenCLT 1Zgl9MMGf9X9zt1tAmtXcx 1ai1Axx29BeetR6I2W0INo"><path d="M64.4192,280.083 L44.4192,280.083 L44.4192,282.883 L64.4192,282.883 Z"/></g><g class="IfcWall cut 2_AesjXKDC4BrfYfskLXcd material-isolatie"><path d="M44.4192,291.883 L44.4192,289.883 L64.4192,289.883 L64.4192,291.883 Z"/></g><g class="IfcWall cut material-metselwerkbaksteenrood 0onHAdBLLEkxNfUVRjT2Il"><path d="M44.4192,300.883 L44.4192,298.883 L64.4192,298.883 L64.4192,300.883 Z"/></g><path d="M112.20415115356445,164.46916580200195 L92.20415115356445,164.46916580200195 L82.20415115356445,164.46916580200195 L82.20415115356445,174.46916580200195 L82.20415115356445,194.46918487548828 L92.20415115356445,194.46918487548828 L112.20415115356445,194.46916580200195 L112.20415115356445,184.46916580200195 Z" class="IfcSpace material-null"/></g>
</svg>