<?xml version="1.0" encoding="utf-8" ?>
<svg xmlns="http://www.w3.org/2000/svg" xmlns:ev="http://www.w3.org/2001/xml-events" xmlns:ifc="http://www.ifcopenshell.org/ns" xmlns:xlink="http://www.w3.org/1999/xlink" baseProfile="full" data-scale="1:50" height="100.00000953674316mm" id="root" version="1.1" viewBox="0 0 100.00000953674318 100.00000953674316" width="100.00000953674318mm">
  <defs/>
  <path class="GlobalId-1jmrXAHDDAVBU$kRt7nwlm IfcAnnotation PredefinedType-NEN4711samengesteldewandvloerafwerking" d="M 30.09979724884034 37.85110950469971 L 24.09973621368409 37.85110950469971 L 24.09973621368409 39.85111713409424 L 30.09979724884034 39.85111713409424 L 30.09979724884034 37.85110950469971"/>
  <path class="GlobalId-2reZJnX7nEFP8nLXqHjk2N IfcAnnotation PredefinedType-NEN479natuursteen" d="M 30.09979724884034 31.85112476348877 L 24.09973621368409 31.85112476348877 L 24.09973621368409 33.8511323928833 L 30.09979724884034 33.8511323928833 L 30.09979724884034 31.85112476348877"/>
  <path class="GlobalId-0WAsZCQyD4VRKRqUMP6F5K IfcAnnotation PredefinedType-NEN4725maaiveld" d="M 30.09979724884034 71.85112476348877 L 24.09973621368409 71.85112476348877 L 24.09973621368409 73.8511323928833 L 30.09979724884034 73.8511323928833 L 30.09979724884034 71.85112476348877"/>
  <path class="GlobalId-3pSj0wryD4D9J$6Lv5Eq_I IfcAnnotation PredefinedType-NEN474nietdragendelichtescheidingswanden" d="M 30.09979724884034 19.85111713409424 L 24.09973621368409 19.85111713409424 L 24.09973621368409 21.85112476348877 L 30.09979724884034 21.85112476348877 L 30.09979724884034 19.85111713409424"/>
  <path class="GlobalId-37bqQNK355a9I1$5p91fUv IfcAnnotation PredefinedType-NEN4727grind" d="M 30.09979724884034 81.85112476348877 L 24.09973621368409 81.85112476348877 L 24.09973621368409 83.8511323928833 L 30.09979724884034 83.8511323928833 L 30.09979724884034 81.85112476348877"/>
  <path class="GlobalId-0rjYDpKETE6gzeMEzCPw$g IfcAnnotation PredefinedType-NEN477ongewapendbeton" d="M 30.09979724884034 25.851101875305176 L 24.09973621368409 25.851101875305176 L 24.09973621368409 27.851109504699707 L 30.09979724884034 27.851109504699707 L 30.09979724884034 25.851101875305176"/>
  <path class="GlobalId-1r2J7t0h52P8LgAvUqboJz IfcAnnotation PredefinedType-NEN4722kunststof" d="M 30.09979724884034 65.85114002227783 L 24.09973621368409 65.85114002227783 L 24.09973621368409 67.85114765167236 L 30.09979724884034 67.85114765167236 L 30.09979724884034 65.85114002227783"/>
  <path class="GlobalId-0T9l$UGFf09B5waRnWdlq8 IfcAnnotation PredefinedType-NEN4726zand" d="M 30.09979724884034 74.85111713409424 L 24.09973621368409 74.85111713409424 L 24.09973621368409 76.85112476348877 L 30.09979724884034 76.85112476348877 L 30.09979724884034 74.85111713409424"/>
  <path class="GlobalId-2lP2EqOUb9Du3K8Gb3Gujk IfcAnnotation PredefinedType-NEN471metselwerkbaksteen" d="M 30.09979724884034 10.851101875305176 L 24.09973621368409 10.851101875305176 L 24.09973621368409 12.851109504699707 L 30.09979724884034 12.851109504699707 L 30.09979724884034 10.851101875305176"/>
  <path class="GlobalId-0rNiD7RKP5V9dhcz2aXxd8 IfcAnnotation PredefinedType-NEN4714naaldloofhoutlangsarcering" d="M 30.09979724884034 53.8511323928833 L 24.09973621368409 53.8511323928833 L 24.09973621368409 55.85114002227783 L 30.09979724884034 55.85114002227783 L 30.09979724884034 53.8511323928833"/>
  <path class="GlobalId-3FbUrzLe19FR$pj6mIh41N IfcAnnotation PredefinedType-NEN4723afdichtingsmiddel" d="M 30.09979724884034 68.8511323928833 L 24.09973621368409 68.8511323928833 L 24.09973621368409 70.85114002227783 L 30.09979724884034 70.85114002227783 L 30.09979724884034 68.8511323928833"/>
  <path class="GlobalId-3VRiW3Mwz5iB7fDuZbYMG3 IfcAnnotation PredefinedType-NEN4728water" d="M 30.09979724884034 84.8511552810669 L 24.09973621368409 84.8511552810669 L 24.09973621368409 86.85116291046143 L 30.09979724884034 86.85116291046143 L 30.09979724884034 84.8511552810669"/>
  <path class="GlobalId-0dkdghyr53XPRsPP35VHhb IfcAnnotation PredefinedType-NEN4710enkelewandvloerafwerking" d="M 30.09979724884034 34.85111713409424 L 24.09973621368409 34.85111713409424 L 24.09973621368409 36.85112476348877 L 30.09979724884034 36.85112476348877 L 30.09979724884034 34.85111713409424"/>
  <line class="GlobalId-0u3kBHhX9Cle6QsiIzg5xN IfcAnnotation PredefinedType-DIMENSION" x1="21.09970474243164" x2="21.09970474243164" y1="12.851109504699707" y2="10.851101875305176"/>
  <text dominant-baseline="baseline" style="font-size: 0;" text-anchor="middle" transform="translate(20.09970474243164, 7.851101875305176) rotate(-90.00000250447816)">
    <tspan class="DIMENSION" dy="0em" x="0" y="0">100</tspan>
  </text>
  <line class="GlobalId-0u3kBHhX9Cle6QsiIzg5xN IfcAnnotation PredefinedType-DIMENSION" x1="24.099735260009766" x2="30.099796295166016" y1="7.851071357727051" y2="7.851071357727051"/>
  <text dominant-baseline="baseline" style="font-size: 0;" text-anchor="middle" transform="translate(27.09976577758789, 6.851071357727051) rotate(0.0)">
    <tspan class="DIMENSION" dy="0em" x="0" y="0">300</tspan>
  </text>
  <path class="GlobalId-0YGcXDjGz1pu2WpzTytC3O IfcAnnotation PredefinedType-NEN472specialesteenachtigematerialen" d="M 30.09979724884034 13.8511323928833 L 24.09973621368409 13.8511323928833 L 24.09973621368409 15.851140022277832 L 30.09979724884034 15.851140022277832 L 30.09979724884034 13.8511323928833"/>
  <path class="GlobalId-1g1BrWuunDh9RRzttEk480 IfcAnnotation PredefinedType-sierbeton" d="M 30.09979724884034 28.8511323928833 L 24.09973621368409 28.8511323928833 L 24.09973621368409 30.851140022277832 L 30.09979724884034 30.851140022277832 L 30.09979724884034 28.8511323928833"/>
  <path class="GlobalId-1u52XKcMz8TBfHOMcVmbAm IfcAnnotation PredefinedType-NEN4712naaldhout" d="M 30.09979724884034 47.85114765167236 L 24.09973621368409 47.85114765167236 L 24.09973621368409 49.851155281066895 L 30.09979724884034 49.851155281066895 L 30.09979724884034 47.85114765167236"/>
  <path class="GlobalId-2a1J_2anLDlA38NsgYccxU IfcAnnotation PredefinedType-NEN478sierbeton" d="M 471.95778369903564 28.8511323928833 L 465.9577989578247 28.8511323928833 L 465.9577989578247 30.851140022277832 L 471.95778369903564 30.851140022277832 L 471.95778369903564 28.8511323928833"/>
  <path class="GlobalId-3933gwrXn918$XzY9qyIiF IfcAnnotation PredefinedType-NEN476gewapendbetonprefab" d="M 30.09979724884034 22.851147651672363 L 24.09973621368409 22.851147651672363 L 24.09973621368409 24.851155281066895 L 30.09979724884034 24.851155281066895 L 30.09979724884034 22.851147651672363"/>
  <path class="GlobalId-096tNIZ_b9zez00QbCDc_b IfcAnnotation PredefinedType-NEN4717isolatie" d="M 30.09979724884034 59.85111713409424 L 24.09973621368409 59.85111713409424 L 24.09973621368409 61.85112476348877 L 30.09979724884034 61.85112476348877 L 30.09979724884034 59.85111713409424"/>
  <path class="GlobalId-31aK2giB51d9wGPkngTO3e IfcAnnotation PredefinedType-NEN4729glas" d="M 30.09979724884034 87.8511095046997 L 24.09973621368409 87.8511095046997 L 24.09973621368409 89.85111713409424 L 30.09979724884034 89.85111713409424 L 30.09979724884034 87.8511095046997"/>
  <path class="GlobalId-2nQWauWx9Bwu8CWXHhjtlc IfcAnnotation PredefinedType-NEN4716bekledingsplaat" d="M 30.09979724884034 56.85112476348877 L 24.09973621368409 56.85112476348877 L 24.09973621368409 58.8511323928833 L 30.09979724884034 58.8511323928833 L 30.09979724884034 56.85112476348877"/>
  <path class="GlobalId-0k5H6utVXAxRA7EAZ_0eni IfcAnnotation PredefinedType-NEN4720lood" d="M 30.09979724884034 62.85110950469971 L 24.09973621368409 62.85110950469971 L 24.09973621368409 64.85111713409424 L 30.09979724884034 64.85111713409424 L 30.09979724884034 62.85110950469971"/>
  <path class="GlobalId-0Bvj615G5FngWDbyXbSUo0 IfcAnnotation PredefinedType-NEN4713loofhout" d="M 30.09979724884034 50.85114002227783 L 24.09973621368409 50.85114002227783 L 24.09973621368409 52.85114765167236 L 30.09979724884034 52.85114765167236 L 30.09979724884034 50.85114002227783"/>
  <path class="GlobalId-2Lhsx5moDFiOdQgqQoF0WM IfcAnnotation PredefinedType-NEN473metselwerknietgebakkenkunststeen" d="M 30.09979724884034 16.85112476348877 L 24.09973621368409 16.85112476348877 L 24.09973621368409 18.8511323928833 L 30.09979724884034 18.8511323928833 L 30.09979724884034 16.85112476348877"/>
  <text dominant-baseline="baseline" style="font-size: 0;" text-anchor="start" transform="translate(31.09970474243164, 33.851131439208984) rotate(-0.0)">
    <tspan class="GlobalId-1tZFl$zzr8TAE1$pq5W$Vz IfcAnnotation PredefinedType-TEXT small" dy="0em" x="0" y="0">NEN479natuursteen</tspan>
  </text>
  <text dominant-baseline="baseline" style="font-size: 0;" text-anchor="start" transform="translate(31.09970474243164, 18.851131439208984) rotate(-0.0)">
    <tspan class="GlobalId-2XjiJi5cPBGgqX2srv1760 IfcAnnotation PredefinedType-TEXT small" dy="0em" x="0" y="0">NEN473metselwerknietgebakkenkunststeen</tspan>
  </text>
  <text dominant-baseline="baseline" style="font-size: 0;" text-anchor="start" transform="translate(31.09970474243164, 64.85115814208984) rotate(-0.0)">
    <tspan class="GlobalId-2ghk4SvevCFggvN80FiTVA IfcAnnotation PredefinedType-TEXT small" dy="0em" x="0" y="0">NEN4720lood</tspan>
  </text>
  <text dominant-baseline="baseline" style="font-size: 0;" text-anchor="start" transform="translate(31.09970474243164, 36.85112380981445) rotate(-0.0)">
    <tspan class="GlobalId-3FgUI8BiHBn9A0U87D3$5w IfcAnnotation PredefinedType-TEXT small" dy="0em" x="0" y="0">NEN4710enkelewandvloerafwerking</tspan>
  </text>
  <text dominant-baseline="baseline" style="font-size: 0;" text-anchor="start" transform="translate(31.09970474243164, 49.85115432739258) rotate(-0.0)">
    <tspan class="GlobalId-2KvYvgbRX9$v3i8sXkzHeP IfcAnnotation PredefinedType-TEXT small" dy="0em" x="0" y="0">NEN4712naaldhout</tspan>
  </text>
  <text dominant-baseline="baseline" style="font-size: 0;" text-anchor="start" transform="translate(31.09970474243164, 15.851140022277832) rotate(-0.0)">
    <tspan class="GlobalId-2LhS47DbXAdh0D2NyP$LGp IfcAnnotation PredefinedType-TEXT small" dy="0em" x="0" y="0">NEN472specialesteenachtigematerialen</tspan>
  </text>
  <text dominant-baseline="baseline" style="font-size: 0;" text-anchor="start" transform="translate(31.09970474243164, 52.85114669799805) rotate(-0.0)">
    <tspan class="GlobalId-061j_xQgX72RYXX3ncr12O IfcAnnotation PredefinedType-TEXT small" dy="0em" x="0" y="0">NEN4713loofhout</tspan>
  </text>
  <text dominant-baseline="baseline" style="font-size: 0;" text-anchor="start" transform="translate(31.09970474243164, 21.851123809814453) rotate(-0.0)">
    <tspan class="GlobalId-2Q5v$c69LBjvREas3jAZfD IfcAnnotation PredefinedType-TEXT small" dy="0em" x="0" y="0">NEN474nietdragendelichtescheidingswanden</tspan>
  </text>
  <text dominant-baseline="baseline" style="font-size: 0;" text-anchor="start" transform="translate(31.09970474243164, 12.851109504699707) rotate(-0.0)">
    <tspan class="GlobalId-3cik834y9DMQFqJftMLA4a IfcAnnotation PredefinedType-TEXT small" dy="0em" x="0" y="0">NEN471metselwerkbaksteen</tspan>
  </text>
  <text dominant-baseline="baseline" style="font-size: 0;" text-anchor="start" transform="translate(31.09970474243164, 73.85113525390625) rotate(-0.0)">
    <tspan class="GlobalId-0gRUFcCojDQOw0moaaIucb IfcAnnotation PredefinedType-TEXT small" dy="0em" x="0" y="0">NEN4725maaiveld</tspan>
  </text>
  <text dominant-baseline="baseline" style="font-size: 0;" text-anchor="start" transform="translate(31.09970474243164, 70.85114288330078) rotate(-0.0)">
    <tspan class="GlobalId-2rsw7cW0b7Sh17DQDMex06 IfcAnnotation PredefinedType-TEXT small" dy="0em" x="0" y="0">NEN4723afdichtingsmiddel</tspan>
  </text>
  <text dominant-baseline="baseline" style="font-size: 0;" text-anchor="start" transform="translate(31.09970474243164, 58.851131439208984) rotate(-0.0)">
    <tspan class="GlobalId-2WWGxmtXHC6wbREC0TlRQE IfcAnnotation PredefinedType-TEXT small" dy="0em" x="0" y="0">NEN4716bekledingsplaat</tspan>
  </text>
  <text dominant-baseline="baseline" style="font-size: 0;" text-anchor="start" transform="translate(31.09970474243164, 30.851139068603516) rotate(-0.0)">
    <tspan class="GlobalId-1qgVS4t3bAcBR$UuSfaViE IfcAnnotation PredefinedType-TEXT small" dy="0em" x="0" y="0">NEN478sierbeton</tspan>
  </text>
  <text dominant-baseline="baseline" style="font-size: 0;" text-anchor="start" transform="translate(31.09970474243164, 55.851139068603516) rotate(-0.0)">
    <tspan class="GlobalId-11EpxooHD6t8i86T5zEzgy IfcAnnotation PredefinedType-TEXT small" dy="0em" x="0" y="0">NEN4714naaldloofhoutlangsarcering</tspan>
  </text>
  <text dominant-baseline="baseline" style="font-size: 0;" text-anchor="start" transform="translate(31.09970474243164, 27.85110855102539) rotate(-0.0)">
    <tspan class="GlobalId-37J9p3w416sQM8BXNXbwCi IfcAnnotation PredefinedType-TEXT small" dy="0em" x="0" y="0">NEN477ongewapendbeton</tspan>
  </text>
  <text dominant-baseline="baseline" style="font-size: 0;" text-anchor="start" transform="translate(31.09970474243164, 24.851154327392578) rotate(-0.0)">
    <tspan class="GlobalId-3OspGRIYH97O5jzl9NA7MV IfcAnnotation PredefinedType-TEXT small" dy="0em" x="0" y="0">NEN476gewapendbetonprefab</tspan>
  </text>
  <text dominant-baseline="baseline" style="font-size: 0;" text-anchor="start" transform="translate(31.09970474243164, 86.85111999511719) rotate(-0.0)">
    <tspan class="GlobalId-1_tM8AMg114gFGSBlBwZbo IfcAnnotation PredefinedType-TEXT small" dy="0em" x="0" y="0">NEN4728water</tspan>
  </text>
  <text dominant-baseline="baseline" style="font-size: 0;" text-anchor="start" transform="translate(31.09970474243164, 76.85112762451172) rotate(-0.0)">
    <tspan class="GlobalId-24Y8QRTDv02ug07KBQ0oZA IfcAnnotation PredefinedType-TEXT small" dy="0em" x="0" y="0">NEN4726zand</tspan>
  </text>
  <text dominant-baseline="baseline" style="font-size: 0;" text-anchor="start" transform="translate(31.09970474243164, 39.85111618041992) rotate(-0.0)">
    <tspan class="GlobalId-0n3rxHUlT0KRWWJYY0LBkq IfcAnnotation PredefinedType-TEXT small" dy="0em" x="0" y="0">NEN4711samengesteldewandvloerafwerking</tspan>
  </text>
  <text dominant-baseline="baseline" style="font-size: 0;" text-anchor="start" transform="translate(12.162022590637207, 10.851101875305176) rotate(89.999995674289)">
    <tspan class="GlobalId-2h2GNta690yAOTAlHacEA8 IfcAnnotation PredefinedType-TEXT" dy="0em" x="0" y="0">NEN47 arceringen</tspan>
  </text>
  <text dominant-baseline="baseline" style="font-size: 0;" text-anchor="start" transform="translate(31.09970474243164, 61.85112380981445) rotate(-0.0)">
    <tspan class="GlobalId-0KMgkowWT6APhMpzozWK2z IfcAnnotation PredefinedType-TEXT small" dy="0em" x="0" y="0">NEN4717isolatie</tspan>
  </text>
  <text dominant-baseline="baseline" style="font-size: 0;" text-anchor="start" transform="translate(31.09970474243164, 67.85115051269531) rotate(-0.0)">
    <tspan class="GlobalId-3xYJmbBLrF7uG4QBNfmtLF IfcAnnotation PredefinedType-TEXT small" dy="0em" x="0" y="0">NEN4722kunststof</tspan>
  </text>
  <text dominant-baseline="baseline" style="font-size: 0;" text-anchor="start" transform="translate(31.09970474243164, 83.85112762451172) rotate(-0.0)">
    <tspan class="GlobalId-3a6garkIj6SBROxLfn0BO2 IfcAnnotation PredefinedType-TEXT small" dy="0em" x="0" y="0">NEN4727grind</tspan>
  </text>
  <text dominant-baseline="baseline" style="font-size: 0;" text-anchor="start" transform="translate(31.09970474243164, 89.85111236572266) rotate(-0.0)">
    <tspan class="GlobalId-07nR9DM29FR8UweXUeAwPz IfcAnnotation PredefinedType-TEXT small" dy="0em" x="0" y="0">NEN4729glas</tspan>
  </text>
</svg>
