<svg xmlns="http://www.w3.org/2000/svg" version="1.1" width="1062" height="1062">
    <g xmlns:inkscape="http://www.inkscape.org/namespaces/inkscape" id="ViewLayer_LineSet" inkscape:groupmode="lineset" inkscape:label="ViewLayer_LineSet" class="projection">
        <g xmlns:inkscape="http://www.inkscape.org/namespaces/inkscape" inkscape:groupmode="layer" id="strokes" inkscape:label="strokes">
            <path fill="none" d="M 149.84713452243983,768.2661831033208 149.75221925814498,764.8777081679939 149.6573039938501,761.4892332326671 149.5620497464685,758.1004193142535 149.4671344821736,754.7122833620132 149.37221921787872,751.3234694435996 149.2769649704971,747.9349945082728 149.1820497062022,744.5465195729458 149.08713444190735,741.1580446376191 148.99221917761247,737.7695697022922 148.89696493023084,734.3810947669654 148.80204966593598,730.9926198316384 148.70713440164107,727.6041448963114 148.61188015425947,724.2156699609847 148.51696488996458,720.8271950256577 148.42204962566973,717.4387200903309 148.3267953782881,714.050245155004 148.2318801139932,710.6617702196772 148.13696484969836,707.2729563012634 148.0417106023167,703.8844813659365 147.94679533802184,700.4960064306098 147.85188007372696,697.1075314952828 147.7569648094321,693.719056559956 147.66171056205044,690.3305816246291 147.5667952977556,686.9421066893022 147.4718800334607,683.5536317539754 147.37662578607907,680.1651568186486 147.28171052178422,676.7766818833217 147.18679525748934,673.3882069479947 147.0915410101077,669.9997320126679 146.99662574581282,666.6112570773411 146.90171048151797,663.2227821420142 146.80645623413633,659.8339682236004 146.71154096984145,656.4454932882736 146.6166257055466,653.0570183529468 146.52137145816494,649.6685434176198 146.42645619387008,646.280068482293 146.3315409295752,642.8915935469662 146.23628668219357,639.5031186116394 146.1413714178987,636.1146436763124 146.04645615360383,632.7261687409855 145.95154088930897,629.3376938056587 145.8562866419273,625.9492188703318 145.76137137763243,622.560743935005 145.66645611333757,619.1722689996781 145.57120186595594,615.7837940643511 145.47628660166106,612.3949801459376 145.3813713373662,609.0065052106106 145.28611708998454,605.6180302752838 145.1912018256897,602.229555339957 145.0962865613948,598.84108040463 145.00103231401317,595.4526054693032 144.90611704971832,592.0641305339763 144.81120178542344,588.6756555986494 144.71628652112858,585.2871806633226 144.62103227374692,581.8987057279958 144.52611700945204,578.5102307926688 144.43120174515718,575.1217558573419 144.33594749777555,571.7332809220151 144.2410322334807,568.3448059866881 144.1461169691858,564.9559920682744 144.05086272180415,561.5675171329477 143.9559474575093,558.1790421976208 143.8610321932144,554.790567262294 143.76577794583278,551.402092326967 143.67086268153793,548.0136173916402 143.57594741724304,544.6251424563134 143.4806931698614,541.2366675209864 143.38577790556653,537.8481925856596 143.29086264127167,534.4597176503327 143.1959473769768,531.0712427150058 143.10069312959516,527.6827677796789 143.0057778653003,524.294292844352 142.91086260100542,520.9058179090251 142.8156083536238,517.5173429736983 142.7206930893289,514.1285290552847 142.62577782503405,510.7400541199578 142.5305235776524,507.3515791846309 142.43560831335753,503.9631042493041 142.34069304906265,500.5746293139772 142.24543880168102,497.1861543786504 142.15052353738616,493.7976794433235 142.05560827309128,490.40920450799666 141.96035402570968,487.0207295726698 141.86543876141477,483.6322546373428 141.7705234971199,480.24377970201596 141.67560823282503,476.8553047666891 141.5803539854434,473.46682983136225 141.48543872114854,470.07801591294856 141.39052345685366,466.6895409776217 141.29526920947202,463.30106604229485 141.20035394517714,459.91259110696797 141.1054386808823,456.52411617164114 141.01018443350065,453.13564123631426 140.91526916920577,449.7471663009873 140.82035390491092,446.3586913656605 140.72509965752928,442.9702164303336 140.63018439323437,439.5817414950067 140.53526912893952,436.19326655967984 140.4400148815579,432.8047916243529 140.34509961726303,429.4163166890261 140.25018435296815,426.0278417536992 140.1552690886733,422.63936681837237 140.06001484129166,419.25055289995873 139.96509957699675,415.86207796463185 139.8701843127019,412.473603029305 139.77493006532026,409.0851280939781 139.6800148010254,405.69665315865126 139.58509953673052,402.3081782233244 139.4898452893489,398.9197032879975 139.394930025054,395.5312283526706 139.30001476075913,392.14275341734367 139.2047605133775,388.75427848201684 139.10984524908264,385.36580354668996 139.01492998478776,381.97732861136313 138.91967573740612,378.58885367603625 138.82476047311127,375.20037874070937 138.72984520881639,371.8115648222958 138.6349299445215,368.42308988696885 138.5396756971399,365.034614951642 138.44476043284502,361.64614001631514 138.34984516855013,358.2576650809882 138.2545909211685,354.8691901456614 138.15967565687365,351.4807152103345 138.06476039257873,348.09224027500767 137.96950614519713,344.7037653396808 137.87459088090228,341.31529040435385 137.7796756166074,337.926815469027 137.68442136922573,334.53834053370014 137.58950610493088,331.1498655983733 137.494590840636,327.76139066304637 137.39933659325436,324.3725767446328 137.3044213289595,320.98410180930586 137.20950606466462,317.59562687397903 137.05323486166486,312.02986357234516"/>
            <path fill="none" d="M 145.17391368826455,772.9885564850773 145.05425265863568,769.600759515924 144.93493061209355,766.2133015298574 144.8156085655514,762.8255045607041 144.69628651900928,759.4377075915506 144.57696447246715,756.0499106223974 144.45764242592503,752.662113653244 144.33798139629616,749.2746556671776 144.21865934975403,745.8868586980242 144.0993373032119,742.4990617288707 143.9800152566698,739.1112647597175 143.86069321012766,735.7234677905641 143.7410321804988,732.3360098044975 143.62171013395667,728.9482128353442 143.50238808741454,725.5604158661907 143.3830660408724,722.1726188970375 143.26374399433027,718.7848219278842 143.14442194778815,715.3973639418176 143.02476091815927,712.0095669726642 142.90543887161715,708.6217700035111 142.78611682507503,705.2339730343576 142.6667947785329,701.8461760652043 142.54747273199078,698.4587180791377 142.42781170236188,695.0709211099844 142.30848965581978,691.6831241408311 142.18916760927766,688.2953271716777 142.0698455627355,684.9075302025244 141.95052351619339,681.5200722164577 141.83120146965126,678.1322752473044 141.7115404400224,674.7444782781512 141.59221839348027,671.3566813089977 141.47289634693814,667.9688843398444 141.35357430039602,664.5814263537778 141.2342522538539,661.1936293846245 141.114591224225,657.8058324154713 140.99526917768287,654.4180354463178 140.87594713114078,651.0302384771645 140.75662508459865,647.6427804910979 140.6373030380565,644.2549835219446 140.51764200842763,640.8671865527913 140.3983199618855,637.479389583638 140.27899791534338,634.0915926144846 140.15967586880126,630.704134628418 140.04035382225914,627.3163376592647 139.921031775717,623.9285406901114 139.8013707460881,620.5407437209581 139.682048699546,617.1532857348915 139.56272665300386,613.765488765738 139.44340460646177,610.3776917965848 139.32408255991962,606.9898948274314 139.20442153029074,603.6020978582781 139.08509948374862,600.2146398722115 138.9657774372065,596.8268429030582 138.84645539066437,593.4390459339048 138.72713334412225,590.0512489647516 138.6078112975801,586.6634519955982 138.48815026795123,583.2759940095316 138.3688282214091,579.8881970403783 138.24950617486698,576.5004000712249 138.13018412832486,573.1126031020716 138.01086208178276,569.7248061329183 137.89120105215386,566.3373481468517 137.77187900561174,562.9495511776984 137.6525569590696,559.561754208545 137.5332349125275,556.1739572393917 137.41391286598537,552.7861602702384 137.29459081944324,549.3987022841718 137.17492978981434,546.0109053150184 137.05560774327222,542.6231083458651 136.9362856967301,539.2353113767117 136.81696365018797,535.8475144075584 136.69764160364585,532.4600564214918 136.57798057401695,529.0722594523385 136.45865852747485,525.6844624831851 136.33933648093273,522.2966655140319 136.2200144343906,518.9088685448785 136.10069238784848,515.5214105588119 135.98137034130636,512.1336135896586 135.86170931167746,508.74581662050525 135.74238726513533,505.3580196513519 135.6230652185932,501.97022268219854 135.5037431720511,498.58276469613196 135.38442112550896,495.19496772697863 135.2647600958801,491.8071707578253 135.14543804933794,488.419373788672 135.02611600279585,485.0319158026054 134.90679395625372,481.644118833452 134.7874719097116,478.2563218642987 134.6678108800827,474.86852489514547 134.54848883354057,471.480727925992 134.42916678699845,468.09293095683876 134.30984474045633,464.7054729707722 134.1905226939142,461.31767600161874 134.07120064737208,457.9298790324655 133.95153961774318,454.54208206331214 133.83221757120108,451.15462407724556 133.71289552465893,447.76682710809223 133.59357347811684,444.37903013893884 133.47425143157471,440.9912331697856 133.3545904019458,437.60343620063225 133.2352683554037,434.2159782145656 133.11594630886157,430.8281812454123 132.99662426231944,427.44038427625895 132.87730221577732,424.0525873071056 132.7579801692352,420.6647903379523 132.6383191396063,417.2773323518857 132.51899709306417,413.88953538273233 132.39967504652208,410.501738413579 132.28035299997993,407.1139414444258 132.16103095343783,403.72614447527235 132.04136992380893,400.3386864892058 131.9220478772668,396.9508895200525 131.80272583072468,393.56309255089906 131.68340378418256,390.17529558174584 131.56408173764044,386.78749861259246 131.4447596910983,383.4000406265259 131.32509866146944,380.01224365737255 131.2057766149273,376.6244466882191 131.08645456838516,373.2366497190659 130.96713252184307,369.84885274991257 130.84781047530092,366.46139476384593 130.72814944567205,363.0735977946926 130.60882739912992,359.68580082553933 130.4895053525878,356.2980038563859 130.37018330604567,352.9102068872326 130.25086125950355,349.52274890116604 130.13120022987468,346.1349519320127 130.01187818333256,342.7471549628594 129.89255613679043,339.359357993706 129.77323409024828,335.97156102455267 129.65391204370616,332.5841030384861 129.53458999716406,329.1963060693328 129.41492896753516,325.80850910017944 129.29560692099304,322.42071213102605 129.17628487445091,319.0329151618728 129.0569628279088,315.6454571758062 128.93764078136667,312.2576602066529 128.81797975173777,308.86986323749954 128.64374244513934,303.92274406921615"/>
            <path fill="none" d="M 200.5851060005231,754.5861816537358 200.7423941527832,751.2000796000162 200.89968230504326,747.8139775462968 201.05697045730332,744.4278754925772 201.21459759265014,741.0414344557711 201.37188574491023,737.6553324020515 201.5291738971703,734.2692303483319 201.68646204943036,730.8831282946126 201.84408918477723,727.4966872578061 202.0013773370373,724.1105852040868 202.15866548929736,720.7244831503673 202.31595364155743,717.3383810966477 202.47324179381752,713.9522790429282 202.63086892916434,710.5658380061219 202.7881570814244,707.1797359524024 202.94544523368447,703.793633898683 203.10273338594453,700.4075318449635 203.2600215382046,697.0210908081572 203.41764867355144,693.6349887544377 203.57493682581156,690.2488867007182 203.73222497807157,686.8627846469986 203.8895131303317,683.4766825932792 204.0471402656785,680.090241556473 204.20442841793857,676.7041395027535 204.36171657019864,673.3180374490339 204.51900472245873,669.9319353953144 204.67629287471877,666.5458333415949 204.8339200100656,663.1593923047886 204.99120816232573,659.773290251069 205.14849631458574,656.3871881973497 205.30578446684586,653.0010861436301 205.46307261910593,649.6146451068239 205.62069975445277,646.2285430531043 205.7779879067128,642.8424409993848 205.9352760589729,639.4563389456654 206.09256421123297,636.0702368919459 206.25019134657978,632.6837958551396 206.40747949883988,629.2976938014201 206.56476765109994,625.9115917477006 206.72205580336,622.5254896939812 206.87934395562007,619.1390486571748 207.03697109096694,615.7529466034553 207.194259243227,612.3668445497358 207.35154739548707,608.9807424960163 207.50883554774714,605.5946404422968 207.6661237000072,602.2081994054905 207.82375083535405,598.822097351771 207.9810389876141,595.4359952980516 208.1383271398742,592.0498932443321 208.29561529213424,588.6634522075258 208.4532424274811,585.2773501538063 208.61053057974115,581.8912481000867 208.76781873200122,578.5051460463673 208.92510688426128,575.1190439926479 209.0823950365214,571.7326029558416 209.24002217186825,568.3465009021221 209.39731032412828,564.9603988484025 209.55459847638838,561.574296794683 209.71188662864841,558.1878557578767 209.8691747809085,554.8017537041572 210.02680191625532,551.4156516504378 210.18409006851542,548.0295495967182 210.34137822077545,544.6434475429987 210.49866637303555,541.2570065061925 210.6559545252956,537.870904452473 210.81358166064243,534.4848023987535 210.97086981290255,531.098700345034 211.12815796516261,527.7122593082277 211.28544611742268,524.3261572545082 211.4430732527695,520.9400552007887 211.6003614050296,517.5539531470693 211.75764955728965,514.1678510933497 211.91493770954972,510.78141005654345 212.0722258618098,507.395308002824 212.22985299715663,504.00920594910446 212.3871411494167,500.62310389538493 212.54442930167676,497.23666285857865 212.70171745393688,493.8505608048592 212.8593445892837,490.46445875113966 213.01663274154376,487.0783566974202 213.17392089380385,483.69225464370066 213.3312090460639,480.30581360689445 213.48849719832398,476.9197115531749 213.6461243336708,473.53360949945534 213.8034124859309,470.14750744573587 213.96070063819093,466.7610664089296 214.11798879045102,463.3749643552101 214.2752769427111,459.98886230149066 214.4329040780579,456.60276024777113 214.59019223031802,453.21665819405166 214.7474803825781,449.8302171572454 214.90476853483815,446.4441151035258 215.06205668709822,443.05801304980633 215.21968382244506,439.6719109960868 215.3769719747051,436.28580894236734 215.5342601269652,432.89936790556106 215.69154827922526,429.5132658518416 215.84917541457213,426.12716379812207 216.0064635668322,422.7410617444026 216.16375171909226,419.3546207075964 216.32103987135235,415.9685186538768 216.47832802361236,412.5824166001573 216.63595515895923,409.1963145464378 216.7932433112193,405.8102124927184 216.95053146347936,402.42377145591206 217.10781961573943,399.03766940219253 217.26510776799952,395.65156734847307 217.42273490334634,392.26546529475354 217.5800230556064,388.8790242579472 217.73731120786653,385.49292220422774 217.89459936012653,382.10682015050827 218.0522264954734,378.72071809678886 218.20951464773347,375.33461604306933 218.36680279999356,371.948175006263 218.5240909522536,368.56207295254353 218.6813791045137,365.175970898824 218.83900623986054,361.78986884510454 218.99629439212057,358.403766791385 219.15358254438067,355.0173257545787 219.31087069664073,351.6312237008592 219.4681588489008,348.24512164713974 219.6257859842476,344.8590195934202 219.78307413650774,341.472578556614 219.94036228876774,338.08647650289447 220.09765044102787,334.70037444917494 220.2552775763747,331.3142723954554 220.41256572863477,327.92817034173595 220.56985388089484,324.54172930492973 220.7271420331549,321.15562725121015 220.884430185415,317.7695251974907 221.04205732076178,314.38342314377115 221.32646413055966,308.2596936813182"/>
            <path fill="none" d="M 195.9806987329616,759.4790635281364 196.11629196766856,756.0919445251566 196.25188520237552,752.7048255221766 196.38781742016926,749.3177065191969 196.52341065487622,745.9305875162172 196.65900388958315,742.5434685132374 196.7945971242901,739.1563495102575 196.93019035899707,735.7692305072776 197.06578359370405,732.3821115042979 197.201376828411,728.9949925013182 197.3373090462047,725.6078734983383 197.47290228091165,722.2207544953585 197.60849551561864,718.8336354923788 197.7440887503256,715.446516489399 197.87968198503253,712.0593974864191 198.0152752197395,708.6722784834393 198.15086845444645,705.2851594804595 198.28646168915344,701.8980404774798 198.42239390694715,698.5109214744999 198.55798714165408,695.1238024715201 198.69358037636104,691.7366834685403 198.82917361106803,688.3495644655604 198.964766845775,684.9624454625806 199.10036008048192,681.5753264596009 199.23595331518888,678.1882074566211 199.37188553298262,674.8010884536412 199.50747876768958,671.4139694506615 199.64307200239654,668.0268504476817 199.77866523710347,664.6397314447017 199.91425847181043,661.252612441722 200.04985170651742,657.8654934387422 200.18544494122438,654.4783744357625 200.32137715901808,651.0912554327826 200.45697039372502,647.7041364298028 200.592563628432,644.317017426823 200.72815686313896,640.9298984238432 200.86375009784592,637.5427794208634 200.99934333255285,634.1556604178836 201.1349365672598,630.7685414149039 201.27086878505355,627.3814224119241 201.4064620197605,623.9943034089441 201.54205525446747,620.6071844059644 201.6776484891744,617.2200654029846 201.8132417238814,613.8329464000049 201.94883495858835,610.445827397025 202.0844281932953,607.0587083940453 202.22002142800227,603.6715893910654 202.355953645796,600.2844703880855 202.49154688050294,596.8973513851058 202.6271401152099,593.510232382126 202.76273334991686,590.1231133791463 202.8983265846238,586.7359943761664 203.0339198193308,583.3488753731866 203.16985203712449,579.9617563702068 203.30544527183145,576.574637367227 203.4410385065384,573.1875183642472 203.5766317412454,569.8003993612674 203.71222497595232,566.4132803582877 203.84781821065928,563.0261613553077 203.98341144536624,559.6390423523279 204.1190046800732,556.2519233493482 204.25493689786694,552.8648043463684 204.39053013257387,549.4776853433887 204.52612336728083,546.0905663404088 204.6617166019878,542.703447337429 204.79730983669478,539.3166673175359 204.93290307140174,535.9295483145561 205.06849630610867,532.5424293115764 205.20442852390238,529.1549713255098 205.34002175860937,525.7681913056167 205.47561499331633,522.3810723026369 205.61120822802326,518.993953299657 205.74680146273022,515.6068342966772 205.88239469743718,512.2197152936975 206.01798793214417,508.83259629071773 206.15392014993787,505.4454772877379 206.2895133846448,502.05835828475807 206.42510661935177,498.67123928177824 206.56069985405875,495.2841202787985 206.6962930887657,491.8970012758187 206.83188632347267,488.50988227283887 206.9674795581796,485.1227632698591 207.10341177597334,481.7356442668792 207.2390050106803,478.34852526389943 207.37459824538726,474.96140626091966 207.5101914800942,471.5742872579399 207.64578471480115,468.18716825496006 207.78137794950814,464.8000492519802 207.9169711842151,461.4129302490004 208.05256441892206,458.0258112460206 208.18849663671574,454.63869224304085 208.32408987142273,451.251573240061 208.4596831061297,447.8644542370813 208.59527634083665,444.4773352341015 208.7308695755436,441.0902162311216 208.86646281025054,437.7030972281418 209.00205604495753,434.315978225162 209.13798826275124,430.92885922218227 209.2735814974582,427.54174021920244 209.40917473216513,424.1546212162226 209.54476796687214,420.7675022132428 209.68036120157907,417.38038321026295 209.81595443628603,413.99326420728323 209.951547670993,410.6061452043034 210.08747988878673,407.21902620132363 210.22307312349366,403.8319071983438 210.35866635820062,400.4447881953639 210.49425959290758,397.0576691923842 210.6298528276145,393.67055018940437 210.76544606232153,390.2834311864246 210.90103929702846,386.89631218344476 211.03697151482217,383.50919318046505 211.17256474952913,380.12207417748516 211.30815798423612,376.73495517450533 211.44375121894305,373.34783617152556 211.57934445365,369.9607171685457 211.71493768835697,366.573598165566 211.85053092306393,363.1864791625862 211.98612415777092,359.79936015960635 212.1220563755646,356.4122411566265 212.25764961027156,353.02512215364675 212.39324284497852,349.638003150667 212.5288360796855,346.25088414768715 212.66442931439246,342.8637651447073 212.8000225490994,339.47664614172754 212.93561578380636,336.08952713874777 213.0715480016001,332.70240813576794 213.20714123630705,329.31528913278817 213.34273447101398,325.92817012980834 213.47832770572094,322.5410511268285 213.6139209404279,319.15393212384873 213.91459893839058,311.6454567519509"/>
            <path fill="none" d="M 95.27356941758352,254.26273880705324 94.19560320166322,254.60951850481626 94.40814559706637,257.9929086938416 94.62068799246951,261.3759598997802 94.83323038787266,264.7590111057188 95.04543380018907,268.14240129474416 95.25797619559224,271.5254525006828 95.27221348523643,271.7518932026434 97.71289170996168,274.10443582480906 100.15323095160015,276.4569784469748 102.59357019323862,278.8098600522273 105.03424841796387,281.16240267439304 107.47458765960234,283.5152842796455 109.91526588432757,285.86782690181116 112.35560512596604,288.22036952397696 114.79594436760453,290.57325112922945 117.23662259232975,292.92579375139513 119.67696183396825,295.2786753566476 122.11730107560669,297.6312179788133 123.91933516486218,299.36816731540944 126.35967440650064,301.72104892066193 128.64374244513934,303.92274406921615 131.08442066986458,306.2756256744687 132.30713266383455,307.45426986715887 134.74747190547302,309.80681248932456 137.05323486166486,312.02986357234516 139.4939130863901,314.38274517759766 141.93425232802858,316.7352877997634 144.37493055275382,319.087830421929 146.8152697943923,321.4407120271816 149.25560903603073,323.7932546493473 151.14815160945312,325.61766162232936 151.14815160945312,325.61766162232936"/>
            <path fill="none" d="M 150.84272784827567,306.2125748203299 148.33662588780433,303.9298627140383 145.83086291041977,301.64715060774665 143.3247609499484,299.3640995183682 140.81899797256384,297.0813874120766 138.3128960120925,294.79867530578497 135.8071330347079,292.5159631994934 133.30103107423656,290.23291211011497 130.79492911376525,287.95020000382334 128.28916613638063,285.6674878975317 125.7830641759093,283.3844368081533 123.27730119852473,281.10172470186166 120.77119923805337,278.81901259557003 118.26543626066879,276.5363004892784 115.75933430019747,274.2532493999 113.25357132281287,271.97053729360834 110.74746936234153,269.68782518731666 108.24170638495694,267.4051130810251 105.73560442448562,265.1220619916467 103.22984144710104,262.83934988535503 100.72373948662968,260.5566377790634 98.21763752615834,258.2739256727718 95.71187454877378,255.9908745833934 94.19560320166322,254.60951850481626"/>
            <path fill="none" d="M 152.03425339826308,305.72138832760396 150.84272784827567,306.2125748203299 150.84374479753598,306.27935448842305 150.89696514215848,309.66884637301024 150.9505244698677,313.0579992745107 151.0037448144902,316.44749115909786 151.05730414219946,319.83698304368505 151.11052448682193,323.22647492827224 151.14815160945312,325.61766162232936"/>
            <path fill="none" d="M 161.4945933837675,335.5918999673732 161.4725594831276,332.20206909969926 161.45018659940098,328.8122382320253 161.4281526987611,325.42274634743814 161.4061187981212,322.0329154797642 161.40035608564617,321.12986453661586 161.37798320191953,317.74037265202867 161.36544082770914,315.79833854793833"/>
            <path fill="none" d="M 266.75799436838616,270.4054523820033 263.64477369951436,271.7464694732551 260.5315530306426,273.0874865645069 257.4179933786842,274.4281646726719 254.30477270981234,275.76918176392377 251.19155204094062,277.1101988551756 248.07799238898215,278.45087696334065 244.96477172011032,279.79189405459243 241.85121206815185,281.1329111458442 238.73799139928013,282.47392823709606 235.62477073040833,283.81460634526115 232.51121107844983,285.1556234365129 229.39799040957809,286.4966405277647 226.2847697407063,287.8376576190165 223.17121008874784,289.1783357271816 220.05798941987607,290.5193528184334 216.9447687510043,291.86036990968523 213.83120909904582,293.2010480178502 210.71798843017405,294.54206510910205 207.6047677613023,295.8830822003539 204.49120810934383,297.2240992916057 201.37798744047205,298.5647773997707 198.26476677160028,299.90579449102256 195.1512071196418,301.24681158227435 192.03798645077,302.58782867352613 188.92476578189826,303.9285067816912 185.8112061299398,305.269523872943 182.697985461068,306.61054096419485 179.58476479219627,307.9512190723599 176.47120514023777,309.2922361636117 173.357984471366,310.6332532548635 170.24476380249425,311.9742703461153 166.45933967256278,313.60444001037973 163.34578002060425,314.9454571016316 161.36544082770914,315.79833854793833 158.85933886723777,313.51562644164665 156.3535758898532,311.23291433535496 153.84747392938186,308.94986324597664 151.3417109519973,306.667151139685 150.84272784827567,306.2125748203299"/>
            <path fill="none" d="M 151.14815160945312,325.61766162232936 153.5884908510916,327.9702042444951 156.0291690758168,330.3230858497476 158.46950831745528,332.6756284719133 160.91018654218053,335.0285100771658 161.4945933837675,335.5918999673732 164.57798354100373,334.1834252418547 167.66137369823994,332.77495051633616 170.7444248723894,331.3664757908176 173.8278150296256,329.9576620822124 176.91120518686185,328.54918735669384 179.99459534409806,327.1407126311753 183.0779855013343,325.73223790565675 186.16137565857048,324.32376318013826 189.24476581580672,322.91528845461977 192.32815597304295,321.5068137291012 195.41120714719233,320.0983390035827 198.49459730442857,318.6895252949774 201.5779874616648,317.2810505694589 204.66137761890104,315.8725758439403 207.57764911436095,314.5403723129445 210.66103927159713,313.13189758742595 213.74442942883337,311.7234228619074 213.91459893839058,311.6454567519509 214.90036175471016,311.1952872127238 217.9837519119464,309.78681248720534 221.06680308609583,308.3783377616868 221.32646413055966,308.2596936813182 224.4098542877959,306.8512189557997 227.49324444503208,305.44274423028116 230.5766346022683,304.0342695047626 233.66002475950455,302.62579477924413 236.74307593365398,301.2173200537256 239.82646609089022,299.8088453282071 242.9098562481264,298.4000316196018 245.9932464053626,296.99155689408326 249.07663656259882,295.5830821685647 252.16002671983506,294.1746074430462 255.2434168770713,292.7661327175277 258.3268070343075,291.3576579920092 261.40985820845697,289.94918326649065 264.49324836569315,288.5407085409721 265.26816370204347,288.18647121530023 265.55121457949423,284.8085047556631 265.834265456945,281.43053829602604 266.1173163343958,278.05257183638895 266.4003672118465,274.67460537675186 266.68341808929733,271.2966389171148 266.75799436838616,270.4054523820033 265.8610451207996,269.85494384909305"/>
            <path fill="none" d="M 152.03425339826308,305.72138832760396 151.95967711917424,305.751896805413 150.84272784827567,306.2125748203299 150.84374479753598,306.27935448842305 150.89696514215848,309.66884637301024 150.9505244698677,313.0579992745107 151.0037448144902,316.44749115909786 151.05730414219946,319.83698304368505 151.11052448682193,323.22647492827224 151.14815160945312,325.61766162232936"/>
            <path fill="none" d="M 152.03425339826308,305.72138832760396 154.54544010503594,307.9979987383338 157.05696579489555,310.27494813215037 159.56849148475516,312.5515585428802 161.7630679884873,314.5413892622048 164.87798357279286,313.2044399679942 165.76272942925576,312.82443992772795"/>
            <path fill="none" d="M 160.69086448504203,140.54747252006317 160.7118814364216,143.93696440465033 160.7325594047144,147.32679527232426 160.753576356094,150.7166261399982 160.7742543243868,154.10645700767213 160.7952712757664,157.4962878753461 160.81628822714598,160.88577975993326 160.83696619543878,164.27561062760722 160.85798314681836,167.66544149528116 160.87900009819793,171.0552723629551 160.89967806649074,174.44510323062906 160.92069501787032,177.8345951152162 160.94137298616312,181.22442598289015 160.9623899375427,184.6142568505641 160.98340688892227,188.00408771823803 161.00408485721508,191.39391858591196 161.02510180859468,194.7837494535859 161.04611875997426,198.17324133817309 161.06679672826706,201.56307220584702 161.08781367964664,204.952903073521 161.1071357155924,208.11290340836663 161.12171198832337,210.4817172186972 161.14272893970295,213.87154808637115 161.16374589108253,217.26137895404509 161.18442385937536,220.65087083863224 161.2054408107549,224.04070170630618 161.22611877904774,227.43053257398012 161.24713573042732,230.82036344165405 161.2681526818069,234.210194309328 161.28883065009973,237.59968619391518 161.30984760147928,240.9895170615891 161.33086455285886,244.37934792926305 161.35154252115166,247.76917879693698 161.37255947253124,251.15900966461098 161.39323744082407,254.5485015491981 161.41425439220365,257.9383324168721 161.4352713435832,261.328163284546 161.45594931187603,264.71799415221994 161.47696626325563,268.1078250198939 161.4884916882057,269.99019810071326 161.50950863958528,273.3800289683872 161.51391541971324,274.1301985394034 161.53493237109282,277.52002940707735 161.5352713541796,277.57121585317924 161.55628830555918,280.9610467208532 161.56408491655483,282.25969092625905 161.5851018679344,285.64918281084624 161.60577983622724,289.0390136785202 161.6267967876068,292.4288445461941 161.64679678972607,295.68782794237586 161.66781374110565,299.0776588100498 161.6817120476631,301.3149471827146 161.68408492927048,301.74172688895476 161.70510188065003,305.1315577566287 161.7078137453442,305.5827442451161 161.71289849164572,306.3746087358047 161.73357645993852,309.76443960347865 161.7545934113181,313.1542704711526 161.7630679884873,314.5413892622048"/>
            <path fill="none" d="M 162.2088307475864,138.28611634823787 161.7952713817302,138.10781124459822 161.7952713817302,138.10781124459822 159.97425423961573,137.3230653987317 159.97425423961573,137.3230653987317 156.86137255383076,135.98137034130636 153.7484908680458,134.639675283881 150.63527019917404,133.29831920954243 147.52238851338905,131.95662415211706 144.4091678445173,130.61492909469175 141.29628615873233,129.27323403726638 138.18340447294736,127.93153897984105 135.07018380407558,126.58984392241568 131.9573021182906,125.24814886499037 128.84408144941887,123.906453807565 125.73119976363388,122.56475875013965 122.61797909476213,121.22340267580107 119.50509740897716,119.88170761837573 116.39221572319218,118.54001256095039 113.27899505432043,117.19831750352505 110.16611336853546,115.85662244609968 107.05289269966369,114.51492738867434 103.94001101387872,113.173232331249 100.33662080154132,111.62035081076756 97.22373911575633,110.27865575334222 96.67594244754024,110.0427235249521 96.67594244754024,110.0427235249521 93.56272177866848,108.70102846752678 92.55729794331637,108.26746909955128 90.26848414146293,107.28102831705816 86.91289056555249,107.76136735100756 86.2122125252043,107.86136736160393 86.42170407282654,111.2447575506293 86.6311956204488,114.62814773965466 86.84068716807106,118.01153792868003 87.04983973260654,121.39492811770538 87.25933128022879,124.77831830673074 87.46882282785104,128.1617084957561 87.67831437547328,131.5447597016947 87.88746694000875,134.92814989072005 88.09695848763101,138.3115400797454 88.30645003525328,141.69493026877078 88.51594158287551,145.07832045779614 88.72509414741099,148.4617106468215 88.93458569503325,151.84510083584686 89.1440772426555,155.22849102487223 89.35356879027775,158.6118812138976 89.56272135481322,161.99527140292298 89.77221290243547,165.37832260886154 89.98170445005773,168.7617127978869 90.19119599767998,172.14510298691226 90.40034856221544,175.52849317593763 90.60984010983769,178.911883364963 90.81933165745995,182.29527355398832 91.02848422199543,185.67866374301371 91.23797576961769,189.06205393203905 91.44746731723994,192.44544412106447 91.65695886486218,195.8288343100898 91.86611142939766,199.21188551602836 92.07560297701991,202.59527570505375 92.28509452464216,205.97866589407909 92.49458607226443,209.3620560831045 92.7037386367999,212.74544627212984 92.91323018442216,216.12883646115523 93.1227217320444,219.51222665018057 93.33221327966665,222.89561683920596 93.54136584420213,226.2790070282313 93.75085739182438,229.66239721725668 93.96034893944663,233.04544842319527 94.16984048706887,236.4288386122206 94.37899305160437,239.812228801246 94.5884845992266,243.19561899027133 94.79797614684887,246.57900917929672 95.00746769447112,249.96239936832205 95.27356941758352,254.26273880705324 95.27356941758352,254.26273880705324 97.78475612435636,256.53934921778307 100.296281814216,258.8162986115996 102.80780750407563,261.0932480054162 105.31899421084847,263.36985841614603 107.83051990070811,265.64680780996264 109.1956047911204,266.8844350597504 111.70679149789326,269.1610454704802 114.21831718775289,271.43799486429674 116.7298428776125,273.7146052750266 119.24102958438537,275.99155466884315 121.752555274245,278.268165079573 124.26408096410461,280.54511447338956 126.77526767087745,282.8220638672062 129.2867933607371,285.098674277936 131.79798006750994,287.37562367175263 134.30950575736958,289.6522340824824 136.8210314472292,291.92918347629904 139.33221815400205,294.2057938870288 141.8437438438617,296.4827432808454 144.35493055063452,298.759692674662 146.86645624049413,301.0363030853918 149.37798193035377,303.31325247920836 152.03425339826308,305.72138832760396"/>
            <path fill="none" d="M 165.76272942925576,312.82443992772795 165.75391586899983,309.434609060054 165.75323790282627,309.278676840141 165.74815315652475,307.32952409122845 165.73933959626882,303.9396932235545 165.73933959626882,303.89969321931596 165.73052603601286,300.5413877787114 165.72950908675256,300.0735911189724 165.72950908675256,300.0735911189724 165.728831120579,299.9091843218902 165.7271362051452,299.1807096684271 165.71832264488924,295.79087880075315 165.7095090846333,292.40104793307916 165.70069552437735,289.0112170654052 165.6918819641214,285.6213861977313 165.689509082514,284.73325051040075 165.68103450534483,281.52206372945324 165.679339589911,280.91765688574696 165.67052602965504,277.52782601807303 165.66815314804768,276.58375812142583 165.66815314804768,276.5552835421373 165.6606955201388,273.7481646006166 165.6606955201388,273.7478256175298 165.6596785708785,273.2729103129687 165.6596785708785,273.2729103129687 165.6522209429696,270.40748628052387 165.64306839962688,267.01765541284993 165.63425483937093,263.627824545176 165.625441279115,260.23799367750206 165.61662771885904,256.8481628098281 165.60781415860308,253.4583319421542 165.59900059834712,250.06850107448025 165.59018703809116,246.67867020680632 165.5813734778352,243.28883933913235 165.57255991757927,239.89900847145842 165.5637463573233,236.50917760378448 165.55493279706735,233.11934673611054 165.5461192368114,229.7295158684366 165.53730567655546,226.33968500076264 165.5284921162995,222.9498541330887 165.51967855604354,219.56036224850152 165.5098480465273,215.89188728350476 165.50103448627135,212.50205641583082 165.49255990910214,209.20510691393116 165.49255990910214,209.20510691393116 165.48645821354035,206.84747954546395 165.4776446532844,203.45764867779002 165.46883109302843,200.06781781011608 165.4600175327725,196.67798694244215 165.45086498942976,193.2881560747682 165.4420514291738,189.89832520709425 165.43323786891787,186.5084943394203 165.4244243086619,183.11866347174637 165.41561074840595,179.72883260407244 165.40679718815,176.3390017363985 165.39798362789404,172.94917086872454 165.3891700676381,169.55934000105057 165.38035650738215,166.16950913337664 165.3715429471262,162.7796782657027 165.36272938687023,159.38984739802876 165.3539158266143,156.00001653035483 165.34510226635834,152.61018566268086 165.33628870610238,149.22035479500693 165.32747514584642,145.830523927333 165.3183226025037,142.44069305965905 165.3112039576816,139.62306564244847 164.4918818369648,139.2701842491236 164.4647631900234,139.25831984108675"/>
            <path fill="none" d="M 165.3112039576816,139.62306564244847 164.46645810545724,139.7922182027454 162.21866125710267,140.24170977579897 161.80679680668027,140.32408266588345 160.69086448504203,140.54747252006317 159.9939152586483,140.2413707927122 156.88984713311922,138.87933675008082 153.7857790075902,137.51696372436265 150.6817108820612,136.15459069864448 147.57764275653213,134.7925566560131 144.47357463100312,133.43018363029495 141.3695065054741,132.0678106045768 138.26543837994504,130.70577656194538 135.16137025441603,129.3434035362272 132.05730212888702,127.98103051050909 128.95323400335798,126.61899646787771 125.84916587782894,125.25662344215954 122.74509775229991,123.89425041644137 119.64102962677089,122.53221637380999 116.53696150124185,121.16984334809185 113.43289337571282,119.80747032237367 110.32882525018381,118.44543627974228 107.22475712465476,117.08306325402411 104.12068899912573,115.72069022830597 101.01662087359672,114.35865618567459 97.91255274806767,112.99628315995642 96.80950178372659,112.51221531205259 93.70543365819753,111.14984228633442 92.69661999197778,110.7071303750162 89.59255186644876,109.34475734929806 86.48848374091972,107.98272330666666 86.2122125252043,107.86136736160393"/>
            <path fill="none" d="M 161.77222053183002,133.77187858175648 161.77222053183002,133.77187858175648"/>
            <path fill="none" d="M 165.75086502121889,133.0105225688769 165.75086502121889,133.0105225688769 162.6173053671411,131.71696310977254 159.4840846961501,130.42340365066818 156.35086402515907,129.1298441915638 153.21730437108127,127.83628473245942 150.08408370009025,126.54272527335502 146.95086302909922,125.24882683116388 143.8176423581082,123.95560635514627 140.6840827040304,122.66170791295511 137.55086203303938,121.36814845385075 134.41764136204836,120.07458899474639 131.28442069105733,118.781029535642 128.15086103697953,117.48747007653763 125.01764036598854,116.19391061743326 121.8844196949975,114.90035115832887 118.75086004091969,113.60679169922449 115.61763936992868,112.31323224012013 112.48441869893765,111.01967278101574 109.35119802794664,109.72611332191137 106.21763837386884,108.432553862807 103.08441770287781,107.13899440370261 100.04170551605368,105.88306206722943 96.68611194014323,106.36306211809205 96.47831530795483,106.39255364664082 96.47831530795483,106.39289262972757"/>
            <path fill="none" d="M 165.75086502121889,133.0105225688769 162.42137314298955,133.64747178891284 161.77222053183002,133.77187858175648 161.77222053183002,133.77187858175648 158.6461185056611,132.46103098522696 155.5200164794922,131.15018338869743 152.39391445332328,129.83933579216793 149.26781242715435,128.52848819563843 146.14171040098546,127.2176405991089 143.01560837481654,125.90679300257939 139.88916736556087,124.59594540604988 136.76306533939197,123.28509780952035 133.63696331322305,121.97425021299085 130.51086128705415,120.66340261646134 127.38475926088525,119.35255501993183 124.25865723471632,118.04170742340233 121.13255520854742,116.73085982687279 118.00645318237852,115.42001223034327 114.8803511562096,114.10916463381378 111.75424913004069,112.79831703728426 108.62814710387177,111.48746944075474 105.50204507770286,110.17662184422525 102.37594305153397,108.86577424769573 99.24984102536504,107.55492665116618 96.47831530795483,106.39255364664082"/>
            <path fill="none" d="M 164.45052590037918,134.89492954821685 161.78069510899917,135.41153977245037 159.96408474701275,135.7634042165149 159.97425423961573,137.3230653987317"/>
            <path fill="none" d="M 96.47831530795483,106.39289262972757 93.1227217320444,106.8728926805902 92.48272166422755,106.9644181140174 92.55729794331637,108.26746909955128"/>
            <path fill="none" d="M 269.8718930034314,114.50509687915809 269.8718930034314,114.50509687915809 266.88274014431653,113.65458831445869 263.553587249174,114.2918765175814 260.2240953709446,114.9291647207041 256.89460349271525,115.5664529238268 253.56511161448594,116.20340214386273 250.23595871934336,116.84069034698544 246.906466841114,117.47797855010813 243.57697496288466,118.11526675323084 240.24782206774205,118.75255495635355 236.91833018951272,119.38950417638948 233.58883831128335,120.02679237951217 230.25934643305405,120.66408058263488 226.93019353791146,121.30136878575759 223.6007016596821,121.93865698888028 220.27120978145274,122.57560620891621 216.9417179032234,123.21289441203892 213.61256500808085,123.85018261516163 210.2830731298515,124.48747081828432 206.95358125162218,125.12442003832025 203.6240893733928,125.76170824144296 200.29493647825024,126.39899644456567 196.96544460002087,127.03628464768836 193.63595272179154,127.67323386772429 190.30679982664896,128.310522070847 186.9773079484196,128.9478102739697 183.64781607019026,129.5850984770924 180.3183241919609,130.2223866802151 176.98917129681834,130.85933590025104 173.659679418589,131.49662410337373 170.33018754035962,132.13391230649646 167.00069566213028,132.77120050961912 165.75086502121889,133.0105225688769"/>
            <path fill="none" d="M 161.77222053183002,133.77187858175648 161.77222053183002,133.77187858175648 161.77222053183002,133.77187858175648"/>
            <path fill="none" d="M 164.47798353040733,134.90645497316694 165.7542548520866,134.65933630291352 169.08239079796886,134.0149294549687 172.41052674385114,133.37086159011065 175.7386626897334,132.72645474216583 179.0667986356157,132.08238687730778 182.3945955984112,131.43831901244974 185.72273154429348,130.79391216450492 189.05086749017576,130.14984429964687 192.37900343605804,129.50543745170205 195.70680039885355,128.861369586844 199.03493634473585,128.21696273889918 202.36307229061808,127.57289487404113 205.6912082365004,126.92848802609633 209.0190051992959,126.28442016123826 212.34714114517814,125.64035229638021 215.67527709106042,124.9959454484354 219.0034130369427,124.35187758357738 222.3312099997382,123.70747073563255 225.6593459456205,123.06340287077448 228.9874818915028,122.41899602282969 232.31561783738502,121.77492815797163 235.64341480018058,121.13052131002681 238.97155074606283,120.48645344516876 242.2996866919451,119.84238558031073 245.62782263782736,119.1979787323659 248.9556196006229,118.55391086750785 252.28375554650515,117.90950401956304 255.61189149238743,117.26543615470499 258.94002743826974,116.62102930676016 262.26782440106524,115.97696144190212 265.5959603469475,115.3325545939573 269.8718930034314,114.50509687915809 269.8718930034314,114.50509687915809"/>
            <path fill="none" d="M 239.5237541944069,148.78781237629173 239.33833044594513,152.17289748075095 239.15290669748336,155.55764360212336 238.96714396593484,158.9423897234958 238.78172021747307,162.32713584486822 238.59595748592454,165.71188196624067 238.4105337374628,169.09662808761308 238.22510998900103,172.48137420898553 238.0393472574525,175.86612033035794 237.85392350899073,179.2508664517304 237.66849976052896,182.6356125731028 237.48273702898044,186.02035869447525 237.2973132805187,189.4051048158477 237.11155054897014,192.78985093722014 236.92612680050837,196.17459705859255 236.74070305204663,199.55934317996497 236.55494032049805,202.94408930133739 236.36951657203628,206.3288354227098 236.24205893141175,208.65459838102092 233.0146009622994,209.69188662652917 229.78748197627385,210.72917487203733 226.5603629902482,211.7664631175456 223.33324400422262,212.80409034614064 220.10578603511027,213.84137859164883 218.0942603982326,214.48781933811426 215.28578552436468,215.39053129817583 215.28578552436468,215.39053129817583 212.05866653833908,216.4281585267708 212.0230733142285,216.43934496863412"/>
            <path fill="none" d="M 238.94985582850975,210.0552764955438 238.92239819848157,210.04137818898633 236.24205893141175,208.65459838102092"/>
            <path fill="none" d="M 211.93866652562346,218.82748081491044 215.16273466386815,217.78036205988596 217.94544682314165,216.87663315056406 220.76104034183163,215.96239576555243 223.98510848007632,214.91527701052794 227.20917661832104,213.86815825550343 230.4332447565657,212.82137848356572 233.6573128948104,211.7742597285413 236.88138103305505,210.72714097351678 238.94985582850975,210.0552764955438 239.14307618796713,206.6712083403449 239.33629654742455,203.28680120205922 239.52917792379517,199.90239406377356 239.72239828325263,196.5179869254879 239.91561864271,193.13391877028903 240.10883900216746,189.74951163200333 240.30205936162486,186.36510449371772 240.49527972108226,182.98069735543206 240.68850008053968,179.5966292002331 240.88172043999708,176.21222206194747 241.07494079945454,172.82781492366178 241.26816115891194,169.44340778537614 241.46104253528256,166.05933963017725 241.65426289474001,162.67493249189158 241.8474832541974,159.29052535360591 242.0407036136548,155.90611821532025 242.23392397311224,152.52205006012136 242.42714433256964,149.1376429218357 242.48680535584072,148.09120213298473"/>
            <path fill="none" d="M 273.13324928122057,116.38475809528327 273.2064696279623,115.45391053902001 269.9461302994335,114.52611383053767 269.8718930034314,114.50509687915809"/>
            <path fill="none" d="M 162.9979833735809,137.0579806248796 164.456627595941,136.77221788273468 165.75866163221457,136.51696361839885 169.085102662663,135.86476015945837 172.41154369311144,135.2125567005179 175.73832370664664,134.5606922246642 179.0647647370951,133.90848876572375 182.39120576754354,133.25628530678327 185.71764679799196,132.60442083092957 189.04408782844038,131.95221737198912 192.37086784197564,131.30001391304864 195.69730887242406,130.64814943719495 199.02374990287248,129.99594597825447 202.35019093332093,129.34374251931402 205.6769709468561,128.69187804346032 209.00341197730458,128.03967458451982 212.32985300775303,127.38747112557938 215.65629403820145,126.73526766663892 218.98273506864993,126.08340319078522 222.3095150821851,125.43119973184473 225.63595611263352,124.77899627290428 228.96239714308197,124.12713179705058 232.2888381735304,123.47492833811012 235.61561818706565,122.82272487916964 238.94205921751407,122.17086040331594 242.2685002479625,121.5186569443755 245.59494127841097,120.866453485435 248.9213823088594,120.21425002649455 252.24816232239456,119.56238555064085 255.57460335284307,118.91018209170039 258.9010443832915,118.2579786327599 262.2274854137399,117.6061141569062 265.55426542727514,116.95391069796575 269.74782519367454,116.13187671255481 273.074266224123,115.47967325361437 273.2064696279623,115.45391053902001"/>
            <path fill="none" d="M 269.84172350870915,114.49662230198891 266.77663843815833,115.08984270383183 263.4485024922761,115.73391056868991 260.1207055294805,116.37797843354795 256.79256958359827,117.02204629840598 253.464433637716,117.6664531463508 250.13629769183376,118.31052101120886 246.80816174595142,118.95458887606691 243.48036478315598,119.59865674092494 240.15222883727364,120.24272460578301 236.8240928913914,120.88713145372783 233.4959569455091,121.53119931858588 230.16782099962685,122.17526718344392 226.84002403683132,122.81933504830197 223.51188809094907,123.46374189624679 220.18375214506676,124.10780976110483 216.8556161991845,124.75187762596288 213.5274802533022,125.39594549082094 210.19968329050673,126.04035233876574 206.87154734462442,126.68442020362379 203.54341139874217,127.32848806848186 200.21527545285986,127.97255593333989 196.88747849006435,128.6169627812847 193.55934254418207,129.26103064614276 190.23120659829982,129.90509851100083 186.90307065241754,130.54916637585887 183.5749347065353,131.1932342407169 180.24713774373978,131.8376410886617 176.91900179785748,132.48170895351979 173.5908658519752,133.12577681837783 170.26272990609291,133.76984468323585 166.93459396021066,134.4142515311807 165.7542548520866,134.64272613166193 164.45052590037918,134.89492954821685 164.45052590037918,134.89492954821685 161.78069510899917,135.41153977245037 161.78069510899917,135.41153977245037 159.96408474701275,135.7634042165149 159.96408474701275,135.7634042165149 159.97425423961573,137.3230653987317"/>
            <path fill="none" d="M 159.96408474701275,135.7634042165149 161.786796804561,136.5413704006461 162.9979833735809,137.0579806248796 163.0023901537089,138.12950616215133"/>
            <path fill="none" d="M 238.92239819848157,210.04137818898633 235.69833006023683,211.08815796092406 232.47426192199217,212.13527671594852 229.2501937837475,213.18205648788623 226.02612564550282,214.2291752429107 222.80205750725813,215.27595501484842 220.73392169489026,215.94748050973465 217.91866715928705,216.86171789474628 217.91866715928705,216.86171789474628 214.69459902104236,217.90883664977082 211.939344491797,218.80341301574995"/>
            <path fill="none" d="M 241.96951716543364,211.61764954245473 238.95866938876566,210.06002225875855 238.92239819848157,210.04137818898633"/>
            <path fill="none" d="M 211.84375126132858,221.51426076062882 215.0640905856188,220.45629454682776 218.28476889299583,219.39832833302674 220.91290476470343,218.53493841103017 223.73595591130228,217.60748068563458 226.9562952355925,216.54951447183356 230.17697354296956,215.4915482580325 233.3973128672598,214.43358204423146 236.6179911746368,213.37561583043043 239.8383304989271,212.31764961662938 241.96951716543364,211.61764954245473 242.17121210206025,208.2339203703426 242.37290703868686,204.8498522151437 242.57494095840025,201.4661230430316 242.77663589502683,198.08239387091942 242.9783308316534,194.69866469880733 243.18002576828002,191.31459654360845 243.38172070490666,187.93086737149628 243.58341564153324,184.54713819938414 243.78511057815984,181.16307004418525 243.98680551478643,177.7793408720731 244.188500451413,174.395611699961 244.39019538803961,171.01188252784885 244.59189032466625,167.62781437264996 244.79358526129283,164.24408520053782 244.9952801979194,160.86035602842574 245.19731411763277,157.47628787322682 245.3990090542594,154.09255870111468 245.60070399088602,150.70882952900257 245.80307689368613,147.3108630672462"/>
            <path fill="none" d="M 265.8610451207996,269.85494384909305 262.74612953649404,271.1918931433036 259.6312139521885,272.529181420601 256.5162983678828,273.86646969789837 254.21765405651314,274.85291048039153 251.1027384722076,276.19019875768885 247.98782288790196,277.5274870349862 244.8729073035964,278.86443632919685 241.7579917192908,280.2017246064942 238.64307613498522,281.5390128837916 235.52816055067962,282.8759621780022 232.41290598328732,284.21325045529954 229.29799039898168,285.5505387325969 226.18307481467613,286.88748802680755 223.06815923037053,288.2247763041049 219.95324364606495,289.56206458140224 216.83832806175934,290.89901387561287 213.7234124774538,292.23630215291024 210.60849689314816,293.5735904302077 207.4935813088426,294.91053972441824 204.37832674145028,296.2478280017156 201.26341115714467,297.5847772959262 198.14849557283907,298.92206557322356 195.03357998853352,300.25935385052094 191.91866440422788,301.5963031447315 188.80374881992233,302.9335914220289 185.68883323561676,304.27087969932626 182.57391765131115,305.6078289935369 179.45900206700557,306.94511727083426 176.34374749961324,308.28240554813163 173.22883191530764,309.6193548423422 170.11391633100206,310.95664311963964 166.4569667909554,312.5264737944594 165.76272942925576,312.82443992772795 165.75391586899983,309.434609060054 165.74849213961156,307.32952409122845 165.73933959626882,303.9396932235545 165.73052603601286,300.5413877787114 165.72950908675256,300.0735911189724 165.7271362051452,299.1807096684271 165.71832264488924,295.79087880075315 165.7095090846333,292.40104793307916 165.70069552437735,289.0112170654052 165.6918819641214,285.6213861977313 165.689509082514,284.73325051040075 165.68069552225805,281.34341964272676 165.679339589911,280.91765688574696 165.67052602965504,277.52782601807303 165.66815314804768,276.58375812142583 165.6606955201388,273.7485035837033 165.6596785708785,273.2729103129687 165.65086501062254,269.88307944529475 165.6417124672798,266.49358756070757 165.63289890702387,263.10375669303363 165.6240853467679,259.71392582535964 165.61527178651195,256.3240949576857 165.606458226256,252.93426409001177 165.59764466600004,249.54443322233783 165.5888311057441,246.1546023546639 165.58001754548815,242.76477148698996 165.5712039852322,239.37494061931602 165.56239042497623,235.98510975164209 165.55357686472027,232.59527888396815 165.54476330446434,229.20544801629416 165.5359497442084,225.81561714862022 165.52713618395242,222.42578628094628 165.51832262369646,219.03595541327235 165.50917008035375,215.6461245455984 165.5003565200978,212.25629367792448 165.49255990910214,209.20510691393116 165.48645821354035,206.84747954546395 165.4776446532844,203.45764867779002 165.46883109302843,200.06781781011608 165.4600175327725,196.67798694244215 165.45086498942976,193.2881560747682 165.4420514291738,189.89832520709425 165.43323786891787,186.5084943394203 165.4244243086619,183.11866347174637 165.41561074840595,179.72883260407244 165.40679718815,176.3390017363985 165.39798362789404,172.94917086872454 165.3891700676381,169.55934000105057 165.38035650738215,166.16950913337664 165.3715429471262,162.7796782657027 165.36272938687023,159.38984739802876 165.3539158266143,156.00001653035483 165.34510226635834,152.61018566268086 165.33628870610238,149.22035479500693 165.32747514584642,145.830523927333 165.3183226025037,142.44069305965905 165.3112039576816,139.62306564244847"/>
            <path fill="none" d="M 278.5478261261561,116.9732327339115 275.223757977315,117.63831755014913 272.99935096194736,118.08306335998795 269.6752828131063,118.74814817622557 269.54613025704793,118.77391089081989 266.2220621082069,119.43865672397074 262.8979939593658,120.10374154020836 259.5742647936115,120.76848737335924 256.2501966447704,121.4332332065101 252.92612849592936,122.09831802274772 249.60206034708833,122.7630638558986 246.27833118133398,123.42814867213622 242.95426303249297,124.09289450528706 239.63019488365188,124.75764033843794 236.30612673481082,125.42272515467556 232.9823975690565,126.08747098782644 229.65832942021544,126.75221682097727 226.33426127137437,127.41730163721489 223.01019312253328,128.08204747036578 219.68646395677902,128.74679330351663 216.36239580793793,129.41187811975425 213.03832765909686,130.07662395290512 209.7142595102558,130.74170876914275 206.39019136141476,131.4064546022936 203.06646219566045,132.07120043544447 199.74239404681938,132.7362852516821 196.4183258979783,133.40103108483294 193.09425774913723,134.0657769179838 189.7705285833829,134.73086173422143 186.44646043454188,135.39560756737228 183.1223922857008,136.06035340052316 179.79832413685972,136.72543821676078 176.47459497110543,137.39018404991165 173.15052682226437,138.05526886614928 169.82645867342328,138.72001469930012 165.7654412939499,139.5322181751948 165.3112039576816,139.62306564244847 164.4647631900234,139.25831984108675 162.2088307475864,138.28611634823787"/>
            <path fill="none" d="M 265.8610451207996,269.85494384909305 266.14138413355624,266.4766384063692 266.4217231463129,263.09833296364536 266.7020621590695,259.7200275209215 266.98240117182615,256.34206106128437 267.26274018458275,252.96375561856055 267.5430791973394,249.58545017583674 267.823418210096,246.20748371619962 268.10375722285266,242.82917827347578 268.3840962356093,239.45087283075193 268.6644352483659,236.0725673880281 268.9447742611226,232.69460092839097 269.22511327387923,229.3162954856671 269.5054522866359,225.9379900429433 269.7857912993925,222.55968460021947 270.06613031214914,219.18171814058235 270.3464693249058,215.80341269785853 270.62680833766245,212.42510725513466 270.90714735041905,209.0468018124108 271.1874863631757,205.6688353527737 271.4678253759323,202.29052991004986 271.74816438868896,198.91222446732604 272.0285034014456,195.53391902460217 272.3088424142022,192.1559525649651 272.5891814269589,188.77764712224123 272.8695204397155,185.3993416795174 273.1498594524721,182.02103623679352 273.4301984652287,178.64306977715643 273.7105374779854,175.26476433443258 273.99087649074204,171.88645889170874 274.2712155034987,168.5081534489849 274.5515545162553,165.1301869893478 274.83189352901195,161.75188154662396 275.1122325417686,158.3735761039001 275.3925715545252,154.99527066117628 275.67291056728186,151.61730420153918 275.95324958003846,148.23899875881534 276.2335885927951,144.86069331609147 276.5139276055517,141.48238787336763 276.79426661830837,138.10442141373056 277.074605631065,134.7261159710067 277.3549446438216,131.34781052828285 277.6352836565783,127.96950508555898 277.91562266933494,124.59153862592191 278.19596168209154,121.21323318319806 278.5478261261561,116.9732327339115 275.2874867976273,116.0457750085159 275.10850372781414,115.99492754550079 273.13324928122057,116.38475809528327 269.8074862169456,117.04136833435173 269.6762997623666,117.06747003203283 269.64511331838406,117.07357172759465 266.58511299413476,117.67763958821415 263.2596889129466,118.33424982728258 259.93392584867166,118.99086006635102 256.6085017674836,119.64747030541946 253.28273870320868,120.3040805444879 249.95697563893378,120.96069078355634 246.63155155774564,121.61730102262479 243.30578849347071,122.27391126169324 239.9803644122826,122.93052150076167 236.65460134800767,123.58713173983013 233.32883828373278,124.24374197889856 230.00341420254466,124.90035221796701 226.67765113826974,125.5573014401222 223.3522270570816,126.21391167919066 220.0264639928067,126.87052191825909 216.70070092853183,127.52713215732754 213.37527684734366,128.18374239639598 210.04951378306873,128.84035263546443 206.72408970188062,129.49696287453287 203.3983266376057,130.1535731136013 200.07256357333083,130.81018335266975 196.74713949214268,131.4667935917382 193.42137642786776,132.12340383080664 190.09595234667964,132.78001406987508 186.77018928240471,133.43662430894352 183.44442621812982,134.09323454801196 180.11900213694167,134.7498447870804 176.79323907266675,135.40645502614885 173.46781499147863,136.0630652652173 170.1420519272037,136.71967550428573 166.81628886292884,137.37628574335417 165.76103451382193,137.58476034171613 164.48747505683684,137.83628579209753 164.46001742680866,137.8417095214858 163.0023901537089,138.12950616215133 162.2088307475864,138.28611634823787 162.2088307475864,138.28611634823787"/>
            <path fill="none" d="M 211.6895139568494,225.8661256285486 211.78917498435902,223.05663380542046 211.84375126132858,221.51426076062882 211.88307329939357,220.4027352191185 211.93866652562346,218.82748081491044 211.939344491797,218.80341301574995 212.0230733142285,216.43934496863412 212.1227343417381,213.6234124668574 212.1227343417381,213.6234124668574 212.20748011343,211.2329037389737 212.32714114305887,207.8451067698204 212.44714115577457,204.45730980066705 212.56714116849017,201.06985181460047 212.6868021981191,197.68205484544714 212.80680221083475,194.29425787629378 212.9268022235504,190.90646090714048 213.0464632531793,187.5190029210739 213.16646326589495,184.13120595192058 213.28646327861063,180.74340898276722 213.40612430823953,177.35561201361386 213.52612432095515,173.9681540275473 213.64578535058405,170.580357058394 213.7657853632997,167.19256008924063 213.88578537601535,163.8047631200873 214.00544640564428,160.41730513402072 214.12544641835987,157.0295081648674 214.2064633760973,154.74306724462133 217.50612474269116,153.96713495901074 220.80578610928492,153.19086369031342 224.10578645896553,152.4145924216161 227.40544782555935,151.63832115291876 230.70510919215317,150.8623888673082 234.00510954183375,150.08611759861085 237.30477090842754,149.3098463299135 239.5237541944069,148.78781237629173 242.45697484420518,148.09798179472008 242.48680535584072,148.09120213298473 245.80307689368613,147.3108630672462 247.69934828106292,146.86510030814708 250.99900964765675,146.08882903944973 251.1376537301446,146.05628666312006"/>
            <path fill="none" d="M 251.1376537301446,146.05628666312006 250.92206048696053,149.43933786905865 250.70680622686328,152.82205009191048 250.49121298367916,156.2051012978491 250.2759587235819,159.58815250378768 250.0607044634846,162.97120370972627 249.84511122030054,166.35425491566488 249.62985696020326,169.7369671385167 249.4142637170192,173.1200183444553 249.19900945692189,176.5030695503939 248.98341621373783,179.88612075633247 248.76816195364052,183.26883297918434 248.55256871045646,186.65188418512292 248.33731445035917,190.03493539106148 248.12172120717509,193.41798659700007 247.9064669470778,196.8010378029387 247.69087370389374,200.18375002579054 247.47561944379643,203.56680123172913 247.2600262006124,206.9498524376677 247.0447719405151,210.33290364360627 246.8037549658235,214.11832777353777"/>
            <path fill="none" d="M 243.69121226312527,212.50815811139267 246.70206003979322,214.06578539508885 246.8037549658235,214.11832777353777 243.58917835400825,215.1939211078507 240.37426275910633,216.26951444216365 237.1596861472911,217.3451077764766 233.94510953547592,218.4203621277028 230.73019394057394,219.49595546201573 228.50036319581804,220.24205723599076 225.6657866242691,221.19019292967914 222.45121001245388,222.2657862639921 219.23663340063868,223.34137959830505 216.0217178057367,224.416972932618 212.8071411939215,225.4922272838442 211.6895139568494,225.8661256285486"/>
            <path fill="none" d="M 247.69934828106292,146.86510030814708 247.49256859813482,150.24849049717244 247.28612789829347,153.63221966928455 247.07934821536537,157.01560985830994 246.87290751552402,160.3990000473353 246.66612783259592,163.78272921944742 246.45968713275457,167.16611940847278 246.25290744982647,170.54984858058492 246.04646674998511,173.93323876961026 245.84002605014376,177.31662895863562 245.63324636721566,180.7003581307478 245.4268056673743,184.08374831977312 245.2200259844462,187.46747749188526 245.01358528460486,190.85086768091062 244.80680560167673,194.2345968530227 244.6003649018354,197.6179870420481 244.39358521890733,201.00137723107343 244.18714451906592,204.3851064031856 243.98036483613782,207.76849659221097 243.77392413629653,211.15222576432308 243.69121226312527,212.50815811139267 240.47256785426887,213.5725650038423 237.25426242849923,214.63663291320515 234.03561801964278,215.70070082256797 230.81731259387314,216.7651077150176 227.59900716810355,217.82917562438044 225.4322272774863,218.54544688671996 222.60510833384626,219.48036224002442 222.60510833384626,219.48036224002442 219.38680290807665,220.5444301493873 216.16849748230698,221.60849805875014 214.77866682656065,222.06815912440672 211.78917498435902,223.05663380542046"/>
            <path fill="none" d="M 123.91933516486218,299.36816731540944 124.05221653487499,302.7556253014761 124.18509790488781,306.14274430445585 124.31797927490062,309.5298633074357 124.45086064491345,312.9173212935022 124.58374201492626,316.30444029648197 124.71696236802585,319.69155929946186 124.84984373803866,323.0790172855284 124.98272510805148,326.4661362885082 125.1156064780643,329.853255291488 125.24848784807712,333.24037429446776 125.38136921808993,336.6278322805344 125.51425058810274,340.01495128351416 125.64713195811557,343.40207028649394 125.78001332812838,346.7895282725606 125.9128946981412,350.17664727554035 126.04577606815401,353.5637662785201 126.17899642125361,356.95122426458676 126.31187779126644,360.33834326756653 126.44475916127925,363.72546227054636 126.57764053129208,367.1129202566128 126.71052190130489,370.50003925959265 126.84340327131771,373.88715826257254 126.97628464133052,377.2742772655523 127.10916601134333,380.6617352516189 127.24204738135616,384.0488542545987 127.37492875136897,387.43597325757844 127.50781012138181,390.8234312436451 127.64103047448137,394.21055024662485 127.7739118444942,397.5976692496047 127.906793214507,400.98512723567126 128.03967458451982,404.372246238651 128.17255595453264,407.75936524163086 128.30543732454547,411.1468232276974 128.4383186945583,414.5339422306772 128.57120006457112,417.92106123365704 128.70408143458394,421.3085192197235 128.83696280459677,424.6956382227034 128.9698441746096,428.08275722568317 129.10306452770914,431.469876228663 129.23594589772196,434.8573342147296 129.3688272677348,438.2444532177093 129.5017086377476,441.6315722206892 129.63459000776044,445.01903020675576 129.76747137777326,448.40614920973553 129.90035274778606,451.79326821271536 130.03323411779888,455.18072619878194 130.1661154878117,458.5678452017617 130.29899685782453,461.95496420474154 130.43187822783733,465.34242219080807 130.56509858093693,468.7295411937879 130.69797995094976,472.1166601967677 130.83086132096258,475.50411818283425 130.9637426909754,478.8912371858141 131.0966240609882,482.27835618879385 131.22950543100103,485.6654751917737 131.36238680101386,489.05293317784026 131.49526817102665,492.44005218082003 131.62814954103948,495.82717118379986 131.7610309110523,499.2146291698664 131.89391228106513,502.6017481728462 132.0271326341647,505.98886717582604 132.16001400417753,509.37632516189257 132.29289537419032,512.7634441648725 132.42577674420315,516.1505631678523 132.55865811421597,519.5380211539187 132.6915394842288,522.9251401568986 132.8244208542416,526.3122591598784 132.95730222425442,529.6993781628582 133.09018359426724,533.0868361489248 133.22306496428004,536.4739551519045 133.35594633429287,539.8610741548844 133.48916668739247,543.2485321409509 133.6220480574053,546.6356511439308 133.75492942741812,550.0227701469106 133.88781079743092,553.4102281329771 134.02069216744374,556.7973471359569 134.15357353745657,560.1844661389367 134.28645490746936,563.5715851419166 134.4193362774822,566.9590431279831 134.552217647495,570.3461621309629 134.68509901750784,573.7332811339427 134.81798038752066,577.1207391200093 134.9508617575335,580.5078581229891 135.08408211063303,583.8949771259689 135.21696348064586,587.2824351120355 135.3498448506587,590.6695541150152 135.4827262206715,594.056673117995 135.61560759068433,597.4441311040616 135.74848896069716,600.8312501070415 135.88137033070998,604.2183691100213 136.0142517007228,607.6058270960878 136.14713307073563,610.9929460990676 136.28001444074843,614.3800651020474 136.41289581076126,617.767523088114 136.54611616386083,621.1546420910938 136.67899753387363,624.5417610940735 136.81187890388648,627.9288800970534 136.9447602738993,631.31633808312 137.0776416439121,634.7034570860998 137.21052301392493,638.0905760890796 137.34340438393775,641.4780340751461 137.47628575395055,644.8651530781259 137.60916712396337,648.2522720811057 137.7420484939762,651.6397300671723 137.8752688470758,655.0268490701521 138.00815021708863,658.4139680731319 138.14103158710142,661.8014260591985 138.27391295711425,665.1885450621783 138.40679432712707,668.5756640651581 138.5396756971399,671.9627830681379 138.6725570671527,675.3502410542045 138.80543843716552,678.7373600571843 138.93831980717835,682.124479060164 139.07120117719114,685.5119370462306 139.20408254720397,688.8990560492105 139.3369639172168,692.2861750521903 139.47018427031637,695.6736330382569 139.6030656403292,699.0607520412366 139.73594701034202,702.4478710442164 139.8688283803548,705.835329030283 140.00170975036764,709.2224480332628 140.13459112038046,712.6095670362425 140.26747249039326,715.9966860392224 140.40035386040609,719.384144025289 140.5332352304189,722.7712630282689 140.66611660043174,726.1583820312485 140.79899797044456,729.5458400173151 140.93221832354413,732.9329590202949 141.06509969355696,736.3200780232747 141.19798106356978,739.7075360093414 141.3308624335826,743.094655012321 141.4637438035954,746.481774015301 141.59662517360823,749.8692320013674 141.72950654362106,753.2563510043474 141.86238791363388,756.6434700073271 141.9952692836467,760.0305890103069 142.24611676785455,766.4231320605663"/>
            <path fill="none" d="M 159.96408474701275,135.7634042165149 156.84611831492623,134.43289560095292 153.72849086592652,133.1020480023041 150.61052443384003,131.7715393867421 147.49289698484029,130.44103077118004 144.37493055275382,129.11052215561804 141.25730310375408,127.78001354005602 138.13967565475437,126.44916594140722 135.02170922266785,125.11865732584522 131.90408177366814,123.78814871028318 128.78611534158165,122.45764009472117 125.66848789258191,121.12713147915913 122.55052146049543,119.7966228635971 119.4328940114957,118.46577526494832 116.3149275794092,117.1352666493863 113.1973001304095,115.80475803382429 110.07967268140978,114.47424941826227 106.96170624932326,113.14374080270024 103.84407880032353,111.81289320405145 100.72611236823705,110.48238458848944 97.60848491923733,109.1518759729274 96.6044170162323,108.72340135125341 93.48678956723258,107.39289273569139 92.48272166422755,106.9644181140174"/>
            <path fill="none" d="M 161.77222053183002,133.77187858175648 158.6461185056611,132.46103098522696 155.5200164794922,131.15018338869743 152.39391445332328,129.83933579216793 149.26781242715435,128.52848819563843 146.14171040098546,127.2176405991089 143.01560837481654,125.90679300257939 139.88916736556087,124.59594540604988 136.76306533939197,123.28509780952035 133.63696331322305,121.97425021299085 130.51086128705415,120.66340261646134 127.38475926088525,119.35255501993183 124.25865723471632,118.04170742340233 121.13255520854742,116.73085982687279 118.00645318237852,115.42001223034327 114.8803511562096,114.10916463381378 111.75424913004069,112.79831703728426 108.62814710387177,111.48746944075474 105.50204507770286,110.17662184422525 102.37594305153397,108.86577424769573 100.14712925603834,107.93119787747801 97.02102722986942,106.62035028094849 96.47831530795483,106.39289262972757"/>
            <path fill="none" d="M 164.45052590037918,134.89492954821685 161.77222053183002,133.77187858175648"/>
            <path fill="none" d="M 207.57764911436095,314.5403723129445 207.46069994942616,317.9281692820979 207.34375078449142,321.31596625125115 207.22680161955665,324.7037632204045 207.10985245462194,328.0915601895578 206.99290328968718,331.4793571587112 206.87595412475244,334.8671541278645 206.75900495981764,338.2552900801046 206.64205579488294,341.64308704925793 206.52510662994817,345.0308840184113 206.40815746501343,348.41868098756464 206.29120830007864,351.80647795671797 206.17425913514393,355.19427492587135 206.05730997020916,358.5820718950247 205.94036080527442,361.969868864178 205.82341164033963,365.35766583333134 205.7064624754049,368.7454628024846 205.58951331047015,372.13325977163794 205.47256414553542,375.5210567407914 205.35561498060065,378.90885370994465 205.23866581566588,382.2966506790981 205.12171665073114,385.6844476482513 205.0047674857964,389.07224461740464 204.88781832086164,392.460041586558 204.7708691559269,395.84783855571135 204.65391999099214,399.2356355248647 204.5369708260574,402.623432494018 204.42002166112263,406.01122946317133 204.3030724961879,409.3990264323247 204.18612333125316,412.7871623845648 204.06917416631842,416.1749593537181 203.95222500138362,419.5627563228715 203.8352758364489,422.95055329202484 203.71832667151415,426.33835026117816 203.6013775065794,429.7261472303315 203.48442834164462,433.1139441994848 203.36747917670988,436.5017411686382 203.25053001177514,439.88953813779153 203.1335808468404,443.2773351069448 203.0166316819056,446.6651320760982 202.89968251697087,450.0529290452515 202.7827333520361,453.4407260144049 202.6657841871014,456.82852298355823 202.54883502216663,460.21631995271156 202.43188585723186,463.6041169218649 202.3149366922971,466.9919138910182 202.1979875273624,470.37971086017154 202.08103836242762,473.7675078293249 201.96408919749288,477.15530479847826 201.8471400325581,480.5431017676316 201.73019086762338,483.9308987367849 201.6132417026886,487.31903468902493 201.49629253775387,490.7068316581784 201.37934337281908,494.0946286273317 201.2623942078844,497.4824255964851 201.1454450429496,500.8702225656384 201.02849587801487,504.25801953479163 200.91154671308007,507.64581650394507 200.7945975481454,511.0336134730984 200.67730940012385,514.4214104422517 200.56069921827586,517.809207411405 200.44341107025434,521.1970043805584 200.3264619053196,524.5848013497117 200.20951274038484,527.972598318865 200.0925635754501,531.3603952880184 199.97561441051533,534.7481922571718 199.8586652455806,538.1359892263251 199.74171608064586,541.5237861954784 199.6247669157111,544.9115831646318 199.50781775077633,548.2993801337851 199.3908685858416,551.6871771029384 199.2739194209068,555.0749740720918 199.1569702559721,558.4631100243319 199.04002109103732,561.8509069934852 198.92307192610258,565.2387039626385 198.8061227611678,568.626500931792 198.6891735962331,572.0142979009453 198.5722244312983,575.4020948700986 198.45527526636357,578.7898918392519 198.3383261014288,582.1776888084052 198.2213769364941,585.5654857775585 198.1044277715593,588.9532827467119 197.98747860662456,592.3410797158652 197.8705294416898,595.7288766850187 197.7535802767551,599.116673654172 197.63663111182032,602.5044706233252 197.51968194688558,605.8922675924786 197.4027327819508,609.2800645616319 197.28578361701608,612.6678615307852 197.1688344520813,616.0556584999387 197.05188528714658,619.4434554690919 196.93493612221178,622.8312524382453 196.81798695727707,626.2190494073986 196.7010377923423,629.6071853596387 196.58408862740757,632.994982328792 196.46713946247277,636.3827792979454 196.35019029753803,639.7705762670988 196.2332411326033,643.158373236252 196.11629196766856,646.5461702054054 195.9993428027338,649.9339671745588 195.88239363779903,653.3217641437121 195.7654444728643,656.7095611128655 195.64849530792955,660.0973580820188 195.53154614299478,663.4851550511721 195.41459697806005,666.8729520203254 195.2976478131253,670.2607489894788 195.18069864819054,673.6485459586321 195.06374948325578,677.0363429277855 194.94680031832104,680.4241398969388 194.8298511533863,683.8119368660921 194.71290198845156,687.1997338352455 194.59595282351677,690.5875308043989 194.47900365858203,693.9753277735522 194.3620544936473,697.3631247427055 194.24510532871255,700.7509217118588 194.12815616377776,704.1390576640989 194.01120699884302,707.5265156501655 193.89425783390828,710.9146516024056 193.77730866897355,714.302448571559 193.66035950403875,717.6902455407123 193.543410339104,721.0780425098657 193.42646117416925,724.465839479019 193.30951200923454,727.8536364481724 193.19256284429977,731.2414334173255 193.075613679365,734.6292303864789 192.95866451443024,738.0170273556323 192.84171534949553,741.4048243247855 192.72476618456076,744.792621293939 192.60781701962603,748.1804182630924 192.45256276588657,752.6763509428882"/>
            <path fill="none" d="M 242.45697484420518,148.09798179472008 242.26375448474778,151.48238893300575 242.0708731083771,154.86679607129142 241.8776527489197,158.25120320957708 241.6844323894623,161.63527136477597 241.49155101309162,165.01967850306164 241.29833065363422,168.4040856413473 241.10511029417682,171.78849277963297 240.91222891780615,175.17256093483186 240.71900855834875,178.55696807311756 240.52578819889135,181.9413752114032 240.33290682252067,185.32578234968886 240.13968646306327,188.70985050488775 239.94646610360587,192.09425764317342 239.7535847272352,195.4786647814591 239.5603643677778,198.86307191974473 239.3671440083204,202.24714007494364 239.17426263194972,205.6315472132293 238.98104227249232,209.01595435151498 238.92239819848157,210.04137818898633"/>
            <path fill="none" d="M 218.0942603982326,214.48781933811426 215.12781940593106,212.84748018124682 212.20748011343,211.2329037389737"/>
        </g>
    </g>
</svg>