<svg xmlns="http://www.w3.org/2000/svg" xmlns:xlink="http://www.w3.org/1999/xlink" xmlns:ifc="http://www.ifcopenshell.org/ns" width="1000mm" height="1000mm" viewBox="0 0 1000 1000">
    <defs>
        <marker id="arrowend" markerWidth="10" markerHeight="7" refX="10" refY="3.5" orient="auto">
          <polygon points="0 0, 10 3.5, 0 7"/>
        </marker>
        <marker id="arrowstart" markerWidth="10" markerHeight="7" refX="0" refY="3.5" orient="auto">
          <polygon points="10 0, 0 3.5, 10 7"/>
        </marker>
    </defs>
    <g ifc:name="Elevation Vert. Constructiedetails" class="section" ifc:plane="[[1.000000,0.000000,0.000000,0.000000],[0.000000,1.000000,0.000000,0.000000],[0.000000,0.000000,1.000000,0.000000],[0.000000,0.000000,0.000000,1.000000]]" ifc:matrix3="[[100.000001,0.000000,10533.958650],[0.000000,100.000001,876.614574],[0.000000,0.000000,1.000000]]">
        <g id="product-2fa96c15-3547-4437-b865-1f5b8c498f81" class="IfcSlab material-naaldhoutvurenCLT projection" ifc:name="CLT150" ifc:guid="0lgMmLDKT4DxXb7rkCIO_1">
            <path d="M464.137,571.615 L364.137,571.615"/>
            <path d="M364.137,586.615 L364.137,571.615"/>
            <path d="M464.137,586.615 L364.137,586.615"/>
            <path d="M464.137,571.615 L464.137,586.615"/>
        </g>
        <g id="product-1220c328-813b-4bc5-9ce6-0f4f88128308" class="IfcBeam material-HEA260 projection" ifc:name="HEA260" ifc:guid="0I8CCeWJjBnPpc3q_84eC8">
            <path d="M451.137,571.115 L477.137,571.115"/>
            <path d="M477.137,571.115 L477.137,569.865"/>
            <path d="M477.137,569.865 L466.912,569.865"/>
            <path d="M465.993,569.682 L466.912,569.865"/>
            <path d="M465.215,569.162 L465.993,569.682"/>
            <path d="M464.694,568.383 L465.215,569.162"/>
            <path d="M464.512,567.465 L464.694,568.383"/>
            <path d="M464.512,567.465 L464.512,549.765"/>
            <path d="M464.694,548.846 L464.512,549.765"/>
            <path d="M465.215,548.068 L464.694,548.846"/>
            <path d="M465.993,547.547 L465.215,548.068"/>
            <path d="M466.912,547.365 L465.993,547.547"/>
            <path d="M466.912,547.365 L477.137,547.365"/>
            <path d="M477.137,547.365 L477.137,546.115"/>
            <path d="M477.137,546.115 L451.137,546.115"/>
            <path d="M451.137,546.115 L451.137,547.365"/>
            <path d="M451.137,547.365 L461.362,547.365"/>
            <path d="M462.28,547.547 L461.362,547.365"/>
            <path d="M463.059,548.068 L462.28,547.547"/>
            <path d="M463.579,548.846 L463.059,548.068"/>
            <path d="M463.762,549.765 L463.579,548.846"/>
            <path d="M463.762,549.765 L463.762,567.465"/>
            <path d="M463.579,568.383 L463.762,567.465"/>
            <path d="M463.059,569.162 L463.579,568.383"/>
            <path d="M462.28,569.682 L463.059,569.162"/>
            <path d="M461.362,569.865 L462.28,569.682"/>
            <path d="M461.362,569.865 L451.137,569.865"/>
            <path d="M451.137,569.865 L451.137,571.115"/>
        </g>
        <g id="product-a4e9e5c9-9101-4e6d-9e47-1ee13832566d" class="IfcWall material-NEN471metselwerkbaksteen projection" ifc:name="MW140.001" ifc:guid="2awUN9aG5ERPv77k4uCbPj">
            <path d="M478.137,548.615 L464.137,548.615"/>
            <path d="M478.137,398.615 L478.137,548.615"/>
            <path d="M478.137,398.615 L464.137,398.615"/>
            <path d="M464.137,548.581 L464.137,547.876"/>
            <path d="M464.137,547.547 L464.137,398.615"/>
        </g>
        <g id="product-e9e967ed-6f32-4b6e-b6b4-16164bdf7a07" class="IfcSlab material-gewapendbeton projection" ifc:name="Breedplaat 280" ifc:guid="3fwMVjRp9BRhQq5XPBtte7">
            <path d="M464.137,576.615 L652.185,576.615"/>
            <path d="M652.185,548.615 L652.185,576.615"/>
            <path d="M440.137,548.615 L463.424,548.615"/>
            <path d="M464.619,548.615 L652.185,548.615"/>
            <path d="M440.137,548.615 L440.137,571.615"/>
            <path d="M440.137,571.615 L464.137,571.615"/>
            <path d="M464.137,571.615 L464.137,576.615"/>
        </g>
        <g id="product-a6ff7e3a-8735-44ea-9614-a3b5df5fc926" class="IfcWall material-NEN471metselwerkbaksteen projection" ifc:name="MW140" ifc:guid="2c$tuwXpL4wfOKexNVNyac">
            <path d="M478.137,726.615 L464.137,726.615"/>
            <path d="M478.137,576.615 L478.137,726.615"/>
            <path d="M478.137,576.615 L464.137,576.615"/>
            <path d="M464.137,726.615 L464.137,576.615"/>
        </g>
    <g ifc:guid="0I8CCeWJjBnPpc3q_84eC8" ifc:name="HEA260" class="IfcBeam material-HEA260 cut"><path d="M477.1362781524658,570.7969605922699 L477.1362781524658,569.8646247386932 L474.5384693145752,569.8646247386932 L466.91136360168457,569.8646247386932 L466.5131092071533,569.8197543621063 L466.37730598449707,569.804447889328 L465.99888801574707,569.6720540523529 L465.86995124816895,569.6269452571869 L465.75474739074707,569.5542991161346 L465.41523933410645,569.3410098552704 L465.13142585754395,569.0575778484344 L465.0352954864502,568.9609944820404 L464.9628162384033,568.8453614711761 L464.7491931915283,568.5059487819672 L464.6172046661377,568.127578496933 L464.5714282989502,567.9986655712128 L464.52717781066895,567.6003396511078 L464.51191902160645,567.4646317958832 L464.51191902160645,562.966650724411 L464.51191902160645,549.7646301984787 L464.5561695098877,549.3662804365158 L464.5714282989502,549.2305725812912 L464.70417976379395,548.8522261381149 L464.7491931915283,548.7233132123947 L464.8216724395752,548.6076563596725 L465.0352954864502,548.2682436704636 L465.31834602355957,547.9848116636276 L465.41523933410645,547.8882282972336 L465.53120613098145,547.8155821561813 L465.86995124816895,547.6022928953171 L466.24836921691895,547.469899058342 L466.37730598449707,547.424790263176 L466.7755603790283,547.379919886589 L466.91136360168457,547.3646372556686 L469.5099353790283,547.3646372556686 L477.1362781524658,547.3646372556686 L477.1362781524658,547.0469683408737 L477.1362781524658,546.1146324872971 L470.5292224884033,546.1146324872971 L451.13682746887207,546.1146324872971 L451.13682746887207,546.4322775602341 L451.13682746887207,547.3646372556686 L453.7346363067627,547.3646372556686 L461.3617420196533,547.3646372556686 L461.75999641418457,547.4095076322556 L461.8957996368408,547.424790263176 L462.2742176055908,547.5571841001511 L462.40315437316895,547.6022928953171 L462.5183582305908,547.6749628782272 L462.85786628723145,547.8882282972336 L463.14167976379395,548.1716841459274 L463.2378101348877,548.2682436704636 L463.31028938293457,548.3839005231857 L463.52391242980957,548.7233132123947 L463.6559009552002,549.101659655571 L463.7016773223877,549.2305725812912 L463.74592781066895,549.6289223432541 L463.76118659973145,549.7646301984787 L463.76118659973145,554.2625844478607 L463.76118659973145,567.4646317958832 L463.7169361114502,567.8629577159882 L463.7016773223877,567.9986655712128 L463.56892585754395,568.377035856247 L463.52391242980957,568.5059487819672 L463.4514331817627,568.6215817928314 L463.2378101348877,568.9609944820404 L462.9547595977783,569.2444503307343 L462.85786628723145,569.3410098552704 L462.74266242980957,569.4136798381805 L462.40315437316895,569.6269452571869 L462.02473640441895,569.759339094162 L461.8957996368408,569.804447889328 L461.49754524230957,569.8493421077728 L461.3617420196533,569.8646247386932 L458.76317024230957,569.8646247386932 L451.13682746887207,569.8646247386932 L451.13682746887207,570.1822698116302 L451.13682746887207,571.1146295070648 L457.74388313293457,571.1146295070648 L477.1362781524658,571.1146295070648 Z"/></g><g class="IfcWall material-NEN471metselwerkbaksteen 2c$tuwXpL4wfOKexNVNyac cut 2awUN9aG5ERPv77k4uCbPj"><path d="M467.9893970489502,398.61459732055664 L464.13655281066895,398.61459732055664 L464.13655281066895,439.8931920528412 L464.13655281066895,548.6146181821823 L467.9893970489502,548.6146181821823 L478.1364917755127,548.6146181821823 L478.1364917755127,507.33601674437523 L478.1364917755127,398.61459732055664 Z"/></g><g class="IfcWall material-NEN471metselwerkbaksteen 2c$tuwXpL4wfOKexNVNyac cut 2awUN9aG5ERPv77k4uCbPj"><path d="M467.9893970489502,576.6146123409271 L464.13655281066895,576.6146123409271 L464.13655281066895,617.8932189941406 L464.13655281066895,726.6146183013916 L467.9893970489502,726.6146183013916 L478.1364917755127,726.6146183013916 L478.1364917755127,685.3360295295715 L478.1364917755127,576.6146123409271 Z"/></g><g class="0lgMmLDKT4DxXb7rkCIO_1 material-naaldhoutvurenCLT cut IfcSlab"><path d="M436.6173267364502,571.6146171092987 L364.13655281066895,571.6146171092987 L364.13655281066895,575.7424771785736 L364.13655281066895,586.6146266460419 L436.6173267364502,586.6146266460419 L464.13655281066895,586.6146266460419 L464.13655281066895,582.486766576767 L464.13655281066895,571.6146171092987 Z"/></g><g class="material-gewapendbeton cut 3fwMVjRp9BRhQq5XPBtte7 IfcSlab"><path d="M652.1851062774658,556.3199460506439 L652.1851062774658,548.6146181821823 L498.49019050598145,548.6146181821823 L440.1367664337158,548.6146181821823 L440.1367664337158,554.9440085887909 L440.1367664337158,571.6146171092987 L446.74153327941895,571.6146171092987 L464.13655281066895,571.6146171092987 L464.13655281066895,572.9905784130096 L464.13655281066895,576.6146123409271 L515.8859729766846,576.6146123409271 L652.1851062774658,576.6146123409271 Z"/></g></g>
</svg>